<?xml version="1.0" encoding="iso-8859-1"?>
<!-- Generator: Adobe Illustrator 19.0.0, SVG Export Plug-In . SVG Version: 6.00 Build 0)  -->
<svg version="1.1" id="Capa_1" xmlns="http://www.w3.org/2000/svg" xmlns:xlink="http://www.w3.org/1999/xlink" x="0px" y="0px"
	 viewBox="0 0 512 512" style="enable-background:new 0 0 512 512;" xml:space="preserve">
<g>
	<g>
		<path d="M432,32H16C7.168,32,0,39.168,0,48v32c0,8.832,7.168,16,16,16h416c8.832,0,16-7.168,16-16V48
			C448,39.168,440.832,32,432,32z"/>
	</g>
</g>
<g>
	<g>
		<path d="M506.24,371.712l-96-80c-4.768-3.968-11.424-4.8-17.024-2.176C387.584,292.128,384,297.792,384,304v48H16
			c-8.832,0-16,7.168-16,16v32c0,8.832,7.168,16,16,16h368v48c0,6.208,3.584,11.84,9.216,14.496c2.144,0.992,4.48,1.504,6.784,1.504
			c3.68,0,7.328-1.248,10.24-3.712l96-80c3.68-3.04,5.76-7.552,5.76-12.288C512,379.264,509.92,374.752,506.24,371.712z"/>
	</g>
</g>
<g>
	<g>
		<polygon points="296.32,128 46.688,320 151.68,320 401.28,128 		"/>
	</g>
</g>
<g>
</g>
<g>
</g>
<g>
</g>
<g>
</g>
<g>
</g>
<g>
</g>
<g>
</g>
<g>
</g>
<g>
</g>
<g>
</g>
<g>
</g>
<g>
</g>
<g>
</g>
<g>
</g>
<g>
</g>
</svg>
