<?xml version="1.0" encoding="iso-8859-1"?>
<!-- Generator: Adobe Illustrator 19.0.0, SVG Export Plug-In . SVG Version: 6.00 Build 0)  -->
<svg version="1.1" id="Capa_1" xmlns="http://www.w3.org/2000/svg" xmlns:xlink="http://www.w3.org/1999/xlink" x="0px" y="0px"
	 viewBox="0 0 512.016 512.016" style="enable-background:new 0 0 512.016 512.016;" xml:space="preserve">
<g>
	<g>
		<path d="M462.793,393.896c-2.464-5.984-8.32-9.888-14.784-9.888h-48v-32c0-79.36-64.64-144-144-144c-26.56,0-48-21.44-48-48v-32
			h48c6.464,0,12.32-3.904,14.784-9.888s1.088-12.832-3.488-17.44l-96-96c-6.24-6.24-16.384-6.24-22.624,0l-96,96
			c-4.544,4.608-5.92,11.456-3.456,17.44s8.32,9.888,14.784,9.888h48v32c0,79.36,64.64,144,144,144c26.56,0,48,21.44,48,48v32h-48
			c-6.464,0-12.32,3.904-14.784,9.888s-1.088,12.864,3.456,17.44l96,96c6.24,6.24,16.384,6.24,22.624,0l96-96
			C463.881,406.728,465.257,399.88,462.793,393.896z"/>
	</g>
</g>
<g>
</g>
<g>
</g>
<g>
</g>
<g>
</g>
<g>
</g>
<g>
</g>
<g>
</g>
<g>
</g>
<g>
</g>
<g>
</g>
<g>
</g>
<g>
</g>
<g>
</g>
<g>
</g>
<g>
</g>
</svg>
