<?xml version="1.0" encoding="iso-8859-1"?>
<!-- Generator: Adobe Illustrator 19.0.0, SVG Export Plug-In . SVG Version: 6.00 Build 0)  -->
<svg version="1.1" id="Capa_1" xmlns="http://www.w3.org/2000/svg" xmlns:xlink="http://www.w3.org/1999/xlink" x="0px" y="0px"
	 viewBox="0 0 496.014 496.014" style="enable-background:new 0 0 496.014 496.014;" xml:space="preserve">
<g>
	<g>
		<path d="M312.003,0h-16c-123.712,0-224,78.784-224,176v112h1.024c10.304-89.696,106.144-160,222.976-160h16
			c8.832,0,16-7.168,16-16V16C328.003,7.168,320.835,0,312.003,0z"/>
	</g>
</g>
<g>
	<g>
		<path d="M419.331,372.672l-96-96c-4.576-4.544-11.456-5.92-17.44-3.456s-9.888,8.32-9.888,14.784v32
			c-116.832,0-212.672-70.304-222.976-160h-1.024v112c0,97.216,100.288,176,224,176v32c0,6.464,3.904,12.32,9.888,14.784
			c5.984,2.496,12.864,1.12,17.44-3.456l96-96C425.571,389.056,425.571,378.944,419.331,372.672z"/>
	</g>
</g>
<g>
</g>
<g>
</g>
<g>
</g>
<g>
</g>
<g>
</g>
<g>
</g>
<g>
</g>
<g>
</g>
<g>
</g>
<g>
</g>
<g>
</g>
<g>
</g>
<g>
</g>
<g>
</g>
<g>
</g>
</svg>
