<?xml version="1.0" encoding="iso-8859-1"?>
<!-- Generator: Adobe Illustrator 19.0.0, SVG Export Plug-In . SVG Version: 6.00 Build 0)  -->
<svg version="1.1" id="Capa_1" xmlns="http://www.w3.org/2000/svg" xmlns:xlink="http://www.w3.org/1999/xlink" x="0px" y="0px"
	 viewBox="0 0 512 512" style="enable-background:new 0 0 512 512;" xml:space="preserve">
<g>
	<g>
		<path d="M447.999,320h-32c-8.832,0-16,7.168-16,16v112h-320V336c0-8.832-7.168-16-16-16h-32c-8.832,0-16,7.168-16,16v112
			c0,35.36,28.64,64,64,64h320c35.36,0,64-28.64,64-64V336C463.999,327.168,456.831,320,447.999,320z"/>
	</g>
</g>
<g>
	<g>
		<path d="M490.015,67.488l-80-64C407.071,1.152,403.519,0,399.999,0c-3.52,0-7.072,1.152-10.016,3.488l-80,64
			c-5.312,4.256-7.328,11.36-5.088,17.792c2.272,6.432,8.32,10.72,15.104,10.72h48v32c0,106.048-85.952,192-192,192h-16
			c-8.832,0-16,7.168-16,16v32c0,8.832,7.168,16,16,16h16c141.376,0,256-114.624,256-256V96h48c6.784,0,12.832-4.288,15.104-10.72
			C497.343,78.88,495.295,71.744,490.015,67.488z"/>
	</g>
</g>
<g>
</g>
<g>
</g>
<g>
</g>
<g>
</g>
<g>
</g>
<g>
</g>
<g>
</g>
<g>
</g>
<g>
</g>
<g>
</g>
<g>
</g>
<g>
</g>
<g>
</g>
<g>
</g>
<g>
</g>
</svg>
