<?xml version="1.0" encoding="iso-8859-1"?>
<!-- Generator: Adobe Illustrator 19.0.0, SVG Export Plug-In . SVG Version: 6.00 Build 0)  -->
<svg version="1.1" id="Capa_1" xmlns="http://www.w3.org/2000/svg" xmlns:xlink="http://www.w3.org/1999/xlink" x="0px" y="0px"
	 viewBox="0 0 479.992 479.992" style="enable-background:new 0 0 479.992 479.992;" xml:space="preserve">
<g>
	<g>
		<path d="M377.052,114.712L250.556,3.96c-6.048-5.28-15.04-5.28-21.088,0L102.94,114.712c-6.656,5.824-7.328,15.968-1.472,22.624
			l21.088,23.968c5.856,6.624,15.936,7.264,22.56,1.472l62.88-55.104v228.32c0,8.832,7.168,16,16,16h32c8.832,0,16-7.168,16-16
			v-228.32l62.88,55.104c6.656,5.792,16.736,5.152,22.56-1.472l21.088-24C384.38,130.68,383.708,120.536,377.052,114.712z"/>
	</g>
</g>
<g>
	<g>
		<path d="M415.996,415.992h-352c-8.832,0-16,7.168-16,16v32c0,8.832,7.168,16,16,16h352c8.832,0,16-7.168,16-16v-32
			C431.996,423.16,424.828,415.992,415.996,415.992z"/>
	</g>
</g>
<g>
</g>
<g>
</g>
<g>
</g>
<g>
</g>
<g>
</g>
<g>
</g>
<g>
</g>
<g>
</g>
<g>
</g>
<g>
</g>
<g>
</g>
<g>
</g>
<g>
</g>
<g>
</g>
<g>
</g>
</svg>
