<?xml version="1.0" encoding="iso-8859-1"?>
<!-- Generator: Adobe Illustrator 19.0.0, SVG Export Plug-In . SVG Version: 6.00 Build 0)  -->
<svg version="1.1" id="Capa_1" xmlns="http://www.w3.org/2000/svg" xmlns:xlink="http://www.w3.org/1999/xlink" x="0px" y="0px"
	 viewBox="0 0 512 512" style="enable-background:new 0 0 512 512;" xml:space="preserve">
<g>
	<g>
		<path d="M348.288,101.616l-80-96c-6.08-7.296-18.496-7.296-24.608,0l-80,96c-3.936,4.768-4.8,11.392-2.176,17.024
			c2.624,5.632,8.288,9.216,14.496,9.216h48v240c0,8.832,7.168,16,16,16h32c8.832,0,16-7.168,16-16v-240h48
			c6.208,0,11.84-3.584,14.496-9.216C353.12,113.008,352.256,106.384,348.288,101.616z"/>
	</g>
</g>
<g>
	<g>
		<path d="M480,191.856H320v64h128v192H64v-192h128v-64H32c-17.664,0-32,14.336-32,32v256c0,17.696,14.336,32,32,32h448
			c17.696,0,32-14.304,32-32v-256C512,206.192,497.696,191.856,480,191.856z"/>
	</g>
</g>
<g>
</g>
<g>
</g>
<g>
</g>
<g>
</g>
<g>
</g>
<g>
</g>
<g>
</g>
<g>
</g>
<g>
</g>
<g>
</g>
<g>
</g>
<g>
</g>
<g>
</g>
<g>
</g>
<g>
</g>
</svg>
