<?xml version="1.0" encoding="iso-8859-1"?>
<!-- Generator: Adobe Illustrator 19.0.0, SVG Export Plug-In . SVG Version: 6.00 Build 0)  -->
<svg version="1.1" id="Capa_1" xmlns="http://www.w3.org/2000/svg" xmlns:xlink="http://www.w3.org/1999/xlink" x="0px" y="0px"
	 viewBox="0 0 512.016 512.016" style="enable-background:new 0 0 512.016 512.016;" xml:space="preserve">
<g>
	<g>
		<path d="M510.792,233.896c-1.632-3.904-4.736-7.04-8.672-8.672c-1.952-0.8-4-1.216-6.08-1.216h-48.032
			c0-123.52-100.512-224-224-224c-54.208,0-105.472,19.104-146.08,54.112c-6.944,5.984-6.912,16.864-0.48,23.328l45.728,45.76
			c5.76,5.76,14.72,5.664,21.088,0.608c22.592-18.016,50.4-27.808,79.744-27.808c70.592,0,128,57.408,128,128H304.04
			c-2.112,0-4.16,0.416-6.112,1.216c-3.936,1.632-7.04,4.768-8.672,8.672c-1.632,3.904-1.632,8.32,0,12.224
			c0.8,1.984,1.984,3.744,3.488,5.216l95.968,95.968c6.24,6.24,16.384,6.24,22.624,0l95.968-95.968
			c1.472-1.472,2.656-3.264,3.488-5.216C512.424,242.216,512.424,237.8,510.792,233.896z"/>
	</g>
</g>
<g>
	<g>
		<path d="M434.568,434.536l-45.792-45.728c-5.76-5.76-14.72-5.664-21.088-0.576c-22.528,17.984-50.336,27.776-79.68,27.776
			c-70.592,0-128-57.408-128-128h47.968c2.08,0,4.16-0.416,6.112-1.216c3.904-1.632,7.04-4.736,8.672-8.672
			c1.632-3.904,1.632-8.32,0-12.224c-0.8-1.952-1.984-3.744-3.488-5.216l-95.968-96c-6.24-6.24-16.384-6.24-22.624,0l-95.968,96
			c-1.504,1.472-2.688,3.264-3.488,5.216c-1.632,3.904-1.632,8.32,0,12.224s4.736,7.04,8.672,8.672c1.952,0.8,4,1.216,6.08,1.216
			h48.032c0,123.488,100.48,224,224,224c54.24,0,105.504-19.136,146.112-54.144C441.032,451.88,441.032,441,434.568,434.536z"/>
	</g>
</g>
<g>
</g>
<g>
</g>
<g>
</g>
<g>
</g>
<g>
</g>
<g>
</g>
<g>
</g>
<g>
</g>
<g>
</g>
<g>
</g>
<g>
</g>
<g>
</g>
<g>
</g>
<g>
</g>
<g>
</g>
</svg>
