<?xml version="1.0" encoding="iso-8859-1"?>
<!-- Generator: Adobe Illustrator 19.0.0, SVG Export Plug-In . SVG Version: 6.00 Build 0)  -->
<svg version="1.1" id="Capa_1" xmlns="http://www.w3.org/2000/svg" xmlns:xlink="http://www.w3.org/1999/xlink" x="0px" y="0px"
	 viewBox="0 0 512.022 512.022" style="enable-background:new 0 0 512.022 512.022;" xml:space="preserve">
<g>
	<g>
		<path d="M507.347,100.68l-96-96c-6.24-6.24-16.384-6.24-22.624,0l-96,96c-4.576,4.576-5.952,11.456-3.488,17.44
			s8.32,9.888,14.784,9.888h48v224h-224v-48c0-6.464-3.904-12.32-9.888-14.784s-12.864-1.088-17.44,3.488l-96,96
			c-6.24,6.24-6.24,16.384,0,22.624l96,96c4.576,4.576,11.456,5.952,17.44,3.456s9.888-8.32,9.888-14.784v-48h304
			c8.832,0,16-7.168,16-16v-304h48c6.464,0,12.32-3.904,14.784-9.888C513.267,112.136,511.891,105.256,507.347,100.68z"/>
	</g>
</g>
<g>
</g>
<g>
</g>
<g>
</g>
<g>
</g>
<g>
</g>
<g>
</g>
<g>
</g>
<g>
</g>
<g>
</g>
<g>
</g>
<g>
</g>
<g>
</g>
<g>
</g>
<g>
</g>
<g>
</g>
</svg>
