<?xml version="1.0" encoding="iso-8859-1"?>
<!-- Generator: Adobe Illustrator 19.0.0, SVG Export Plug-In . SVG Version: 6.00 Build 0)  -->
<svg version="1.1" id="Capa_1" xmlns="http://www.w3.org/2000/svg" xmlns:xlink="http://www.w3.org/1999/xlink" x="0px" y="0px"
	 viewBox="0 0 511.985 511.985" style="enable-background:new 0 0 511.985 511.985;" xml:space="preserve">
<g>
	<g>
		<path d="M507.32,148.668l-96-96c-6.24-6.24-16.384-6.24-22.624,0l-96,96c-4.576,4.608-5.952,11.456-3.488,17.44
			s8.32,9.888,14.784,9.888h48v96c0,52.928-43.072,96-96,96c-52.928,0-96-43.072-96-96v-96h48c6.464,0,12.32-3.904,14.784-9.888
			s1.088-12.832-3.456-17.44l-96-96c-6.24-6.24-16.384-6.24-22.624,0l-96,96c-4.576,4.608-5.952,11.456-3.488,17.44
			s8.32,9.888,14.784,9.888h48v96c0,105.888,86.112,192,192,192s192-86.112,192-192v-96h48c6.464,0,12.32-3.904,14.784-9.888
			S511.864,153.276,507.32,148.668z"/>
	</g>
</g>
<g>
</g>
<g>
</g>
<g>
</g>
<g>
</g>
<g>
</g>
<g>
</g>
<g>
</g>
<g>
</g>
<g>
</g>
<g>
</g>
<g>
</g>
<g>
</g>
<g>
</g>
<g>
</g>
<g>
</g>
</svg>
