<?xml version="1.0" encoding="iso-8859-1"?>
<!-- Generator: Adobe Illustrator 19.0.0, SVG Export Plug-In . SVG Version: 6.00 Build 0)  -->
<svg version="1.1" id="Capa_1" xmlns="http://www.w3.org/2000/svg" xmlns:xlink="http://www.w3.org/1999/xlink" x="0px" y="0px"
	 viewBox="0 0 512.014 512.014" style="enable-background:new 0 0 512.014 512.014;" xml:space="preserve">
<g>
	<g>
		<path d="M459.331,100.686l-96-96c-4.576-4.576-11.456-5.952-17.44-3.456c-5.984,2.496-9.888,8.32-9.888,14.784v48h-160
			c-70.688,0-128,57.312-128,128v304c0,8.832,7.168,16,16,16h64c8.832,0,16-7.168,16-16v-304c0-17.664,14.336-32,32-32h160v48
			c0,6.464,3.904,12.32,9.888,14.784c5.984,2.496,12.864,1.12,17.44-3.456l96-96C465.571,117.07,465.571,106.926,459.331,100.686z"
			/>
	</g>
</g>
<g>
</g>
<g>
</g>
<g>
</g>
<g>
</g>
<g>
</g>
<g>
</g>
<g>
</g>
<g>
</g>
<g>
</g>
<g>
</g>
<g>
</g>
<g>
</g>
<g>
</g>
<g>
</g>
<g>
</g>
</svg>
