<?xml version="1.0" encoding="iso-8859-1"?>
<!-- Generator: Adobe Illustrator 19.0.0, SVG Export Plug-In . SVG Version: 6.00 Build 0)  -->
<svg version="1.1" id="Capa_1" xmlns="http://www.w3.org/2000/svg" xmlns:xlink="http://www.w3.org/1999/xlink" x="0px" y="0px"
	 viewBox="0 0 480 480" style="enable-background:new 0 0 480 480;" xml:space="preserve">
<g>
	<g>
		<path d="M428.64,119.424L340.32,6.144C337.28,2.272,332.64,0,327.68,0h-80.96c-6.176,0-11.808,3.552-14.464,9.152
			c-2.656,5.568-1.824,12.192,2.08,16.96L278.272,80H248C137.728,80,48,169.728,48,280s89.728,200,200,200h8c8.832,0,16-7.168,16-16
			v-64c0-8.832-7.168-16-16-16h-8c-57.344,0-104-46.656-104-104s46.656-104,104-104h31.872l-43.936,53.888
			c-3.936,4.768-4.736,11.392-2.08,16.96c2.656,5.6,8.288,9.152,14.464,9.152h81.28c4.928,0,9.6-2.272,12.64-6.144l86.4-110.72
			C433.12,133.344,433.12,125.248,428.64,119.424z"/>
	</g>
</g>
<g>
</g>
<g>
</g>
<g>
</g>
<g>
</g>
<g>
</g>
<g>
</g>
<g>
</g>
<g>
</g>
<g>
</g>
<g>
</g>
<g>
</g>
<g>
</g>
<g>
</g>
<g>
</g>
<g>
</g>
</svg>
