<?xml version="1.0" encoding="iso-8859-1"?>
<!-- Generator: Adobe Illustrator 19.0.0, SVG Export Plug-In . SVG Version: 6.00 Build 0)  -->
<svg version="1.1" id="Capa_1" xmlns="http://www.w3.org/2000/svg" xmlns:xlink="http://www.w3.org/1999/xlink" x="0px" y="0px"
	 viewBox="0 0 511.995 511.995" style="enable-background:new 0 0 511.995 511.995;" xml:space="preserve">
<g>
	<g>
		<path d="M478.785,265.883c-2.464-5.984-8.32-9.888-14.784-9.888h-48v-57.312c0-97.568-69.952-184.64-166.752-197.056
			C132.161-13.413,32.001,77.819,32.001,191.995v304c0,8.832,7.168,16,16,16h64c8.832,0,16-7.168,16-16V195.771
			c0-46.432,31.296-89.088,76.864-97.92c61.28-11.904,115.136,34.944,115.136,94.144v64h-48c-6.464,0-12.32,3.904-14.784,9.888
			c-2.464,5.984-1.088,12.864,3.488,17.44l96,96c6.24,6.24,16.384,6.24,22.624,0l96-96
			C479.873,278.747,481.249,271.867,478.785,265.883z"/>
	</g>
</g>
<g>
</g>
<g>
</g>
<g>
</g>
<g>
</g>
<g>
</g>
<g>
</g>
<g>
</g>
<g>
</g>
<g>
</g>
<g>
</g>
<g>
</g>
<g>
</g>
<g>
</g>
<g>
</g>
<g>
</g>
</svg>
