<?xml version="1.0" encoding="iso-8859-1"?>
<!-- Generator: Adobe Illustrator 19.0.0, SVG Export Plug-In . SVG Version: 6.00 Build 0)  -->
<svg version="1.1" id="Capa_1" xmlns="http://www.w3.org/2000/svg" xmlns:xlink="http://www.w3.org/1999/xlink" x="0px" y="0px"
	 viewBox="0 0 502.72 502.72" style="enable-background:new 0 0 502.72 502.72;" xml:space="preserve">
<g>
	<g>
		<path d="M454.684,140.704l-135.68-136C315.996,1.696,311.932,0,307.676,0s-8.32,1.696-11.328,4.704l-45.44,45.44
			c-6.24,6.24-6.24,16.384,0,22.624l29.984,29.952h-37.536c-110.272,0-200,89.728-200,200s89.728,200,200,200h8
			c8.832,0,16-7.168,16-16v-64c0-8.832-7.168-16-16-16h-8c-57.344,0-104-46.656-104-104s46.656-104,104-104h39.936l-32.352,32.16
			c-3.008,3.008-4.704,7.072-4.704,11.328c0,4.256,1.664,8.352,4.672,11.328l45.44,45.44c3.008,3.04,7.072,4.704,11.328,4.704
			c4.256,0,8.32-1.696,11.328-4.672l135.68-135.68C460.924,157.088,460.924,146.944,454.684,140.704z"/>
	</g>
</g>
<g>
</g>
<g>
</g>
<g>
</g>
<g>
</g>
<g>
</g>
<g>
</g>
<g>
</g>
<g>
</g>
<g>
</g>
<g>
</g>
<g>
</g>
<g>
</g>
<g>
</g>
<g>
</g>
<g>
</g>
</svg>
