<?xml version="1.0" encoding="iso-8859-1"?>
<!-- Generator: Adobe Illustrator 19.0.0, SVG Export Plug-In . SVG Version: 6.00 Build 0)  -->
<svg version="1.1" id="Capa_1" xmlns="http://www.w3.org/2000/svg" xmlns:xlink="http://www.w3.org/1999/xlink" x="0px" y="0px"
	 viewBox="0 0 512 512" style="enable-background:new 0 0 512 512;" xml:space="preserve">
<g>
	<g>
		<path d="M503.168,241.693l-480-240c-4.96-2.464-10.816-2.24-15.552,0.704C2.88,5.309,0,10.461,0,15.997v192h96v-48
			c0-5.536,2.88-10.688,7.584-13.6c4.736-2.944,10.592-3.168,15.552-0.704l192,96c5.44,2.72,8.864,8.256,8.864,14.304
			c0,6.048-3.424,11.584-8.832,14.304l-192,96c-2.272,1.12-4.704,1.696-7.168,1.696c-2.912,0-5.856-0.8-8.416-2.368
			C98.88,362.685,96,357.533,96,351.997v-48H0v192c0,5.536,2.88,10.688,7.584,13.632c2.56,1.568,5.504,2.368,8.416,2.368
			c2.464,0,4.896-0.576,7.168-1.696l480-240c5.408-2.72,8.832-8.256,8.832-14.304C512,249.949,508.576,244.413,503.168,241.693z"/>
	</g>
</g>
<g>
</g>
<g>
</g>
<g>
</g>
<g>
</g>
<g>
</g>
<g>
</g>
<g>
</g>
<g>
</g>
<g>
</g>
<g>
</g>
<g>
</g>
<g>
</g>
<g>
</g>
<g>
</g>
<g>
</g>
</svg>
