<?xml version="1.0" encoding="iso-8859-1"?>
<!-- Generator: Adobe Illustrator 19.0.0, SVG Export Plug-In . SVG Version: 6.00 Build 0)  -->
<svg version="1.1" id="Capa_1" xmlns="http://www.w3.org/2000/svg" xmlns:xlink="http://www.w3.org/1999/xlink" x="0px" y="0px"
	 viewBox="0 0 512.013 512.013" style="enable-background:new 0 0 512.013 512.013;" xml:space="preserve">
<g>
	<g>
		<path d="M506.246,83.718l-96-80c-4.768-4-11.392-4.832-17.024-2.208c-5.632,2.656-9.216,8.288-9.216,14.496v48h-320
			c-35.296,0-64,28.736-64,64v238.848l64-53.344V128.006h320v48c0,6.208,3.584,11.84,9.216,14.496
			c5.632,2.624,12.256,1.792,17.024-2.208l96-80c3.68-3.04,5.76-7.52,5.76-12.288S509.926,86.758,506.246,83.718z"/>
	</g>
</g>
<g>
	<g>
		<path d="M448.006,198.502v185.504h-320v-48c0-6.208-3.584-11.84-9.216-14.496c-5.632-2.624-12.256-1.792-17.024,2.208l-96,80
			c-3.68,3.04-5.76,7.52-5.76,12.288s2.08,9.248,5.76,12.288l96,80c4.768,4,11.392,4.832,17.024,2.208
			c5.632-2.656,9.216-8.288,9.216-14.496v-48h320c35.296,0,64-28.704,64-64V145.158L448.006,198.502z"/>
	</g>
</g>
<g>
</g>
<g>
</g>
<g>
</g>
<g>
</g>
<g>
</g>
<g>
</g>
<g>
</g>
<g>
</g>
<g>
</g>
<g>
</g>
<g>
</g>
<g>
</g>
<g>
</g>
<g>
</g>
<g>
</g>
</svg>
