<?xml version="1.0" encoding="iso-8859-1"?>
<!-- Generator: Adobe Illustrator 19.0.0, SVG Export Plug-In . SVG Version: 6.00 Build 0)  -->
<svg version="1.1" id="Capa_1" xmlns="http://www.w3.org/2000/svg" xmlns:xlink="http://www.w3.org/1999/xlink" x="0px" y="0px"
	 viewBox="0 0 512 512" style="enable-background:new 0 0 512 512;" xml:space="preserve">
<g>
	<g>
		<path d="M496,0H368c-6.464,0-12.32,3.904-14.784,9.888s-1.088,12.864,3.456,17.44L396.8,67.424L256,182.208L115.2,67.424
			l40.096-40.096c4.608-4.608,5.984-11.456,3.488-17.44C156.32,3.904,150.464,0,144,0H16C7.168,0,0,7.168,0,16v128
			c0,6.464,3.904,12.32,9.888,14.784C11.872,159.616,13.952,160,16,160c4.16,0,8.256-1.632,11.328-4.672l42.4-42.4L205.376,223.52
			l-40.32,32.832C131.328,283.84,112,324.544,112,368c0,79.392,64.608,144,144,144s144-64.608,144-144
			c0-43.456-19.328-84.128-53.056-111.648l-40.32-32.864l135.648-110.592l42.4,42.4C487.744,158.368,491.84,160,496,160
			c2.048,0,4.16-0.384,6.112-1.216C508.096,156.32,512,150.464,512,144V16C512,7.168,504.832,0,496,0z M336,368
			c0,44.128-35.872,80-80,80c-44.096,0-80-35.872-80-80c0-24.16,10.752-46.72,29.504-62.048l0.16-0.128
			C220.032,294.176,237.408,288,256,288c18.56,0,35.904,6.176,50.272,17.792l0.224,0.192C325.248,321.248,336,343.84,336,368z"/>
	</g>
</g>
<g>
</g>
<g>
</g>
<g>
</g>
<g>
</g>
<g>
</g>
<g>
</g>
<g>
</g>
<g>
</g>
<g>
</g>
<g>
</g>
<g>
</g>
<g>
</g>
<g>
</g>
<g>
</g>
<g>
</g>
</svg>
