<?xml version="1.0" encoding="iso-8859-1"?>
<!-- Generator: Adobe Illustrator 19.0.0, SVG Export Plug-In . SVG Version: 6.00 Build 0)  -->
<svg version="1.1" id="Capa_1" xmlns="http://www.w3.org/2000/svg" xmlns:xlink="http://www.w3.org/1999/xlink" x="0px" y="0px"
	 viewBox="0 0 512.008 512.008" style="enable-background:new 0 0 512.008 512.008;" xml:space="preserve">
<g>
	<g>
		<path d="M507.331,100.68l-96-96c-6.24-6.24-16.384-6.24-22.624,0l-96,96c-4.576,4.608-5.952,11.456-3.488,17.44
			s8.32,9.888,14.784,9.888h48v44.48c0,16.288-7.968,31.264-21.344,40.128l-58.464,38.976c-5.472,3.584-10.848,7.744-16.192,12.576
			c-5.344-4.832-10.688-8.96-16.096-12.512l-58.624-39.072c-13.312-8.832-21.28-23.808-21.28-40.096v-44.48h48
			c6.464,0,12.32-3.904,14.784-9.888s1.088-12.832-3.456-17.44l-96-96c-6.24-6.24-16.384-6.24-22.624,0l-96,96
			c-4.576,4.608-5.952,11.456-3.488,17.44s8.32,9.888,14.784,9.888h48v44.48c0,48.32,23.968,93.12,64.096,119.872l58.624,39.072
			c13.312,8.832,21.28,23.808,21.28,40.096v124.48c0,8.832,7.168,16,16,16h64c8.832,0,16-7.168,16-16v-124.48
			c0-16.288,7.968-31.264,21.344-40.128l58.56-39.04c40.128-26.752,64.096-71.552,64.096-119.872v-44.48h48
			c6.464,0,12.32-3.904,14.784-9.888S511.875,105.288,507.331,100.68z"/>
	</g>
</g>
<g>
</g>
<g>
</g>
<g>
</g>
<g>
</g>
<g>
</g>
<g>
</g>
<g>
</g>
<g>
</g>
<g>
</g>
<g>
</g>
<g>
</g>
<g>
</g>
<g>
</g>
<g>
</g>
<g>
</g>
</svg>
