<?xml version="1.0" encoding="iso-8859-1"?>
<!-- Generator: Adobe Illustrator 19.0.0, SVG Export Plug-In . SVG Version: 6.00 Build 0)  -->
<svg version="1.1" id="Capa_1" xmlns="http://www.w3.org/2000/svg" xmlns:xlink="http://www.w3.org/1999/xlink" x="0px" y="0px"
	 viewBox="0 0 512 512" style="enable-background:new 0 0 512 512;" xml:space="preserve">
<g>
	<g>
		<path d="M502.112,241.48c-5.984-2.496-12.864-1.088-17.44,3.456l-33.952,33.952L289.92,118.12c-18.88-18.88-48.96-18.88-67.84,0
			l-160.8,160.8l-33.952-33.952c-4.576-4.576-11.488-5.952-17.44-3.488C3.904,243.976,0,249.8,0,256.264V392.04
			c0,8.832,7.168,16,16,16h135.776c6.464,0,12.32-3.904,14.784-9.888c2.496-5.984,1.12-12.864-3.456-17.44l-33.952-33.952
			L256,219.88l126.88,126.88l-33.952,33.952c-4.576,4.576-5.952,11.456-3.456,17.44c2.464,5.984,8.288,9.888,14.752,9.888H496
			c8.832,0,16-7.168,16-16V256.264C512,249.8,508.096,243.976,502.112,241.48z"/>
	</g>
</g>
<g>
</g>
<g>
</g>
<g>
</g>
<g>
</g>
<g>
</g>
<g>
</g>
<g>
</g>
<g>
</g>
<g>
</g>
<g>
</g>
<g>
</g>
<g>
</g>
<g>
</g>
<g>
</g>
<g>
</g>
</svg>
