<?xml version="1.0" encoding="iso-8859-1"?>
<!-- Generator: Adobe Illustrator 19.0.0, SVG Export Plug-In . SVG Version: 6.00 Build 0)  -->
<svg version="1.1" id="Capa_1" xmlns="http://www.w3.org/2000/svg" xmlns:xlink="http://www.w3.org/1999/xlink" x="0px" y="0px"
	 viewBox="0 0 512.016 512.016" style="enable-background:new 0 0 512.016 512.016;" xml:space="preserve">
<g>
	<g>
		<path d="M507.336,100.719l-96-96.032c-4.576-4.576-11.456-5.952-17.44-3.456c-5.984,2.496-9.888,8.32-9.888,14.784v48.672
			c-49.216,4.192-95.168,27.456-128,64.736c-32.832-37.28-78.784-60.544-128-64.736V16.015c0-6.464-3.904-12.32-9.888-14.784
			c-5.92-2.496-12.864-1.12-17.44,3.456l-96,96c-6.24,6.24-6.24,16.384,0,22.624l96,96c4.608,4.608,11.52,6.016,17.44,3.456
			c5.984-2.432,9.888-8.288,9.888-14.752v-46.656c45.344,7.616,80,47.168,80,94.656v240c0,8.832,7.168,16,16,16h64
			c8.832,0,16-7.168,16-16v-240c0-47.488,34.656-87.04,80-94.656v46.656c0,6.464,3.904,12.32,9.888,14.784
			c5.952,2.496,12.832,1.12,17.44-3.456l96-96C513.576,117.103,513.576,106.959,507.336,100.719z"/>
	</g>
</g>
<g>
</g>
<g>
</g>
<g>
</g>
<g>
</g>
<g>
</g>
<g>
</g>
<g>
</g>
<g>
</g>
<g>
</g>
<g>
</g>
<g>
</g>
<g>
</g>
<g>
</g>
<g>
</g>
<g>
</g>
</svg>
