<?xml version="1.0" encoding="iso-8859-1"?>
<!-- Generator: Adobe Illustrator 19.0.0, SVG Export Plug-In . SVG Version: 6.00 Build 0)  -->
<svg version="1.1" id="Capa_1" xmlns="http://www.w3.org/2000/svg" xmlns:xlink="http://www.w3.org/1999/xlink" x="0px" y="0px"
	 viewBox="0 0 512.016 512.016" style="enable-background:new 0 0 512.016 512.016;" xml:space="preserve">
<g>
	<g>
		<path d="M507.336,148.687l-64-64c-4.576-4.576-11.456-5.952-17.44-3.456c-5.984,2.496-9.888,8.32-9.888,14.784v32h-160
			c-70.592,0-128,57.408-128,128c0,11.104,1.632,21.792,4.416,32h68.512c-5.536-9.44-8.928-20.288-8.928-32
			c0-35.296,28.704-64,64-64h160v32c0,6.464,3.904,12.32,9.888,14.784c1.952,0.832,4.064,1.216,6.112,1.216
			c4.16,0,8.256-1.632,11.328-4.672l64-64C513.576,165.071,513.576,154.959,507.336,148.687z"/>
	</g>
</g>
<g>
	<g>
		<path d="M379.464,224.015h-68.352c5.504,9.44,8.896,20.288,8.896,32c0,35.296-28.704,64-64,64h-160v-32
			c0-6.464-3.904-12.32-9.888-14.784c-5.984-2.528-12.832-1.12-17.44,3.456l-64,64c-6.24,6.24-6.24,16.384,0,22.624l64,64
			c3.072,3.072,7.168,4.704,11.328,4.704c2.048,0,4.128-0.416,6.112-1.216c5.984-2.464,9.888-8.32,9.888-14.784v-32h160
			c70.592,0,128-57.408,128-128C384.008,244.911,382.152,234.319,379.464,224.015z"/>
	</g>
</g>
<g>
</g>
<g>
</g>
<g>
</g>
<g>
</g>
<g>
</g>
<g>
</g>
<g>
</g>
<g>
</g>
<g>
</g>
<g>
</g>
<g>
</g>
<g>
</g>
<g>
</g>
<g>
</g>
<g>
</g>
</svg>
