<?xml version="1.0" encoding="iso-8859-1"?>
<!-- Generator: Adobe Illustrator 19.0.0, SVG Export Plug-In . SVG Version: 6.00 Build 0)  -->
<svg version="1.1" id="Capa_1" xmlns="http://www.w3.org/2000/svg" xmlns:xlink="http://www.w3.org/1999/xlink" x="0px" y="0px"
	 viewBox="0 0 448 448" style="enable-background:new 0 0 448 448;" xml:space="preserve">
<g>
	<g>
		<path d="M250.4,211.873l-224-192c-4.704-4.096-11.36-5.024-17.088-2.4C3.648,20.065,0,25.761,0,32.001v384
			c0,6.24,3.648,11.936,9.312,14.528c2.144,0.992,4.416,1.472,6.688,1.472c3.744,0,7.456-1.312,10.4-3.84l224-192
			c3.584-3.04,5.6-7.488,5.6-12.16S253.984,214.881,250.4,211.873z"/>
	</g>
</g>
<g>
	<g>
		<path d="M442.4,211.873l-224-192c-4.704-4.096-11.36-5.024-17.088-2.4C195.648,20.065,192,25.761,192,32.001v87.648l79.2,67.872
			c10.688,9.12,16.8,22.4,16.8,36.48s-6.144,27.392-16.832,36.512L192,328.353v87.648c0,6.24,3.648,11.936,9.312,14.528
			c2.144,0.992,4.416,1.472,6.688,1.472c3.744,0,7.456-1.312,10.4-3.84l224-192c3.584-3.04,5.6-7.488,5.6-12.16
			S445.984,214.881,442.4,211.873z"/>
	</g>
</g>
<g>
</g>
<g>
</g>
<g>
</g>
<g>
</g>
<g>
</g>
<g>
</g>
<g>
</g>
<g>
</g>
<g>
</g>
<g>
</g>
<g>
</g>
<g>
</g>
<g>
</g>
<g>
</g>
<g>
</g>
</svg>
