<?xml version="1.0" encoding="iso-8859-1"?>
<!-- Generator: Adobe Illustrator 19.0.0, SVG Export Plug-In . SVG Version: 6.00 Build 0)  -->
<svg version="1.1" id="Capa_1" xmlns="http://www.w3.org/2000/svg" xmlns:xlink="http://www.w3.org/1999/xlink" x="0px" y="0px"
	 viewBox="0 0 512 512" style="enable-background:new 0 0 512 512;" xml:space="preserve">
<g>
	<g>
		<path d="M448,320h-32c-8.832,0-16,7.168-16,16v112H80V336c0-8.832-7.168-16-16-16H32c-8.832,0-16,7.168-16,16v112
			c0,35.36,28.64,64,64,64h320c35.36,0,64-28.64,64-64V336C464,327.168,456.832,320,448,320z"/>
	</g>
</g>
<g>
	<g>
		<path d="M480,0h-16C322.624,0,208,114.624,208,256v32h-48c-6.784,0-12.832,4.288-15.104,10.72
			c-2.24,6.4-0.192,13.536,5.088,17.792l80,64C232.928,382.848,236.48,384,240,384s7.072-1.152,10.016-3.488l80-64
			c5.312-4.256,7.328-11.36,5.088-17.792C332.832,292.288,326.784,288,320,288h-48v-32c0-106.048,85.952-192,192-192h16
			c8.832,0,16-7.168,16-16V16C496,7.168,488.832,0,480,0z"/>
	</g>
</g>
<g>
</g>
<g>
</g>
<g>
</g>
<g>
</g>
<g>
</g>
<g>
</g>
<g>
</g>
<g>
</g>
<g>
</g>
<g>
</g>
<g>
</g>
<g>
</g>
<g>
</g>
<g>
</g>
<g>
</g>
</svg>
