<?xml version="1.0" encoding="iso-8859-1"?>
<!-- Generator: Adobe Illustrator 19.0.0, SVG Export Plug-In . SVG Version: 6.00 Build 0)  -->
<svg version="1.1" id="Capa_1" xmlns="http://www.w3.org/2000/svg" xmlns:xlink="http://www.w3.org/1999/xlink" x="0px" y="0px"
	 viewBox="0 0 512 512" style="enable-background:new 0 0 512 512;" xml:space="preserve">
<g>
	<g>
		<path d="M496.128,220.361l-160-144.032c-19.712-17.728-50.08-16.192-67.808,3.584c-17.728,19.68-16.128,50.048,3.584,67.776
			l66.976,60.32H48c-26.528,0-48,21.472-48,48s21.472,48,48,48h290.944l-67.072,60.32c-19.712,17.76-21.312,48.096-3.584,67.776
			c9.504,10.528,22.592,15.904,35.712,15.904c11.456,0,22.944-4.064,32.096-12.32l160-143.968
			c10.112-9.088,15.904-22.08,15.904-35.68C512,242.441,506.208,229.449,496.128,220.361z"/>
	</g>
</g>
<g>
</g>
<g>
</g>
<g>
</g>
<g>
</g>
<g>
</g>
<g>
</g>
<g>
</g>
<g>
</g>
<g>
</g>
<g>
</g>
<g>
</g>
<g>
</g>
<g>
</g>
<g>
</g>
<g>
</g>
</svg>
