<?xml version="1.0" encoding="iso-8859-1"?>
<!-- Generator: Adobe Illustrator 19.0.0, SVG Export Plug-In . SVG Version: 6.00 Build 0)  -->
<svg version="1.1" id="Capa_1" xmlns="http://www.w3.org/2000/svg" xmlns:xlink="http://www.w3.org/1999/xlink" x="0px" y="0px"
	 viewBox="0 0 511.997 511.997" style="enable-background:new 0 0 511.997 511.997;" xml:space="preserve">
<g>
	<g>
		<path d="M510.705,233.925c-2.56-6.08-8.32-9.92-14.72-9.92h-50.24c-15.68-110.4-108.8-192-221.76-192
			C98.449,32.005-3.279,135.781,0.081,262.053c3.264,122.656,110.72,222.752,233.312,217.76
			c49.536-2.016,95.744-19.968,132.928-51.136c7.04-5.92,7.072-16.864,0.576-23.36l-45.536-45.536
			c-5.856-5.856-14.88-5.888-21.504-0.928c-21.6,16.192-47.936,25.152-75.872,25.152c-76.96,0-137.984-67.808-126.624-146.944
			c8.224-57.312,56.768-103.424,114.432-108.512c65.216-5.76,120.672,35.008,135.712,95.456h-43.52c-6.4,0-12.16,3.84-14.72,9.92
			s-1.28,12.8,3.52,17.28l96,96c6.08,6.4,16.32,6.4,22.4,0l96-96C511.985,246.725,513.265,240.005,510.705,233.925z"/>
	</g>
</g>
<g>
</g>
<g>
</g>
<g>
</g>
<g>
</g>
<g>
</g>
<g>
</g>
<g>
</g>
<g>
</g>
<g>
</g>
<g>
</g>
<g>
</g>
<g>
</g>
<g>
</g>
<g>
</g>
<g>
</g>
</svg>
