<?xml version="1.0" encoding="iso-8859-1"?>
<!-- Generator: Adobe Illustrator 19.0.0, SVG Export Plug-In . SVG Version: 6.00 Build 0)  -->
<svg version="1.1" id="Capa_1" xmlns="http://www.w3.org/2000/svg" xmlns:xlink="http://www.w3.org/1999/xlink" x="0px" y="0px"
	 viewBox="0 0 479.993 479.993" style="enable-background:new 0 0 479.993 479.993;" xml:space="preserve">
<g>
	<g>
		<path d="M411.323,100.665l-96-96c-4.576-4.544-11.456-5.92-17.44-3.456s-9.888,8.32-9.888,14.784v48h-16
			c-123.648,0-222.688,108.864-206.208,235.648c13.632,104.768,108.064,180.352,213.696,180.352c4.704,0,8.512-3.808,8.512-8.512
			v-78.976c0-4.704-3.808-8.512-8.512-8.512h-4.288c-53.44,0-102.08-36.128-112.8-88.48c-14.72-72,40.16-135.52,109.6-135.52h16v48
			c0,6.464,3.904,12.32,9.888,14.784c5.984,2.496,12.864,1.12,17.44-3.456l96-96C417.563,117.049,417.563,106.905,411.323,100.665z"
			/>
	</g>
</g>
<g>
</g>
<g>
</g>
<g>
</g>
<g>
</g>
<g>
</g>
<g>
</g>
<g>
</g>
<g>
</g>
<g>
</g>
<g>
</g>
<g>
</g>
<g>
</g>
<g>
</g>
<g>
</g>
<g>
</g>
</svg>
