<?xml version="1.0" encoding="iso-8859-1"?>
<!-- Generator: Adobe Illustrator 19.0.0, SVG Export Plug-In . SVG Version: 6.00 Build 0)  -->
<svg version="1.1" id="Capa_1" xmlns="http://www.w3.org/2000/svg" xmlns:xlink="http://www.w3.org/1999/xlink" x="0px" y="0px"
	 viewBox="0 0 512 512" style="enable-background:new 0 0 512 512;" xml:space="preserve">
<g>
	<g>
		<path d="M506.528,115.962l-128-112c-4.704-4.128-11.392-5.12-17.152-2.528C355.648,4.026,352,9.722,352,15.994v48H224
			c-123.52,0-224,100.48-224,224c0,123.488,100.48,224,224,224c8.832,0,16-7.168,16-16c0-8.832-7.168-16-16-16
			c-79.392,0-144-64.608-144-144s64.608-144,144-144h128v48c0,6.272,3.648,11.968,9.376,14.56c5.728,2.624,12.448,1.6,17.152-2.528
			l128-112c3.456-3.04,5.472-7.424,5.472-12.032C512,123.386,509.984,119.002,506.528,115.962z"/>
	</g>
</g>
<g>
</g>
<g>
</g>
<g>
</g>
<g>
</g>
<g>
</g>
<g>
</g>
<g>
</g>
<g>
</g>
<g>
</g>
<g>
</g>
<g>
</g>
<g>
</g>
<g>
</g>
<g>
</g>
<g>
</g>
</svg>
