<?xml version="1.0" encoding="iso-8859-1"?>
<!-- Generator: Adobe Illustrator 19.0.0, SVG Export Plug-In . SVG Version: 6.00 Build 0)  -->
<svg version="1.1" id="Capa_1" xmlns="http://www.w3.org/2000/svg" xmlns:xlink="http://www.w3.org/1999/xlink" x="0px" y="0px"
	 viewBox="0 0 512 512" style="enable-background:new 0 0 512 512;" xml:space="preserve">
<g>
	<g>
		<path d="M506.24,371.7l-96-80c-4.768-4-11.424-4.8-17.024-2.208c-5.632,2.656-9.216,8.288-9.216,14.496v48h-32l-182.4-243.2
			c-6.048-8.064-15.52-12.8-25.6-12.8H16c-8.832,0-16,7.168-16,16v32c0,8.832,7.168,16,16,16h112l182.432,243.2
			c6.016,8.064,15.52,12.8,25.568,12.8h48v48c0,6.208,3.584,11.84,9.216,14.496c2.144,0.992,4.48,1.504,6.784,1.504
			c3.68,0,7.328-1.248,10.24-3.712l96-80c3.68-3.04,5.76-7.552,5.76-12.288C512,379.252,509.92,374.74,506.24,371.7z"/>
	</g>
</g>
<g>
	<g>
		<path d="M506.24,115.7l-96-80c-4.768-3.968-11.424-4.8-17.024-2.176C387.584,36.116,384,41.78,384,47.988v48h-48
			c-10.08,0-19.552,4.736-25.6,12.8l-50.4,67.2l40,53.344l52-69.344h32v48c0,6.208,3.584,11.872,9.216,14.496
			c2.144,0.992,4.48,1.504,6.784,1.504c3.68,0,7.328-1.28,10.24-3.712l96-80c3.68-3.04,5.76-7.552,5.76-12.288
			C512,123.252,509.92,118.74,506.24,115.7z"/>
	</g>
</g>
<g>
	<g>
		<path d="M180,282.676l-52,69.312H16c-8.832,0-16,7.168-16,16v32c0,8.832,7.168,16,16,16h127.968c10.08,0,19.584-4.736,25.632-12.8
			l50.4-67.2L180,282.676z"/>
	</g>
</g>
<g>
</g>
<g>
</g>
<g>
</g>
<g>
</g>
<g>
</g>
<g>
</g>
<g>
</g>
<g>
</g>
<g>
</g>
<g>
</g>
<g>
</g>
<g>
</g>
<g>
</g>
<g>
</g>
<g>
</g>
</svg>
