<?xml version="1.0" encoding="iso-8859-1"?>
<!-- Generator: Adobe Illustrator 19.0.0, SVG Export Plug-In . SVG Version: 6.00 Build 0)  -->
<svg version="1.1" id="Capa_1" xmlns="http://www.w3.org/2000/svg" xmlns:xlink="http://www.w3.org/1999/xlink" x="0px" y="0px"
	 viewBox="0 0 512 512" style="enable-background:new 0 0 512 512;" xml:space="preserve">
<g>
	<g>
		<path d="M506.528,243.712l-96.224-80c-4.8-4-11.456-4.832-17.056-2.208C387.616,164.16,384,169.792,384,176v48h-96v-96h48
			c6.208,0,11.84-3.616,14.496-9.248c2.624-5.632,1.792-12.288-2.208-17.056l-80-96.224c-6.08-7.296-18.496-7.296-24.608,0
			l-80,96.224c-3.968,4.8-4.832,11.456-2.176,17.056C164.128,124.384,169.792,128,176,128h48v96h-96v-48
			c0-6.208-3.616-11.84-9.248-14.496c-5.6-2.624-12.256-1.792-17.056,2.208l-96.224,80c-7.296,6.08-7.296,18.496,0,24.608l96.224,80
			c4.8,3.968,11.456,4.832,17.056,2.176C124.416,347.872,128,342.208,128,336v-48h96v96h-48c-6.208,0-11.872,3.616-14.496,9.248
			c-2.656,5.632-1.792,12.288,2.176,17.056l80,96.224c6.08,7.296,18.496,7.296,24.608,0l80-96.224c4-4.8,4.832-11.456,2.208-17.056
			C347.84,387.616,342.208,384,336,384h-48v-96h96v48c0,6.208,3.616,11.872,9.248,14.496c5.632,2.656,12.288,1.792,17.056-2.176
			l96.224-80C513.824,262.208,513.824,249.792,506.528,243.712z"/>
	</g>
</g>
<g>
</g>
<g>
</g>
<g>
</g>
<g>
</g>
<g>
</g>
<g>
</g>
<g>
</g>
<g>
</g>
<g>
</g>
<g>
</g>
<g>
</g>
<g>
</g>
<g>
</g>
<g>
</g>
<g>
</g>
</svg>
