<?xml version="1.0" encoding="iso-8859-1"?>
<!-- Generator: Adobe Illustrator 19.0.0, SVG Export Plug-In . SVG Version: 6.00 Build 0)  -->
<svg version="1.1" id="Capa_1" xmlns="http://www.w3.org/2000/svg" xmlns:xlink="http://www.w3.org/1999/xlink" x="0px" y="0px"
	 viewBox="0 0 512 512" style="enable-background:new 0 0 512 512;" xml:space="preserve">
<g>
	<g>
		<path d="M508.16,245.603l-96-112c-4.384-5.088-11.424-6.944-17.728-4.608c-6.272,2.336-10.432,8.32-10.432,15.008v48h-96
			c-8.832,0-16,7.168-16,16v96c0,8.832,7.168,16,16,16h96v48c0,6.688,4.16,12.672,10.432,15.008c1.824,0.672,3.68,0.992,5.568,0.992
			c4.608,0,9.056-1.984,12.16-5.6l96-112C513.28,260.387,513.28,251.587,508.16,245.603z"/>
	</g>
</g>
<g>
	<g>
		<path d="M224,192.003h-96v-48c0-6.688-4.16-12.672-10.432-15.008c-6.272-2.336-13.376-0.48-17.728,4.608l-96,112
			c-5.12,6.016-5.12,14.816,0,20.8l96,112c3.104,3.616,7.552,5.6,12.16,5.6c1.888,0,3.744-0.32,5.568-0.992
			c6.272-2.336,10.432-8.32,10.432-15.008v-48h96c8.832,0,16-7.168,16-16v-96C240,199.171,232.832,192.003,224,192.003z"/>
	</g>
</g>
<g>
</g>
<g>
</g>
<g>
</g>
<g>
</g>
<g>
</g>
<g>
</g>
<g>
</g>
<g>
</g>
<g>
</g>
<g>
</g>
<g>
</g>
<g>
</g>
<g>
</g>
<g>
</g>
<g>
</g>
</svg>
