<?xml version="1.0" encoding="iso-8859-1"?>
<!-- Generator: Adobe Illustrator 19.0.0, SVG Export Plug-In . SVG Version: 6.00 Build 0)  -->
<svg version="1.1" id="Capa_1" xmlns="http://www.w3.org/2000/svg" xmlns:xlink="http://www.w3.org/1999/xlink" x="0px" y="0px"
	 viewBox="0 0 512 512" style="enable-background:new 0 0 512 512;" xml:space="preserve">
<g>
	<g>
		<path d="M230.784,161.504c-5.568-2.592-12.256-1.76-17.024,2.208l-96,80c-3.648,3.04-5.76,7.552-5.76,12.288
			c0,4.736,2.112,9.248,5.76,12.288l96,80c2.912,2.464,6.56,3.712,10.24,3.712c2.304,0,4.64-0.512,6.784-1.504
			C236.416,347.84,240,342.208,240,336V176C240,169.792,236.416,164.128,230.784,161.504z"/>
	</g>
</g>
<g>
	<g>
		<path d="M448,0c-8.832,0-16,7.168-16,16v480c0,8.832,7.168,16,16,16c8.832,0,16-7.168,16-16V16C464,7.168,456.832,0,448,0z"/>
	</g>
</g>
<g>
	<g>
		<path d="M394.24,243.712l-96-80c-4.768-3.968-11.424-4.832-17.024-2.208C275.584,164.128,272,169.792,272,176v160
			c0,6.208,3.584,11.84,9.216,14.496c2.144,0.992,4.48,1.504,6.784,1.504c3.68,0,7.328-1.248,10.24-3.712l96-80
			c3.68-3.04,5.76-7.552,5.76-12.288C400,251.264,397.92,246.752,394.24,243.712z"/>
	</g>
</g>
<g>
	<g>
		<path d="M64,0c-8.832,0-16,7.168-16,16v480c0,8.832,7.168,16,16,16c8.832,0,16-7.168,16-16V16C80,7.168,72.832,0,64,0z"/>
	</g>
</g>
<g>
</g>
<g>
</g>
<g>
</g>
<g>
</g>
<g>
</g>
<g>
</g>
<g>
</g>
<g>
</g>
<g>
</g>
<g>
</g>
<g>
</g>
<g>
</g>
<g>
</g>
<g>
</g>
<g>
</g>
</svg>
