<?xml version="1.0" encoding="iso-8859-1"?>
<!-- Generator: Adobe Illustrator 19.0.0, SVG Export Plug-In . SVG Version: 6.00 Build 0)  -->
<svg version="1.1" id="Capa_1" xmlns="http://www.w3.org/2000/svg" xmlns:xlink="http://www.w3.org/1999/xlink" x="0px" y="0px"
	 viewBox="0 0 512.011 512.011" style="enable-background:new 0 0 512.011 512.011;" xml:space="preserve">
<g>
	<g>
		<path d="M508.291,245.774l-160-192c-4.32-5.184-11.392-7.136-17.728-4.8c-6.336,2.304-10.56,8.32-10.56,15.04v110.304
			l-302.4-30.24c-6.432-0.64-12.704,2.688-15.744,8.448c-3.04,5.728-2.304,12.736,1.856,17.728l71.456,85.76l-71.456,85.76
			c-4.16,4.992-4.864,12-1.856,17.76c3.04,5.728,9.28,9.056,15.744,8.416l302.4-30.24v110.304c0,6.752,4.224,12.736,10.56,15.04
			c1.792,0.64,3.616,0.96,5.44,0.96c4.672,0,9.184-2.016,12.288-5.76l160-192C513.251,260.334,513.251,251.694,508.291,245.774z"/>
	</g>
</g>
<g>
</g>
<g>
</g>
<g>
</g>
<g>
</g>
<g>
</g>
<g>
</g>
<g>
</g>
<g>
</g>
<g>
</g>
<g>
</g>
<g>
</g>
<g>
</g>
<g>
</g>
<g>
</g>
<g>
</g>
</svg>
