<?xml version="1.0" encoding="iso-8859-1"?>
<!-- Generator: Adobe Illustrator 19.0.0, SVG Export Plug-In . SVG Version: 6.00 Build 0)  -->
<svg version="1.1" id="Capa_1" xmlns="http://www.w3.org/2000/svg" xmlns:xlink="http://www.w3.org/1999/xlink" x="0px" y="0px"
	 viewBox="0 0 512.022 512.022" style="enable-background:new 0 0 512.022 512.022;" xml:space="preserve">
<g>
	<g>
		<path d="M507.342,244.683l-192-192c-4.608-4.576-11.456-5.92-17.44-3.456s-9.888,8.32-9.888,14.784v112h-272
			c-6.464,0-12.32,3.904-14.784,9.888c-2.496,5.984-1.12,12.832,3.456,17.44l52.704,52.672L4.686,308.683
			c-4.576,4.576-5.952,11.488-3.456,17.44c2.464,5.984,8.32,9.888,14.784,9.888h272v112c0,6.464,3.904,12.32,9.888,14.784
			c1.984,0.8,4.064,1.216,6.112,1.216c4.16,0,8.256-1.632,11.328-4.672l192-192C513.582,261.067,513.582,250.955,507.342,244.683z"
			/>
	</g>
</g>
<g>
</g>
<g>
</g>
<g>
</g>
<g>
</g>
<g>
</g>
<g>
</g>
<g>
</g>
<g>
</g>
<g>
</g>
<g>
</g>
<g>
</g>
<g>
</g>
<g>
</g>
<g>
</g>
<g>
</g>
</svg>
