<?xml version="1.0" encoding="iso-8859-1"?>
<!-- Generator: Adobe Illustrator 19.0.0, SVG Export Plug-In . SVG Version: 6.00 Build 0)  -->
<svg version="1.1" id="Capa_1" xmlns="http://www.w3.org/2000/svg" xmlns:xlink="http://www.w3.org/1999/xlink" x="0px" y="0px"
	 viewBox="0 0 512.008 512.008" style="enable-background:new 0 0 512.008 512.008;" xml:space="preserve">
<g>
	<g>
		<path d="M507.328,244.676l-96-96c-4.576-4.576-11.456-5.952-17.44-3.456c-5.984,2.496-9.888,8.32-9.888,14.784v48h-96v-192
			c0-8.832-7.168-16-16-16H16c-8.832,0-16,7.168-16,16v480c0,8.832,7.168,16,16,16h256c8.832,0,16-7.168,16-16v-192h96v48
			c0,6.464,3.904,12.32,9.888,14.784c5.984,2.496,12.864,1.12,17.44-3.456l96-96C513.568,261.06,513.568,250.948,507.328,244.676z"
			/>
	</g>
</g>
<g>
</g>
<g>
</g>
<g>
</g>
<g>
</g>
<g>
</g>
<g>
</g>
<g>
</g>
<g>
</g>
<g>
</g>
<g>
</g>
<g>
</g>
<g>
</g>
<g>
</g>
<g>
</g>
<g>
</g>
</svg>
