<?xml version="1.0" encoding="iso-8859-1"?>
<!-- Generator: Adobe Illustrator 19.0.0, SVG Export Plug-In . SVG Version: 6.00 Build 0)  -->
<svg version="1.1" id="Capa_1" xmlns="http://www.w3.org/2000/svg" xmlns:xlink="http://www.w3.org/1999/xlink" x="0px" y="0px"
	 viewBox="0 0 512 512" style="enable-background:new 0 0 512 512;" xml:space="preserve">
<g>
	<g>
		<path d="M48,336.002c-26.496,0-48,21.504-48,48c0,26.496,21.504,48,48,48h112v-96H48z"/>
	</g>
</g>
<g>
	<g>
		<path d="M506.72,228.098l-160-144c-4.704-4.224-11.424-5.28-17.216-2.72S320,89.698,320,96.002v80H64c-35.36,0-64,28.64-64,64
			v80.416c10.944-8.288,24.032-13.664,38.304-15.424c3.136-0.64,6.368-0.992,9.696-0.992h144h128v80
			c0,6.304,3.712,12.032,9.504,14.624c2.08,0.896,4.288,1.376,6.496,1.376c3.872,0,7.712-1.408,10.72-4.096l160-144
			c3.328-3.04,5.28-7.36,5.28-11.904S510.048,231.138,506.72,228.098z"/>
	</g>
</g>
<g>
</g>
<g>
</g>
<g>
</g>
<g>
</g>
<g>
</g>
<g>
</g>
<g>
</g>
<g>
</g>
<g>
</g>
<g>
</g>
<g>
</g>
<g>
</g>
<g>
</g>
<g>
</g>
<g>
</g>
</svg>
