<?xml version="1.0" encoding="iso-8859-1"?>
<!-- Generator: Adobe Illustrator 19.0.0, SVG Export Plug-In . SVG Version: 6.00 Build 0)  -->
<svg version="1.1" id="Capa_1" xmlns="http://www.w3.org/2000/svg" xmlns:xlink="http://www.w3.org/1999/xlink" x="0px" y="0px"
	 viewBox="0 0 512 512" style="enable-background:new 0 0 512 512;" xml:space="preserve">
<g>
	<g>
		<path d="M236.16,245.606l-96-112c-4.352-5.088-11.488-6.944-17.728-4.608c-6.272,2.336-10.432,8.32-10.432,15.008v48H16
			c-8.832,0-16,7.168-16,16v96c0,8.832,7.168,16,16,16h96v48c0,6.688,4.16,12.672,10.432,15.008c1.824,0.672,3.68,0.992,5.568,0.992
			c4.608,0,9.056-1.984,12.16-5.6l96-112C241.28,260.39,241.28,251.59,236.16,245.606z"/>
	</g>
</g>
<g>
	<g>
		<path d="M496,192.006h-96v-48c0-6.688-4.16-12.672-10.432-15.008c-6.24-2.336-13.376-0.512-17.728,4.608l-96,112
			c-5.12,6.016-5.12,14.816,0,20.8l96,112c3.104,3.616,7.552,5.6,12.16,5.6c1.888,0,3.744-0.32,5.568-0.992
			c6.272-2.304,10.432-8.32,10.432-15.008v-48h96c8.832,0,16-7.168,16-16v-96C512,199.174,504.832,192.006,496,192.006z"/>
	</g>
</g>
<g>
</g>
<g>
</g>
<g>
</g>
<g>
</g>
<g>
</g>
<g>
</g>
<g>
</g>
<g>
</g>
<g>
</g>
<g>
</g>
<g>
</g>
<g>
</g>
<g>
</g>
<g>
</g>
<g>
</g>
</svg>
