<?xml version="1.0" encoding="iso-8859-1"?>
<!-- Generator: Adobe Illustrator 19.0.0, SVG Export Plug-In . SVG Version: 6.00 Build 0)  -->
<svg version="1.1" id="Capa_1" xmlns="http://www.w3.org/2000/svg" xmlns:xlink="http://www.w3.org/1999/xlink" x="0px" y="0px"
	 viewBox="0 0 512 512" style="enable-background:new 0 0 512 512;" xml:space="preserve">
<g>
	<g>
		<path d="M496,0H304c-8.832,0-16,7.168-16,16v32c0,8.832,7.168,16,16,16h98.752L64,402.752V304c0-8.832-7.168-16-16-16H16
			c-8.832,0-16,7.168-16,16v192c0,8.832,7.168,16,16,16h192c8.832,0,16-7.168,16-16v-32c0-8.832-7.168-16-16-16h-98.752L448,109.248
			V208c0,8.832,7.168,16,16,16h32c8.832,0,16-7.168,16-16V16C512,7.168,504.832,0,496,0z"/>
	</g>
</g>
<g>
</g>
<g>
</g>
<g>
</g>
<g>
</g>
<g>
</g>
<g>
</g>
<g>
</g>
<g>
</g>
<g>
</g>
<g>
</g>
<g>
</g>
<g>
</g>
<g>
</g>
<g>
</g>
<g>
</g>
</svg>
