<?xml version="1.0" encoding="iso-8859-1"?>
<!-- Generator: Adobe Illustrator 19.0.0, SVG Export Plug-In . SVG Version: 6.00 Build 0)  -->
<svg version="1.1" id="Capa_1" xmlns="http://www.w3.org/2000/svg" xmlns:xlink="http://www.w3.org/1999/xlink" x="0px" y="0px"
	 viewBox="0 0 511.712 511.712" style="enable-background:new 0 0 511.712 511.712;" xml:space="preserve">
<g>
	<g>
		<path d="M332.656,265.312l-51.2-38.4c-16.128-12.096-25.6-31.04-25.6-51.2v-48h48c6.208,0,11.872-3.584,14.496-9.216
			c2.624-5.6,1.792-12.256-2.208-17.024l-80-96c-6.08-7.296-18.496-7.296-24.608,0l-80,96c-3.936,4.768-4.8,11.424-2.176,17.024
			c2.624,5.632,8.288,9.216,14.496,9.216h48v48c0,40.288,18.976,78.24,51.2,102.4l51.2,38.4c16.128,12.096,25.6,31.04,25.6,51.2v128
			c0,8.832,7.168,16,16,16h32c8.832,0,16-7.168,16-16v-128C383.856,327.424,364.88,289.472,332.656,265.312z"/>
	</g>
</g>
<g>
</g>
<g>
</g>
<g>
</g>
<g>
</g>
<g>
</g>
<g>
</g>
<g>
</g>
<g>
</g>
<g>
</g>
<g>
</g>
<g>
</g>
<g>
</g>
<g>
</g>
<g>
</g>
<g>
</g>
</svg>
