<?xml version="1.0" encoding="iso-8859-1"?>
<!-- Generator: Adobe Illustrator 19.0.0, SVG Export Plug-In . SVG Version: 6.00 Build 0)  -->
<svg version="1.1" id="Capa_1" xmlns="http://www.w3.org/2000/svg" xmlns:xlink="http://www.w3.org/1999/xlink" x="0px" y="0px"
	 viewBox="0 0 448 448" style="enable-background:new 0 0 448 448;" xml:space="preserve">
<g>
	<g>
		<path d="M208,0H16C7.168,0,0,7.168,0,16v192c0,8.832,7.168,16,16,16h192c8.832,0,16-7.168,16-16V16C224,7.168,216.832,0,208,0z"/>
	</g>
</g>
<g>
	<g>
		<path d="M438.112,289.216c-5.952-2.464-12.832-1.12-17.44,3.456l-41.376,41.376l-89.376-89.376c-6.24-6.24-16.384-6.24-22.624,0
			l-22.592,22.624c-6.24,6.24-6.24,16.384,0,22.624l89.376,89.376l-41.376,41.376c-4.576,4.576-5.952,11.456-3.456,17.44
			C291.744,444.096,297.536,448,304,448h128c8.832,0,16-7.168,16-16V304C448,297.536,444.096,291.68,438.112,289.216z"/>
	</g>
</g>
<g>
</g>
<g>
</g>
<g>
</g>
<g>
</g>
<g>
</g>
<g>
</g>
<g>
</g>
<g>
</g>
<g>
</g>
<g>
</g>
<g>
</g>
<g>
</g>
<g>
</g>
<g>
</g>
<g>
</g>
</svg>
