<?xml version="1.0" encoding="iso-8859-1"?>
<!-- Generator: Adobe Illustrator 19.0.0, SVG Export Plug-In . SVG Version: 6.00 Build 0)  -->
<svg version="1.1" id="Capa_1" xmlns="http://www.w3.org/2000/svg" xmlns:xlink="http://www.w3.org/1999/xlink" x="0px" y="0px"
	 viewBox="0 0 512 512" style="enable-background:new 0 0 512 512;" xml:space="preserve">
<g>
	<g>
		<path d="M208,448h-98.752l90.176-90.176c6.24-6.24,6.24-16.384,0-22.624L176.8,312.576c-6.24-6.24-16.384-6.24-22.624,0
			L64,402.752V304c0-8.832-7.168-16-16-16H16c-8.832,0-16,7.168-16,16v192c0,8.832,7.168,16,16,16h192c8.832,0,16-7.168,16-16v-32
			C224,455.168,216.832,448,208,448z"/>
	</g>
</g>
<g>
	<g>
		<path d="M496,0H304c-8.832,0-16,7.168-16,16v32c0,8.832,7.168,16,16,16h98.752l-90.176,90.176c-6.24,6.24-6.24,16.384,0,22.624
			l22.624,22.624c6.24,6.24,16.384,6.24,22.624,0L448,109.248V208c0,8.832,7.168,16,16,16h32c8.832,0,16-7.168,16-16V16
			C512,7.168,504.832,0,496,0z"/>
	</g>
</g>
<g>
	<g>
		<path d="M496,288h-32c-8.832,0-16,7.168-16,16v98.752l-90.176-90.176c-6.24-6.24-16.384-6.24-22.624,0L312.576,335.2
			c-6.24,6.24-6.24,16.384,0,22.624L402.752,448H304c-8.832,0-16,7.168-16,16v32c0,8.832,7.168,16,16,16h192c8.832,0,16-7.168,16-16
			V304C512,295.168,504.832,288,496,288z"/>
	</g>
</g>
<g>
	<g>
		<path d="M208,0H16C7.168,0,0,7.168,0,16v192c0,8.832,7.168,16,16,16h32c8.832,0,16-7.168,16-16v-98.752l90.176,90.176
			c6.24,6.24,16.384,6.24,22.624,0l22.624-22.624c6.24-6.24,6.24-16.384,0-22.624L109.248,64H208c8.832,0,16-7.168,16-16V16
			C224,7.168,216.832,0,208,0z"/>
	</g>
</g>
<g>
</g>
<g>
</g>
<g>
</g>
<g>
</g>
<g>
</g>
<g>
</g>
<g>
</g>
<g>
</g>
<g>
</g>
<g>
</g>
<g>
</g>
<g>
</g>
<g>
</g>
<g>
</g>
<g>
</g>
</svg>
