<?xml version="1.0" encoding="iso-8859-1"?>
<!-- Generator: Adobe Illustrator 19.0.0, SVG Export Plug-In . SVG Version: 6.00 Build 0)  -->
<svg version="1.1" id="Capa_1" xmlns="http://www.w3.org/2000/svg" xmlns:xlink="http://www.w3.org/1999/xlink" x="0px" y="0px"
	 viewBox="0 0 511.992 511.992" style="enable-background:new 0 0 511.992 511.992;" xml:space="preserve">
<g>
	<g>
		<path d="M508.8,246.396l-96-128c-3.008-4.032-7.776-6.4-12.8-6.4h-96c-6.08,0-11.68,3.488-14.368,8.96
			c-2.688,5.472-2.016,12.032,1.728,16.864l54.528,70.176H189.76C74.496,207.996,0,269.916,0,365.756v18.24
			c0,7.392,5.12,13.888,12.32,15.552c1.216,0.32,2.464,0.448,3.68,0.448c5.952,0,11.552-3.328,14.304-8.832
			c26.88-53.76,80.864-87.168,140.896-87.168h174.656l-54.496,70.176c-3.776,4.8-4.448,11.36-1.76,16.832
			c2.72,5.536,8.32,8.992,14.4,8.992h96c5.024,0,9.792-2.368,12.8-6.4l96-128C513.056,259.9,513.056,252.092,508.8,246.396z"/>
	</g>
</g>
<g>
</g>
<g>
</g>
<g>
</g>
<g>
</g>
<g>
</g>
<g>
</g>
<g>
</g>
<g>
</g>
<g>
</g>
<g>
</g>
<g>
</g>
<g>
</g>
<g>
</g>
<g>
</g>
<g>
</g>
</svg>
