<?xml version="1.0" encoding="iso-8859-1"?>
<!-- Generator: Adobe Illustrator 19.0.0, SVG Export Plug-In . SVG Version: 6.00 Build 0)  -->
<svg version="1.1" id="Capa_1" xmlns="http://www.w3.org/2000/svg" xmlns:xlink="http://www.w3.org/1999/xlink" x="0px" y="0px"
	 viewBox="0 0 448.008 448.008" style="enable-background:new 0 0 448.008 448.008;" xml:space="preserve">
<g>
	<g>
		<path d="M187.328,212.715l-160-160.032c-4.608-4.576-11.424-5.952-17.44-3.456C3.904,51.691,0,57.547,0,64.011v320
			c0,6.464,3.904,12.32,9.888,14.784c1.984,0.8,4.064,1.216,6.112,1.216c4.16,0,8.256-1.632,11.328-4.672l160-160
			C193.568,229.099,193.568,218.955,187.328,212.715z"/>
	</g>
</g>
<g>
	<g>
		<path d="M443.328,212.683l-160-160c-4.576-4.576-11.424-5.952-17.44-3.456c-5.984,2.464-9.888,8.32-9.888,14.784v320
			c0,6.464,3.904,12.32,9.888,14.784c1.984,0.8,4.064,1.216,6.112,1.216c4.16,0,8.256-1.632,11.328-4.672l160-160
			C449.568,229.067,449.568,218.955,443.328,212.683z"/>
	</g>
</g>
<g>
</g>
<g>
</g>
<g>
</g>
<g>
</g>
<g>
</g>
<g>
</g>
<g>
</g>
<g>
</g>
<g>
</g>
<g>
</g>
<g>
</g>
<g>
</g>
<g>
</g>
<g>
</g>
<g>
</g>
</svg>
