<?xml version="1.0" encoding="iso-8859-1"?>
<!-- Generator: Adobe Illustrator 19.0.0, SVG Export Plug-In . SVG Version: 6.00 Build 0)  -->
<svg version="1.1" id="Capa_1" xmlns="http://www.w3.org/2000/svg" xmlns:xlink="http://www.w3.org/1999/xlink" x="0px" y="0px"
	 viewBox="0 0 512 512" style="enable-background:new 0 0 512 512;" xml:space="preserve">
<g>
	<g>
		<path d="M484.672,163.072c4.576,4.576,11.456,5.952,17.44,3.456c5.984-2.464,9.888-8.288,9.888-14.752V16c0-8.832-7.168-16-16-16
			H360.224c-6.464,0-12.32,3.904-14.784,9.888c-2.496,5.984-1.12,12.864,3.456,17.44l33.952,33.952L256,188.128L129.12,61.248
			l33.952-33.952c4.576-4.576,5.952-11.456,3.456-17.44C164.064,3.904,158.24,0,151.776,0H16C7.168,0,0,7.168,0,16v135.776
			c0,6.464,3.904,12.288,9.888,14.784c5.984,2.496,12.864,1.088,17.44-3.456l33.952-33.952L188.128,256L61.248,382.88
			l-33.952-33.952c-4.576-4.576-11.456-5.952-17.44-3.456C3.904,347.936,0,353.76,0,360.224V496c0,8.832,7.168,16,16,16h135.776
			c6.464,0,12.32-3.904,14.784-9.888c2.496-5.984,1.12-12.864-3.456-17.44l-33.952-33.952L256,323.872l126.88,126.88l-33.952,33.952
			c-4.576,4.576-5.952,11.456-3.456,17.44c2.464,5.952,8.288,9.856,14.752,9.856H496c8.832,0,16-7.168,16-16V360.224
			c0-6.464-3.904-12.288-9.888-14.784c-5.984-2.496-12.864-1.088-17.44,3.456l-33.952,33.952L323.872,256l126.88-126.88
			L484.672,163.072z"/>
	</g>
</g>
<g>
</g>
<g>
</g>
<g>
</g>
<g>
</g>
<g>
</g>
<g>
</g>
<g>
</g>
<g>
</g>
<g>
</g>
<g>
</g>
<g>
</g>
<g>
</g>
<g>
</g>
<g>
</g>
<g>
</g>
</svg>
