<?xml version="1.0" encoding="iso-8859-1"?>
<!-- Generator: Adobe Illustrator 19.0.0, SVG Export Plug-In . SVG Version: 6.00 Build 0)  -->
<svg version="1.1" id="Capa_1" xmlns="http://www.w3.org/2000/svg" xmlns:xlink="http://www.w3.org/1999/xlink" x="0px" y="0px"
	 viewBox="0 0 512 512" style="enable-background:new 0 0 512 512;" xml:space="preserve">
<g>
	<g>
		<path d="M350.496,281.376c-2.656-5.632-8.288-9.216-14.496-9.216h-48v-240c0-8.832-7.168-16-16-16h-32c-8.832,0-16,7.168-16,16
			v240h-48c-6.208,0-11.872,3.584-14.496,9.216c-2.624,5.6-1.76,12.224,2.176,17.024l80,96c6.112,7.296,18.528,7.296,24.608,0l80-96
			C352.256,293.632,353.12,287.008,350.496,281.376z"/>
	</g>
</g>
<g>
	<g>
		<path d="M480,175.84H320v64h128v192H64v-192h128v-64H32c-17.664,0-32,14.336-32,32v256c0,17.696,14.336,32,32,32h448
			c17.696,0,32-14.304,32-32v-256C512,190.176,497.696,175.84,480,175.84z"/>
	</g>
</g>
<g>
</g>
<g>
</g>
<g>
</g>
<g>
</g>
<g>
</g>
<g>
</g>
<g>
</g>
<g>
</g>
<g>
</g>
<g>
</g>
<g>
</g>
<g>
</g>
<g>
</g>
<g>
</g>
<g>
</g>
</svg>
