<?xml version="1.0" encoding="iso-8859-1"?>
<!-- Generator: Adobe Illustrator 19.0.0, SVG Export Plug-In . SVG Version: 6.00 Build 0)  -->
<svg version="1.1" id="Capa_1" xmlns="http://www.w3.org/2000/svg" xmlns:xlink="http://www.w3.org/1999/xlink" x="0px" y="0px"
	 viewBox="0 0 480.008 480.008" style="enable-background:new 0 0 480.008 480.008;" xml:space="preserve">
<g>
	<g>
		<path d="M475.328,228.683l-192-192c-4.576-4.576-11.488-5.952-17.44-3.456c-5.984,2.464-9.888,8.32-9.888,14.784v86.72
			c0,4,1.504,7.84,4.192,10.784l86.144,94.496l-86.144,94.496c-2.688,2.944-4.192,6.784-4.192,10.784v86.72
			c0,6.464,3.904,12.32,9.888,14.784c1.952,0.8,4.064,1.216,6.112,1.216c4.16,0,8.256-1.632,11.328-4.672l192-192
			C481.568,245.067,481.568,234.955,475.328,228.683z"/>
	</g>
</g>
<g>
	<g>
		<path d="M219.328,228.715l-192-192.032c-4.576-4.576-11.488-5.952-17.44-3.456C3.904,35.691,0,41.547,0,48.011v86.72
			c0,4,1.504,7.84,4.192,10.784l86.144,94.496L4.192,334.507C1.504,337.451,0,341.291,0,345.291v86.72
			c0,6.464,3.904,12.32,9.888,14.784c1.952,0.8,4.064,1.216,6.112,1.216c4.16,0,8.256-1.632,11.328-4.672l192-192
			C225.568,245.099,225.568,234.955,219.328,228.715z"/>
	</g>
</g>
<g>
</g>
<g>
</g>
<g>
</g>
<g>
</g>
<g>
</g>
<g>
</g>
<g>
</g>
<g>
</g>
<g>
</g>
<g>
</g>
<g>
</g>
<g>
</g>
<g>
</g>
<g>
</g>
<g>
</g>
</svg>
