<?xml version="1.0" encoding="iso-8859-1"?>
<!-- Generator: Adobe Illustrator 19.0.0, SVG Export Plug-In . SVG Version: 6.00 Build 0)  -->
<svg version="1.1" id="Capa_1" xmlns="http://www.w3.org/2000/svg" xmlns:xlink="http://www.w3.org/1999/xlink" x="0px" y="0px"
	 viewBox="0 0 512.008 512.008" style="enable-background:new 0 0 512.008 512.008;" xml:space="preserve">
<g>
	<g>
		<path d="M491.331,260.68l-96-96c-6.24-6.24-16.384-6.24-22.624,0l-96,96c-4.576,4.608-5.952,11.456-3.488,17.44
			s8.32,9.888,14.784,9.888h48v48c0,44.16-35.84,80-80,80c-44.16,0-80-35.84-80-80v-208h48c6.464,0,12.32-3.904,14.784-9.888
			s1.088-12.832-3.456-17.44l-96-96c-6.24-6.24-16.384-6.24-22.624,0l-96,96c-4.576,4.608-5.952,11.456-3.488,17.44
			s8.32,9.888,14.784,9.888h48v208c0,96.96,79.04,176,176,176s176-79.04,176-176v-48h48c6.464,0,12.32-3.904,14.784-9.888
			S495.875,265.288,491.331,260.68z"/>
	</g>
</g>
<g>
</g>
<g>
</g>
<g>
</g>
<g>
</g>
<g>
</g>
<g>
</g>
<g>
</g>
<g>
</g>
<g>
</g>
<g>
</g>
<g>
</g>
<g>
</g>
<g>
</g>
<g>
</g>
<g>
</g>
</svg>
