<?xml version="1.0" encoding="iso-8859-1"?>
<!-- Generator: Adobe Illustrator 19.0.0, SVG Export Plug-In . SVG Version: 6.00 Build 0)  -->
<svg version="1.1" id="Capa_1" xmlns="http://www.w3.org/2000/svg" xmlns:xlink="http://www.w3.org/1999/xlink" x="0px" y="0px"
	 viewBox="0 0 511.996 511.996" style="enable-background:new 0 0 511.996 511.996;" xml:space="preserve">
<g>
	<g>
		<path d="M410.716,220.103l-160-144c-4.704-4.224-11.456-5.312-17.248-2.72c-5.76,2.592-9.472,8.32-9.472,14.624v80.448
			c-114.752,6.432-202.432,81.952-215.68,188.064l-8.192,65.472c-0.928,7.456,3.424,14.56,10.528,17.056
			c1.76,0.64,3.552,0.96,5.344,0.96c5.376,0,10.592-2.752,13.568-7.52l16.096-25.792c31.936-51.072,95.84-110.688,170.88-110.688
			h7.456v80c0,6.304,3.712,12.032,9.472,14.624c5.792,2.496,12.512,1.536,17.216-2.72l160-144c3.36-3.04,5.312-7.36,5.312-11.904
			S414.044,223.143,410.716,220.103z"/>
	</g>
</g>
<g>
	<g>
		<path d="M506.716,220.103l-160-144c-6.56-5.888-16.672-5.344-22.624,1.184c-5.92,6.592-5.376,16.704,1.184,22.624l146.816,132.096
			L325.276,364.103c-6.56,5.952-7.104,16.032-1.184,22.624c3.2,3.488,7.52,5.28,11.904,5.28c3.808,0,7.648-1.344,10.72-4.096
			l160-144c3.328-3.04,5.28-7.36,5.28-11.904S510.044,223.143,506.716,220.103z"/>
	</g>
</g>
<g>
</g>
<g>
</g>
<g>
</g>
<g>
</g>
<g>
</g>
<g>
</g>
<g>
</g>
<g>
</g>
<g>
</g>
<g>
</g>
<g>
</g>
<g>
</g>
<g>
</g>
<g>
</g>
<g>
</g>
</svg>
