<?xml version="1.0" encoding="iso-8859-1"?>
<!-- Generator: Adobe Illustrator 19.0.0, SVG Export Plug-In . SVG Version: 6.00 Build 0)  -->
<svg version="1.1" id="Capa_1" xmlns="http://www.w3.org/2000/svg" xmlns:xlink="http://www.w3.org/1999/xlink" x="0px" y="0px"
	 viewBox="0 0 448.005 448.005" style="enable-background:new 0 0 448.005 448.005;" xml:space="preserve">
<g>
	<g>
		<path d="M444.453,213.946l-142.496-176c-5.504-6.784-15.424-7.872-22.336-2.496l-49.536,39.072
			c-3.36,2.656-5.504,6.56-5.984,10.816s0.768,8.512,3.456,11.84l102.752,126.816L227.557,350.81
			c-2.688,3.328-3.936,7.584-3.456,11.84c0.48,4.256,2.624,8.128,6.016,10.784l49.504,39.104c2.912,2.336,6.4,3.456,9.888,3.456
			c4.672,0,9.28-2.016,12.448-5.952l142.496-176C449.189,228.219,449.189,219.803,444.453,213.946z"/>
	</g>
</g>
<g>
	<g>
		<path d="M220.453,213.915L77.957,37.947c-5.504-6.816-15.456-7.904-22.368-2.528L6.085,74.523
			c-3.36,2.656-5.504,6.56-5.984,10.816s0.768,8.512,3.456,11.84l102.752,126.816L3.557,350.81
			c-2.688,3.328-3.936,7.584-3.456,11.84s2.624,8.128,6.016,10.784l49.504,39.104c2.912,2.336,6.4,3.456,9.888,3.456
			c4.672,0,9.28-2.016,12.448-5.952l142.496-176C225.189,228.187,225.189,219.771,220.453,213.915z"/>
	</g>
</g>
<g>
</g>
<g>
</g>
<g>
</g>
<g>
</g>
<g>
</g>
<g>
</g>
<g>
</g>
<g>
</g>
<g>
</g>
<g>
</g>
<g>
</g>
<g>
</g>
<g>
</g>
<g>
</g>
<g>
</g>
</svg>
