<?xml version="1.0" encoding="iso-8859-1"?>
<!-- Generator: Adobe Illustrator 19.0.0, SVG Export Plug-In . SVG Version: 6.00 Build 0)  -->
<svg version="1.1" id="Capa_1" xmlns="http://www.w3.org/2000/svg" xmlns:xlink="http://www.w3.org/1999/xlink" x="0px" y="0px"
	 viewBox="0 0 512.008 512.008" style="enable-background:new 0 0 512.008 512.008;" xml:space="preserve">
<g>
	<g>
		<path d="M443.336,164.68l-160-160c-6.24-6.24-16.384-6.24-22.624,0l-160,160c-4.608,4.608-5.984,11.456-3.488,17.44
			c2.464,5.984,8.32,9.888,14.784,9.888h80v119.36c0,36.992-11.2,72.672-32.352,103.2c-21.12,30.464-50.592,53.44-85.28,66.464
			c-7.232,2.72-11.488,10.208-10.112,17.824c1.376,7.616,8,13.152,15.744,13.152h90.88c110.016,0,181.12-83.648,181.12-213.12
			v-106.88h80c6.464,0,12.32-3.904,14.784-9.888S447.88,169.288,443.336,164.68z"/>
	</g>
</g>
<g>
</g>
<g>
</g>
<g>
</g>
<g>
</g>
<g>
</g>
<g>
</g>
<g>
</g>
<g>
</g>
<g>
</g>
<g>
</g>
<g>
</g>
<g>
</g>
<g>
</g>
<g>
</g>
<g>
</g>
</svg>
