<?xml version="1.0" encoding="iso-8859-1"?>
<!-- Generator: Adobe Illustrator 19.0.0, SVG Export Plug-In . SVG Version: 6.00 Build 0)  -->
<svg version="1.1" id="Capa_1" xmlns="http://www.w3.org/2000/svg" xmlns:xlink="http://www.w3.org/1999/xlink" x="0px" y="0px"
	 viewBox="0 0 512 512" style="enable-background:new 0 0 512 512;" xml:space="preserve">
<g>
	<g>
		<path d="M497.952,127.19L384.8,14.038c-18.72-18.72-49.184-18.688-67.872,0c-9.056,9.056-14.048,21.12-14.048,33.952
			c0,12.8,4.992,24.864,14.048,33.952l31.68,31.68C153.376,131.51,0,296.182,0,495.99c0,8.832,7.168,16,16,16h64
			c8.832,0,16-7.168,16-16c0-146.208,109.536-267.328,250.848-285.6l-29.952,29.92c-9.056,9.056-14.048,21.12-14.048,33.92
			c0,12.832,4.992,24.896,14.048,33.952c9.12,9.12,20.16,12.96,33.952,14.048c12.832,0,24.896-4.992,33.952-14.016l113.152-113.152
			c9.056-9.056,14.048-21.12,14.048-33.92S507.008,136.278,497.952,127.19z"/>
	</g>
</g>
<g>
</g>
<g>
</g>
<g>
</g>
<g>
</g>
<g>
</g>
<g>
</g>
<g>
</g>
<g>
</g>
<g>
</g>
<g>
</g>
<g>
</g>
<g>
</g>
<g>
</g>
<g>
</g>
<g>
</g>
</svg>
