<?xml version="1.0" encoding="iso-8859-1"?>
<!-- Generator: Adobe Illustrator 19.0.0, SVG Export Plug-In . SVG Version: 6.00 Build 0)  -->
<svg version="1.1" id="Capa_1" xmlns="http://www.w3.org/2000/svg" xmlns:xlink="http://www.w3.org/1999/xlink" x="0px" y="0px"
	 viewBox="0 0 512.056 512.056" style="enable-background:new 0 0 512.056 512.056;" xml:space="preserve">
<g>
	<g>
		<path d="M508.672,135.356L420.448,22.204c-3.04-3.904-7.68-6.176-12.608-6.176h-81.152c-6.112,0-11.68,3.488-14.368,8.992
			c-2.72,5.472-2.016,12.032,1.728,16.864l42.944,55.104C157.824,110.844,0,277.372,0,480.028c0,8.832,7.168,16,16,16h64
			c8.832,0,16-7.168,16-16c0-149.728,114.848-273.12,261.056-286.752l-41.28,52.896c-3.744,4.832-4.448,11.392-1.76,16.864
			c2.688,5.504,8.288,8.992,14.4,8.992H409.6c4.928,0,9.6-2.272,12.64-6.144l86.432-110.848
			C513.184,149.244,513.184,141.148,508.672,135.356z"/>
	</g>
</g>
<g>
</g>
<g>
</g>
<g>
</g>
<g>
</g>
<g>
</g>
<g>
</g>
<g>
</g>
<g>
</g>
<g>
</g>
<g>
</g>
<g>
</g>
<g>
</g>
<g>
</g>
<g>
</g>
<g>
</g>
</svg>
