<?xml version="1.0" encoding="iso-8859-1"?>
<!-- Generator: Adobe Illustrator 19.0.0, SVG Export Plug-In . SVG Version: 6.00 Build 0)  -->
<svg version="1.1" id="Capa_1" xmlns="http://www.w3.org/2000/svg" xmlns:xlink="http://www.w3.org/1999/xlink" x="0px" y="0px"
	 viewBox="0 0 512 512" style="enable-background:new 0 0 512 512;" xml:space="preserve">
<g>
	<g>
		<path d="M502.432,65.351c-5.792-2.56-12.608-1.44-17.248,2.848l-192,176c-3.296,3.04-5.184,7.328-5.184,11.808
			s1.888,8.768,5.184,11.808l192,176c3.008,2.752,6.88,4.192,10.816,4.192c2.176,0,4.384-0.448,6.432-1.344
			c5.824-2.56,9.568-8.32,9.568-14.656v-352C512,73.671,508.256,67.911,502.432,65.351z"/>
	</g>
</g>
<g>
	<g>
		<path d="M218.816,244.199l-192-176c-4.672-4.256-11.456-5.408-17.248-2.848C3.744,67.911,0,73.671,0,80.007v352
			c0,6.336,3.744,12.096,9.568,14.656c2.048,0.896,4.256,1.344,6.432,1.344c3.936,0,7.808-1.44,10.816-4.224l192-176
			c3.296-3.008,5.184-7.296,5.184-11.776C224,251.527,222.112,247.239,218.816,244.199z"/>
	</g>
</g>
<g>
</g>
<g>
</g>
<g>
</g>
<g>
</g>
<g>
</g>
<g>
</g>
<g>
</g>
<g>
</g>
<g>
</g>
<g>
</g>
<g>
</g>
<g>
</g>
<g>
</g>
<g>
</g>
<g>
</g>
</svg>
