<?xml version="1.0" encoding="iso-8859-1"?>
<!-- Generator: Adobe Illustrator 19.0.0, SVG Export Plug-In . SVG Version: 6.00 Build 0)  -->
<svg version="1.1" id="Capa_1" xmlns="http://www.w3.org/2000/svg" xmlns:xlink="http://www.w3.org/1999/xlink" x="0px" y="0px"
	 viewBox="0 0 512 512" style="enable-background:new 0 0 512 512;" xml:space="preserve">
<g>
	<g>
		<path d="M251.808,0C132.576,0,32.672,81.632,4.192,192h247.616v-63.68c0-6.464,3.904-12.288,9.856-14.784
			c5.952-2.4,12.864-1.152,17.44,3.424l128,127.36c3.008,3.008,4.704,7.104,4.704,11.36s-1.696,8.32-4.672,11.328l-128,128
			c-3.072,3.04-7.168,4.672-11.328,4.672c-2.048,0-4.128-0.416-6.112-1.216c-5.984-2.464-9.888-8.32-9.888-14.784V320H4.192
			c28.48,110.368,128.384,192,247.616,192c141.376,0,256-114.624,256-256S393.184,0,251.808,0z"/>
	</g>
</g>
<g>
</g>
<g>
</g>
<g>
</g>
<g>
</g>
<g>
</g>
<g>
</g>
<g>
</g>
<g>
</g>
<g>
</g>
<g>
</g>
<g>
</g>
<g>
</g>
<g>
</g>
<g>
</g>
<g>
</g>
</svg>
