<?xml version="1.0" encoding="iso-8859-1"?>
<!-- Generator: Adobe Illustrator 19.0.0, SVG Export Plug-In . SVG Version: 6.00 Build 0)  -->
<svg version="1.1" id="Capa_1" xmlns="http://www.w3.org/2000/svg" xmlns:xlink="http://www.w3.org/1999/xlink" x="0px" y="0px"
	 viewBox="0 0 416.006 416.006" style="enable-background:new 0 0 416.006 416.006;" xml:space="preserve">
<g>
	<g>
		<path d="M410.406,195.843l-224-192c-2.88-2.496-6.592-3.84-10.4-3.84h-160c-6.688,0-12.672,4.16-15.008,10.464
			c-2.336,6.272-0.48,13.344,4.608,17.696l209.824,179.84L5.606,387.843c-5.088,4.384-6.912,11.424-4.608,17.728
			c2.336,6.272,8.32,10.432,15.008,10.432h160c3.808,0,7.52-1.376,10.4-3.84l224-192.032c3.584-3.04,5.6-7.456,5.6-12.128
			S413.99,198.883,410.406,195.843z"/>
	</g>
</g>
<g>
</g>
<g>
</g>
<g>
</g>
<g>
</g>
<g>
</g>
<g>
</g>
<g>
</g>
<g>
</g>
<g>
</g>
<g>
</g>
<g>
</g>
<g>
</g>
<g>
</g>
<g>
</g>
<g>
</g>
</svg>
