<?xml version="1.0" encoding="iso-8859-1"?>
<!-- Generator: Adobe Illustrator 19.0.0, SVG Export Plug-In . SVG Version: 6.00 Build 0)  -->
<svg version="1.1" id="Capa_1" xmlns="http://www.w3.org/2000/svg" xmlns:xlink="http://www.w3.org/1999/xlink" x="0px" y="0px"
	 viewBox="0 0 511.984 511.984" style="enable-background:new 0 0 511.984 511.984;" xml:space="preserve">
<g>
	<g>
		<path d="M223.992,153.271V47.991c0-6.592-4.032-12.512-10.176-14.912c-6.112-2.368-13.152-0.8-17.568,4.064l-192,208
			c-5.664,6.144-5.664,15.584,0,21.728l192,208c3.072,3.296,7.36,5.12,11.744,5.12c1.952,0,3.936-0.352,5.824-1.088
			c6.144-2.4,10.176-8.32,10.176-14.912v-105.28c0-4.064-1.536-7.968-4.32-10.944l-85.76-91.776l85.792-91.808
			C222.456,161.239,223.992,157.335,223.992,153.271z"/>
	</g>
</g>
<g>
	<g>
		<path d="M507.736,245.143l-192-208c-4.448-4.864-11.456-6.432-17.568-4.064c-6.144,2.4-10.176,8.32-10.176,14.912v105.28
			c0,4.064,1.536,7.968,4.32,10.912l85.76,91.808l-85.792,91.776c-2.752,2.976-4.288,6.88-4.288,10.944v105.28
			c0,6.592,4.032,12.512,10.176,14.912c1.888,0.736,3.872,1.088,5.824,1.088c4.384,0,8.672-1.824,11.744-5.152l192-208
			C513.4,260.695,513.4,251.287,507.736,245.143z"/>
	</g>
</g>
<g>
</g>
<g>
</g>
<g>
</g>
<g>
</g>
<g>
</g>
<g>
</g>
<g>
</g>
<g>
</g>
<g>
</g>
<g>
</g>
<g>
</g>
<g>
</g>
<g>
</g>
<g>
</g>
<g>
</g>
</svg>
