<?xml version="1.0" encoding="iso-8859-1"?>
<!-- Generator: Adobe Illustrator 19.0.0, SVG Export Plug-In . SVG Version: 6.00 Build 0)  -->
<svg version="1.1" id="Capa_1" xmlns="http://www.w3.org/2000/svg" xmlns:xlink="http://www.w3.org/1999/xlink" x="0px" y="0px"
	 viewBox="0 0 511.984 511.984" style="enable-background:new 0 0 511.984 511.984;" xml:space="preserve">
<g>
	<g>
		<path d="M508.792,246.401l-96-128c-4.128-5.504-11.36-7.808-17.888-5.568c-6.496,2.176-10.912,8.288-10.912,15.168v64h-256v-64
			c0-6.88-4.416-12.992-10.944-15.168c-6.56-2.208-13.728,0.064-17.856,5.568l-96,128c-4.256,5.696-4.256,13.504,0,19.2l96,128
			c4.128,5.536,11.264,7.712,17.856,5.6c6.528-2.208,10.944-8.32,10.944-15.2v-64h256v64c0,6.88,4.416,12.992,10.944,15.2
			c1.664,0.544,3.36,0.8,5.056,0.8c4.928,0,9.728-2.272,12.8-6.4l96-128C513.048,259.905,513.048,252.097,508.792,246.401z"/>
	</g>
</g>
<g>
</g>
<g>
</g>
<g>
</g>
<g>
</g>
<g>
</g>
<g>
</g>
<g>
</g>
<g>
</g>
<g>
</g>
<g>
</g>
<g>
</g>
<g>
</g>
<g>
</g>
<g>
</g>
<g>
</g>
</svg>
