<?xml version="1.0" encoding="iso-8859-1"?>
<!-- Generator: Adobe Illustrator 19.0.0, SVG Export Plug-In . SVG Version: 6.00 Build 0)  -->
<svg version="1.1" id="Capa_1" xmlns="http://www.w3.org/2000/svg" xmlns:xlink="http://www.w3.org/1999/xlink" x="0px" y="0px"
	 viewBox="0 0 512.008 512.008" style="enable-background:new 0 0 512.008 512.008;" xml:space="preserve">
<g>
	<g>
		<path d="M508.288,245.772l-160-192c-4.32-5.184-11.392-7.136-17.728-4.8c-6.336,2.304-10.56,8.32-10.56,15.04v114.88
			l-307.136,61.44C5.376,241.836,0,248.396,0,256.012c0,7.616,5.376,14.176,12.864,15.68L320,333.132v114.88
			c0,6.752,4.224,12.736,10.56,15.04c1.792,0.64,3.616,0.96,5.44,0.96c4.672,0,9.184-2.016,12.288-5.76l160-192
			C513.248,260.332,513.248,251.692,508.288,245.772z"/>
	</g>
</g>
<g>
</g>
<g>
</g>
<g>
</g>
<g>
</g>
<g>
</g>
<g>
</g>
<g>
</g>
<g>
</g>
<g>
</g>
<g>
</g>
<g>
</g>
<g>
</g>
<g>
</g>
<g>
</g>
<g>
</g>
</svg>
