<?xml version="1.0" encoding="iso-8859-1"?>
<!-- Generator: Adobe Illustrator 19.0.0, SVG Export Plug-In . SVG Version: 6.00 Build 0)  -->
<svg version="1.1" id="Capa_1" xmlns="http://www.w3.org/2000/svg" xmlns:xlink="http://www.w3.org/1999/xlink" x="0px" y="0px"
	 viewBox="0 0 512 512" style="enable-background:new 0 0 512 512;" xml:space="preserve">
<g>
	<g>
		<path d="M506.72,220.095l-160-144c-4.704-4.256-11.424-5.248-17.216-2.72c-5.792,2.592-9.504,8.32-9.504,14.624v80h-48
			c-155.072,0-272,110.048-272,256c0,7.136,4.736,13.408,11.584,15.36c1.472,0.448,2.944,0.64,4.416,0.64
			c5.408,0,10.592-2.752,13.568-7.52l4.8-7.68c48.832-78.24,128.64-128.8,203.392-128.8H320v80c0,6.304,3.712,12.032,9.504,14.624
			c5.728,2.464,12.48,1.504,17.216-2.72l160-144c3.328-3.04,5.28-7.36,5.28-11.904S510.048,223.135,506.72,220.095z"/>
	</g>
</g>
<g>
</g>
<g>
</g>
<g>
</g>
<g>
</g>
<g>
</g>
<g>
</g>
<g>
</g>
<g>
</g>
<g>
</g>
<g>
</g>
<g>
</g>
<g>
</g>
<g>
</g>
<g>
</g>
<g>
</g>
</svg>
