<?xml version="1.0" encoding="iso-8859-1"?>
<!-- Generator: Adobe Illustrator 19.0.0, SVG Export Plug-In . SVG Version: 6.00 Build 0)  -->
<svg version="1.1" id="Capa_1" xmlns="http://www.w3.org/2000/svg" xmlns:xlink="http://www.w3.org/1999/xlink" x="0px" y="0px"
	 viewBox="0 0 512.008 512.008" style="enable-background:new 0 0 512.008 512.008;" xml:space="preserve">
<g>
	<g>
		<path d="M507.904,245.317L344.608,63.909c-2.848-3.168-6.848-5.056-11.072-5.28c-4.352-0.288-8.384,1.248-11.552,4.096
			l-47.552,42.784c-6.56,5.92-7.072,16.032-1.184,22.592l71.904,79.904H16c-8.832,0-16,7.168-16,16v64c0,8.832,7.168,16,16,16
			h329.152l-71.904,79.872c-5.92,6.592-5.376,16.672,1.184,22.624l47.552,42.816c3.072,2.752,6.912,4.096,10.72,4.096
			c4.384,0,8.704-1.792,11.904-5.28l163.296-181.408C513.376,260.645,513.376,251.397,507.904,245.317z"/>
	</g>
</g>
<g>
</g>
<g>
</g>
<g>
</g>
<g>
</g>
<g>
</g>
<g>
</g>
<g>
</g>
<g>
</g>
<g>
</g>
<g>
</g>
<g>
</g>
<g>
</g>
<g>
</g>
<g>
</g>
<g>
</g>
</svg>
