<?xml version="1.0" encoding="UTF-8" standalone="no"?>
<svg
   xmlns:dc="http://purl.org/dc/elements/1.1/"
   xmlns:cc="http://creativecommons.org/ns#"
   xmlns:rdf="http://www.w3.org/1999/02/22-rdf-syntax-ns#"
   xmlns:svg="http://www.w3.org/2000/svg"
   xmlns="http://www.w3.org/2000/svg"
   xmlns:sodipodi="http://sodipodi.sourceforge.net/DTD/sodipodi-0.dtd"
   xmlns:inkscape="http://www.inkscape.org/namespaces/inkscape"
   version="1.1"
   id="Capa_1"
   x="0px"
   y="0px"
   viewBox="0 0 576.99999 511.99999"
   xml:space="preserve"
   sodipodi:docname="reload_centered.svg"
   width="577"
   height="512"
   inkscape:version="1.0.2 (1.0.2+r75+1)"><metadata
   id="metadata43"><rdf:RDF><cc:Work
       rdf:about=""><dc:format>image/svg+xml</dc:format><dc:type
         rdf:resource="http://purl.org/dc/dcmitype/StillImage" /><dc:title></dc:title></cc:Work></rdf:RDF></metadata><defs
   id="defs41" /><sodipodi:namedview
   pagecolor="#ffffff"
   bordercolor="#666666"
   borderopacity="1"
   objecttolerance="10"
   gridtolerance="10"
   guidetolerance="10"
   inkscape:pageopacity="0"
   inkscape:pageshadow="2"
   inkscape:window-width="1920"
   inkscape:window-height="1056"
   id="namedview39"
   showgrid="false"
   inkscape:zoom="1.646494"
   inkscape:cx="256.60586"
   inkscape:cy="255.9985"
   inkscape:window-x="0"
   inkscape:window-y="0"
   inkscape:window-maximized="1"
   inkscape:current-layer="Capa_1" />
<g
   id="g6"
   transform="translate(64)">
	<g
   id="g4">
		<path
   d="m 510.705,233.925 c -2.56,-6.08 -8.32,-9.92 -14.72,-9.92 h -50.24 c -15.68,-110.4 -108.8,-192 -221.76,-192 -125.536,0 -227.264,103.776 -223.904,230.048 3.264,122.656 110.72,222.752 233.312,217.76 49.536,-2.016 95.744,-19.968 132.928,-51.136 7.04,-5.92 7.072,-16.864 0.576,-23.36 l -45.536,-45.536 c -5.856,-5.856 -14.88,-5.888 -21.504,-0.928 -21.6,16.192 -47.936,25.152 -75.872,25.152 -76.96,0 -137.984,-67.808 -126.624,-146.944 8.224,-57.312 56.768,-103.424 114.432,-108.512 65.216,-5.76 120.672,35.008 135.712,95.456 h -43.52 c -6.4,0 -12.16,3.84 -14.72,9.92 -2.56,6.08 -1.28,12.8 3.52,17.28 l 96,96 c 6.08,6.4 16.32,6.4 22.4,0 l 96,-96 c 4.8,-4.48 6.08,-11.2 3.52,-17.28 z"
   id="path2" />
	</g>
</g>
<g
   id="g8">
</g>
<g
   id="g10">
</g>
<g
   id="g12">
</g>
<g
   id="g14">
</g>
<g
   id="g16">
</g>
<g
   id="g18">
</g>
<g
   id="g20">
</g>
<g
   id="g22">
</g>
<g
   id="g24">
</g>
<g
   id="g26">
</g>
<g
   id="g28">
</g>
<g
   id="g30">
</g>
<g
   id="g32">
</g>
<g
   id="g34">
</g>
<g
   id="g36">
</g>
</svg>
