<?xml version="1.0" encoding="iso-8859-1"?>
<!-- Generator: Adobe Illustrator 19.0.0, SVG Export Plug-In . SVG Version: 6.00 Build 0)  -->
<svg version="1.1" id="Capa_1" xmlns="http://www.w3.org/2000/svg" xmlns:xlink="http://www.w3.org/1999/xlink" x="0px" y="0px"
	 viewBox="0 0 512.008 512.008" style="enable-background:new 0 0 512.008 512.008;" xml:space="preserve">
<g>
	<g>
		<path d="M507.904,245.316l-144-160c-3.072-3.392-7.392-5.312-11.904-5.312h-96c-6.336,0-12.064,3.712-14.624,9.472
			c-2.56,5.792-1.504,12.544,2.72,17.216l91.168,101.312H16c-8.832,0-16,7.168-16,16v64c0,8.832,7.168,16,16,16h319.264
			l-91.168,101.28c-4.224,4.704-5.312,11.456-2.72,17.216c2.56,5.792,8.288,9.504,14.624,9.504h96c4.544,0,8.832-1.952,11.904-5.28
			l144-160C513.376,260.644,513.376,251.364,507.904,245.316z"/>
	</g>
</g>
<g>
</g>
<g>
</g>
<g>
</g>
<g>
</g>
<g>
</g>
<g>
</g>
<g>
</g>
<g>
</g>
<g>
</g>
<g>
</g>
<g>
</g>
<g>
</g>
<g>
</g>
<g>
</g>
<g>
</g>
</svg>
