<svg height="512pt" viewBox="0 -64 512 512" width="512pt" xmlns="http://www.w3.org/2000/svg"><path d="m437.332031 234.667969h-32v-85.335938h32c41.175781 0 74.667969-33.492187 74.667969-74.664062 0-41.175781-33.492188-74.667969-74.667969-74.667969-41.171875 0-74.664062 33.492188-74.664062 74.667969v32h-85.335938v-32c0-41.175781-33.492187-74.667969-74.664062-74.667969-41.175781 0-74.667969 33.492188-74.667969 74.667969 0 41.171875 33.492188 74.664062 74.667969 74.664062h32v85.335938h-32c-41.175781 0-74.667969 33.492187-74.667969 74.664062 0 41.175781 33.492188 74.667969 74.667969 74.667969 41.171875 0 74.664062-33.492188 74.664062-74.667969v-32h85.335938v32c0 41.175781 33.492187 74.667969 74.664062 74.667969 41.175781 0 74.667969-33.492188 74.667969-74.667969 0-41.171875-33.492188-74.664062-74.667969-74.664062zm-32-160c0-17.644531 14.359375-32 32-32 17.644531 0 32 14.355469 32 32 0 17.640625-14.355469 32-32 32h-32zm-170.664062 234.664062c0 17.644531-14.359375 32-32 32-17.644531 0-32-14.355469-32-32 0-17.640625 14.355469-32 32-32h32zm0-202.664062h-32c-17.644531 0-32-14.359375-32-32 0-17.644531 14.355469-32 32-32 17.640625 0 32 14.355469 32 32zm128 128h-85.335938v-85.335938h85.335938zm74.664062 106.664062c-17.640625 0-32-14.355469-32-32v-32h32c17.644531 0 32 14.359375 32 32 0 17.644531-14.355469 32-32 32zm0 0"/><path d="m85.332031 21.332031h-64c-11.796875 0-21.332031 9.539063-21.332031 21.335938s9.535156 21.332031 21.332031 21.332031h64c11.796875 0 21.335938-9.535156 21.335938-21.332031s-9.539063-21.335938-21.335938-21.335938zm0 0"/><path d="m85.332031 128h-64c-11.796875 0-21.332031 9.535156-21.332031 21.332031s9.535156 21.335938 21.332031 21.335938h64c11.796875 0 21.335938-9.539063 21.335938-21.335938s-9.539063-21.332031-21.335938-21.332031zm0 0"/><path d="m85.332031 234.667969h-64c-11.796875 0-21.332031 9.535156-21.332031 21.332031s9.535156 21.332031 21.332031 21.332031h64c11.796875 0 21.335938-9.535156 21.335938-21.332031s-9.539063-21.332031-21.335938-21.332031zm0 0"/><path d="m85.332031 341.332031h-64c-11.796875 0-21.332031 9.539063-21.332031 21.335938s9.535156 21.332031 21.332031 21.332031h64c11.796875 0 21.335938-9.535156 21.335938-21.332031s-9.539063-21.335938-21.335938-21.335938zm0 0"/></svg>