<svg height="512pt" viewBox="0 -21 512.01524 512" width="512pt" xmlns="http://www.w3.org/2000/svg"><path d="m503.808594 380.722656-260.90625-146.046875 260.90625-146.050781c4.246094-2.367188 7.167968-6.546875 7.976562-11.347656.832032-4.714844-.636718-9.6875-3.882812-13.3125-29.886719-33.195313-81.042969-35.582032-133.523438-6.230469l-19.03125 10.582031c-58.773437 32.597656-139.261718 77.25-164.96875 108.097656-5.824218 6.996094-10.558594 13.972657-14.550781 20.714844l-58.558594-32.789062c31.253907-12.671875 53.398438-43.246094 53.398438-79 0-47.058594-38.273438-85.3320315-85.335938-85.3320315-47.058593 0-85.332031 38.2734375-85.332031 85.3320315 0 31.445312 17.28125 58.644531 42.644531 73.453125.425781.296875.597657.789062 1.046875 1.042969l113.621094 63.59375c.425781 2.519531 1.195312 6.402343 2.496094 11.246093-1.300782 4.839844-2.070313 8.722657-2.476563 11.21875l-113.621093 63.597657c-.445313.253906-.640626.746093-1.042969 1.042968-25.386719 14.804688-42.667969 42.027344-42.667969 73.472656 0 47.0625 38.273438 85.332032 85.332031 85.332032 47.0625 0 85.335938-38.269532 85.335938-85.332032 0-35.753906-22.144531-66.324218-53.398438-79.019531l58.558594-32.789062c3.992187 6.742187 8.726563 13.71875 14.550781 20.714843 25.707032 30.847657 106.21875 75.5 164.96875 108.097657l19.03125 10.578125c52.480469 29.355468 103.636719 26.96875 133.523438-6.226563 3.246094-3.628906 4.714844-8.597656 3.882812-13.3125-.789062-4.800781-3.730468-8.960937-7.976562-11.328125zm-418.476563-252.714844c-23.53125 0-42.664062-19.15625-42.664062-42.667968 0-23.507813 19.132812-42.664063 42.664062-42.664063s42.667969 19.132813 42.667969 42.664063-19.136719 42.667968-42.667969 42.667968zm42.667969 256c0 23.53125-19.136719 42.667969-42.667969 42.667969s-42.664062-19.136719-42.664062-42.667969 19.132812-42.667968 42.664062-42.667968 42.667969 19.136718 42.667969 42.667968zm0 0"/></svg>