<svg height="512pt" viewBox="0 -43 512.01809 512" width="512pt" xmlns="http://www.w3.org/2000/svg"><path d="m277.332031.0078125h-256c-11.796875 0-21.332031 9.5390625-21.332031 21.3359375v42.664062c0 11.796876 9.535156 21.335938 21.332031 21.335938s21.335938-9.539062 21.335938-21.335938v-21.332031h85.332031v341.332031h-21.332031c-11.796875 0-21.335938 9.539063-21.335938 21.335938s9.539063 21.332031 21.335938 21.332031h85.332031c11.796875 0 21.332031-9.535156 21.332031-21.332031s-9.535156-21.335938-21.332031-21.335938h-21.332031v-341.332031h85.332031v21.332031c0 11.796876 9.535156 21.335938 21.332031 21.335938s21.335938-9.539062 21.335938-21.335938v-42.664062c0-11.796875-9.539063-21.3359375-21.335938-21.3359375zm0 0"/><path d="m496 320.007812h-48v-213.332031h48c6.355469 0 12.117188-3.777343 14.675781-9.601562 2.5625-5.824219 1.386719-12.628907-2.941406-17.300781l-69.335937-74.664063c-6.078126-6.507813-17.363282-6.507813-23.464844 0l-69.332032 74.664063c-4.332031 4.671874-5.484374 11.457031-2.945312 17.300781 2.539062 5.847656 8.320312 9.601562 14.675781 9.601562h48v213.332031h-48c-6.355469 0-12.117187 3.777344-14.675781 9.601563s-1.386719 12.628906 2.945312 17.300781l69.332032 74.667969c3.050781 3.242187 7.273437 5.097656 11.734375 5.097656 4.457031 0 8.679687-1.855469 11.730469-5.097656l69.335937-74.667969c4.328125-4.671875 5.480469-11.457031 2.941406-17.300781-2.539062-5.84375-8.320312-9.601563-14.675781-9.601563zm0 0"/></svg>