<svg height="512pt" viewBox="0 0 512 512" width="512pt" xmlns="http://www.w3.org/2000/svg"><path d="m458.667969 74.667969h-32v-16c0-32.363281-26.304688-58.667969-58.667969-58.667969h-309.332031c-32.363281 0-58.667969 26.304688-58.667969 58.667969v74.664062c0 32.363281 26.304688 58.667969 58.667969 58.667969h309.332031c32.363281 0 58.667969-26.304688 58.667969-58.667969v-16h32c5.867187 0 10.664062 4.78125 10.664062 10.667969v96c0 5.886719-4.796875 10.667969-10.664062 10.667969h-213.335938c-35.285156 0-64 28.714843-64 64v21.332031h-16c-20.585937 0-37.332031 16.746094-37.332031 37.332031v117.335938c0 20.585937 16.746094 37.332031 37.332031 37.332031h74.667969c20.585938 0 37.332031-16.746094 37.332031-37.332031v-117.335938c0-20.585937-16.746093-37.332031-37.332031-37.332031h-16v-21.332031c0-11.757813 9.558594-21.335938 21.332031-21.335938h213.335938c29.417969 0 53.332031-23.933593 53.332031-53.332031v-96c0-29.398438-23.914062-53.332031-53.332031-53.332031zm0 0"/></svg>