<svg height="426pt" viewBox="-21 0 426 426.66667" width="426pt" xmlns="http://www.w3.org/2000/svg"><path d="m155.019531 320h-48v-298.667969c0-11.796875-9.539062-21.332031-21.335937-21.332031s-21.332032 9.535156-21.332032 21.332031v298.667969h-48c-6.359374 0-12.117187 3.777344-14.675781 9.601562-2.5625 5.824219-1.386719 12.628907 2.941407 17.300782l69.335937 74.664062c3.050781 3.246094 7.273437 5.101563 11.730469 5.101563 4.460937 0 8.683594-1.855469 11.734375-5.101563l69.332031-74.664062c4.332031-4.671875 5.484375-11.457032 2.945312-17.300782-2.539062-5.847656-8.320312-9.601562-14.675781-9.601562zm0 0"/><path d="m347.019531 256h-32c-20.589843 0-37.335937 16.746094-37.335937 37.332031v32c0 20.589844 16.746094 37.335938 37.335937 37.335938h37.332031v26.664062c0 2.945313-2.390624 5.335938-5.332031 5.335938h-53.335937c-8.832032 0-16 7.167969-16 16s7.167968 16 16 16h53.335937c20.585938 0 37.332031-16.746094 37.332031-37.335938v-96c0-20.585937-16.746093-37.332031-37.332031-37.332031zm5.332031 74.667969h-37.332031c-2.945312 0-5.335937-2.390625-5.335937-5.335938v-32c0-2.941406 2.390625-5.332031 5.335937-5.332031h32c2.941407 0 5.332031 2.390625 5.332031 5.332031zm0 0"/><path d="m293.683594 138.667969c-8.832032 0-16 7.167969-16 16s7.167968 16 16 16h74.667968c8.832032 0 16-7.167969 16-16s-7.167968-16-16-16h-21.332031v-122.667969c0-8.832031-7.167969-16-16-16h-37.335937c-8.832032 0-16 7.167969-16 16s7.167968 16 16 16h21.335937v106.667969zm0 0"/></svg>