<svg height="426pt" viewBox="-32 0 426 426.66667" width="426pt" xmlns="http://www.w3.org/2000/svg"><path d="m347.019531 394.667969h-47.875l61.953125-115.09375c2.667969-4.949219 2.539063-10.964844-.363281-15.789063-2.859375-4.820312-8.085937-7.785156-13.714844-7.785156h-74.667969c-8.832031 0-16 7.167969-16 16s7.167969 16 16 16h47.871094l-61.953125 115.09375c-2.664062 4.949219-2.535156 10.964844.363281 15.785156 2.859376 4.824219 8.085938 7.789063 13.71875 7.789063h74.667969c8.832031 0 16-7.167969 16-16s-7.167969-16-16-16zm0 0"/><path d="m309.683594 0c-29.417969 0-53.332032 23.914062-53.332032 53.332031v101.335938c0 8.832031 7.167969 16 16 16 8.832032 0 16-7.167969 16-16v-42.667969h42.667969v42.667969c0 8.832031 7.167969 16 16 16s16-7.167969 16-16v-101.335938c0-29.417969-23.917969-53.332031-53.335937-53.332031zm-21.332032 80v-26.667969c0-11.773437 9.558594-21.332031 21.332032-21.332031 11.777344 0 21.335937 9.558594 21.335937 21.332031v26.667969zm0 0"/><path d="m155.019531 320h-48v-298.667969c0-11.796875-9.539062-21.332031-21.335937-21.332031s-21.332032 9.535156-21.332032 21.332031v298.667969h-48c-6.359374 0-12.117187 3.777344-14.675781 9.601562-2.5625 5.824219-1.386719 12.628907 2.941407 17.300782l69.335937 74.664062c3.050781 3.246094 7.273437 5.101563 11.730469 5.101563 4.460937 0 8.683594-1.855469 11.734375-5.101563l69.332031-74.664062c4.332031-4.671875 5.484375-11.457032 2.945312-17.300782-2.539062-5.847656-8.320312-9.601562-14.675781-9.601562zm0 0"/></svg>