<svg height="512pt" viewBox="0 -107 512 512" width="512pt" xmlns="http://www.w3.org/2000/svg"><path d="m362.667969 298.667969h-42.667969c-11.777344 0-21.332031-9.539063-21.332031-21.335938s9.554687-21.332031 21.332031-21.332031h42.667969c58.816406 0 106.664062-47.851562 106.664062-106.667969 0-58.816406-47.847656-106.664062-106.664062-106.664062h-42.667969c-11.777344 0-21.332031-9.539063-21.332031-21.335938s9.554687-21.332031 21.332031-21.332031h42.667969c82.34375 0 149.332031 67.007812 149.332031 149.332031 0 82.328125-66.988281 149.335938-149.332031 149.335938zm0 0"/><path d="m192 298.667969h-42.667969c-82.34375 0-149.332031-67.007813-149.332031-149.335938 0-82.324219 66.988281-149.332031 149.332031-149.332031h42.667969c11.777344 0 21.332031 9.535156 21.332031 21.332031s-9.554687 21.335938-21.332031 21.335938h-42.667969c-58.816406 0-106.664062 47.847656-106.664062 106.664062 0 58.816407 47.847656 106.667969 106.664062 106.667969h42.667969c11.777344 0 21.332031 9.535156 21.332031 21.332031s-9.554687 21.335938-21.332031 21.335938zm0 0"/><path d="m320 170.667969h-128c-11.777344 0-21.332031-9.539063-21.332031-21.335938s9.554687-21.332031 21.332031-21.332031h128c11.777344 0 21.332031 9.535156 21.332031 21.332031s-9.554687 21.335938-21.332031 21.335938zm0 0"/></svg>