<svg height="512pt" viewBox="0 0 512.00533 512" width="512pt" xmlns="http://www.w3.org/2000/svg"><path d="m149.332031 320.003906c0-94.101562 76.566407-170.667968 170.667969-170.667968 40.339844 0 77.417969 14.144531 106.667969 37.652343v-128.320312c0-32.359375-26.304688-58.66406275-58.667969-58.66406275h-309.332031c-32.363281 0-58.667969 26.30468775-58.667969 58.66406275v309.335937c0 32.363282 26.304688 58.664063 58.667969 58.664063h128.320312c-23.511719-29.246094-37.65625-66.324219-37.65625-106.664063zm0 0" fill="#607d8b"/><path d="m505.75 475.585938-81.535156-81.535157c14.910156-20.929687 23.785156-46.441406 23.785156-74.046875 0-70.59375-57.40625-128-128-128s-128 57.40625-128 128c0 70.589844 57.40625 128 128 128 27.605469 0 53.121094-8.875 74.046875-23.789062l81.539063 81.539062c4.15625 4.15625 9.621093 6.25 15.082031 6.25 5.460937 0 10.921875-2.09375 15.082031-6.25 8.339844-8.34375 8.339844-21.824218 0-30.167968zm0 0" fill="#4caf50"/><path d="m368 336.003906h-32v32c0 8.832032-7.167969 16-16 16s-16-7.167968-16-16v-32h-32c-8.832031 0-16-7.167968-16-16 0-8.832031 7.167969-16 16-16h32v-32c0-8.832031 7.167969-16 16-16s16 7.167969 16 16v32h32c8.832031 0 16 7.167969 16 16 0 8.832032-7.167969 16-16 16zm0 0" fill="#fff"/></svg>