<svg height="512pt" viewBox="0 -43 512 512" width="512pt" xmlns="http://www.w3.org/2000/svg"><path d="m224 213.332031h64v85.335938h-64zm0 0" fill="#90a4ae"/><path d="m234.667969 74.667969c0-41.175781-33.496094-74.667969-74.667969-74.667969-30.910156 0-59.007812 19.433594-69.910156 48.40625-.019532.042969-.019532.085938-.042969.128906l-82.539063 219.433594c0 .019531-.019531.019531-.019531.019531-4.972656 13.25-7.488281 27.136719-7.488281 41.34375 0 64.707031 52.652344 117.335938 117.332031 117.335938 64.683594 0 117.335938-52.628907 117.335938-117.335938zm0 0" fill="#607d8b"/><path d="m117.332031 384c-41.171875 0-74.664062-33.492188-74.664062-74.667969 0-9.042969 1.597656-17.898437 4.757812-26.28125 10.878907-28.929687 38.972657-48.382812 69.90625-48.382812 41.175781 0 74.667969 33.492187 74.667969 74.664062 0 41.175781-33.492188 74.667969-74.667969 74.667969zm0 0" fill="#fff"/><path d="m504.492188 268.03125-82.539063-219.496094c-.023437-.042968-.023437-.085937-.042969-.128906l-.023437-.023438c-10.878907-28.949218-38.976563-48.382812-69.886719-48.382812s-59.007812 19.433594-69.910156 48.40625c-3.15625 8.40625-4.757813 17.257812-4.757813 26.261719v234.664062c0 64.707031 52.652344 117.335938 117.335938 117.335938 64.679687 0 117.332031-52.628907 117.332031-117.335938 0-14.207031-2.515625-28.09375-7.507812-41.300781zm0 0" fill="#607d8b"/><path d="m394.667969 384c-41.175781 0-74.667969-33.492188-74.667969-74.667969 0-41.171875 33.492188-74.664062 74.667969-74.664062 30.933593 0 59.027343 19.453125 69.90625 48.382812 3.160156 8.382813 4.757812 17.238281 4.757812 26.28125 0 41.175781-33.492187 74.667969-74.664062 74.667969zm0 0" fill="#fff"/></svg>