<svg height="426pt" viewBox="-42 0 426 426.66667" width="426pt" xmlns="http://www.w3.org/2000/svg"><g fill="#607d8b"><path d="m64.332031 426.667969c-11.773437 0-21.332031-9.558594-21.332031-21.335938v-384c0-11.773437 9.558594-21.332031 21.332031-21.332031 11.777344 0 21.335938 9.558594 21.335938 21.332031v384c0 11.777344-9.558594 21.335938-21.335938 21.335938zm0 0"/><path d="m208.332031 224h-138.664062c-11.777344 0-21.335938-9.558594-21.335938-21.332031 0-11.777344 9.558594-21.335938 21.335938-21.335938h138.664062c38.230469 0 69.335938-31.101562 69.335938-69.332031s-31.105469-69.332031-69.335938-69.332031h-186.664062c-11.777344 0-21.335938-9.558594-21.335938-21.335938 0-11.773437 9.558594-21.332031 21.335938-21.332031h186.664062c61.761719 0 112 50.238281 112 112s-50.238281 112-112 112zm0 0"/><path d="m219 426.667969h-197.332031c-11.777344 0-21.335938-9.558594-21.335938-21.335938 0-11.773437 9.558594-21.332031 21.335938-21.332031h197.332031c44.117188 0 80-35.882812 80-80s-35.882812-80-80-80h-149.332031c-11.777344 0-21.335938-9.558594-21.335938-21.332031 0-11.777344 9.558594-21.335938 21.335938-21.335938h149.332031c67.625 0 122.667969 55.042969 122.667969 122.667969s-55.042969 122.667969-122.667969 122.667969zm0 0"/></g></svg>