<svg height="512pt" viewBox="0 -21 512 512" width="512pt" xmlns="http://www.w3.org/2000/svg"><path d="m448 0h-384c-35.285156 0-64 28.714844-64 64v341.332031c0 35.285157 28.714844 64 64 64h384c35.285156 0 64-28.714843 64-64v-341.332031c0-35.285156-28.714844-64-64-64zm0 0" fill="#eceff1"/><path d="m64 0h384c35.347656 0 64 28.652344 64 64v74.667969h-512v-74.667969c0-35.347656 28.652344-64 64-64zm0 0" fill="#4caf50"/><g fill="#81c784"><path d="m277.332031 181.332031h74.667969v53.335938h-74.667969zm0 0"/><path d="m160 181.332031h74.667969v53.335938h-74.667969zm0 0"/><path d="m42.667969 181.332031h74.664062v53.335938h-74.664062zm0 0"/><path d="m42.667969 277.332031h74.664062v53.335938h-74.664062zm0 0"/><path d="m160 277.332031h74.667969v53.335938h-74.667969zm0 0"/><path d="m160 373.332031h74.667969v53.335938h-74.667969zm0 0"/><path d="m277.332031 373.332031h74.667969v53.335938h-74.667969zm0 0"/><path d="m277.332031 277.332031h74.667969v53.335938h-74.667969zm0 0"/><path d="m394.667969 277.332031h74.664062v53.335938h-74.664062zm0 0"/><path d="m394.667969 181.332031h74.664062v53.335938h-74.664062zm0 0"/><path d="m42.667969 405.332031v-32h74.664062v53.335938h-53.332031c-11.753906 0-21.332031-9.578125-21.332031-21.335938zm0 0"/><path d="m448 426.667969h-53.332031v-53.335938h74.664062v32c0 11.757813-9.578125 21.335938-21.332031 21.335938zm0 0"/></g></svg>