<svg height="512pt" viewBox="0 0 512 512" width="512pt" xmlns="http://www.w3.org/2000/svg"><path d="m453.332031 234.667969h-138.664062c-32.363281 0-58.667969 26.300781-58.667969 58.664062v160c0 32.363281 26.304688 58.667969 58.667969 58.667969h138.664062c32.363281 0 58.667969-26.304688 58.667969-58.667969v-160c0-32.363281-26.304688-58.664062-58.667969-58.664062zm0 0" fill="#eceff1"/><g fill="#90a4ae"><path d="m432 453.332031h-96c-8.832031 0-16-7.167969-16-16s7.167969-16 16-16h96c8.832031 0 16 7.167969 16 16s-7.167969 16-16 16zm0 0"/><path d="m432 389.332031h-96c-8.832031 0-16-7.167969-16-16s7.167969-16 16-16h96c8.832031 0 16 7.167969 16 16s-7.167969 16-16 16zm0 0"/><path d="m432 325.332031h-96c-8.832031 0-16-7.167969-16-16s7.167969-16 16-16h96c8.832031 0 16 7.167969 16 16s-7.167969 16-16 16zm0 0"/></g><path d="m250.667969 0h-117.335938c-14.699219 0-26.664062 11.96875-26.664062 26.667969v53.332031c0 14.699219 11.964843 26.667969 26.664062 26.667969h117.335938c14.699219 0 26.664062-11.96875 26.664062-26.667969v-53.332031c0-14.699219-11.964843-26.667969-26.664062-26.667969zm0 0" fill="#1976d2"/><path d="m224 293.332031c0-49.984375 40.683594-90.664062 90.667969-90.664062h69.332031v-101.335938c0-32.363281-26.304688-58.664062-58.667969-58.664062h-16v37.332031c0 32.363281-26.300781 58.667969-58.664062 58.667969h-117.335938c-32.363281 0-58.664062-26.304688-58.664062-58.667969v-37.332031h-16c-32.363281 0-58.667969 26.300781-58.667969 58.664062v266.667969c0 32.363281 26.304688 58.667969 58.667969 58.667969h165.332031zm0 0" fill="#2196f3"/></svg>