<svg height="512pt" viewBox="0 -64 512 512" width="512pt" xmlns="http://www.w3.org/2000/svg"><path d="m437.332031 384c-41.171875 0-74.664062-33.492188-74.664062-74.667969v-32h-85.335938v32c0 41.175781-33.492187 74.667969-74.664062 74.667969-41.175781 0-74.667969-33.492188-74.667969-74.667969 0-41.171875 33.492188-74.664062 74.667969-74.664062h32v-85.335938h-32c-41.175781 0-74.667969-33.492187-74.667969-74.664062 0-41.175781 33.492188-74.667969 74.667969-74.667969 41.171875 0 74.664062 33.492188 74.664062 74.667969v32h85.335938v-32c0-41.175781 33.492187-74.667969 74.664062-74.667969 41.175781 0 74.667969 33.492188 74.667969 74.667969 0 41.171875-33.492188 74.664062-74.667969 74.664062h-32v85.335938h32c41.175781 0 74.667969 33.492187 74.667969 74.664062 0 41.175781-33.492188 74.667969-74.667969 74.667969zm-32-106.667969v32c0 17.644531 14.359375 32 32 32 17.644531 0 32-14.355469 32-32 0-17.640625-14.355469-32-32-32zm-202.664062 0c-17.644531 0-32 14.359375-32 32 0 17.644531 14.355469 32 32 32 17.640625 0 32-14.355469 32-32v-32zm74.664062-42.664062h85.335938v-85.335938h-85.335938zm128-128h32c17.644531 0 32-14.359375 32-32 0-17.644531-14.355469-32-32-32-17.640625 0-32 14.355469-32 32zm-202.664062-64c-17.644531 0-32 14.355469-32 32 0 17.640625 14.355469 32 32 32h32v-32c0-17.644531-14.359375-32-32-32zm0 0" fill="#607d8b"/><g fill="#4caf50"><path d="m85.332031 64h-64c-11.796875 0-21.332031-9.558594-21.332031-21.332031 0-11.777344 9.535156-21.335938 21.332031-21.335938h64c11.796875 0 21.335938 9.558594 21.335938 21.335938 0 11.773437-9.539063 21.332031-21.335938 21.332031zm0 0"/><path d="m85.332031 170.667969h-64c-11.796875 0-21.332031-9.558594-21.332031-21.335938 0-11.773437 9.535156-21.332031 21.332031-21.332031h64c11.796875 0 21.335938 9.558594 21.335938 21.332031 0 11.777344-9.539063 21.335938-21.335938 21.335938zm0 0"/><path d="m85.332031 277.332031h-64c-11.796875 0-21.332031-9.554687-21.332031-21.332031s9.535156-21.332031 21.332031-21.332031h64c11.796875 0 21.335938 9.554687 21.335938 21.332031s-9.539063 21.332031-21.335938 21.332031zm0 0"/><path d="m85.332031 384h-64c-11.796875 0-21.332031-9.558594-21.332031-21.332031 0-11.777344 9.535156-21.335938 21.332031-21.335938h64c11.796875 0 21.335938 9.558594 21.335938 21.335938 0 11.773437-9.539063 21.332031-21.335938 21.332031zm0 0"/></g></svg>