<svg height="512pt" viewBox="0 -85 512.016 512" width="512pt" xmlns="http://www.w3.org/2000/svg"><path d="m453.347656.0078125h-293.332031c-4.4375 0-8.683594 1.8359375-11.710937 5.0976565l-144 154.667969c-5.738282 6.144531-5.738282 15.660156 0 21.800781l144 154.667969c3.027343 3.265624 7.273437 5.097656 11.710937 5.097656h293.332031c32.363282 0 58.667969-26.300782 58.667969-58.664063v-224c0-32.363281-26.304687-58.6679685-58.667969-58.6679685zm0 0" fill="#607d8b"/><g fill="#fff"><path d="m400.015625 266.675781c-5.738281 0-11.433594-2.285156-15.617187-6.804687l-138.664063-149.335938c-8.023437-8.640625-7.53125-22.144531 1.109375-30.164062 8.597656-8.023438 22.144531-7.53125 30.144531 1.109375l138.664063 149.332031c8.023437 8.640625 7.53125 22.144531-1.109375 30.167969-4.117188 3.816406-9.320313 5.695312-14.527344 5.695312zm0 0"/><path d="m261.347656 266.675781c-5.203125 0-10.410156-1.878906-14.527344-5.695312-8.617187-8.023438-9.128906-21.527344-1.109374-30.167969l138.667968-149.332031c8-8.640625 21.523438-9.132813 30.144532-1.109375 8.617187 8.019531 9.128906 21.523437 1.109374 30.164062l-138.667968 149.335938c-4.179688 4.519531-9.875 6.804687-15.617188 6.804687zm0 0"/></g></svg>