<svg height="511pt" viewBox="0 -63 511.97867 511" width="511pt" xmlns="http://www.w3.org/2000/svg"><path d="m506.699219 165.757812c-41.621094-100.394531-140.03125-165.269531-250.710938-165.269531-110.675781 0-209.085937 64.875-250.707031 165.269531-7.042969 16.980469-7.042969 36.460938 0 53.460938 41.621094 100.394531 140.03125 165.269531 250.707031 165.269531 110.679688 0 209.089844-64.875 250.710938-165.269531 7.039062-16.980469 7.039062-36.480469 0-53.460938zm-250.710938 112.066407c-47.058593 0-85.332031-38.273438-85.332031-85.335938 0-47.058593 38.273438-85.332031 85.332031-85.332031 47.0625 0 85.335938 38.273438 85.335938 85.332031 0 47.0625-38.273438 85.335938-85.335938 85.335938zm0 0" fill="#2196f3"/></svg>