<svg height="512pt" viewBox="0 0 512 512" width="512pt" xmlns="http://www.w3.org/2000/svg"><path d="m298.667969 277.332031h-256c-11.777344 0-21.335938-9.554687-21.335938-21.332031s9.558594-21.332031 21.335938-21.332031h256c11.773437 0 21.332031 9.554687 21.332031 21.332031s-9.558594 21.332031-21.332031 21.332031zm0 0" fill="#607d8b"/><path d="m314.667969 0h-288c-14.699219 0-26.667969 11.96875-26.667969 26.667969 0 7.570312 3.15625 14.78125 8.535156 19.625l149.566406 138.878906c4.949219 4.394531 11.285157 6.828125 17.898438 6.828125 6.996094 0 13.652344-2.792969 20.054688-9.386719l134.976562-135.039062c.316406-.277344 2.152344-1.855469 2.453125-2.175781 5.054687-5.078126 7.847656-11.734376 7.847656-18.730469 0-14.699219-11.964843-26.667969-26.664062-26.667969zm0 0" fill="#b0bec5"/><path d="m331.945312 465.28125-135.058593-135.042969c-.277344-.316406-1.835938-2.109375-2.132813-2.386719-9.878906-9.835937-26.21875-10.328124-36.886718-.8125l-149.140626 138.496094c-5.460937 4.90625-8.726562 12.308594-8.726562 19.796875 0 14.699219 11.96875 26.667969 26.667969 26.667969h288c14.699219 0 26.664062-11.96875 26.664062-26.667969 0-7.039062-2.792969-13.695312-9.386719-20.050781zm0 0" fill="#b0bec5"/><path d="m468.222656 151.742188 39.085938-39.101563c4.5625-4.566406 5.949218-11.457031 3.476562-17.429687-2.476562-5.972657-8.320312-9.878907-14.785156-9.878907h-117.332031c-8.832031 0-16 7.167969-16 16v117.335938c0 6.460937 3.902343 12.308593 9.875 14.78125 1.984375.8125 4.054687 1.21875 6.125 1.21875 4.160156 0 8.253906-1.621094 11.304687-4.695313l47.851563-47.851562c20.054687 27.628906 31.507812 60.84375 31.507812 95.210937 0 49.386719-22.441406 95.722657-61.566406 127.148438-9.171875 7.382812-10.644531 20.820312-3.265625 29.996093 4.226562 5.246094 10.410156 7.976563 16.640625 7.976563 4.695313 0 9.410156-1.535156 13.355469-4.691406 49.257812-39.574219 77.503906-98.050781 77.503906-160.429688 0-45.714843-15.980469-89.769531-43.777344-125.589843zm0 0" fill="#4caf50"/></svg>