<svg height="512pt" viewBox="0 0 512 512" width="512pt" xmlns="http://www.w3.org/2000/svg"><path d="m256 490.667969c-11.777344 0-21.332031-9.558594-21.332031-21.335938v-256c0-11.773437 9.554687-21.332031 21.332031-21.332031s21.332031 9.558594 21.332031 21.332031v256c0 11.777344-9.554687 21.335938-21.332031 21.335938zm0 0" fill="#607d8b"/><path d="m182.613281 315.945312-135.039062-134.976562c-.277344-.316406-1.835938-2.152344-2.15625-2.453125-5.097657-5.054687-11.753907-7.847656-18.75-7.847656-14.699219 0-26.667969 11.964843-26.667969 26.664062v288c0 14.699219 11.96875 26.667969 26.667969 26.667969 7.570312 0 14.78125-3.15625 19.625-8.535156l138.878906-149.566406c4.394531-4.949219 6.828125-11.285157 6.828125-17.898438 0-6.996094-2.792969-13.652344-9.386719-20.054688zm0 0" fill="#b0bec5"/><path d="m465.28125 180.054688-135.019531 135.058593c-.320313.277344-2.113281 1.835938-2.390625 2.132813-5.078125 5.101562-7.871094 11.757812-7.871094 18.753906 0 6.613281 2.433594 12.949219 7.039062 18.132812l138.496094 149.140626c4.90625 5.460937 12.308594 8.726562 19.796875 8.726562 14.699219 0 26.667969-11.96875 26.667969-26.667969v-288c0-21.738281-27.03125-37.628906-46.71875-17.277343zm0 0" fill="#b0bec5"/><path d="m437.761719 77.503906c-39.574219-49.257812-98.050781-77.503906-160.429688-77.503906-45.714843 0-89.769531 15.980469-125.589843 43.777344l-39.101563-39.085938c-4.585937-4.585937-11.457031-5.929687-17.429687-3.476562-5.972657 2.476562-9.878907 8.320312-9.878907 14.785156v117.332031c0 8.832031 7.167969 16 16 16h117.335938c6.460937 0 12.308593-3.902343 14.78125-9.875 2.476562-5.972656 1.109375-12.863281-3.476563-17.429687l-47.828125-47.851563c27.605469-20.054687 60.820313-31.507812 95.1875-31.507812 49.386719 0 95.722657 22.441406 127.148438 61.566406 7.382812 9.171875 20.800781 10.644531 29.996093 3.265625 9.191407-7.382812 10.664063-20.800781 3.285157-29.996094zm0 0" fill="#4caf50"/></svg>