<svg height="512pt" viewBox="0 -43 512.00863 512" width="512pt" xmlns="http://www.w3.org/2000/svg"><g fill="#607d8b"><path d="m149.332031 426.671875c-11.796875 0-21.332031-9.558594-21.332031-21.335937v-384c0-11.773438 9.535156-21.33203175 21.332031-21.33203175s21.335938 9.55859375 21.335938 21.33203175v384c0 11.777343-9.539063 21.335937-21.335938 21.335937zm0 0"/><path d="m277.332031 85.335938c-11.796875 0-21.332031-9.554688-21.332031-21.332032v-21.332031h-213.332031v21.332031c0 11.777344-9.539063 21.332032-21.335938 21.332032s-21.332031-9.554688-21.332031-21.332032v-42.667968c0-11.773438 9.535156-21.33203175 21.332031-21.33203175h256c11.796875 0 21.335938 9.55859375 21.335938 21.33203175v42.667968c0 11.777344-9.539063 21.332032-21.335938 21.332032zm0 0"/><path d="m192 426.671875h-85.332031c-11.796875 0-21.335938-9.558594-21.335938-21.335937 0-11.773438 9.539063-21.332032 21.335938-21.332032h85.332031c11.796875 0 21.332031 9.558594 21.332031 21.332032 0 11.777343-9.535156 21.335937-21.332031 21.335937zm0 0"/></g><path d="m496 320.003906h-48v-213.332031h48c6.355469 0 12.117188-3.777344 14.65625-9.601563 2.539062-5.824218 1.386719-12.628906-2.945312-17.28125l-69.332032-74.664062c-6.082031-6.527344-17.367187-6.527344-23.46875 0l-69.332031 74.664062c-4.332031 4.652344-5.480469 11.457032-2.945313 17.28125 2.582032 5.824219 8.34375 9.601563 14.699219 9.601563h48v213.332031h-48c-6.355469 0-12.117187 3.777344-14.675781 9.601563-2.539062 5.824219-1.386719 12.628906 2.945312 17.277343l69.332032 74.667969c3.050781 3.265625 7.273437 5.121094 11.734375 5.121094 4.457031 0 8.679687-1.855469 11.730469-5.121094l69.335937-74.667969c4.328125-4.648437 5.480469-11.453124 2.941406-17.277343-2.558593-5.824219-8.320312-9.601563-14.675781-9.601563zm0 0" fill="#4caf50"/></svg>