<svg height="458pt" viewBox="-2 0 458 458.60584" width="458pt" xmlns="http://www.w3.org/2000/svg"><path d="m169.96875 329.027344-45.441406-45.441406c-2.003906-1.984376-4.695313-3.113282-7.53125-3.113282-2.835938 0-5.566406 1.128906-7.550782 3.136719l-92.546874 92.800781c-3.050782 3.050782-3.945313 7.636719-2.28125 11.625 1.621093 3.96875 5.527343 6.570313 9.835937 6.570313h90.625c2.835937 0 5.542969-1.128907 7.550781-3.113281l47.359375-47.359376c4.136719-4.183593 4.136719-10.925781-.019531-15.105468zm0 0" fill="#4caf50"/><path d="m405.636719 458.605469h-384c-11.796875 0-21.332031-9.558594-21.332031-21.332031 0-11.777344 9.535156-21.335938 21.332031-21.335938h384c11.796875 0 21.332031 9.558594 21.332031 21.335938 0 11.773437-9.535156 21.332031-21.332031 21.332031zm0 0" fill="#4caf50"/><path d="m245.957031 328.324219-120.683593-120.683594c-3.625-3.625-8.789063-5.289063-13.867188-4.480469-5.078125.832032-9.449219 4.03125-11.753906 8.640625l-30.164063 60.351563c-3.09375 6.164062-1.878906 13.609375 3.007813 18.476562l90.515625 90.515625c3.074219 3.070313 7.167969 4.691407 11.308593 4.691407 2.429688 0 4.882813-.554688 7.144532-1.683594l60.332031-30.164063c4.605469-2.304687 7.828125-6.679687 8.640625-11.753906.832031-5.121094-.832031-10.285156-4.480469-13.910156zm0 0" fill="#eceff1"/><path d="m436.441406 66.265625-49.152344-49.132813c-21.78125-21.78125-56.960937-22.933593-80.128906-2.664062l-211.304687 184.894531c-3.328125 2.921875-5.292969 7.082031-5.460938 11.519531-.148437 4.4375 1.554688 8.726563 4.691407 11.839844l135.765624 135.765625c3.007813 3.007813 7.082032 4.695313 11.308594 4.695313h.53125c4.417969-.152344 8.578125-2.136719 11.5-5.464844l184.894532-211.328125c20.308593-23.1875 19.136718-58.386719-2.644532-80.125zm0 0" fill="#607d8b"/></svg>