<svg height="426pt" viewBox="-106 0 426 426.67588" width="426pt" xmlns="http://www.w3.org/2000/svg"><g fill="#607d8b"><path d="m192.339844 42.675781h-64c-11.777344 0-21.335938-9.558593-21.335938-21.332031 0-11.777344 9.558594-21.3359375 21.335938-21.3359375h64c11.773437 0 21.332031 9.5585935 21.332031 21.3359375 0 11.773438-9.558594 21.332031-21.332031 21.332031zm0 0"/><path d="m53.671875 426.675781c-1.878906 0-3.820313-.257812-5.71875-.789062-11.347656-3.136719-18.003906-14.914063-14.847656-26.261719l106.667969-384c3.15625-11.347656 14.933593-17.984375 26.261718-14.847656 11.347656 3.136718 18.003906 14.910156 14.847656 26.261718l-106.667968 384c-2.625 9.449219-11.199219 15.636719-20.542969 15.636719zm0 0"/><path d="m85.671875 426.675781h-64c-11.777344 0-21.332031-9.558593-21.332031-21.332031 0-11.777344 9.554687-21.335938 21.332031-21.335938h64c11.777344 0 21.332031 9.558594 21.332031 21.335938 0 11.773438-9.554687 21.332031-21.332031 21.332031zm0 0"/></g></svg>