<svg height="469pt" viewBox="0 0 469.344 469" width="469pt" xmlns="http://www.w3.org/2000/svg"><g fill="#607d8b"><path d="m368.21875 299.269531c-5.460938 0-10.921875-2.089843-15.082031-6.25-8.34375-8.339843-8.34375-21.824219 0-30.164062l43.09375-43.09375c19.648437-19.476563 30.441406-45.460938 30.441406-73.238281 0-57.171876-46.507813-103.679688-103.679687-103.679688-27.777344 0-53.761719 10.792969-73.171876 30.378906l-43.160156 43.15625c-8.339844 8.34375-21.824218 8.34375-30.164062 0-8.339844-8.339844-8.339844-21.824218 0-30.164062l43.09375-43.09375c27.414062-27.667969 64.148437-42.945313 103.402344-42.945313 80.703124 0 146.347656 65.644531 146.347656 146.347657 0 39.253906-15.277344 75.988281-43.03125 103.488281l-43.027344 43.03125c-4.160156 4.136719-9.601562 6.226562-15.0625 6.226562zm0 0"/><path d="m146.351562 469.511719c-80.703124 0-146.34765575-65.644531-146.34765575-146.347657 0-39.253906 15.27734375-75.988281 43.03124975-103.488281l43.027344-43.027343c8.34375-8.34375 21.824219-8.34375 30.167969 0 8.339843 8.339843 8.339843 21.820312 0 30.164062l-43.09375 43.09375c-19.671875 19.496094-30.464844 45.480469-30.464844 73.257812 0 57.171876 46.507813 103.679688 103.679687 103.679688 27.777344 0 53.761719-10.792969 73.171876-30.378906l43.160156-43.15625c8.339844-8.34375 21.824218-8.34375 30.164062 0 8.339844 8.339844 8.339844 21.824218 0 30.164062l-43.09375 43.09375c-27.414062 27.667969-64.148437 42.945313-103.402344 42.945313zm0 0"/><path d="m279.898438 210.949219c-5.460938 0-10.921876-2.089844-15.082032-6.25-8.339844-8.339844-8.339844-21.824219 0-30.164063l40.105469-40.105468c8.34375-8.34375 21.824219-8.34375 30.167969 0 8.339844 8.339843 8.339844 21.824218 0 30.164062l-40.109375 40.105469c-4.160157 4.160156-9.621094 6.25-15.082031 6.25zm0 0"/><path d="m149.339844 341.511719c-5.460938 0-10.925782-2.089844-15.082032-6.25-8.34375-8.34375-8.34375-21.824219 0-30.167969l40.105469-40.105469c8.339844-8.339843 21.824219-8.339843 30.164063 0 8.34375 8.339844 8.34375 21.824219 0 30.164063l-40.105469 40.109375c-4.160156 4.160156-9.621094 6.25-15.082031 6.25zm0 0"/></g><path d="m448.003906 469.511719c-5.460937 0-10.921875-2.089844-15.082031-6.25l-426.664063-426.667969c-8.34375-8.339844-8.34375-21.824219 0-30.164062 8.339844-8.34375 21.820313-8.34375 30.164063 0l426.667969 426.664062c8.339844 8.34375 8.339844 21.824219 0 30.167969-4.160156 4.160156-9.625 6.25-15.085938 6.25zm0 0" fill="#f44336"/></svg>