<svg height="512pt" viewBox="0 0 512.00533 512" width="512pt" xmlns="http://www.w3.org/2000/svg"><path d="m256 314.667969c0-32.359375 26.304688-58.664063 58.667969-58.664063h112v-197.335937c0-32.359375-26.304688-58.66406275-58.667969-58.66406275h-309.332031c-32.363281 0-58.667969 26.30468775-58.667969 58.66406275v309.335937c0 32.363282 26.304688 58.664063 58.667969 58.664063h197.332031zm0 0" fill="#607d8b"/><path d="m505.75 475.585938-106.027344-106.027344 43.585938-43.582032c4.585937-4.566406 5.929687-11.457031 3.476562-17.429687-2.476562-5.972656-8.300781-9.878906-14.785156-9.878906h-117.332031c-8.832031 0-16 7.167969-16 16v117.335937c0 6.460938 3.902343 12.308594 9.875 14.78125 1.984375.8125 4.054687 1.21875 6.125 1.21875 4.160156 0 8.253906-1.621094 11.304687-4.695312l43.585938-43.582032 106.027344 106.027344c4.15625 4.15625 9.621093 6.25 15.082031 6.25 5.460937 0 10.921875-2.09375 15.082031-6.25 8.339844-8.34375 8.339844-21.824218 0-30.167968zm0 0" fill="#4caf50"/></svg>