<svg height="512pt" viewBox="0 -64 512 512" width="512pt" xmlns="http://www.w3.org/2000/svg"><path d="m508.734375 344.511719c-.019531 0-.019531 0 0 0l-181.351563-330.667969c-4.695312-8.53125-13.65625-13.84375-23.382812-13.84375-14.699219 0-26.667969 11.96875-26.667969 26.667969v330.664062c0 14.699219 11.96875 26.667969 26.667969 26.667969h181.332031c14.699219 0 26.667969-11.96875 26.667969-26.667969 0-4.457031-1.128906-8.894531-3.265625-12.820312zm0 0" fill="#1976d2"/><path d="m208 0c-9.726562 0-18.6875 5.3125-23.382812 13.84375l-181.332032 330.667969s0 0-.019531 0c-2.136719 3.925781-3.265625 8.363281-3.265625 12.820312 0 14.699219 11.96875 26.667969 26.667969 26.667969h181.332031c14.699219 0 26.667969-11.96875 26.667969-26.667969v-330.664062c0-14.699219-11.96875-26.667969-26.667969-26.667969zm0 0" fill="#2196f3"/></svg>