<svg height="426pt" viewBox="-21 0 426 426.66667" width="426pt" xmlns="http://www.w3.org/2000/svg"><path d="m363 426.667969h-128c-11.777344 0-21.332031-9.558594-21.332031-21.335938v-17.726562c0-25.449219 15.058593-48.46875 38.378906-58.667969 54.441406-23.785156 89.621094-77.546875 89.621094-136.9375 0-82.347656-66.988281-149.332031-149.335938-149.332031-82.34375 0-149.332031 66.984375-149.332031 149.332031 0 59.390625 35.179688 113.152344 89.621094 136.960938 23.316406 10.175781 38.378906 33.214843 38.378906 58.644531v17.726562c0 11.777344-9.558594 21.335938-21.332031 21.335938h-128c-11.777344 0-21.335938-9.558594-21.335938-21.335938v-42.664062c0-11.777344 9.558594-21.335938 21.335938-21.335938 11.773437 0 21.332031 9.558594 21.332031 21.335938v21.332031h85.011719c-1.191407-6.996094-5.824219-13.035156-12.476563-15.957031-69.976562-30.59375-115.203125-99.691407-115.203125-176.042969 0-105.855469 86.144531-192 192-192s192 86.144531 192 192c0 76.351562-45.226562 145.449219-115.199219 176.042969-6.65625 2.921875-11.285156 8.960937-12.480468 15.957031h85.015625v-21.332031c0-11.777344 9.554687-21.335938 21.332031-21.335938s21.332031 9.558594 21.332031 21.335938v42.664062c0 11.777344-9.554687 21.335938-21.332031 21.335938zm0 0" fill="#42a5f5"/></svg>