<svg height="447pt" viewBox="0 -1 447.97333 447" width="447pt" xmlns="http://www.w3.org/2000/svg"><path d="m426.640625 445.261719h-384c-11.796875 0-21.332031-9.558594-21.332031-21.335938 0-11.773437 9.535156-21.332031 21.332031-21.332031h384c11.796875 0 21.332031 9.558594 21.332031 21.332031 0 11.777344-9.535156 21.335938-21.332031 21.335938zm0 0" fill="#2196f3"/><path d="m376.078125 180.8125-175.636719-175.636719c-6.25-6.25-16.382812-6.25-22.632812 0l-161.023438 161c-22.378906 22.378907-22.378906 58.796875 0 81.175781l117.097656 117.097657c11.179688 11.179687 25.878907 16.789062 40.574219 16.789062 14.679688 0 29.398438-5.589843 40.578125-16.789062l161.023438-161.003907c3.007812-3.007812 4.695312-7.082031 4.695312-11.304687 0-4.226563-1.664062-8.320313-4.675781-11.328125zm0 0" fill="#607d8b"/><path d="m407.996094 239.117188c-5.910156-9.003907-20.800782-9.003907-26.710938 0-9.363281 14.226562-39.976562 62.546874-39.976562 87.039062 0 30.378906 23.914062 55.105469 53.332031 55.105469s53.332031-24.726563 53.332031-55.105469c0-24.492188-30.613281-72.8125-39.976562-87.039062zm0 0" fill="#2196f3"/></svg>