<svg height="512pt" viewBox="0 0 512 512" width="512pt" xmlns="http://www.w3.org/2000/svg"><path d="m202.667969 352c-11.796875 0-21.335938-9.558594-21.335938-21.332031v-32c0-35.285157 28.714844-64 64-64h224v-117.335938h-53.332031c-11.796875 0-21.332031-9.554687-21.332031-21.332031s9.535156-21.332031 21.332031-21.332031h53.332031c23.53125 0 42.667969 19.132812 42.667969 42.664062v117.335938c0 23.53125-19.136719 42.664062-42.667969 42.664062h-224c-11.773437 0-21.332031 9.578125-21.332031 21.335938v32c0 11.773437-9.535156 21.332031-21.332031 21.332031zm0 0" fill="#b0bec5"/><path d="m240 320h-74.667969c-20.585937 0-37.332031 16.746094-37.332031 37.332031v117.335938c0 20.585937 16.746094 37.332031 37.332031 37.332031h74.667969c20.585938 0 37.332031-16.746094 37.332031-37.332031v-117.335938c0-20.585937-16.746093-37.332031-37.332031-37.332031zm0 0" fill="#607d8b"/><path d="m368 0h-309.332031c-32.363281 0-58.667969 26.304688-58.667969 58.667969v74.664062c0 32.363281 26.304688 58.667969 58.667969 58.667969h309.332031c32.363281 0 58.667969-26.304688 58.667969-58.667969v-74.664062c0-32.363281-26.304688-58.667969-58.667969-58.667969zm0 0" fill="#4caf50"/></svg>