<svg height="426pt" viewBox="0 -42 426.66667 426" width="426pt" xmlns="http://www.w3.org/2000/svg"><g fill="#42a5f5"><path d="m373.332031.332031h-64c-29.417969 0-53.332031 23.9375-53.332031 53.335938v64c0 29.394531 23.914062 53.332031 53.332031 53.332031h64c3.648438 0 7.210938-.382812 10.667969-1.089844v43.757813c0 47.058593-38.273438 85.332031-85.332031 85.332031h-21.335938c-11.796875 0-21.332031 9.558594-21.332031 21.332031 0 11.777344 9.535156 21.335938 21.332031 21.335938h21.335938c70.589843 0 128-57.410157 128-128v-160c0-29.398438-23.914063-53.335938-53.335938-53.335938zm0 0"/><path d="m117.332031.332031h-64c-29.417969 0-53.332031 23.9375-53.332031 53.335938v64c0 29.394531 23.914062 53.332031 53.332031 53.332031h64c3.648438 0 7.210938-.382812 10.667969-1.089844v43.757813c0 47.058593-38.273438 85.332031-85.332031 85.332031h-21.335938c-11.796875 0-21.332031 9.558594-21.332031 21.332031 0 11.777344 9.535156 21.335938 21.332031 21.335938h21.335938c70.589843 0 128-57.410157 128-128v-160c0-29.398438-23.914063-53.335938-53.335938-53.335938zm0 0"/></g></svg>