<svg height="512pt" viewBox="0 0 512 512.00164" width="512pt" xmlns="http://www.w3.org/2000/svg"><path d="m502.125 1.21875c-5.953125-2.476562-12.886719-1.109375-17.429688 3.476562l-57.601562 57.601563c-47.507812-39.210937-108.414062-62.296875-171.09375-62.296875-141.160156 0-256 114.839844-256 256 0 141.164062 114.839844 256 256 256 68.332031 0 132.628906-26.644531 180.972656-75.027344 8.339844-8.339844 8.339844-21.84375 0-30.164062-8.34375-8.34375-21.824218-8.34375-30.167968 0-40.296876 40.320312-93.863282 62.527344-150.804688 62.527344-117.632812 0-213.332031-95.703126-213.332031-213.335938 0-117.628906 95.699219-213.332031 213.332031-213.332031 51.394531 0 101.335938 18.496093 140.78125 49.941406l-50.753906 50.753906c-4.585938 4.5625-5.929688 11.453125-3.476563 17.425781 2.472657 5.976563 8.296875 9.878907 14.785157 9.878907h138.664062c8.832031 0 16-7.167969 16-16v-138.667969c0-6.460938-3.902344-12.308594-9.875-14.78125zm0 0" fill="#607d8b"/></svg>