<svg height="512pt" viewBox="0 0 512 512" width="512pt" xmlns="http://www.w3.org/2000/svg"><path d="m453.332031 170.667969h-224c-32.363281 0-58.664062 26.300781-58.664062 58.664062v224c0 32.363281 26.300781 58.667969 58.664062 58.667969h224c32.363281 0 58.667969-26.304688 58.667969-58.667969v-224c0-32.363281-26.304688-58.664062-58.667969-58.664062zm0 0" fill="#4caf50"/><path d="m138.667969 229.332031c0-49.984375 40.660156-90.664062 90.664062-90.664062h146.945313c-22.910156-80.621094-96.320313-138.667969-184.277344-138.667969-105.878906 0-192 86.144531-192 192 0 87.9375 58.046875 161.34375 138.667969 184.257812zm0 0" fill="#2196f3"/></svg>