<svg height="426pt" viewBox="-21 0 426 426.66667" width="426pt" xmlns="http://www.w3.org/2000/svg"><path d="m169.664062 329.601562c-2.539062-5.824218-8.296874-9.601562-14.65625-9.601562h-48v-298.667969c0-11.773437-9.535156-21.332031-21.332031-21.332031s-21.332031 9.558594-21.332031 21.332031v298.667969h-48c-6.359375 0-12.117188 3.777344-14.679688 9.601562-2.539062 5.824219-1.386718 12.628907 2.945313 17.277344l69.332031 74.667969c3.050782 3.265625 7.273438 5.121094 11.734375 5.121094 4.457031 0 8.683594-1.855469 11.734375-5.121094l69.332032-74.667969c4.332031-4.648437 5.484374-11.433594 2.921874-17.277344zm0 0" fill="#4caf50"/><g fill="#607d8b"><path d="m331.007812 170.667969c-8.832031 0-16-7.167969-16-16v-122.667969h-21.332031c-8.832031 0-16-7.167969-16-16s7.167969-16 16-16h37.332031c8.832032 0 16 7.167969 16 16v138.667969c0 8.832031-7.167968 16-16 16zm0 0"/><path d="m347.007812 426.667969h-53.332031c-8.832031 0-16-7.167969-16-16s7.167969-16 16-16h53.332031c2.945313 0 5.335938-2.390625 5.335938-5.335938v-26.664062h-37.335938c-20.585937 0-37.332031-16.746094-37.332031-37.335938v-32c0-20.585937 16.746094-37.332031 37.332031-37.332031h32c20.585938 0 37.335938 16.746094 37.335938 37.332031v96c0 20.589844-16.75 37.335938-37.335938 37.335938zm-32-138.667969c-2.941406 0-5.332031 2.390625-5.332031 5.332031v32c0 2.945313 2.390625 5.335938 5.332031 5.335938h37.335938v-37.335938c0-2.941406-2.390625-5.332031-5.335938-5.332031zm0 0"/><path d="m368.34375 170.667969h-74.667969c-8.832031 0-16-7.167969-16-16s7.167969-16 16-16h74.667969c8.832031 0 16 7.167969 16 16s-7.167969 16-16 16zm0 0"/></g></svg>