<svg height="512pt" viewBox="0 -43 512 512" width="512pt" xmlns="http://www.w3.org/2000/svg"><g fill="#42a5f5"><path d="m74.667969 85.332031h-64c-5.890625 0-10.667969-4.777343-10.667969-10.664062v-64c0-5.890625 4.777344-10.667969 10.667969-10.667969h64c5.886719 0 10.664062 4.777344 10.664062 10.667969v64c0 5.886719-4.777343 10.664062-10.664062 10.664062zm0 0"/><path d="m74.667969 256h-64c-5.890625 0-10.667969-4.777344-10.667969-10.667969v-64c0-5.886719 4.777344-10.664062 10.667969-10.664062h64c5.886719 0 10.664062 4.777343 10.664062 10.664062v64c0 5.890625-4.777343 10.667969-10.664062 10.667969zm0 0"/><path d="m74.667969 426.667969h-64c-5.890625 0-10.667969-4.78125-10.667969-10.667969v-64c0-5.886719 4.777344-10.667969 10.667969-10.667969h64c5.886719 0 10.664062 4.78125 10.664062 10.667969v64c0 5.886719-4.777343 10.667969-10.664062 10.667969zm0 0"/></g><path d="m490.667969 64h-320c-11.796875 0-21.335938-9.558594-21.335938-21.332031 0-11.777344 9.539063-21.335938 21.335938-21.335938h320c11.796875 0 21.332031 9.558594 21.332031 21.335938 0 11.773437-9.535156 21.332031-21.332031 21.332031zm0 0" fill="#607d8b"/><path d="m490.667969 234.667969h-320c-11.796875 0-21.335938-9.558594-21.335938-21.335938 0-11.773437 9.539063-21.332031 21.335938-21.332031h320c11.796875 0 21.332031 9.558594 21.332031 21.332031 0 11.777344-9.535156 21.335938-21.332031 21.335938zm0 0" fill="#607d8b"/><path d="m490.667969 405.332031h-320c-11.796875 0-21.335938-9.554687-21.335938-21.332031s9.539063-21.332031 21.335938-21.332031h320c11.796875 0 21.332031 9.554687 21.332031 21.332031s-9.535156 21.332031-21.332031 21.332031zm0 0" fill="#607d8b"/></svg>