<svg height="469pt" viewBox="0 -21 469.33683 469" width="469pt" xmlns="http://www.w3.org/2000/svg"><path d="m448.003906 192.167969h-85.332031c-11.800781 0-21.335937-9.558594-21.335937-21.332031v-26.667969c0-38.230469 31.105468-69.332031 69.335937-69.332031 8.808594 0 16-7.167969 16-16 0-8.832032-7.191406-16-16-16h-48c-11.800781 0-21.335937-9.558594-21.335937-21.335938 0-11.773438 9.535156-21.332031 21.335937-21.332031h48c32.359375 0 58.664063 26.304687 58.664063 58.667969 0 32.363281-26.304688 58.664062-58.664063 58.664062-14.699219 0-26.667969 11.96875-26.667969 26.667969v5.332031h64c11.796875 0 21.332032 9.558594 21.332032 21.335938 0 11.773437-9.535157 21.332031-21.332032 21.332031zm0 0" fill="#f44336"/><g fill="#607d8b"><path d="m256.023438 426.835938c-6.335938 0-12.585938-2.796876-16.789063-8.148438l-234.664063-298.667969c-7.296874-9.257812-5.675781-22.679687 3.582032-29.953125 9.300781-7.316406 22.679687-5.675781 29.953125 3.585938l234.667969 298.664062c7.292968 9.261719 5.671874 22.679688-3.585938 29.953125-3.902344 3.070313-8.554688 4.566407-13.164062 4.566407zm0 0"/><path d="m21.316406 426.835938c-4.609375 0-9.257812-1.496094-13.164062-4.566407-9.257813-7.273437-10.878906-20.691406-3.582032-29.953125l234.664063-298.664062c7.277344-9.238282 20.652344-10.902344 29.953125-3.585938 9.257812 7.273438 10.878906 20.695313 3.585938 29.953125l-234.667969 298.667969c-4.203125 5.351562-10.453125 8.148438-16.789063 8.148438zm0 0"/></g></svg>