<svg height="512pt" viewBox="0 -107 512 512" width="512pt" xmlns="http://www.w3.org/2000/svg"><g fill="#607d8b"><path d="m362.667969 298.667969h-48c-11.777344 0-21.335938-9.558594-21.335938-21.335938 0-11.773437 9.558594-21.332031 21.335938-21.332031h48c58.816406 0 106.664062-47.851562 106.664062-106.667969 0-58.816406-47.847656-106.664062-106.664062-106.664062h-48c-11.777344 0-21.335938-9.558594-21.335938-21.335938 0-11.773437 9.558594-21.332031 21.335938-21.332031h48c82.34375 0 149.332031 66.988281 149.332031 149.332031 0 82.347657-66.988281 149.335938-149.332031 149.335938zm0 0"/><path d="m197.332031 298.667969h-48c-82.34375 0-149.332031-66.988281-149.332031-149.335938 0-82.34375 66.988281-149.332031 149.332031-149.332031h48c11.777344 0 21.335938 9.558594 21.335938 21.332031 0 11.777344-9.558594 21.335938-21.335938 21.335938h-48c-58.816406 0-106.664062 47.847656-106.664062 106.664062 0 58.816407 47.847656 106.667969 106.664062 106.667969h48c11.777344 0 21.335938 9.558594 21.335938 21.332031 0 11.777344-9.558594 21.335938-21.335938 21.335938zm0 0"/><path d="m320 170.667969h-128c-11.777344 0-21.332031-9.558594-21.332031-21.335938 0-11.773437 9.554687-21.332031 21.332031-21.332031h128c11.777344 0 21.332031 9.558594 21.332031 21.332031 0 11.777344-9.554687 21.335938-21.332031 21.335938zm0 0"/></g></svg>