<svg height="512pt" viewBox="0 -21 512 512" width="512pt" xmlns="http://www.w3.org/2000/svg"><g fill="#607d8b"><path d="m383.980469 382.191406c-10.199219 0-19.203125-7.316406-20.992188-17.707031-2.007812-11.605469 5.78125-22.65625 17.386719-24.660156 6.335938-1.089844 12.5625-2.773438 18.535156-5.011719 14.890625-5.207031 28.226563-13.675781 39.042969-24.640625 20.285156-20.140625 31.378906-46.890625 31.378906-75.5 0-58.816406-47.847656-106.667969-106.664062-106.667969h-48c-11.777344 0-21.335938-9.554687-21.335938-21.332031s9.558594-21.332031 21.335938-21.332031h48c82.34375 0 149.332031 66.984375 149.332031 149.332031 0 40.0625-15.574219 77.589844-43.863281 105.621094-15.1875 15.402343-34.175781 27.457031-54.695313 34.625-8 3.027343-16.855468 5.417969-25.792968 6.953125-1.238282.214844-2.476563.320312-3.667969.320312zm0 0"/><path d="m129.492188 129.519531c-10.324219 0-19.414063-7.53125-21.054688-18.070312-1.792969-11.625 6.1875-22.527344 17.8125-24.339844 7.59375-1.171875 15.359375-1.769531 23.082031-1.769531h48c11.777344 0 21.335938 9.554687 21.335938 21.332031s-9.558594 21.332031-21.335938 21.332031h-48c-5.546875 0-11.113281.429688-16.53125 1.28125-1.109375.148438-2.199219.234375-3.308593.234375zm0 0"/><path d="m197.332031 384.003906h-48c-82.34375 0-149.332031-66.984375-149.332031-149.332031 0-36.800781 13.503906-72.171875 38.039062-99.5625 7.847657-8.769531 21.332032-9.515625 30.121094-1.664063 8.789063 7.851563 9.515625 21.332032 1.664063 30.121094-17.515625 19.5625-27.15625 44.824219-27.15625 71.105469 0 58.816406 47.847656 106.667969 106.664062 106.667969h48c11.777344 0 21.335938 9.554687 21.335938 21.332031s-9.558594 21.332031-21.335938 21.332031zm0 0"/><path d="m320 256.003906h-62.292969c-11.777343 0-21.332031-9.554687-21.332031-21.332031s9.554688-21.332031 21.332031-21.332031h62.292969c11.777344 0 21.332031 9.554687 21.332031 21.332031s-9.554687 21.332031-21.332031 21.332031zm0 0"/></g><path d="m469.332031 469.339844c-5.460937 0-10.921875-2.09375-15.082031-6.25l-426.664062-426.667969c-8.34375-8.34375-8.34375-21.824219 0-30.164063 8.339843-8.34375 21.820312-8.34375 30.164062 0l426.664062 426.664063c8.34375 8.34375 8.34375 21.824219 0 30.167969-4.15625 4.15625-9.621093 6.25-15.082031 6.25zm0 0" fill="#f44336"/></svg>