<svg height="512pt" viewBox="0 -21 512 512" width="512pt" xmlns="http://www.w3.org/2000/svg"><path d="m405.332031 256h-149.332031c-11.777344 0-21.332031-9.558594-21.332031-21.332031 0-11.777344 9.554687-21.335938 21.332031-21.335938h149.332031c11.777344 0 21.335938 9.558594 21.335938 21.335938 0 11.773437-9.558594 21.332031-21.335938 21.332031zm0 0"/><path d="m490.667969 149.332031h-234.667969c-11.777344 0-21.332031-9.554687-21.332031-21.332031s9.554687-21.332031 21.332031-21.332031h234.667969c11.773437 0 21.332031 9.554687 21.332031 21.332031s-9.558594 21.332031-21.332031 21.332031zm0 0"/><path d="m405.332031 42.667969h-149.332031c-11.777344 0-21.332031-9.558594-21.332031-21.335938 0-11.773437 9.554687-21.332031 21.332031-21.332031h149.332031c11.777344 0 21.335938 9.558594 21.335938 21.332031 0 11.777344-9.558594 21.335938-21.335938 21.335938zm0 0"/><path d="m474.667969 320h-202.667969c-20.585938 0-37.332031 16.746094-37.332031 37.332031v53.335938c0 20.585937 16.746093 37.332031 37.332031 37.332031h202.667969c20.585937 0 37.332031-16.746094 37.332031-37.332031v-53.335938c0-20.585937-16.746094-37.332031-37.332031-37.332031zm0 0"/><path d="m186.902344 372.265625-74.667969-69.332031c-4.671875-4.332032-11.457031-5.441406-17.300781-2.945313-5.824219 2.5625-9.601563 8.320313-9.601563 14.679688v48h-64c-11.796875 0-21.332031 9.554687-21.332031 21.332031s9.535156 21.332031 21.332031 21.332031h64v48c0 6.359375 3.777344 12.117188 9.601563 14.679688 2.070312.875 4.222656 1.320312 6.398437 1.320312 3.96875 0 7.875-1.46875 10.902344-4.265625l74.667969-69.332031c3.242187-3.03125 5.097656-7.296875 5.097656-11.734375s-1.855469-8.703125-5.097656-11.734375zm0 0"/></svg>