<svg height="512pt" viewBox="0 0 512 512" width="512pt" xmlns="http://www.w3.org/2000/svg"><path d="m453.332031 0h-394.664062c-32.363281 0-58.667969 26.304688-58.667969 58.667969v96c0 32.363281 26.304688 58.664062 58.667969 58.664062h394.664062c32.363281 0 58.667969-26.300781 58.667969-58.664062v-96c0-32.363281-26.304688-58.667969-58.667969-58.667969zm0 0"/><path d="m325.332031 405.332031h-48v-106.664062c0-11.796875-9.554687-21.335938-21.332031-21.335938s-21.332031 9.539063-21.332031 21.335938v106.664062h-48c-6.359375 0-12.117188 3.777344-14.679688 9.601563-.875 2.070312-1.320312 4.222656-1.320312 6.398437 0 3.96875 1.46875 7.875 4.265625 10.902344l69.332031 74.667969c3.050781 3.242187 7.296875 5.097656 11.734375 5.097656s8.703125-1.855469 11.734375-5.097656l69.332031-74.667969c4.332032-4.671875 5.441406-11.457031 2.945313-17.300781-2.539063-5.824219-8.300781-9.601563-14.679688-9.601563zm0 0"/></svg>