<svg height="512pt" viewBox="0 -43 512 512" width="512pt" xmlns="http://www.w3.org/2000/svg"><path d="m106.667969 165.332031v96c0 32.363281 26.300781 58.667969 58.664062 58.667969h181.335938c32.363281 0 58.664062-26.304688 58.664062-58.667969v-96c0-32.363281-26.300781-58.664062-58.664062-58.664062h-181.335938c-32.363281 0-58.664062 26.300781-58.664062 58.664062zm0 0"/><path d="m21.332031 170.667969c11.796875 0 21.335938-9.539063 21.335938-21.335938v-85.332031c0-11.777344 9.554687-21.332031 21.332031-21.332031h85.332031c11.796875 0 21.335938-9.539063 21.335938-21.335938s-9.539063-21.332031-21.335938-21.332031h-85.332031c-35.285156 0-64 28.714844-64 64v85.332031c0 11.796875 9.535156 21.335938 21.332031 21.335938zm0 0"/><path d="m490.667969 256c-11.796875 0-21.335938 9.535156-21.335938 21.332031v85.335938c0 11.773437-9.554687 21.332031-21.332031 21.332031h-85.332031c-11.796875 0-21.335938 9.535156-21.335938 21.332031s9.539063 21.335938 21.335938 21.335938h85.332031c35.285156 0 64-28.714844 64-64v-85.335938c0-11.796875-9.535156-21.332031-21.332031-21.332031zm0 0"/><path d="m149.332031 384h-85.332031c-11.777344 0-21.332031-9.558594-21.332031-21.332031v-85.335938c0-11.796875-9.539063-21.332031-21.335938-21.332031s-21.332031 9.535156-21.332031 21.332031v85.335938c0 35.285156 28.714844 64 64 64h85.332031c11.796875 0 21.335938-9.539063 21.335938-21.335938s-9.539063-21.332031-21.335938-21.332031zm0 0"/><path d="m448 0h-85.332031c-11.796875 0-21.335938 9.535156-21.335938 21.332031s9.539063 21.335938 21.335938 21.335938h85.332031c11.777344 0 21.332031 9.554687 21.332031 21.332031v85.332031c0 11.796875 9.539063 21.335938 21.335938 21.335938s21.332031-9.539063 21.332031-21.335938v-85.332031c0-35.285156-28.714844-64-64-64zm0 0"/></svg>