<svg height="512pt" viewBox="0 -21 512 512" width="512pt" xmlns="http://www.w3.org/2000/svg"><path d="m405.332031 42.667969h-149.332031c-11.796875 0-21.332031-9.558594-21.332031-21.335938 0-11.773437 9.535156-21.332031 21.332031-21.332031h149.332031c11.796875 0 21.335938 9.558594 21.335938 21.332031 0 11.777344-9.539063 21.335938-21.335938 21.335938zm0 0"/><path d="m490.667969 149.332031h-234.667969c-11.796875 0-21.332031-9.554687-21.332031-21.332031s9.535156-21.332031 21.332031-21.332031h234.667969c11.796875 0 21.332031 9.554687 21.332031 21.332031s-9.535156 21.332031-21.332031 21.332031zm0 0"/><path d="m405.332031 256h-149.332031c-11.796875 0-21.332031-9.558594-21.332031-21.332031 0-11.777344 9.535156-21.335938 21.332031-21.335938h149.332031c11.796875 0 21.335938 9.558594 21.335938 21.335938 0 11.773437-9.539063 21.332031-21.335938 21.332031zm0 0"/><path d="m490.667969 362.667969h-234.667969c-11.796875 0-21.332031-9.558594-21.332031-21.335938 0-11.773437 9.535156-21.332031 21.332031-21.332031h234.667969c11.796875 0 21.332031 9.558594 21.332031 21.332031 0 11.777344-9.535156 21.335938-21.332031 21.335938zm0 0"/><path d="m405.332031 469.332031h-149.332031c-11.796875 0-21.332031-9.554687-21.332031-21.332031s9.535156-21.332031 21.332031-21.332031h149.332031c11.796875 0 21.335938 9.554687 21.335938 21.332031s-9.539063 21.332031-21.335938 21.332031zm0 0"/><path d="m186.902344 222.933594-74.667969-69.332032c-4.671875-4.332031-11.457031-5.441406-17.300781-2.945312-5.824219 2.558594-9.601563 8.320312-9.601563 14.675781v48h-64c-11.796875 0-21.332031 9.558594-21.332031 21.335938 0 11.773437 9.535156 21.332031 21.332031 21.332031h64v48c0 6.355469 3.777344 12.117188 9.601563 14.675781 2.070312.875 4.222656 1.324219 6.398437 1.324219 3.96875 0 7.875-1.472656 10.902344-4.265625l74.667969-69.335937c3.242187-3.027344 5.097656-7.292969 5.097656-11.730469s-1.855469-8.707031-5.097656-11.734375zm0 0"/></svg>