<svg height="469.33333pt" viewBox="0 0 469.33333 469.33333" width="469.33333pt" xmlns="http://www.w3.org/2000/svg"><path d="m448 42.667969h-426.667969c-11.796875 0-21.332031-9.558594-21.332031-21.335938 0-11.773437 9.535156-21.332031 21.332031-21.332031h426.667969c11.796875 0 21.332031 9.558594 21.332031 21.332031 0 11.777344-9.535156 21.335938-21.332031 21.335938zm0 0"/><path d="m448 149.332031h-426.667969c-11.796875 0-21.332031-9.554687-21.332031-21.332031s9.535156-21.332031 21.332031-21.332031h426.667969c11.796875 0 21.332031 9.554687 21.332031 21.332031s-9.535156 21.332031-21.332031 21.332031zm0 0"/><path d="m448 256h-426.667969c-11.796875 0-21.332031-9.558594-21.332031-21.332031 0-11.777344 9.535156-21.335938 21.332031-21.335938h426.667969c11.796875 0 21.332031 9.558594 21.332031 21.335938 0 11.773437-9.535156 21.332031-21.332031 21.332031zm0 0"/><path d="m448 362.667969h-426.667969c-11.796875 0-21.332031-9.558594-21.332031-21.335938 0-11.773437 9.535156-21.332031 21.332031-21.332031h426.667969c11.796875 0 21.332031 9.558594 21.332031 21.332031 0 11.777344-9.535156 21.335938-21.332031 21.335938zm0 0"/><path d="m448 469.332031h-277.332031c-11.796875 0-21.335938-9.554687-21.335938-21.332031s9.539063-21.332031 21.335938-21.332031h277.332031c11.796875 0 21.332031 9.554687 21.332031 21.332031s-9.535156 21.332031-21.332031 21.332031zm0 0"/></svg>