<svg height="469.33333pt" viewBox="0 0 469.33333 469.33333" width="469.33333pt" xmlns="http://www.w3.org/2000/svg"><path d="m448 192h-106.667969c-35.285156 0-64-28.714844-64-64v-106.667969c0-11.773437 9.539063-21.332031 21.335938-21.332031s21.332031 9.558594 21.332031 21.332031v106.667969c0 11.753906 9.558594 21.332031 21.332031 21.332031h106.667969c11.796875 0 21.332031 9.558594 21.332031 21.335938 0 11.773437-9.535156 21.332031-21.332031 21.332031zm0 0"/><path d="m298.667969 469.332031c-11.796875 0-21.335938-9.554687-21.335938-21.332031v-106.667969c0-35.285156 28.714844-64 64-64h106.667969c11.796875 0 21.332031 9.558594 21.332031 21.335938 0 11.773437-9.535156 21.332031-21.332031 21.332031h-106.667969c-11.773437 0-21.332031 9.578125-21.332031 21.332031v106.667969c0 11.777344-9.535156 21.332031-21.332031 21.332031zm0 0"/><path d="m128 192h-106.667969c-11.796875 0-21.332031-9.558594-21.332031-21.332031 0-11.777344 9.535156-21.335938 21.332031-21.335938h106.667969c11.777344 0 21.332031-9.578125 21.332031-21.332031v-106.667969c0-11.773437 9.539063-21.332031 21.335938-21.332031s21.332031 9.558594 21.332031 21.332031v106.667969c0 35.285156-28.714844 64-64 64zm0 0"/><path d="m170.667969 469.332031c-11.796875 0-21.335938-9.554687-21.335938-21.332031v-106.667969c0-11.753906-9.554687-21.332031-21.332031-21.332031h-106.667969c-11.796875 0-21.332031-9.558594-21.332031-21.332031 0-11.777344 9.535156-21.335938 21.332031-21.335938h106.667969c35.285156 0 64 28.714844 64 64v106.667969c0 11.777344-9.535156 21.332031-21.332031 21.332031zm0 0"/></svg>