<svg height="512pt" viewBox="0 -75 512 512" width="512pt" xmlns="http://www.w3.org/2000/svg"><path d="m192 42.667969h-170.667969c-11.773437 0-21.332031-9.558594-21.332031-21.335938 0-11.773437 9.558594-21.332031 21.332031-21.332031h170.667969c11.777344 0 21.332031 9.558594 21.332031 21.332031 0 11.777344-9.554687 21.335938-21.332031 21.335938zm0 0"/><path d="m192 298.667969h-170.667969c-11.773437 0-21.332031-9.558594-21.332031-21.335938 0-11.773437 9.558594-21.332031 21.332031-21.332031h170.667969c11.777344 0 21.332031 9.558594 21.332031 21.332031 0 11.777344-9.554687 21.335938-21.332031 21.335938zm0 0"/><path d="m192 170.667969h-170.667969c-11.773437 0-21.332031-9.558594-21.332031-21.335938 0-11.773437 9.558594-21.332031 21.332031-21.332031h170.667969c11.777344 0 21.332031 9.558594 21.332031 21.332031 0 11.777344-9.554687 21.335938-21.332031 21.335938zm0 0"/><path d="m362.667969 0h-85.335938c-11.773437 0-21.332031 9.558594-21.332031 21.332031 0 11.777344 9.558594 21.335938 21.332031 21.335938h85.335938c58.816406 0 106.664062 47.847656 106.664062 106.664062 0 58.816407-47.847656 106.667969-106.664062 106.667969v-48c0-6.355469-3.777344-12.117188-9.601563-14.675781-5.824218-2.519531-12.628906-1.386719-17.300781 2.941406l-74.667969 69.335937c-3.242187 3.027344-5.097656 7.273438-5.097656 11.730469 0 4.460938 1.855469 8.707031 5.097656 11.734375l74.667969 69.332032c3.027344 2.796874 6.933594 4.269531 10.902344 4.269531 2.175781 0 4.328125-.449219 6.398437-1.324219 5.824219-2.558594 9.601563-8.320312 9.601563-14.675781v-48c82.34375 0 149.332031-66.988281 149.332031-149.335938 0-82.34375-66.988281-149.332031-149.332031-149.332031zm0 0"/></svg>