<svg height="512pt" viewBox="0 0 512 512" width="512pt" xmlns="http://www.w3.org/2000/svg"><path d="m474.667969 112h-266.667969c-11.777344 0-21.332031-9.558594-21.332031-21.332031v-53.335938c0-11.773437 9.554687-21.332031 21.332031-21.332031h266.667969c11.773437 0 21.332031 9.558594 21.332031 21.332031v53.335938c0 11.773437-9.558594 21.332031-21.332031 21.332031zm0 0"/><path d="m474.667969 128h-266.667969c-20.585938 0-37.332031-16.746094-37.332031-37.332031v-53.335938c0-20.585937 16.746093-37.332031 37.332031-37.332031h266.667969c20.585937 0 37.332031 16.746094 37.332031 37.332031v53.335938c0 20.585937-16.746094 37.332031-37.332031 37.332031zm-266.667969-96c-2.945312 0-5.332031 2.390625-5.332031 5.332031v53.335938c0 2.941406 2.386719 5.332031 5.332031 5.332031h266.667969c2.941406 0 5.332031-2.390625 5.332031-5.332031v-53.335938c0-2.941406-2.390625-5.332031-5.332031-5.332031zm0 0"/><path d="m474.667969 304h-266.667969c-11.777344 0-21.332031-9.558594-21.332031-21.332031v-53.335938c0-11.773437 9.554687-21.332031 21.332031-21.332031h266.667969c11.773437 0 21.332031 9.558594 21.332031 21.332031v53.335938c0 11.773437-9.558594 21.332031-21.332031 21.332031zm0 0"/><path d="m474.667969 320h-266.667969c-20.585938 0-37.332031-16.746094-37.332031-37.332031v-53.335938c0-20.585937 16.746093-37.332031 37.332031-37.332031h266.667969c20.585937 0 37.332031 16.746094 37.332031 37.332031v53.335938c0 20.585937-16.746094 37.332031-37.332031 37.332031zm-266.667969-96c-2.945312 0-5.332031 2.390625-5.332031 5.332031v53.335938c0 2.941406 2.386719 5.332031 5.332031 5.332031h266.667969c2.941406 0 5.332031-2.390625 5.332031-5.332031v-53.335938c0-2.941406-2.390625-5.332031-5.332031-5.332031zm0 0"/><path d="m474.667969 496h-266.667969c-11.777344 0-21.332031-9.558594-21.332031-21.332031v-53.335938c0-11.773437 9.554687-21.332031 21.332031-21.332031h266.667969c11.773437 0 21.332031 9.558594 21.332031 21.332031v53.335938c0 11.773437-9.558594 21.332031-21.332031 21.332031zm0 0"/><path d="m474.667969 512h-266.667969c-20.585938 0-37.332031-16.746094-37.332031-37.332031v-53.335938c0-20.585937 16.746093-37.332031 37.332031-37.332031h266.667969c20.585937 0 37.332031 16.746094 37.332031 37.332031v53.335938c0 20.585937-16.746094 37.332031-37.332031 37.332031zm-266.667969-96c-2.945312 0-5.332031 2.390625-5.332031 5.332031v53.335938c0 2.941406 2.386719 5.332031 5.332031 5.332031h266.667969c2.941406 0 5.332031-2.390625 5.332031-5.332031v-53.335938c0-2.941406-2.390625-5.332031-5.332031-5.332031zm0 0"/><path d="m97.066406 340.011719c-5.824218 2.515625-12.628906 1.386719-17.300781-2.945313l-74.667969-69.332031c-3.242187-3.03125-5.097656-7.277344-5.097656-11.734375s1.855469-8.703125 5.097656-11.734375l74.667969-69.332031c3.027344-2.796875 6.933594-4.265625 10.902344-4.265625 2.175781 0 4.328125.445312 6.398437 1.320312 5.824219 2.5625 9.601563 8.320313 9.601563 14.679688v138.664062c0 6.378907-3.777344 12.140625-9.601563 14.679688zm0 0"/></svg>