<svg height="512pt" viewBox="-10 0 511 512" width="512pt" xmlns="http://www.w3.org/2000/svg"><path d="m469.855469 490.667969h-213.335938c-11.796875 0-21.332031-9.558594-21.332031-21.335938 0-11.773437 9.535156-21.332031 21.332031-21.332031h213.335938c11.796875 0 21.332031 9.558594 21.332031 21.332031 0 11.777344-9.535156 21.335938-21.332031 21.335938zm0 0"/><path d="m469.855469 277.332031h-213.335938c-11.796875 0-21.332031-9.554687-21.332031-21.332031s9.535156-21.332031 21.332031-21.332031h213.335938c11.796875 0 21.332031 9.554687 21.332031 21.332031s-9.535156 21.332031-21.332031 21.332031zm0 0"/><path d="m469.855469 64h-213.335938c-11.796875 0-21.332031-9.558594-21.332031-21.332031 0-11.777344 9.535156-21.335938 21.332031-21.335938h213.335938c11.796875 0 21.332031 9.558594 21.332031 21.335938 0 11.773437-9.535156 21.332031-21.332031 21.332031zm0 0"/><path d="m155.164062 405.332031h-47.976562v-298.664062h47.976562c6.359376 0 12.117188-3.777344 14.679688-9.601563.894531-2.070312 1.320312-4.222656 1.320312-6.398437 0-3.96875-1.46875-7.875-4.265624-10.902344l-69.332032-74.667969c-3.03125-3.242187-7.273437-5.097656-11.734375-5.097656-4.457031 0-8.683593 1.855469-11.710937 5.097656l-69.332032 74.667969c-4.332031 4.671875-5.464843 11.457031-2.945312 17.300781 2.539062 5.824219 8.296875 9.601563 14.65625 9.601563h48.019531v298.664062h-48.019531c-6.359375 0-12.117188 3.777344-14.679688 9.601563-2.515624 5.824218-1.386718 12.628906 2.945313 17.300781l69.332031 74.667969c3.050782 3.242187 7.296875 5.097656 11.734375 5.097656s8.703125-1.855469 11.734375-5.097656l69.332032-74.667969c2.796874-3.027344 4.265624-6.933594 4.265624-10.902344 0-2.175781-.445312-4.328125-1.320312-6.398437-2.539062-5.824219-8.300781-9.601563-14.679688-9.601563zm0 0"/></svg>