<svg height="469.33333pt" viewBox="0 0 469.33333 469.33333" width="469.33333pt" xmlns="http://www.w3.org/2000/svg"><path d="m448 42.667969h-21.332031c-11.777344 0-21.335938-9.539063-21.335938-21.335938s9.558594-21.332031 21.335938-21.332031h21.332031c11.777344 0 21.332031 9.535156 21.332031 21.332031s-9.554687 21.335938-21.332031 21.335938zm0 0"/><path d="m448 128h-21.332031c-11.777344 0-21.335938-9.535156-21.335938-21.332031s9.558594-21.335938 21.335938-21.335938h21.332031c11.777344 0 21.332031 9.539063 21.332031 21.335938s-9.554687 21.332031-21.332031 21.332031zm0 0"/><path d="m448 213.332031h-21.332031c-11.777344 0-21.335938-9.535156-21.335938-21.332031s9.558594-21.332031 21.335938-21.332031h21.332031c11.777344 0 21.332031 9.535156 21.332031 21.332031s-9.554687 21.332031-21.332031 21.332031zm0 0"/><path d="m42.667969 128h-21.335938c-11.773437 0-21.332031-9.535156-21.332031-21.332031s9.558594-21.335938 21.332031-21.335938h21.335938c11.773437 0 21.332031 9.539063 21.332031 21.335938s-9.558594 21.332031-21.332031 21.332031zm0 0"/><path d="m42.667969 42.667969h-21.335938c-11.773437 0-21.332031-9.539063-21.332031-21.335938s9.558594-21.332031 21.332031-21.332031h21.335938c11.773437 0 21.332031 9.535156 21.332031 21.332031s-9.558594 21.335938-21.332031 21.335938zm0 0"/><path d="m42.667969 213.332031h-21.335938c-11.773437 0-21.332031-9.535156-21.332031-21.332031s9.558594-21.332031 21.332031-21.332031h21.335938c11.773437 0 21.332031 9.535156 21.332031 21.332031s-9.558594 21.332031-21.332031 21.332031zm0 0"/><path d="m448 298.667969h-426.667969c-11.773437 0-21.332031-9.539063-21.332031-21.335938s9.558594-21.332031 21.332031-21.332031h426.667969c11.777344 0 21.332031 9.535156 21.332031 21.332031s-9.554687 21.335938-21.332031 21.335938zm0 0"/><path d="m448 384h-426.667969c-11.773437 0-21.332031-9.535156-21.332031-21.332031s9.558594-21.335938 21.332031-21.335938h426.667969c11.777344 0 21.332031 9.539063 21.332031 21.335938s-9.554687 21.332031-21.332031 21.332031zm0 0"/><path d="m448 469.332031h-426.667969c-11.773437 0-21.332031-9.535156-21.332031-21.332031s9.558594-21.332031 21.332031-21.332031h426.667969c11.777344 0 21.332031 9.535156 21.332031 21.332031s-9.554687 21.332031-21.332031 21.332031zm0 0"/><path d="m330.667969 0h-192c-17.644531 0-32 14.355469-32 32v149.332031c0 17.644531 14.355469 32 32 32h192c17.640625 0 32-14.355469 32-32v-149.332031c0-17.644531-14.359375-32-32-32zm-10.667969 42.667969v86.078125l-30.316406-27.261719c-8.574219-7.683594-21.738282-7.234375-29.695313 1.128906l-34.664062 36.308594-16.789063-15.785156c-8.535156-8.023438-21.976562-7.660157-30.058594.832031l-29.144531 30.570312v-111.871093zm0 0"/></svg>