<svg height="512pt" viewBox="0 -21 512 512" width="512pt" xmlns="http://www.w3.org/2000/svg"><path d="m213.332031 42.667969h-192c-11.796875 0-21.332031-9.539063-21.332031-21.335938s9.535156-21.332031 21.332031-21.332031h192c11.796875 0 21.335938 9.535156 21.335938 21.332031s-9.539063 21.335938-21.335938 21.335938zm0 0"/><path d="m213.332031 149.332031h-192c-11.796875 0-21.332031-9.535156-21.332031-21.332031s9.535156-21.332031 21.332031-21.332031h192c11.796875 0 21.335938 9.535156 21.335938 21.332031s-9.539063 21.332031-21.335938 21.332031zm0 0"/><path d="m213.332031 256h-192c-11.796875 0-21.332031-9.535156-21.332031-21.332031s9.535156-21.335938 21.332031-21.335938h192c11.796875 0 21.335938 9.539063 21.335938 21.335938s-9.539063 21.332031-21.335938 21.332031zm0 0"/><path d="m213.332031 362.667969h-192c-11.796875 0-21.332031-9.539063-21.332031-21.335938s9.535156-21.332031 21.332031-21.332031h192c11.796875 0 21.335938 9.535156 21.335938 21.332031s-9.539063 21.335938-21.335938 21.335938zm0 0"/><path d="m213.332031 469.332031h-192c-11.796875 0-21.332031-9.535156-21.332031-21.332031s9.535156-21.332031 21.332031-21.332031h192c11.796875 0 21.335938 9.535156 21.335938 21.332031s-9.539063 21.332031-21.335938 21.332031zm0 0"/><path d="m490.667969 42.667969h-192c-11.796875 0-21.335938-9.539063-21.335938-21.335938s9.539063-21.332031 21.335938-21.332031h192c11.796875 0 21.332031 9.535156 21.332031 21.332031s-9.535156 21.335938-21.332031 21.335938zm0 0"/><path d="m490.667969 149.332031h-192c-11.796875 0-21.335938-9.535156-21.335938-21.332031s9.539063-21.332031 21.335938-21.332031h192c11.796875 0 21.332031 9.535156 21.332031 21.332031s-9.535156 21.332031-21.332031 21.332031zm0 0"/><path d="m490.667969 256h-192c-11.796875 0-21.335938-9.535156-21.335938-21.332031s9.539063-21.335938 21.335938-21.335938h192c11.796875 0 21.332031 9.539063 21.332031 21.335938s-9.535156 21.332031-21.332031 21.332031zm0 0"/><path d="m490.667969 362.667969h-192c-11.796875 0-21.335938-9.539063-21.335938-21.335938s9.539063-21.332031 21.335938-21.332031h192c11.796875 0 21.332031 9.535156 21.332031 21.332031s-9.535156 21.335938-21.332031 21.335938zm0 0"/><path d="m490.667969 469.332031h-192c-11.796875 0-21.335938-9.535156-21.335938-21.332031s9.539063-21.332031 21.335938-21.332031h192c11.796875 0 21.332031 9.535156 21.332031 21.332031s-9.535156 21.332031-21.332031 21.332031zm0 0"/></svg>