<svg enable-background="new 0 0 24 24" height="512" viewBox="0 0 24 24" width="512" xmlns="http://www.w3.org/2000/svg"><path d="m12 0c-6.627 0-12 5.373-12 12s5.373 12 12 12 12-5.373 12-12-5.373-12-12-12z" fill="#ffc107"/><path d="m16.707 14.707-4 4c-.391.391-1.023.391-1.414 0l-4-4c-.286-.286-.372-.716-.217-1.09.155-.373.52-.617.924-.617h3v-7c0-.552.448-1 1-1s1 .448 1 1v7h3c.404 0 .769.244.924.617.155.374.069.804-.217 1.09z" fill="#fafafa"/><path d="m12 0c-6.627 0-12 5.373-12 12s5.373 12 12 12v-5c-.256 0-.512-.098-.707-.293l-4-4c-.286-.286-.372-.716-.217-1.09.155-.373.52-.617.924-.617h3v-7c0-.552.448-1 1-1z" fill="#dea806"/><path d="m12 5c-.552 0-1 .448-1 1v7h-3c-.404 0-.769.244-.924.617-.155.374-.069.804.217 1.09l4 4c.195.195.451.293.707.293z" fill="#dadada"/></svg>