<svg enable-background="new 0 0 24 24" height="512" viewBox="0 0 24 24" width="512" xmlns="http://www.w3.org/2000/svg"><path d="m21 0h-18c-1.657 0-3 1.343-3 3v18c0 1.657 1.343 3 3 3h18c1.657 0 3-1.343 3-3v-18c0-1.657-1.343-3-3-3z" fill="#2196f3"/><path d="m16.924 10.383c-.155.373-.52.617-.924.617h-3v7c0 .552-.448 1-1 1s-1-.448-1-1v-7h-3c-.404 0-.769-.244-.924-.617-.155-.374-.069-.804.217-1.09l4-4c.391-.391 1.023-.391 1.414 0l4 4c.286.286.372.716.217 1.09z" fill="#fafafa"/><path d="m12 0h-9c-1.657 0-3 1.343-3 3v18c0 1.657 1.343 3 3 3h9v-5c-.552 0-1-.448-1-1v-7h-3c-.404 0-.769-.244-.924-.617-.155-.374-.069-.804.217-1.09l4-4c.195-.195.451-.293.707-.293z" fill="#1d83d4"/><path d="m12 5c-.256 0-.512.098-.707.293l-4 4c-.286.286-.372.716-.217 1.09.155.373.52.617.924.617h3v7c0 .552.448 1 1 1z" fill="#dadada"/></svg>