<svg enable-background="new 0 0 24 24" height="512" viewBox="0 0 24 24" width="512" xmlns="http://www.w3.org/2000/svg"><path d="m12 5c-3.859 0-7 3.14-7 7s3.141 7 7 7 7-3.14 7-7-3.141-7-7-7z" fill="#ffc107"/><g fill="#ffb300"><path d="m12 3.5c.553 0 1-.448 1-1v-1.5c0-.552-.447-1-1-1s-1 .448-1 1v1.5c0 .552.447 1 1 1z"/><path d="m4.057 6.259-1.3-.75c-.479-.276-1.09-.112-1.366.366-.276.479-.112 1.09.366 1.366l1.3.75c.157.091.329.134.499.134.346 0 .682-.179.867-.5.276-.479.112-1.09-.366-1.366z"/><path d="m22.243 16.759-1.3-.75c-.478-.276-1.09-.112-1.366.366s-.112 1.09.366 1.366l1.3.75c.157.091.329.134.499.134.346 0 .682-.179.867-.5.277-.479.113-1.09-.366-1.366z"/><path d="m3.057 16.009-1.3.75c-.479.276-.643.888-.366 1.366.186.321.521.5.867.5.17 0 .342-.043.499-.134l1.3-.75c.479-.276.643-.888.366-1.366-.277-.479-.89-.642-1.366-.366z"/><path d="m20.444 8.125c.17 0 .342-.043.499-.134l1.3-.75c.479-.276.643-.888.366-1.366-.277-.479-.89-.643-1.366-.366l-1.3.75c-.479.276-.643.888-.366 1.366.186.321.522.5.867.5z"/><path d="m12 20.5c-.553 0-1 .448-1 1v1.5c0 .552.447 1 1 1s1-.448 1-1v-1.5c0-.552-.447-1-1-1z"/></g><path d="m12 5c-3.859 0-7 3.14-7 7s3.141 7 7 7z" fill="#dea806"/><g fill="#de9c00"><path d="m12 0c-.553 0-1 .448-1 1v1.5c0 .552.447 1 1 1z"/><path d="m2.258 5.375c-.346 0-.682.18-.867.5-.276.479-.112 1.09.366 1.366l1.3.75c.157.091.329.134.499.134.346 0 .682-.179.867-.5.276-.479.112-1.09-.366-1.366l-1.3-.75c-.158-.091-.33-.134-.499-.134z"/><path d="m3.555 15.875c-.17 0-.341.043-.498.134l-1.3.75c-.479.276-.643.888-.366 1.366.186.321.521.5.867.5.17 0 .342-.043.499-.134l1.3-.75c.479-.276.643-.888.366-1.366-.186-.321-.523-.5-.868-.5z"/><path d="m12 20.5c-.553 0-1 .448-1 1v1.5c0 .552.447 1 1 1z"/></g></svg>