<svg enable-background="new 0 0 24 24" height="512" viewBox="0 0 24 24" width="512" xmlns="http://www.w3.org/2000/svg"><path d="m12 0c-6.617 0-12 5.383-12 12s5.383 12 12 12 12-5.383 12-12-5.383-12-12-12z" fill="#2196f3"/><path d="m12 21c-4.962 0-9-4.038-9-9s4.038-9 9-9 9 4.038 9 9-4.038 9-9 9z" fill="#fff"/><path d="m12 6c-3.309 0-6 2.691-6 6s2.691 6 6 6 6-2.691 6-6-2.691-6-6-6z" fill="#2196f3"/><path d="m12 15c-1.654 0-3-1.346-3-3s1.346-3 3-3 3 1.346 3 3-1.346 3-3 3z" fill="#fff"/><path d="m12 0c-6.617 0-12 5.383-12 12s5.383 12 12 12v-3c-4.962 0-9-4.038-9-9s4.038-9 9-9z" fill="#1d83d4"/><path d="m12 3c-4.962 0-9 4.038-9 9s4.038 9 9 9v-3c-3.309 0-6-2.691-6-6s2.691-6 6-6z" fill="#dedede"/><path d="m12 6c-3.309 0-6 2.691-6 6s2.691 6 6 6v-3c-1.654 0-3-1.346-3-3s1.346-3 3-3z" fill="#1d83d4"/><path d="m12 9c-1.654 0-3 1.346-3 3s1.346 3 3 3z" fill="#dedede"/></svg>