<svg enable-background="new 0 0 24 24" height="512" viewBox="0 0 24 24" width="512" xmlns="http://www.w3.org/2000/svg"><path d="m9.707 19.121c-.187.188-.441.293-.707.293s-.52-.105-.707-.293l-5.646-5.646c-.586-.586-.586-1.535 0-2.121l.707-.707c.586-.586 1.535-.586 2.121 0l3.525 3.525 9.525-9.525c.586-.586 1.535-.586 2.121 0l.707.707c.586.586.586 1.535 0 2.121z" fill="#2196f3"/><path d="m4.414 10.207c-.384 0-.768.146-1.061.44l-.707.707c-.586.586-.586 1.535 0 2.121l5.646 5.646c.188.188.442.293.708.293s.52-.105.707-.293l2.293-2.293v-5.656l-3 3-3.525-3.525c-.293-.294-.677-.44-1.061-.44z" fill="#1d83d4"/></svg>