<svg enable-background="new 0 0 24 24" height="512" viewBox="0 0 24 24" width="512" xmlns="http://www.w3.org/2000/svg"><path d="m24 2.75c0-1.517-1.233-2.75-2.75-2.75h-18.5c-1.517 0-2.75 1.233-2.75 2.75v18.5c0 1.517 1.233 2.75 2.75 2.75h18.5c1.517 0 2.75-1.233 2.75-2.75z" fill="#4caf50"/><path d="m18.082 8.043c.391.391.391 1.023 0 1.414l-6.5 6.5c-.195.195-.451.293-.707.293s-.512-.098-.707-.293l-3.25-3.25c-.391-.391-.391-1.024 0-1.414.391-.391 1.023-.391 1.414 0l2.543 2.543 5.793-5.793c.391-.391 1.023-.391 1.414 0z" fill="#fafafa"/><path d="m12 0h-9.25c-1.517 0-2.75 1.233-2.75 2.75v18.5c0 1.517 1.233 2.75 2.75 2.75h9.25v-8.461l-.418.418c-.195.195-.451.293-.707.293s-.512-.098-.707-.293l-3.25-3.25c-.391-.391-.391-1.024 0-1.414.195-.195.451-.293.707-.293s.512.098.707.293l2.543 2.543 1.125-1.125z" fill="#429846"/><path d="m7.625 11c-.256 0-.512.098-.707.293-.391.391-.391 1.024 0 1.414l3.25 3.25c.195.195.451.293.707.293s.512-.098.707-.293l.418-.418v-2.828l-1.125 1.125-2.543-2.543c-.195-.195-.451-.293-.707-.293z" fill="#dadada"/></svg>