<svg enable-background="new 0 0 24 24" height="512" viewBox="0 0 24 24" width="512" xmlns="http://www.w3.org/2000/svg"><path d="m20.701 12.605-.537-1.526-5.793 5.793c-.566.566-1.32.879-2.121.879s-1.555-.312-2.121-.879l-4.25-4.25c-.566-.567-.879-1.321-.879-2.122s.312-1.555.879-2.121c.566-.567 1.32-.879 2.121-.879s1.555.312 2.121.879l2.129 2.129 5.704-5.704-.384-1.091-.177-1.057c-.111-.678-.558-1.239-1.193-1.503-.638-.266-1.35-.184-1.909.218l-2.779 2.012-2.81-2.017c-.564-.399-1.278-.477-1.912-.212-.63.264-1.073.826-1.184 1.499l-.545 3.387-3.406.566c-.677.111-1.239.558-1.503 1.193-.264.637-.182 1.351.219 1.91l2.011 2.779-2.017 2.81c-.398.564-.477 1.278-.211 1.912.265.63.825 1.073 1.499 1.184l3.387.545.566 3.406c.11.676.554 1.237 1.184 1.501.635.266 1.35.187 1.919-.216l2.779-2.012 2.803 2.013c.343.244.742.37 1.147.37.257 0 .515-.05.762-.153.636-.264 1.082-.825 1.193-1.501l.545-3.387 3.406-.565c.676-.111 1.236-.555 1.501-1.185.266-.634.186-1.349-.216-1.919z" fill="#ffc107"/><path d="m12.25 15.75c-.256 0-.512-.098-.707-.293l-4.25-4.25c-.391-.391-.391-1.023 0-1.414s1.024-.391 1.414 0l3.543 3.543 10.043-10.043c.391-.391 1.024-.391 1.414 0s.391 1.024 0 1.414l-10.75 10.75c-.195.195-.451.293-.707.293z" fill="#607d8b"/><path d="m7.558.999c-.259 0-.519.051-.768.155-.63.264-1.073.826-1.184 1.499l-.545 3.387-3.406.566c-.677.111-1.239.558-1.503 1.193-.095.228-.145.467-.152.704v.115c.011.386.137.765.371 1.091l2.011 2.779-2.017 2.81c-.23.326-.354.704-.365 1.087v.116c.007.24.058.48.154.709.265.63.825 1.073 1.499 1.184l3.387.545.566 3.406c.11.676.554 1.237 1.184 1.501.235.098.48.149.725.154h.081c.391-.008.777-.133 1.112-.37l2.779-2.012.513.367v-4.245c-.707-.058-1.364-.362-1.871-.869l-4.25-4.25c-.566-.566-.879-1.32-.879-2.121s.312-1.555.879-2.121c.566-.567 1.32-.879 2.121-.879s1.555.312 2.121.879l1.879 1.879v-7.229l-.488.353-2.81-2.017c-.343-.242-.742-.366-1.144-.366z" fill="#dea806"/><path d="m8 9.5c-.256 0-.512.098-.707.293-.391.391-.391 1.024 0 1.414l4.25 4.25c.131.131.29.218.457.261v-2.633l-3.293-3.292c-.195-.195-.451-.293-.707-.293z" fill="#546d79"/></svg>