<svg enable-background="new 0 0 24 24" height="512" viewBox="0 0 24 24" width="512" xmlns="http://www.w3.org/2000/svg"><path d="m14.371 16.871c-.566.566-1.32.879-2.121.879s-1.555-.312-2.121-.879l-4.25-4.25c-.566-.566-.879-1.32-.879-2.121s.312-1.555.879-2.121c.566-.567 1.32-.879 2.121-.879s1.555.312 2.121.879l2.129 2.129 6.709-6.709c-.096-.453-.478-.799-.959-.799h-15c-1.654 0-3 1.346-3 3v15c0 1.654 1.346 3 3 3h15c1.654 0 3-1.346 3-3v-10.758z" fill="#2196f3"/><path d="m12.25 15.75c-.256 0-.512-.098-.707-.293l-4.25-4.25c-.391-.391-.391-1.023 0-1.414s1.023-.391 1.414 0l3.543 3.543 10.043-10.043c.391-.391 1.024-.391 1.414 0s.391 1.024 0 1.414l-10.75 10.75c-.195.195-.451.293-.707.293z" fill="#607d8b"/><path d="m12 3h-9c-1.654 0-3 1.346-3 3v15c0 1.654 1.346 3 3 3h9v-6.26c-.707-.058-1.364-.362-1.871-.869l-4.25-4.25c-.566-.566-.879-1.32-.879-2.121s.312-1.555.879-2.121c.566-.567 1.32-.879 2.121-.879s1.555.312 2.121.879l1.879 1.879z" fill="#1d83d4"/><path d="m8 9.5c-.256 0-.512.098-.707.293-.391.391-.391 1.024 0 1.414l4.25 4.25c.131.131.29.218.457.261v-2.633l-3.293-3.292c-.195-.195-.451-.293-.707-.293z" fill="#546d79"/></svg>