<svg enable-background="new 0 0 24 24" height="512" viewBox="0 0 24 24" width="512" xmlns="http://www.w3.org/2000/svg"><path d="m10.5 11.75c0-1.792 1.458-3.25 3.25-3.25h3.25v-2.75c0-1.517-1.233-2.75-2.75-2.75h-11.5c-1.517 0-2.75 1.233-2.75 2.75v12.5c0 1.517 1.233 2.75 2.75 2.75h7.75z" fill="#2196f3"/><path d="m12.25 2h-1.104c-.327-1.153-1.39-2-2.646-2s-2.319.847-2.646 2h-1.104c-.414 0-.75.336-.75.75v2c0 .965.785 1.75 1.75 1.75h5.5c.965 0 1.75-.785 1.75-1.75v-2c0-.414-.336-.75-.75-.75z" fill="#1976d2"/><path d="m4 3h-1.25c-1.517 0-2.75 1.233-2.75 2.75v12.5c0 1.517 1.233 2.75 2.75 2.75h5.75v-14.5h-2.75c-.965 0-1.75-.785-1.75-1.75z" fill="#1d83d4"/><path d="m8.5 0c-1.256 0-2.319.847-2.646 2h-1.104c-.414 0-.75.336-.75.75v.25 1.75c0 .965.785 1.75 1.75 1.75h2.75z" fill="#1667b7"/><path d="m22.25 10h-8.5c-.966 0-1.75.784-1.75 1.75v10.5c0 .966.784 1.75 1.75 1.75h8.5c.966 0 1.75-.784 1.75-1.75v-10.5c0-.966-.784-1.75-1.75-1.75z" fill="#eceff1"/><path d="m20.125 19h-4.5c-.414 0-.75-.336-.75-.75s.336-.75.75-.75h4.5c.414 0 .75.336.75.75s-.336.75-.75.75z" fill="#90a4ae"/><path d="m20.125 16h-4.5c-.414 0-.75-.336-.75-.75s.336-.75.75-.75h4.5c.414 0 .75.336.75.75s-.336.75-.75.75z" fill="#90a4ae"/><path d="m18 10h-4.25c-.966 0-1.75.784-1.75 1.75v10.5c0 .966.784 1.75 1.75 1.75h4.25v-5h-2.375c-.414 0-.75-.336-.75-.75s.336-.75.75-.75h2.375v-1.5h-2.375c-.414 0-.75-.336-.75-.75s.336-.75.75-.75h2.375z" fill="#cdd0d2"/><g fill="#7d8f97"><path d="m18 17.5h-2.375c-.414 0-.75.336-.75.75s.336.75.75.75h2.375z"/><path d="m18 14.5h-2.375c-.414 0-.75.336-.75.75s.336.75.75.75h2.375z"/></g></svg>