<svg enable-background="new 0 0 24 24" height="512" viewBox="0 0 24 24" width="512" xmlns="http://www.w3.org/2000/svg"><path d="m12 0c-6.617 0-12 5.383-12 12s5.383 12 12 12 12-5.383 12-12-5.383-12-12-12z" fill="#607d8b"/><g fill="#eceff1"><path d="m6.871 16.116-1.732 1c-.158.091-.329.134-.499.134-.346 0-.682-.179-.867-.5-.276-.478-.112-1.09.366-1.366l1.732-1c.476-.276 1.089-.112 1.366.366s.113 1.09-.366 1.366z"/><path d="m7.237 9.25c-.185.321-.521.5-.867.5-.17 0-.342-.043-.499-.134l-1.732-1c-.479-.276-.643-.887-.367-1.366s.889-.643 1.366-.366l1.732 1c.48.276.644.887.367 1.366z"/><path d="m13 20.5c0 .552-.447 1-1 1s-1-.448-1-1v-2c0-.552.447-1 1-1s1 .448 1 1z"/><path d="m13 5.5c0 .552-.447 1-1 1s-1-.448-1-1v-2c0-.552.447-1 1-1s1 .448 1 1z"/><path d="m20.228 16.75c-.186.321-.521.5-.867.5-.17 0-.342-.043-.499-.134l-1.732-1c-.479-.276-.643-.888-.366-1.366s.888-.642 1.366-.366l1.732 1c.478.276.642.887.366 1.366z"/><path d="m19.861 8.616-1.732 1c-.157.091-.329.134-.499.134-.346 0-.682-.179-.867-.5-.276-.479-.112-1.09.366-1.366l1.732-1c.477-.276 1.089-.112 1.366.366.277.479.113 1.09-.366 1.366z"/></g><path d="m4.64 17.25c-.346 0-.682-.179-.867-.5-.276-.478-.112-1.09.366-1.366l1.732-1c.157-.091.328-.134.498-.134.345 0 .683.179.869.5.276.478.112 1.09-.366 1.366l-1.732 1c-.159.091-.33.134-.5.134zm1.73-7.5c-.17 0-.342-.043-.499-.134l-1.732-1c-.479-.276-.643-.887-.367-1.366.186-.321.522-.5.868-.5.17 0 .341.043.499.134l1.732 1c.479.276.643.887.366 1.366-.185.321-.521.5-.867.5zm5.63-9.75c-6.617 0-12 5.383-12 12s5.383 12 12 12v-2.5c-.553 0-1-.448-1-1v-2c0-.552.447-1 1-1v-11c-.553 0-1-.448-1-1v-2c0-.552.447-1 1-1z" fill="#546d79"/><g fill="#cdd0d2"><path d="m6.369 14.25c-.17 0-.341.043-.498.134l-1.732 1c-.479.276-.643.887-.367 1.366.186.321.522.5.867.5.17 0 .342-.043.499-.134l1.732-1c.478-.276.643-.888.366-1.366-.185-.321-.522-.5-.867-.5z"/><path d="m4.64 6.75c-.346 0-.682.18-.868.501-.276.478-.112 1.089.367 1.365l1.732 1c.157.091.329.134.499.134.346 0 .682-.179.867-.5.277-.479.113-1.09-.366-1.366l-1.732-1c-.158-.091-.329-.134-.499-.134z"/><path d="m12 17.5c-.553 0-1 .448-1 1v2c0 .552.447 1 1 1z"/><path d="m12 2.5c-.553 0-1 .448-1 1v2c0 .552.447 1 1 1z"/></g></svg>