<svg enable-background="new 0 0 24 24" height="512" viewBox="0 0 24 24" width="512" xmlns="http://www.w3.org/2000/svg"><path d="m8.75 20.5c-2.344 0-4.25-1.907-4.25-4.25v-13.5l.025-.25h-.775c-1.517 0-2.75 1.233-2.75 2.75v16c0 1.517 1.233 2.75 2.75 2.75h12c1.517 0 2.75-1.233 2.75-2.75v-.75z" fill="#2196f3"/><path d="m4.525 2.5h-.775c-1.517 0-2.75 1.233-2.75 2.75v16c0 1.517 1.233 2.75 2.75 2.75h6v-3.5h-1c-2.344 0-4.25-1.907-4.25-4.25v-13.5z" fill="#1d83d4"/><path d="m20.25 0h-11.5c-1.519 0-2.75 1.231-2.75 2.75v13.5c0 1.519 1.231 2.75 2.75 2.75h11.5c1.519 0 2.75-1.231 2.75-2.75v-13.5c0-1.519-1.231-2.75-2.75-2.75z" fill="#eceff1"/><g fill="#90a4ae"><path d="m18.25 13.5h-7.5c-.414 0-.75-.336-.75-.75s.336-.75.75-.75h7.5c.414 0 .75.336.75.75s-.336.75-.75.75z"/><path d="m18.25 10.5h-7.5c-.414 0-.75-.336-.75-.75s.336-.75.75-.75h7.5c.414 0 .75.336.75.75s-.336.75-.75.75z"/><path d="m18.25 7.5h-7.5c-.414 0-.75-.336-.75-.75s.336-.75.75-.75h7.5c.414 0 .75.336.75.75s-.336.75-.75.75z"/></g><path d="m14.5 0h-5.75c-1.519 0-2.75 1.231-2.75 2.75v13.5c0 1.519 1.231 2.75 2.75 2.75h5.75v-5.5h-3.75c-.414 0-.75-.336-.75-.75s.336-.75.75-.75h3.75v-1.5h-3.75c-.414 0-.75-.336-.75-.75s.336-.75.75-.75h3.75v-1.5h-3.75c-.414 0-.75-.336-.75-.75s.336-.75.75-.75h3.75z" fill="#cdd0d2"/><g fill="#7d8f97"><path d="m14.5 12h-3.75c-.414 0-.75.336-.75.75s.336.75.75.75h3.75z"/><path d="m14.5 9h-3.75c-.414 0-.75.336-.75.75s.336.75.75.75h3.75z"/><path d="m14.5 6h-3.75c-.414 0-.75.336-.75.75s.336.75.75.75h3.75z"/></g></svg>