<svg enable-background="new 0 0 24 24" height="512" viewBox="0 0 24 24" width="512" xmlns="http://www.w3.org/2000/svg"><path d="m1 20c0 2.206 1.794 4 4 4 1.474 0 2.749-.81 3.443-2l.049-.049 2.981-5.326c.455-.074 1.862-.387 3.257-1.549 1.446-1.205 3.539-4.978 5.067-7.733l.496-.892c1.376-2.46 1.264-4.858-.292-6.259-.17-.152-.403-.221-.624-.182-.226.037-.421.174-.532.374l-10.142 18.119c-.594-1.465-2.027-2.503-3.703-2.503-2.206 0-4 1.794-4 4zm2 0c0-1.103.897-2 2-2s2 .897 2 2-.897 2-2 2-2-.897-2-2z" fill="#607d8b"/><path d="m19 16c-1.676 0-3.109 1.038-3.703 2.503l-10.143-18.119c-.111-.199-.306-.337-.532-.374-.221-.038-.454.03-.624.182-1.556 1.401-1.668 3.799-.292 6.259l.496.892c1.528 2.755 3.621 6.528 5.067 7.733 1.395 1.162 2.802 1.475 3.257 1.549l2.981 5.326.05.049c.694 1.189 1.97 2 3.443 2 2.206 0 4-1.794 4-4s-1.794-4-4-4zm0 6c-1.103 0-2-.897-2-2s.897-2 2-2 2 .897 2 2-.897 2-2 2z" fill="#90a4ae"/><path d="m5 22c-1.103 0-2-.897-2-2s.897-2 2-2 2 .897 2 2-.897 2-2 2zm5.239-6.24-1.536 2.743c-.594-1.465-2.027-2.503-3.703-2.503-2.206 0-4 1.794-4 4s1.794 4 4 4c1.474 0 2.749-.81 3.443-2l.049-.049 2.981-5.326c.118-.019.298-.054.526-.116-.447-.121-1.076-.344-1.76-.749z" fill="#546d79"/><path d="m4.521 0h-.043c-.175.005-.347.073-.48.192-1.556 1.401-1.668 3.799-.292 6.259l.496.892c1.528 2.755 3.621 6.528 5.067 7.733.326.272.654.497.969.684.684.405 1.313.628 1.761.749v-3.896l-6.845-12.229c-.111-.199-.306-.337-.532-.374-.034-.006-.068-.009-.101-.01z" fill="#7d8f97"/></svg>