<svg enable-background="new 0 0 24 24" height="512" viewBox="0 0 24 24" width="512" xmlns="http://www.w3.org/2000/svg"><path d="m9.25 0h-7.5c-.965 0-1.75.785-1.75 1.75v4.5c0 .965.785 1.75 1.75 1.75h7.5c.965 0 1.75-.785 1.75-1.75v-4.5c0-.965-.785-1.75-1.75-1.75z" fill="#2196f3"/><path d="m9.25 10h-7.5c-.965 0-1.75.785-1.75 1.75v10.5c0 .965.785 1.75 1.75 1.75h7.5c.965 0 1.75-.785 1.75-1.75v-10.5c0-.965-.785-1.75-1.75-1.75z" fill="#1976d2"/><path d="m5.5 0h-3.75c-.965 0-1.75.785-1.75 1.75v4.5c0 .965.785 1.75 1.75 1.75h3.75z" fill="#1d83d4"/><path d="m5.5 10h-3.75c-.965 0-1.75.785-1.75 1.75v10.5c0 .965.785 1.75 1.75 1.75h3.75z" fill="#1667b7"/><path d="m22.25 16h-7.5c-.965 0-1.75.785-1.75 1.75v4.5c0 .965.785 1.75 1.75 1.75h7.5c.965 0 1.75-.785 1.75-1.75v-4.5c0-.965-.785-1.75-1.75-1.75z" fill="#2196f3"/><path d="m22.25 0h-7.5c-.965 0-1.75.785-1.75 1.75v10.5c0 .965.785 1.75 1.75 1.75h7.5c.965 0 1.75-.785 1.75-1.75v-10.5c0-.965-.785-1.75-1.75-1.75z" fill="#1976d2"/><path d="m18.5 16h-3.75c-.965 0-1.75.785-1.75 1.75v4.5c0 .965.785 1.75 1.75 1.75h3.75z" fill="#1d83d4"/><path d="m18.5 0h-3.75c-.965 0-1.75.785-1.75 1.75v10.5c0 .965.785 1.75 1.75 1.75h3.75z" fill="#1667b7"/></svg>