<svg enable-background="new 0 0 24 24" height="512" viewBox="0 0 24 24" width="512" xmlns="http://www.w3.org/2000/svg"><path d="m21.25 0h-18.5c-1.517 0-2.75 1.233-2.75 2.75v18.5c0 1.517 1.233 2.75 2.75 2.75h18.5c1.517 0 2.75-1.233 2.75-2.75v-18.5c0-1.517-1.233-2.75-2.75-2.75z" fill="#2196f3"/><path d="m12 0h-9.25c-1.517 0-2.75 1.233-2.75 2.75v18.5c0 1.517 1.233 2.75 2.75 2.75h9.25z" fill="#1d83d4"/><path d="m11 19.25c0 .965-.785 1.75-1.75 1.75h-4.5c-.965 0-1.75-.785-1.75-1.75v-6.5c0-.965.785-1.75 1.75-1.75h4.5c.965 0 1.75.785 1.75 1.75z" fill="#fafafa"/><path d="m11 7.25c0 .965-.785 1.75-1.75 1.75h-4.5c-.965 0-1.75-.785-1.75-1.75v-2.5c0-.965.785-1.75 1.75-1.75h4.5c.965 0 1.75.785 1.75 1.75z" fill="#fafafa"/><path d="m7 11h-2.25c-.965 0-1.75.785-1.75 1.75v6.5c0 .965.785 1.75 1.75 1.75h2.25z" fill="#dadada"/><path d="m7 3h-2.25c-.965 0-1.75.785-1.75 1.75v2.5c0 .965.785 1.75 1.75 1.75h2.25z" fill="#dadada"/><path d="m21 19.25c0 .965-.785 1.75-1.75 1.75h-4.5c-.965 0-1.75-.785-1.75-1.75v-2.5c0-.965.785-1.75 1.75-1.75h4.5c.965 0 1.75.785 1.75 1.75z" fill="#fafafa"/><path d="m21 11.25c0 .965-.785 1.75-1.75 1.75h-4.5c-.965 0-1.75-.785-1.75-1.75v-6.5c0-.965.785-1.75 1.75-1.75h4.5c.965 0 1.75.785 1.75 1.75z" fill="#fafafa"/><g fill="#dadada"><path d="m17 15h-2.25c-.965 0-1.75.785-1.75 1.75v2.5c0 .965.785 1.75 1.75 1.75h2.25z"/><path d="m17 3h-2.25c-.965 0-1.75.785-1.75 1.75v6.5c0 .965.785 1.75 1.75 1.75h2.25z"/></g></svg>