<svg enable-background="new 0 0 24 24" height="512" viewBox="0 0 24 24" width="512" xmlns="http://www.w3.org/2000/svg"><path d="m23.269 10.582-4.409-7.25c-.495-.815-1.395-1.322-2.35-1.322h-9c-.954 0-1.854.507-2.35 1.322l-4.409 7.25c-.536.881-.536 1.976 0 2.857l4.409 7.25c.495.814 1.395 1.32 2.35 1.32h9.001c.954 0 1.854-.506 2.35-1.32l4.409-7.25c.535-.881.535-1.976-.001-2.857z" fill="#607d8b"/><path d="m16.419 15.006c.391.391.391 1.023 0 1.414-.195.195-.451.293-.707.293s-.512-.098-.707-.293l-3.005-3.006-3.005 3.006c-.195.195-.451.293-.707.293s-.512-.098-.707-.293c-.391-.391-.391-1.023 0-1.414l3.005-3.006-3.005-3.006c-.391-.391-.391-1.023 0-1.414s1.024-.391 1.414 0l3.005 3.006 3.005-3.006c.391-.391 1.023-.391 1.414 0s.391 1.023 0 1.414l-3.005 3.006z" fill="#fafafa"/><path d="m12 2.01h-4.49c-.954 0-1.854.507-2.35 1.322l-4.409 7.25c-.536.881-.536 1.976 0 2.857l4.409 7.25c.495.814 1.395 1.32 2.35 1.32h4.49v-8.596l-3.005 3.007c-.195.195-.451.293-.707.293s-.512-.098-.707-.293c-.391-.391-.391-1.023 0-1.414l3.005-3.006-3.005-3.006c-.391-.391-.391-1.023 0-1.414.195-.195.451-.293.707-.293s.512.098.707.293l3.005 3.006z" fill="#546d79"/><path d="m8.288 7.287c-.256 0-.512.098-.707.293-.391.391-.391 1.023 0 1.414l3.005 3.006-3.005 3.006c-.391.391-.391 1.023 0 1.414.195.195.451.293.707.293s.512-.098.707-.293l3.005-3.006v-2.828l-3.005-3.006c-.196-.195-.452-.293-.707-.293z" fill="#dadada"/></svg>