<svg enable-background="new 0 0 24 24" height="512" viewBox="0 0 24 24" width="512" xmlns="http://www.w3.org/2000/svg"><path d="m12 0c-6.617 0-12 5.383-12 12s5.383 12 12 12 12-5.383 12-12-5.383-12-12-12z" fill="#4caf50"/><path d="m12 14.5c-1.379 0-2.5-1.122-2.5-2.5s1.121-2.5 2.5-2.5 2.5 1.122 2.5 2.5-1.121 2.5-2.5 2.5z" fill="#fafafa"/><path d="m12 0c-6.617 0-12 5.383-12 12s5.383 12 12 12v-9.5c-1.379 0-2.5-1.122-2.5-2.5s1.121-2.5 2.5-2.5z" fill="#429846"/><path d="m12 9.5c-1.379 0-2.5 1.122-2.5 2.5s1.121 2.5 2.5 2.5z" fill="#dadada"/><path d="m18.5 14.5c-1.379 0-2.5-1.122-2.5-2.5s1.121-2.5 2.5-2.5 2.5 1.122 2.5 2.5-1.121 2.5-2.5 2.5z" fill="#fafafa"/><path d="m18.5 9.5c-1.379 0-2.5 1.122-2.5 2.5s1.121 2.5 2.5 2.5z" fill="#dadada"/><path d="m5.5 14.5c-1.379 0-2.5-1.122-2.5-2.5s1.121-2.5 2.5-2.5 2.5 1.122 2.5 2.5-1.121 2.5-2.5 2.5z" fill="#fafafa"/><path d="m5.5 9.5c-1.379 0-2.5 1.122-2.5 2.5s1.121 2.5 2.5 2.5z" fill="#dadada"/></svg>