<svg enable-background="new 0 0 24 24" height="512" viewBox="0 0 24 24" width="512" xmlns="http://www.w3.org/2000/svg"><path d="m21.25 0h-18.5c-1.517 0-2.75 1.233-2.75 2.75v18.5c0 1.517 1.233 2.75 2.75 2.75h18.5c1.517 0 2.75-1.233 2.75-2.75v-18.5c0-1.517-1.233-2.75-2.75-2.75z" fill="#607d8b"/><path d="m12 0h-9.25c-1.517 0-2.75 1.233-2.75 2.75v18.5c0 1.517 1.233 2.75 2.75 2.75h9.25z" fill="#546d79"/><path d="m12 14.5c-1.379 0-2.5-1.122-2.5-2.5s1.121-2.5 2.5-2.5 2.5 1.122 2.5 2.5-1.121 2.5-2.5 2.5z" fill="#fafafa"/><path d="m12 9.5c-1.379 0-2.5 1.122-2.5 2.5s1.121 2.5 2.5 2.5z" fill="#dadada"/><path d="m18.5 14.5c-1.379 0-2.5-1.122-2.5-2.5s1.121-2.5 2.5-2.5 2.5 1.122 2.5 2.5-1.121 2.5-2.5 2.5z" fill="#fafafa"/><path d="m18.5 9.5c-1.379 0-2.5 1.122-2.5 2.5s1.121 2.5 2.5 2.5z" fill="#dadada"/><path d="m5.5 14.5c-1.379 0-2.5-1.122-2.5-2.5s1.121-2.5 2.5-2.5 2.5 1.122 2.5 2.5-1.121 2.5-2.5 2.5z" fill="#fafafa"/><path d="m5.5 9.5c-1.379 0-2.5 1.122-2.5 2.5s1.121 2.5 2.5 2.5z" fill="#dadada"/></svg>