<svg enable-background="new 0 0 24 24" height="512" viewBox="0 0 24 24" width="512" xmlns="http://www.w3.org/2000/svg"><g fill="#4caf50"><path d="m12 9c-1.654 0-3 1.346-3 3s1.346 3 3 3 3-1.346 3-3-1.346-3-3-3z"/><path d="m12 0c-1.654 0-3 1.346-3 3s1.346 3 3 3 3-1.346 3-3-1.346-3-3-3z"/><path d="m12 18c-1.654 0-3 1.346-3 3s1.346 3 3 3 3-1.346 3-3-1.346-3-3-3z"/></g><g fill="#429846"><path d="m12 9c-1.654 0-3 1.346-3 3s1.346 3 3 3z"/><path d="m12 0c-1.654 0-3 1.346-3 3s1.346 3 3 3z"/><path d="m12 18c-1.654 0-3 1.346-3 3s1.346 3 3 3z"/></g></svg>