<svg enable-background="new 0 0 24 24" height="512" viewBox="0 0 24 24" width="512" xmlns="http://www.w3.org/2000/svg"><path d="m23.78.22c-.155-.155-.368-.231-.591-.217-4.958.404-9.256 1.89-12.776 4.418-.228.164-.345.441-.305.718.219 1.491-.424 3.252-1.067 4.563-.263-.745-.649-1.428-1.018-1.979-.13-.194-.342-.316-.574-.332-.233-.013-.459.08-.613.254-3.182 3.623-4.14 7.431-3.015 11.985.066.27.277.481.547.548 1.21.3 2.371.451 3.492.451 3.454 0 6.526-1.438 9.474-4.394 4.18-4.18 6.11-8.649 6.662-15.425.02-.219-.06-.434-.216-.59z" fill="#ffc107"/><path d="m1 24c-.256 0-.512-.098-.707-.293-.391-.391-.391-1.023 0-1.414l11-11c.391-.391 1.023-.391 1.414 0s.391 1.023 0 1.414l-11 11c-.195.195-.451.293-.707.293z" fill="#607d8b"/><path d="m23.24.001c-.017 0-.034.001-.051.002-4.958.404-9.256 1.89-12.776 4.418-.228.164-.345.441-.305.718.219 1.491-.424 3.252-1.067 4.563-.263-.745-.649-1.428-1.018-1.979-.13-.194-.342-.316-.574-.332-.015 0-.03-.001-.045-.001-.217 0-.424.092-.568.255-3.016 3.434-4.034 7.034-3.174 11.278l7.63-7.63c.196-.195.452-.293.708-.293.249 0 .498.092.691.277l11.073-11.073c-.141-.133-.327-.203-.524-.203z" fill="#dea806"/><path d="m12 11c-.256 0-.512.098-.707.293l-7.63 7.63-3.37 3.37c-.385.385-.391 1.006-.016 1.398l12.414-12.414c-.193-.185-.442-.277-.691-.277z" fill="#546d79"/></svg>