<svg enable-background="new 0 0 24 24" height="512" viewBox="0 0 24 24" width="512" xmlns="http://www.w3.org/2000/svg"><path d="m22.25 0h-20.5c-.965 0-1.75.785-1.75 1.75v2.315c0 .488.206.959.567 1.291l8.027 7.353c.259.235.406.571.406.921v9.62c0 .276.152.531.396.661.111.06.233.089.354.089.145 0 .291-.042.416-.126l4.055-2.703c.488-.325.779-.87.779-1.456v-6.085c0-.35.147-.686.406-.922l8.027-7.354c.361-.331.567-.801.567-1.289v-2.315c0-.965-.785-1.75-1.75-1.75z" fill="#4caf50"/><path d="m12 0h-10.25c-.965 0-1.75.785-1.75 1.75v2.315c0 .488.206.959.567 1.291l8.027 7.353c.259.235.406.571.406.921v9.62c0 .276.152.531.396.661.111.06.233.089.354.089.145 0 .291-.042.416-.126l1.834-1.223z" fill="#429846"/></svg>