<svg enable-background="new 0 0 24 24" height="512" viewBox="0 0 24 24" width="512" xmlns="http://www.w3.org/2000/svg"><path d="m19.25 0h-15.5c-.414 0-.75.336-.75.75v11.5c0 .414.336.75.75.75h15.5c.965 0 1.75-.785 1.75-1.75v-9.5c0-.965-.785-1.75-1.75-1.75z" fill="#4caf50"/><path d="m12 0h-8.25c-.414 0-.75.336-.75.75v11.5c0 .414.336.75.75.75h8.25z" fill="#429846"/><path d="m4 24c-.553 0-1-.448-1-1v-22c0-.552.447-1 1-1s1 .448 1 1v22c0 .552-.447 1-1 1z" fill="#607d8b"/><path d="m4 0c-.553 0-1 .448-1 1v22c0 .552.447 1 1 1z" fill="#546d79"/></svg>