<svg enable-background="new 0 0 24 24" height="512" viewBox="0 0 24 24" width="512" xmlns="http://www.w3.org/2000/svg"><path d="m23.25 2.75h-22.5c-.414 0-.75.336-.75.75v3.318c0 .819.36 1.589.99 2.113l7.56 6.296c.286.238.45.588.45.96v7.063c0 .276.152.531.396.661.111.06.233.089.354.089.145 0 .291-.042.416-.126l4.055-2.703c.488-.325.779-.87.779-1.456v-3.528c0-.372.164-.722.449-.96l7.562-6.296c.629-.524.989-1.294.989-2.113v-3.318c0-.414-.336-.75-.75-.75z" fill="#2196f3"/><path d="m12 0c-4.457 0-12 .737-12 3.5s7.543 3.5 12 3.5 12-.737 12-3.5-7.543-3.5-12-3.5z" fill="#1976d2"/><path d="m0 3.5v3.318c0 .819.36 1.589.99 2.113l7.56 6.296c.286.238.45.588.45.96v7.063c0 .276.152.531.396.661.111.06.233.089.354.089.145 0 .291-.042.416-.126l1.834-1.223v-15.651c-4.457 0-12-.737-12-3.5z" fill="#1d83d4"/><path d="m12 0c-4.457 0-12 .737-12 3.5s7.543 3.5 12 3.5z" fill="#1667b7"/></svg>