<svg enable-background="new 0 0 24 24" height="512" viewBox="0 0 24 24" width="512" xmlns="http://www.w3.org/2000/svg"><path d="m23.322 15.94c.432-1.236.678-2.559.678-3.94 0-6.617-5.383-12-12-12s-12 5.383-12 12c0 1.381.246 2.704.678 3.94l.058.157c1.679 4.602 6.087 7.903 11.264 7.903s9.585-3.301 11.265-7.903z" fill="#607d8b"/><path d="m12 2c5.514 0 10 4.486 10 10 0 1.045-.162 2.052-.461 3h-19.078c-.299-.948-.461-1.955-.461-3 0-5.514 4.486-10 10-10z" fill="#fff"/><path d="m15.666 15c-.284-1.375-1.323-2.473-2.666-2.847v-6.153c0-.552-.447-1-1-1s-1 .448-1 1v6.153c-1.343.374-2.382 1.472-2.666 2.847z" fill="#f44336"/><path d="m12 0c-6.617 0-12 5.383-12 12 0 1.381.246 2.704.678 3.94l.058.157c1.679 4.602 6.087 7.903 11.264 7.903v-9h-9.539c-.299-.948-.461-1.955-.461-3 0-5.514 4.486-10 10-10z" fill="#546d79"/><path d="m12 2c-5.514 0-10 4.486-10 10 0 1.045.162 2.052.461 3h9.539-3.666c.284-1.375 1.323-2.473 2.666-2.847v-6.153c0-.552.447-1 1-1z" fill="#dedede"/><path d="m12 5c-.553 0-1 .448-1 1v6.153c-1.343.374-2.382 1.472-2.666 2.847h3.666z" fill="#d43a2f"/></svg>