<svg enable-background="new 0 0 24 24" height="512" viewBox="0 0 24 24" width="512" xmlns="http://www.w3.org/2000/svg"><path d="m20.76 10.76-5.417-4.07c-.034-.027-.093-.088-.093-.19s.059-.163.08-.181l5.431-4.08c.311-.234.489-.595.489-.99 0-.688-.561-1.249-1.25-1.249h-16.25c-.414 0-.75.336-.75.75v11.5c0 .414.336.75.75.75h16.25c.689 0 1.25-.561 1.25-1.25 0-.395-.179-.755-.49-.99z" fill="#ffc107"/><path d="m20 0h-16.25c-.414 0-.75.336-.75.75v5.75h12.25c0-.102.059-.163.08-.181l5.431-4.08c.311-.234.489-.595.489-.99 0-.688-.561-1.249-1.25-1.249z" fill="#dea806"/><path d="m4 24c-.553 0-1-.448-1-1v-22c0-.552.447-1 1-1s1 .448 1 1v22c0 .552-.447 1-1 1z" fill="#607d8b"/><path d="m4 0c-.553 0-1 .448-1 1v22c0 .552.447 1 1 1z" fill="#546d79"/></svg>