<svg enable-background="new 0 0 24 24" height="512" viewBox="0 0 24 24" width="512" xmlns="http://www.w3.org/2000/svg"><path d="m24 2.75v9.25h-4.2c-.79 0-1.51.46-1.83 1.18l-2.56 5.73c-.15.35-.5.59-.91.59-.45 0-.83-.3-.96-.71l-4.08-13.58c-.13-.41-.51-.71-.96-.71s-.83.3-.96.71l-1.61 5.37c-.26.84-1.03 1.42-1.92 1.42h-4.01v-9.25c0-1.52 1.23-2.75 2.75-2.75h18.5c1.52 0 2.75 1.23 2.75 2.75z" fill="#eceff1"/><path d="m24 12v9.25c0 1.52-1.23 2.75-2.75 2.75h-18.5c-1.52 0-2.75-1.23-2.75-2.75v-9.25h4.01c.891 0 1.66-.58 1.92-1.42l1.61-5.37c.13-.41.51-.71.96-.71s.83.3.96.71l4.08 13.58c.13.41.51.71.96.71.41 0 .76-.24.91-.59l2.56-5.73c.32-.72 1.04-1.18 1.83-1.18z" fill="#4caf50"/><path d="m12 0h-9.25c-1.52 0-2.75 1.23-2.75 2.75v9.25h4.01c.891 0 1.66-.58 1.92-1.42l1.61-5.37c.13-.41.51-.71.96-.71s.83.3.96.71l2.54 8.454z" fill="#cdd0d2"/><path d="m8.5 4.5c-.45 0-.83.3-.96.71l-1.61 5.37c-.26.84-1.03 1.42-1.92 1.42h-4.01v9.25c0 1.52 1.23 2.75 2.75 2.75h9.25v-10.336l-2.54-8.454c-.13-.41-.51-.71-.96-.71z" fill="#429846"/></svg>