<svg enable-background="new 0 0 24 24" height="512" viewBox="0 0 24 24" width="512" xmlns="http://www.w3.org/2000/svg"><path d="m12 0c-6.617 0-12 5.383-12 12s5.383 12 12 12 12-5.383 12-12-5.383-12-12-12z" fill="#607d8b"/><g fill="#fafafa"><path d="m16 17h-8c-.552 0-1-.448-1-1s.448-1 1-1h8c.552 0 1 .448 1 1s-.448 1-1 1z"/><path d="m16 13h-8c-.552 0-1-.448-1-1s.448-1 1-1h8c.552 0 1 .448 1 1s-.448 1-1 1z"/><path d="m16 9h-8c-.552 0-1-.448-1-1s.448-1 1-1h8c.552 0 1 .448 1 1s-.448 1-1 1z"/></g><path d="m12 0c-6.617 0-12 5.383-12 12s5.383 12 12 12v-7h-4c-.552 0-1-.448-1-1s.448-1 1-1h4v-2h-4c-.552 0-1-.448-1-1s.448-1 1-1h4v-2h-4c-.552 0-1-.448-1-1s.448-1 1-1h4z" fill="#546d79"/><g fill="#dadada"><path d="m12 15h-4c-.552 0-1 .448-1 1s.448 1 1 1h4z"/><path d="m12 11h-4c-.552 0-1 .448-1 1s.448 1 1 1h4z"/><path d="m12 7h-4c-.552 0-1 .448-1 1s.448 1 1 1h4z"/></g></svg>