<svg enable-background="new 0 0 24 24" height="512" viewBox="0 0 24 24" width="512" xmlns="http://www.w3.org/2000/svg"><path d="m21.25 0h-18.5c-1.517 0-2.75 1.233-2.75 2.75v18.5c0 1.517 1.233 2.75 2.75 2.75h18.5c1.517 0 2.75-1.233 2.75-2.75v-18.5c0-1.517-1.233-2.75-2.75-2.75z" fill="#2196f3"/><g fill="#fafafa"><path d="m16 17h-8c-.553 0-1-.448-1-1s.447-1 1-1h8c.553 0 1 .448 1 1s-.447 1-1 1z"/><path d="m16 13h-8c-.553 0-1-.448-1-1s.447-1 1-1h8c.553 0 1 .448 1 1s-.447 1-1 1z"/><path d="m16 9h-8c-.553 0-1-.448-1-1s.447-1 1-1h8c.553 0 1 .448 1 1s-.447 1-1 1z"/></g><path d="m12 0h-9.25c-1.517 0-2.75 1.233-2.75 2.75v18.5c0 1.517 1.233 2.75 2.75 2.75h9.25v-7h-4c-.553 0-1-.448-1-1s.447-1 1-1h4v-2h-4c-.553 0-1-.448-1-1s.447-1 1-1h4v-2h-4c-.553 0-1-.448-1-1s.447-1 1-1h4z" fill="#1d83d4"/><g fill="#dadada"><path d="m12 15h-4c-.553 0-1 .448-1 1s.447 1 1 1h4z"/><path d="m12 11h-4c-.553 0-1 .448-1 1s.447 1 1 1h4z"/><path d="m12 7h-4c-.553 0-1 .448-1 1s.447 1 1 1h4z"/></g></svg>