<svg enable-background="new 0 0 24 24" height="512" viewBox="0 0 24 24" width="512" xmlns="http://www.w3.org/2000/svg"><path d="m17.381 1c-2.165 0-4.156 1.047-5.381 2.753-1.225-1.706-3.216-2.753-5.381-2.753-3.649 0-6.619 2.964-6.619 6.607 0 6.481 9.895 14.21 10.784 14.891.318.32.756.502 1.216.502s.898-.182 1.216-.502c.889-.682 10.784-8.41 10.784-14.891 0-3.643-2.97-6.607-6.619-6.607z" fill="#ffc107"/><path d="m6.619 1c-3.649 0-6.619 2.964-6.619 6.607 0 6.481 9.895 14.21 10.784 14.891.318.32.756.502 1.216.502v-19.247c-1.225-1.706-3.216-2.753-5.381-2.753z" fill="#dea806"/></svg>