<svg enable-background="new 0 0 24 24" height="512" viewBox="0 0 24 24" width="512" xmlns="http://www.w3.org/2000/svg"><path d="m24 11.75c0 .69-.56 1.25-1.25 1.25h-1.75l-9-8.75-9 8.75h-1.75c-.69 0-1.25-.56-1.25-1.25 0-.33.13-.66.37-.89l11.11-10.65c.29-.28.75-.28 1.04 0l11.1 10.64c.25.24.38.57.38.9z" fill="#4caf50"/><path d="m12 4.25-9 8.75v9c0 1.1.9 2 2 2h14c1.1 0 2-.9 2-2v-9z" fill="#eceff1"/><path d="m15 24h-6v-8h6z" fill="#607d8b"/><path d="m12 0c-.187 0-.375.07-.52.21l-11.11 10.65c-.24.23-.37.56-.37.89 0 .69.56 1.25 1.25 1.25h1.75l9-8.75z" fill="#429846"/><path d="m12 4.25-9 8.75v9c0 1.1.9 2 2 2h4v-8h3z" fill="#cdd0d2"/><path d="m12 16h-3v8h3z" fill="#546d79"/></svg>