<svg enable-background="new 0 0 24 24" height="512" viewBox="0 0 24 24" width="512" xmlns="http://www.w3.org/2000/svg"><path d="m12 0c-6.617 0-12 5.383-12 12s5.383 12 12 12 12-5.383 12-12-5.383-12-12-12z" fill="#607d8b"/><path d="m12 5c.553 0 1 .447 1 1s-.447 1-1 1-1-.447-1-1 .447-1 1-1z" fill="#fafafa"/><path d="m14.25 19h-4.5c-.553 0-1-.447-1-1s.447-1 1-1h1.25v-6h-.75c-.553 0-1-.447-1-1s.447-1 1-1h1.75c.553 0 1 .447 1 1v7h1.25c.553 0 1 .447 1 1s-.447 1-1 1z" fill="#fafafa"/><path d="m12 0c-6.617 0-12 5.383-12 12s5.383 12 12 12v-5h-2.25c-.553 0-1-.447-1-1s.447-1 1-1h1.25v-6h-.75c-.553 0-1-.447-1-1s.447-1 1-1h1.75v-2c-.553 0-1-.447-1-1s.447-1 1-1z" fill="#546d79"/><g fill="#dadada"><path d="m12 5c-.553 0-1 .447-1 1s.447 1 1 1z"/><path d="m12 9h-1.75c-.553 0-1 .447-1 1s.447 1 1 1h.75v6h-1.25c-.553 0-1 .447-1 1s.447 1 1 1h2.25z"/></g></svg>