<svg enable-background="new 0 0 24 24" height="512" viewBox="0 0 24 24" width="512" xmlns="http://www.w3.org/2000/svg"><path d="m21.25 0h-18.5c-1.517 0-2.75 1.233-2.75 2.75v18.5c0 1.517 1.233 2.75 2.75 2.75h18.5c1.517 0 2.75-1.233 2.75-2.75v-18.5c0-1.517-1.233-2.75-2.75-2.75z" fill="#4caf50"/><path d="m12 5c.552 0 1 .447 1 1s-.448 1-1 1-1-.447-1-1 .448-1 1-1z" fill="#fafafa"/><path d="m14.25 19h-4.5c-.552 0-1-.447-1-1s.448-1 1-1h1.25v-6h-.75c-.552 0-1-.447-1-1s.448-1 1-1h1.75c.552 0 1 .447 1 1v7h1.25c.552 0 1 .447 1 1s-.448 1-1 1z" fill="#fafafa"/><path d="m12 0h-9.25c-1.517 0-2.75 1.233-2.75 2.75v18.5c0 1.517 1.233 2.75 2.75 2.75h9.25v-5h-2.25c-.552 0-1-.447-1-1s.448-1 1-1h1.25v-6h-.75c-.552 0-1-.447-1-1s.448-1 1-1h1.75v-2c-.552 0-1-.447-1-1s.448-1 1-1z" fill="#429846"/><g fill="#dadada"><path d="m12 5c-.552 0-1 .447-1 1s.448 1 1 1z"/><path d="m12 9h-1.75c-.552 0-1 .447-1 1s.448 1 1 1h.75v6h-1.25c-.552 0-1 .447-1 1s.448 1 1 1h2.25z"/></g></svg>