<svg enable-background="new 0 0 24 24" height="512" viewBox="0 0 24 24" width="512" xmlns="http://www.w3.org/2000/svg"><path d="m19.425 19.425c-4.094 4.094-10.755 4.094-14.85 0-4.094-4.094-4.094-10.755 0-14.85 4.094-4.094 10.755-4.094 14.85 0 4.094 4.094 4.094 10.756 0 14.85zm-11.314-11.314c-2.145 2.145-2.145 5.634 0 7.778 2.145 2.145 5.634 2.145 7.778 0s2.144-5.634 0-7.778c-2.144-2.145-5.634-2.145-7.778 0z" fill="#eceff1"/><path d="m12 1.505c-2.689 0-5.378 1.023-7.425 3.07-4.094 4.094-4.094 10.755 0 14.85 2.047 2.047 4.736 3.07 7.425 3.07v-4.998c-1.408 0-2.817-.536-3.889-1.608-2.145-2.145-2.145-5.634 0-7.778 1.072-1.072 2.481-1.609 3.889-1.609z" fill="#cdd0d2"/><path d="m5.813 13.944-3.182 3.182c-.682.682-.682 1.792 0 2.475l1.768 1.768c.683.682 1.793.682 2.475 0l3.182-3.182c.682-.682.682-1.792 0-2.475l-1.768-1.768c-.683-.682-1.793-.682-2.475 0z" fill="#f44336"/><path d="m17.126 2.631-3.182 3.182c-.682.682-.682 1.792 0 2.475l1.768 1.768c.682.682 1.792.682 2.475 0l3.182-3.182c.682-.682.682-1.792 0-2.475l-1.768-1.768c-.682-.682-1.792-.682-2.475 0z" fill="#f44336"/><path d="m2.631 19.602.772.772zm3.634-5.984c-.001.001-.003.001-.004.002.001-.001.003-.001.004-.002zm.785-.185c-.269 0-.538.062-.784.184.246-.123.515-.184.784-.184.168 0 .335.024.497.072-.161-.048-.329-.072-.497-.072z" fill="#dedede"/><path d="m7.05 13.433c-.269 0-.538.061-.784.184l-.002.001c-.001.001-.003.001-.004.002-.162.082-.313.19-.448.325l-3.182 3.182c-.341.341-.512.789-.512 1.237s.171.896.512 1.238l.772.772 5.657-5.657-.772-.772c-.214-.213-.469-.36-.74-.44-.161-.048-.329-.072-.497-.072z" fill="#d43a2f"/><path d="m13.944 8.288.772.772zm4.42-6.169c-.172 0-.345.025-.511.076.166-.051.339-.076.511-.076.166 0 .331.023.492.07-.161-.046-.327-.07-.492-.07z" fill="#dedede"/><path d="m18.364 2.119c-.172 0-.344.025-.511.076-.266.081-.517.226-.727.436l-3.182 3.182c-.341.341-.512.789-.512 1.237s.171.896.512 1.237l.772.772 5.657-5.657-.772-.772c-.215-.215-.473-.362-.746-.442-.16-.045-.326-.069-.491-.069z" fill="#d43a2f"/><path d="m4.398 2.631-1.767 1.767c-.682.683-.682 1.793 0 2.475l3.182 3.182c.682.682 1.792.682 2.475 0l1.768-1.768c.682-.682.682-1.792 0-2.475l-3.182-3.181c-.683-.682-1.793-.682-2.476 0z" fill="#f44336"/><path d="m15.712 13.944-1.768 1.768c-.682.682-.682 1.792 0 2.475l3.182 3.182c.682.682 1.792.682 2.475 0l1.768-1.768c.682-.683.682-1.793 0-2.475l-3.182-3.182c-.682-.682-1.792-.682-2.475 0z" fill="#f44336"/><path d="m6.386 10.437c.212.087.438.13.664.13.223 0 .447-.042.657-.127-.21.085-.433.127-.657.127-.226 0-.452-.043-.664-.13z" fill="#dedede"/><path d="m3.506 3.523-.875.875c-.341.342-.512.79-.512 1.238s.171.896.512 1.237l3.182 3.182c.169.169.364.296.573.381.212.087.438.13.665.13.223 0 .447-.042.657-.127.211-.085.409-.214.581-.385l.874-.874z" fill="#d43a2f"/><path d="m19.602 21.369c-.341.341-.79.512-1.238.512s-.896-.171-1.237-.512c.341.341.789.512 1.237.512s.896-.171 1.238-.512z" fill="#dedede"/><path d="m14.82 14.837-.875.875c-.341.341-.512.789-.512 1.237s.171.896.512 1.237l3.182 3.182c.341.341.789.512 1.237.512s.896-.171 1.238-.512l.875-.875z" fill="#d43a2f"/></svg>