<svg enable-background="new 0 0 24 24" height="512" viewBox="0 0 24 24" width="512" xmlns="http://www.w3.org/2000/svg"><path d="m21 0h-18c-1.654 0-3 1.346-3 3v18c0 1.654 1.346 3 3 3h18c1.654 0 3-1.346 3-3v-18c0-1.654-1.346-3-3-3zm1 21c0 .553-.447 1-1 1h-12v-5.5c0-.828-.672-1.5-1.5-1.5h-5.5v-12c0-.553.447-1 1-1h18c.553 0 1 .447 1 1z" fill="#607d8b"/><path d="m12 0h-9c-1.654 0-3 1.346-3 3v18c0 1.654 1.346 3 3 3h9v-2h-3v-5.5c0-.828-.672-1.5-1.5-1.5h-5.5v-12c0-.553.447-1 1-1h9z" fill="#546d79"/><path d="m19.707 4.293c.391.391.391 1.023 0 1.414l-4.293 4.293 2.293 2.293c.286.286.372.716.217 1.09-.154.373-.52.617-.924.617h-6c-.553 0-1-.447-1-1v-6c0-.404.243-.77.617-.924s.804-.068 1.09.217l2.293 2.293 4.293-4.293c.391-.391 1.023-.391 1.414 0z" fill="#4caf50"/><path d="m19 4c-.256 0-.512.098-.707.293l-4.293 4.293-2.293-2.293c-.191-.191-.447-.293-.708-.293-.129 0-.258.025-.382.076-.374.154-.617.52-.617.924v6c0 .276.112.526.293.707l9.414-9.414c-.195-.195-.451-.293-.707-.293z" fill="#429846"/></svg>