<svg enable-background="new 0 0 24 24" height="512" viewBox="0 0 24 24" width="512" xmlns="http://www.w3.org/2000/svg"><path d="m12 0c-6.617 0-12 5.383-12 12s5.383 12 12 12 12-5.383 12-12-5.383-12-12-12z" fill="#607d8b"/><path d="m17.25 13h-10.5c-.552 0-1-.447-1-1s.448-1 1-1h10.5c.552 0 1 .447 1 1s-.448 1-1 1z" fill="#fafafa"/><path d="m12 0c-6.617 0-12 5.383-12 12s5.383 12 12 12v-11h-5.25c-.552 0-1-.447-1-1s.448-1 1-1h5.25z" fill="#546d79"/><path d="m12 11h-5.25c-.552 0-1 .447-1 1s.448 1 1 1h5.25z" fill="#dadada"/></svg>