<svg enable-background="new 0 0 24 24" height="512" viewBox="0 0 24 24" width="512" xmlns="http://www.w3.org/2000/svg"><path d="m21.25 0h-18.5c-1.517 0-2.75 1.233-2.75 2.75v18.5c0 1.517 1.233 2.75 2.75 2.75h18.5c1.517 0 2.75-1.233 2.75-2.75v-18.5c0-1.517-1.233-2.75-2.75-2.75z" fill="#4caf50"/><path d="m17.25 13h-10.5c-.553 0-1-.447-1-1s.447-1 1-1h10.5c.553 0 1 .447 1 1s-.447 1-1 1z" fill="#fafafa"/><path d="m12 0h-9.25c-1.517 0-2.75 1.233-2.75 2.75v18.5c0 1.517 1.233 2.75 2.75 2.75h9.25v-11h-5.25c-.553 0-1-.447-1-1s.447-1 1-1h5.25z" fill="#429846"/><path d="m12 11h-5.25c-.553 0-1 .447-1 1s.447 1 1 1h5.25z" fill="#dadada"/></svg>