<svg enable-background="new 0 0 24 24" height="512" viewBox="0 0 24 24" width="512" xmlns="http://www.w3.org/2000/svg"><path d="m12 0c-6.627 0-12 5.373-12 12s5.373 12 12 12 12-5.373 12-12-5.373-12-12-12z" fill="#2196f3"/><path d="m14 17c0 .552-.447 1-1 1h-2c-.553 0-1-.448-1-1v-10c0-.552.447-1 1-1h2c.553 0 1 .448 1 1z" fill="#fff"/><path d="m12 0c-6.627 0-12 5.373-12 12s5.373 12 12 12v-6h-1c-.553 0-1-.448-1-1v-10c0-.552.447-1 1-1h1z" fill="#1d83d4"/><path d="m12 6h-1c-.553 0-1 .448-1 1v10c0 .552.447 1 1 1h1z" fill="#dedede"/></svg>