<svg enable-background="new 0 0 24 24" height="512" viewBox="0 0 24 24" width="512" xmlns="http://www.w3.org/2000/svg"><path d="m18 23h-14c-1.654 0-3-1.346-3-3v-14c0-1.654 1.346-3 3-3h8c.552 0 1 .447 1 1s-.448 1-1 1h-8c-.551 0-1 .449-1 1v14c0 .551.449 1 1 1h14c.551 0 1-.449 1-1v-8c0-.553.448-1 1-1s1 .447 1 1v8c0 1.654-1.346 3-3 3z" fill="#607d8b"/><path d="m12 3h-8c-1.654 0-3 1.346-3 3v14c0 1.654 1.346 3 3 3h8v-2h-8c-.551 0-1-.449-1-1v-14c0-.551.449-1 1-1h8z" fill="#546d79"/><path d="m22.923 1.618c-.101-.245-.296-.439-.54-.541-.123-.051-.253-.077-.383-.077h-6c-.404 0-.769.244-.924.617-.155.374-.069.804.217 1.09l2.293 2.293-7.293 7.293c-.391.391-.391 1.023 0 1.414.195.195.451.293.707.293s.512-.098.707-.293l7.293-7.293 2.293 2.293c.191.191.447.293.707.293.129 0 .259-.025.383-.076.373-.155.617-.52.617-.924v-6c0-.13-.026-.26-.077-.382z" fill="#4caf50"/><path d="m22 1h-6c-.404 0-.769.244-.924.617-.155.374-.069.804.217 1.09l2.293 2.293-7.293 7.293c-.391.391-.391 1.023 0 1.414l12.413-12.413c-.092-.092-.202-.166-.324-.217s-.252-.077-.382-.077z" fill="#429846"/></svg>