<svg enable-background="new 0 0 24 24" height="512" viewBox="0 0 24 24" width="512" xmlns="http://www.w3.org/2000/svg"><path d="m20.34 8.97-13.41 13.4h-.01l-5.29-5.29v-.01l13.41-13.4z" fill="#90a4ae"/><path d="m22.78 6.52-2.44 2.45-5.3-5.3 2.44-2.45c1.07-1.07 2.81-1.07 3.89 0l1.41 1.41c1.07 1.08 1.07 2.82 0 3.89z" fill="#607d8b"/><path d="m6.92 22.37c-.1.1-.21.17-.34.2l-5.65 1.41-.18.02c-.2 0-.39-.08-.53-.22-.189-.19-.26-.46-.2-.71l1.41-5.65c.03-.13.1-.24.2-.34z" fill="#607d8b"/><path d="m15.04 3.67-13.41 13.4v.01l2.617 2.618 13.41-13.411z" fill="#7d8f97"/><g fill="#546d79"><path d="m19.421.417c-.704 0-1.406.267-1.941.802l-2.44 2.45 2.617 2.617 4.39-4.39-.677-.676c-.54-.535-1.245-.803-1.949-.803z"/><path d="m1.63 17.08c-.1.1-.17.21-.2.34l-1.41 5.65c-.057.238.004.494.173.682l4.054-4.054z"/></g></svg>