<svg enable-background="new 0 0 24 24" height="512" viewBox="0 0 24 24" width="512" xmlns="http://www.w3.org/2000/svg"><path d="m21.35 5.31c0 .6-.23 1.17-.66 1.59l-3.02 3.03-4.6-4.6 3.03-3.02c.85-.85 2.33-.86 3.18 0l1.41 1.41c.43.42.66.99.66 1.59z" fill="#607d8b"/><path d="m17.67 9.93-10.76 10.76c-.1.1-.23.17-.36.2l-4.63 1.09-.17.02c-.2 0-.39-.08-.53-.22-.18-.18-.26-.45-.2-.7l1.09-4.63c.03-.13.1-.26.2-.36l10.76-10.76z" fill="#90a4ae"/><path d="m17.695 1.669c-.584 0-1.169.215-1.595.641l-3.03 3.02 2.321 2.321 4.615-4.615-.726-.726c-.424-.429-1.004-.641-1.585-.641z" fill="#546d79"/><path d="m13.07 5.33-10.76 10.76c-.1.1-.17.23-.2.36l-1.09 4.63c-.06.25.02.52.2.7.007.007.014.014.022.021l14.15-14.15z" fill="#7d8f97"/><path d="m23 22h-13c-.552 0-1-.448-1-1s.448-1 1-1h13c.552 0 1 .448 1 1s-.448 1-1 1z" fill="#607d8b"/><path d="m16.5 20h-6.5c-.552 0-1 .448-1 1s.448 1 1 1h6.5z" fill="#546d79"/></svg>