<svg enable-background="new 0 0 24 24" height="512" viewBox="0 0 24 24" width="512" xmlns="http://www.w3.org/2000/svg"><path d="m1 24c-.256 0-.512-.098-.707-.293-.391-.391-.391-1.023 0-1.414l10.55-10.55c.391-.391 1.023-.391 1.414 0s.391 1.023 0 1.414l-10.55 10.55c-.195.195-.451.293-.707.293z" fill="#607d8b"/><path d="m11.55 11.45c-.256 0-.512.098-.707.293l-10.55 10.55c-.391.391-.391 1.023 0 1.414.001.001.002.002.004.004l11.964-11.964c-.001-.001-.002-.003-.004-.004-.195-.195-.451-.293-.707-.293z" fill="#546d79"/><path d="m16.25 0c-4.273 0-7.75 3.477-7.75 7.75s3.477 7.75 7.75 7.75 7.75-3.477 7.75-7.75-3.477-7.75-7.75-7.75z" fill="#4caf50"/><path d="m21.701 2.258c-3.022-3.022-7.938-3.022-10.96 0s-3.022 7.938 0 10.96z" fill="#429846"/><path d="m12.25 8.5c-.414 0-.75-.336-.75-.75 0-2.619 2.131-4.75 4.75-4.75.414 0 .75.336.75.75s-.336.75-.75.75c-1.792 0-3.25 1.458-3.25 3.25 0 .414-.336.75-.75.75z" fill="#fff"/><path d="m12.25 8.5c-.414 0-.75-.336-.75-.75 0-2.619 2.131-4.75 4.75-4.75.414 0 .75.336.75.75s-.336.75-.75.75c-1.792 0-3.25 1.458-3.25 3.25 0 .414-.336.75-.75.75z" fill="#dedede"/></svg>