<svg enable-background="new 0 0 24 24" height="512" viewBox="0 0 24 24" width="512" xmlns="http://www.w3.org/2000/svg"><path d="m1 24c-.256 0-.512-.098-.708-.293-.39-.391-.39-1.024.001-1.414l8.07-8.06c.391-.39 1.023-.39 1.414.001.39.391.39 1.024-.001 1.414l-8.07 8.06c-.195.194-.45.292-.706.292z" fill="#607d8b"/><path d="m23.487 7.584-7.071-7.071c-.683-.683-1.792-.682-2.475 0l-.976.977c-.69.689-.927 1.693-.619 2.619.127.383.029.798-.256 1.084l-2.867 2.866c-.235.236-.549.366-.883.366h-1.172c-.735 0-1.425.286-1.945.806l-.474.474c-.331.331-.513.77-.513 1.237s.182.907.513 1.237l7.071 7.071c.331.331.77.513 1.237.513s.907-.182 1.237-.513l.475-.475c.52-.52.806-1.21.806-1.945v-1.17c0-.334.13-.648.366-.884l2.867-2.866c.286-.287.701-.384 1.084-.256.923.307 1.928.072 2.619-.619l.977-.977c.682-.682.682-1.792-.001-2.474z" fill="#f44336"/><path d="m7.582 15.013-7.289 7.28c-.389.388-.391 1.018-.006 1.409l7.992-7.992z" fill="#546d79"/><path d="m15.179.001c-.448 0-.897.171-1.238.512l-.976.977c-.69.689-.927 1.693-.619 2.619.127.383.029.798-.256 1.084l-2.867 2.866c-.235.236-.549.366-.883.366h-1.172c-.735 0-1.425.286-1.945.806l-.474.474c-.331.331-.513.77-.513 1.237s.182.907.513 1.237l2.833 2.833.697.697 11.667-11.666-3.53-3.53c-.341-.341-.789-.512-1.237-.512z" fill="#d43a2f"/></svg>