<svg enable-background="new 0 0 24 24" height="512" viewBox="0 0 24 24" width="512" xmlns="http://www.w3.org/2000/svg"><path d="m21.5 10h-19c-.828 0-1.5.672-1.5 1.5v1c0 .828.672 1.5 1.5 1.5h19c.828 0 1.5-.672 1.5-1.5v-1c0-.828-.672-1.5-1.5-1.5z" fill="#4caf50"/><path d="m10 2.5v19c0 .828.672 1.5 1.5 1.5h1c.828 0 1.5-.672 1.5-1.5v-19c0-.828-.672-1.5-1.5-1.5h-1c-.828 0-1.5.672-1.5 1.5z" fill="#4caf50"/><g fill="#429846"><path d="m10 10h-7.5c-.828 0-1.5.672-1.5 1.5v1c0 .828.672 1.5 1.5 1.5h7.5z"/><path d="m12 1h-.5c-.828 0-1.5.672-1.5 1.5v7.5 4 7.5c0 .828.672 1.5 1.5 1.5h.5z"/></g></svg>