<svg enable-background="new 0 0 24 24" height="512" viewBox="0 0 24 24" width="512" xmlns="http://www.w3.org/2000/svg"><path d="m12 0c-6.617 0-12 5.383-12 12s5.383 12 12 12 12-5.383 12-12-5.383-12-12-12z" fill="#2196f3"/><path d="m17.25 13h-4.25v4.25c0 .553-.448 1-1 1s-1-.447-1-1v-4.25h-4.25c-.552 0-1-.447-1-1s.448-1 1-1h4.25v-4.25c0-.553.448-1 1-1s1 .447 1 1v4.25h4.25c.552 0 1 .447 1 1s-.448 1-1 1z" fill="#fafafa"/><path d="m12 0c-6.617 0-12 5.383-12 12s5.383 12 12 12v-5.75c-.552 0-1-.447-1-1v-4.25h-4.25c-.552 0-1-.447-1-1s.448-1 1-1h4.25v-4.25c0-.553.448-1 1-1z" fill="#1d83d4"/><path d="m12 5.75c-.552 0-1 .447-1 1v4.25h-4.25c-.552 0-1 .447-1 1s.448 1 1 1h4.25v4.25c0 .553.448 1 1 1z" fill="#dadada"/></svg>