<svg enable-background="new 0 0 24 24" height="512" viewBox="0 0 24 24" width="512" xmlns="http://www.w3.org/2000/svg"><path d="m17.25 0h-10.5c-1.519 0-2.75 1.231-2.75 2.75v4c0 .414.336.75.75.75h14.5c.414 0 .75-.336.75-.75v-4c0-1.519-1.231-2.75-2.75-2.75z" fill="#eceff1"/><path d="m21.25 6h-18.5c-1.517 0-2.75 1.233-2.75 2.75v6.5c0 1.517 1.233 2.75 2.75 2.75h18.5c1.517 0 2.75-1.233 2.75-2.75v-6.5c0-1.517-1.233-2.75-2.75-2.75z" fill="#2196f3"/><path d="m20 13.75v7.5c0 .67-.24 1.29-.63 1.76-.51.61-1.27.99-2.12.99h-10.5c-.9 0-1.71-.44-2.21-1.11-.34-.46-.54-1.02-.54-1.64v-7.5c0-.41.34-.75.75-.75h14.5c.41 0 .75.34.75.75z" fill="#eceff1"/><path d="m19.37 23.01c-.51.61-1.27.99-2.12.99h-10.5c-.9 0-1.71-.44-2.21-1.11l3.93-3.92c.14-.14.33-.22.53-.22s.39.08.53.22l1.399 1.4 2.511-2.86c.14-.17.34-.26.56-.26s.42.09.56.26z" fill="#4caf50"/><path d="m12 0h-5.25c-1.519 0-2.75 1.231-2.75 2.75v3.25h8z" fill="#cdd0d2"/><path d="m12 6h-8-1.25c-1.517 0-2.75 1.233-2.75 2.75v6.5c0 1.517 1.233 2.75 2.75 2.75h1.25v-4.25c0-.41.34-.75.75-.75h7.25z" fill="#1d83d4"/><path d="m12 13h-7.25c-.41 0-.75.34-.75.75v4.25 3.25c0 .62.2 1.18.54 1.64.5.67 1.31 1.11 2.21 1.11-.9 0-1.71-.44-2.21-1.11l3.93-3.92c.14-.14.33-.22.53-.22s.39.08.53.22l1.399 1.4 1.071-1.219z" fill="#cdd0d2"/><path d="m9 18.75c-.2 0-.39.08-.53.22l-3.93 3.92c.5.67 1.31 1.11 2.21 1.11h5.25v-4.849l-1.07 1.219-1.399-1.4c-.141-.14-.331-.22-.531-.22z" fill="#429846"/></svg>