<svg enable-background="new 0 0 24 24" height="512" viewBox="0 0 24 24" width="512" xmlns="http://www.w3.org/2000/svg"><path d="m17.25 0h-10.5c-1.519 0-2.75 1.231-2.75 2.75v4c0 .414.336.75.75.75h14.5c.414 0 .75-.336.75-.75v-4c0-1.519-1.231-2.75-2.75-2.75z" fill="#eceff1"/><path d="m21.25 6h-18.5c-1.517 0-2.75 1.233-2.75 2.75v6.5c0 1.517 1.233 2.75 2.75 2.75h18.5c1.517 0 2.75-1.233 2.75-2.75v-6.5c0-1.517-1.233-2.75-2.75-2.75z" fill="#607d8b"/><path d="m19.25 13h-14.5c-.414 0-.75.336-.75.75v7.5c0 1.517 1.233 2.75 2.75 2.75h10.5c1.517 0 2.75-1.233 2.75-2.75v-7.5c0-.414-.336-.75-.75-.75z" fill="#eceff1"/><path d="m16.25 18h-8.5c-.414 0-.75-.336-.75-.75s.336-.75.75-.75h8.5c.414 0 .75.336.75.75s-.336.75-.75.75z" fill="#90a4ae"/><path d="m16.25 21h-8.5c-.414 0-.75-.336-.75-.75s.336-.75.75-.75h8.5c.414 0 .75.336.75.75s-.336.75-.75.75z" fill="#90a4ae"/><path d="m12 0h-5.25c-1.519 0-2.75 1.231-2.75 2.75v3.25h8z" fill="#cdd0d2"/><path d="m12 6h-8-1.25c-1.517 0-2.75 1.233-2.75 2.75v6.5c0 1.517 1.233 2.75 2.75 2.75h1.25v-4.25c0-.414.336-.75.75-.75h7.25z" fill="#546d79"/><path d="m12 13h-7.25c-.414 0-.75.336-.75.75v4.25 3.25c0 1.517 1.233 2.75 2.75 2.75h5.25v-3h-4.25c-.414 0-.75-.336-.75-.75s.336-.75.75-.75h4.25v-1.5h-4.25c-.414 0-.75-.336-.75-.75s.336-.75.75-.75h4.25z" fill="#cdd0d2"/><g fill="#7d8f97"><path d="m12 16.5h-4.25c-.414 0-.75.336-.75.75s.336.75.75.75h4.25z"/><path d="m12 19.5h-4.25c-.414 0-.75.336-.75.75s.336.75.75.75h4.25z"/></g></svg>