<svg enable-background="new 0 0 24 24" height="512" viewBox="0 0 24 24" width="512" xmlns="http://www.w3.org/2000/svg"><path d="m12 0c-6.617 0-12 5.383-12 12s5.383 12 12 12 12-5.383 12-12-5.383-12-12-12z" fill="#ffc107"/><path d="m12 19c-.553 0-1-.447-1-1s.447-1 1-1 1 .447 1 1-.447 1-1 1z" fill="#eceff1"/><path d="m13.583 12.642c-.354.163-.583.52-.583.909v.449c0 .553-.447 1-1 1s-1-.447-1-1v-.449c0-1.167.685-2.236 1.745-2.726 1.019-.47 1.755-1.714 1.755-2.325 0-1.379-1.121-2.5-2.5-2.5s-2.5 1.121-2.5 2.5c0 .553-.447 1-1 1s-1-.447-1-1c0-2.481 2.019-4.5 4.5-4.5s4.5 2.019 4.5 4.5c0 1.351-1.172 3.338-2.917 4.142z" fill="#fafafa"/><path d="m12 0c-6.617 0-12 5.383-12 12s5.383 12 12 12v-5c-.553 0-1-.447-1-1s.447-1 1-1v-2c-.553 0-1-.447-1-1v-.449c0-.864.375-1.674 1-2.235v-5.316c-1.379 0-2.5 1.121-2.5 2.5 0 .553-.447 1-1 1s-1-.447-1-1c0-2.481 2.019-4.5 4.5-4.5z" fill="#dea806"/><path d="m12 17c-.553 0-1 .447-1 1s.447 1 1 1z" fill="#cdd0d2"/><path d="m12 11.316c-.625.561-1 1.371-1 2.235v.449c0 .553.447 1 1 1zm0-7.316c-2.481 0-4.5 2.019-4.5 4.5 0 .553.447 1 1 1s1-.447 1-1c0-1.379 1.121-2.5 2.5-2.5z" fill="#dadada"/></svg>