<svg enable-background="new 0 0 24 24" height="512" viewBox="0 0 24 24" width="512" xmlns="http://www.w3.org/2000/svg"><path d="m21.25 0h-18.5c-1.517 0-2.75 1.233-2.75 2.75v18.5c0 1.517 1.233 2.75 2.75 2.75h18.5c1.517 0 2.75-1.233 2.75-2.75v-18.5c0-1.517-1.233-2.75-2.75-2.75z" fill="#ffc107"/><path d="m12 19c-.552 0-1-.447-1-1s.448-1 1-1 1 .447 1 1-.448 1-1 1z" fill="#fafafa"/><path d="m13.605 12.412c-.368.158-.605.52-.605.92v.668c0 .553-.448 1-1 1s-1-.447-1-1v-.668c0-1.2.712-2.281 1.813-2.756 1.009-.435 1.687-1.553 1.687-2.326 0-1.379-1.122-2.5-2.5-2.5s-2.5 1.121-2.5 2.5c0 .553-.448 1-1 1s-1-.447-1-1c0-2.482 2.018-4.5 4.5-4.5s4.5 2.018 4.5 4.5c0 1.662-1.245 3.451-2.895 4.162z" fill="#fafafa"/><path d="m12 0h-9.25c-1.517 0-2.75 1.233-2.75 2.75v18.5c0 1.517 1.233 2.75 2.75 2.75h9.25v-5c-.552 0-1-.447-1-1s.448-1 1-1v-2c-.552 0-1-.447-1-1v-.668c0-.87.374-1.678 1-2.237v-5.345c-1.378 0-2.5 1.121-2.5 2.5 0 .553-.448 1-1 1s-1-.447-1-1c0-2.482 2.018-4.5 4.5-4.5z" fill="#dea806"/><g fill="#dadada"><path d="m12 17c-.552 0-1 .447-1 1s.448 1 1 1z"/><path d="m12 11.095c-.626.559-1 1.367-1 2.237v.668c0 .553.448 1 1 1zm0-7.345c-2.481 0-4.5 2.018-4.5 4.5 0 .553.448 1 1 1s1-.447 1-1c0-1.379 1.122-2.5 2.5-2.5z"/></g></svg>