<svg enable-background="new 0 0 24 24" height="512" viewBox="0 0 24 24" width="512" xmlns="http://www.w3.org/2000/svg"><path d="m22.205 6.648-4.833-4.832c-.519-.52-1.209-.807-1.944-.807h-6.835c-.735 0-1.426.287-1.944.807l-4.834 4.832c-.52.52-.806 1.21-.806 1.944v6.835c0 .734.286 1.425.806 1.944l4.833 4.833c.519.52 1.21.805 1.944.805h6.835c.734 0 1.425-.285 1.944-.805l4.833-4.833c.519-.519.805-1.21.805-1.944v-6.834c.001-.736-.285-1.425-.804-1.945z" fill="#f44336"/><path d="m16.419 15.006c.391.391.391 1.023 0 1.414-.195.195-.451.293-.707.293s-.512-.098-.707-.293l-3.005-3.006-3.005 3.006c-.195.195-.451.293-.707.293s-.512-.098-.707-.293c-.391-.391-.391-1.023 0-1.414l3.005-3.006-3.005-3.006c-.391-.391-.391-1.023 0-1.414s1.023-.391 1.414 0l3.005 3.006 3.005-3.006c.391-.391 1.024-.391 1.414 0 .391.391.391 1.023 0 1.414l-3.005 3.006z" fill="#fafafa"/><path d="m12 1.01h-3.407c-.735 0-1.426.287-1.944.807l-4.834 4.831c-.52.52-.806 1.21-.806 1.944v6.835c0 .734.286 1.425.806 1.944l4.833 4.833c.519.52 1.21.805 1.944.805h3.408v-9.596l-3.005 3.007c-.195.195-.451.293-.707.293s-.512-.098-.707-.293c-.391-.391-.391-1.023 0-1.414l3.005-3.006-3.005-3.006c-.391-.391-.391-1.023 0-1.414.195-.195.451-.293.707-.293s.512.098.707.293l3.005 3.006z" fill="#d43a2f"/><path d="m8.288 7.287c-.256 0-.512.098-.707.293-.391.391-.391 1.023 0 1.414l3.005 3.006-3.005 3.006c-.391.391-.391 1.023 0 1.414.195.195.451.293.707.293s.512-.098.707-.293l3.005-3.006v-2.828l-3.005-3.006c-.195-.195-.451-.293-.707-.293z" fill="#dadada"/></svg>