<svg enable-background="new 0 0 24 24" height="512" viewBox="0 0 24 24" width="512" xmlns="http://www.w3.org/2000/svg"><path d="m12 0c-6.617 0-12 5.383-12 12s5.383 12 12 12 12-5.383 12-12-5.383-12-12-12z" fill="#f44336"/><path d="m16.419 15.006c.391.391.391 1.023 0 1.414-.195.195-.451.293-.707.293s-.512-.098-.707-.293l-3.005-3.006-3.005 3.006c-.195.195-.451.293-.707.293s-.512-.098-.707-.293c-.391-.391-.391-1.023 0-1.414l3.005-3.006-3.005-3.006c-.391-.391-.391-1.023 0-1.414s1.023-.391 1.414 0l3.005 3.006 3.005-3.006c.391-.391 1.023-.391 1.414 0s.391 1.023 0 1.414l-3.005 3.006z" fill="#fafafa"/><path d="m12 0c-6.617 0-12 5.383-12 12s5.383 12 12 12v-10.586l-3.005 3.006c-.195.195-.451.293-.707.293s-.512-.098-.707-.293c-.391-.391-.391-1.023 0-1.414l3.005-3.006-3.005-3.006c-.391-.391-.391-1.023 0-1.414.195-.195.451-.293.707-.293s.511.098.707.293l3.005 3.006z" fill="#d43a2f"/><path d="m8.288 7.287c-.256 0-.512.098-.707.293-.391.391-.391 1.023 0 1.414l3.005 3.006-3.005 3.006c-.391.391-.391 1.023 0 1.414.195.195.451.293.707.293s.512-.098.707-.293l3.005-3.006v-2.828l-3.005-3.006c-.196-.195-.452-.293-.707-.293z" fill="#dadada"/></svg>