<svg enable-background="new 0 0 24 24" height="512" viewBox="0 0 24 24" width="512" xmlns="http://www.w3.org/2000/svg"><path d="m21.25 0h-18.5c-1.517 0-2.75 1.233-2.75 2.75v18.5c0 1.517 1.233 2.75 2.75 2.75h18.5c1.517 0 2.75-1.233 2.75-2.75v-18.5c0-1.517-1.233-2.75-2.75-2.75z" fill="#f44336"/><path d="m16.419 15.006c.391.391.391 1.023 0 1.414-.195.195-.451.293-.707.293s-.512-.098-.707-.293l-3.005-3.006-3.005 3.006c-.195.195-.451.293-.707.293s-.512-.098-.707-.293c-.391-.391-.391-1.023 0-1.414l3.005-3.006-3.005-3.006c-.391-.391-.391-1.023 0-1.414s1.023-.391 1.414 0l3.005 3.006 3.005-3.006c.391-.391 1.023-.391 1.414 0s.391 1.023 0 1.414l-3.005 3.006z" fill="#fafafa"/><path d="m12 0h-9.25c-1.517 0-2.75 1.233-2.75 2.75v18.5c0 1.517 1.233 2.75 2.75 2.75h9.25v-10.586l-3.005 3.006c-.195.195-.451.293-.707.293s-.512-.098-.707-.293c-.391-.391-.391-1.023 0-1.414l3.005-3.006-3.005-3.006c-.391-.391-.391-1.023 0-1.414.195-.195.451-.293.707-.293s.512.098.707.293l3.005 3.006z" fill="#d43a2f"/><path d="m8.288 7.287c-.256 0-.512.098-.707.293-.391.391-.391 1.023 0 1.414l3.005 3.006-3.005 3.006c-.391.391-.391 1.023 0 1.414.195.195.451.293.707.293s.512-.098.707-.293l3.005-3.006v-2.828l-3.005-3.006c-.195-.195-.451-.293-.707-.293z" fill="#dadada"/></svg>