<svg enable-background="new 0 0 24 24" height="512" viewBox="0 0 24 24" width="512" xmlns="http://www.w3.org/2000/svg"><g fill="#4caf50"><path d="m16.639 19.77c-.168 0-.338-.042-.494-.131l-9.279-5.29c-.479-.273-.647-.884-.374-1.364.272-.48.884-.649 1.364-.374l9.279 5.29c.479.273.647.884.374 1.364-.185.324-.523.505-.87.505z"/><path d="m7.361 11.52c-.348 0-.686-.181-.87-.505-.273-.479-.105-1.09.374-1.364l9.279-5.29c.479-.275 1.09-.107 1.364.374.273.479.105 1.09-.374 1.364l-9.279 5.29c-.156.089-.326.131-.494.131z"/><path d="m19 8c2.206 0 4-1.795 4-4s-1.794-4-4-4-4 1.795-4 4 1.794 4 4 4z"/><path d="m19 16c-2.206 0-4 1.795-4 4s1.794 4 4 4 4-1.795 4-4-1.794-4-4-4z"/><path d="m5 8c-2.206 0-4 1.795-4 4s1.794 4 4 4 4-1.795 4-4-1.794-4-4-4z"/></g><g fill="#429846"><path d="m19 0c-2.206 0-4 1.795-4 4s1.794 4 4 4z"/><path d="m19 16c-2.206 0-4 1.795-4 4s1.794 4 4 4z"/><path d="m5 8c-2.206 0-4 1.795-4 4s1.794 4 4 4z"/></g></svg>