<svg enable-background="new 0 0 24 24" height="512" viewBox="0 0 24 24" width="512" xmlns="http://www.w3.org/2000/svg"><path d="m21 24h-18c-1.654 0-3-1.346-3-3v-8c0-.553.447-1 1-1s1 .447 1 1v8c0 .551.448 1 1 1h18c.552 0 1-.449 1-1v-14c0-.551-.448-1-1-1h-3c-.553 0-1-.447-1-1s.447-1 1-1h3c1.654 0 3 1.346 3 3v14c0 1.654-1.346 3-3 3z" fill="#607d8b"/><path d="m8.25 4h-.25v-3.25c0-.307-.186-.581-.47-.695-.283-.116-.609-.047-.82.175l-6.5 6.75c-.28.289-.28.75 0 1.039l6.5 6.75c.212.222.539.291.82.176.284-.114.47-.388.47-.695v-3.25h1.188c3.145 0 5.973 1.748 7.382 4.566l.013.024c.129.256.39.41.667.41l.175-.021c.338-.081.575-.382.575-.729v-1.5c0-5.376-4.374-9.75-9.75-9.75z" fill="#2196f3"/><path d="m1 12c-.553 0-1 .447-1 1v8c0 1.654 1.346 3 3 3h9v-2h-9c-.552 0-1-.449-1-1v-8c0-.553-.447-1-1-1z" fill="#546d79"/><path d="m7.273 0h-.049c-.191.006-.377.086-.514.23l-6.5 6.75c-.136.141-.206.322-.21.505v.03c.004.183.074.364.21.505l6.5 6.75c.144.15.341.23.541.23.094 0 .189-.018.28-.055.283-.114.469-.388.469-.695v-3.25h1.188c.979 0 1.928.169 2.812.488v-6.738c-1.155-.483-2.422-.75-3.75-.75h-.25v-3.25c0-.307-.186-.581-.47-.695-.083-.034-.17-.052-.257-.055z" fill="#1d83d4"/></svg>