<svg enable-background="new 0 0 24 24" height="512" viewBox="0 0 24 24" width="512" xmlns="http://www.w3.org/2000/svg"><path d="m12 9c-1.654 0-3 1.346-3 3 0 1.302.838 2.401 2 2.815v8.185c0 .553.448 1 1 1s1-.447 1-1v-8.185c1.162-.414 2-1.514 2-2.815 0-1.654-1.346-3-3-3z" fill="#607d8b"/><path d="m12-.037c-6.617 0-12 5.384-12 12 0 3.211 1.25 6.223 3.521 8.482.393.391 1.026.389 1.415-.003.39-.392.388-1.024-.004-1.415-1.891-1.88-2.932-4.389-2.932-7.064 0-5.514 4.486-10 10-10s10 4.486 10 10c0 2.675-1.041 5.184-2.932 7.065-.391.391-.393 1.023-.003 1.415.196.196.452.294.709.294.255 0 .51-.097.706-.291 2.27-2.26 3.52-5.272 3.52-8.483 0-6.616-5.383-12-12-12z" fill="#2196f3"/><path d="m12 3.963c-4.411 0-8 3.59-8 8 0 2.141.836 4.148 2.352 5.654.392.387 1.025.386 1.415-.006.389-.393.386-1.025-.006-1.414-1.135-1.127-1.761-2.631-1.761-4.234 0-3.309 2.692-6 6-6 3.309 0 6 2.691 6 6 0 1.604-.625 3.107-1.761 4.234-.392.389-.394 1.021-.005 1.414.196.197.453.295.71.295.254 0 .509-.096.705-.289 1.515-1.506 2.351-3.513 2.351-5.654 0-4.41-3.589-8-8-8z" fill="#2196f3"/><path d="m12 9c-1.654 0-3 1.346-3 3 0 1.302.838 2.401 2 2.815v8.185c0 .553.448 1 1 1z" fill="#546d79"/><g fill="#1d83d4"><path d="m12 0h-.949c-6.174.486-11.051 5.666-11.051 11.963 0 3.211 1.25 6.223 3.521 8.482.196.195.451.292.706.292.257 0 .513-.098.708-.295.39-.392.388-1.024-.004-1.415-1.89-1.88-2.931-4.389-2.931-7.064 0-5.514 4.486-10 10-10z"/><path d="m12 3.963c-4.411 0-8 3.59-8 8 0 2.141.836 4.148 2.352 5.654.195.193.45.289.705.289.257 0 .514-.098.71-.295.389-.393.386-1.025-.006-1.414-1.135-1.127-1.761-2.631-1.761-4.234 0-3.309 2.692-6 6-6z"/></g></svg>