<svg enable-background="new 0 0 24 24" height="512" viewBox="0 0 24 24" width="512" xmlns="http://www.w3.org/2000/svg"><path d="m23.937 9.191c-.157-.486-.588-.831-1.098-.877l-6.927-.629-2.739-6.411c-.202-.47-.662-.774-1.173-.774s-.971.304-1.173.775l-2.739 6.41-6.928.629c-.509.047-.939.391-1.097.877s-.012 1.019.373 1.355l5.236 4.592-1.544 6.801c-.113.5.081 1.017.496 1.317.223.161.484.243.747.243.227 0 .452-.061.654-.182l5.975-3.571 5.973 3.571c.436.263.988.239 1.402-.061.415-.301.609-.818.496-1.317l-1.544-6.801 5.236-4.591c.385-.337.532-.869.374-1.356z" fill="#ffc107"/><path d="m12 .5c-.511 0-.971.304-1.173.775l-2.739 6.41-6.928.629c-.509.047-.939.391-1.097.877s-.012 1.019.373 1.355l5.236 4.592-1.544 6.801c-.113.5.081 1.017.496 1.317.223.161.484.243.747.243.227 0 .452-.061.654-.182l5.975-3.571z" fill="#dea806"/></svg>