<svg enable-background="new 0 0 24 24" height="512" viewBox="0 0 24 24" width="512" xmlns="http://www.w3.org/2000/svg"><path d="m21 0h-18c-1.657 0-3 1.343-3 3v18c0 1.657 1.343 3 3 3h18c1.657 0 3-1.343 3-3v-18c0-1.657-1.343-3-3-3zm-5 15c0 .552-.448 1-1 1h-6c-.552 0-1-.448-1-1v-6c0-.552.448-1 1-1h6c.552 0 1 .448 1 1z" fill="#2196f3"/><path d="m12 0h-9c-1.657 0-3 1.343-3 3v18c0 1.657 1.343 3 3 3h9v-8h-3c-.552 0-1-.448-1-1v-6c0-.552.448-1 1-1h3z" fill="#1d83d4"/><path d="m12 8h-3c-.552 0-1 .448-1 1v6c0 .552.448 1 1 1h3z" fill="#dedede"/></svg>