<svg enable-background="new 0 0 24 24" height="512" viewBox="0 0 24 24" width="512" xmlns="http://www.w3.org/2000/svg"><path d="m12 0c-6.627 0-12 5.372-12 12 0 6.627 5.373 12 12 12s12-5.373 12-12c0-6.628-5.373-12-12-12z" fill="#2196f3"/><path d="m19.75 14h-7.75c-.553 0-1-.448-1-1v-7.75c0-.552.447-1 1-1s1 .448 1 1v6.75h6.75c.553 0 1 .448 1 1s-.447 1-1 1z" fill="#fafafa"/><path d="m12 0c-6.627 0-12 5.372-12 12 0 6.627 5.373 12 12 12v-10c-.553 0-1-.448-1-1v-7.75c0-.552.447-1 1-1z" fill="#1d83d4"/><path d="m12 4.25c-.553 0-1 .448-1 1v7.75c0 .552.447 1 1 1z" fill="#dadada"/></svg>