<svg enable-background="new 0 0 24 24" height="512" viewBox="0 0 24 24" width="512" xmlns="http://www.w3.org/2000/svg"><path d="m15.25 0h-6.5c-.965 0-1.75.785-1.75 1.75v2c0 .414.336.75.75.75s.75-.336.75-.75v-2c0-.138.112-.25.25-.25h6.5c.138 0 .25.112.25.25v2c0 .414.336.75.75.75s.75-.336.75-.75v-2c0-.965-.785-1.75-1.75-1.75z" fill="#90a4ae"/><path d="m20.25 7.5c-.414 0-.75.336-.75.75h-15c0-.414-.336-.75-.75-.75s-.75.336-.75.75v13c0 1.517 1.233 2.75 2.75 2.75h12.5c1.517 0 2.75-1.233 2.75-2.75v-13c0-.414-.336-.75-.75-.75z" fill="#eceff1"/><path d="m20.25 3h-16.5c-1.517 0-2.75 1.233-2.75 2.75v2.5c0 .414.336.75.75.75h20.5c.414 0 .75-.336.75-.75v-2.5c0-1.517-1.233-2.75-2.75-2.75z" fill="#607d8b"/><path d="m12 0h-3.25c-.965 0-1.75.785-1.75 1.75v1.25h1.5v-1.25c0-.138.112-.25.25-.25h3.25z" fill="#7d8f97"/><path d="m12 9h-9v12.25c0 1.517 1.233 2.75 2.75 2.75h6.25z" fill="#cdd0d2"/><path d="m12 3h-3.5-1.5-3.25c-1.517 0-2.75 1.233-2.75 2.75v2.5c0 .414.336.75.75.75h1.25 9z" fill="#546d79"/><g fill="#607d8b"><path d="m12 20c-.414 0-.75-.336-.75-.75v-6.5c0-.414.336-.75.75-.75s.75.336.75.75v6.5c0 .414-.336.75-.75.75z"/><path d="m16.25 20c-.414 0-.75-.336-.75-.75v-6.5c0-.414.336-.75.75-.75s.75.336.75.75v6.5c0 .414-.336.75-.75.75z"/><path d="m7.75 20c-.414 0-.75-.336-.75-.75v-6.5c0-.414.336-.75.75-.75s.75.336.75.75v6.5c0 .414-.336.75-.75.75z"/></g><g fill="#546d79"><path d="m7.75 12c-.414 0-.75.336-.75.75v6.5c0 .414.336.75.75.75z"/><path d="m12 12c-.414 0-.75.336-.75.75v6.5c0 .414.336.75.75.75z"/><path d="m16.25 12c-.414 0-.75.336-.75.75v6.5c0 .414.336.75.75.75z"/></g></svg>