<svg enable-background="new 0 0 24 24" height="512" viewBox="0 0 24 24" width="512" xmlns="http://www.w3.org/2000/svg"><path d="m16.924 5.383c-.155.373-.52.617-.924.617h-3v10c0 .553-.447 1-1 1s-1-.447-1-1v-10h-3c-.404 0-.77-.244-.924-.617-.154-.374-.069-.804.217-1.09l4-4c.391-.391 1.023-.391 1.414 0l4 4c.286.286.371.716.217 1.09z" fill="#4caf50"/><path d="m21 24h-18c-1.654 0-3-1.346-3-3v-4c0-.553.447-1 1-1s1 .447 1 1v4c0 .551.449 1 1 1h18c.551 0 1-.449 1-1v-4c0-.553.447-1 1-1s1 .447 1 1v4c0 1.654-1.346 3-3 3z" fill="#607d8b"/><path d="m12 0c-.256 0-.512.098-.707.293l-4 4c-.286.286-.371.716-.217 1.09.154.373.52.617.924.617h3v10c0 .553.447 1 1 1z" fill="#429846"/><path d="m1 16c-.553 0-1 .447-1 1v4c0 1.654 1.346 3 3 3h9v-2h-9c-.551 0-1-.449-1-1v-4c0-.553-.447-1-1-1z" fill="#546d79"/></svg>