<svg enable-background="new 0 0 24 24" height="512" viewBox="0 0 24 24" width="512" xmlns="http://www.w3.org/2000/svg"><path d="m12 0c-6.617 0-12 5.383-12 12s5.383 12 12 12 12-5.383 12-12-5.383-12-12-12z" fill="#4caf50"/><path d="m12 19c-.552 0-1-.447-1-1s.448-1 1-1 1 .447 1 1-.448 1-1 1z" fill="#eceff1"/><path d="m13 14c0 .553-.448 1-1 1s-1-.447-1-1v-8c0-.553.448-1 1-1s1 .447 1 1z" fill="#fafafa"/><path d="m12 0c-6.617 0-12 5.383-12 12s5.383 12 12 12v-5c-.552 0-1-.447-1-1s.448-1 1-1v-2c-.552 0-1-.447-1-1v-8c0-.553.448-1 1-1z" fill="#429846"/><path d="m12 17c-.552 0-1 .447-1 1s.448 1 1 1z" fill="#cdd0d2"/><path d="m12 5c-.552 0-1 .447-1 1v8c0 .553.448 1 1 1z" fill="#dadada"/></svg>