<svg enable-background="new 0 0 24 24" height="512" viewBox="0 0 24 24" width="512" xmlns="http://www.w3.org/2000/svg"><path d="m21.25 0h-18.5c-1.517 0-2.75 1.233-2.75 2.75v18.5c0 1.517 1.233 2.75 2.75 2.75h18.5c1.517 0 2.75-1.233 2.75-2.75v-18.5c0-1.517-1.233-2.75-2.75-2.75z" fill="#2196f3"/><path d="m12 19c-.552 0-1-.447-1-1s.448-1 1-1 1 .447 1 1-.448 1-1 1z" fill="#fafafa"/><path d="m13 14c0 .553-.448 1-1 1s-1-.447-1-1v-8c0-.553.448-1 1-1s1 .447 1 1z" fill="#fafafa"/><path d="m12 0h-9.25c-1.517 0-2.75 1.233-2.75 2.75v18.5c0 1.517 1.233 2.75 2.75 2.75h9.25v-5c-.552 0-1-.447-1-1s.448-1 1-1v-2c-.552 0-1-.447-1-1v-8c0-.553.448-1 1-1z" fill="#1d83d4"/><g fill="#dadada"><path d="m12 17c-.552 0-1 .447-1 1s.448 1 1 1z"/><path d="m12 5c-.552 0-1 .447-1 1v8c0 .553.448 1 1 1z"/></g></svg>