<svg enable-background="new 0 0 24 24" height="512" viewBox="0 0 24 24" width="512" xmlns="http://www.w3.org/2000/svg"><path d="m20.25 4h-11c-.414 0-.75.336-.75.75v10.5c0 .965.785 1.75 1.75 1.75h10c.965 0 1.75-.785 1.75-1.75v-9.5c0-.965-.785-1.75-1.75-1.75z" fill="#1976d2"/><path d="m15.25 4h-6c-.414 0-.75.336-.75.75v10.5c0 .965.785 1.75 1.75 1.75h5z" fill="#1667b7"/><path d="m13.25 0h-10.5c-.414 0-.75.336-.75.75v11.5c0 .414.336.75.75.75h10.5c.965 0 1.75-.785 1.75-1.75v-9.5c0-.965-.785-1.75-1.75-1.75z" fill="#2196f3"/><path d="m8.5 0h-5.75c-.414 0-.75.336-.75.75v11.5c0 .414.336.75.75.75h5.75z" fill="#1d83d4"/><path d="m3 24c-.553 0-1-.448-1-1v-22c0-.552.447-1 1-1s1 .448 1 1v22c0 .552-.447 1-1 1z" fill="#607d8b"/><path d="m3 0c-.553 0-1 .448-1 1v22c0 .552.447 1 1 1z" fill="#546d79"/></svg>