<svg height="512pt" viewBox="0 -32 512.00533 512" width="512pt" xmlns="http://www.w3.org/2000/svg"><g fill="#42a5f5"><path d="m85.339844 106.675781c-5.460938 0-10.925782-2.089843-15.082032-6.25l-64-64c-8.34375-8.34375-8.34375-21.824219 0-30.167969 8.339844-8.339843 21.820313-8.339843 30.164063 0l64 64c8.339844 8.34375 8.339844 21.824219 0 30.167969-4.160156 4.160157-9.621094 6.25-15.082031 6.25zm0 0"/><path d="m21.339844 106.675781c-5.460938 0-10.925782-2.089843-15.082032-6.25-8.34375-8.34375-8.34375-21.824219 0-30.167969l64-64c8.339844-8.339843 21.820313-8.339843 30.164063 0 8.339844 8.34375 8.339844 21.824219 0 30.167969l-64 64c-4.160156 4.160157-9.621094 6.25-15.082031 6.25zm0 0"/><path d="m85.339844 277.339844c-5.460938 0-10.925782-2.089844-15.082032-6.25l-64-64c-8.34375-8.339844-8.34375-21.824219 0-30.164063 8.339844-8.339843 21.820313-8.339843 30.164063 0l64 64c8.339844 8.339844 8.339844 21.824219 0 30.164063-4.160156 4.160156-9.621094 6.25-15.082031 6.25zm0 0"/><path d="m21.339844 277.339844c-5.460938 0-10.925782-2.089844-15.082032-6.25-8.34375-8.339844-8.34375-21.824219 0-30.164063l64-64c8.339844-8.339843 21.820313-8.339843 30.164063 0 8.339844 8.339844 8.339844 21.824219 0 30.164063l-64 64c-4.160156 4.160156-9.621094 6.25-15.082031 6.25zm0 0"/><path d="m85.339844 448.007812c-5.460938 0-10.925782-2.089843-15.082032-6.25l-64-64c-8.34375-8.34375-8.34375-21.824218 0-30.164062 8.339844-8.34375 21.820313-8.34375 30.164063 0l64 64c8.339844 8.339844 8.339844 21.820312 0 30.164062-4.160156 4.160157-9.621094 6.25-15.082031 6.25zm0 0"/><path d="m21.339844 448.007812c-5.460938 0-10.925782-2.089843-15.082032-6.25-8.34375-8.34375-8.34375-21.824218 0-30.164062l64-64c8.339844-8.34375 21.820313-8.34375 30.164063 0 8.339844 8.339844 8.339844 21.820312 0 30.164062l-64 64c-4.160156 4.160157-9.621094 6.25-15.082031 6.25zm0 0"/></g><path d="m490.671875 64.007812h-320c-11.777344 0-21.332031-9.558593-21.332031-21.332031 0-11.777343 9.554687-21.335937 21.332031-21.335937h320c11.777344 0 21.332031 9.558594 21.332031 21.335937 0 11.773438-9.554687 21.332031-21.332031 21.332031zm0 0" fill="#607d8b"/><path d="m490.671875 234.675781h-320c-11.777344 0-21.332031-9.558593-21.332031-21.335937 0-11.773438 9.554687-21.332032 21.332031-21.332032h320c11.777344 0 21.332031 9.558594 21.332031 21.332032 0 11.777344-9.554687 21.335937-21.332031 21.335937zm0 0" fill="#607d8b"/><path d="m490.671875 405.339844h-320c-11.777344 0-21.332031-9.554688-21.332031-21.332032 0-11.777343 9.554687-21.332031 21.332031-21.332031h320c11.777344 0 21.332031 9.554688 21.332031 21.332031 0 11.777344-9.554687 21.332032-21.332031 21.332032zm0 0" fill="#607d8b"/></svg>