<svg height="512pt" viewBox="0 0 512 512" width="512pt" xmlns="http://www.w3.org/2000/svg"><g fill="#607d8b"><path d="m384 512c-11.796875 0-21.332031-9.558594-21.332031-21.332031v-320c0-11.757813-9.558594-21.335938-21.335938-21.335938h-320c-11.796875 0-21.332031-9.554687-21.332031-21.332031s9.535156-21.332031 21.332031-21.332031h320c35.285157 0 64 28.714843 64 64v320c0 11.773437-9.535156 21.332031-21.332031 21.332031zm0 0"/><path d="m490.667969 405.332031h-320c-35.285157 0-64-28.714843-64-64v-320c0-11.773437 9.535156-21.332031 21.332031-21.332031s21.332031 9.558594 21.332031 21.332031v320c0 11.757813 9.558594 21.335938 21.335938 21.335938h320c11.796875 0 21.332031 9.554687 21.332031 21.332031s-9.535156 21.332031-21.332031 21.332031zm0 0"/></g></svg>