<svg height="451pt" viewBox="0 -21 451.62667 451" width="451pt" xmlns="http://www.w3.org/2000/svg"><path d="m451.625 168.554688c0 17.066406-6.613281 33.066406-18.773438 45.226562l-79.144531 79.144531-195.414062-195.414062 79.148437-79.144531c23.679688-24.105469 66.984375-24.105469 90.878906.214843l104.53125 104.53125c12.160157 12.160157 18.773438 28.375 18.773438 45.441407zm0 0" fill="#42a5f5"/><path d="m353.707031 292.925781-96.214843 96h-177.277344l-61.441406-61.226562c-11.945313-11.945313-18.773438-27.945313-18.773438-45.226563 0-17.492187 6.828125-33.492187 18.988281-45.652344l139.304688-139.308593zm0 0" fill="#eceff1"/><path d="m410.667969 410.261719h-384c-11.777344 0-21.335938-9.558594-21.335938-21.335938 0-11.773437 9.558594-21.332031 21.335938-21.332031h384c11.773437 0 21.332031 9.558594 21.332031 21.332031 0 11.777344-9.558594 21.335938-21.332031 21.335938zm0 0" fill="#607d8b"/></svg>