<svg height="511pt" viewBox="0 -21 511.95467 511" width="511pt" xmlns="http://www.w3.org/2000/svg"><path d="m506.675781 208.417969c-41.621093-100.394531-140.03125-165.269531-250.707031-165.269531-61.910156 0-119.957031 20.332031-166.402344 55.765624l93.164063 93.164063c14.847656-25.152344 41.960937-42.261719 73.238281-42.261719 47.0625 0 85.332031 38.273438 85.332031 85.332032 0 31.277343-17.109375 58.390624-42.261719 73.238281l86.484376 86.484375c53.675781-28.605469 97.003906-74.75 121.132812-133.011719 7.0625-16.960937 7.0625-36.460937.019531-53.441406zm0 0" fill="#2196f3"/><path d="m264.96875 319.566406c-2.984375.320313-5.90625.917969-9 .917969-47.0625 0-85.335938-38.273437-85.335938-85.335937 0-3.09375.597657-6.015626.917969-9l-106.152343-106.15625c-25.34375 24.703124-46.058594 54.464843-60.117188 88.425781-7.042969 16.980469-7.042969 36.460937 0 53.460937 41.597656 100.394532 140.007812 165.269532 250.6875 165.269532 34.496094 0 67.796875-6.3125 98.558594-18.027344zm0 0" fill="#2196f3"/><path d="m469.300781 469.816406c-5.460937 0-10.921875-2.089844-15.082031-6.25l-426.667969-426.667968c-8.339843-8.339844-8.339843-21.824219 0-30.164063 8.34375-8.34375 21.824219-8.34375 30.167969 0l426.664062 426.664063c8.34375 8.34375 8.34375 21.824218 0 30.167968-4.160156 4.160156-9.621093 6.25-15.082031 6.25zm0 0" fill="#607d8b"/></svg>