<svg height="517pt" viewBox="0 -45 517.33333 517" width="517pt" xmlns="http://www.w3.org/2000/svg"><g fill="#607d8b"><path d="m197.332031 426.832031c-11.796875 0-21.332031-9.554687-21.332031-21.332031v-384c0-11.777344 9.535156-21.332031 21.332031-21.332031s21.335938 9.554687 21.335938 21.332031v384c0 11.777344-9.539063 21.332031-21.335938 21.332031zm0 0"/><path d="m368 85.5c-11.796875 0-21.332031-9.558594-21.332031-21.332031v-21.335938h-304v21.335938c0 11.773437-9.539063 21.332031-21.335938 21.332031s-21.332031-9.558594-21.332031-21.332031v-42.667969c0-11.777344 9.535156-21.332031 21.332031-21.332031h346.667969c11.796875 0 21.332031 9.554687 21.332031 21.332031v42.667969c0 11.773437-9.535156 21.332031-21.332031 21.332031zm0 0"/><path d="m240 426.832031h-85.332031c-11.796875 0-21.335938-9.554687-21.335938-21.332031s9.539063-21.332031 21.335938-21.332031h85.332031c11.796875 0 21.332031 9.554687 21.332031 21.332031s-9.535156 21.332031-21.332031 21.332031zm0 0"/></g><path d="m325.332031 272.167969c-11.796875 0-21.332031-9.558594-21.332031-21.335938v-37.332031c0-11.777344 9.535156-21.332031 21.332031-21.332031h170.667969c11.796875 0 21.332031 9.554687 21.332031 21.332031v32c0 11.777344-9.535156 21.332031-21.332031 21.332031s-21.332031-9.554687-21.332031-21.332031v-10.667969h-128v16c0 11.777344-9.539063 21.335938-21.335938 21.335938zm0 0" fill="#42a5f5"/><path d="m410.667969 426.832031c-11.796875 0-21.335938-9.554687-21.335938-21.332031v-192c0-11.777344 9.539063-21.332031 21.335938-21.332031s21.332031 9.554687 21.332031 21.332031v192c0 11.777344-9.535156 21.332031-21.332031 21.332031zm0 0" fill="#42a5f5"/><path d="m442.667969 426.832031h-64c-11.796875 0-21.335938-9.554687-21.335938-21.332031s9.539063-21.332031 21.335938-21.332031h64c11.796875 0 21.332031 9.554687 21.332031 21.332031s-9.535156 21.332031-21.332031 21.332031zm0 0" fill="#42a5f5"/></svg>