<svg height="469pt" viewBox="0 -21 469.33333 469" width="469pt" xmlns="http://www.w3.org/2000/svg"><g fill="#4caf50"><path d="m281.023438 426.859375c-1.8125 0-3.691407-.234375-5.546876-.746094-11.371093-3.050781-18.132812-14.742187-15.082031-26.132812l102.996094-384c3.050781-11.351563 14.722656-18.132813 26.132813-15.082031 11.371093 3.050781 18.136718 14.742187 15.085937 26.132812l-103 384c-2.539063 9.558594-11.175781 15.828125-20.585937 15.828125zm0 0"/><path d="m85.332031 426.859375c-1.8125 0-3.6875-.234375-5.546875-.746094-11.371094-3.050781-18.132812-14.742187-15.082031-26.132812l103-384c3.050781-11.351563 14.695313-18.132813 26.132813-15.082031 11.371093 3.050781 18.132812 14.742187 15.082031 26.132812l-102.996094 384c-2.539063 9.558594-11.160156 15.828125-20.589844 15.828125zm0 0"/><path d="m405.332031 320.195312h-384c-11.773437 0-21.332031-9.558593-21.332031-21.335937 0-11.773437 9.558594-21.332031 21.332031-21.332031h384c11.777344 0 21.335938 9.558594 21.335938 21.332031 0 11.777344-9.558594 21.335937-21.335938 21.335937zm0 0"/><path d="m448 149.527344h-384c-11.777344 0-21.332031-9.558594-21.332031-21.332032 0-11.777343 9.554687-21.335937 21.332031-21.335937h384c11.777344 0 21.332031 9.558594 21.332031 21.335937 0 11.773438-9.554687 21.332032-21.332031 21.332032zm0 0"/></g></svg>