<svg height="426pt" viewBox="-64 0 426 426.66667" width="426pt" xmlns="http://www.w3.org/2000/svg"><g fill="#607d8b"><path d="m64.332031 426.667969c-11.773437 0-21.332031-9.558594-21.332031-21.335938v-298.664062c0-58.816407 47.851562-106.667969 106.667969-106.667969 58.816406 0 106.664062 47.851562 106.664062 106.667969v21.332031c0 11.777344-9.554687 21.332031-21.332031 21.332031s-21.332031-9.554687-21.332031-21.332031v-21.332031c0-35.285157-28.714844-64-64-64-35.285157 0-64 28.714843-64 64v298.664062c0 11.777344-9.558594 21.335938-21.335938 21.335938zm0 0"/><path d="m107 426.667969h-85.332031c-11.777344 0-21.335938-9.558594-21.335938-21.335938 0-11.773437 9.558594-21.332031 21.335938-21.332031h85.332031c11.777344 0 21.332031 9.558594 21.332031 21.332031 0 11.777344-9.554687 21.335938-21.332031 21.335938zm0 0"/><path d="m235 426.667969c-11.777344 0-21.332031-9.558594-21.332031-21.335938v-192c0-11.773437 9.554687-21.332031 21.332031-21.332031s21.332031 9.558594 21.332031 21.332031v192c0 11.777344-9.554687 21.335938-21.332031 21.335938zm0 0"/><path d="m277.667969 426.667969h-85.335938c-11.773437 0-21.332031-9.558594-21.332031-21.335938 0-11.773437 9.558594-21.332031 21.332031-21.332031h85.335938c11.773437 0 21.332031 9.558594 21.332031 21.332031 0 11.777344-9.558594 21.335938-21.332031 21.335938zm0 0"/><path d="m277.667969 234.667969h-256c-11.777344 0-21.335938-9.558594-21.335938-21.335938 0-11.773437 9.558594-21.332031 21.335938-21.332031h256c11.773437 0 21.332031 9.558594 21.332031 21.332031 0 11.777344-9.558594 21.335938-21.332031 21.335938zm0 0"/></g></svg>