<svg height="490pt" viewBox="0 -10 490.66667 490" width="490pt" xmlns="http://www.w3.org/2000/svg"><g fill="#4caf50"><path d="m69.332031 299h-53.332031c-8.832031 0-16-7.167969-16-16v-26.667969c0-20.585937 16.746094-37.332031 37.332031-37.332031h10.667969c2.945312 0 5.332031-2.390625 5.332031-5.332031v-5.335938c0-2.941406-2.386719-5.332031-5.332031-5.332031h-32c-8.832031 0-16-7.167969-16-16s7.167969-16 16-16h32c20.585938 0 37.332031 16.746094 37.332031 37.332031v5.335938c0 20.585937-16.746093 37.332031-37.332031 37.332031h-10.667969c-2.941406 0-5.332031 2.390625-5.332031 5.332031v10.667969h37.332031c8.832031 0 16 7.167969 16 16s-7.167969 16-16 16zm0 0"/><path d="m48 421.667969h-21.332031c-8.832031 0-16-7.167969-16-16s7.167969-16 16-16h21.332031c2.945312 0 5.332031-2.390625 5.332031-5.335938v-5.332031c0-2.945312-2.386719-5.332031-5.332031-5.332031h-32c-8.832031 0-16-7.167969-16-16s7.167969-16 16-16h32c20.585938 0 37.332031 16.746093 37.332031 37.332031v5.332031c0 20.589844-16.746093 37.335938-37.332031 37.335938zm0 0"/><path d="m48 469.667969h-32c-8.832031 0-16-7.167969-16-16s7.167969-16 16-16h32c2.945312 0 5.332031-2.390625 5.332031-5.335938v-5.332031c0-2.945312-2.386719-5.332031-5.332031-5.332031h-21.332031c-8.832031 0-16-7.167969-16-16s7.167969-16 16-16h21.332031c20.585938 0 37.332031 16.746093 37.332031 37.332031v5.332031c0 20.589844-16.746093 37.335938-37.332031 37.335938zm0 0"/><path d="m48 128.332031c-8.832031 0-16-7.167969-16-16v-80h-16c-8.832031 0-16-7.167969-16-16s7.167969-16 16-16h32c8.832031 0 16 7.167969 16 16v96c0 8.832031-7.167969 16-16 16zm0 0"/></g><path d="m469.332031 85.667969h-320c-11.773437 0-21.332031-9.558594-21.332031-21.335938 0-11.773437 9.558594-21.332031 21.332031-21.332031h320c11.777344 0 21.335938 9.558594 21.335938 21.332031 0 11.777344-9.558594 21.335938-21.335938 21.335938zm0 0" fill="#607d8b"/><path d="m469.332031 256.332031h-320c-11.773437 0-21.332031-9.554687-21.332031-21.332031s9.558594-21.332031 21.332031-21.332031h320c11.777344 0 21.335938 9.554687 21.335938 21.332031s-9.558594 21.332031-21.335938 21.332031zm0 0" fill="#607d8b"/><path d="m469.332031 427h-320c-11.773437 0-21.332031-9.558594-21.332031-21.332031 0-11.777344 9.558594-21.335938 21.332031-21.335938h320c11.777344 0 21.335938 9.558594 21.335938 21.335938 0 11.773437-9.558594 21.332031-21.335938 21.332031zm0 0" fill="#607d8b"/></svg>