<svg height="426pt" viewBox="-53 0 426 426.66667" width="426pt" xmlns="http://www.w3.org/2000/svg"><g fill="#607d8b"><path d="m235 426.667969c-11.777344 0-21.332031-9.558594-21.332031-21.335938v-384c0-11.773437 9.554687-21.332031 21.332031-21.332031s21.332031 9.558594 21.332031 21.332031v384c0 11.777344-9.554687 21.335938-21.332031 21.335938zm0 0"/><path d="m171 426.667969c-11.777344 0-21.332031-9.558594-21.332031-21.335938v-384c0-11.773437 9.554687-21.332031 21.332031-21.332031s21.332031 9.558594 21.332031 21.332031v384c0 11.777344-9.554687 21.335938-21.332031 21.335938zm0 0"/><path d="m171 213.332031h-64c-58.816406 0-106.667969-47.847656-106.667969-106.664062 0-58.816407 47.851563-106.667969 106.667969-106.667969h176c11.777344 0 21.332031 9.558594 21.332031 21.332031 0 11.777344-9.554687 21.335938-21.332031 21.335938h-176c-35.285156 0-64 28.714843-64 64 0 35.285156 28.714844 64 64 64h64c11.777344 0 21.332031 9.554687 21.332031 21.332031s-9.554687 21.332031-21.332031 21.332031zm0 0"/><path d="m299 426.667969h-170.667969c-11.773437 0-21.332031-9.558594-21.332031-21.335938 0-11.773437 9.558594-21.332031 21.332031-21.332031h170.667969c11.777344 0 21.332031 9.558594 21.332031 21.332031 0 11.777344-9.554687 21.335938-21.332031 21.335938zm0 0"/></g></svg>