<svg height="512pt" viewBox="0 -21 512.00533 512" width="512pt" xmlns="http://www.w3.org/2000/svg"><path d="m160 277.335938c0-88.234376 71.765625-160 160-160 77.332031 0 142.015625 55.148437 156.800781 128.191406 21.929688-25.984375 35.199219-59.519532 35.199219-96.191406 0-82.472657-66.859375-149.33203175-149.332031-149.33203175h-213.335938c-82.472656 0-149.332031 66.85937475-149.332031 149.33203175 0 82.476562 66.859375 149.332031 149.332031 149.332031h12.269531c-.941406-6.996094-1.601562-14.078125-1.601562-21.332031zm0 0" fill="#607d8b"/><path d="m505.75 432.921875-81.535156-81.539063c14.910156-20.925781 23.785156-46.441406 23.785156-74.046874 0-70.59375-57.40625-128-128-128s-128 57.40625-128 128 57.40625 128 128 128c27.605469 0 53.121094-8.875 74.046875-23.785157l81.539063 81.535157c4.15625 4.160156 9.621093 6.25 15.082031 6.25 5.460937 0 10.921875-2.089844 15.082031-6.25 8.339844-8.34375 8.339844-21.824219 0-30.164063zm0 0" fill="#4caf50"/></svg>