<svg height="426pt" viewBox="-32 0 426 426.66667" width="426pt" xmlns="http://www.w3.org/2000/svg"><g fill="#607d8b"><path d="m347.007812 426.667969h-74.664062c-5.632812 0-10.859375-2.964844-13.742188-7.789063-2.898437-4.839844-3.027343-10.835937-.359374-15.785156l61.949218-115.09375h-47.847656c-8.832031 0-16-7.167969-16-16s7.167969-16 16-16h74.664062c5.632813 0 10.859376 2.964844 13.738282 7.785156 2.902344 4.84375 3.03125 10.839844.363281 15.789063l-61.972656 115.09375h47.871093c8.832032 0 16 7.167969 16 16s-7.167968 16-16 16zm0 0"/><path d="m347.007812 170.667969c-8.832031 0-16-7.167969-16-16v-101.335938c0-11.753906-9.554687-21.332031-21.332031-21.332031-11.777343 0-21.332031 9.578125-21.332031 21.332031v101.335938c0 8.832031-7.167969 16-16 16s-16-7.167969-16-16v-101.335938c0-29.394531 23.914062-53.332031 53.332031-53.332031s53.332031 23.9375 53.332031 53.332031v101.335938c0 8.832031-7.167968 16-16 16zm0 0"/><path d="m347.007812 112h-74.664062c-8.832031 0-16-7.167969-16-16s7.167969-16 16-16h74.664062c8.832032 0 16 7.167969 16 16s-7.167968 16-16 16zm0 0"/></g><path d="m169.664062 329.601562c-2.539062-5.824218-8.296874-9.601562-14.65625-9.601562h-48v-298.667969c0-11.773437-9.535156-21.332031-21.332031-21.332031s-21.332031 9.558594-21.332031 21.332031v298.667969h-48c-6.359375 0-12.117188 3.777344-14.679688 9.601562-2.539062 5.824219-1.386718 12.628907 2.945313 17.277344l69.332031 74.667969c3.050782 3.265625 7.273438 5.121094 11.734375 5.121094 4.457031 0 8.683594-1.855469 11.734375-5.121094l69.332032-74.667969c4.332031-4.648437 5.484374-11.433594 2.921874-17.277344zm0 0" fill="#4caf50"/></svg>