<svg height="426pt" viewBox="-42 0 426 426.66667" width="426pt" xmlns="http://www.w3.org/2000/svg"><path d="m171 426.667969c-70.59375 0-128-52.628907-128-117.335938 0-11.773437 9.558594-21.332031 21.332031-21.332031 11.777344 0 21.335938 9.558594 21.335938 21.332031 0 41.175781 38.269531 74.667969 85.332031 74.667969s85.332031-33.492188 85.332031-74.667969c0-41.171875-38.269531-74.664062-85.332031-74.664062-70.59375 0-128-52.628907-128-117.335938 0-64.703125 57.40625-117.332031 128-117.332031s128 52.628906 128 117.332031c0 11.777344-9.558594 21.335938-21.332031 21.335938-11.777344 0-21.335938-9.558594-21.335938-21.335938 0-41.171875-38.269531-74.664062-85.332031-74.664062s-85.332031 33.492187-85.332031 74.664062c0 41.175781 38.269531 74.667969 85.332031 74.667969 70.59375 0 128 52.628906 128 117.332031 0 64.707031-57.40625 117.335938-128 117.335938zm0 0" fill="#607d8b"/><path d="m320.332031 234.667969h-298.664062c-11.777344 0-21.335938-9.558594-21.335938-21.335938 0-11.773437 9.558594-21.332031 21.335938-21.332031h298.664062c11.777344 0 21.335938 9.558594 21.335938 21.332031 0 11.777344-9.558594 21.335938-21.335938 21.335938zm0 0" fill="#f44336"/></svg>