<svg height="469pt" viewBox="0 -21 469.33193 469" width="469pt" xmlns="http://www.w3.org/2000/svg"><path d="m448 426.832031h-85.335938c-11.773437 0-21.332031-9.554687-21.332031-21.332031v-26.667969c0-38.226562 31.105469-69.332031 69.332031-69.332031 8.832032 0 16-7.167969 16-16s-7.167968-16-16-16h-48c-11.773437 0-21.332031-9.558594-21.332031-21.332031 0-11.777344 9.558594-21.335938 21.332031-21.335938h48c32.363282 0 58.667969 26.304688 58.667969 58.667969s-26.304687 58.667969-58.667969 58.667969c-14.699218 0-26.664062 11.96875-26.664062 26.664062v5.335938h64c11.773438 0 21.332031 9.554687 21.332031 21.332031s-9.558593 21.332031-21.332031 21.332031zm0 0" fill="#f44336"/><g fill="#607d8b"><path d="m256 341.5c-6.316406 0-12.566406-2.792969-16.789062-8.148438l-234.667969-298.667968c-7.253907-9.257813-5.652344-22.675782 3.605469-29.953125 9.257812-7.273438 22.675781-5.695313 29.953124 3.585937l234.664063 298.667969c7.277344 9.257813 5.675781 22.675781-3.582031 29.949219-3.90625 3.074218-8.554688 4.566406-13.183594 4.566406zm0 0"/><path d="m21.332031 341.5c-4.609375 0-9.257812-1.492188-13.164062-4.566406-9.277344-7.273438-10.878907-20.691406-3.582031-29.949219l234.664062-298.667969c7.296875-9.257812 20.695312-10.859375 29.953125-3.585937 9.28125 7.277343 10.878906 20.695312 3.585937 29.953125l-234.667968 298.667968c-4.222656 5.355469-10.496094 8.148438-16.789063 8.148438zm0 0"/></g></svg>