<svg height="426pt" viewBox="-21 0 426 426.66667" width="426pt" xmlns="http://www.w3.org/2000/svg"><g fill="#607d8b"><path d="m192.332031 362.667969c-82.34375 0-149.332031-66.988281-149.332031-149.335938v-192c0-11.773437 9.558594-21.332031 21.332031-21.332031 11.777344 0 21.335938 9.558594 21.335938 21.332031v192c0 58.816407 47.847656 106.667969 106.664062 106.667969 58.816407 0 106.667969-47.851562 106.667969-106.667969v-192c0-11.773437 9.558594-21.332031 21.332031-21.332031 11.777344 0 21.335938 9.558594 21.335938 21.332031v192c0 82.347657-66.988281 149.335938-149.335938 149.335938zm0 0"/><path d="m107 42.667969h-85.332031c-11.777344 0-21.335938-9.558594-21.335938-21.335938 0-11.773437 9.558594-21.332031 21.335938-21.332031h85.332031c11.777344 0 21.332031 9.558594 21.332031 21.332031 0 11.777344-9.554687 21.335938-21.332031 21.335938zm0 0"/><path d="m363 42.667969h-85.332031c-11.777344 0-21.335938-9.558594-21.335938-21.335938 0-11.773437 9.558594-21.332031 21.335938-21.332031h85.332031c11.777344 0 21.332031 9.558594 21.332031 21.332031 0 11.777344-9.554687 21.335938-21.332031 21.335938zm0 0"/></g><path d="m341.667969 426.667969h-298.667969c-11.777344 0-21.332031-9.558594-21.332031-21.335938 0-11.773437 9.554687-21.332031 21.332031-21.332031h298.667969c11.773437 0 21.332031 9.558594 21.332031 21.332031 0 11.777344-9.558594 21.335938-21.332031 21.335938zm0 0" fill="#2196f3"/></svg>