<svg height="512pt" viewBox="0 0 512 512.00164" width="512pt" xmlns="http://www.w3.org/2000/svg"><path d="m256 0c-62.675781 0-123.582031 23.085938-171.09375 62.296875l-57.597656-57.601563c-4.585938-4.585937-11.4375-5.953124-17.429688-3.476562-5.972656 2.472656-9.878906 8.320312-9.878906 14.78125v138.667969c0 8.832031 7.167969 16 16 16h138.667969c6.484375 0 12.308593-3.902344 14.785156-9.878907 2.472656-5.972656 1.109375-12.863281-3.480469-17.425781l-50.75-50.753906c39.445313-31.445313 89.386719-49.941406 140.777344-49.941406 117.632812 0 213.335938 95.703125 213.335938 213.332031 0 117.632812-95.703126 213.335938-213.335938 213.335938-56.9375 0-110.503906-22.207032-150.804688-62.527344-8.339843-8.34375-21.824218-8.34375-30.164062 0-8.34375 8.320312-8.34375 21.824218 0 30.164062 48.339844 48.382813 112.640625 75.027344 180.96875 75.027344 141.164062 0 256-114.835938 256-256 0-141.160156-114.835938-256-256-256zm0 0" fill="#607d8b"/></svg>