<?xml version="1.0" encoding="iso-8859-1"?>
<!-- Generator: Adobe Illustrator 19.0.0, SVG Export Plug-In . SVG Version: 6.00 Build 0)  -->
<svg version="1.1" id="Capa_1" xmlns="http://www.w3.org/2000/svg" xmlns:xlink="http://www.w3.org/1999/xlink" x="0px" y="0px"
	 viewBox="0 0 512 512" style="enable-background:new 0 0 512 512;" xml:space="preserve">
<path style="fill:#B0BEC5;" d="M416,21.333h-69.76c-5.891-0.009-10.674,4.76-10.682,10.651c-0.003,1.903,0.503,3.772,1.466,5.413
	c2.806,4.844,4.291,10.339,4.309,15.936v246.613c0.096,23.046,14.888,43.461,36.757,50.731l5.248,1.6
	c13.092,4.393,21.936,16.633,21.995,30.443v75.947c0.064,5.442-1.344,10.801-4.075,15.509c-2.984,5.079-1.285,11.616,3.794,14.6
	c1.232,0.724,2.597,1.193,4.014,1.379c29.125,3.9,55.896-16.549,59.796-45.673c0.317-2.369,0.475-4.758,0.471-7.148V74.667
	C469.333,45.211,445.455,21.333,416,21.333z"/>
<path style="fill:#CFD8DC;" d="M389.909,331.989l-5.248-1.6c-13.092-4.393-21.936-16.633-21.995-30.443V53.333
	C362.667,23.878,338.789,0,309.333,0H96C66.545,0,42.667,23.878,42.667,53.333v405.333C42.667,488.122,66.545,512,96,512h277.333
	c19.196,0.028,36.912-10.306,46.336-27.029c4.656-7.979,7.073-17.066,6.997-26.304V382.72
	C426.571,359.674,411.779,339.259,389.909,331.989z"/>
<g>
	<path style="fill:#455A64;" d="M202.667,469.333h-21.333c-5.891,0-10.667-4.776-10.667-10.667c0-5.891,4.776-10.667,10.667-10.667
		h21.333c5.891,0,10.667,4.776,10.667,10.667C213.333,464.558,208.558,469.333,202.667,469.333z"/>
	<path style="fill:#455A64;" d="M202.667,426.667h-21.333c-5.891,0-10.667-4.776-10.667-10.667c0-5.891,4.776-10.667,10.667-10.667
		h21.333c5.891,0,10.667,4.776,10.667,10.667C213.333,421.891,208.558,426.667,202.667,426.667z"/>
	<path style="fill:#455A64;" d="M202.667,384h-21.333c-5.891,0-10.667-4.776-10.667-10.667s4.776-10.667,10.667-10.667h21.333
		c5.891,0,10.667,4.776,10.667,10.667S208.558,384,202.667,384z"/>
	<path style="fill:#455A64;" d="M202.667,341.333h-21.333c-5.891,0-10.667-4.776-10.667-10.667c0-5.891,4.776-10.667,10.667-10.667
		h21.333c5.891,0,10.667,4.776,10.667,10.667C213.333,336.558,208.558,341.333,202.667,341.333z"/>
	<path style="fill:#455A64;" d="M202.667,298.667h-21.333c-5.891,0-10.667-4.776-10.667-10.667c0-5.891,4.776-10.667,10.667-10.667
		h21.333c5.891,0,10.667,4.776,10.667,10.667C213.333,293.891,208.558,298.667,202.667,298.667z"/>
	<path style="fill:#455A64;" d="M202.667,256h-21.333c-5.891,0-10.667-4.776-10.667-10.667c0-5.891,4.776-10.667,10.667-10.667
		h21.333c5.891,0,10.667,4.776,10.667,10.667C213.333,251.224,208.558,256,202.667,256z"/>
	<path style="fill:#455A64;" d="M202.667,213.333h-21.333c-5.891,0-10.667-4.776-10.667-10.667S175.442,192,181.333,192h21.333
		c5.891,0,10.667,4.776,10.667,10.667S208.558,213.333,202.667,213.333z"/>
	<path style="fill:#455A64;" d="M245.333,448H224c-5.891,0-10.667-4.776-10.667-10.667s4.776-10.667,10.667-10.667h21.333
		c5.891,0,10.667,4.776,10.667,10.667S251.224,448,245.333,448z"/>
	<path style="fill:#455A64;" d="M245.333,405.333H224c-5.891,0-10.667-4.776-10.667-10.667c0-5.891,4.776-10.667,10.667-10.667
		h21.333c5.891,0,10.667,4.776,10.667,10.667C256,400.558,251.224,405.333,245.333,405.333z"/>
	<path style="fill:#455A64;" d="M245.333,362.667H224c-5.891,0-10.667-4.776-10.667-10.667c0-5.891,4.776-10.667,10.667-10.667
		h21.333c5.891,0,10.667,4.776,10.667,10.667C256,357.891,251.224,362.667,245.333,362.667z"/>
	<path style="fill:#455A64;" d="M245.333,320H224c-5.891,0-10.667-4.776-10.667-10.667s4.776-10.667,10.667-10.667h21.333
		c5.891,0,10.667,4.776,10.667,10.667S251.224,320,245.333,320z"/>
	<path style="fill:#455A64;" d="M245.333,277.333H224c-5.891,0-10.667-4.776-10.667-10.667c0-5.891,4.776-10.667,10.667-10.667
		h21.333c5.891,0,10.667,4.776,10.667,10.667C256,272.558,251.224,277.333,245.333,277.333z"/>
	<path style="fill:#455A64;" d="M245.333,234.667H224c-5.891,0-10.667-4.776-10.667-10.667c0-5.891,4.776-10.667,10.667-10.667
		h21.333c5.891,0,10.667,4.776,10.667,10.667C256,229.891,251.224,234.667,245.333,234.667z"/>
</g>
<path style="fill:#FF9800;" d="M276.203,48.555L254.869,5.888C253.061,2.279,249.37,0,245.333,0h-64
	c-4.037,0-7.728,2.279-9.536,5.888l-21.333,42.667c-1.5,3.002-1.5,6.534,0,9.536l21.333,42.667c1.802,3.617,5.495,5.905,9.536,5.909
	h64c4.037,0,7.728-2.279,9.536-5.888l21.333-42.667C277.71,55.104,277.71,51.562,276.203,48.555z"/>
<path style="fill:#FFC107;" d="M249.6,119.787l-15.104-68.736c-1.078-4.923-5.456-8.42-10.496-8.384h-21.333
	c-5.008,0.004-9.339,3.492-10.411,8.384l-14.677,67.264c-7.5,19.711,2.399,41.77,22.11,49.271
	c14.082,5.358,29.997,1.936,40.631-8.737C250.704,148.716,254.318,133.506,249.6,119.787z"/>
<g>
</g>
<g>
</g>
<g>
</g>
<g>
</g>
<g>
</g>
<g>
</g>
<g>
</g>
<g>
</g>
<g>
</g>
<g>
</g>
<g>
</g>
<g>
</g>
<g>
</g>
<g>
</g>
<g>
</g>
</svg>
