<?xml version="1.0" encoding="iso-8859-1"?>
<!-- Generator: Adobe Illustrator 19.0.0, SVG Export Plug-In . SVG Version: 6.00 Build 0)  -->
<svg version="1.1" id="Capa_1" xmlns="http://www.w3.org/2000/svg" xmlns:xlink="http://www.w3.org/1999/xlink" x="0px" y="0px"
	 viewBox="0 0 512 512" style="enable-background:new 0 0 512 512;" xml:space="preserve">
<path style="fill:#1976D2;" d="M309.334,42.667H288c-5.891,0-10.667,4.776-10.667,10.667v91.307
	c-0.058,4.537-2.909,8.568-7.168,10.133l-35.2,11.584c-12.916,4.499-21.587,16.659-21.632,30.336v261.973
	c0,5.891,4.776,10.667,10.667,10.667h85.333c29.455,0,53.333-23.878,53.333-53.333V96C362.667,66.545,338.789,42.667,309.334,42.667
	z"/>
<path style="fill:#607D8B;" d="M224,106.667h277.333c5.891,0,10.667,4.776,10.667,10.667v341.333
	c0,5.891-4.776,10.667-10.667,10.667H224c-5.891,0-10.667-4.776-10.667-10.667V117.334C213.334,111.442,218.109,106.667,224,106.667
	z"/>
<g>
	<path style="fill:#FAFAFA;" d="M501.334,170.667h-42.667c-5.891,0-10.667-4.776-10.667-10.667s4.776-10.667,10.667-10.667h42.667
		c5.891,0,10.667,4.776,10.667,10.667S507.225,170.667,501.334,170.667z"/>
	<path style="fill:#FAFAFA;" d="M394.667,170.667H352c-5.891,0-10.667-4.776-10.667-10.667s4.776-10.667,10.667-10.667h42.667
		c5.891,0,10.667,4.776,10.667,10.667S400.558,170.667,394.667,170.667z"/>
	<path style="fill:#FAFAFA;" d="M501.334,426.667h-42.667c-5.891,0-10.667-4.776-10.667-10.667c0-5.891,4.776-10.667,10.667-10.667
		h42.667c5.891,0,10.667,4.776,10.667,10.667C512,421.891,507.225,426.667,501.334,426.667z"/>
	<path style="fill:#FAFAFA;" d="M394.667,426.667H352c-5.891,0-10.667-4.776-10.667-10.667c0-5.891,4.776-10.667,10.667-10.667
		h42.667c5.891,0,10.667,4.776,10.667,10.667C405.334,421.891,400.558,426.667,394.667,426.667z"/>
	<path style="fill:#FAFAFA;" d="M288,426.667h-42.667c-5.891,0-10.667-4.776-10.667-10.667c0-5.891,4.776-10.667,10.667-10.667H288
		c5.891,0,10.667,4.776,10.667,10.667C298.667,421.891,293.891,426.667,288,426.667z"/>
</g>
<g>
	<path style="fill:#455A64;" d="M416,192h85.333c5.891,0,10.667,4.776,10.667,10.667v170.667c0,5.891-4.776,10.667-10.667,10.667
		H416c-5.891,0-10.667-4.776-10.667-10.667V202.667C405.334,196.776,410.109,192,416,192z"/>
	<path style="fill:#455A64;" d="M224,192h128c5.891,0,10.667,4.776,10.667,10.667v170.667c0,5.891-4.776,10.667-10.667,10.667H224
		c-5.891,0-10.667-4.776-10.667-10.667V202.667C213.334,196.776,218.109,192,224,192z"/>
</g>
<path style="fill:#2196F3;" d="M266.667,0c-29.351-0.029-58.55,4.219-86.677,12.608L38.059,55.275
	C15.446,62.034-0.035,82.852,0,106.454V407.68c-0.067,22.305,13.754,42.296,34.645,50.112l122.923,46.08
	c14.43,5.371,29.702,8.124,45.099,8.128c17.673,0,32-14.327,32-32V196.694c0.058-4.537,2.909-8.568,7.168-10.133l35.2-11.584
	c12.912-4.504,21.581-16.661,21.632-30.336V32C298.667,14.327,284.34,0,266.667,0z"/>
<g>
</g>
<g>
</g>
<g>
</g>
<g>
</g>
<g>
</g>
<g>
</g>
<g>
</g>
<g>
</g>
<g>
</g>
<g>
</g>
<g>
</g>
<g>
</g>
<g>
</g>
<g>
</g>
<g>
</g>
</svg>
