<?xml version="1.0" encoding="iso-8859-1"?>
<!-- Generator: Adobe Illustrator 19.0.0, SVG Export Plug-In . SVG Version: 6.00 Build 0)  -->
<svg version="1.1" id="Capa_1" xmlns="http://www.w3.org/2000/svg" xmlns:xlink="http://www.w3.org/1999/xlink" x="0px" y="0px"
	 viewBox="0 0 512 512" style="enable-background:new 0 0 512 512;" xml:space="preserve">
<path style="fill:#1976D2;" d="M458.667,0H181.333c-17.673,0-32,14.327-32,32v21.333C149.333,59.224,154.109,64,160,64h112.64
	c4.555,0.018,8.612,2.882,10.155,7.168l11.605,35.2c4.504,12.894,16.636,21.557,30.293,21.632H480
	c5.891,0,10.667-4.776,10.667-10.667V32C490.667,14.327,476.34,0,458.667,0z"/>
<path style="fill:#2196F3;" d="M480,106.667H324.693c-4.539-0.067-8.572-2.913-10.155-7.168L302.933,64.32
	c-4.492-12.906-16.628-21.581-30.293-21.653H160c-17.673,0-32,14.327-32,32v192c0,17.673,14.327,32,32,32h320
	c17.673,0,32-14.327,32-32v-128C512,120.994,497.673,106.667,480,106.667z"/>
<path style="fill:#B0BEC5;" d="M330.667,213.333H53.333c-17.673,0-32,14.327-32,32v21.333c0,5.891,4.776,10.667,10.667,10.667
	h112.64c4.555,0.018,8.612,2.882,10.155,7.168l11.605,35.2c4.504,12.894,16.636,21.557,30.293,21.632H352
	c5.891,0,10.667-4.776,10.667-10.667v-85.333C362.667,227.66,348.34,213.333,330.667,213.333z"/>
<g>
	<path style="fill:#546E7A;" d="M105.856,49.259c-0.538-1.301-1.328-2.483-2.325-3.477L60.864,3.115
		c-4.237-4.093-10.99-3.975-15.083,0.262c-3.992,4.134-3.992,10.687,0,14.821l24.469,24.469H53.333C23.878,42.667,0,66.545,0,96
		v85.333C0,187.224,4.776,192,10.667,192s10.667-4.776,10.667-10.667V96c0-17.673,14.327-32,32-32h16.917L45.781,88.448
		c-4.237,4.093-4.355,10.845-0.262,15.083s10.845,4.355,15.083,0.262c0.089-0.086,0.176-0.173,0.262-0.262l42.667-42.667
		c3.056-3.048,3.974-7.638,2.325-11.627V49.259z"/>
	<path style="fill:#546E7A;" d="M501.333,320c-5.891,0-10.667,4.776-10.667,10.667V416c0,17.673-14.327,32-32,32h-16.917
		l24.448-24.448c4.093-4.237,3.976-10.99-0.261-15.083c-4.134-3.993-10.688-3.993-14.821,0l-42.667,42.667
		c-4.171,4.16-4.179,10.914-0.019,15.085c0.006,0.006,0.013,0.013,0.019,0.019l42.667,42.667c4.237,4.093,10.99,3.976,15.083-0.261
		c3.993-4.134,3.993-10.688,0-14.821l-24.448-24.491h16.917C488.122,469.333,512,445.455,512,416v-85.333
		C512,324.776,507.224,320,501.333,320z"/>
</g>
<path style="fill:#CFD8DC;" d="M352,320H196.693c-4.539-0.067-8.572-2.913-10.155-7.168l-11.605-35.179
	c-4.492-12.906-16.628-21.581-30.293-21.653H32c-17.673,0-32,14.327-32,32v192c0,17.673,14.327,32,32,32h320
	c17.673,0,32-14.327,32-32V352C384,334.327,369.673,320,352,320z"/>
<g>
</g>
<g>
</g>
<g>
</g>
<g>
</g>
<g>
</g>
<g>
</g>
<g>
</g>
<g>
</g>
<g>
</g>
<g>
</g>
<g>
</g>
<g>
</g>
<g>
</g>
<g>
</g>
<g>
</g>
</svg>
