<?xml version="1.0" encoding="iso-8859-1"?>
<!-- Generator: Adobe Illustrator 19.0.0, SVG Export Plug-In . SVG Version: 6.00 Build 0)  -->
<svg version="1.1" id="Capa_1" xmlns="http://www.w3.org/2000/svg" xmlns:xlink="http://www.w3.org/1999/xlink" x="0px" y="0px"
	 viewBox="0 0 506.568 506.568" style="enable-background:new 0 0 506.568 506.568;" xml:space="preserve">
<path style="fill:#1976D2;" d="M423.951,0H82.618C53.281-0.101,29.416,23.598,29.314,52.936c-0.009,2.452,0.153,4.902,0.483,7.331
	c0.767,5.841,6.124,9.954,11.965,9.187c1.417-0.186,2.782-0.655,4.014-1.379c4.708-2.731,10.067-4.138,15.509-4.075h54.613
	c13.708,0.031,25.888,8.751,30.336,21.717l1.813,5.824c7.333,21.735,27.686,36.393,50.624,36.459h246.613
	c5.594,0.005,11.088,1.476,15.936,4.267c5.081,2.981,11.617,1.278,14.598-3.803c0.956-1.629,1.462-3.482,1.466-5.37v-69.76
	C477.284,23.878,453.406,0,423.951,0z"/>
<g>
	<path style="fill:#455A64;" d="M263.14,340.075c1.649-3.989,0.731-8.579-2.325-11.627l-32-32
		c-4.237-4.092-10.99-3.975-15.083,0.262c-3.992,4.134-3.992,10.687,0,14.82l13.781,13.781h-16.896
		c-41.237,0-74.667,33.429-74.667,74.667s33.429,74.667,74.667,74.667c5.891,0,10.667-4.776,10.667-10.667
		c0-5.891-4.776-10.667-10.667-10.667c-29.455,0-53.333-23.878-53.333-53.333s23.878-53.333,53.333-53.333h16.917l-13.781,13.781
		c-4.237,4.093-4.355,10.845-0.262,15.083c4.093,4.237,10.845,4.354,15.083,0.262c0.089-0.086,0.176-0.173,0.262-0.262l32-32
		C261.821,342.526,262.604,341.359,263.14,340.075z"/>
	<path style="fill:#455A64;" d="M295.951,325.334c-5.891,0-10.667,4.776-10.667,10.667s4.776,10.667,10.667,10.667
		c29.455,0,53.333,23.878,53.333,53.333s-23.878,53.333-53.333,53.333h-16.917l13.781-13.781c4.093-4.237,3.975-10.99-0.262-15.083
		c-4.134-3.993-10.687-3.993-14.821,0l-32,32c-4.171,4.16-4.179,10.914-0.019,15.085c0.006,0.006,0.013,0.013,0.019,0.019l32,32
		c4.237,4.093,10.99,3.975,15.083-0.262c3.993-4.134,3.993-10.687,0-14.821l-13.781-13.781h16.917
		c41.237,0,74.667-33.429,74.667-74.667s-33.429-74.667-74.667-74.667V325.334z"/>
</g>
<path style="fill:#2196F3;" d="M472.015,113.878c-8.115-4.728-17.339-7.216-26.731-7.211H198.671
	c-13.708-0.031-25.888-8.751-30.336-21.717l-1.813-5.824c-7.333-21.735-27.686-36.393-50.624-36.459H61.284
	c-9.171-0.085-18.197,2.295-26.133,6.891c-4.178,2.367-8.011,5.295-11.392,8.704C13.574,68.166,7.866,81.794,7.951,96v256
	c0,29.455,23.878,53.333,53.333,53.333h53.867c0-1.792-0.533-3.499-0.533-5.333c0.04-44.793,31.006-83.624,74.667-93.632
	c-1.305-17.625,11.925-32.971,29.549-34.276c9.278-0.687,18.396,2.698,24.979,9.273l30.848,30.827
	c5.837-5.274,13.424-8.194,21.291-8.192c53.019,0,96,42.981,96,96c0,1.813-0.363,3.541-0.469,5.333h53.803
	c29.455,0,53.333-23.878,53.333-53.333V160C498.678,140.964,488.523,123.358,472.015,113.878z"/>
<g>
</g>
<g>
</g>
<g>
</g>
<g>
</g>
<g>
</g>
<g>
</g>
<g>
</g>
<g>
</g>
<g>
</g>
<g>
</g>
<g>
</g>
<g>
</g>
<g>
</g>
<g>
</g>
<g>
</g>
</svg>
