<?xml version="1.0" encoding="iso-8859-1"?>
<!-- Generator: Adobe Illustrator 19.0.0, SVG Export Plug-In . SVG Version: 6.00 Build 0)  -->
<svg version="1.1" id="Capa_1" xmlns="http://www.w3.org/2000/svg" xmlns:xlink="http://www.w3.org/1999/xlink" x="0px" y="0px"
	 viewBox="0 0 506.809 506.809" style="enable-background:new 0 0 506.809 506.809;" xml:space="preserve">
<path style="fill:#1976D2;" d="M424.071,0H82.738C53.401-0.101,29.536,23.598,29.434,52.936c-0.009,2.452,0.153,4.902,0.483,7.331
	c0.767,5.841,6.124,9.954,11.965,9.187c1.417-0.186,2.782-0.655,4.014-1.379c4.708-2.731,10.067-4.138,15.509-4.075h54.613
	c13.708,0.031,25.888,8.751,30.336,21.717l1.813,5.824c7.333,21.735,27.686,36.393,50.624,36.459h246.613
	c5.594,0.005,11.088,1.476,15.936,4.267c5.081,2.981,11.617,1.278,14.598-3.803c0.956-1.629,1.462-3.482,1.466-5.37v-69.76
	C477.405,23.878,453.527,0,424.071,0z"/>
<path style="fill:#455A64;" d="M335.623,424.534c-4.237-4.093-10.99-3.975-15.083,0.262c-3.993,4.134-3.993,10.687,0,14.821
	l13.248,13.248c-28.501-2.517-49.344-25.856-70.165-52.779c20.8-26.944,41.643-50.261,70.165-52.779l-13.248,13.248
	c-4.237,4.093-4.355,10.845-0.262,15.083c4.093,4.237,10.845,4.354,15.083,0.262c0.089-0.086,0.176-0.173,0.262-0.262l32-32
	c4.164-4.165,4.164-10.917,0-15.083l-32-32c-4.237-4.092-10.99-3.975-15.083,0.262c-3.992,4.134-3.992,10.687,0,14.82l14.208,14.208
	c-36.672,1.899-62.443,28.736-84.544,56.789c-22.613-29.44-46.805-57.301-82.133-57.301c-5.891,0-10.667,4.776-10.667,10.667
	s4.776,10.667,10.667,10.667c26.859,0,47.36,25.451,68.672,53.333c-21.333,27.883-41.792,53.333-68.672,53.333
	c-5.891,0-10.667,4.776-10.667,10.667s4.776,10.667,10.667,10.667c35.328,0,59.52-27.861,82.133-57.195
	c22.08,28.053,47.851,54.869,84.544,56.789l-14.208,14.208c-4.237,4.093-4.355,10.845-0.262,15.083
	c4.093,4.237,10.845,4.354,15.083,0.262c0.089-0.086,0.176-0.173,0.262-0.262l32-32c4.164-4.165,4.164-10.917,0-15.083
	L335.623,424.534z"/>
<path style="fill:#2196F3;" d="M472.135,113.878c-8.115-4.728-17.339-7.216-26.731-7.211H198.791
	c-13.708-0.031-25.888-8.751-30.336-21.717l-1.813-5.824c-7.333-21.735-27.686-36.393-50.624-36.459H61.405
	c-9.171-0.085-18.197,2.295-26.133,6.891c-4.178,2.367-8.011,5.295-11.392,8.704C13.694,68.166,7.986,81.794,8.071,96v256
	c0,29.455,23.878,53.333,53.333,53.333h143.872c1.451-1.728,2.923-3.499,4.416-5.333c-14.805-18.389-28.48-32-41.6-32
	c-17.673,0-32-14.327-32-32c0-17.673,14.327-32,32-32c32.904,1.801,63.228,18.386,82.496,45.12
	c13.101-14.948,29.058-27.126,46.933-35.819c-5.265-16.871,4.144-34.815,21.015-40.08c11.436-3.569,23.907-0.451,32.319,8.08l32,32
	c2.236,2.224,4.127,4.769,5.611,7.552l2.133-0.192l-1.472,1.451c5.843,12.237,3.338,26.828-6.251,36.416l-32,32l-6.251,14.805
	h100.779c29.455,0,53.333-23.878,53.333-53.333V160C498.799,140.964,488.644,123.358,472.135,113.878z"/>
<g>
</g>
<g>
</g>
<g>
</g>
<g>
</g>
<g>
</g>
<g>
</g>
<g>
</g>
<g>
</g>
<g>
</g>
<g>
</g>
<g>
</g>
<g>
</g>
<g>
</g>
<g>
</g>
<g>
</g>
</svg>
