<?xml version="1.0" encoding="iso-8859-1"?>
<!-- Generator: Adobe Illustrator 19.0.0, SVG Export Plug-In . SVG Version: 6.00 Build 0)  -->
<svg version="1.1" id="Capa_1" xmlns="http://www.w3.org/2000/svg" xmlns:xlink="http://www.w3.org/1999/xlink" x="0px" y="0px"
	 viewBox="0 0 512.001 512.001" style="enable-background:new 0 0 512.001 512.001;" xml:space="preserve">
<path style="fill:#1976D2;" d="M458.667,42.998H181.333c-17.673,0-32,14.327-32,32v21.333c0,5.891,4.776,10.667,10.667,10.667
	h112.64c4.569-0.021,8.644,2.87,10.133,7.189l11.627,34.88c4.375,13.032,16.547,21.843,30.293,21.931H480
	c5.891,0,10.667-4.776,10.667-10.667V74.998C490.667,57.325,476.34,42.998,458.667,42.998L458.667,42.998z"/>
<path style="fill:#2196F3;" d="M480,149.665H324.693c-4.61-0.055-8.679-3.027-10.133-7.403l-11.627-34.859
	c-4.397-12.988-16.581-21.731-30.293-21.739H160c-17.673,0-32,14.327-32,32v224c0,5.891,4.776,10.667,10.667,10.667H480
	c17.673,0,32-14.327,32-32V181.665C512,163.991,497.673,149.665,480,149.665L480,149.665z"/>
<path style="fill:#FFE082;" d="M510.869,368.801c-14.596-29.5-47.825-44.786-79.723-36.672l-69.013,17.259
	c-3.072-26.688-18.923-42.347-50.475-50.219l-192-42.667c-5.649-1.26-11.271,2.214-12.672,7.829l-32,128
	c-1.408,5.438,1.643,11.036,6.976,12.8l159.595,53.205c13.938,6.288,28.931,9.906,44.203,10.667
	c21.632,0,46.933-9.451,102.656-32.277l117.333-53.333c5.362-2.44,7.731-8.764,5.291-14.126c-0.055-0.121-0.112-0.24-0.171-0.359
	V368.801z"/>
<path style="fill:#455A64;" d="M128,246.497c0.288-3.244-0.922-6.442-3.285-8.683c-18.347-17.323-91.435-22.912-113.429-24.213
	c-2.924-0.142-5.784,0.895-7.936,2.88c-2.139,2.016-3.351,4.826-3.349,7.765v192c0,5.891,4.776,10.667,10.667,10.667h64
	c4.622,0.006,8.722-2.966,10.155-7.36C103.804,363.11,118.243,305.241,128,246.497z"/>
<path style="fill:#FFCA28;" d="M307.733,382.646c-4.899,0.005-9.787-0.474-14.592-1.429l-82.112-16.512
	c-5.773-1.178-9.498-6.813-8.32-12.587c1.178-5.773,6.813-9.498,12.587-8.32l82.091,16.427c7.768,1.536,15.78,1.347,23.467-0.555
	l41.557-10.389c2.848,11.428-4.104,23.002-15.531,25.856l-20.885,5.227C320.026,381.879,313.892,382.645,307.733,382.646z"/>
<g>
</g>
<g>
</g>
<g>
</g>
<g>
</g>
<g>
</g>
<g>
</g>
<g>
</g>
<g>
</g>
<g>
</g>
<g>
</g>
<g>
</g>
<g>
</g>
<g>
</g>
<g>
</g>
<g>
</g>
</svg>
