<?xml version="1.0" encoding="iso-8859-1"?>
<!-- Generator: Adobe Illustrator 19.0.0, SVG Export Plug-In . SVG Version: 6.00 Build 0)  -->
<svg version="1.1" id="Capa_1" xmlns="http://www.w3.org/2000/svg" xmlns:xlink="http://www.w3.org/1999/xlink" x="0px" y="0px"
	 viewBox="0 0 510.942 510.942" style="enable-background:new 0 0 510.942 510.942;" xml:space="preserve">
<path style="fill:#1976D2;" d="M426.138,0H84.805C55.467-0.101,31.602,23.598,31.501,52.936c-0.009,2.452,0.153,4.902,0.483,7.331
	c0.767,5.841,6.124,9.954,11.965,9.187c1.417-0.186,2.782-0.655,4.014-1.379C52.67,65.344,58.029,63.937,63.471,64h54.613
	c13.708,0.031,25.888,8.751,30.336,21.717l1.813,5.824c7.333,21.735,27.686,36.393,50.624,36.459h246.613
	c5.594,0.005,11.088,1.476,15.936,4.267c5.081,2.981,11.617,1.278,14.598-3.803c0.956-1.629,1.462-3.482,1.466-5.37v-69.76
	C479.471,23.878,455.593,0,426.138,0z"/>
<path style="fill:#455A64;" d="M366.17,358.272c-1.888-5.58-7.942-8.573-13.523-6.685c-0.253,0.086-0.503,0.181-0.749,0.285
	c-5.093,2.486-11.237,0.373-13.723-4.72c-2.245-4.598-0.759-10.147,3.483-13.008c4.715-3.532,5.674-10.217,2.142-14.932
	c-0.165-0.22-0.339-0.434-0.52-0.641c-16.813-19.459-39.621-32.773-64.832-37.845c-5.778-1.15-11.394,2.601-12.544,8.378
	c-0.065,0.327-0.115,0.656-0.149,0.987c-0.259,5.685-5.077,10.083-10.762,9.825c-5.322-0.242-9.582-4.502-9.825-9.825
	c-0.605-5.86-5.846-10.12-11.706-9.514c-0.331,0.034-0.661,0.084-0.987,0.149c-25.211,5.072-48.019,18.386-64.832,37.845
	c-3.886,4.427-3.447,11.167,0.98,15.053c0.207,0.182,0.421,0.355,0.641,0.52c4.698,3.169,5.938,9.547,2.768,14.245
	c-2.861,4.242-8.41,5.727-13.008,3.483c-5.423-2.302-11.685,0.228-13.987,5.651c-0.104,0.246-0.2,0.496-0.285,0.749
	c-8.835,24.193-8.835,50.73,0,74.923c1.892,5.579,7.949,8.567,13.528,6.675c0.244-0.083,0.485-0.174,0.723-0.275
	c5.102-2.467,11.238-0.33,13.705,4.772c2.209,4.57,0.746,10.068-3.443,12.935c-4.715,3.532-5.674,10.217-2.142,14.932
	c0.165,0.22,0.339,0.434,0.52,0.641c16.813,19.459,39.621,32.773,64.832,37.845c2.941,0.617,6.006-0.068,8.405-1.877
	c2.417-1.79,3.967-4.517,4.267-7.509c0.449-5.685,5.421-9.93,11.106-9.481c5.062,0.399,9.082,4.419,9.481,9.481
	c0.56,5.462,5.176,9.607,10.667,9.579c0.717,0.005,1.432-0.066,2.133-0.213c25.211-5.072,48.019-18.386,64.832-37.845
	c3.886-4.427,3.447-11.167-0.98-15.053c-0.207-0.182-0.421-0.355-0.641-0.52c-4.677-3.201-5.874-9.586-2.673-14.263
	c2.867-4.189,8.365-5.653,12.935-3.443c5.427,2.292,11.684-0.25,13.976-5.677c0.1-0.238,0.192-0.479,0.275-0.723
	c8.835-24.193,8.835-50.73,0-74.923L366.17,358.272z"/>
<path style="fill:#2196F3;" d="M474.202,113.878c-8.115-4.728-17.339-7.216-26.731-7.211H200.858
	c-13.708-0.031-25.888-8.751-30.336-21.717l-1.813-5.824c-7.333-21.735-27.686-36.393-50.624-36.459H63.471
	c-9.171-0.085-18.197,2.295-26.133,6.891c-4.178,2.367-8.011,5.295-11.392,8.704C15.761,68.166,10.053,81.794,10.138,96v256
	c0,29.455,23.878,53.333,53.333,53.333h54.187c-0.256-3.2-0.853-6.4-0.853-9.6c0.118-15.098,2.743-30.071,7.765-44.309
	c2.863-8.443,9.118-15.309,17.259-18.944c0.786-0.363,1.59-0.684,2.411-0.96c-0.171-0.853-0.299-1.707-0.384-2.56
	c-0.908-8.883,1.912-17.745,7.787-24.469c19.926-23.014,46.947-38.739,76.8-44.693c8.787-1.743,17.902,0.276,25.131,5.568
	c0.683,0.491,1.344,1.045,1.984,1.6c0.597-0.533,1.237-1.045,1.877-1.515c7.294-5.398,16.538-7.445,25.429-5.632
	c29.759,6,56.682,21.713,76.544,44.672c5.867,6.704,8.687,15.542,7.787,24.405c0,0.896-0.213,1.771-0.384,2.645
	c0.832,0.299,1.664,0.619,2.475,0.981c8.107,3.639,14.336,10.487,17.195,18.901l0,0c4.987,14.244,7.575,29.218,7.659,44.309
	c0,3.179-0.597,6.4-0.853,9.6h54.187c29.455,0,53.333-23.878,53.333-53.333V160C500.865,140.964,490.71,123.358,474.202,113.878z"/>
<circle style="fill:#FAFAFA;" cx="255.471" cy="395.734" r="53.333"/>
<g>
</g>
<g>
</g>
<g>
</g>
<g>
</g>
<g>
</g>
<g>
</g>
<g>
</g>
<g>
</g>
<g>
</g>
<g>
</g>
<g>
</g>
<g>
</g>
<g>
</g>
<g>
</g>
<g>
</g>
</svg>
