<?xml version="1.0" encoding="iso-8859-1"?>
<!-- Generator: Adobe Illustrator 19.0.0, SVG Export Plug-In . SVG Version: 6.00 Build 0)  -->
<svg version="1.1" id="Capa_1" xmlns="http://www.w3.org/2000/svg" xmlns:xlink="http://www.w3.org/1999/xlink" x="0px" y="0px"
	 viewBox="0 0 511.859 511.859" style="enable-background:new 0 0 511.859 511.859;" xml:space="preserve">
<path style="fill:#1976D2;" d="M426.597,0H85.263C55.926-0.101,32.061,23.598,31.959,52.936c-0.009,2.452,0.153,4.902,0.483,7.331
	c0.767,5.841,6.124,9.954,11.965,9.187c1.417-0.186,2.782-0.655,4.014-1.379C53.129,65.344,58.487,63.937,63.93,64h54.613
	c13.708,0.031,25.888,8.751,30.336,21.717l1.813,5.824c7.333,21.735,27.686,36.393,50.624,36.459H447.93
	c5.594,0.005,11.088,1.476,15.936,4.267c5.081,2.981,11.617,1.278,14.598-3.803c0.956-1.629,1.462-3.482,1.466-5.37v-69.76
	C479.93,23.878,456.052,0,426.597,0z"/>
<circle style="fill:#FAFAFA;" cx="245.263" cy="384" r="74.667"/>
<path style="fill:#455A64;" d="M245.263,469.334c-47.128,0-85.333-38.205-85.333-85.333s38.205-85.333,85.333-85.333
	s85.333,38.205,85.333,85.333S292.392,469.334,245.263,469.334z M245.263,320c-35.346,0-64,28.654-64,64s28.654,64,64,64
	s64-28.654,64-64S280.609,320,245.263,320z"/>
<path style="fill:#2196F3;" d="M474.661,113.878c-8.115-4.728-17.339-7.216-26.731-7.211H201.317
	c-13.708-0.031-25.888-8.751-30.336-21.717l-1.813-5.824c-7.333-21.735-27.686-36.393-50.624-36.459H63.93
	c-9.171-0.085-18.197,2.295-26.133,6.891c-4.178,2.367-8.011,5.295-11.392,8.704C16.219,68.166,10.511,81.794,10.597,96v256
	c0,29.455,23.878,53.333,53.333,53.333h76.8c-11.723-57.732,25.575-114.037,83.307-125.76s114.037,25.575,125.76,83.307
	c2.844,14.008,2.844,28.445,0,42.453h98.133c29.455,0,53.333-23.878,53.333-53.333V160
	C501.324,140.964,491.169,123.358,474.661,113.878z"/>
<path style="fill:#455A64;" d="M370.149,493.782l-64-64c-4.237-4.093-10.99-3.975-15.083,0.262c-3.993,4.134-3.993,10.687,0,14.821
	l64,64c4.237,4.093,10.99,3.976,15.083-0.261C374.141,504.469,374.141,497.915,370.149,493.782z"/>
<g>
</g>
<g>
</g>
<g>
</g>
<g>
</g>
<g>
</g>
<g>
</g>
<g>
</g>
<g>
</g>
<g>
</g>
<g>
</g>
<g>
</g>
<g>
</g>
<g>
</g>
<g>
</g>
<g>
</g>
</svg>
