<?xml version="1.0" encoding="iso-8859-1"?>
<!-- Generator: Adobe Illustrator 19.0.0, SVG Export Plug-In . SVG Version: 6.00 Build 0)  -->
<svg version="1.1" id="Capa_1" xmlns="http://www.w3.org/2000/svg" xmlns:xlink="http://www.w3.org/1999/xlink" x="0px" y="0px"
	 viewBox="0 0 512 512" style="enable-background:new 0 0 512 512;" xml:space="preserve">
<path style="fill:#1976D2;" d="M426.667,0H85.334C55.997-0.101,32.132,23.598,32.03,52.936c-0.009,2.452,0.153,4.902,0.483,7.331
	c0.767,5.841,6.124,9.954,11.965,9.187c1.417-0.186,2.782-0.655,4.014-1.379c4.708-2.731,10.067-4.138,15.509-4.075h54.613
	c13.708,0.031,25.888,8.751,30.336,21.717l1.813,5.824c7.333,21.735,27.686,36.393,50.624,36.459h246.613
	c5.594,0.005,11.088,1.476,15.936,4.267c5.081,2.981,11.617,1.278,14.598-3.803c0.956-1.629,1.462-3.482,1.466-5.37v-69.76
	C480.001,23.878,456.122,0,426.667,0z"/>
<path style="fill:#455A64;" d="M341.334,320c-5.891,0-10.667,4.776-10.667,10.667v23.595
	c-19.369-20.859-46.222-33.181-74.667-34.261c-53.019,0-96,42.981-96,96s42.981,96,96,96c5.891,0,10.667-4.776,10.667-10.667
	s-4.776-10.667-10.667-10.667c-41.237,0-74.667-33.429-74.667-74.667s33.429-74.667,74.667-74.667
	c29.191,1.702,55.677,17.657,70.827,42.667h-49.493c-5.891,0-10.667,4.776-10.667,10.667c0,5.891,4.776,10.667,10.667,10.667h64
	c5.891,0,10.667-4.776,10.667-10.667v-64C352.001,324.776,347.225,320,341.334,320z"/>
<path style="fill:#2196F3;" d="M474.731,113.878c-8.115-4.728-17.339-7.216-26.731-7.211H201.387
	c-13.708-0.031-25.888-8.751-30.336-21.717l-1.813-5.824c-7.333-21.735-27.686-36.393-50.624-36.459H64.001
	c-9.171-0.085-18.197,2.295-26.133,6.891c-4.178,2.367-8.011,5.295-11.392,8.704C16.29,68.166,10.582,81.794,10.667,96v256
	c0,29.455,23.878,53.333,53.333,53.333h75.2c5.404-64.091,61.74-111.666,125.831-106.263c17.183,1.449,33.831,6.695,48.739,15.361
	c8.979-15.222,28.598-20.284,43.82-11.305c9.749,5.75,15.735,16.222,15.743,27.54v64c-0.035,3.642-0.699,7.251-1.963,10.667h76.629
	c29.455,0,53.333-23.878,53.333-53.333V160C501.394,140.964,491.24,123.358,474.731,113.878z"/>
<g>
</g>
<g>
</g>
<g>
</g>
<g>
</g>
<g>
</g>
<g>
</g>
<g>
</g>
<g>
</g>
<g>
</g>
<g>
</g>
<g>
</g>
<g>
</g>
<g>
</g>
<g>
</g>
<g>
</g>
</svg>
