<?xml version="1.0" encoding="iso-8859-1"?>
<!-- Generator: Adobe Illustrator 19.0.0, SVG Export Plug-In . SVG Version: 6.00 Build 0)  -->
<svg version="1.1" id="Capa_1" xmlns="http://www.w3.org/2000/svg" xmlns:xlink="http://www.w3.org/1999/xlink" x="0px" y="0px"
	 viewBox="0 0 512 512" style="enable-background:new 0 0 512 512;" xml:space="preserve">
<path style="fill:#1976D2;" d="M426.667,0H85.334C55.997-0.101,32.132,23.598,32.03,52.936c-0.009,2.452,0.153,4.902,0.483,7.331
	c0.767,5.841,6.124,9.954,11.965,9.187c1.417-0.186,2.782-0.655,4.014-1.379c4.708-2.731,10.067-4.138,15.509-4.075h54.613
	c13.708,0.031,25.888,8.751,30.336,21.717l1.813,5.824c7.333,21.735,27.686,36.393,50.624,36.459h246.613
	c5.594,0.005,11.088,1.476,15.936,4.267c5.081,2.981,11.617,1.278,14.598-3.803c0.956-1.629,1.462-3.482,1.466-5.37v-69.76
	C480.001,23.878,456.122,0,426.667,0z"/>
<path style="fill:#2196F3;" d="M474.731,113.878c-8.115-4.728-17.339-7.216-26.731-7.211H201.387
	c-13.708-0.031-25.888-8.751-30.336-21.717l-1.813-5.824c-7.333-21.735-27.686-36.393-50.624-36.459H64.001
	c-9.171-0.085-18.197,2.295-26.133,6.891c-4.178,2.367-8.011,5.295-11.392,8.704C16.29,68.166,10.582,81.794,10.667,96v256
	c0,29.455,23.878,53.333,53.333,53.333h384c29.455,0,53.333-23.878,53.333-53.333V160
	C501.394,140.964,491.24,123.358,474.731,113.878z"/>
<circle style="fill:#455A64;" cx="256.001" cy="394.667" r="117.333"/>
<g>
	<path style="fill:#FAFAFA;" d="M263.467,451.179c-3.003-3.059-7.566-3.98-11.52-2.325c-1.333,0.441-2.515,1.246-3.413,2.325
		c-4.124,3.939-4.274,10.475-0.335,14.598c0.109,0.114,0.221,0.226,0.335,0.335c0.903,1.078,2.083,1.89,3.413,2.347
		c2.582,1.138,5.524,1.138,8.107,0c1.332-0.453,2.513-1.265,3.413-2.347c2.077-1.923,3.24-4.637,3.2-7.467
		c0.022-1.398-0.269-2.783-0.853-4.053C265.362,453.26,264.55,452.078,263.467,451.179z"/>
	<path style="fill:#FAFAFA;" d="M256.001,320c-25.365-2.505-48.469,14.703-53.333,39.723c-0.495,5.891,3.88,11.068,9.771,11.563
		c5.891,0.495,11.068-3.88,11.563-9.771c0.939-11.115,15.296-20.181,32-20.181c17.365,0,32,9.771,32,21.333
		c0,10.411-10.112,17.067-31.808,21.099l-2.325,0.448c-4.951,1.011-8.514,5.357-8.533,10.411v21.333
		c0,5.891,4.776,10.667,10.667,10.667l0,0c5.891,0,10.667-4.776,10.667-10.667v-12.651c28.309-6.656,42.667-20.331,42.667-40.704
		C305.965,336.337,282.362,317.482,256.001,320z"/>
</g>
<g>
</g>
<g>
</g>
<g>
</g>
<g>
</g>
<g>
</g>
<g>
</g>
<g>
</g>
<g>
</g>
<g>
</g>
<g>
</g>
<g>
</g>
<g>
</g>
<g>
</g>
<g>
</g>
<g>
</g>
</svg>
