<?xml version="1.0" encoding="iso-8859-1"?>
<!-- Generator: Adobe Illustrator 19.0.0, SVG Export Plug-In . SVG Version: 6.00 Build 0)  -->
<svg version="1.1" id="Capa_1" xmlns="http://www.w3.org/2000/svg" xmlns:xlink="http://www.w3.org/1999/xlink" x="0px" y="0px"
	 viewBox="0 0 512 512" style="enable-background:new 0 0 512 512;" xml:space="preserve">
<path style="fill:#1976D2;" d="M309.334,42.667H288c-5.891,0-10.667,4.776-10.667,10.667v91.307
	c-0.058,4.537-2.909,8.568-7.168,10.133l-35.2,11.584c-12.916,4.499-21.587,16.659-21.632,30.336v261.973
	c0,5.891,4.776,10.667,10.667,10.667h85.333c29.455,0,53.333-23.878,53.333-53.333V96C362.667,66.545,338.789,42.667,309.334,42.667
	z"/>
<polygon style="fill:#607D8B;" points="501.334,373.334 501.334,416 224,416 224,309.334 288,245.334 352,309.334 394.667,266.667 
	"/>
<g>
	<path style="fill:#CFD8DC;" d="M501.334,426.667H224c-5.891,0-10.667-4.776-10.667-10.667V309.334
		c-0.005-2.831,1.115-5.548,3.115-7.552l64-64c4.165-4.164,10.917-4.164,15.083,0L352,294.251l35.115-35.115
		c4.165-4.164,10.917-4.164,15.083,0l106.667,106.667c2.002,1.996,3.13,4.704,3.136,7.531V416
		C512,421.891,507.225,426.667,501.334,426.667z M234.667,405.334h256V377.75l-96-96l-35.115,35.115
		c-4.165,4.164-10.917,4.164-15.083,0L288,260.416l-53.333,53.333V405.334z"/>
	<path style="fill:#CFD8DC;" d="M501.334,106.667H224c-5.891,0-10.667,4.776-10.667,10.667v192
		c-0.011,5.891,4.757,10.675,10.648,10.686c2.84,0.005,5.565-1.123,7.571-3.134L288,260.416l56.448,56.448
		c4.165,4.164,10.917,4.164,15.083,0l35.136-35.115l99.115,99.115c2.001,2.007,4.718,3.135,7.552,3.136
		c1.399,0.003,2.784-0.273,4.075-0.811c3.989-1.649,6.591-5.54,6.592-9.856v-256C512,111.442,507.225,106.667,501.334,106.667z"/>
</g>
<circle style="fill:#455A64;" cx="405.334" cy="192" r="42.667"/>
<path style="fill:#2196F3;" d="M266.667,0c-29.351-0.029-58.55,4.219-86.677,12.608L38.059,55.275
	C15.446,62.034-0.035,82.852,0,106.454V407.68c-0.067,22.305,13.754,42.296,34.645,50.112l122.923,46.08
	c14.43,5.371,29.702,8.124,45.099,8.128c17.673,0,32-14.327,32-32V196.694c0.058-4.537,2.909-8.568,7.168-10.133l35.2-11.584
	c12.912-4.504,21.581-16.661,21.632-30.336V32C298.667,14.327,284.34,0,266.667,0z"/>
<g>
</g>
<g>
</g>
<g>
</g>
<g>
</g>
<g>
</g>
<g>
</g>
<g>
</g>
<g>
</g>
<g>
</g>
<g>
</g>
<g>
</g>
<g>
</g>
<g>
</g>
<g>
</g>
<g>
</g>
</svg>
