<?xml version="1.0" encoding="iso-8859-1"?>
<!-- Generator: Adobe Illustrator 19.0.0, SVG Export Plug-In . SVG Version: 6.00 Build 0)  -->
<svg version="1.1" id="Capa_1" xmlns="http://www.w3.org/2000/svg" xmlns:xlink="http://www.w3.org/1999/xlink" x="0px" y="0px"
	 viewBox="0 0 512 512" style="enable-background:new 0 0 512 512;" xml:space="preserve">
<path style="fill:#FFA000;" d="M437.333,0H74.667C45.211,0.021,21.35,23.916,21.371,53.372c0.002,2.306,0.153,4.609,0.453,6.895
	c0.466,3.545,2.676,6.621,5.888,8.192c3.222,1.539,6.995,1.395,10.091-0.384c4.715-2.732,10.081-4.14,15.531-4.075h75.947
	c13.702,0.051,25.872,8.763,30.336,21.717l1.813,5.845c7.345,21.723,27.693,36.368,50.624,36.437h246.613
	c5.594,0.005,11.088,1.476,15.936,4.267c1.638,0.955,3.501,1.455,5.397,1.451c5.891,0,10.667-4.776,10.667-10.667V53.333
	C490.667,23.878,466.789,0,437.333,0z"/>
<g>
	<path style="fill:#607D8B;" d="M245.333,448c-5.891,0-10.667-4.776-10.667-10.667v-42.667c0-5.891,4.776-10.667,10.667-10.667
		c5.891,0,10.667,4.776,10.667,10.667v42.667C256,443.225,251.224,448,245.333,448z"/>
	<path style="fill:#607D8B;" d="M501.333,490.667H288c-5.891,0-10.667-4.776-10.667-10.667s4.776-10.667,10.667-10.667h213.333
		c5.891,0,10.667,4.776,10.667,10.667S507.224,490.667,501.333,490.667z"/>
	<path style="fill:#607D8B;" d="M202.667,490.667h-192C4.776,490.667,0,485.891,0,480s4.776-10.667,10.667-10.667h192
		c5.891,0,10.667,4.776,10.667,10.667S208.558,490.667,202.667,490.667z"/>
</g>
<path style="fill:#FFC107;" d="M485.397,113.877c-8.113-4.731-17.339-7.219-26.731-7.211H212.053
	c-13.702-0.051-25.872-8.763-30.336-21.717l-1.792-5.845c-7.359-21.722-27.711-36.364-50.645-36.437H53.333
	c-9.171-0.085-18.197,2.295-26.133,6.891C10.414,58.993,0.018,76.744,0,96v256c0,29.455,23.878,53.333,53.333,53.333h405.333
	C488.122,405.333,512,381.455,512,352V160C512.061,140.964,501.906,123.357,485.397,113.877z"/>
<path style="fill:#455A64;" d="M288,448h-10.667v-10.667c0-5.891-4.776-10.667-10.667-10.667H224
	c-5.891,0-10.667,4.776-10.667,10.667V448h-10.667c-5.891,0-10.667,4.776-10.667,10.667v42.667c0,5.891,4.776,10.667,10.667,10.667
	H288c5.891,0,10.667-4.776,10.667-10.667v-42.667C298.667,452.776,293.891,448,288,448z"/>
<g>
</g>
<g>
</g>
<g>
</g>
<g>
</g>
<g>
</g>
<g>
</g>
<g>
</g>
<g>
</g>
<g>
</g>
<g>
</g>
<g>
</g>
<g>
</g>
<g>
</g>
<g>
</g>
<g>
</g>
</svg>
