<?xml version="1.0" encoding="iso-8859-1"?>
<!-- Generator: Adobe Illustrator 19.0.0, SVG Export Plug-In . SVG Version: 6.00 Build 0)  -->
<svg version="1.1" id="Capa_1" xmlns="http://www.w3.org/2000/svg" xmlns:xlink="http://www.w3.org/1999/xlink" x="0px" y="0px"
	 viewBox="0 0 512 512" style="enable-background:new 0 0 512 512;" xml:space="preserve">
<path style="fill:#1976D2;" d="M426.667,0H85.334C55.997-0.101,32.132,23.598,32.03,52.936c-0.009,2.452,0.153,4.902,0.483,7.331
	c0.767,5.841,6.124,9.954,11.965,9.187c1.417-0.186,2.782-0.655,4.014-1.379c4.708-2.731,10.067-4.138,15.509-4.075h54.613
	c13.708,0.031,25.888,8.751,30.336,21.717l1.813,5.824c7.333,21.735,27.686,36.393,50.624,36.459h246.613
	c5.594,0.005,11.088,1.476,15.936,4.267c5.081,2.981,11.617,1.278,14.598-3.803c0.956-1.629,1.462-3.482,1.466-5.37v-69.76
	C480.001,23.878,456.122,0,426.667,0z"/>
<path style="fill:#FFC107;" d="M326.571,343.574c-2.589-2.022-5.965-2.738-9.152-1.941l-85.333,21.333
	c-4.75,1.185-8.084,5.451-8.085,10.347v97.173c-3.504-0.763-7.08-1.149-10.667-1.152c-18.539,0-32,8.981-32,21.333
	c0,12.352,13.461,21.333,32,21.333s32-8.981,32-21.333V381.675l64-16v83.52c-3.503-0.778-7.079-1.178-10.667-1.195
	c-18.539,0-32,8.981-32,21.333s13.461,21.333,32,21.333s32-8.981,32-21.333V352C330.675,348.71,329.163,345.6,326.571,343.574z"/>
<path style="fill:#2196F3;" d="M474.731,113.878c-8.115-4.728-17.339-7.216-26.731-7.211H201.387
	c-13.708-0.031-25.888-8.751-30.336-21.717l-1.813-5.824c-7.333-21.735-27.686-36.393-50.624-36.459H64.001
	c-9.171-0.085-18.197,2.295-26.133,6.891c-4.178,2.367-8.011,5.295-11.392,8.704C16.29,68.166,10.582,81.794,10.667,96v256
	c0,29.455,23.878,53.333,53.333,53.333h138.667v-32c0.002-14.681,9.993-27.477,24.235-31.04l85.333-21.333
	c17.145-4.289,34.52,6.133,38.809,23.278c0.635,2.538,0.956,5.145,0.957,7.762v53.333h96c29.455,0,53.333-23.878,53.333-53.333V160
	C501.394,140.964,491.24,123.358,474.731,113.878z"/>
<g>
</g>
<g>
</g>
<g>
</g>
<g>
</g>
<g>
</g>
<g>
</g>
<g>
</g>
<g>
</g>
<g>
</g>
<g>
</g>
<g>
</g>
<g>
</g>
<g>
</g>
<g>
</g>
<g>
</g>
</svg>
