<?xml version="1.0" encoding="iso-8859-1"?>
<!-- Generator: Adobe Illustrator 19.0.0, SVG Export Plug-In . SVG Version: 6.00 Build 0)  -->
<svg version="1.1" id="Capa_1" xmlns="http://www.w3.org/2000/svg" xmlns:xlink="http://www.w3.org/1999/xlink" x="0px" y="0px"
	 viewBox="0 0 512 512" style="enable-background:new 0 0 512 512;" xml:space="preserve">
<g>
	<path style="fill:#455A64;" d="M120,437.333H98.389c-5.891,0-10.667,4.776-10.667,10.667c0,5.891,4.776,10.667,10.667,10.667H120
		c5.891,0,10.667-4.776,10.667-10.667C130.667,442.109,125.891,437.333,120,437.333z"/>
	<path style="fill:#455A64;" d="M53.333,437.333c-4.961,0.021-9.858-1.127-14.293-3.349c-5.272-2.633-11.681-0.494-14.315,4.779
		c-2.633,5.272-0.494,11.681,4.779,14.315c7.406,3.676,15.561,5.589,23.829,5.589h1.856c5.478-0.079,9.855-4.583,9.777-10.061
		c-0.003-0.202-0.012-0.404-0.027-0.605C64.499,441.935,59.414,437.261,53.333,437.333z"/>
	<path style="fill:#455A64;" d="M139.563,97.003c-3.394-0.666-6.845-1.002-10.304-1.003h-13.312
		c-5.891,0-10.667,4.776-10.667,10.667c0,5.891,4.776,10.667,10.667,10.667h13.312c2.077-0.007,4.149,0.194,6.187,0.597
		c0.703,0.134,1.418,0.198,2.133,0.192c5.891,0.068,10.721-4.653,10.788-10.544c0.059-5.161-3.586-9.624-8.655-10.598
		L139.563,97.003z"/>
	<path style="fill:#455A64;" d="M72.725,96H50.517c-2.86,0.127-5.479,1.64-7.019,4.053c0-0.448,0-0.896,0.171-1.344
		c1.479-5.708-1.95-11.535-7.659-13.013s-11.535,1.95-13.013,7.659c-1.115,4.349-1.675,8.822-1.664,13.312
		c0,5.891,4.776,10.667,10.667,10.667c4.862-0.043,9.06-3.412,10.155-8.149c1.609,4.821,6.097,8.093,11.179,8.149h19.392
		c5.891,0,10.667-4.776,10.667-10.667C83.392,100.776,78.616,96,72.725,96z"/>
	<path style="fill:#455A64;" d="M184.832,437.333h-21.611c-5.891,0-10.667,4.776-10.667,10.667c0,5.891,4.776,10.667,10.667,10.667
		h21.611c5.891,0,10.667-4.776,10.667-10.667C195.499,442.109,190.723,437.333,184.832,437.333z"/>
	<path style="fill:#455A64;" d="M248.149,170.667c0-5.891-4.776-10.667-10.667-10.667h-21.611c-5.891,0-10.667,4.776-10.667,10.667
		s4.776,10.667,10.667,10.667h21.611C243.374,181.333,248.149,176.558,248.149,170.667z"/>
	<path style="fill:#455A64;" d="M10.667,290.411c5.891,0,10.667-4.776,10.667-10.667v-21.611c0-5.891-4.776-10.667-10.667-10.667
		S0,252.242,0,258.133v21.611C0,285.635,4.776,290.411,10.667,290.411z"/>
	<path style="fill:#455A64;" d="M10.667,160.384c5.967-0.174,10.704-5.081,10.667-11.051c-0.01-5.432,1.363-10.776,3.989-15.531
		c2.907-5.124,1.111-11.634-4.013-14.541c-5.124-2.907-11.634-1.111-14.541,4.013c-0.038,0.067-0.076,0.135-0.113,0.203
		c-4.363,7.92-6.652,16.814-6.656,25.856v0.768c0.033,5.714,4.691,10.32,10.406,10.287C10.493,160.388,10.58,160.387,10.667,160.384
		z"/>
	<path style="fill:#455A64;" d="M10.667,225.6c5.891,0,10.667-4.776,10.667-10.667v-21.611c0-5.891-4.776-10.667-10.667-10.667
		S0,187.432,0,193.323v21.611C0,220.824,4.776,225.6,10.667,225.6z"/>
	<path style="fill:#455A64;" d="M21.333,387.797c0-5.891-4.776-10.667-10.667-10.667S0,381.906,0,387.797v17.536
		c0,1.707,0,3.392,0.235,5.056c0.519,5.496,5.146,9.688,10.667,9.664h1.024c5.865-0.551,10.173-5.752,9.622-11.618
		c0-0.003-0.001-0.006-0.001-0.009c-0.125-1.027-0.196-2.059-0.213-3.093V387.797z"/>
	<path style="fill:#455A64;" d="M10.667,355.243c5.891,0,10.667-4.776,10.667-10.667v-21.611c0-5.891-4.776-10.667-10.667-10.667
		S0,317.074,0,322.965v21.611C0,350.467,4.776,355.243,10.667,355.243z"/>
	<path style="fill:#455A64;" d="M249.6,437.333h-21.568c-5.891,0-10.667,4.776-10.667,10.667c0,5.891,4.776,10.667,10.667,10.667
		H249.6c5.891,0,10.667-4.776,10.667-10.667C260.267,442.109,255.491,437.333,249.6,437.333z"/>
	<path style="fill:#455A64;" d="M161.472,144.875c1.843,5.473,4.551,10.616,8.021,15.232c3.535,4.713,10.221,5.668,14.933,2.133
		c4.713-3.535,5.668-10.221,2.133-14.933c-2.084-2.783-3.711-5.879-4.821-9.173l-1.856-5.589l-0.768-2.133
		c-2.021-5.105-7.798-7.605-12.903-5.584c-0.116,0.046-0.231,0.094-0.345,0.144c-5.477,2.397-8.197,8.597-6.251,14.251
		L161.472,144.875z"/>
	<path style="fill:#455A64;" d="M491.925,197.227c2.431-0.006,4.786-0.841,6.677-2.368c4.548-3.689,5.272-10.354,1.621-14.933
		c-2.788-3.472-5.999-6.582-9.557-9.259l0,0V160c-0.035-5.291-3.987-9.736-9.237-10.389c5.243-0.652,9.192-5.085,9.237-10.368
		v-10.667c0-5.891-4.776-10.667-10.667-10.667c-5.891,0-10.667,4.776-10.667,10.667v10.667c0.035,5.291,3.987,9.736,9.237,10.389
		c-5.243,0.652-9.192,5.085-9.237,10.368v4.843c-1.978,1.114-3.536,2.845-4.437,4.928c-2.214,5.449,0.401,11.662,5.845,13.888
		c5.008,2.058,9.412,5.354,12.8,9.579C485.58,195.777,488.668,197.247,491.925,197.227z"/>
	<path style="fill:#455A64;" d="M502.165,411.733c-5.443-2.249-11.68,0.339-13.931,5.781c-2.085,5.011-5.402,9.414-9.643,12.8
		c-4.743,3.494-5.756,10.171-2.262,14.914c3.494,4.743,10.171,5.756,14.914,2.262c0.204-0.15,0.403-0.308,0.596-0.473
		c7.093-5.629,12.636-12.97,16.107-21.333c2.26-5.44-0.318-11.683-5.759-13.943C502.181,411.74,502.173,411.736,502.165,411.733z"/>
	<path style="fill:#455A64;" d="M444.117,437.333h-21.589c-5.891,0-10.667,4.776-10.667,10.667c0,5.891,4.776,10.667,10.667,10.667
		h21.611c5.891,0,10.667-4.776,10.667-10.667c0-5.891-4.776-10.667-10.667-10.667H444.117z"/>
	<path style="fill:#455A64;" d="M501.333,216.939c-5.891,0-10.667,4.776-10.667,10.667v21.611c0,5.891,4.776,10.667,10.667,10.667
		S512,255.107,512,249.216v-21.611C512,221.714,507.224,216.939,501.333,216.939z"/>
	<path style="fill:#455A64;" d="M501.333,346.603c-5.891,0-10.667,4.776-10.667,10.667v21.611c0,5.891,4.776,10.667,10.667,10.667
		S512,384.771,512,378.88v-21.611C512,351.378,507.224,346.603,501.333,346.603z"/>
	<path style="fill:#455A64;" d="M501.333,281.771c-5.891,0-10.667,4.776-10.667,10.667v21.611c0,5.891,4.776,10.667,10.667,10.667
		S512,319.939,512,314.048v-21.611C512,286.546,507.224,281.771,501.333,281.771z"/>
	<path style="fill:#455A64;" d="M377.792,170.667c0-5.891-4.776-10.667-10.667-10.667H345.6c-5.891,0-10.667,4.776-10.667,10.667
		s4.776,10.667,10.667,10.667h21.611C373.068,181.286,377.792,176.525,377.792,170.667z"/>
	<path style="fill:#455A64;" d="M312.96,170.667c0-5.891-4.776-10.667-10.667-10.667h-21.611c-5.891,0-10.667,4.776-10.667,10.667
		s4.776,10.667,10.667,10.667h21.611C308.184,181.333,312.96,176.558,312.96,170.667z"/>
	<path style="fill:#455A64;" d="M314.475,437.333h-21.589c-5.891,0-10.667,4.776-10.667,10.667c0,5.891,4.776,10.667,10.667,10.667
		h21.611c5.891,0,10.667-4.776,10.667-10.667c0-5.891-4.776-10.667-10.667-10.667H314.475z"/>
	<path style="fill:#455A64;" d="M379.307,437.333h-21.611c-5.891,0-10.667,4.776-10.667,10.667c0,5.891,4.776,10.667,10.667,10.667
		h21.611c5.891,0,10.667-4.776,10.667-10.667C389.973,442.109,385.198,437.333,379.307,437.333z"/>
	<path style="fill:#455A64;" d="M442.624,170.667c0-5.891-4.776-10.667-10.667-10.667h-21.632c-5.891,0-10.667,4.776-10.667,10.667
		s4.776,10.667,10.667,10.667h21.632C437.848,181.333,442.624,176.558,442.624,170.667z"/>
	<path style="fill:#455A64;" d="M60.139,77.205c1.228,0.003,2.448-0.206,3.605-0.619c2.492-0.901,5.086-1.488,7.723-1.749
		c5.891-0.589,10.189-5.842,9.6-11.733c-0.589-5.891-5.842-10.189-11.733-9.6c-4.369,0.44-8.668,1.415-12.8,2.901
		c-5.549,1.977-8.445,8.078-6.468,13.628c1.517,4.258,5.553,7.098,10.074,7.087V77.205z"/>
	<path style="fill:#455A64;" d="M321.045,74.667h22.763c5.891,0,10.667-4.776,10.667-10.667s-4.776-10.667-10.667-10.667h-22.763
		c-5.891,0-10.667,4.776-10.667,10.667S315.154,74.667,321.045,74.667z"/>
	<path style="fill:#455A64;" d="M252.693,74.667h22.784c5.891,0,10.667-4.776,10.667-10.667s-4.776-10.667-10.667-10.667h-22.784
		c-5.891,0-10.667,4.776-10.667,10.667S246.802,74.667,252.693,74.667z"/>
	<path style="fill:#455A64;" d="M389.376,74.667h22.784c5.891,0,10.667-4.776,10.667-10.667s-4.776-10.667-10.667-10.667h-22.784
		c-5.891,0-10.667,4.776-10.667,10.667S383.485,74.667,389.376,74.667z"/>
	<path style="fill:#455A64;" d="M138.795,53.333h-22.805c-5.891,0-10.667,4.776-10.667,10.667s4.776,10.667,10.667,10.667h22.805
		c5.891,0,10.667-4.776,10.667-10.667S144.686,53.333,138.795,53.333z"/>
	<path style="fill:#455A64;" d="M184.363,74.667h22.763c5.891,0,10.667-4.776,10.667-10.667s-4.776-10.667-10.667-10.667h-22.763
		c-5.891,0-10.667,4.776-10.667,10.667S178.472,74.667,184.363,74.667z"/>
	<path style="fill:#455A64;" d="M473.6,94.699c5.891,0,10.667-4.776,10.667-10.667c0-1.999-0.562-3.958-1.621-5.653
		c-5.057-8.1-12.196-14.694-20.672-19.093c-5.231-2.716-11.674-0.677-14.389,4.555c-2.716,5.231-0.677,11.674,4.555,14.389
		c5.087,2.632,9.375,6.581,12.416,11.435C466.499,92.791,469.918,94.694,473.6,94.699z"/>
</g>
<g>
</g>
<g>
</g>
<g>
</g>
<g>
</g>
<g>
</g>
<g>
</g>
<g>
</g>
<g>
</g>
<g>
</g>
<g>
</g>
<g>
</g>
<g>
</g>
<g>
</g>
<g>
</g>
<g>
</g>
</svg>
