<?xml version="1.0" encoding="iso-8859-1"?>
<!-- Generator: Adobe Illustrator 19.0.0, SVG Export Plug-In . SVG Version: 6.00 Build 0)  -->
<svg version="1.1" id="Capa_1" xmlns="http://www.w3.org/2000/svg" xmlns:xlink="http://www.w3.org/1999/xlink" x="0px" y="0px"
	 viewBox="0 0 512 512" style="enable-background:new 0 0 512 512;" xml:space="preserve">
<path style="fill:#1976D2;" d="M309.334,42.667H288c-5.891,0-10.667,4.776-10.667,10.667v91.307
	c-0.064,4.535-2.913,8.563-7.168,10.133L234.987,166.4c-12.91,4.486-21.587,16.626-21.653,30.293v261.973
	c0,5.891,4.776,10.667,10.667,10.667h85.333c29.455,0,53.333-23.878,53.333-53.333V96C362.667,66.545,338.789,42.667,309.334,42.667
	z"/>
<path style="fill:#455A64;" d="M394.667,192h-85.333c-40.504,0.234-77.297,23.638-94.677,60.224
	c-0.874,1.588-1.329,3.372-1.323,5.184v137.259c0,5.891,4.776,10.667,10.667,10.667h10.667c44.245,0,66.027-41.515,72.192-55.808
	c29.095-10.929,61.167-10.929,90.261,0c6.187,14.293,27.968,55.808,72.213,55.808c28.309,0,42.667-25.131,42.667-74.667
	C512,293.654,484.267,192,394.667,192z"/>
<g>
	<circle style="fill:#CFD8DC;" cx="394.667" cy="266.667" r="10.667"/>
	<circle style="fill:#CFD8DC;" cx="416" cy="288" r="10.667"/>
	<circle style="fill:#CFD8DC;" cx="416" cy="245.334" r="10.667"/>
	<circle style="fill:#CFD8DC;" cx="437.334" cy="266.667" r="10.667"/>
	<path style="fill:#CFD8DC;" d="M288,298.667c-5.891,0-10.667-4.776-10.667-10.667v-42.667c0-5.891,4.776-10.667,10.667-10.667
		c5.891,0,10.667,4.776,10.667,10.667V288C298.667,293.891,293.891,298.667,288,298.667z"/>
	<path style="fill:#CFD8DC;" d="M309.334,277.334h-42.667c-5.891,0-10.667-4.776-10.667-10.667c0-5.891,4.776-10.667,10.667-10.667
		h42.667c5.891,0,10.667,4.776,10.667,10.667C320,272.558,315.225,277.334,309.334,277.334z"/>
</g>
<path style="fill:#2196F3;" d="M266.667,0c-29.358-0.028-58.564,4.219-86.699,12.608L38.059,55.275
	C15.446,62.034-0.035,82.852,0,106.454V407.68c-0.064,22.311,13.767,42.303,34.667,50.112l122.923,46.08
	c14.423,5.369,29.688,8.122,45.077,8.128c17.673,0,32-14.327,32-32V196.694c0.064-4.535,2.913-8.563,7.168-10.133l35.179-11.627
	c12.91-4.486,21.587-16.626,21.653-30.293V32C298.667,14.327,284.34,0,266.667,0z"/>
<g>
</g>
<g>
</g>
<g>
</g>
<g>
</g>
<g>
</g>
<g>
</g>
<g>
</g>
<g>
</g>
<g>
</g>
<g>
</g>
<g>
</g>
<g>
</g>
<g>
</g>
<g>
</g>
<g>
</g>
</svg>
