<?xml version="1.0" encoding="iso-8859-1"?>
<!-- Generator: Adobe Illustrator 19.0.0, SVG Export Plug-In . SVG Version: 6.00 Build 0)  -->
<svg version="1.1" id="Capa_1" xmlns="http://www.w3.org/2000/svg" xmlns:xlink="http://www.w3.org/1999/xlink" x="0px" y="0px"
	 viewBox="0 0 512.005 512.005" style="enable-background:new 0 0 512.005 512.005;" xml:space="preserve">
<path style="fill:#1976D2;" d="M416.003,149.338h-320c-29.455,0-53.333,23.878-53.333,53.333v21.333
	c0,5.891,4.776,10.667,10.667,10.667h91.307c4.549,0.021,8.599,2.885,10.133,7.168l11.627,35.179
	c4.486,12.91,16.626,21.587,30.293,21.653h261.973c5.891,0,10.667-4.776,10.667-10.667v-85.333
	C469.336,173.216,445.458,149.338,416.003,149.338z"/>
<path style="fill:#CFD8DC;" d="M416.003,0.005h-192c-5.891,0-10.667,4.776-10.667,10.667v117.333H96.003
	c-5.891,0-10.667,4.776-10.667,10.667v149.333c0,5.891,4.776,10.667,10.667,10.667h320c5.891,0,10.667-4.776,10.667-10.667V10.671
	C426.669,4.78,421.894,0.005,416.003,0.005z"/>
<path style="fill:#B0BEC5;" d="M228.077,0.815c-3.985-1.654-8.574-0.745-11.627,2.304l-128,128
	c-4.171,4.16-4.179,10.914-0.019,15.085c2.006,2.011,4.731,3.139,7.571,3.134h128c5.891,0,10.667-4.776,10.667-10.667v-128
	C234.668,6.355,232.066,2.464,228.077,0.815z"/>
<path style="fill:#2196F3;" d="M480.003,277.338H196.696c-4.535-0.064-8.563-2.913-10.133-7.168l-11.627-35.179
	c-4.492-12.906-16.628-21.581-30.293-21.653H32.003c-17.673,0-32,14.327-32,32c-0.028,29.358,4.219,58.564,12.608,86.699
	l42.667,141.909c6.759,22.613,27.577,38.094,51.179,38.059h301.227c22.311,0.064,42.303-13.767,50.112-34.667l46.08-122.923
	c5.369-14.423,8.122-29.688,8.128-45.077C512.003,291.665,497.676,277.338,480.003,277.338z"/>
<g>
</g>
<g>
</g>
<g>
</g>
<g>
</g>
<g>
</g>
<g>
</g>
<g>
</g>
<g>
</g>
<g>
</g>
<g>
</g>
<g>
</g>
<g>
</g>
<g>
</g>
<g>
</g>
<g>
</g>
</svg>
