<?xml version="1.0" encoding="iso-8859-1"?>
<!-- Generator: Adobe Illustrator 19.0.0, SVG Export Plug-In . SVG Version: 6.00 Build 0)  -->
<svg version="1.1" id="Capa_1" xmlns="http://www.w3.org/2000/svg" xmlns:xlink="http://www.w3.org/1999/xlink" x="0px" y="0px"
	 viewBox="0 0 512 512" style="enable-background:new 0 0 512 512;" xml:space="preserve">
<g>
	<path style="fill:#1976D2;" d="M448,277.333H234.667c-17.673,0-32,14.327-32,32v21.333c0,5.891,4.776,10.667,10.667,10.667h63.723
		c3.541,0.789,11.947,10.816,16.939,16.811c10.667,12.8,21.675,25.877,35.392,25.877h139.947c5.891,0,10.667-4.776,10.667-10.667
		v-64c0.012-17.673-14.306-32.01-31.979-32.021C448.014,277.333,448.007,277.333,448,277.333z"/>
	<path style="fill:#1976D2;" d="M448,0H234.667c-17.673,0-32,14.327-32,32v21.333c0,5.891,4.776,10.667,10.667,10.667h63.723
		c3.541,0.789,11.947,10.816,16.939,16.811c10.667,12.693,21.739,25.856,35.392,25.856h139.947c5.891,0,10.667-4.776,10.667-10.667
		V32C480,14.327,465.673,0,448,0z"/>
</g>
<g>
	<circle style="fill:#455A64;" cx="21.333" cy="10.667" r="10.667"/>
	<circle style="fill:#455A64;" cx="21.333" cy="53.333" r="10.667"/>
	<circle style="fill:#455A64;" cx="21.333" cy="96" r="10.667"/>
	<circle style="fill:#455A64;" cx="21.333" cy="138.667" r="10.667"/>
	<circle style="fill:#455A64;" cx="64" cy="138.667" r="10.667"/>
	<circle style="fill:#455A64;" cx="106.667" cy="138.667" r="10.667"/>
	<circle style="fill:#455A64;" cx="149.333" cy="138.667" r="10.667"/>
	<circle style="fill:#455A64;" cx="21.333" cy="181.333" r="10.667"/>
	<circle style="fill:#455A64;" cx="21.333" cy="224" r="10.667"/>
	<circle style="fill:#455A64;" cx="21.333" cy="266.667" r="10.667"/>
	<circle style="fill:#455A64;" cx="21.333" cy="309.333" r="10.667"/>
	<circle style="fill:#455A64;" cx="21.333" cy="352" r="10.667"/>
	<circle style="fill:#455A64;" cx="21.333" cy="394.667" r="10.667"/>
	<circle style="fill:#455A64;" cx="21.333" cy="437.333" r="10.667"/>
	<circle style="fill:#455A64;" cx="64" cy="437.333" r="10.667"/>
	<circle style="fill:#455A64;" cx="106.667" cy="437.333" r="10.667"/>
	<circle style="fill:#455A64;" cx="149.333" cy="437.333" r="10.667"/>
</g>
<g>
	<path style="fill:#2196F3;" d="M469.333,85.333H329.408c-3.989-0.235-13.781-11.947-19.051-18.24
		c-10.496-12.565-20.416-24.427-33.024-24.427h-64c-17.673,0-32,14.327-32,32v128c0,17.673,14.327,32,32,32h256
		c17.673,0,32-14.327,32-32v-85.333C501.333,99.66,487.006,85.333,469.333,85.333z"/>
	<path style="fill:#2196F3;" d="M469.333,362.667H329.408c-3.989-0.235-13.781-11.947-19.051-18.24
		C299.861,331.861,289.941,320,277.333,320h-64c-17.673,0-32,14.327-32,32v128c0,17.673,14.327,32,32,32h256
		c17.673,0,32-14.327,32-32v-85.333C501.333,376.994,487.006,362.667,469.333,362.667z"/>
</g>
<g>
</g>
<g>
</g>
<g>
</g>
<g>
</g>
<g>
</g>
<g>
</g>
<g>
</g>
<g>
</g>
<g>
</g>
<g>
</g>
<g>
</g>
<g>
</g>
<g>
</g>
<g>
</g>
<g>
</g>
</svg>
