<?xml version="1.0" encoding="iso-8859-1"?>
<!-- Generator: Adobe Illustrator 19.0.0, SVG Export Plug-In . SVG Version: 6.00 Build 0)  -->
<svg version="1.1" id="Capa_1" xmlns="http://www.w3.org/2000/svg" xmlns:xlink="http://www.w3.org/1999/xlink" x="0px" y="0px"
	 viewBox="0 0 512.004 512.004" style="enable-background:new 0 0 512.004 512.004;" xml:space="preserve">
<path style="fill:#1976D2;" d="M426.669,0H85.336C55.999-0.101,32.134,23.598,32.032,52.936c-0.009,2.452,0.153,4.902,0.483,7.331
	c0.767,5.841,6.124,9.954,11.965,9.187c1.417-0.186,2.782-0.655,4.014-1.379C53.201,65.344,58.56,63.937,64.003,64h54.613
	c13.708,0.031,25.888,8.751,30.336,21.717l1.813,5.824c7.333,21.735,27.686,36.393,50.624,36.459h246.613
	c5.594,0.005,11.088,1.476,15.936,4.267c5.081,2.981,11.617,1.278,14.598-3.803c0.956-1.629,1.462-3.482,1.466-5.37v-69.76
	C480.003,23.878,456.124,0,426.669,0z"/>
<path style="fill:#FFC107;" d="M400.643,353.344c-1.425-4.403-5.527-7.384-10.155-7.381H303.64l-26.837-82.603
	c-2.48-5.602-9.032-8.134-14.634-5.654c-2.522,1.116-4.538,3.132-5.654,5.654l-26.837,82.603h-86.741
	c-5.891,0.07-10.609,4.902-10.539,10.793c0.039,3.313,1.616,6.419,4.267,8.407l70.4,51.2l-25.259,81.856
	c-1.722,5.634,1.448,11.597,7.082,13.319c3.211,0.982,6.697,0.394,9.409-1.586l68.267-50.112l68.373,50.027
	c4.758,3.474,11.431,2.433,14.905-2.325c1.98-2.712,2.568-6.198,1.586-9.409l-25.024-81.749l70.4-51.2
	C400.491,362.471,402.037,357.706,400.643,353.344z"/>
<path style="fill:#2196F3;" d="M474.733,113.878c-8.115-4.728-17.339-7.216-26.731-7.211H201.389
	c-13.708-0.031-25.888-8.751-30.336-21.717l-1.813-5.824c-7.333-21.735-27.686-36.393-50.624-36.459H64.003
	c-9.171-0.085-18.197,2.295-26.133,6.891c-4.178,2.367-8.011,5.295-11.392,8.704C16.292,68.166,10.584,81.794,10.669,96v256
	c0,29.455,23.878,53.333,53.333,53.333h91.413l-31.403-22.784c-14.304-10.38-17.484-30.39-7.104-44.694
	c6.046-8.332,15.732-13.246,26.027-13.205h71.253l22.037-67.861c6.099-16.813,24.674-25.498,41.487-19.399
	c9.021,3.273,16.126,10.378,19.399,19.399l22.037,67.861h71.253c17.673,0.012,31.99,14.349,31.978,32.022
	c-0.007,10.242-4.916,19.861-13.205,25.877l-31.253,22.784h70.08c29.455,0,53.333-23.878,53.333-53.333V160
	C501.396,140.964,491.242,123.358,474.733,113.878z"/>
<g>
</g>
<g>
</g>
<g>
</g>
<g>
</g>
<g>
</g>
<g>
</g>
<g>
</g>
<g>
</g>
<g>
</g>
<g>
</g>
<g>
</g>
<g>
</g>
<g>
</g>
<g>
</g>
<g>
</g>
</svg>
