<?xml version="1.0" encoding="iso-8859-1"?>
<!-- Generator: Adobe Illustrator 19.0.0, SVG Export Plug-In . SVG Version: 6.00 Build 0)  -->
<svg version="1.1" id="Capa_1" xmlns="http://www.w3.org/2000/svg" xmlns:xlink="http://www.w3.org/1999/xlink" x="0px" y="0px"
	 viewBox="0 0 512 512" style="enable-background:new 0 0 512 512;" xml:space="preserve">
<path style="fill:#1976D2;" d="M309.334,42.667h-32V144.64c-0.216,4.564-3.113,8.566-7.381,10.197l-56.299,11.52
	c-12.925,4.491-21.606,16.653-21.653,30.336v272.64h117.333c29.455,0,53.333-23.878,53.333-53.333V96
	C362.667,66.545,338.789,42.667,309.334,42.667z"/>
<path style="fill:#CFD8DC;" d="M480,106.667H202.667c-5.891,0-10.667,4.776-10.667,10.667V416c0,5.891,4.776,10.667,10.667,10.667
	H480c17.673,0,32-14.327,32-32v-256C512,120.994,497.673,106.667,480,106.667z"/>
<path style="fill:#2196F3;" d="M245.334,0c-29.358-0.028-58.564,4.219-86.699,12.608L38.059,55.275
	C15.446,62.034-0.035,82.852,0,106.454V407.68c-0.064,22.311,13.767,42.303,34.667,50.112l101.589,46.08
	c14.423,5.369,29.688,8.122,45.077,8.128c17.673,0,32-14.327,32-32V196.694c0.064-4.535,2.913-8.563,7.168-10.133l35.179-11.627
	c12.91-4.486,21.588-16.626,21.653-30.293V32C277.334,14.327,263.007,0,245.334,0z"/>
<path style="fill:#546E7A;" d="M426.667,298.667c-14.165,0-21.333-10.667-21.333-32c0.349-29.807-23.531-54.252-53.338-54.601
	c-29.807-0.349-54.252,23.531-54.601,53.338s23.531,54.252,53.338,54.601c15.975,0.187,31.212-6.713,41.609-18.842
	c7.083,12.138,20.282,19.381,34.325,18.837c42.667,0,42.667-40.149,42.667-53.333c0.001-64.801-52.53-117.334-117.331-117.336
	c-64.801-0.001-117.334,52.53-117.336,117.331c-0.001,64.801,52.53,117.334,117.331,117.336c30.445,0.001,59.699-11.833,81.581-33
	c4.236-4.124,4.326-10.9,0.203-15.136s-10.9-4.326-15.136-0.203c-38.161,36.807-98.935,35.709-135.742-2.452
	s-35.709-98.935,2.452-135.742s98.935-35.709,135.742,2.452c17.284,17.92,26.93,41.854,26.903,66.75
	C448,290.603,442.624,298.667,426.667,298.667z M352,298.667c-17.673,0-32-14.327-32-32c0-17.673,14.327-32,32-32
	c17.673,0,32,14.327,32,32C384,284.34,369.673,298.667,352,298.667z"/>
<g>
</g>
<g>
</g>
<g>
</g>
<g>
</g>
<g>
</g>
<g>
</g>
<g>
</g>
<g>
</g>
<g>
</g>
<g>
</g>
<g>
</g>
<g>
</g>
<g>
</g>
<g>
</g>
<g>
</g>
</svg>
