<?xml version="1.0" encoding="iso-8859-1"?>
<!-- Generator: Adobe Illustrator 19.0.0, SVG Export Plug-In . SVG Version: 6.00 Build 0)  -->
<svg version="1.1" id="Capa_1" xmlns="http://www.w3.org/2000/svg" xmlns:xlink="http://www.w3.org/1999/xlink" x="0px" y="0px"
	 viewBox="0 0 512.024 512.024" style="enable-background:new 0 0 512.024 512.024;" xml:space="preserve">
<path style="fill:#B0BEC5;" d="M309.334,42.679H288c-5.891,0-10.667,4.776-10.667,10.667v91.307
	c-0.058,4.537-2.909,8.568-7.168,10.133l-35.2,11.584c-12.916,4.499-21.587,16.659-21.632,30.336v261.973
	c0,5.891,4.776,10.667,10.667,10.667h85.333c29.455,0,53.333-23.878,53.333-53.333v-320
	C362.667,66.557,338.789,42.679,309.334,42.679z"/>
<path style="fill:#1976D2;" d="M444.352,301.324l-85.333-74.667c-4.02-3.513-10.017-3.513-14.037,0l-85.333,74.667
	c-2.315,2.023-3.645,4.947-3.648,8.021v42.667c0,4.037,2.279,7.728,5.888,9.536l85.333,42.667c3.002,1.5,6.534,1.5,9.536,0
	l85.333-42.667c3.617-1.802,5.905-5.495,5.909-9.536v-42.667C447.997,306.271,446.667,303.347,444.352,301.324z"/>
<path style="fill:#2196F3;" d="M508.16,258.487l-64-53.333c-3.539-2.95-8.572-3.294-12.48-0.853l-85.333,53.333
	c-4.999,3.117-6.524,9.696-3.407,14.695c0.598,0.959,1.345,1.817,2.213,2.542l64,53.333c1.916,1.598,4.332,2.474,6.827,2.475
	c2,0.007,3.961-0.555,5.653-1.621l85.333-53.333c4.999-3.117,6.524-9.696,3.407-14.695
	C509.775,260.07,509.028,259.212,508.16,258.487z"/>
<g>
	<path style="fill:#64B5F6;" d="M506.112,150.476l-85.333-42.667c-3.418-1.705-7.486-1.453-10.667,0.661l-64,42.667
		c-4.899,3.272-6.218,9.895-2.947,14.794c0.841,1.259,1.94,2.324,3.224,3.126l85.333,53.333c1.692,1.066,3.653,1.628,5.653,1.621
		c2.495-0.001,4.911-0.877,6.827-2.475l64-53.333c4.518-3.781,5.115-10.508,1.334-15.026c-0.954-1.139-2.135-2.067-3.468-2.724
		L506.112,150.476z"/>
	<path style="fill:#64B5F6;" d="M357.654,257.633L272.32,204.3c-3.908-2.441-8.941-2.097-12.48,0.853l-64,53.333
		c-4.521,3.777-5.124,10.504-1.348,15.025c0.725,0.868,1.583,1.615,2.542,2.213l85.333,53.333c1.692,1.066,3.653,1.628,5.653,1.621
		c2.495-0.001,4.911-0.877,6.827-2.475l64-53.333c4.521-3.777,5.124-10.504,1.348-15.025
		C359.471,258.979,358.613,258.232,357.654,257.633z"/>
</g>
<path style="fill:#2196F3;" d="M357.91,151.137l-64-42.667c-3.181-2.114-7.249-2.366-10.667-0.661l-85.333,42.667
	c-5.285,2.603-7.459,8.997-4.857,14.282c0.656,1.333,1.584,2.514,2.724,3.468l64,53.333c1.916,1.598,4.332,2.474,6.827,2.475
	c2,0.007,3.961-0.555,5.653-1.621l85.333-53.333c4.998-3.119,6.521-9.698,3.403-14.696c-0.801-1.284-1.867-2.383-3.126-3.224
	L357.91,151.137z"/>
<polygon style="fill:#1565C0;" points="442.987,204.3 352,147.447 246.55,213.345 352,279.244 457.472,213.324 "/>
<path style="fill:#CFD8DC;" d="M266.667,0.012c-29.351-0.029-58.55,4.219-86.677,12.608L38.059,55.287
	C15.446,62.046-0.035,82.864,0,106.465v301.227c-0.067,22.305,13.754,42.296,34.645,50.112l122.923,46.08
	c14.43,5.371,29.702,8.124,45.099,8.128c17.673,0,32-14.327,32-32V196.705c0.058-4.537,2.909-8.568,7.168-10.133l35.2-11.584
	c12.912-4.504,21.581-16.661,21.632-30.336V32.012C298.667,14.339,284.34,0.012,266.667,0.012z"/>
<g>
</g>
<g>
</g>
<g>
</g>
<g>
</g>
<g>
</g>
<g>
</g>
<g>
</g>
<g>
</g>
<g>
</g>
<g>
</g>
<g>
</g>
<g>
</g>
<g>
</g>
<g>
</g>
<g>
</g>
</svg>
