<?xml version="1.0" encoding="iso-8859-1"?>
<!-- Generator: Adobe Illustrator 19.0.0, SVG Export Plug-In . SVG Version: 6.00 Build 0)  -->
<svg version="1.1" id="Capa_1" xmlns="http://www.w3.org/2000/svg" xmlns:xlink="http://www.w3.org/1999/xlink" x="0px" y="0px"
	 viewBox="0 0 512.003 512.003" style="enable-background:new 0 0 512.003 512.003;" xml:space="preserve">
<path style="fill:#4CAF50;" d="M382.614,229.377l-42.667-74.667c-1.755-3.534-5.472-5.658-9.408-5.376
	c-3.884,0.041-7.439,2.19-9.28,5.611l-74.667,138.667c-1.745,3.24-1.697,7.151,0.128,10.347l42.667,74.667
	c1.902,3.33,5.445,5.382,9.28,5.376h0.128c3.884-0.041,7.439-2.19,9.28-5.611l74.667-138.667
	C384.487,236.484,384.438,232.573,382.614,229.377z"/>
<path style="fill:#FFC107;" d="M501.334,298.668h-128c-4.037,0-7.728,2.279-9.536,5.888l-32,64
	c-2.639,5.267-0.509,11.676,4.758,14.315c1.483,0.743,3.119,1.13,4.778,1.13h128c4.037,0,7.728-2.279,9.536-5.888l32-64
	c2.639-5.267,0.509-11.676-4.758-14.315C504.629,299.055,502.993,298.668,501.334,298.668z"/>
<path style="fill:#2196F3;" d="M428.182,272.151c1.927,3.217,5.402,5.185,9.152,5.184h64c5.891,0.001,10.668-4.773,10.669-10.664
	c0-1.932-0.524-3.828-1.517-5.485l-64-106.667c-1.927-3.217-5.402-5.185-9.152-5.184h-64c-5.891-0.001-10.668,4.773-10.669,10.664
	c0,1.932,0.524,3.828,1.517,5.485L428.182,272.151z"/>
<path style="fill:#B0BEC5;" d="M341.334,405.335c-7.938-0.004-15.587-2.98-21.44-8.341c-5.694,5.208-13.085,8.172-20.8,8.341
	c-11.586,0.094-22.333-6.029-28.16-16.043l-42.667-74.667c-5.515-9.584-5.66-21.344-0.384-31.061l74.667-138.667
	c5.48-10.24,16.078-16.706,27.691-16.896c8.092-0.165,15.931,2.818,21.867,8.32c3.104-2.702,6.685-4.8,10.56-6.187V96.001
	c0-29.455-23.878-53.333-53.333-53.333H288c-5.891,0-10.667,4.776-10.667,10.667v91.307c-0.058,4.537-2.909,8.568-7.168,10.133
	l-35.2,11.584c-12.916,4.499-21.587,16.659-21.632,30.336v261.973c0,5.891,4.776,10.667,10.667,10.667h85.333
	c29.455,0,53.333-23.878,53.333-53.333v-10.667H341.334z"/>
<path style="fill:#CFD8DC;" d="M266.667,0.001c-29.351-0.029-58.55,4.219-86.677,12.608L38.059,55.276
	C15.446,62.035-0.035,82.853,0,106.455v301.227c-0.067,22.305,13.754,42.296,34.645,50.112l122.923,46.08
	c14.43,5.371,29.702,8.124,45.099,8.128c17.673,0,32-14.327,32-32V196.695c0.058-4.537,2.909-8.568,7.168-10.133l35.2-11.584
	c12.912-4.504,21.581-16.661,21.632-30.336V32.001C298.667,14.328,284.34,0.001,266.667,0.001z"/>
<g>
</g>
<g>
</g>
<g>
</g>
<g>
</g>
<g>
</g>
<g>
</g>
<g>
</g>
<g>
</g>
<g>
</g>
<g>
</g>
<g>
</g>
<g>
</g>
<g>
</g>
<g>
</g>
<g>
</g>
</svg>
