<?xml version="1.0" encoding="iso-8859-1"?>
<!-- Generator: Adobe Illustrator 19.0.0, SVG Export Plug-In . SVG Version: 6.00 Build 0)  -->
<svg version="1.1" id="Capa_1" xmlns="http://www.w3.org/2000/svg" xmlns:xlink="http://www.w3.org/1999/xlink" x="0px" y="0px"
	 viewBox="0 0 512.019 512.019" style="enable-background:new 0 0 512.019 512.019;" xml:space="preserve">
<path style="fill:#CFD8DC;" d="M501.333,170.676H384V53.343c0-5.891-4.776-10.667-10.667-10.667H224
	c-5.891,0-10.667,4.776-10.667,10.667v405.333c0,5.891,4.776,10.667,10.667,10.667h277.333c5.891,0,10.667-4.776,10.667-10.667
	V181.343C512,175.452,507.224,170.676,501.333,170.676z"/>
<path style="fill:#B0BEC5;" d="M508.885,173.791l-128-128c-4.16-4.171-10.914-4.179-15.085-0.019
	c-2.011,2.006-3.139,4.731-3.134,7.571v128c0,5.891,4.776,10.667,10.667,10.667h128c5.891,0.011,10.675-4.757,10.686-10.648
	C512.024,178.522,510.896,175.797,508.885,173.791z"/>
<g>
	<path style="fill:#90A4AE;" d="M437.333,277.343H266.667c-5.891,0-10.667-4.776-10.667-10.667c0-5.891,4.776-10.667,10.667-10.667
		h170.667c5.891,0,10.667,4.776,10.667,10.667C448,272.567,443.224,277.343,437.333,277.343z"/>
	<path style="fill:#90A4AE;" d="M437.333,341.343H266.667c-5.891,0-10.667-4.776-10.667-10.667c0-5.891,4.776-10.667,10.667-10.667
		h170.667c5.891,0,10.667,4.776,10.667,10.667C448,336.567,443.224,341.343,437.333,341.343z"/>
	<path style="fill:#90A4AE;" d="M437.333,405.343H266.667c-5.891,0-10.667-4.776-10.667-10.667c0-5.891,4.776-10.667,10.667-10.667
		h170.667c5.891,0,10.667,4.776,10.667,10.667C448,400.567,443.224,405.343,437.333,405.343z"/>
</g>
<path style="fill:#2196F3;" d="M266.667,0.01c-29.333,0.026-58.506,4.338-86.592,12.8L38.016,55.476
	C15.44,62.135-0.043,82.882,0,106.42v301.355c0.077,22.207,13.838,42.068,34.603,49.941l123.029,46.144
	c14.398,5.406,29.655,8.166,45.035,8.149c17.673,0,32-14.327,32-32V196.724c0.003-4.589,2.942-8.662,7.296-10.112l34.837-11.669
	c13.046-4.355,21.85-16.561,21.867-30.315V32.01C298.667,14.336,284.34,0.01,266.667,0.01z"/>
<g>
</g>
<g>
</g>
<g>
</g>
<g>
</g>
<g>
</g>
<g>
</g>
<g>
</g>
<g>
</g>
<g>
</g>
<g>
</g>
<g>
</g>
<g>
</g>
<g>
</g>
<g>
</g>
<g>
</g>
</svg>
