<?xml version="1.0" encoding="iso-8859-1"?>
<!-- Generator: Adobe Illustrator 19.0.0, SVG Export Plug-In . SVG Version: 6.00 Build 0)  -->
<svg version="1.1" id="Capa_1" xmlns="http://www.w3.org/2000/svg" xmlns:xlink="http://www.w3.org/1999/xlink" x="0px" y="0px"
	 viewBox="0 0 512 512" style="enable-background:new 0 0 512 512;" xml:space="preserve">
<circle style="fill:#FAFAFA;" cx="256.001" cy="394.667" r="117.333"/>
<path style="fill:#D32F2F;" d="M339.201,477.355c44.725-46.892,42.968-121.163-3.924-165.888
	c-45.332-43.237-116.633-43.237-161.964,0l-0.256,0.171l-0.171,0.256c-44.75,46.869-43.032,121.14,3.837,165.89
	c45.309,43.261,116.612,43.297,161.965,0.083l0.256-0.171L339.201,477.355z M352.001,394.667
	c-0.095,21.715-7.624,42.743-21.333,59.584L196.417,320c16.841-13.709,37.869-21.238,59.584-21.333
	C309.02,298.667,352.001,341.648,352.001,394.667z M160.001,394.667c0.095-21.715,7.624-42.743,21.333-59.584l134.251,134.251
	c-16.841,13.709-37.869,21.238-59.584,21.333C202.981,490.667,160.001,447.686,160.001,394.667z"/>
<path style="fill:#1976D2;" d="M426.667,0H85.334C55.997-0.101,32.132,23.598,32.03,52.936c-0.009,2.452,0.153,4.902,0.483,7.331
	c0.767,5.841,6.124,9.954,11.965,9.187c1.417-0.186,2.782-0.655,4.014-1.379c4.708-2.731,10.067-4.138,15.509-4.075h54.613
	c13.708,0.031,25.888,8.751,30.336,21.717l1.813,5.824c7.333,21.735,27.686,36.393,50.624,36.459h246.613
	c5.594,0.005,11.088,1.476,15.936,4.267c5.081,2.981,11.617,1.278,14.598-3.803c0.956-1.629,1.462-3.482,1.466-5.37v-69.76
	C480.001,23.878,456.122,0,426.667,0z"/>
<path style="fill:#2196F3;" d="M474.731,113.878c-8.115-4.728-17.339-7.216-26.731-7.211H201.387
	c-13.708-0.031-25.888-8.751-30.336-21.717l-1.813-5.824c-7.333-21.735-27.686-36.393-50.624-36.459H64.001
	c-9.171-0.085-18.197,2.295-26.133,6.891c-4.178,2.367-8.011,5.295-11.392,8.704C16.29,68.166,10.582,81.794,10.667,96v256
	c0,29.455,23.878,53.333,53.333,53.333h53.867c-0.277-3.541-0.533-7.061-0.533-10.667c0-76.583,62.083-138.667,138.667-138.667
	s138.667,62.083,138.667,138.667c0,3.605-0.277,7.125-0.533,10.667h53.867c29.455,0,53.333-23.878,53.333-53.333V160
	C501.394,140.964,491.24,123.358,474.731,113.878z"/>
<g>
</g>
<g>
</g>
<g>
</g>
<g>
</g>
<g>
</g>
<g>
</g>
<g>
</g>
<g>
</g>
<g>
</g>
<g>
</g>
<g>
</g>
<g>
</g>
<g>
</g>
<g>
</g>
<g>
</g>
</svg>
