<?xml version="1.0" encoding="iso-8859-1"?>
<!-- Generator: Adobe Illustrator 19.0.0, SVG Export Plug-In . SVG Version: 6.00 Build 0)  -->
<svg version="1.1" id="Capa_1" xmlns="http://www.w3.org/2000/svg" xmlns:xlink="http://www.w3.org/1999/xlink" x="0px" y="0px"
	 viewBox="0 0 512 512" style="enable-background:new 0 0 512 512;" xml:space="preserve">
<path style="fill:#B0BEC5;" d="M309.334,42.667H288c-5.891,0-10.667,4.776-10.667,10.667v91.307
	c-0.064,4.535-2.913,8.563-7.168,10.133L234.987,166.4c-12.91,4.486-21.587,16.626-21.653,30.293v261.973
	c0,5.891,4.776,10.667,10.667,10.667h85.333c29.455,0,53.333-23.878,53.333-53.333V96C362.667,66.545,338.789,42.667,309.334,42.667
	z"/>
<path style="fill:#2196F3;" d="M437.334,213.334c-1.941,0-3.883,0-5.781,0.277c-29.121-44.094-88.474-56.233-132.568-27.112
	c-24.062,15.891-39.673,41.786-42.493,70.483c-28.913,5.624-47.793,33.623-42.168,62.536c4.874,25.056,26.818,43.146,52.344,43.149
	h170.667C478.571,362.667,512,329.237,512,288S478.571,213.334,437.334,213.334z"/>
<path style="fill:#CFD8DC;" d="M266.667,0c-29.358-0.028-58.564,4.219-86.699,12.608L38.059,55.275
	C15.446,62.034-0.035,82.852,0,106.454V407.68c-0.064,22.311,13.767,42.303,34.667,50.112l122.923,46.08
	c14.423,5.369,29.688,8.122,45.077,8.128c17.673,0,32-14.327,32-32V196.694c0.064-4.535,2.913-8.563,7.168-10.133l35.179-11.627
	c12.91-4.486,21.587-16.626,21.653-30.293V32C298.667,14.327,284.34,0,266.667,0z"/>
<g>
</g>
<g>
</g>
<g>
</g>
<g>
</g>
<g>
</g>
<g>
</g>
<g>
</g>
<g>
</g>
<g>
</g>
<g>
</g>
<g>
</g>
<g>
</g>
<g>
</g>
<g>
</g>
<g>
</g>
</svg>
