<?xml version="1.0" encoding="iso-8859-1"?>
<!-- Generator: Adobe Illustrator 19.0.0, SVG Export Plug-In . SVG Version: 6.00 Build 0)  -->
<svg version="1.1" id="Capa_1" xmlns="http://www.w3.org/2000/svg" xmlns:xlink="http://www.w3.org/1999/xlink" x="0px" y="0px"
	 viewBox="0 0 512 512" style="enable-background:new 0 0 512 512;" xml:space="preserve">
<path style="fill:#FFA000;" d="M416,74.667H96c-29.455,0-53.333,23.878-53.333,53.333v21.333c0,5.891,4.776,10.667,10.667,10.667
	h91.307c4.549,0.021,8.599,2.885,10.133,7.168l11.627,35.179c4.486,12.91,16.626,21.588,30.293,21.653h261.973
	c5.891,0,10.667-4.776,10.667-10.667V128C469.333,98.545,445.455,74.667,416,74.667z"/>
<path style="fill:#FFC107;" d="M480,202.667H196.693c-4.535-0.064-8.563-2.913-10.133-7.168l-11.627-35.179
	c-4.492-12.906-16.628-21.581-30.293-21.653H32c-17.673,0-32,14.327-32,32c-0.028,29.358,4.219,58.564,12.608,86.699l42.667,141.909
	c6.759,22.613,27.577,38.094,51.179,38.059H407.68c22.311,0.064,42.303-13.767,50.112-34.667l46.08-122.923
	c5.369-14.423,8.122-29.688,8.128-45.077C512,216.994,497.673,202.667,480,202.667z"/>
<g>
</g>
<g>
</g>
<g>
</g>
<g>
</g>
<g>
</g>
<g>
</g>
<g>
</g>
<g>
</g>
<g>
</g>
<g>
</g>
<g>
</g>
<g>
</g>
<g>
</g>
<g>
</g>
<g>
</g>
</svg>
