<svg id="bold" enable-background="new 0 0 24 24" height="512" viewBox="0 0 24 24" width="512" xmlns="http://www.w3.org/2000/svg"><path d="m24 2.75c0-1.517-1.233-2.75-2.75-2.75h-18.5c-1.517 0-2.75 1.233-2.75 2.75v18.5c0 1.517 1.233 2.75 2.75 2.75h18.5c1.517 0 2.75-1.233 2.75-2.75zm-5.918 5.293c.391.391.391 1.023 0 1.414l-6.5 6.5c-.195.195-.451.293-.707.293s-.512-.098-.707-.293l-3.25-3.25c-.391-.391-.391-1.023 0-1.414s1.023-.391 1.414 0l2.543 2.543 5.793-5.793c.391-.391 1.023-.391 1.414 0z"/></svg>