<svg id="bold" enable-background="new 0 0 24 24" height="512" viewBox="0 0 24 24" width="512" xmlns="http://www.w3.org/2000/svg"><g><path d="m14.371 16.871c-.566.567-1.32.879-2.121.879s-1.555-.312-2.121-.879l-4.25-4.25c-.567-.566-.879-1.32-.879-2.121s.312-1.555.879-2.121c.566-.567 1.32-.879 2.121-.879s1.555.312 2.121.879l2.129 2.128 5.877-5.877c-1.92-1.637-4.406-2.63-7.127-2.63-6.075 0-11 4.925-11 11s4.925 11 11 11 11-4.925 11-11c0-1.137-.173-2.233-.493-3.265z"/><path d="m12.25 15.75c-.256 0-.512-.098-.707-.293l-4.25-4.25c-.391-.391-.391-1.023 0-1.414s1.023-.391 1.414 0l3.543 3.543 10.043-10.043c.391-.391 1.023-.391 1.414 0s.391 1.023 0 1.414l-10.75 10.75c-.195.195-.451.293-.707.293z"/></g></svg>