<svg id="bold" enable-background="new 0 0 24 24" height="512" viewBox="0 0 24 24" width="512" xmlns="http://www.w3.org/2000/svg"><g><path d="m20.701 12.604-.537-1.526-5.793 5.793c-.566.567-1.32.879-2.121.879s-1.555-.312-2.121-.879l-4.25-4.25c-.567-.566-.879-1.32-.879-2.121s.312-1.555.879-2.121c.566-.567 1.32-.879 2.121-.879s1.555.312 2.121.879l2.129 2.128 5.704-5.704-.384-1.09-.177-1.058c-.111-.678-.558-1.24-1.193-1.503-.638-.265-1.35-.183-1.909.218l-2.779 2.012-2.81-2.017c-.564-.398-1.278-.477-1.912-.211-.63.264-1.073.825-1.184 1.499l-.544 3.387-3.407.566c-.677.111-1.239.558-1.503 1.193-.264.637-.182 1.351.219 1.91l2.011 2.779-2.017 2.81c-.397.564-.477 1.279-.211 1.912.265.63.825 1.073 1.499 1.184l3.387.545.566 3.406c.11.676.554 1.237 1.184 1.501.635.266 1.35.187 1.919-.216l2.779-2.012 2.803 2.012c.343.245.742.371 1.147.371.257 0 .515-.05.762-.153.636-.264 1.082-.826 1.193-1.501l.545-3.387 3.406-.566c.676-.111 1.236-.554 1.501-1.184.266-.633.187-1.348-.216-1.919z"/><path d="m12.25 15.75c-.256 0-.512-.098-.707-.293l-4.25-4.25c-.391-.391-.391-1.023 0-1.414s1.023-.391 1.414 0l3.543 3.543 10.043-10.043c.391-.391 1.023-.391 1.414 0s.391 1.023 0 1.414l-10.75 10.75c-.195.195-.451.293-.707.293z"/></g></svg>