<svg id="bold" enable-background="new 0 0 24 24" height="512" viewBox="0 0 24 24" width="512" xmlns="http://www.w3.org/2000/svg"><path d="m22.25 10h-8.5c-.966 0-1.75.784-1.75 1.75v10.5c0 .966.784 1.75 1.75 1.75h8.5c.966 0 1.75-.784 1.75-1.75v-10.5c0-.966-.784-1.75-1.75-1.75zm-2.125 10h-4.5c-.414 0-.75-.336-.75-.75s.336-.75.75-.75h4.5c.414 0 .75.336.75.75s-.336.75-.75.75zm0-3h-4.5c-.414 0-.75-.336-.75-.75s.336-.75.75-.75h4.5c.414 0 .75.336.75.75s-.336.75-.75.75z"/><path d="m14.25 3h-1.25v-.25c0-.414-.336-.75-.75-.75h-1.104c-.328-1.153-1.389-2-2.646-2s-2.318.847-2.646 2h-1.104c-.414 0-.75.336-.75.75v.25h-1.25c-1.517 0-2.75 1.233-2.75 2.75v12.5c0 1.517 1.233 2.75 2.75 2.75h7.75v-9.25c0-1.792 1.458-3.25 3.25-3.25h3.25v-2.75c0-1.517-1.233-2.75-2.75-2.75zm-8.75.5h1c.414 0 .75-.336.75-.75 0-.689.561-1.25 1.25-1.25s1.25.561 1.25 1.25c0 .414.336.75.75.75h1v1.25c0 .138-.112.25-.25.25h-5.5c-.138 0-.25-.112-.25-.25z"/></svg>