<svg id="bold" enable-background="new 0 0 24 24" height="512" viewBox="0 0 24 24" width="512" xmlns="http://www.w3.org/2000/svg"><path d="m12 0c-6.617 0-12 5.383-12 12s5.383 12 12 12 12-5.383 12-12-5.383-12-12-12zm-5.129 16.116-1.732 1c-.158.091-.329.134-.499.134-.346 0-.682-.179-.867-.5-.276-.479-.112-1.09.366-1.366l1.732-1c.476-.276 1.089-.112 1.366.366.277.479.113 1.09-.366 1.366zm.366-6.866c-.186.321-.521.5-.867.5-.17 0-.342-.043-.499-.134l-1.732-1c-.479-.276-.643-.887-.367-1.366s.889-.643 1.366-.366l1.732 1c.48.276.644.887.367 1.366zm5.763 11.25c0 .552-.447 1-1 1s-1-.448-1-1v-2c0-.552.447-1 1-1s1 .448 1 1zm0-15c0 .552-.447 1-1 1s-1-.448-1-1v-2c0-.552.447-1 1-1s1 .448 1 1zm7.228 11.25c-.186.321-.521.5-.867.5-.17 0-.342-.043-.499-.134l-1.732-1c-.479-.276-.643-.888-.366-1.366s.888-.642 1.366-.366l1.732 1c.478.276.642.887.366 1.366zm-.367-8.134-1.732 1c-.157.091-.329.134-.499.134-.346 0-.682-.179-.867-.5-.276-.479-.112-1.09.366-1.366l1.732-1c.477-.276 1.089-.112 1.366.366.277.479.113 1.09-.366 1.366z"/></svg>