<svg id="bold" enable-background="new 0 0 24 24" height="512" viewBox="0 0 24 24" width="512" xmlns="http://www.w3.org/2000/svg"><path d="m14.828 12 5.303-5.303c.586-.586.586-1.536 0-2.121l-.707-.707c-.586-.586-1.536-.586-2.121 0l-5.303 5.303-5.303-5.304c-.586-.586-1.536-.586-2.121 0l-.708.707c-.586.586-.586 1.536 0 2.121l5.304 5.304-5.303 5.303c-.586.586-.586 1.536 0 2.121l.707.707c.586.586 1.536.586 2.121 0l5.303-5.303 5.303 5.303c.586.586 1.536.586 2.121 0l.707-.707c.586-.586.586-1.536 0-2.121z"/></svg>