<svg id="bold" enable-background="new 0 0 24 24" height="512" viewBox="0 0 24 24" width="512" xmlns="http://www.w3.org/2000/svg"><path d="m23 2.75c0-1.519-1.231-2.75-2.75-2.75h-11.5c-1.519 0-2.75 1.231-2.75 2.75v13.5c0 1.519 1.231 2.75 2.75 2.75h11.5c1.519 0 2.75-1.231 2.75-2.75zm-4.75 11.75h-7.5c-.414 0-.75-.336-.75-.75s.336-.75.75-.75h7.5c.414 0 .75.336.75.75s-.336.75-.75.75zm0-3h-7.5c-.414 0-.75-.336-.75-.75s.336-.75.75-.75h7.5c.414 0 .75.336.75.75s-.336.75-.75.75zm0-3h-7.5c-.414 0-.75-.336-.75-.75s.336-.75.75-.75h7.5c.414 0 .75.336.75.75s-.336.75-.75.75z"/><path d="m8.75 20.5c-2.344 0-4.25-1.907-4.25-4.25v-13.5c0-.086.02-.166.025-.25h-.775c-1.517 0-2.75 1.233-2.75 2.75v16c0 1.517 1.233 2.75 2.75 2.75h12c1.517 0 2.75-1.233 2.75-2.75v-.75z"/></svg>