<svg id="bold" enable-background="new 0 0 24 24" height="512" viewBox="0 0 24 24" width="512" xmlns="http://www.w3.org/2000/svg"><path d="m19 16c-1.676 0-3.109 1.038-3.704 2.503l-1.537-2.745c.316-.187.643-.409.971-.682 1.446-1.205 3.539-4.979 5.067-7.733l.496-.892c1.376-2.46 1.264-4.858-.292-6.259-.17-.152-.403-.221-.624-.182-.226.037-.421.174-.532.374l-6.845 12.23-6.846-12.23c-.111-.199-.306-.337-.532-.374-.221-.038-.454.03-.624.182-1.556 1.401-1.668 3.799-.292 6.259l.496.892c1.528 2.755 3.621 6.528 5.067 7.733.327.273.654.495.971.682l-1.537 2.745c-.594-1.465-2.027-2.503-3.703-2.503-2.206 0-4 1.794-4 4s1.794 4 4 4c1.474 0 2.749-.81 3.443-1.999.014-.02.037-.028.049-.049l2.981-5.326c.117-.019.299-.055.526-.116.227.061.409.097.526.116l2.981 5.326c.012.021.035.03.049.049.696 1.189 1.971 1.999 3.445 1.999 2.206 0 4-1.794 4-4s-1.794-4-4-4zm-14 6c-1.103 0-2-.897-2-2s.897-2 2-2 2 .897 2 2-.897 2-2 2zm14 0c-1.103 0-2-.897-2-2s.897-2 2-2 2 .897 2 2-.897 2-2 2z"/></svg>