<svg id="bold" enable-background="new 0 0 24 24" height="512" viewBox="0 0 24 24" width="512" xmlns="http://www.w3.org/2000/svg"><g><path d="m9.25 0h-7.5c-.965 0-1.75.785-1.75 1.75v4.5c0 .965.785 1.75 1.75 1.75h7.5c.965 0 1.75-.785 1.75-1.75v-4.5c0-.965-.785-1.75-1.75-1.75z"/><path d="m9.25 10h-7.5c-.965 0-1.75.785-1.75 1.75v10.5c0 .965.785 1.75 1.75 1.75h7.5c.965 0 1.75-.785 1.75-1.75v-10.5c0-.965-.785-1.75-1.75-1.75z"/><path d="m22.25 16h-7.5c-.965 0-1.75.785-1.75 1.75v4.5c0 .965.785 1.75 1.75 1.75h7.5c.965 0 1.75-.785 1.75-1.75v-4.5c0-.965-.785-1.75-1.75-1.75z"/><path d="m22.25 0h-7.5c-.965 0-1.75.785-1.75 1.75v10.5c0 .965.785 1.75 1.75 1.75h7.5c.965 0 1.75-.785 1.75-1.75v-10.5c0-.965-.785-1.75-1.75-1.75z"/></g></svg>