<svg id="bold" enable-background="new 0 0 24 24" height="512" viewBox="0 0 24 24" width="512" xmlns="http://www.w3.org/2000/svg"><path d="m23.269 10.582-4.409-7.25c-.495-.815-1.396-1.321-2.35-1.321h-9c-.954 0-1.854.506-2.35 1.321l-4.409 7.25c-.536.881-.536 1.976 0 2.857l4.409 7.25c.495.815 1.396 1.321 2.35 1.321h9.001c.954 0 1.854-.506 2.35-1.321l4.409-7.25c.535-.881.535-1.976-.001-2.857zm-6.85 4.423c.391.391.391 1.023 0 1.414-.195.195-.451.293-.707.293s-.512-.098-.707-.293l-3.005-3.005-3.005 3.005c-.195.195-.451.293-.707.293s-.512-.098-.707-.293c-.391-.391-.391-1.023 0-1.414l3.005-3.005-3.005-3.005c-.391-.391-.391-1.023 0-1.414s1.023-.391 1.414 0l3.005 3.005 3.005-3.005c.391-.391 1.023-.391 1.414 0s.391 1.023 0 1.414l-3.005 3.005z"/></svg>