<svg id="bold" enable-background="new 0 0 24 24" height="512" viewBox="0 0 24 24" width="512" xmlns="http://www.w3.org/2000/svg"><g><path d="m21 24h-18c-1.654 0-3-1.346-3-3v-4c0-.552.448-1 1-1s1 .448 1 1v4c0 .551.449 1 1 1h18c.551 0 1-.449 1-1v-4c0-.552.448-1 1-1s1 .448 1 1v4c0 1.654-1.346 3-3 3z"/></g><path d="m16.707 12.707-4 4c-.391.391-1.023.391-1.414 0l-4-4c-.286-.286-.372-.716-.217-1.09.155-.373.52-.617.924-.617h3v-10c0-.552.448-1 1-1s1 .448 1 1v10h3c.404 0 .769.244.924.617.155.374.069.804-.217 1.09z"/></svg>