<svg id="bold" enable-background="new 0 0 24 24" height="512" viewBox="0 0 24 24" width="512" xmlns="http://www.w3.org/2000/svg"><path d="m23.78.22c-.155-.155-.368-.231-.591-.217-4.958.404-9.256 1.89-12.776 4.418-.228.164-.345.441-.305.718.219 1.491-.424 3.252-1.067 4.562-.263-.744-.649-1.427-1.018-1.978-.13-.194-.342-.316-.574-.332-.233-.013-.459.08-.613.254-3.009 3.426-4.005 7.027-3.155 11.26l-3.388 3.388c-.391.391-.391 1.023 0 1.414.195.195.451.293.707.293s.512-.098.707-.293l8.586-8.586c.391-.391 1.023-.391 1.414 0s.391 1.023 0 1.414l-4.079 4.079c.077.001.157.015.233.015 3.454 0 6.526-1.438 9.474-4.394 4.18-4.18 6.11-8.649 6.662-15.425.019-.219-.061-.435-.217-.59z"/></svg>