<svg id="bold" enable-background="new 0 0 24 24" height="512" viewBox="0 0 24 24" width="512" xmlns="http://www.w3.org/2000/svg"><path d="m12 0c-2.004 0-12 .169-12 3.5v3.318c0 .893.394 1.733 1.08 2.305l7.92 6.596v7.281c0 .379.214.725.553.895.141.07.295.105.447.105.213 0 .424-.068.6-.2l3.599-2.699c.501-.376.801-.974.801-1.601v-3.781l7.92-6.596c.686-.572 1.08-1.412 1.08-2.305v-3.318c0-3.331-9.996-3.5-12-3.5zm0 2c5.589 0 8.952.907 9.843 1.5-.891.593-4.254 1.5-9.843 1.5s-8.952-.907-9.843-1.5c.891-.593 4.254-1.5 9.843-1.5z"/></svg>