<svg id="bold" enable-background="new 0 0 24 24" height="512" viewBox="0 0 24 24" width="512" xmlns="http://www.w3.org/2000/svg"><g><path d="m4.01 11c.444 0 .832-.288.965-.715l1.607-5.362c.272-.857 1.04-1.423 1.918-1.423s1.646.566 1.913 1.408l4.085 13.594 2.559-5.73c.478-1.076 1.555-1.772 2.743-1.772h4.2v-8c0-1.654-1.346-3-3-3h-18c-1.654 0-3 1.346-3 3v8z"/><path d="m19.8 13c-.398 0-.758.23-.916.586l-2.561 5.731c-.306.714-1.024 1.183-1.823 1.183-.878 0-1.646-.566-1.913-1.408l-4.085-13.594-1.614 5.37c-.396 1.278-1.551 2.132-2.878 2.132h-4.01v8c0 1.654 1.346 3 3 3h18c1.654 0 3-1.346 3-3v-8z"/></g></svg>