<svg id="bold" enable-background="new 0 0 24 24" height="512" viewBox="0 0 24 24" width="512" xmlns="http://www.w3.org/2000/svg"><path d="m21.25 0h-18.5c-1.517 0-2.75 1.233-2.75 2.75v18.5c0 1.517 1.233 2.75 2.75 2.75h18.5c1.517 0 2.75-1.233 2.75-2.75v-18.5c0-1.517-1.233-2.75-2.75-2.75zm-9.25 5c.552 0 1 .448 1 1s-.448 1-1 1-1-.448-1-1 .448-1 1-1zm2.25 14h-4.5c-.552 0-1-.448-1-1s.448-1 1-1h1.25v-6h-.75c-.552 0-1-.448-1-1s.448-1 1-1h1.75c.552 0 1 .448 1 1v7h1.25c.552 0 1 .448 1 1s-.448 1-1 1z"/></svg>