<svg id="bold" enable-background="new 0 0 24 24" height="512" viewBox="0 0 24 24" width="512" xmlns="http://www.w3.org/2000/svg"><path d="m21.707 2.293c-.391-.391-1.023-.391-1.414 0l-7.293 7.293-2.293-2.293c-.287-.286-.716-.374-1.09-.217-.373.154-.617.52-.617.924v6c0 .553.448 1 1 1h6c.404 0 .769-.243.924-.617s.069-.804-.217-1.09l-2.293-2.293 7.293-7.293c.391-.391.391-1.023 0-1.414z"/><g><path d="m18 23h-14c-1.654 0-3-1.346-3-3v-14c0-1.654 1.346-3 3-3h8c.552 0 1 .447 1 1s-.448 1-1 1h-8c-.551 0-1 .448-1 1v14c0 .552.449 1 1 1h14c.551 0 1-.448 1-1v-8c0-.553.448-1 1-1s1 .447 1 1v8c0 1.654-1.346 3-3 3z"/></g></svg>