<svg id="bold" enable-background="new 0 0 24 24" height="512" viewBox="0 0 24 24" width="512" xmlns="http://www.w3.org/2000/svg"><path d="m3.515 3.515c-4.679 4.679-4.679 12.292 0 16.971s12.292 4.679 16.971 0 4.679-12.292 0-16.971-12.293-4.679-16.971 0zm11.667 11.667c-1.755 1.755-4.609 1.755-6.364 0s-1.755-4.609 0-6.364 4.609-1.755 6.364 0 1.755 4.609 0 6.364zm-10.607 4.243c-.135-.135-.263-.273-.387-.414-.348-.396-.328-.993.045-1.366l1.769-1.769c.197-.197.467-.303.745-.292s.54.136.722.347c.092.107.188.21.289.311s.205.197.311.289c.211.181.337.443.348.721s-.096.548-.293.745l-1.769 1.769c-.372.372-.97.393-1.366.045-.141-.123-.279-.252-.414-.386zm11.356-11.956c-.211-.181-.337-.443-.348-.721-.01-.278.096-.548.293-.745l1.769-1.769c.372-.372.97-.393 1.366-.045.141.124.279.252.414.387s.263.273.387.414c.348.396.328.993-.045 1.366l-1.769 1.769c-.197.197-.467.303-.745.292-.278-.01-.54-.136-.722-.347-.092-.107-.188-.21-.289-.311-.1-.103-.204-.199-.311-.29zm-10.942-3.28c.396-.348.993-.328 1.366.045l1.769 1.769c.196.196.302.466.292.744s-.136.54-.347.722c-.107.091-.211.187-.312.288s-.197.205-.288.312c-.182.211-.443.337-.721.348-.278.01-.548-.096-.745-.293l-1.769-1.769c-.372-.372-.393-.97-.045-1.366.123-.141.252-.279.386-.414.135-.134.273-.263.414-.386zm14.022 15.622c-.396.348-.993.328-1.366-.045l-1.769-1.769c-.197-.197-.303-.467-.292-.745.01-.278.136-.54.347-.722.107-.092.21-.188.311-.289s.197-.205.289-.311c.181-.211.443-.337.721-.348s.548.096.745.293l1.769 1.769c.372.372.393.97.045 1.366-.124.141-.252.279-.387.414s-.272.264-.413.387z"/></svg>