<svg id="bold" enable-background="new 0 0 24 24" height="512" viewBox="0 0 24 24" width="512" xmlns="http://www.w3.org/2000/svg"><path d="m21 0h-18c-1.654 0-3 1.346-3 3v18c0 1.654 1.346 3 3 3h18c1.654 0 3-1.346 3-3v-18c0-1.654-1.346-3-3-3zm1 21c0 .552-.448 1-1 1h-12v-5.5c0-.828-.672-1.5-1.5-1.5h-5.5v-12c0-.552.448-1 1-1h18c.552 0 1 .448 1 1z"/><path d="m19 4h-6c-.404 0-.77.243-.924.617-.155.374-.069.804.217 1.09l2.293 2.293-4.293 4.293c-.391.391-.391 1.023 0 1.414.195.195.451.293.707.293s.512-.098.707-.293l4.293-4.293 2.293 2.293c.191.191.447.293.707.293.129 0 .259-.024.383-.076.374-.154.617-.52.617-.924v-6c0-.553-.447-1-1-1z"/></svg>