<svg id="bold" enable-background="new 0 0 24 24" height="512" viewBox="0 0 24 24" width="512" xmlns="http://www.w3.org/2000/svg"><g><path d="m14.257 4.793-12.702 12.703c-.064.064-.11.145-.132.232l-1.408 5.651c-.042.17.008.351.132.475.094.094.222.146.353.146.04 0 .081-.005.121-.015l5.651-1.408c.088-.022.168-.068.232-.132l12.703-12.702z"/><path d="m22.354 3.061-1.414-1.414c-.945-.945-2.592-.944-3.536 0l-1.732 1.732 4.95 4.95 1.732-1.732c.472-.472.732-1.1.732-1.768s-.26-1.296-.732-1.768z"/></g></svg>