<svg id="bold" enable-background="new 0 0 24 24" height="512" viewBox="0 0 24 24" width="512" xmlns="http://www.w3.org/2000/svg"><path d="m16.25 0c-4.273 0-7.75 3.477-7.75 7.75s3.477 7.75 7.75 7.75 7.75-3.477 7.75-7.75-3.477-7.75-7.75-7.75zm0 4.5c-1.792 0-3.25 1.458-3.25 3.25 0 .414-.336.75-.75.75s-.75-.336-.75-.75c0-2.619 2.131-4.75 4.75-4.75.414 0 .75.336.75.75s-.336.75-.75.75z"/><path d="m8.69 13.896-8.397 8.397c-.391.391-.391 1.023 0 1.414.195.195.451.293.707.293s.512-.098.707-.293l8.397-8.397c-.518-.422-.992-.896-1.414-1.414z"/></svg>