<svg id="bold" enable-background="new 0 0 24 24" height="512" viewBox="0 0 24 24" width="512" xmlns="http://www.w3.org/2000/svg"><path d="m23.487 7.583-7.071-7.071c-.66-.661-1.814-.661-2.475 0l-.977.977c-.69.691-.927 1.694-.619 2.619.128.383.03.798-.256 1.084l-2.865 2.867c-.237.236-.55.366-.884.366h-1.172c-.735 0-1.426.286-1.944.806l-.475.474c-.331.331-.513.77-.513 1.237s.182.907.513 1.237l2.833 2.833-7.289 7.28c-.391.39-.391 1.023-.001 1.414.196.196.452.294.708.294s.511-.098.707-.292l7.29-7.281 2.824 2.824c.33.331.77.513 1.237.513s.907-.182 1.237-.513l.475-.475c.52-.52.806-1.21.806-1.944v-1.172c0-.329.134-.651.366-.884l2.866-2.866c.285-.286.699-.385 1.085-.256.925.308 1.929.07 2.618-.619l.977-.977c.682-.682.682-1.792-.001-2.475z"/></svg>