<svg id="bold" enable-background="new 0 0 24 24" height="512" viewBox="0 0 24 24" width="512" xmlns="http://www.w3.org/2000/svg"><path d="m21.25 6h-1.25v-3c0-1.654-1.346-3-3-3h-10c-1.654 0-3 1.346-3 3v3h-1.25c-1.517 0-2.75 1.233-2.75 2.75v6.5c0 1.517 1.233 2.75 2.75 2.75h1.25v3c0 1.654 1.346 3 3 3h10c1.654 0 3-1.346 3-3v-3h1.25c1.517 0 2.75-1.233 2.75-2.75v-6.5c0-1.517-1.233-2.75-2.75-2.75zm-15.25-3c0-.551.448-1 1-1h10c.552 0 1 .449 1 1v3h-12zm12 18c0 .125-.029.241-.071.352l-3.364-3.845c-.143-.164-.349-.257-.565-.257-.217 0-.423.094-.564.257l-2.503 2.866-1.403-1.403c-.281-.281-.779-.281-1.061 0l-2.396 2.396c-.044-.114-.073-.236-.073-.366v-6h12z"/></svg>