<svg id="bold" enable-background="new 0 0 24 24" height="512" viewBox="0 0 24 24" width="512" xmlns="http://www.w3.org/2000/svg"><g><path d="m15.25 18h-6.5c-.414 0-.75-.336-.75-.75s.336-.75.75-.75h6.5c.414 0 .75.336.75.75s-.336.75-.75.75z"/></g><g><path d="m15.25 21h-6.5c-.414 0-.75-.336-.75-.75s.336-.75.75-.75h6.5c.414 0 .75.336.75.75s-.336.75-.75.75z"/></g><path d="m21.25 6h-1.25v-3c0-1.654-1.346-3-3-3h-10c-1.654 0-3 1.346-3 3v3h-1.25c-1.519 0-2.75 1.231-2.75 2.75v6.5c0 1.519 1.231 2.75 2.75 2.75h1.25v3c0 1.657 1.343 3 3 3h10c1.657 0 3-1.343 3-3v-3h1.25c1.519 0 2.75-1.231 2.75-2.75v-6.5c0-1.519-1.231-2.75-2.75-2.75zm-15.25-3c0-.551.448-1 1-1h10c.552 0 1 .449 1 1v3h-12zm12 18c0 .551-.448 1-1 1h-10c-.552 0-1-.449-1-1v-6h12z"/></svg>