<svg id="bold" enable-background="new 0 0 24 24" height="512" viewBox="0 0 24 24" width="512" xmlns="http://www.w3.org/2000/svg"><path d="m21.25 0h-18.5c-1.517 0-2.75 1.233-2.75 2.75v18.5c0 1.517 1.233 2.75 2.75 2.75h18.5c1.517 0 2.75-1.233 2.75-2.75v-18.5c0-1.517-1.233-2.75-2.75-2.75zm-9.25 19c-.552 0-1-.448-1-1s.448-1 1-1 1 .448 1 1-.448 1-1 1zm1.604-6.587c-.367.158-.604.519-.604.919v.668c0 .552-.448 1-1 1s-1-.448-1-1v-.668c0-1.2.712-2.281 1.813-2.756 1.009-.435 1.687-1.554 1.687-2.326 0-1.378-1.122-2.5-2.5-2.5s-2.5 1.122-2.5 2.5c0 .552-.448 1-1 1s-1-.448-1-1c0-2.481 2.019-4.5 4.5-4.5s4.5 2.019 4.5 4.5c0 1.662-1.245 3.452-2.896 4.163z"/></svg>