<svg id="bold" enable-background="new 0 0 24 24" height="512" viewBox="0 0 24 24" width="512" xmlns="http://www.w3.org/2000/svg"><path d="m22.205 6.648-4.833-4.832c-.519-.52-1.209-.806-1.944-.806h-6.835c-.735 0-1.426.286-1.944.806l-4.834 4.832c-.52.52-.806 1.21-.806 1.944v6.835c0 .734.286 1.425.806 1.944l4.833 4.833c.52.52 1.21.806 1.944.806h6.835c.734 0 1.425-.286 1.944-.806l4.833-4.833c.519-.519.805-1.209.805-1.944v-6.834c.001-.735-.285-1.426-.804-1.945zm-5.786 8.357c.391.391.391 1.024 0 1.414-.195.195-.451.293-.707.293s-.512-.098-.707-.293l-3.005-3.005-3.005 3.005c-.195.195-.451.293-.707.293s-.512-.098-.707-.293c-.391-.39-.391-1.023 0-1.414l3.005-3.005-3.005-3.005c-.391-.391-.391-1.024 0-1.414.391-.391 1.023-.391 1.414 0l3.005 3.005 3.005-3.005c.391-.391 1.023-.391 1.414 0 .391.39.391 1.023 0 1.414l-3.005 3.005z"/></svg>