<svg id="bold" enable-background="new 0 0 24 24" height="512" viewBox="0 0 24 24" width="512" xmlns="http://www.w3.org/2000/svg"><path d="m21.25 0h-18.5c-1.517 0-2.75 1.233-2.75 2.75v18.5c0 1.517 1.233 2.75 2.75 2.75h18.5c1.517 0 2.75-1.233 2.75-2.75v-18.5c0-1.517-1.233-2.75-2.75-2.75zm-4.831 15.005c.391.391.391 1.024 0 1.414-.195.195-.451.293-.707.293s-.512-.098-.707-.293l-3.005-3.005-3.005 3.005c-.195.195-.451.293-.707.293s-.512-.098-.707-.293c-.391-.39-.391-1.023 0-1.414l3.005-3.005-3.005-3.005c-.391-.391-.391-1.024 0-1.414.391-.391 1.023-.391 1.414 0l3.005 3.005 3.005-3.005c.391-.391 1.023-.391 1.414 0 .391.39.391 1.023 0 1.414l-3.005 3.005z"/></svg>