<svg id="bold" enable-background="new 0 0 24 24" height="512" viewBox="0 0 24 24" width="512" xmlns="http://www.w3.org/2000/svg"><g><circle cx="19" cy="4" r="3.25"/><path d="m19 8c-2.206 0-4-1.794-4-4s1.794-4 4-4 4 1.794 4 4-1.794 4-4 4zm0-6.5c-1.379 0-2.5 1.122-2.5 2.5s1.121 2.5 2.5 2.5 2.5-1.122 2.5-2.5-1.121-2.5-2.5-2.5z"/></g><g><circle cx="19" cy="20" r="3.25"/><path d="m19 24c-2.206 0-4-1.794-4-4s1.794-4 4-4 4 1.794 4 4-1.794 4-4 4zm0-6.5c-1.379 0-2.5 1.122-2.5 2.5s1.121 2.5 2.5 2.5 2.5-1.122 2.5-2.5-1.121-2.5-2.5-2.5z"/></g><g><circle cx="5" cy="12" r="3.25"/><path d="m5 16c-2.206 0-4-1.794-4-4s1.794-4 4-4 4 1.794 4 4-1.794 4-4 4zm0-6.5c-1.379 0-2.5 1.122-2.5 2.5s1.121 2.5 2.5 2.5 2.5-1.122 2.5-2.5-1.121-2.5-2.5-2.5z"/></g><g><path d="m7.361 11.52c-.348 0-.686-.181-.87-.505-.273-.479-.105-1.09.374-1.364l9.279-5.29c.479-.275 1.09-.107 1.364.374.273.479.105 1.09-.374 1.364l-9.279 5.29c-.156.089-.326.131-.494.131z"/></g><g><path d="m16.639 19.77c-.168 0-.338-.042-.494-.131l-9.279-5.29c-.479-.273-.647-.884-.374-1.364.272-.48.884-.649 1.364-.374l9.279 5.29c.479.273.647.884.374 1.364-.185.324-.523.505-.87.505z"/></g></svg>