<svg id="bold" enable-background="new 0 0 24 24" height="512" viewBox="0 0 24 24" width="512" xmlns="http://www.w3.org/2000/svg"><g><path d="m21 24h-18c-1.654 0-3-1.346-3-3v-8c0-.553.447-1 1-1s1 .447 1 1v8c0 .552.448 1 1 1h18c.552 0 1-.448 1-1v-14c0-.552-.448-1-1-1h-3c-.553 0-1-.447-1-1s.447-1 1-1h3c1.654 0 3 1.346 3 3v14c0 1.654-1.346 3-3 3z"/></g><path d="m8.25 4h-.25v-3.25c0-.306-.186-.581-.47-.695-.284-.117-.609-.046-.82.174l-6.5 6.75c-.28.291-.28.75 0 1.041l6.5 6.75c.212.22.539.291.82.175.284-.114.47-.389.47-.695v-3.25h1.188c3.146 0 5.973 1.747 7.379 4.56l.013.025c.128.259.391.415.67.415.057 0 .115-.007.172-.021.339-.079.578-.381.578-.729v-1.5c0-5.376-4.374-9.75-9.75-9.75z"/></svg>