<svg id="bold" enable-background="new 0 0 24 24" height="512" viewBox="0 0 24 24" width="512" xmlns="http://www.w3.org/2000/svg"><path d="m23.79 6.979-6.5-6.75c-.212-.22-.537-.289-.82-.175-.284.115-.47.39-.47.696v3.25h-.25c-5.376 0-9.75 4.374-9.75 9.75v1.5c0 .348.245.638.584.717.055.014.11.02.165.02.283 0 .554-.166.685-.427 1.406-2.813 4.233-4.56 7.378-4.56h1.188v3.25c0 .306.186.581.47.695.281.115.608.045.82-.175l6.5-6.75c.28-.291.28-.749 0-1.041z"/><g><path d="m21 24h-18c-1.654 0-3-1.346-3-3v-14c0-1.654 1.346-3 3-3h3c.553 0 1 .447 1 1s-.447 1-1 1h-3c-.552 0-1 .448-1 1v14c0 .552.448 1 1 1h18c.552 0 1-.448 1-1v-8c0-.553.447-1 1-1s1 .447 1 1v8c0 1.654-1.346 3-3 3z"/></g></svg>