<svg id="bold" enable-background="new 0 0 24 24" height="512" viewBox="0 0 24 24" width="512" xmlns="http://www.w3.org/2000/svg"><path d="m23.937 9.19c-.158-.486-.589-.83-1.097-.876l-6.928-.629-2.738-6.41c-.202-.471-.662-.775-1.174-.775s-.972.304-1.173.775l-2.738 6.41-6.929.629c-.508.047-.938.391-1.097.876-.158.486-.012 1.019.372 1.356l5.237 4.592-1.544 6.801c-.113.5.081 1.017.496 1.317.223.162.485.243.748.243.226 0 .452-.06.654-.181l5.974-3.572 5.973 3.572c.438.262.989.238 1.403-.062.415-.3.609-.817.496-1.317l-1.544-6.801 5.237-4.592c.384-.337.53-.869.372-1.356z"/></svg>