<svg id="bold" enable-background="new 0 0 24 24" height="512" viewBox="0 0 24 24" width="512" xmlns="http://www.w3.org/2000/svg"><path d="m20.25 3h-3.25v-1c0-1.103-.897-2-2-2h-6c-1.103 0-2 .897-2 2v1h-3.25c-1.517 0-2.75 1.233-2.75 2.75v2.5c0 .414.336.75.75.75h1.25v12.25c0 1.517 1.233 2.75 2.75 2.75h12.5c1.517 0 2.75-1.233 2.75-2.75v-12.25h1.25c.414 0 .75-.336.75-.75v-2.5c0-1.517-1.233-2.75-2.75-2.75zm-11.25 16c0 .552-.448 1-1 1s-1-.448-1-1v-6c0-.552.448-1 1-1s1 .448 1 1zm0-17h6v1h-6zm4 17c0 .552-.448 1-1 1s-1-.448-1-1v-6c0-.552.448-1 1-1s1 .448 1 1zm4 0c0 .552-.448 1-1 1s-1-.448-1-1v-6c0-.552.448-1 1-1s1 .448 1 1z"/></svg>