<?xml version="1.0" encoding="iso-8859-1"?>
<!-- Generator: Adobe Illustrator 19.0.0, SVG Export Plug-In . SVG Version: 6.00 Build 0)  -->
<svg version="1.1" id="Capa_1" xmlns="http://www.w3.org/2000/svg" xmlns:xlink="http://www.w3.org/1999/xlink" x="0px" y="0px"
	 viewBox="0 0 512 512" style="enable-background:new 0 0 512 512;" xml:space="preserve">
<g>
	<g>
		<path d="M416,21.333h-24.363c-3.285,0-6.421,1.536-8.448,4.139c-2.027,2.603-2.709,5.995-1.899,9.195
			C383.147,41.749,384,47.68,384,53.333v246.592c0,4.587,2.944,8.683,7.317,10.133l5.547,1.835
			C427.435,322.091,448,350.571,448,382.741c0,5.888,4.779,10.667,10.667,10.667c5.888,0,10.667-4.779,10.667-10.667V74.667
			C469.333,45.269,445.419,21.333,416,21.333z"/>
	</g>
</g>
<g>
	<g>
		<path d="M228.075,0h-29.483l-26.667,53.333l13.824,27.605l6.528-29.909c1.045-4.864,5.397-8.363,10.389-8.363H224
			c4.992,0,9.323,3.499,10.411,8.384l6.549,29.824l13.781-27.541L228.075,0z"/>
	</g>
</g>
<g>
	<g>
		<path d="M229.12,125.803L215.445,64h-4.203l-13.269,60.373c-2.752,7.616-1.216,14.613,3.435,19.264
			c6.379,6.4,17.451,6.379,23.829,0C229.909,138.965,231.424,131.968,229.12,125.803z"/>
	</g>
</g>
<g>
	<g>
		<path d="M390.187,332.139l-5.653-1.856c-13.077-4.373-21.867-16.576-21.867-30.357V53.333C362.667,23.936,338.752,0,309.333,0
			h-57.408l24.277,48.555c1.493,3.008,1.493,6.549,0,9.536l-21.333,42.667c-1.664,3.328-4.885,5.141-8.32,5.547l2.965,13.461
			c4.821,12.544,1.365,28.416-9.195,38.976c-7.189,7.211-16.789,11.179-26.987,11.179s-19.797-3.968-27.008-11.179
			c-10.56-10.56-13.995-26.411-8.747-40.427l2.603-11.968c-3.435-0.384-6.699-2.219-8.384-5.568l-21.333-42.667
			c-1.493-3.008-1.493-6.549,0-9.536L174.741,0H96C66.581,0,42.667,23.936,42.667,53.333v405.333C42.667,488.064,66.581,512,96,512
			h277.333c29.419,0,53.333-23.936,53.333-53.333v-75.925C426.667,359.765,412.011,339.435,390.187,332.139z M181.333,192h21.333
			c5.888,0,10.667,4.779,10.667,10.667s-4.779,10.667-10.667,10.667h-21.333c-5.888,0-10.667-4.779-10.667-10.667
			S175.445,192,181.333,192z M181.333,234.667h21.333c5.888,0,10.667,4.779,10.667,10.667S208.555,256,202.667,256h-21.333
			c-5.888,0-10.667-4.779-10.667-10.667S175.445,234.667,181.333,234.667z M181.333,277.333h21.333
			c5.888,0,10.667,4.779,10.667,10.667s-4.779,10.667-10.667,10.667h-21.333c-5.888,0-10.667-4.779-10.667-10.667
			S175.445,277.333,181.333,277.333z M181.333,320h21.333c5.888,0,10.667,4.779,10.667,10.667s-4.779,10.667-10.667,10.667h-21.333
			c-5.888,0-10.667-4.779-10.667-10.667S175.445,320,181.333,320z M181.333,362.667h21.333c5.888,0,10.667,4.779,10.667,10.667
			c0,5.888-4.779,10.667-10.667,10.667h-21.333c-5.888,0-10.667-4.779-10.667-10.667
			C170.667,367.445,175.445,362.667,181.333,362.667z M181.333,405.333h21.333c5.888,0,10.667,4.779,10.667,10.667
			c0,5.888-4.779,10.667-10.667,10.667h-21.333c-5.888,0-10.667-4.779-10.667-10.667
			C170.667,410.112,175.445,405.333,181.333,405.333z M202.667,469.333h-21.333c-5.888,0-10.667-4.779-10.667-10.667
			S175.445,448,181.333,448h21.333c5.888,0,10.667,4.779,10.667,10.667S208.555,469.333,202.667,469.333z M245.333,448H224
			c-5.888,0-10.667-4.779-10.667-10.667c0-5.888,4.779-10.667,10.667-10.667h21.333c5.888,0,10.667,4.779,10.667,10.667
			C256,443.221,251.221,448,245.333,448z M245.333,405.333H224c-5.888,0-10.667-4.779-10.667-10.667S218.112,384,224,384h21.333
			c5.888,0,10.667,4.779,10.667,10.667S251.221,405.333,245.333,405.333z M245.333,362.667H224c-5.888,0-10.667-4.779-10.667-10.667
			c0-5.888,4.779-10.667,10.667-10.667h21.333c5.888,0,10.667,4.779,10.667,10.667C256,357.888,251.221,362.667,245.333,362.667z
			 M245.333,320H224c-5.888,0-10.667-4.779-10.667-10.667s4.779-10.667,10.667-10.667h21.333c5.888,0,10.667,4.779,10.667,10.667
			S251.221,320,245.333,320z M245.333,277.333H224c-5.888,0-10.667-4.779-10.667-10.667S218.112,256,224,256h21.333
			c5.888,0,10.667,4.779,10.667,10.667S251.221,277.333,245.333,277.333z M245.333,234.667H224c-5.888,0-10.667-4.779-10.667-10.667
			s4.779-10.667,10.667-10.667h21.333c5.888,0,10.667,4.779,10.667,10.667S251.221,234.667,245.333,234.667z"/>
	</g>
</g>
<g>
</g>
<g>
</g>
<g>
</g>
<g>
</g>
<g>
</g>
<g>
</g>
<g>
</g>
<g>
</g>
<g>
</g>
<g>
</g>
<g>
</g>
<g>
</g>
<g>
</g>
<g>
</g>
<g>
</g>
</svg>
