<?xml version="1.0" encoding="iso-8859-1"?>
<!-- Generator: Adobe Illustrator 19.0.0, SVG Export Plug-In . SVG Version: 6.00 Build 0)  -->
<svg version="1.1" id="Capa_1" xmlns="http://www.w3.org/2000/svg" xmlns:xlink="http://www.w3.org/1999/xlink" x="0px" y="0px"
	 viewBox="0 0 512 512" style="enable-background:new 0 0 512 512;" xml:space="preserve">
<g>
	<g>
		<path d="M266.667,0c-29.333,0-58.475,4.288-86.613,12.715L38.016,55.317C15.275,62.144,0,82.667,0,106.411v301.333
			c0,22.101,13.909,42.176,34.603,49.941l123.029,46.144c14.443,5.44,29.589,8.171,45.035,8.171c17.643,0,32-14.357,32-32V196.715
			c0-4.587,2.944-8.661,7.296-10.112l34.837-11.605c13.077-4.373,21.867-16.576,21.867-30.379V32
			C298.667,14.357,284.309,0,266.667,0z"/>
	</g>
</g>
<g>
	<g>
		<path d="M355.349,69.248c-4.672-7.936-11.349-14.571-19.307-19.221c-3.285-1.92-7.36-1.92-10.688-0.021
			c-3.307,1.899-5.355,5.419-5.355,9.237v15.424c0,5.888,4.779,10.667,10.667,10.667h15.509c3.84,0,7.36-2.048,9.28-5.376
			C357.333,76.629,357.291,72.555,355.349,69.248z"/>
	</g>
</g>
<g>
	<g>
		<path d="M458.667,149.333H512v-32c0-5.888-4.779-10.667-10.667-10.667H330.667c-5.888,0-10.667,4.779-10.667,10.667v27.285
			c0,20.096-11.691,38.4-29.717,47.381h72.384c5.888,0,10.667,4.779,10.667,10.667v170.667c0,5.888-4.779,10.667-10.667,10.667H256
			v21.333h32c5.888,0,10.667,4.779,10.667,10.667c0,5.888-4.779,10.667-10.667,10.667h-32v32c0,5.888,4.779,10.667,10.667,10.667
			h234.667c5.888,0,10.667-4.779,10.667-10.667v-32h-53.333c-5.888,0-10.667-4.779-10.667-10.667
			c0-5.888,4.779-10.667,10.667-10.667H512V384h-96c-5.888,0-10.667-4.779-10.667-10.667V202.667
			c0-5.888,4.779-10.667,10.667-10.667h96v-21.333h-53.333c-5.888,0-10.667-4.779-10.667-10.667S452.779,149.333,458.667,149.333z
			 M394.667,426.667H352c-5.888,0-10.667-4.779-10.667-10.667c0-5.888,4.779-10.667,10.667-10.667h42.667
			c5.888,0,10.667,4.779,10.667,10.667C405.333,421.888,400.555,426.667,394.667,426.667z M394.667,170.667H352
			c-5.888,0-10.667-4.779-10.667-10.667s4.779-10.667,10.667-10.667h42.667c5.888,0,10.667,4.779,10.667,10.667
			S400.555,170.667,394.667,170.667z"/>
	</g>
</g>
<g>
</g>
<g>
</g>
<g>
</g>
<g>
</g>
<g>
</g>
<g>
</g>
<g>
</g>
<g>
</g>
<g>
</g>
<g>
</g>
<g>
</g>
<g>
</g>
<g>
</g>
<g>
</g>
<g>
</g>
</svg>
