<?xml version="1.0" encoding="iso-8859-1"?>
<!-- Generator: Adobe Illustrator 19.0.0, SVG Export Plug-In . SVG Version: 6.00 Build 0)  -->
<svg version="1.1" id="Capa_1" xmlns="http://www.w3.org/2000/svg" xmlns:xlink="http://www.w3.org/1999/xlink" x="0px" y="0px"
	 viewBox="0 0 512 512" style="enable-background:new 0 0 512 512;" xml:space="preserve">
<g>
	<g>
		<path d="M458.667,0H272.619c-5.888,0-10.667,4.779-10.667,10.667s4.779,10.667,10.667,10.667
			c22.997,0,43.328,14.677,50.581,36.501l6.741,20.203c1.472,4.352,5.568,7.296,10.133,7.296H480
			c5.888,0,10.667-4.779,10.667-10.667V32C490.667,14.357,476.309,0,458.667,0z"/>
	</g>
</g>
<g>
	<g>
		<path d="M330.667,213.333H144.619c-5.888,0-10.667,4.779-10.667,10.667s4.779,10.667,10.667,10.667
			c22.997,0,43.349,14.677,50.581,36.501l6.741,20.203c1.472,4.352,5.568,7.296,10.133,7.296H352
			c5.888,0,10.667-4.779,10.667-10.667v-42.667C362.667,227.691,348.309,213.333,330.667,213.333z"/>
	</g>
</g>
<g>
	<g>
		<path d="M352,320H196.715c-4.608,0-8.661-2.923-10.112-7.296l-11.627-34.816C170.624,264.789,158.421,256,144.619,256H32
			c-17.643,0-32,14.357-32,32v192c0,17.643,14.357,32,32,32h320c17.643,0,32-14.357,32-32V352C384,334.357,369.643,320,352,320z"/>
	</g>
</g>
<g>
	<g>
		<path d="M480,106.667H324.715c-4.608,0-8.661-2.923-10.112-7.296l-11.627-34.816c-4.352-13.099-16.555-21.888-30.357-21.888H160
			c-17.643,0-32,14.357-32,32v106.667c0,5.888,4.779,10.667,10.667,10.667h192C360.085,192,384,215.936,384,245.333V288
			c0,5.888,4.779,10.667,10.667,10.667H480c17.643,0,32-14.357,32-32v-128C512,121.024,497.643,106.667,480,106.667z"/>
	</g>
</g>
<g>
	<g>
		<path d="M103.531,45.803L60.864,3.136c-4.16-4.16-10.923-4.16-15.083,0c-4.16,4.16-4.16,10.923,0,15.083l35.136,35.115
			L45.781,88.469c-4.16,4.16-4.16,10.923,0,15.083c2.091,2.069,4.821,3.115,7.552,3.115c2.731,0,5.461-1.045,7.531-3.115
			l42.667-42.667C107.691,56.725,107.691,49.963,103.531,45.803z"/>
	</g>
</g>
<g>
	<g>
		<path d="M96,42.667H53.333C23.915,42.667,0,66.603,0,96v85.333C0,187.221,4.779,192,10.667,192s10.667-4.779,10.667-10.667V96
			c0-17.643,14.357-32,32-32H96c5.888,0,10.667-4.779,10.667-10.667S101.888,42.667,96,42.667z"/>
	</g>
</g>
<g>
	<g>
		<path d="M431.083,458.667l35.115-35.115c4.16-4.16,4.16-10.923,0-15.083c-4.16-4.16-10.923-4.16-15.083,0l-42.667,42.667
			c-4.16,4.16-4.16,10.923,0,15.083l42.667,42.667c2.091,2.069,4.821,3.115,7.552,3.115s5.461-1.045,7.531-3.136
			c4.16-4.16,4.16-10.923,0-15.083L431.083,458.667z"/>
	</g>
</g>
<g>
	<g>
		<path d="M501.333,320c-5.888,0-10.667,4.779-10.667,10.667V416c0,17.643-14.357,32-32,32H416c-5.888,0-10.667,4.779-10.667,10.667
			s4.779,10.667,10.667,10.667h42.667C488.085,469.333,512,445.397,512,416v-85.333C512,324.779,507.221,320,501.333,320z"/>
	</g>
</g>
<g>
</g>
<g>
</g>
<g>
</g>
<g>
</g>
<g>
</g>
<g>
</g>
<g>
</g>
<g>
</g>
<g>
</g>
<g>
</g>
<g>
</g>
<g>
</g>
<g>
</g>
<g>
</g>
<g>
</g>
</svg>
