<?xml version="1.0" encoding="iso-8859-1"?>
<!-- Generator: Adobe Illustrator 19.0.0, SVG Export Plug-In . SVG Version: 6.00 Build 0)  -->
<svg version="1.1" id="Capa_1" xmlns="http://www.w3.org/2000/svg" xmlns:xlink="http://www.w3.org/1999/xlink" x="0px" y="0px"
	 viewBox="0 0 501.312 501.312" style="enable-background:new 0 0 501.312 501.312;" xml:space="preserve">
<g>
	<g>
		<path d="M421.333,0H113.259c-5.888,0-10.667,4.779-10.667,10.667s4.779,10.667,10.667,10.667
			c32.171,0,60.651,20.523,70.827,51.029l1.877,5.696c1.451,4.373,5.525,7.317,10.133,7.317l246.571-0.043
			c5.675,0,11.584,0.853,18.645,2.688c0.896,0.235,1.792,0.341,2.688,0.341c2.325,0,4.629-0.768,6.528-2.219
			c2.603-2.027,4.139-5.141,4.139-8.448V53.333C474.667,23.936,450.731,0,421.333,0z"/>
	</g>
</g>
<g>
	<g>
		<path d="M260.523,326.592c-0.533-1.323-1.323-2.496-2.325-3.477l-31.979-31.979c-4.16-4.16-10.923-4.16-15.083,0
			c-4.16,4.16-4.16,10.923,0,15.083L224.917,320H208c-41.173,0-74.667,33.493-74.667,74.667s33.493,74.667,74.667,74.667
			c5.888,0,10.667-4.779,10.667-10.667c0-5.888-4.779-10.667-10.667-10.667c-29.397,0-53.333-23.936-53.333-53.333
			s23.936-53.333,53.333-53.333h16.917l-13.781,13.781c-4.16,4.16-4.16,10.923,0,15.083c2.069,2.091,4.8,3.136,7.531,3.136
			c2.731,0,5.461-1.045,7.552-3.115l31.979-31.979c0.981-1.003,1.771-2.197,2.325-3.499
			C261.611,332.139,261.611,329.195,260.523,326.592z"/>
	</g>
</g>
<g>
	<g>
		<path d="M368,394.667C368,353.493,334.507,320,293.333,320c-5.888,0-10.667,4.779-10.667,10.667
			c0,5.888,4.779,10.667,10.667,10.667c29.397,0,53.333,23.936,53.333,53.333S322.731,448,293.333,448h-16.917l13.781-13.781
			c4.16-4.16,4.16-10.923,0-15.083c-4.16-4.16-10.923-4.16-15.083,0l-31.979,31.979c-0.981,0.981-1.771,2.176-2.325,3.477
			c-1.088,2.603-1.088,5.547,0,8.149c0.533,1.323,1.323,2.496,2.325,3.477l31.979,31.979c2.091,2.091,4.821,3.115,7.552,3.115
			c2.731,0,5.461-1.045,7.552-3.115c4.16-4.16,4.16-10.923,0-15.083l-13.781-13.781h16.896C334.507,469.333,368,435.84,368,394.667z
			"/>
	</g>
</g>
<g>
	<g>
		<path d="M442.667,106.667H196.075c-13.781,0-25.984-8.789-30.357-21.867l-1.877-5.675c-7.275-21.803-27.605-36.459-50.581-36.459
			H58.667C29.269,42.667,5.333,66.603,5.333,96v256c0,29.397,23.936,53.333,53.333,53.333h42.667
			c5.888,0,10.667-4.779,10.667-10.667c0-41.92,27.2-78.571,67.691-91.179c3.989-1.259,6.891-4.715,7.403-8.853
			c0.917-7.211,4.011-13.653,8.939-18.581c12.053-12.096,33.152-12.096,45.248,0l24.619,24.619
			c3.349,3.328,8.427,4.096,12.544,1.877c4.843-2.581,9.835-3.883,14.869-3.883c52.928,0,96,43.072,96,96
			c0,5.888,4.779,10.667,10.667,10.667h42.667c29.397,0,53.333-23.936,53.333-53.333V160
			C496,130.603,472.064,106.667,442.667,106.667z"/>
	</g>
</g>
<g>
</g>
<g>
</g>
<g>
</g>
<g>
</g>
<g>
</g>
<g>
</g>
<g>
</g>
<g>
</g>
<g>
</g>
<g>
</g>
<g>
</g>
<g>
</g>
<g>
</g>
<g>
</g>
<g>
</g>
</svg>
