<?xml version="1.0" encoding="iso-8859-1"?>
<!-- Generator: Adobe Illustrator 19.0.0, SVG Export Plug-In . SVG Version: 6.00 Build 0)  -->
<svg version="1.1" id="Capa_1" xmlns="http://www.w3.org/2000/svg" xmlns:xlink="http://www.w3.org/1999/xlink" x="0px" y="0px"
	 viewBox="0 0 501.355 501.355" style="enable-background:new 0 0 501.355 501.355;" xml:space="preserve">
<g>
	<g>
		<path d="M421.344,0H113.269c-5.888,0-10.667,4.779-10.667,10.667s4.779,10.667,10.667,10.667
			c32.171,0,60.651,20.523,70.827,51.029l1.877,5.696c1.451,4.373,5.525,7.317,10.133,7.317l246.571-0.043
			c5.675,0,11.584,0.853,18.645,2.688c0.896,0.235,1.792,0.341,2.688,0.341c2.325,0,4.629-0.768,6.528-2.219
			c2.603-2.027,4.139-5.141,4.139-8.448V53.333C474.677,23.936,450.741,0,421.344,0z"/>
	</g>
</g>
<g>
	<g>
		<path d="M442.677,106.667H196.085c-13.781,0-25.984-8.789-30.357-21.867l-1.877-5.675c-7.275-21.803-27.605-36.459-50.581-36.459
			H58.677C29.28,42.667,5.344,66.603,5.344,96v256c0,29.397,23.936,53.333,53.333,53.333h134.464c0.064,0,0.149,0,0.213,0
			c6.485,0.363,10.88-4.693,10.88-10.667c0-3.605-1.792-6.784-4.523-8.725c-14.144-16.277-24.491-23.275-34.368-23.275
			c-17.643,0-32-14.357-32-32c0-17.643,14.357-32,32-32c26.837,0,50.624,11.733,74.837,36.907c1.984,2.069,4.715,3.243,7.552,3.264
			c2.816-0.021,5.611-1.088,7.637-3.115c10.176-10.112,21.163-18.368,32.661-24.597c3.691-2.005,5.867-5.973,5.568-10.176
			c-0.704-9.515,2.539-18.368,9.109-24.939c12.053-12.096,33.152-12.096,45.248,0l32,32c6.059,6.08,9.387,14.101,9.387,22.656
			s-3.328,16.576-9.365,22.635l-31.829,31.851c-0.043,0.043-1.813,1.451-1.877,1.493c-3.349,2.923-4.544,7.616-2.987,11.776
			c1.557,4.16,5.547,6.933,9.984,6.933h89.408c29.397,0,53.333-23.936,53.333-53.333v-192
			C496.011,130.603,472.075,106.667,442.677,106.667z"/>
	</g>
</g>
<g>
	<g>
		<path d="M364.939,451.157l-32.043-32.043c-4.16-4.16-10.923-4.16-15.083,0c-4.16,4.16-4.16,10.923,0,15.083l13.248,13.248
			c-28.501-2.517-49.344-25.835-70.165-52.779c20.821-26.944,41.664-50.261,70.165-52.779l-13.248,13.248
			c-4.16,4.16-4.16,10.923,0,15.083c2.091,2.091,4.821,3.115,7.552,3.115c2.731,0,5.461-1.045,7.552-3.115l32-32
			c4.16-4.16,4.16-10.923,0-15.083l-32-32c-4.16-4.16-10.923-4.16-15.083,0c-4.16,4.16-4.16,10.923,0,15.083l14.208,14.208
			c-36.672,1.899-62.443,28.736-84.544,56.789c-22.613-29.355-46.805-57.195-82.133-57.195c-5.888,0-10.667,4.779-10.667,10.667
			s4.779,10.667,10.667,10.667c26.859,0,47.36,25.451,68.651,53.333c-21.291,27.883-41.792,53.333-68.651,53.333
			c-5.888,0-10.667,4.779-10.667,10.667s4.779,10.667,10.667,10.667c35.328,0,59.52-27.84,82.133-57.195
			c22.08,28.053,47.851,54.869,84.544,56.789l-14.208,14.208c-4.16,4.16-4.16,10.923,0,15.083c2.091,2.091,4.821,3.115,7.552,3.115
			s5.461-1.045,7.552-3.115l32-32C369.099,462.08,369.099,455.318,364.939,451.157z"/>
	</g>
</g>
<g>
</g>
<g>
</g>
<g>
</g>
<g>
</g>
<g>
</g>
<g>
</g>
<g>
</g>
<g>
</g>
<g>
</g>
<g>
</g>
<g>
</g>
<g>
</g>
<g>
</g>
<g>
</g>
<g>
</g>
</svg>
