<?xml version="1.0" encoding="iso-8859-1"?>
<!-- Generator: Adobe Illustrator 19.0.0, SVG Export Plug-In . SVG Version: 6.00 Build 0)  -->
<svg version="1.1" id="Capa_1" xmlns="http://www.w3.org/2000/svg" xmlns:xlink="http://www.w3.org/1999/xlink" x="0px" y="0px"
	 viewBox="0 0 512 512" style="enable-background:new 0 0 512 512;" xml:space="preserve">
<g>
	<g>
		<path d="M124.672,226.555c-18.283-17.323-91.392-22.933-113.365-24.235c-2.965,0-5.803,0.875-7.957,2.88
			C1.216,207.227,0,210.022,0,212.966V426.32c0,5.888,4.779,10.667,10.667,10.667h64c4.608,0,8.704-2.965,10.133-7.36
			c1.557-4.779,38.315-138.944,43.157-194.411C128.235,231.995,127.04,228.795,124.672,226.555z"/>
	</g>
</g>
<g>
	<g>
		<path d="M448,341.158l-74.667,31.872c-20.672,1.003-63.659-0.341-74.667-0.192c-10.837,0.149-66.24-17.621-57.557-21.141
			c1.813-0.747,6.443-0.896,14.891-0.192c48.725,4.053,128,13.867,128-21.333s-85.909-42.667-106.667-42.667
			S221.781,268.88,192,266.171c-11.84-1.067-28.096-2.688-44.608-3.712c-6.741,45.867-26.389,112.341-36.501,144.853L224,458.47
			c42.325,16,71.104,36.437,160,0c0,0,128-54.336,128-85.333C512,347.515,482.667,329.147,448,341.158z"/>
	</g>
</g>
<g>
	<g>
		<path d="M458.667,33.168H272.619c-5.888,0-10.667,4.779-10.667,10.667s4.779,10.667,10.667,10.667
			c22.976,0,43.307,14.656,50.581,36.437l6.741,20.267c1.451,4.352,5.525,7.296,10.133,7.296H480
			c5.888,0,10.667-4.779,10.667-10.667V65.168C490.667,47.526,476.309,33.168,458.667,33.168z"/>
	</g>
</g>
<g>
	<g>
		<path d="M480,139.835H324.715c-4.587,0-8.661-2.923-10.112-7.296l-11.627-34.816c-4.373-13.077-16.555-21.867-30.357-21.867H160
			c-17.643,0-32,14.357-32,32v79.467c0,3.883,2.133,7.467,5.547,9.344c5.781,3.179,10.091,6.123,13.163,9.045
			c5.909,5.568,10.069,12.651,12.011,20.48c1.109,4.437,4.907,7.68,9.472,8.064c6.763,0.555,26.709,2.389,26.709,2.389
			c18.645,1.707,37.163,7.851,53.589,13.291c15.125,5.056,23.68,7.659,28.949,7.915c41.685,0,116.949,11.456,134.677,54.421
			c1.088,2.645,3.179,4.715,5.824,5.803c1.301,0.533,2.667,0.789,4.032,0.789c1.429,0,2.837-0.277,4.181-0.853l8.64-3.691
			c23.659-8.427,43.285-8.683,62.869-1.579c3.285,1.195,6.912,0.704,9.771-1.301c2.859-2.005,4.565-5.269,4.565-8.747V171.835
			C512,154.192,497.643,139.835,480,139.835z"/>
	</g>
</g>
<g>
</g>
<g>
</g>
<g>
</g>
<g>
</g>
<g>
</g>
<g>
</g>
<g>
</g>
<g>
</g>
<g>
</g>
<g>
</g>
<g>
</g>
<g>
</g>
<g>
</g>
<g>
</g>
<g>
</g>
</svg>
