<?xml version="1.0" encoding="iso-8859-1"?>
<!-- Generator: Adobe Illustrator 19.0.0, SVG Export Plug-In . SVG Version: 6.00 Build 0)  -->
<svg version="1.1" id="Capa_1" xmlns="http://www.w3.org/2000/svg" xmlns:xlink="http://www.w3.org/1999/xlink" x="0px" y="0px"
	 viewBox="0 0 509.888 509.888" style="enable-background:new 0 0 509.888 509.888;" xml:space="preserve">
<g>
	<g>
		<path d="M425.611,0H117.536c-5.888,0-10.667,4.779-10.667,10.667s4.757,10.667,10.667,10.667
			c32.171,0,60.651,20.523,70.827,51.029l1.877,5.696c1.451,4.373,5.525,7.317,10.133,7.317l246.571-0.043
			c5.675,0,11.584,0.853,18.645,2.688c0.896,0.235,1.792,0.341,2.688,0.341c2.325,0,4.629-0.768,6.528-2.219
			c2.603-2.027,4.139-5.141,4.139-8.448V53.333C478.944,23.936,455.008,0,425.611,0z"/>
	</g>
</g>
<g>
	<g>
		<path d="M446.944,106.667H200.352c-13.781,0-25.984-8.789-30.357-21.867l-1.877-5.653c-7.275-21.824-27.605-36.48-50.581-36.48
			H62.944C33.547,42.667,9.611,66.603,9.611,96v256c0,29.397,23.936,53.333,53.333,53.333h42.667
			c5.888,0,10.667-4.779,10.667-10.667c0-14.443,2.539-28.928,7.765-44.331c2.432-7.189,7.381-13.312,13.909-17.216
			c3.179-1.899,5.141-5.312,5.205-9.003c0.107-7.637,2.944-14.997,7.979-20.736c20.523-23.339,47.04-38.784,76.693-44.672
			c7.509-1.515,15.317-0.213,21.909,3.499c3.243,1.813,7.211,1.813,10.453,0c6.571-3.691,14.4-4.971,21.909-3.499
			c29.632,5.888,56.149,21.333,76.672,44.672c5.035,5.739,7.872,13.099,7.979,20.736c0.043,3.691,2.027,7.104,5.205,9.003
			c6.528,3.904,11.477,10.005,13.909,17.216c5.205,15.403,7.744,29.909,7.744,44.331c0,5.888,4.779,10.667,10.667,10.667h42.667
			c29.397,0,53.333-23.936,53.333-53.333V160C500.277,130.603,476.341,106.667,446.944,106.667z"/>
	</g>
</g>
<g>
	<g>
		<path d="M365.643,357.205c-0.939-2.816-3.029-5.099-5.739-6.293c-2.688-1.237-5.781-1.259-8.533-0.085
			c-4.885,2.112-10.752,0.299-13.312-4.139c-2.645-4.565-1.344-10.283,3.093-13.611c2.368-1.771,3.904-4.48,4.203-7.445
			c0.299-2.944-0.64-5.888-2.603-8.128c-17.408-19.797-39.829-32.896-64.832-37.845c-2.944-0.661-6.016,0.085-8.427,1.877
			c-2.411,1.771-3.968,4.501-4.288,7.488c-0.555,5.504-4.992,9.664-10.283,9.664s-9.728-4.139-10.283-9.664
			c-0.32-2.987-1.856-5.717-4.288-7.488c-2.411-1.792-5.504-2.517-8.427-1.877c-24.981,4.971-47.381,18.048-64.789,37.845
			c-1.963,2.219-2.901,5.184-2.603,8.128c0.299,2.965,1.813,5.653,4.203,7.445c4.416,3.328,5.717,9.045,3.093,13.611
			c-2.56,4.416-8.384,6.208-13.312,4.139c-2.752-1.173-5.824-1.131-8.533,0.085c-2.709,1.216-4.779,3.499-5.739,6.293
			c-4.459,13.141-6.635,25.408-6.635,37.461s2.176,24.32,6.635,37.461c0.96,2.816,3.029,5.099,5.739,6.293
			c2.688,1.216,5.781,1.259,8.533,0.085c4.949-2.069,10.752-0.277,13.312,4.139c2.645,4.565,1.344,10.283-3.093,13.611
			c-2.368,1.771-3.904,4.48-4.203,7.445c-0.299,2.944,0.64,5.888,2.603,8.128c17.408,19.797,39.829,32.896,64.832,37.845
			c2.901,0.576,5.995-0.085,8.427-1.877s3.968-4.501,4.288-7.488c0.555-5.504,4.992-9.664,10.283-9.664
			c5.291,0,9.728,4.139,10.283,9.664c0.32,2.987,1.856,5.717,4.288,7.488c1.835,1.365,4.075,2.091,6.336,2.091
			c0.704,0,1.387-0.064,2.091-0.213c25.003-4.971,47.424-18.069,64.832-37.845c1.963-2.219,2.901-5.184,2.603-8.128
			c-0.299-2.965-1.813-5.653-4.203-7.445c-4.416-3.328-5.717-9.045-3.093-13.611c2.539-4.437,8.363-6.251,13.312-4.139
			c2.731,1.152,5.824,1.131,8.533-0.085c2.709-1.216,4.779-3.499,5.739-6.293c4.416-13.141,6.592-25.387,6.592-37.461
			C372.277,382.592,370.101,370.347,365.643,357.205z M254.944,426.667c-17.643,0-32-14.357-32-32c0-17.643,14.357-32,32-32
			c17.643,0,32,14.357,32,32C286.944,412.309,272.587,426.667,254.944,426.667z"/>
	</g>
</g>
<g>
</g>
<g>
</g>
<g>
</g>
<g>
</g>
<g>
</g>
<g>
</g>
<g>
</g>
<g>
</g>
<g>
</g>
<g>
</g>
<g>
</g>
<g>
</g>
<g>
</g>
<g>
</g>
<g>
</g>
</svg>
