<?xml version="1.0" encoding="iso-8859-1"?>
<!-- Generator: Adobe Illustrator 19.0.0, SVG Export Plug-In . SVG Version: 6.00 Build 0)  -->
<svg version="1.1" id="Capa_1" xmlns="http://www.w3.org/2000/svg" xmlns:xlink="http://www.w3.org/1999/xlink" x="0px" y="0px"
	 viewBox="0 0 512 512" style="enable-background:new 0 0 512 512;" xml:space="preserve">
<g>
	<g>
		<path d="M426.667,0H118.592c-5.888,0-10.667,4.779-10.667,10.667s4.757,10.667,10.667,10.667
			c32.171,0,60.651,20.523,70.827,51.029l1.877,5.696c1.451,4.373,5.525,7.317,10.133,7.317L448,85.333
			c5.675,0,11.584,0.853,18.645,2.688c0.896,0.235,1.792,0.341,2.688,0.341c2.325,0,4.629-0.768,6.528-2.219
			c2.603-2.027,4.139-5.141,4.139-8.448V53.333C480,23.936,456.064,0,426.667,0z"/>
	</g>
</g>
<g>
	<g>
		<path d="M448,106.667H201.408c-13.781,0-25.984-8.789-30.336-21.867l-1.899-5.675c-7.275-21.803-27.605-36.459-50.581-36.459H64
			c-29.397,0-53.333,23.936-53.333,53.333v256c0,29.397,23.936,53.333,53.333,53.333h64.533c0.064,0,0.149,0,0.213,0
			c5.803,0.341,10.88-4.693,10.88-10.667c0-1.344-0.256-2.645-0.704-3.819c-0.149-2.261-0.256-4.544-0.256-6.848
			c0-58.816,47.851-106.667,106.667-106.667C304.149,277.333,352,325.184,352,384c0,3.264-0.235,6.485-0.512,9.685
			c-0.277,2.987,0.725,5.952,2.752,8.171c2.005,2.219,4.864,3.477,7.872,3.477H448c29.397,0,53.333-23.936,53.333-53.333V160
			C501.333,130.603,477.397,106.667,448,106.667z"/>
	</g>
</g>
<g>
	<g>
		<path d="M370.219,493.803l-57.749-57.749c11.221-14.464,18.197-32.384,18.197-52.053c0-47.061-38.272-85.333-85.333-85.333
			S160,336.939,160,384c0,47.061,38.272,85.333,85.333,85.333c19.669,0,37.589-6.976,52.053-18.197l57.749,57.749
			c2.069,2.069,4.8,3.115,7.531,3.115c2.731,0,5.461-1.045,7.552-3.115C374.379,504.725,374.379,497.963,370.219,493.803z
			 M245.333,448c-35.285,0-64-28.715-64-64c0-35.285,28.715-64,64-64s64,28.715,64,64C309.333,419.285,280.619,448,245.333,448z"/>
	</g>
</g>
<g>
</g>
<g>
</g>
<g>
</g>
<g>
</g>
<g>
</g>
<g>
</g>
<g>
</g>
<g>
</g>
<g>
</g>
<g>
</g>
<g>
</g>
<g>
</g>
<g>
</g>
<g>
</g>
<g>
</g>
</svg>
