<?xml version="1.0" encoding="iso-8859-1"?>
<!-- Generator: Adobe Illustrator 19.0.0, SVG Export Plug-In . SVG Version: 6.00 Build 0)  -->
<svg version="1.1" id="Capa_1" xmlns="http://www.w3.org/2000/svg" xmlns:xlink="http://www.w3.org/1999/xlink" x="0px" y="0px"
	 viewBox="0 0 512 512" style="enable-background:new 0 0 512 512;" xml:space="preserve">
<g>
	<g>
		<path d="M426.667,0H118.592c-5.888,0-10.667,4.779-10.667,10.667s4.757,10.667,10.667,10.667
			c32.171,0,60.651,20.523,70.827,51.029l1.877,5.696c1.451,4.373,5.525,7.317,10.133,7.317L448,85.333
			c5.675,0,11.584,0.853,18.645,2.688c0.896,0.235,1.792,0.341,2.688,0.341c2.325,0,4.629-0.768,6.528-2.219
			c2.603-2.027,4.139-5.141,4.139-8.448V53.333C480,23.936,456.064,0,426.667,0z"/>
	</g>
</g>
<g>
	<g>
		<path d="M256,320c-52.928,0-96,43.072-96,96c0,52.928,43.072,96,96,96c5.888,0,10.667-4.779,10.667-10.667
			c0-5.888-4.779-10.667-10.667-10.667c-41.173,0-74.667-33.493-74.667-74.667s33.493-74.667,74.667-74.667
			c40.747,0,74.667,38.72,74.667,53.333c0,5.888,4.779,10.667,10.667,10.667S352,400.555,352,394.667
			C352,366.549,307.136,320,256,320z"/>
	</g>
</g>
<g>
	<g>
		<path d="M448,106.667H201.408c-13.781,0-25.984-8.789-30.336-21.867l-1.899-5.675c-7.275-21.803-27.605-36.459-50.581-36.459H64
			c-29.397,0-53.333,23.936-53.333,53.333v256c0,29.397,23.936,53.333,53.333,53.333h65.92c5.205,0,9.643-3.755,10.517-8.896
			c9.579-56.64,58.176-97.771,115.563-97.771c16.619,0,33.515,4.011,50.219,11.925c4.117,1.984,9.045,1.067,12.224-2.197
			c6.08-6.272,14.229-9.728,22.891-9.728c17.643,0,32,14.357,32,32v64c0,5.888,4.779,10.667,10.667,10.667h64
			c29.397,0,53.333-23.936,53.333-53.333V160C501.333,130.603,477.397,106.667,448,106.667z"/>
	</g>
</g>
<g>
	<g>
		<path d="M341.333,320c-5.888,0-10.667,4.779-10.667,10.667V384h-53.333c-5.888,0-10.667,4.779-10.667,10.667
			s4.779,10.667,10.667,10.667h64c5.888,0,10.667-4.779,10.667-10.667v-64C352,324.779,347.221,320,341.333,320z"/>
	</g>
</g>
<g>
</g>
<g>
</g>
<g>
</g>
<g>
</g>
<g>
</g>
<g>
</g>
<g>
</g>
<g>
</g>
<g>
</g>
<g>
</g>
<g>
</g>
<g>
</g>
<g>
</g>
<g>
</g>
<g>
</g>
</svg>
