<?xml version="1.0" encoding="iso-8859-1"?>
<!-- Generator: Adobe Illustrator 19.0.0, SVG Export Plug-In . SVG Version: 6.00 Build 0)  -->
<svg version="1.1" id="Capa_1" xmlns="http://www.w3.org/2000/svg" xmlns:xlink="http://www.w3.org/1999/xlink" x="0px" y="0px"
	 viewBox="0 0 512 512" style="enable-background:new 0 0 512 512;" xml:space="preserve">
<g>
	<g>
		<path d="M426.667,0H118.592c-5.888,0-10.667,4.779-10.667,10.667s4.757,10.667,10.667,10.667
			c32.171,0,60.651,20.523,70.827,51.029l1.877,5.696c1.451,4.373,5.525,7.317,10.133,7.317L448,85.333
			c5.675,0,11.584,0.853,18.645,2.688c0.896,0.235,1.792,0.341,2.688,0.341c2.325,0,4.629-0.768,6.528-2.219
			c2.603-2.027,4.139-5.141,4.139-8.448V53.333C480,23.936,456.064,0,426.667,0z"/>
	</g>
</g>
<g>
	<g>
		<path d="M448,106.667H201.408c-13.781,0-25.984-8.789-30.336-21.867l-1.899-5.675c-7.275-21.803-27.605-36.459-50.581-36.459H64
			c-29.397,0-53.333,23.936-53.333,53.333v256c0,29.397,23.936,53.333,53.333,53.333h42.667c5.888,0,10.667-4.779,10.667-10.667
			C117.333,318.208,179.541,256,256,256s138.667,62.208,138.667,138.667c0,5.888,4.779,10.667,10.667,10.667H448
			c29.397,0,53.333-23.936,53.333-53.333V160C501.333,130.603,477.397,106.667,448,106.667z"/>
	</g>
</g>
<g>
	<g>
		<path d="M256,277.333c-64.704,0-117.333,52.629-117.333,117.333S191.296,512,256,512s117.333-52.629,117.333-117.333
			S320.704,277.333,256,277.333z M263.68,466.133c-2.133,2.133-4.907,3.2-7.68,3.2c-2.773,0-5.333-1.067-7.467-2.987
			c-2.133-2.133-3.2-4.907-3.2-7.68c0-2.773,1.067-5.547,3.2-7.467c4.053-4.053,11.093-4.053,15.147,0
			c1.92,1.92,2.987,4.693,2.987,7.467S265.6,464.213,263.68,466.133z M266.688,403.371L266.667,416
			c0,5.888-4.779,10.667-10.667,10.667s-10.667-4.8-10.667-10.667l0.021-21.333c0-5.056,3.563-9.408,8.512-10.432l2.325-0.448
			c21.696-4.011,31.808-10.731,31.808-21.12c0-11.563-14.677-21.333-32.021-21.333c-16.704,0-31.083,9.045-32,20.181
			c-0.491,5.867-5.589,10.325-11.52,9.728c-5.867-0.491-10.219-5.653-9.728-11.52C204.608,337.088,227.52,320,255.979,320
			c29.419,0,53.355,19.136,53.355,42.667C309.333,383.04,294.997,396.715,266.688,403.371z"/>
	</g>
</g>
<g>
</g>
<g>
</g>
<g>
</g>
<g>
</g>
<g>
</g>
<g>
</g>
<g>
</g>
<g>
</g>
<g>
</g>
<g>
</g>
<g>
</g>
<g>
</g>
<g>
</g>
<g>
</g>
<g>
</g>
</svg>
