<?xml version="1.0" encoding="iso-8859-1"?>
<!-- Generator: Adobe Illustrator 19.0.0, SVG Export Plug-In . SVG Version: 6.00 Build 0)  -->
<svg version="1.1" id="Capa_1" xmlns="http://www.w3.org/2000/svg" xmlns:xlink="http://www.w3.org/1999/xlink" x="0px" y="0px"
	 viewBox="0 0 512 512" style="enable-background:new 0 0 512 512;" xml:space="preserve">
<g>
	<g>
		<path d="M288,448h-10.667v-10.667c0-5.888-4.779-10.667-10.667-10.667H224c-5.888,0-10.667,4.779-10.667,10.667V448h-10.667
			c-5.888,0-10.667,4.779-10.667,10.667v42.667c0,5.888,4.779,10.667,10.667,10.667H288c5.888,0,10.667-4.779,10.667-10.667v-42.667
			C298.667,452.779,293.888,448,288,448z"/>
	</g>
</g>
<g>
	<g>
		<path d="M458.667,106.667H212.075c-13.781,0-25.984-8.789-30.336-21.867l-1.877-5.675c-7.296-21.803-27.627-36.459-50.603-36.459
			H53.333C23.915,42.667,0,66.603,0,96v256c0,29.397,23.915,53.333,53.333,53.333h405.333C488.085,405.333,512,381.397,512,352V160
			C512,130.603,488.085,106.667,458.667,106.667z"/>
	</g>
</g>
<g>
	<g>
		<path d="M437.333,0H129.259c-5.888,0-10.667,4.779-10.667,10.667s4.757,10.667,10.667,10.667
			c32.192,0,60.651,20.523,70.827,51.051l1.899,5.696c1.451,4.373,5.547,7.296,10.133,7.296l246.549-0.043
			c5.675,0,11.584,0.853,18.645,2.688c0.896,0.235,1.792,0.341,2.688,0.341c2.325,0,4.651-0.768,6.528-2.219
			c2.624-2.027,4.139-5.141,4.139-8.448V53.333C490.667,23.936,466.752,0,437.333,0z"/>
	</g>
</g>
<g>
	<g>
		<path d="M245.333,384c-5.888,0-10.667,4.779-10.667,10.667v42.667c0,5.888,4.779,10.667,10.667,10.667S256,443.221,256,437.333
			v-42.667C256,388.779,251.221,384,245.333,384z"/>
	</g>
</g>
<g>
	<g>
		<path d="M501.333,469.333H288c-5.888,0-10.667,4.779-10.667,10.667c0,5.888,4.779,10.667,10.667,10.667h213.333
			c5.888,0,10.667-4.779,10.667-10.667C512,474.112,507.221,469.333,501.333,469.333z"/>
	</g>
</g>
<g>
	<g>
		<path d="M202.667,469.333h-192C4.779,469.333,0,474.112,0,480c0,5.888,4.779,10.667,10.667,10.667h192
			c5.888,0,10.667-4.779,10.667-10.667C213.333,474.112,208.555,469.333,202.667,469.333z"/>
	</g>
</g>
<g>
</g>
<g>
</g>
<g>
</g>
<g>
</g>
<g>
</g>
<g>
</g>
<g>
</g>
<g>
</g>
<g>
</g>
<g>
</g>
<g>
</g>
<g>
</g>
<g>
</g>
<g>
</g>
<g>
</g>
</svg>
