<?xml version="1.0" encoding="iso-8859-1"?>
<!-- Generator: Adobe Illustrator 19.0.0, SVG Export Plug-In . SVG Version: 6.00 Build 0)  -->
<svg version="1.1" id="Capa_1" xmlns="http://www.w3.org/2000/svg" xmlns:xlink="http://www.w3.org/1999/xlink" x="0px" y="0px"
	 viewBox="0 0 512 512" style="enable-background:new 0 0 512 512;" xml:space="preserve">
<g>
	<g>
		<path d="M463.915,150.72c-3.328-1.899-7.445-1.856-10.731,0.128l-106.667,64c-3.221,1.941-5.184,5.397-5.184,9.152v128
			c0,5.888,4.779,10.667,10.667,10.667c5.888,0,10.667-4.779,10.667-10.667V230.037l85.333-51.2v130.496
			c0,5.888,4.779,10.667,10.667,10.667s10.667-4.779,10.667-10.667V160C469.333,156.16,467.264,152.619,463.915,150.72z"/>
	</g>
</g>
<g>
	<g>
		<path d="M320,320c-23.915,0-42.667,14.059-42.667,32s18.752,32,42.667,32s42.667-14.059,42.667-32S343.915,320,320,320z"/>
	</g>
</g>
<g>
	<g>
		<path d="M426.667,277.333c-23.915,0-42.667,14.059-42.667,32c0,17.941,18.752,32,42.667,32s42.667-14.059,42.667-32
			C469.333,291.392,450.581,277.333,426.667,277.333z"/>
	</g>
</g>
<g>
	<g>
		<path d="M501.333,106.667H330.667c-5.888,0-10.667,4.779-10.667,10.667v27.285c0,22.997-14.656,43.307-36.459,50.603
			l-20.245,6.741c-4.352,1.451-7.296,5.525-7.296,10.112V416c0,5.888,4.779,10.667,10.667,10.667h234.667
			c5.888,0,10.667-4.779,10.667-10.667V117.333C512,111.445,507.221,106.667,501.333,106.667z M490.667,405.333H277.333V219.776
			l12.949-4.331c30.528-10.176,51.051-38.635,51.051-70.827V128h149.333V405.333z"/>
	</g>
</g>
<g>
	<g>
		<path d="M266.667,0c-29.333,0-58.475,4.288-86.613,12.715L38.016,55.317C15.275,62.144,0,82.667,0,106.411v301.333
			c0,22.101,13.909,42.176,34.603,49.941l123.029,46.144c14.443,5.44,29.589,8.171,45.035,8.171c17.643,0,32-14.357,32-32V196.715
			c0-4.587,2.944-8.661,7.296-10.112l34.837-11.605c13.077-4.373,21.867-16.576,21.867-30.379V32
			C298.667,14.357,284.309,0,266.667,0z"/>
	</g>
</g>
<g>
	<g>
		<path d="M355.328,453.355c-1.899-3.307-5.44-5.355-9.237-5.355h-79.424c-5.888,0-10.667,4.779-10.667,10.667V480
			c0,5.888,4.779,10.667,10.667,10.667h42.667c18.795,0,36.395-10.219,45.952-26.645
			C357.227,460.736,357.227,456.64,355.328,453.355z"/>
	</g>
</g>
<g>
	<g>
		<path d="M355.371,69.248c-4.672-7.936-11.349-14.571-19.307-19.221c-3.307-1.92-7.381-1.92-10.688-0.021
			c-3.328,1.899-5.376,5.419-5.376,9.237v15.424c0,5.888,4.779,10.667,10.667,10.667h15.509c3.84,0,7.36-2.048,9.28-5.376
			C357.355,76.629,357.312,72.555,355.371,69.248z"/>
	</g>
</g>
<g>
</g>
<g>
</g>
<g>
</g>
<g>
</g>
<g>
</g>
<g>
</g>
<g>
</g>
<g>
</g>
<g>
</g>
<g>
</g>
<g>
</g>
<g>
</g>
<g>
</g>
<g>
</g>
<g>
</g>
</svg>
