<?xml version="1.0" encoding="iso-8859-1"?>
<!-- Generator: Adobe Illustrator 19.0.0, SVG Export Plug-In . SVG Version: 6.00 Build 0)  -->
<svg version="1.1" id="Capa_1" xmlns="http://www.w3.org/2000/svg" xmlns:xlink="http://www.w3.org/1999/xlink" x="0px" y="0px"
	 viewBox="0 0 512 512" style="enable-background:new 0 0 512 512;" xml:space="preserve">
<g>
	<g>
		<path d="M326.571,343.595c-2.603-2.048-5.995-2.773-9.152-1.941l-85.333,21.333c-4.757,1.195-8.085,5.461-8.085,10.347v97.173
			c-3.307-0.704-6.848-1.173-10.667-1.173c-18.539,0-32,8.96-32,21.333s13.461,21.333,32,21.333c18.539,0,32-8.96,32-21.333V381.675
			l64-16v83.52c-3.307-0.725-6.848-1.195-10.667-1.195c-18.539,0-32,8.96-32,21.333c0,12.373,13.461,21.333,32,21.333
			s32-8.96,32-21.333V352C330.667,348.715,329.152,345.621,326.571,343.595z"/>
	</g>
</g>
<g>
	<g>
		<path d="M448,106.667H201.408c-13.781,0-25.984-8.789-30.336-21.867l-1.899-5.675c-7.275-21.803-27.605-36.459-50.581-36.459H64
			c-29.397,0-53.333,23.936-53.333,53.333v256c0,29.397,23.936,53.333,53.333,53.333h128c5.888,0,10.667-4.779,10.667-10.667
			v-21.333c0-14.699,9.963-27.477,24.235-31.061l85.355-21.333c9.365-2.368,19.755-0.149,27.435,5.824
			C347.52,332.885,352,342.08,352,352v42.667c0,5.888,4.779,10.667,10.667,10.667H448c29.397,0,53.333-23.936,53.333-53.333V160
			C501.333,130.603,477.397,106.667,448,106.667z"/>
	</g>
</g>
<g>
	<g>
		<path d="M426.667,0H118.592c-5.888,0-10.667,4.779-10.667,10.667s4.757,10.667,10.667,10.667
			c32.171,0,60.651,20.523,70.827,51.029l1.877,5.696c1.451,4.373,5.525,7.317,10.133,7.317L448,85.333
			c5.675,0,11.584,0.853,18.645,2.688c0.896,0.235,1.792,0.341,2.688,0.341c2.325,0,4.629-0.768,6.528-2.219
			c2.603-2.027,4.139-5.141,4.139-8.448V53.333C480,23.936,456.064,0,426.667,0z"/>
	</g>
</g>
<g>
</g>
<g>
</g>
<g>
</g>
<g>
</g>
<g>
</g>
<g>
</g>
<g>
</g>
<g>
</g>
<g>
</g>
<g>
</g>
<g>
</g>
<g>
</g>
<g>
</g>
<g>
</g>
<g>
</g>
</svg>
