<?xml version="1.0" encoding="iso-8859-1"?>
<!-- Generator: Adobe Illustrator 19.0.0, SVG Export Plug-In . SVG Version: 6.00 Build 0)  -->
<svg version="1.1" id="Capa_1" xmlns="http://www.w3.org/2000/svg" xmlns:xlink="http://www.w3.org/1999/xlink" x="0px" y="0px"
	 viewBox="0 0 512 512" style="enable-background:new 0 0 512 512;" xml:space="preserve">
<g>
	<g>
		<g>
			<path d="M184.832,437.333h-21.611c-5.888,0-10.667,4.779-10.667,10.667c0,5.888,4.779,10.667,10.667,10.667h21.611
				c5.888,0,10.667-4.779,10.667-10.667C195.499,442.112,190.72,437.333,184.832,437.333z"/>
			<path d="M72.725,96l-22.208,0.085c-5.781,0.32-9.131,5.163-8.96,10.923c0.171,5.76,5.995,10.325,11.776,10.325h19.392
				c5.909,0,10.667-4.779,10.667-10.667S78.613,96,72.725,96z"/>
			<path d="M53.333,437.333c-5.035,0-9.835-1.131-14.293-3.371c-5.269-2.581-11.669-0.491-14.315,4.779
				c-2.624,5.269-0.491,11.669,4.779,14.315c7.339,3.669,15.573,5.611,23.829,5.611h1.856c5.888,0,9.749-4.779,9.749-10.667
				C64.939,442.112,59.221,437.333,53.333,437.333z"/>
			<path d="M120,437.333H98.389c-5.888,0-10.667,4.779-10.667,10.667c0,5.888,4.779,10.667,10.667,10.667H120
				c5.888,0,10.667-4.779,10.667-10.667C130.667,442.112,125.888,437.333,120,437.333z"/>
			<path d="M139.563,97.003C136.213,96.341,132.779,96,129.259,96h-13.312c-5.888,0-10.667,4.779-10.667,10.667
				s4.779,10.667,10.667,10.667h13.312c2.091,0,4.16,0.192,6.165,0.619c0.704,0.128,1.408,0.192,2.091,0.192
				c4.992,0,9.451-3.52,10.453-8.597C149.099,103.765,145.344,98.155,139.563,97.003z"/>
			<path d="M21.333,405.333v-17.536c0-5.888-4.779-10.667-10.667-10.667S0,381.909,0,387.797v17.536
				c0,1.707,0.085,3.392,0.235,5.056c0.512,5.525,5.163,9.664,10.603,9.664c0.32,0,0.683,0,1.024-0.021
				c5.845-0.555,10.155-5.76,9.621-11.627C21.376,407.403,21.333,406.379,21.333,405.333z"/>
			<path d="M161.472,144.875c1.856,5.483,4.544,10.624,8.043,15.232c2.069,2.795,5.291,4.267,8.512,4.267
				c2.219,0,4.48-0.704,6.4-2.133c4.736-3.541,5.675-10.219,2.133-14.933c-2.091-2.795-3.712-5.888-4.821-9.173l-1.856-5.589
				c-0.064-0.171-0.704-2.005-0.768-2.155c-2.048-5.419-7.744-7.36-13.269-5.44c-5.44,1.941-8.064,8.747-6.251,14.251
				L161.472,144.875z"/>
			<path d="M10.667,160.384c5.888,0,10.667-5.163,10.667-11.051c0-5.44,1.365-10.795,3.989-15.509
				c2.859-5.163,0.981-11.648-4.16-14.507c-5.163-2.837-11.669-1.003-14.507,4.16C2.304,131.349,0,140.288,0,149.333v0.768
				C0,156.011,4.779,160.384,10.667,160.384z"/>
			<path d="M10.667,225.6c5.888,0,10.667-4.779,10.667-10.667v-21.611c0-5.909-4.779-10.667-10.667-10.667S0,187.435,0,193.323
				v21.611C0,220.821,4.779,225.6,10.667,225.6z"/>
			<path d="M10.667,290.411c5.888,0,10.667-4.757,10.667-10.667v-21.611c0-5.888-4.779-10.667-10.667-10.667S0,252.245,0,258.133
				v21.611C0,285.632,4.779,290.411,10.667,290.411z"/>
			<path d="M10.667,355.243c5.888,0,10.667-4.779,10.667-10.667v-21.611c0-5.888-4.779-10.667-10.667-10.667S0,317.077,0,322.965
				v21.611C0,350.464,4.779,355.243,10.667,355.243z"/>
			<path d="M248.149,170.667c0-5.888-4.779-10.667-10.667-10.667h-21.611c-5.888,0-10.667,4.779-10.667,10.667
				s4.779,10.667,10.667,10.667h21.611C243.371,181.333,248.149,176.555,248.149,170.667z"/>
			<path d="M502.144,411.776c-5.397-2.219-11.691,0.341-13.931,5.781c-2.091,5.013-5.419,9.429-9.643,12.8
				c-4.629,3.669-5.397,10.389-1.728,14.997c2.112,2.645,5.248,4.032,8.363,4.032c2.347,0,4.672-0.747,6.613-2.347
				c7.083-5.611,12.651-12.992,16.107-21.333C510.165,420.267,507.584,414.037,502.144,411.776z"/>
			<path d="M444.117,437.333h-21.611c-5.888,0-10.667,4.779-10.667,10.667c0,5.888,4.779,10.667,10.667,10.667h21.611
				c5.909,0,10.667-4.779,10.667-10.667C454.784,442.112,450.005,437.333,444.117,437.333z"/>
			<path d="M483.605,193.259c2.133,2.624,5.205,3.968,8.32,3.968c2.347,0,4.715-0.768,6.677-2.347
				c4.587-3.691,5.312-10.411,1.621-14.997c-5.675-7.019-13.077-12.544-21.44-15.936c-5.419-2.219-11.669,0.363-13.888,5.845
				c-2.24,5.44,0.384,11.669,5.845,13.888C475.755,185.707,480.213,189.035,483.605,193.259z"/>
			<path d="M501.333,346.603c-5.888,0-10.667,4.779-10.667,10.667v21.611c0,5.888,4.779,10.667,10.667,10.667
				c5.888,0,10.667-4.779,10.667-10.667v-21.611C512,351.381,507.221,346.603,501.333,346.603z"/>
			<path d="M501.333,216.939c-5.888,0-10.667,4.779-10.667,10.667v21.611c0,5.888,4.779,10.667,10.667,10.667
				c5.888,0,10.667-4.779,10.667-10.667v-21.611C512,221.717,507.221,216.939,501.333,216.939z"/>
			<path d="M501.333,281.771c-5.888,0-10.667,4.779-10.667,10.667v21.611c0,5.888,4.779,10.667,10.667,10.667
				c5.888,0,10.667-4.757,10.667-10.667v-21.611C512,286.549,507.221,281.771,501.333,281.771z"/>
			<path d="M442.624,170.667c0-5.888-4.779-10.667-10.667-10.667h-21.632c-5.888,0-10.667,4.779-10.667,10.667
				s4.779,10.667,10.667,10.667h21.632C437.845,181.333,442.624,176.555,442.624,170.667z"/>
			<path d="M314.475,437.333h-21.611c-5.888,0-10.667,4.779-10.667,10.667c0,5.888,4.779,10.667,10.667,10.667h21.611
				c5.909,0,10.667-4.779,10.667-10.667C325.141,442.112,320.363,437.333,314.475,437.333z"/>
			<path d="M312.96,170.667c0-5.888-4.779-10.667-10.667-10.667h-21.611c-5.888,0-10.667,4.779-10.667,10.667
				s4.779,10.667,10.667,10.667h21.611C308.181,181.333,312.96,176.555,312.96,170.667z"/>
			<path d="M377.792,170.667c0-5.888-4.779-10.667-10.667-10.667h-21.611c-5.888,0-10.667,4.779-10.667,10.667
				s4.779,10.667,10.667,10.667h21.611C373.013,181.333,377.792,176.555,377.792,170.667z"/>
			<path d="M249.643,437.333h-21.611c-5.888,0-10.667,4.779-10.667,10.667c0,5.888,4.779,10.667,10.667,10.667h21.611
				c5.909,0,10.667-4.779,10.667-10.667C260.309,442.112,255.531,437.333,249.643,437.333z"/>
			<path d="M379.307,437.333h-21.632c-5.888,0-10.667,4.779-10.667,10.667c0,5.888,4.779,10.667,10.667,10.667h21.632
				c5.909,0,10.667-4.779,10.667-10.667C389.973,442.112,385.195,437.333,379.307,437.333z"/>
		</g>
	</g>
</g>
<g>
	<g>
		<path d="M35.989,85.781c-5.781-1.557-11.52,1.941-12.992,7.637c-1.109,4.288-1.664,8.747-1.664,13.248
			c0,5.888,4.779,10.667,10.667,10.667s10.667-4.779,10.667-10.667c0-2.688,0.341-5.333,1.003-7.893
			C45.141,93.077,41.707,87.253,35.989,85.781z"/>
	</g>
</g>
<g>
	<g>
		<path d="M81.067,63.147c-0.619-5.845-5.781-9.92-11.669-9.557c-4.416,0.448-8.725,1.408-12.864,2.901
			c-5.547,2.005-8.448,8.107-6.443,13.653c1.579,4.352,5.675,7.061,10.048,7.061c1.216,0,2.432-0.213,3.605-0.64
			c2.496-0.896,5.12-1.472,7.744-1.749C77.355,74.24,81.621,69.013,81.067,63.147z"/>
	</g>
</g>
<g>
	<g>
		<g>
			<path d="M207.125,53.333h-22.763c-5.888,0-10.667,4.779-10.667,10.667s4.779,10.667,10.667,10.667h22.763
				c5.888,0,10.667-4.779,10.667-10.667S213.013,53.333,207.125,53.333z"/>
			<path d="M275.477,53.333h-22.784c-5.888,0-10.667,4.779-10.667,10.667s4.779,10.667,10.667,10.667h22.784
				c5.888,0,10.667-4.779,10.667-10.667S281.365,53.333,275.477,53.333z"/>
			<path d="M138.773,53.333h-22.784c-5.888,0-10.667,4.779-10.667,10.667s4.779,10.667,10.667,10.667h22.805
				c5.888,0,10.645-4.779,10.645-10.667S144.661,53.333,138.773,53.333z"/>
			<path d="M482.539,78.4c-5.056-8.085-12.203-14.699-20.672-19.093c-5.248-2.667-11.648-0.683-14.4,4.565
				c-2.709,5.227-0.661,11.669,4.565,14.379c5.099,2.645,9.387,6.592,12.416,11.435c2.027,3.243,5.504,5.013,9.045,5.013
				c1.941,0,3.904-0.512,5.653-1.6C484.139,89.984,485.653,83.392,482.539,78.4z"/>
			<path d="M343.808,53.333h-22.763c-5.888,0-10.667,4.779-10.667,10.667s4.779,10.667,10.667,10.667h22.763
				c5.909,0,10.667-4.779,10.667-10.667S349.696,53.333,343.808,53.333z"/>
			<path d="M412.16,53.333h-22.784c-5.888,0-10.667,4.779-10.667,10.667s4.779,10.667,10.667,10.667h22.784
				c5.909,0,10.667-4.779,10.667-10.667S418.048,53.333,412.16,53.333z"/>
		</g>
	</g>
</g>
<g>
	<g>
		<path d="M480,117.909c-5.888,0-10.667,4.779-10.667,10.667v10.667c0,5.888,4.779,10.667,10.667,10.667
			c5.888,0,10.667-4.779,10.667-10.667v-10.667C490.667,122.667,485.888,117.909,480,117.909z"/>
	</g>
</g>
<g>
	<g>
		<path d="M480,149.333c-5.888,0-10.667,4.779-10.667,10.667v10.667c0,5.888,4.779,10.667,10.667,10.667
			c5.888,0,10.667-4.779,10.667-10.667V160C490.667,154.112,485.888,149.333,480,149.333z"/>
	</g>
</g>
<g>
</g>
<g>
</g>
<g>
</g>
<g>
</g>
<g>
</g>
<g>
</g>
<g>
</g>
<g>
</g>
<g>
</g>
<g>
</g>
<g>
</g>
<g>
</g>
<g>
</g>
<g>
</g>
<g>
</g>
</svg>
