<?xml version="1.0" encoding="iso-8859-1"?>
<!-- Generator: Adobe Illustrator 19.0.0, SVG Export Plug-In . SVG Version: 6.00 Build 0)  -->
<svg version="1.1" id="Capa_1" xmlns="http://www.w3.org/2000/svg" xmlns:xlink="http://www.w3.org/1999/xlink" x="0px" y="0px"
	 viewBox="0 0 512 512" style="enable-background:new 0 0 512 512;" xml:space="preserve">
<g>
	<g>
		<path d="M352,362.667c-8.192,0-16.704,1.045-25.301,3.115c-2.859,0.683-5.333,2.539-6.784,5.099
			c-6.571,11.584-17.984,27.883-35.008,39.701c-5.376,3.755-11.691,5.739-18.261,5.739c-5.888,0-10.667,4.779-10.667,10.667v31.68
			c0,5.888,4.779,10.667,10.667,10.667h42.667c29.397,0,53.333-23.936,53.333-53.333v-42.667
			C362.667,367.445,357.888,362.667,352,362.667z"/>
	</g>
</g>
<g>
	<g>
		<path d="M336.021,50.027c-3.285-1.92-7.36-1.92-10.667-0.021c-3.307,1.899-5.355,5.419-5.355,9.237v85.376
			c0,3.861-0.576,8.043-1.749,12.821c-0.789,3.179-0.064,6.549,1.963,9.131c2.027,2.581,5.12,4.096,8.384,4.096H352
			c5.888,0,10.667-4.779,10.667-10.667V96C362.667,77.227,352.448,59.605,336.021,50.027z"/>
	</g>
</g>
<g>
	<g>
		<path d="M394.667,192h-85.333c-9.195,0-18.219,1.259-28.181,4.011l-9.365,3.136c-3.499,1.365-6.933,2.795-10.155,4.523
			c-3.477,1.877-5.632,5.483-5.632,9.408v53.589c0-5.888,4.779-10.667,10.667-10.667h10.667v-10.667
			c0-5.888,4.779-10.667,10.667-10.667s10.667,4.779,10.667,10.667V256h10.667c5.888,0,10.667,4.779,10.667,10.667
			s-4.779,10.667-10.667,10.667h-10.667V288c0,5.888-4.779,10.667-10.667,10.667s-10.667-4.779-10.667-10.667v-10.667h-10.667
			c-5.888,0-10.667-4.779-10.667-10.667v117.675c0,3.968,2.219,7.616,5.739,9.451c3.52,1.813,7.787,1.579,11.029-0.704
			c19.264-13.397,30.016-34.283,34.091-43.563c7.339-2.709,24.661-8.192,45.141-8.192c20.459,0,37.781,5.461,45.141,8.192
			c6.165,14.293,27.947,55.808,72.192,55.808c28.309,0,42.667-25.131,42.667-74.667C512,293.653,484.181,192,394.667,192z
			 M416,234.667c5.888,0,10.667,4.779,10.667,10.667S421.888,256,416,256c-5.888,0-10.667-4.779-10.667-10.667
			S410.112,234.667,416,234.667z M394.667,277.333c-5.888,0-10.667-4.779-10.667-10.667S388.779,256,394.667,256
			s10.667,4.779,10.667,10.667S400.555,277.333,394.667,277.333z M416,298.667c-5.888,0-10.667-4.779-10.667-10.667
			s4.779-10.667,10.667-10.667c5.888,0,10.667,4.779,10.667,10.667S421.888,298.667,416,298.667z M437.333,277.333
			c-5.888,0-10.667-4.779-10.667-10.667S431.445,256,437.333,256c5.888,0,10.667,4.779,10.667,10.667
			S443.221,277.333,437.333,277.333z"/>
	</g>
</g>
<g>
	<g>
		<path d="M266.667,0c-29.333,0-58.475,4.288-86.592,12.715L38.016,55.317C15.275,62.144,0,82.667,0,106.411v301.333
			c0,22.101,13.909,42.176,34.603,49.941l123.029,46.144c14.443,5.44,29.589,8.171,45.035,8.171c17.643,0,32-14.357,32-32V196.715
			c0-4.587,2.923-8.661,7.296-10.112l34.837-11.605c13.077-4.373,21.867-16.576,21.867-30.379V32
			C298.667,14.357,284.309,0,266.667,0z"/>
	</g>
</g>
<g>
</g>
<g>
</g>
<g>
</g>
<g>
</g>
<g>
</g>
<g>
</g>
<g>
</g>
<g>
</g>
<g>
</g>
<g>
</g>
<g>
</g>
<g>
</g>
<g>
</g>
<g>
</g>
<g>
</g>
</svg>
