<?xml version="1.0" encoding="iso-8859-1"?>
<!-- Generator: Adobe Illustrator 19.0.0, SVG Export Plug-In . SVG Version: 6.00 Build 0)  -->
<svg version="1.1" id="Capa_1" xmlns="http://www.w3.org/2000/svg" xmlns:xlink="http://www.w3.org/1999/xlink" x="0px" y="0px"
	 viewBox="0 0 512 512" style="enable-background:new 0 0 512 512;" xml:space="preserve">
<g>
	<g>
		<path d="M458.667,160H212.075c-13.781,0-25.984-8.789-30.357-21.867l-1.877-5.675C172.565,110.656,152.235,96,129.259,96H53.333
			C23.936,96,0,119.936,0,149.333v256c0,29.397,23.936,53.333,53.333,53.333h405.333c29.397,0,53.333-23.936,53.333-53.333v-192
			C512,183.936,488.064,160,458.667,160z"/>
	</g>
</g>
<g>
	<g>
		<path d="M437.333,53.333H129.259c-5.888,0-10.667,4.779-10.667,10.667s4.779,10.667,10.667,10.667
			c32.171,0,60.651,20.523,70.827,51.029l1.877,5.696c1.451,4.373,5.525,7.317,10.133,7.317l246.571-0.043
			c5.675,0,11.584,0.853,18.645,2.688c0.896,0.235,1.792,0.341,2.688,0.341c2.325,0,4.629-0.768,6.528-2.219
			c2.603-2.027,4.139-5.141,4.139-8.448v-24.363C490.667,77.269,466.731,53.333,437.333,53.333z"/>
	</g>
</g>
<g>
</g>
<g>
</g>
<g>
</g>
<g>
</g>
<g>
</g>
<g>
</g>
<g>
</g>
<g>
</g>
<g>
</g>
<g>
</g>
<g>
</g>
<g>
</g>
<g>
</g>
<g>
</g>
<g>
</g>
</svg>
