<?xml version="1.0" encoding="iso-8859-1"?>
<!-- Generator: Adobe Illustrator 19.0.0, SVG Export Plug-In . SVG Version: 6.00 Build 0)  -->
<svg version="1.1" id="Capa_1" xmlns="http://www.w3.org/2000/svg" xmlns:xlink="http://www.w3.org/1999/xlink" x="0px" y="0px"
	 viewBox="0 0 512 512" style="enable-background:new 0 0 512 512;" xml:space="preserve">
<g>
	<g>
		<path d="M480,277.333H196.715c-4.587,0-8.661-2.923-10.112-7.296L174.997,235.2c-4.373-13.077-16.576-21.867-30.379-21.867H32
			c-17.643,0-32,14.357-32,32c0,29.333,4.288,58.475,12.715,86.592l42.624,142.059C62.144,496.725,82.667,512,106.411,512h301.333
			c22.101,0,42.176-13.909,49.941-34.603l46.144-123.029c5.44-14.443,8.171-29.589,8.171-45.035
			C512,291.691,497.643,277.333,480,277.333z"/>
	</g>
</g>
<g>
	<g>
		<path d="M416,0H224c-2.837,0-5.547,1.131-7.552,3.115l-128,128c-1.984,2.005-3.115,4.715-3.115,7.552v42.667
			C85.333,187.221,90.112,192,96,192h48.619c22.976,0,43.307,14.656,50.581,36.437l6.741,20.267
			c1.472,4.352,5.547,7.296,10.133,7.296H416c5.888,0,10.667-4.779,10.667-10.667V10.667C426.667,4.779,421.888,0,416,0z
			 M213.333,117.333c0,5.888-4.779,10.667-10.667,10.667h-80.917l91.584-91.584V117.333z"/>
	</g>
</g>
<g>
	<g>
		<path d="M50.027,175.979c-1.92,3.285-1.92,7.381-0.021,10.667c1.899,3.307,5.419,5.355,9.237,5.355H64v-31.253
			C58.539,164.949,53.611,169.835,50.027,175.979z"/>
	</g>
</g>
<g>
	<g>
		<path d="M96,149.333c-3.648,0-7.168,0.704-10.667,1.429V192H96c5.888,0,10.667-4.779,10.667-10.667V160
			C106.667,154.112,101.888,149.333,96,149.333z"/>
	</g>
</g>
<g>
	<g>
		<path d="M416,149.333c-5.888,0-10.667,4.779-10.667,10.667v85.333c0,5.888,4.779,10.667,10.667,10.667h10.667V150.421
			C423.211,149.717,419.648,149.333,416,149.333z"/>
	</g>
</g>
<g>
	<g>
		<path d="M448,160.277V256h10.667c5.888,0,10.667-4.779,10.667-10.667v-42.667C469.333,185.323,460.864,170.027,448,160.277z"/>
	</g>
</g>
<g>
</g>
<g>
</g>
<g>
</g>
<g>
</g>
<g>
</g>
<g>
</g>
<g>
</g>
<g>
</g>
<g>
</g>
<g>
</g>
<g>
</g>
<g>
</g>
<g>
</g>
<g>
</g>
<g>
</g>
</svg>
