<?xml version="1.0" encoding="iso-8859-1"?>
<!-- Generator: Adobe Illustrator 19.0.0, SVG Export Plug-In . SVG Version: 6.00 Build 0)  -->
<svg version="1.1" id="Capa_1" xmlns="http://www.w3.org/2000/svg" xmlns:xlink="http://www.w3.org/1999/xlink" x="0px" y="0px"
	 viewBox="0 0 512 512" style="enable-background:new 0 0 512 512;" xml:space="preserve">
<g>
	<g>
		<path d="M426.667,0H118.592c-5.888,0-10.667,4.779-10.667,10.667s4.757,10.667,10.667,10.667
			c32.171,0,60.651,20.523,70.827,51.029l1.877,5.696c1.451,4.373,5.525,7.317,10.133,7.317L448,85.333
			c5.675,0,11.584,0.853,18.645,2.688c0.896,0.235,1.792,0.341,2.688,0.341c2.325,0,4.629-0.768,6.528-2.219
			c2.603-2.027,4.139-5.141,4.139-8.448V53.333C480,23.915,456.064,0,426.667,0z"/>
	</g>
</g>
<g>
	<g>
		<path d="M448,106.667H201.408c-13.781,0-25.984-8.789-30.336-21.888l-1.899-5.653c-7.275-21.803-27.605-36.459-50.581-36.459H64
			c-29.397,0-53.333,23.915-53.333,53.333v256c0,29.397,23.936,53.333,53.333,53.333h58.581c0.064,0,0.149,0,0.213,0
			c5.781,0.341,10.88-4.693,10.88-10.667c0-4.373-2.645-8.149-6.421-9.771l-3.243-2.347c-11.243-8.171-15.915-22.571-11.627-35.776
			c4.309-13.227,16.533-22.123,30.443-22.123h63.595c4.629,0,8.725-2.987,10.155-7.381l19.648-60.48
			c4.309-13.248,16.533-22.123,30.443-22.123s26.133,8.896,30.443,22.101l19.648,60.48c1.429,4.395,5.525,7.381,10.155,7.381h63.595
			c13.909,0,26.133,8.896,30.443,22.101c4.288,13.227-0.384,27.605-11.627,35.776l-4.843,3.52
			c-3.733,2.709-5.312,7.531-3.883,11.925s5.525,7.381,10.155,7.381H448c29.397,0,53.333-23.936,53.333-53.333V160
			C501.333,130.581,477.397,106.667,448,106.667z"/>
	</g>
</g>
<g>
	<g>
		<path d="M400.64,353.344c-1.429-4.395-5.525-7.381-10.155-7.381h-86.848L276.8,263.36c-2.859-8.789-17.429-8.789-20.288,0
			l-26.837,82.603h-86.848c-4.629,0-8.725,2.987-10.155,7.381c-1.429,4.395,0.128,9.216,3.883,11.925l70.379,51.115l-25.131,81.792
			c-1.344,4.395,0.277,9.173,4.011,11.84c3.733,2.667,8.789,2.645,12.48-0.085l68.373-50.112l68.373,50.112
			c1.856,1.387,4.075,2.069,6.293,2.069c2.176,0,4.331-0.661,6.187-1.963c3.755-2.667,5.355-7.445,4.011-11.84L326.4,416.384
			l70.357-51.136C400.512,362.539,402.069,357.717,400.64,353.344z"/>
	</g>
</g>
<g>
</g>
<g>
</g>
<g>
</g>
<g>
</g>
<g>
</g>
<g>
</g>
<g>
</g>
<g>
</g>
<g>
</g>
<g>
</g>
<g>
</g>
<g>
</g>
<g>
</g>
<g>
</g>
<g>
</g>
</svg>
