<?xml version="1.0" encoding="iso-8859-1"?>
<!-- Generator: Adobe Illustrator 19.0.0, SVG Export Plug-In . SVG Version: 6.00 Build 0)  -->
<svg version="1.1" id="Capa_1" xmlns="http://www.w3.org/2000/svg" xmlns:xlink="http://www.w3.org/1999/xlink" x="0px" y="0px"
	 viewBox="0 0 512 512" style="enable-background:new 0 0 512 512;" xml:space="preserve">
<g>
	<g>
		<path d="M426.667,0H118.592c-5.888,0-10.667,4.779-10.667,10.667s4.757,10.667,10.667,10.667
			c32.192,0,60.651,20.523,70.827,51.008l1.877,5.696c1.429,4.373,5.525,7.339,10.133,7.339L448,85.333
			c5.675,0,11.584,0.853,18.645,2.688c0.896,0.235,1.792,0.341,2.688,0.341c2.325,0,4.651-0.768,6.528-2.219
			c2.624-2.027,4.139-5.141,4.139-8.448V53.333C480,23.936,456.085,0,426.667,0z"/>
	</g>
</g>
<g>
	<g>
		<path d="M448,106.667H201.408c-13.781,0-25.984-8.789-30.336-21.867l-1.877-5.675c-7.296-21.803-27.627-36.459-50.603-36.459H64
			c-29.419,0-53.333,23.936-53.333,53.333v256c0,29.397,23.915,53.333,53.333,53.333h42.667c5.888,0,10.667-4.779,10.667-10.667
			C117.333,318.208,179.541,256,256,256s138.667,62.208,138.667,138.667c0,5.888,4.779,10.667,10.667,10.667H448
			c29.419,0,53.333-23.936,53.333-53.333V160C501.333,130.603,477.419,106.667,448,106.667z"/>
	</g>
</g>
<g>
	<g>
		<path d="M256,277.333c-64.683,0-117.333,52.629-117.333,117.333S191.317,512,256,512s117.333-52.629,117.333-117.333
			S320.683,277.333,256,277.333z M263.659,466.133c-2.112,2.133-4.885,3.2-7.659,3.2c-2.773,0-5.547-1.067-7.488-3.2
			c-2.112-2.133-3.179-4.693-3.179-7.467s1.067-5.547,2.987-7.467c4.267-4.053,11.307-4.053,15.147,0c1.92,1.92,3.2,4.693,3.2,7.467
			C266.667,461.44,265.6,464,263.659,466.133z M266.667,416c0,5.888-4.779,10.667-10.667,10.667s-10.667-4.779-10.667-10.667
			v-85.333c0-5.888,4.779-10.667,10.667-10.667s10.667,4.779,10.667,10.667V416z"/>
	</g>
</g>
<g>
</g>
<g>
</g>
<g>
</g>
<g>
</g>
<g>
</g>
<g>
</g>
<g>
</g>
<g>
</g>
<g>
</g>
<g>
</g>
<g>
</g>
<g>
</g>
<g>
</g>
<g>
</g>
<g>
</g>
</svg>
