<?xml version="1.0" encoding="iso-8859-1"?>
<!-- Generator: Adobe Illustrator 19.0.0, SVG Export Plug-In . SVG Version: 6.00 Build 0)  -->
<svg version="1.1" id="Capa_1" xmlns="http://www.w3.org/2000/svg" xmlns:xlink="http://www.w3.org/1999/xlink" x="0px" y="0px"
	 viewBox="0 0 512 512" style="enable-background:new 0 0 512 512;" xml:space="preserve">
<g>
	<g>
		<path d="M245.333,0C216,0,186.859,4.288,158.251,12.864L38.016,55.317C15.275,62.144,0,82.667,0,106.411v301.333
			c0,22.101,13.909,42.176,33.941,49.685l102.357,46.4c14.443,5.44,29.589,8.171,45.035,8.171c17.643,0,32-14.357,32-32V196.715
			c0-4.587,2.923-8.661,7.296-10.112l34.837-11.605c13.077-4.373,21.867-16.576,21.867-30.379V32
			C277.333,14.357,262.976,0,245.333,0z"/>
	</g>
</g>
<g>
	<g>
		<circle cx="373.333" cy="266.667" r="32"/>
	</g>
</g>
<g>
	<g>
		<path d="M480,106.667H309.333c-5.888,0-10.667,4.779-10.667,10.667v27.285c0,22.976-14.656,43.307-36.437,50.581l-19.157,6.379
			c-3.584,1.195-6.272,4.203-7.061,7.893l-1.109,5.184c-0.149,0.747-0.235,1.472-0.235,2.24V416c0,5.888,4.779,10.667,10.667,10.667
			H480c17.643,0,32-14.357,32-32v-256C512,121.024,497.643,106.667,480,106.667z M448,320c-15.403,0-27.093-6.805-34.325-18.837
			C403.883,312.597,389.525,320,373.333,320C343.936,320,320,296.064,320,266.667s23.936-53.333,53.333-53.333
			s53.333,23.936,53.333,53.333c0,21.227,7.168,32,21.333,32c15.957,0,21.333-8.064,21.333-32c0-52.928-43.072-96-96-96
			c-52.928,0-96,43.072-96,96c0,52.928,43.072,96,96,96c25.045,0,48.768-9.579,66.752-27.008c4.245-4.075,10.987-3.989,15.083,0.256
			c4.096,4.224,3.989,10.987-0.256,15.083C432.939,372.288,403.968,384,373.333,384C308.629,384,256,331.371,256,266.667
			s52.629-117.333,117.333-117.333s117.333,52.629,117.333,117.333C490.667,279.851,490.667,320,448,320z"/>
	</g>
</g>
<g>
	<g>
		<path d="M355.307,69.312c-9.579-16.427-27.2-26.645-45.973-26.645c-5.888,0-10.667,4.779-10.667,10.667v21.333
			c0,5.888,4.779,10.667,10.667,10.667h36.757c3.819,0,7.339-2.048,9.259-5.355C357.227,76.672,357.227,72.597,355.307,69.312z"/>
	</g>
</g>
<g>
</g>
<g>
</g>
<g>
</g>
<g>
</g>
<g>
</g>
<g>
</g>
<g>
</g>
<g>
</g>
<g>
</g>
<g>
</g>
<g>
</g>
<g>
</g>
<g>
</g>
<g>
</g>
<g>
</g>
</svg>
