<?xml version="1.0" encoding="iso-8859-1"?>
<!-- Generator: Adobe Illustrator 19.0.0, SVG Export Plug-In . SVG Version: 6.00 Build 0)  -->
<svg version="1.1" id="Capa_1" xmlns="http://www.w3.org/2000/svg" xmlns:xlink="http://www.w3.org/1999/xlink" x="0px" y="0px"
	 viewBox="0 0 512 512" style="enable-background:new 0 0 512 512;" xml:space="preserve">
<g>
	<g>
		<path d="M245.333,0C216,0,186.859,4.288,158.251,12.864L38.016,55.317C15.275,62.144,0,82.667,0,106.411v301.333
			c0,22.101,13.909,42.176,33.941,49.685l102.357,46.4c14.443,5.44,29.589,8.171,45.035,8.171c17.643,0,32-14.357,32-32V196.715
			c0-4.587,2.923-8.661,7.296-10.112l34.837-11.605c13.077-4.373,21.867-16.576,21.867-30.379V32
			C277.333,14.357,262.976,0,245.333,0z"/>
	</g>
</g>
<g>
	<g>
		<path d="M505.941,193.045c-0.512-0.256-10.816-5.824-14.165-22.379H330.667c-5.888,0-10.667-4.779-10.667-10.667
			s4.779-10.667,10.667-10.667h161.109c3.328-16.533,13.611-22.101,13.995-22.293c4.544-2.091,7.04-7.083,5.973-11.968
			c-1.067-4.907-5.397-8.405-10.411-8.405h-192c-5.888,0-10.667,4.779-10.667,10.667v27.285c0,20.629-11.627,39.019-30.336,47.979
			c-4.245,2.027-6.379,6.635-5.675,11.264c0.704,4.651,4.629,8.32,9.28,9.003c1.771,0.256,3.541,0.469,5.397,0.469h224
			c4.949,0,9.152-3.435,10.283-8.256C512.768,200.277,510.357,195.264,505.941,193.045z"/>
	</g>
</g>
<g>
	<g>
		<path d="M355.307,69.312c-9.579-16.427-27.2-26.645-45.973-26.645c-5.888,0-10.667,4.779-10.667,10.667v21.333
			c0,5.888,4.779,10.667,10.667,10.667h36.757c3.819,0,7.339-2.048,9.259-5.355C357.227,76.672,357.227,72.597,355.307,69.312z"/>
	</g>
</g>
<g>
	<g>
		<path d="M317.995,239.083c-2.005-2.773-5.227-4.416-8.661-4.416h-32c-2.901,0-5.675-0.299-8.491-0.704
			c-5.867-0.853-11.413-3.541-16.491-7.957c-3.157-2.752-7.616-3.392-11.435-1.664c-3.797,1.728-6.251,5.504-6.251,9.707v203.285
			c0,5.227,3.797,9.685,8.96,10.539c0.576,0.085,1.152,0.128,1.707,0.128c4.523,0,8.64-2.88,10.112-7.296l64-192
			C320.533,245.461,319.979,241.877,317.995,239.083z"/>
	</g>
</g>
<g>
	<g>
		<path d="M501.333,234.667h-224c-9.237,0-18.453-2.176-27.392-6.443c-3.285-1.579-7.189-1.344-10.283,0.597
			c-3.115,1.941-4.992,5.355-4.992,9.024v199.488c0,29.397,23.936,53.333,53.333,53.333h213.333c5.888,0,10.667-4.779,10.667-10.667
			V245.333C512,239.445,507.221,234.667,501.333,234.667z"/>
	</g>
</g>
<g>
</g>
<g>
</g>
<g>
</g>
<g>
</g>
<g>
</g>
<g>
</g>
<g>
</g>
<g>
</g>
<g>
</g>
<g>
</g>
<g>
</g>
<g>
</g>
<g>
</g>
<g>
</g>
<g>
</g>
</svg>
