<?xml version="1.0" encoding="iso-8859-1"?>
<!-- Generator: Adobe Illustrator 19.0.0, SVG Export Plug-In . SVG Version: 6.00 Build 0)  -->
<svg version="1.1" id="Capa_1" xmlns="http://www.w3.org/2000/svg" xmlns:xlink="http://www.w3.org/1999/xlink" x="0px" y="0px"
	 viewBox="0 0 512.005 512.005" style="enable-background:new 0 0 512.005 512.005;" xml:space="preserve">
<g>
	<g>
		<path d="M266.667,0.002c-29.333,0-58.475,4.288-86.613,12.715L38.016,55.32C15.275,62.146,0,82.669,0,106.413v301.333
			c0,22.101,13.909,42.176,34.603,49.941l123.029,46.144c14.443,5.44,29.589,8.171,45.035,8.171c17.643,0,32-14.357,32-32V196.717
			c0-4.587,2.944-8.661,7.296-10.112L276.8,175c13.077-4.373,21.867-16.576,21.867-30.379V32.002
			C298.667,14.36,284.309,0.002,266.667,0.002z"/>
	</g>
</g>
<g>
	<g>
		<path d="M511.936,158.765c-0.405-3.584-2.603-6.699-5.845-8.299L420.757,107.8c-3.413-1.707-7.509-1.451-10.688,0.661l-64,42.667
			c-3.008,2.005-4.779,5.397-4.736,9.024c0.064,3.627,1.941,6.976,5.013,8.896l85.333,53.333c1.728,1.088,3.691,1.621,5.653,1.621
			c2.432,0,4.864-0.832,6.827-2.475l64-53.333C510.933,165.89,512.341,162.349,511.936,158.765z"/>
	</g>
</g>
<g>
	<g>
		<path d="M508.16,258.477l-64-53.333c-3.563-2.944-8.597-3.285-12.48-0.853l-85.333,53.333c-2.923,1.813-4.779,4.907-4.992,8.32
			c-0.235,3.413,1.195,6.72,3.819,8.917l64,53.333c1.984,1.643,4.395,2.475,6.827,2.475c1.963,0,3.925-0.533,5.653-1.621
			l85.333-53.333c2.923-1.813,4.779-4.907,4.992-8.32C512.192,263.981,510.784,260.674,508.16,258.477z"/>
	</g>
</g>
<g>
	<g>
		<path d="M432.96,347.138c-5.12,3.179-10.965,4.864-16.96,4.864c-7.488,0-14.741-2.645-20.501-7.424L352,308.333l-43.499,36.245
			c-5.76,4.779-13.013,7.424-20.501,7.424c-6.315,0-12.459-1.856-17.728-5.355L256,337.133v14.869c0,4.032,2.283,7.723,5.888,9.536
			l85.333,42.667c1.493,0.747,3.136,1.131,4.779,1.131c1.643,0,3.264-0.384,4.779-1.131l85.333-42.667
			c3.584-1.813,5.888-5.504,5.888-9.536V337.73L432.96,347.138z"/>
	</g>
</g>
<g>
	<g>
		<path d="M437.333,256.002h-55.189c0.896,2.496,1.493,5.12,1.728,7.829c0.939,10.453-3.307,20.715-11.371,27.435l-3.84,3.2
			l40.491,33.749c3.477,2.901,8.683,3.264,12.501,0.853L448,312.578v-45.909C448,260.781,443.221,256.002,437.333,256.002z"/>
	</g>
</g>
<g>
	<g>
		<path d="M336.043,50.029c-3.307-1.92-7.381-1.92-10.688-0.021c-3.307,1.899-5.355,5.44-5.355,9.237v43.819
			c0,5.867,4.757,10.645,10.645,10.667c5.291,0,10.816,1.621,15.957,4.629c1.664,0.96,3.541,1.451,5.397,1.451
			c1.835,0,3.669-0.469,5.312-1.408c3.307-1.899,5.355-5.419,5.355-9.237V96.002C362.667,77.208,352.448,59.586,336.043,50.029z"/>
	</g>
</g>
<g>
	<g>
		<path d="M357.909,151.128l-21.419-14.272c-3.264-2.176-7.403-2.368-10.88-0.576c-3.456,1.813-5.653,5.355-5.717,9.28
			c-0.171,9.92-3.157,19.627-8.661,28.075c-2.731,4.181-2.197,9.685,1.301,13.248c2.069,2.133,4.843,3.243,7.637,3.243
			c1.92,0,3.84-0.512,5.568-1.557l31.808-19.435c3.115-1.92,5.035-5.269,5.12-8.917
			C362.731,156.568,360.939,153.154,357.909,151.128z"/>
	</g>
</g>
<g>
	<g>
		<path d="M362.624,265.73c-0.299-3.499-2.304-6.613-5.355-8.341l-85.333-48.491c-3.264-1.877-7.381-1.856-10.624,0.043
			c-3.285,1.92-5.312,5.419-5.312,9.237v87.616c0,3.563,1.792,6.891,4.757,8.875l21.333,14.229c1.792,1.195,3.861,1.792,5.909,1.792
			c2.432,0,4.864-0.832,6.827-2.475l64-53.333C361.515,272.642,362.923,269.229,362.624,265.73z"/>
	</g>
</g>
<g>
	<g>
		<path d="M355.989,431.896c-1.6-3.157-4.651-5.333-8.171-5.781c-4.139-0.533-7.36-1.429-10.133-2.816l-66.24-33.131
			c-3.307-1.664-7.253-1.493-10.368,0.469c-3.157,1.941-5.077,5.376-5.077,9.067v58.965c0,5.888,4.779,10.667,10.667,10.667h42.667
			c19.136,0,36.928-10.517,46.421-27.435C357.483,438.808,357.568,435.074,355.989,431.896z"/>
	</g>
</g>
<g>
</g>
<g>
</g>
<g>
</g>
<g>
</g>
<g>
</g>
<g>
</g>
<g>
</g>
<g>
</g>
<g>
</g>
<g>
</g>
<g>
</g>
<g>
</g>
<g>
</g>
<g>
</g>
<g>
</g>
</svg>
