<?xml version="1.0" encoding="iso-8859-1"?>
<!-- Generator: Adobe Illustrator 19.0.0, SVG Export Plug-In . SVG Version: 6.00 Build 0)  -->
<svg version="1.1" id="Capa_1" xmlns="http://www.w3.org/2000/svg" xmlns:xlink="http://www.w3.org/1999/xlink" x="0px" y="0px"
	 viewBox="0 0 512.427 512.427" style="enable-background:new 0 0 512.427 512.427;" xml:space="preserve">
<g>
	<g>
		<path d="M266.667,0.213c-29.333,0-58.475,4.288-86.613,12.715L38.016,55.531C15.275,62.357,0,82.88,0,106.624v301.333
			c0,22.101,13.909,42.176,34.603,49.941l123.029,46.144c14.443,5.44,29.589,8.171,45.035,8.171c17.643,0,32-14.357,32-32V196.928
			c0-4.587,2.944-8.661,7.296-10.112l34.837-11.605c13.077-4.373,21.867-16.576,21.867-30.379V32.213
			C298.667,14.571,284.309,0.213,266.667,0.213z"/>
	</g>
</g>
<g>
	<g>
		<path d="M336.043,50.24c-3.307-1.92-7.381-1.92-10.688-0.021c-3.307,1.899-5.355,5.44-5.355,9.237v58.091
			c0,5.888,4.779,10.667,10.667,10.667c5.611,0,11.115,1.493,16,4.288c1.643,0.96,3.477,1.429,5.333,1.429
			c1.835,0,3.691-0.469,5.333-1.429c3.285-1.899,5.333-5.419,5.333-9.216V96.213C362.667,77.419,352.448,59.797,336.043,50.24z"/>
	</g>
</g>
<g>
	<g>
		<path d="M352,405.547h-10.667c-5.525,0-11.072-1.515-16-4.395c-3.307-1.899-7.381-1.899-10.688,0
			c-4.864,2.816-10.24,4.331-15.979,4.395c-9.024,0-17.749-4.096-23.936-11.221c-2.944-3.349-7.637-4.523-11.797-3.008
			c-4.16,1.557-6.933,5.547-6.933,10.005v57.557c0,5.888,4.779,10.667,10.667,10.667h42.667c29.419,0,53.333-23.936,53.333-53.333
			C362.667,410.325,357.888,405.547,352,405.547z"/>
	</g>
</g>
<g>
	<g>
		<path d="M510.421,303.957c-1.963-3.157-5.397-5.077-9.088-5.077h-128c-4.032,0-7.723,2.283-9.536,5.888l-32,64
			c-1.643,3.307-1.472,7.232,0.448,10.368c1.963,3.157,5.397,5.077,9.088,5.077h128c4.032,0,7.723-2.283,9.536-5.888l32-64
			C512.512,311.019,512.341,307.093,510.421,303.957z"/>
	</g>
</g>
<g>
	<g>
		<path d="M509.184,259.2l-62.677-104.469c-1.941-3.221-5.419-5.184-9.173-5.184h-64c-3.84,0-7.403,2.069-9.301,5.397
			c-1.877,3.349-1.835,7.445,0.149,10.752l64,106.667c1.92,3.221,5.397,5.184,9.152,5.184h64c0.171,0,0.341,0.021,0.427,0
			c5.888,0,10.667-4.779,10.667-10.667C512.427,263.872,511.168,261.141,509.184,259.2z"/>
	</g>
</g>
<g>
	<g>
		<path d="M382.613,229.589l-42.667-74.667c-1.941-3.371-6.208-5.696-9.408-5.376c-3.883,0.043-7.424,2.197-9.28,5.611
			l-5.952,11.136c-1.152,2.624-2.496,5.141-4.48,8.256l-53.568,99.456c-0.811,1.557-1.259,3.307-1.259,5.056v38.485
			c0,1.856,0.469,3.669,1.387,5.291l32,56c1.92,3.328,5.44,5.376,9.28,5.376c0.043,0,0.085,0,0.128,0
			c3.883-0.043,7.445-2.197,9.28-5.611l74.667-138.667C384.469,236.693,384.427,232.789,382.613,229.589z"/>
	</g>
</g>
<g>
</g>
<g>
</g>
<g>
</g>
<g>
</g>
<g>
</g>
<g>
</g>
<g>
</g>
<g>
</g>
<g>
</g>
<g>
</g>
<g>
</g>
<g>
</g>
<g>
</g>
<g>
</g>
<g>
</g>
</svg>
