<?xml version="1.0" encoding="iso-8859-1"?>
<!-- Generator: Adobe Illustrator 19.0.0, SVG Export Plug-In . SVG Version: 6.00 Build 0)  -->
<svg version="1.1" id="Capa_1" xmlns="http://www.w3.org/2000/svg" xmlns:xlink="http://www.w3.org/1999/xlink" x="0px" y="0px"
	 viewBox="0 0 512 512" style="enable-background:new 0 0 512 512;" xml:space="preserve">
<g>
	<g>
		<path d="M508.885,173.781l-128-128c-2.005-1.984-4.715-3.115-7.552-3.115h-42.667c-5.888,0-10.667,4.779-10.667,10.667v91.285
			c0,22.976-14.656,43.307-36.437,50.581l-20.267,6.741c-4.352,1.472-7.296,5.547-7.296,10.133v246.592
			c0,5.888,4.779,10.667,10.667,10.667h234.667c5.888,0,10.667-4.779,10.667-10.667V181.333
			C512,178.496,510.869,175.787,508.885,173.781z M458.667,405.333H288c-5.888,0-10.667-4.779-10.667-10.667S282.112,384,288,384
			h170.667c5.888,0,10.667,4.779,10.667,10.667S464.555,405.333,458.667,405.333z M458.667,341.333H288
			c-5.888,0-10.667-4.779-10.667-10.667S282.112,320,288,320h170.667c5.888,0,10.667,4.779,10.667,10.667
			S464.555,341.333,458.667,341.333z M458.667,277.333H288c-5.888,0-10.667-4.779-10.667-10.667S282.112,256,288,256h170.667
			c5.888,0,10.667,4.779,10.667,10.667S464.555,277.333,458.667,277.333z M394.667,170.667c-5.888,0-10.667-4.779-10.667-10.667
			V79.083l91.584,91.584H394.667z"/>
	</g>
</g>
<g>
	<g>
		<path d="M266.667,0c-29.333,0-58.475,4.288-86.592,12.715L38.016,55.317C15.275,62.144,0,82.667,0,106.411v301.333
			c0,22.101,13.909,42.176,34.603,49.941l123.029,46.144c14.443,5.44,29.589,8.171,45.035,8.171c17.643,0,32-14.357,32-32V196.715
			c0-4.587,2.923-8.661,7.296-10.112l34.837-11.605c13.077-4.373,21.867-16.576,21.867-30.379V32
			C298.667,14.357,284.309,0,266.667,0z"/>
	</g>
</g>
<g>
</g>
<g>
</g>
<g>
</g>
<g>
</g>
<g>
</g>
<g>
</g>
<g>
</g>
<g>
</g>
<g>
</g>
<g>
</g>
<g>
</g>
<g>
</g>
<g>
</g>
<g>
</g>
<g>
</g>
</svg>
