<?xml version="1.0" encoding="iso-8859-1"?>
<!-- Generator: Adobe Illustrator 19.0.0, SVG Export Plug-In . SVG Version: 6.00 Build 0)  -->
<svg version="1.1" id="Capa_1" xmlns="http://www.w3.org/2000/svg" xmlns:xlink="http://www.w3.org/1999/xlink" x="0px" y="0px"
	 viewBox="0 0 512 512" style="enable-background:new 0 0 512 512;" xml:space="preserve">
<g>
	<g>
		<path d="M266.667,0c-29.333,0-58.475,4.288-86.592,12.715L38.016,55.317C15.275,62.144,0,82.667,0,106.411v301.333
			c0,22.101,13.909,42.176,34.603,49.941l123.029,46.144c14.443,5.44,29.589,8.171,45.035,8.171c17.643,0,32-14.357,32-32V196.715
			c0-4.587,2.923-8.661,7.296-10.112l34.837-11.605c13.077-4.373,21.867-16.576,21.867-30.379V32
			C298.667,14.357,284.309,0,266.667,0z"/>
	</g>
</g>
<g>
	<g>
		<path d="M336.021,50.027c-3.285-1.92-7.36-1.92-10.667-0.021c-3.307,1.899-5.355,5.419-5.355,9.237V96
			c0,5.888,4.779,10.667,10.667,10.667H352c5.888,0,10.667-4.779,10.667-10.667C362.667,77.227,352.448,59.605,336.021,50.027z"/>
	</g>
</g>
<g>
	<g>
		<path d="M355.328,432.021c-1.899-3.307-5.419-5.355-9.237-5.355h-79.424c-5.888,0-10.667,4.779-10.667,10.667v21.333
			c0,5.888,4.779,10.667,10.667,10.667h42.667c18.773,0,36.395-10.219,45.973-26.645
			C357.227,439.403,357.227,435.307,355.328,432.021z"/>
	</g>
</g>
<g>
	<g>
		<path d="M373.333,277.333c-37.547,0-68.715,27.861-73.899,64h147.819C442.048,305.195,410.88,277.333,373.333,277.333z"/>
	</g>
</g>
<g>
	<g>
		<circle cx="373.333" cy="224" r="32"/>
	</g>
</g>
<g>
	<g>
		<path d="M480,128H330.667c-5.888,0-10.667,4.779-10.667,10.667v5.952c0,22.976-14.656,43.307-36.437,50.581l-17.003,5.675
			c-3.456,1.152-6.101,3.989-6.976,7.531l-3.243,12.992C256.107,222.251,256,223.125,256,224v170.667
			c0,5.888,4.779,10.667,10.667,10.667H480c17.643,0,32-14.357,32-32V160C512,142.357,497.643,128,480,128z M458.667,362.667H288
			c-5.888,0-10.667-4.779-10.667-10.667c0-40.213,24.896-74.603,60.053-88.875C326.763,253.376,320,239.509,320,224
			c0-29.397,23.936-53.333,53.333-53.333s53.333,23.936,53.333,53.333c0,15.509-6.763,29.376-17.387,39.125
			c35.157,14.272,60.053,48.661,60.053,88.875C469.333,357.888,464.555,362.667,458.667,362.667z"/>
	</g>
</g>
<g>
</g>
<g>
</g>
<g>
</g>
<g>
</g>
<g>
</g>
<g>
</g>
<g>
</g>
<g>
</g>
<g>
</g>
<g>
</g>
<g>
</g>
<g>
</g>
<g>
</g>
<g>
</g>
<g>
</g>
</svg>
