<?xml version="1.0" encoding="iso-8859-1"?>
<!-- Generator: Adobe Illustrator 19.0.0, SVG Export Plug-In . SVG Version: 6.00 Build 0)  -->
<svg version="1.1" id="Capa_1" xmlns="http://www.w3.org/2000/svg" xmlns:xlink="http://www.w3.org/1999/xlink" x="0px" y="0px"
	 viewBox="0 0 512 512" style="enable-background:new 0 0 512 512;" xml:space="preserve">
<g>
	<g>
		<path d="M266.667,0c-29.333,0-58.475,4.288-86.592,12.715L38.016,55.317C15.275,62.144,0,82.667,0,106.411v301.333
			c0,22.101,13.909,42.176,34.603,49.941l123.029,46.144c14.443,5.44,29.589,8.171,45.035,8.171c17.643,0,32-14.357,32-32V196.715
			c0-4.587,2.923-8.661,7.296-10.112l34.837-11.605c13.077-4.373,21.867-16.576,21.867-30.379V32
			C298.667,14.357,284.309,0,266.667,0z"/>
	</g>
</g>
<g>
	<g>
		<path d="M336.021,50.027c-3.285-1.92-7.36-1.92-10.667-0.021c-3.307,1.899-5.355,5.419-5.355,9.237v81.216
			c0,3.136,1.387,6.123,3.776,8.149c1.941,1.643,4.395,2.517,6.891,2.517c0.576,0,1.173-0.043,1.771-0.149
			c6.528-1.088,13.099-1.643,19.563-1.643c5.888,0,10.667-4.779,10.667-10.667V96C362.667,77.227,352.448,59.605,336.021,50.027z"/>
	</g>
</g>
<g>
	<g>
		<path d="M352,384h-85.333c-5.888,0-10.667,4.779-10.667,10.667v64c0,5.888,4.779,10.667,10.667,10.667h42.667
			c29.397,0,53.333-23.936,53.333-53.333v-21.333C362.667,388.779,357.888,384,352,384z"/>
	</g>
</g>
<g>
	<g>
		<path d="M437.333,213.333c-1.941,0-3.883,0.107-5.781,0.277c-27.904-41.877-86.869-56.192-132.075-27.072
			c-1.067,0.853-2.219,1.6-3.755,2.624C270.848,207.253,256,236.224,256,266.667V352c0,5.888,4.779,10.667,10.667,10.667h170.667
			C478.507,362.667,512,329.173,512,288S478.507,213.333,437.333,213.333z"/>
	</g>
</g>
<g>
</g>
<g>
</g>
<g>
</g>
<g>
</g>
<g>
</g>
<g>
</g>
<g>
</g>
<g>
</g>
<g>
</g>
<g>
</g>
<g>
</g>
<g>
</g>
<g>
</g>
<g>
</g>
<g>
</g>
</svg>
