<?xml version="1.0" encoding="iso-8859-1"?>
<!-- Generator: Adobe Illustrator 19.0.0, SVG Export Plug-In . SVG Version: 6.00 Build 0)  -->
<svg version="1.1" id="Capa_1" xmlns="http://www.w3.org/2000/svg" xmlns:xlink="http://www.w3.org/1999/xlink" x="0px" y="0px"
	 viewBox="0 0 512 512" style="enable-background:new 0 0 512 512;" xml:space="preserve">
<g>
	<g>
		<path d="M480,202.667H196.715c-4.587,0-8.661-2.923-10.112-7.296l-11.627-34.837c-4.352-13.077-16.555-21.867-30.357-21.867H32
			c-17.643,0-32,14.357-32,32C0,200,4.288,229.141,12.715,257.259l42.624,142.059c6.827,22.741,27.349,38.016,51.093,38.016h301.333
			c22.101,0,42.176-13.909,49.941-34.603l46.144-123.029c5.419-14.443,8.149-29.589,8.149-45.035
			C512,217.024,497.643,202.667,480,202.667z"/>
	</g>
</g>
<g>
	<g>
		<path d="M416,74.667H96c-18.773,0-36.395,10.219-45.973,26.645c-1.92,3.285-1.92,7.381-0.021,10.667
			c1.899,3.307,5.419,5.355,9.237,5.355h85.376c22.976,0,43.307,14.656,50.581,36.437l6.741,20.267
			c1.472,4.352,5.547,7.296,10.133,7.296h246.592c5.888,0,10.667-4.779,10.667-10.667V128C469.333,98.603,445.397,74.667,416,74.667
			z"/>
	</g>
</g>
<g>
</g>
<g>
</g>
<g>
</g>
<g>
</g>
<g>
</g>
<g>
</g>
<g>
</g>
<g>
</g>
<g>
</g>
<g>
</g>
<g>
</g>
<g>
</g>
<g>
</g>
<g>
</g>
<g>
</g>
</svg>
