<svg height="512pt" viewBox="0 0 512 512" width="512pt" xmlns="http://www.w3.org/2000/svg"><path d="m448 512h-384c-35.285156 0-64-28.714844-64-64v-384c0-35.285156 28.714844-64 64-64h384c35.285156 0 64 28.714844 64 64v384c0 35.285156-28.714844 64-64 64zm-384-469.332031c-11.777344 0-21.332031 9.578125-21.332031 21.332031v384c0 11.753906 9.554687 21.332031 21.332031 21.332031h384c11.777344 0 21.332031-9.578125 21.332031-21.332031v-384c0-11.753906-9.554687-21.332031-21.332031-21.332031zm0 0" fill="#607d8b"/><path d="m389.332031 277.332031h-266.664062c-20.589844 0-37.335938 16.746094-37.335938 37.335938v74.664062c0 20.589844 16.746094 37.335938 37.335938 37.335938h266.664062c20.589844 0 37.335938-16.746094 37.335938-37.335938v-74.664062c0-20.589844-16.746094-37.335938-37.335938-37.335938zm0 0" fill="#2196f3"/></svg>