<svg height="512pt" viewBox="0 0 512 512" width="512pt" xmlns="http://www.w3.org/2000/svg"><path d="m154.667969 0h-96c-32.363281 0-58.667969 26.304688-58.667969 58.667969v394.664062c0 32.363281 26.304688 58.667969 58.667969 58.667969h96c32.363281 0 58.664062-26.304688 58.664062-58.667969v-394.664062c0-32.363281-26.300781-58.667969-58.664062-58.667969zm0 0" fill="#607d8b"/><path d="m506.902344 244.265625-74.667969-69.332031c-4.671875-4.332032-11.457031-5.441406-17.300781-2.945313-5.824219 2.539063-9.601563 8.300781-9.601563 14.679688v48h-106.664062c-11.796875 0-21.335938 9.554687-21.335938 21.332031s9.539063 21.332031 21.335938 21.332031h106.664062v48c0 6.359375 3.777344 12.117188 9.601563 14.679688 2.070312.875 4.222656 1.320312 6.398437 1.320312 3.96875 0 7.875-1.46875 10.902344-4.265625l74.667969-69.332031c3.242187-3.050781 5.097656-7.296875 5.097656-11.734375s-1.855469-8.703125-5.097656-11.734375zm0 0" fill="#42a5f5"/></svg>