<svg height="512pt" viewBox="-21 0 512 512" width="512pt" xmlns="http://www.w3.org/2000/svg"><g fill="#607d8b"><path d="m42.667969 213.332031h-21.335938c-11.773437 0-21.332031-9.554687-21.332031-21.332031s9.558594-21.332031 21.332031-21.332031h21.335938c11.773437 0 21.332031 9.554687 21.332031 21.332031s-9.558594 21.332031-21.332031 21.332031zm0 0"/><path d="m42.667969 341.332031h-21.335938c-11.773437 0-21.332031-9.554687-21.332031-21.332031s9.558594-21.332031 21.332031-21.332031h21.335938c11.773437 0 21.332031 9.554687 21.332031 21.332031s-9.558594 21.332031-21.332031 21.332031zm0 0"/><path d="m448 213.332031h-21.332031c-11.777344 0-21.335938-9.554687-21.335938-21.332031s9.558594-21.332031 21.335938-21.332031h21.332031c11.777344 0 21.332031 9.554687 21.332031 21.332031s-9.554687 21.332031-21.332031 21.332031zm0 0"/><path d="m448 341.332031h-21.332031c-11.777344 0-21.335938-9.554687-21.335938-21.332031s9.558594-21.332031 21.335938-21.332031h21.332031c11.777344 0 21.332031 9.554687 21.332031 21.332031s-9.554687 21.332031-21.332031 21.332031zm0 0"/><path d="m448 128h-426.667969c-11.773437 0-21.332031-9.558594-21.332031-21.332031 0-11.777344 9.558594-21.335938 21.332031-21.335938h426.667969c11.777344 0 21.332031 9.558594 21.332031 21.335938 0 11.773437-9.554687 21.332031-21.332031 21.332031zm0 0"/><path d="m448 42.667969h-426.667969c-11.773437 0-21.332031-9.558594-21.332031-21.335938 0-11.773437 9.558594-21.332031 21.332031-21.332031h426.667969c11.777344 0 21.332031 9.558594 21.332031 21.332031 0 11.777344-9.554687 21.335938-21.332031 21.335938zm0 0"/><path d="m448 426.667969h-426.667969c-11.773437 0-21.332031-9.558594-21.332031-21.335938 0-11.773437 9.558594-21.332031 21.332031-21.332031h426.667969c11.777344 0 21.332031 9.558594 21.332031 21.332031 0 11.777344-9.554687 21.335938-21.332031 21.335938zm0 0"/><path d="m448 512h-426.667969c-11.773437 0-21.332031-9.558594-21.332031-21.332031 0-11.777344 9.558594-21.335938 21.332031-21.335938h426.667969c11.777344 0 21.332031 9.558594 21.332031 21.335938 0 11.773437-9.554687 21.332031-21.332031 21.332031zm0 0"/></g><path d="m330.667969 149.332031h-192c-17.644531 0-32 14.359375-32 32v149.335938c0 17.640625 14.355469 32 32 32h192c17.640625 0 32-14.359375 32-32v-149.335938c0-17.640625-14.359375-32-32-32zm-10.667969 42.667969v86.078125l-30.316406-27.261719c-8.574219-7.679687-21.738282-7.230468-29.695313 1.128906l-34.664062 36.3125-16.789063-15.789062c-8.535156-8.019531-21.976562-7.65625-30.058594.832031l-29.144531 30.570313v-111.871094zm0 0" fill="#2196f3"/></svg>