<svg height="512pt" viewBox="0 -21 512 512" width="512pt" xmlns="http://www.w3.org/2000/svg"><g fill="#607d8b"><path d="m320 362.667969h-298.667969c-11.796875 0-21.332031-9.558594-21.332031-21.335938 0-11.773437 9.535156-21.332031 21.332031-21.332031h298.667969c11.796875 0 21.332031 9.558594 21.332031 21.332031 0 11.777344-9.535156 21.335938-21.332031 21.335938zm0 0"/><path d="m320 469.332031h-298.667969c-11.796875 0-21.332031-9.554687-21.332031-21.332031s9.535156-21.332031 21.332031-21.332031h298.667969c11.796875 0 21.332031 9.554687 21.332031 21.332031s-9.535156 21.332031-21.332031 21.332031zm0 0"/><path d="m320 149.332031h-298.667969c-11.796875 0-21.332031-9.554687-21.332031-21.332031s9.535156-21.332031 21.332031-21.332031h298.667969c11.796875 0 21.332031 9.554687 21.332031 21.332031s-9.535156 21.332031-21.332031 21.332031zm0 0"/><path d="m320 42.667969h-298.667969c-11.796875 0-21.332031-9.558594-21.332031-21.335938 0-11.773437 9.535156-21.332031 21.332031-21.332031h298.667969c11.796875 0 21.332031 9.558594 21.332031 21.332031 0 11.777344-9.535156 21.335938-21.332031 21.335938zm0 0"/></g><path d="m506.902344 222.933594-74.667969-69.332032c-3.027344-2.796874-6.933594-4.269531-10.902344-4.269531-2.175781 0-4.328125.449219-6.398437 1.324219-5.824219 2.558594-9.601563 8.320312-9.601563 14.675781v48h-384c-11.796875 0-21.332031 9.558594-21.332031 21.335938 0 11.773437 9.535156 21.332031 21.332031 21.332031h384v48c0 6.355469 3.777344 12.117188 9.601563 14.675781 5.824218 2.519531 12.628906 1.386719 17.300781-2.941406l74.667969-69.335937c3.242187-3.027344 5.097656-7.273438 5.097656-11.730469 0-4.460938-1.855469-8.683594-5.097656-11.734375zm0 0" fill="#42a5f5"/></svg>