<svg height="512pt" viewBox="0 -75 512 512" width="512pt" xmlns="http://www.w3.org/2000/svg"><g fill="#607d8b"><path d="m192 362.667969h-170.667969c-11.796875 0-21.332031-9.558594-21.332031-21.335938 0-11.773437 9.535156-21.332031 21.332031-21.332031h170.667969c11.796875 0 21.332031 9.558594 21.332031 21.332031 0 11.777344-9.535156 21.335938-21.332031 21.335938zm0 0"/><path d="m192 106.667969h-170.667969c-11.796875 0-21.332031-9.558594-21.332031-21.335938 0-11.773437 9.535156-21.332031 21.332031-21.332031h170.667969c11.796875 0 21.332031 9.558594 21.332031 21.332031 0 11.777344-9.535156 21.335938-21.332031 21.335938zm0 0"/><path d="m192 234.667969h-170.667969c-11.796875 0-21.332031-9.558594-21.332031-21.335938 0-11.773437 9.535156-21.332031 21.332031-21.332031h170.667969c11.796875 0 21.332031 9.558594 21.332031 21.332031 0 11.777344-9.535156 21.335938-21.332031 21.335938zm0 0"/></g><path d="m362.667969 64v-48c0-6.355469-3.777344-12.117188-9.601563-14.675781-2.070312-.875-4.222656-1.324219-6.398437-1.324219-3.96875 0-7.875 1.472656-10.902344 4.265625l-74.667969 69.335937c-3.242187 3.027344-5.097656 7.292969-5.097656 11.730469s1.855469 8.707031 5.097656 11.734375l74.667969 69.332032c4.671875 4.332031 11.457031 5.441406 17.300781 2.945312 5.824219-2.558594 9.601563-8.320312 9.601563-14.675781v-48c58.816406 0 106.664062 47.847656 106.664062 106.664062 0 58.816407-47.847656 106.667969-106.664062 106.667969h-85.335938c-11.796875 0-21.332031 9.558594-21.332031 21.332031 0 11.777344 9.535156 21.335938 21.332031 21.335938h85.335938c82.324219 0 149.332031-66.988281 149.332031-149.335938 0-82.34375-67.007812-149.332031-149.332031-149.332031zm0 0" fill="#42a5f5"/></svg>