<svg height="490pt" viewBox="0 -10 490.66667 490" width="490pt" xmlns="http://www.w3.org/2000/svg"><g fill="#607d8b"><path d="m448 43h-426.667969c-11.773437 0-21.332031-9.558594-21.332031-21.332031 0-11.777344 9.558594-21.335938 21.332031-21.335938h426.667969c11.777344 0 21.332031 9.558594 21.332031 21.335938 0 11.773437-9.554687 21.332031-21.332031 21.332031zm0 0"/><path d="m234.667969 149.667969h-213.335938c-11.773437 0-21.332031-9.558594-21.332031-21.335938 0-11.773437 9.558594-21.332031 21.332031-21.332031h213.335938c11.773437 0 21.332031 9.558594 21.332031 21.332031 0 11.777344-9.558594 21.335938-21.332031 21.335938zm0 0"/><path d="m234.667969 256.332031h-213.335938c-11.773437 0-21.332031-9.554687-21.332031-21.332031s9.558594-21.332031 21.332031-21.332031h213.335938c11.773437 0 21.332031 9.554687 21.332031 21.332031s-9.558594 21.332031-21.332031 21.332031zm0 0"/><path d="m234.667969 363h-213.335938c-11.773437 0-21.332031-9.558594-21.332031-21.332031 0-11.777344 9.558594-21.335938 21.332031-21.335938h213.335938c11.773437 0 21.332031 9.558594 21.332031 21.335938 0 11.773437-9.558594 21.332031-21.332031 21.332031zm0 0"/><path d="m448 469.667969h-426.667969c-11.773437 0-21.332031-9.558594-21.332031-21.335938 0-11.773437 9.558594-21.332031 21.332031-21.332031h426.667969c11.777344 0 21.332031 9.558594 21.332031 21.332031 0 11.777344-9.554687 21.335938-21.332031 21.335938zm0 0"/></g><path d="m303.765625 223.265625 74.667969-69.332031c4.671875-4.332032 11.453125-5.441406 17.300781-2.945313 5.824219 2.539063 9.597656 8.300781 9.597656 14.679688v48h64c11.796875 0 21.335938 9.554687 21.335938 21.332031s-9.539063 21.332031-21.335938 21.332031h-64v48c0 6.359375-3.773437 12.117188-9.597656 14.679688-2.070313.875-4.226563 1.320312-6.402344 1.320312-3.964843 0-7.871093-1.46875-10.898437-4.265625l-74.667969-69.332031c-3.242187-3.050781-5.097656-7.296875-5.097656-11.734375s1.855469-8.703125 5.097656-11.734375zm0 0" fill="#2196f3"/></svg>