<svg height="469.33333pt" viewBox="0 0 469.33333 469.33333" width="469.33333pt" xmlns="http://www.w3.org/2000/svg"><g fill="#607d8b"><path d="m448 213.332031h-128c-11.777344 0-21.332031-9.554687-21.332031-21.332031s9.554687-21.332031 21.332031-21.332031h128c11.777344 0 21.332031 9.554687 21.332031 21.332031s-9.554687 21.332031-21.332031 21.332031zm0 0"/><path d="m448 298.667969h-426.667969c-11.773437 0-21.332031-9.558594-21.332031-21.335938 0-11.773437 9.558594-21.332031 21.332031-21.332031h426.667969c11.777344 0 21.332031 9.558594 21.332031 21.332031 0 11.777344-9.554687 21.335938-21.332031 21.335938zm0 0"/><path d="m448 384h-426.667969c-11.773437 0-21.332031-9.558594-21.332031-21.332031 0-11.777344 9.558594-21.335938 21.332031-21.335938h426.667969c11.777344 0 21.332031 9.558594 21.332031 21.335938 0 11.773437-9.554687 21.332031-21.332031 21.332031zm0 0"/><path d="m448 469.332031h-426.667969c-11.773437 0-21.332031-9.554687-21.332031-21.332031s9.558594-21.332031 21.332031-21.332031h426.667969c11.777344 0 21.332031 9.554687 21.332031 21.332031s-9.554687 21.332031-21.332031 21.332031zm0 0"/></g><path d="m224 0h-192c-17.644531 0-32 14.355469-32 32v149.332031c0 17.644531 14.355469 32 32 32h192c17.644531 0 32-14.355469 32-32v-149.332031c0-17.644531-14.355469-32-32-32zm-10.667969 42.667969v86.078125l-30.3125-27.285156c-8.578125-7.679688-21.71875-7.230469-29.695312 1.152343l-34.667969 36.308594-16.789062-15.785156c-8.535157-8.023438-21.972657-7.660157-30.058594.832031l-29.140625 30.570312v-111.871093zm0 0" fill="#2196f3"/></svg>