<svg height="512pt" viewBox="0 -21 512 511" width="512pt" xmlns="http://www.w3.org/2000/svg"><g fill="#607d8b"><path d="m405.332031 256.488281h-149.332031c-11.777344 0-21.332031-9.554687-21.332031-21.332031s9.554687-21.332031 21.332031-21.332031h149.332031c11.777344 0 21.335938 9.554687 21.335938 21.332031s-9.558594 21.332031-21.335938 21.332031zm0 0"/><path d="m490.667969 363.15625h-234.667969c-11.777344 0-21.332031-9.558594-21.332031-21.332031 0-11.777344 9.554687-21.335938 21.332031-21.335938h234.667969c11.773437 0 21.332031 9.558594 21.332031 21.335938 0 11.773437-9.558594 21.332031-21.332031 21.332031zm0 0"/><path d="m405.332031 469.824219h-149.332031c-11.777344 0-21.332031-9.558594-21.332031-21.335938 0-11.773437 9.554687-21.332031 21.332031-21.332031h149.332031c11.777344 0 21.335938 9.558594 21.335938 21.332031 0 11.777344-9.558594 21.335938-21.335938 21.335938zm0 0"/></g><path d="m474.667969 21.824219h-202.667969c-20.585938 0-37.332031 16.746093-37.332031 37.332031v53.332031c0 20.589844 16.746093 37.335938 37.332031 37.335938h202.667969c20.585937 0 37.332031-16.746094 37.332031-37.335938v-53.332031c0-20.585938-16.746094-37.332031-37.332031-37.332031zm0 0" fill="#90a4ae"/><path d="m186.902344 74.089844-74.667969-69.332032c-4.671875-4.332031-11.457031-5.441406-17.300781-2.945312-5.824219 2.558594-9.601563 8.320312-9.601563 14.675781v48h-64c-11.796875 0-21.332031 9.558594-21.332031 21.335938 0 11.773437 9.535156 21.332031 21.332031 21.332031h64v48c0 6.359375 3.777344 12.117188 9.601563 14.675781 2.070312.875 4.222656 1.324219 6.398437 1.324219 3.96875 0 7.875-1.472656 10.902344-4.265625l74.667969-69.335937c3.242187-3.027344 5.097656-7.292969 5.097656-11.730469s-1.855469-8.707031-5.097656-11.734375zm0 0" fill="#2196f3"/></svg>