<?xml version="1.0" encoding="iso-8859-1"?>
<!-- Generator: Adobe Illustrator 19.0.0, SVG Export Plug-In . SVG Version: 6.00 Build 0)  -->
<svg version="1.1" id="Capa_1" xmlns="http://www.w3.org/2000/svg" xmlns:xlink="http://www.w3.org/1999/xlink" x="0px" y="0px"
	 viewBox="0 0 490.667 490.667" style="enable-background:new 0 0 490.667 490.667;" xml:space="preserve">
<circle style="fill:#90CAF9;" cx="245.333" cy="245.333" r="192"/>
<g>
	<path style="fill:#2196F3;" d="M68.779,169.557c5.273,2.618,11.67,0.47,14.293-4.8c20.157-40.626,54.873-72.174,97.237-88.363
		c-19.386,23.571-33.283,51.16-40.683,80.768c-1.781,5.615,1.328,11.611,6.943,13.392c5.615,1.781,11.611-1.328,13.392-6.943
		c0.079-0.248,0.148-0.5,0.209-0.753c14.933-53.909,43.413-90.432,74.496-97.387V160c0,5.891,4.776,10.667,10.667,10.667
		c5.891,0,10.667-4.776,10.667-10.667V65.451c31.083,6.955,59.584,43.477,74.496,97.387c1.365,5.731,7.117,9.27,12.848,7.905
		c5.731-1.365,9.27-7.117,7.905-12.848c-0.06-0.254-0.13-0.505-0.209-0.753c-7.4-29.608-21.297-57.197-40.683-80.768
		c42.372,16.185,77.096,47.732,97.259,88.363c2.459,5.353,8.792,7.7,14.145,5.241c5.353-2.459,7.7-8.792,5.241-14.145
		c-0.091-0.199-0.189-0.395-0.293-0.588C377.093,55.095,255.685,14.132,155.537,63.748c-39.689,19.663-71.831,51.805-91.494,91.494
		C61.401,160.504,63.52,166.91,68.779,169.557z"/>
	<path style="fill:#2196F3;" d="M421.888,321.109c-5.273-2.618-11.67-0.47-14.293,4.8c-20.163,40.63-54.886,72.178-97.259,88.363
		c19.386-23.571,33.283-51.16,40.683-80.768c1.781-5.615-1.328-11.611-6.943-13.392c-5.615-1.781-11.611,1.328-13.392,6.943
		c-0.079,0.248-0.148,0.499-0.209,0.753c-14.933,53.909-43.413,90.432-74.496,97.387v-94.528c0-5.891-4.776-10.667-10.667-10.667
		c-5.891,0-10.667,4.776-10.667,10.667v94.549c-31.083-6.955-59.584-43.477-74.496-97.387c-1.365-5.731-7.117-9.27-12.848-7.905
		s-9.27,7.117-7.905,12.848c0.06,0.254,0.13,0.505,0.209,0.753c7.4,29.608,21.297,57.197,40.683,80.768
		c-42.372-16.185-77.096-47.732-97.259-88.363c-2.459-5.353-8.792-7.7-14.145-5.241c-5.353,2.459-7.7,8.792-5.241,14.145
		c0.092,0.199,0.189,0.396,0.293,0.589c49.617,100.148,171.025,141.111,271.172,91.494c39.689-19.663,71.831-51.805,91.494-91.494
		C429.248,330.169,427.138,323.764,421.888,321.109z"/>
</g>
<path style="fill:#009688;" d="M53.333,149.333h384c29.455,0,53.333,23.878,53.333,53.333V288c0,29.455-23.878,53.333-53.333,53.333
	h-384C23.878,341.333,0,317.455,0,288v-85.333C0,173.212,23.878,149.333,53.333,149.333z"/>
<g>
	<path style="fill:#FAFAFA;" d="M266.667,298.667c-4.597,0.006-8.681-2.935-10.133-7.296l-11.2-33.643l-11.2,33.643
		c-1.237,4.693-5.712,7.782-10.539,7.275c-4.738-0.18-8.788-3.465-9.941-8.064l-21.333-85.333
		c-1.426-5.72,2.056-11.513,7.776-12.939c5.72-1.426,11.513,2.056,12.939,7.776l12.437,49.792l9.749-29.248
		c2.535-5.591,9.122-8.068,14.713-5.533c2.454,1.113,4.42,3.079,5.533,5.533l9.749,29.248l12.437-49.792
		c1.426-5.72,7.218-9.202,12.939-7.776c5.72,1.426,9.202,7.218,7.776,12.939l0,0l-21.333,85.333
		c-1.153,4.599-5.204,7.884-9.941,8.064L266.667,298.667z"/>
	<path style="fill:#FAFAFA;" d="M138.667,298.667c-4.597,0.006-8.681-2.935-10.133-7.296l-11.2-33.643l-11.2,33.643
		c-1.221,4.704-5.707,7.801-10.539,7.275c-4.738-0.18-8.788-3.465-9.941-8.064L64.32,205.248c-1.426-5.72,2.056-11.513,7.776-12.939
		s11.513,2.056,12.939,7.776l12.437,49.792l9.749-29.248c2.535-5.591,9.122-8.068,14.713-5.533c2.454,1.113,4.42,3.079,5.533,5.533
		l9.749,29.248l12.437-49.792c1.426-5.72,7.218-9.202,12.939-7.776c5.72,1.426,9.202,7.218,7.776,12.939l-21.333,85.333
		c-1.153,4.599-5.204,7.884-9.941,8.064L138.667,298.667z"/>
	<path style="fill:#FAFAFA;" d="M394.667,298.667c-4.597,0.006-8.681-2.935-10.133-7.296l-11.2-33.643l-11.2,33.643
		c-1.26,4.677-5.719,7.755-10.539,7.275c-4.738-0.18-8.788-3.465-9.941-8.064l-21.333-85.333c-1.426-5.72,2.056-11.513,7.776-12.939
		c5.72-1.426,11.513,2.056,12.939,7.776l12.437,49.792l9.749-29.248c2.535-5.591,9.122-8.068,14.713-5.533
		c2.454,1.113,4.42,3.079,5.533,5.533l9.749,29.248l12.437-49.792c1.426-5.72,7.218-9.202,12.939-7.776
		c5.72,1.426,9.202,7.218,7.776,12.939l-21.333,85.333c-1.153,4.599-5.204,7.884-9.941,8.064L394.667,298.667z"/>
</g>
<g>
</g>
<g>
</g>
<g>
</g>
<g>
</g>
<g>
</g>
<g>
</g>
<g>
</g>
<g>
</g>
<g>
</g>
<g>
</g>
<g>
</g>
<g>
</g>
<g>
</g>
<g>
</g>
<g>
</g>
</svg>
