<?xml version="1.0" encoding="iso-8859-1"?>
<!-- Generator: Adobe Illustrator 19.0.0, SVG Export Plug-In . SVG Version: 6.00 Build 0)  -->
<svg version="1.1" id="Capa_1" xmlns="http://www.w3.org/2000/svg" xmlns:xlink="http://www.w3.org/1999/xlink" x="0px" y="0px"
	 viewBox="0 0 511.428 511.428" style="enable-background:new 0 0 511.428 511.428;" xml:space="preserve">
<g>
	<path style="fill:#64B5F6;" d="M443.746,154.412c-55.802-63.314-135.98-99.794-220.373-100.267
		C138.972,54.612,58.785,91.092,2.978,154.412c-4.083,4.246-3.951,10.999,0.295,15.082c4.246,4.083,10.999,3.951,15.082-0.295
		c0.141-0.146,0.277-0.297,0.41-0.451c51.772-58.854,126.204-92.81,204.587-93.333c78.383,0.521,152.816,34.477,204.587,93.333
		c3.834,4.473,10.568,4.99,15.041,1.156s4.99-10.568,1.156-15.041c-0.132-0.154-0.269-0.305-0.41-0.451L443.746,154.412z"/>
	<path style="fill:#64B5F6;" d="M223.352,139.414c-63.404,0.353-123.639,27.769-165.547,75.349
		c-4.083,4.246-3.951,10.999,0.295,15.082c4.246,4.083,10.999,3.951,15.082-0.295c0.141-0.146,0.277-0.297,0.41-0.451
		c37.905-43.065,92.391-67.901,149.76-68.267c57.369,0.368,111.853,25.204,149.76,68.267c3.834,4.473,10.568,4.99,15.041,1.156
		s4.99-10.568,1.156-15.041c-0.132-0.154-0.269-0.305-0.41-0.451C346.987,167.188,286.754,139.772,223.352,139.414z"/>
	<path style="fill:#64B5F6;" d="M112.653,275.094c-4.083,4.246-3.951,10.999,0.295,15.082c4.246,4.083,10.999,3.951,15.082-0.295
		c0.141-0.146,0.277-0.297,0.41-0.451c44.491-51.296,121.629-58.108,174.421-15.403c4.383,3.941,11.131,3.583,15.072-0.8
		s3.583-11.131-0.8-15.072l0,0C255.546,207.773,165.11,215.264,112.653,275.094z"/>
	<circle style="fill:#64B5F6;" cx="223.352" cy="363.414" r="53.333"/>
</g>
<path style="fill:#455A64;" d="M504.717,304.62c-1.888-5.58-7.942-8.573-13.523-6.685c-0.253,0.086-0.503,0.181-0.749,0.285
	c-5.158,2.376-11.266,0.12-13.641-5.038c-2.076-4.508-0.636-9.856,3.423-12.712c4.705-3.545,5.645-10.233,2.099-14.938
	c-0.159-0.211-0.325-0.415-0.499-0.614c-16.816-19.456-39.622-32.769-64.832-37.845c-2.941-0.583-5.992,0.098-8.405,1.877
	c-2.417,1.79-3.967,4.517-4.267,7.509c-0.259,5.685-5.077,10.083-10.762,9.825c-5.322-0.242-9.582-4.502-9.825-9.825
	c-0.3-2.993-1.849-5.72-4.267-7.509c-2.413-1.779-5.464-2.461-8.405-1.877c-25.21,5.075-48.017,18.389-64.832,37.845
	c-3.884,4.429-3.443,11.168,0.986,15.053c0.198,0.174,0.403,0.341,0.614,0.499c4.645,3.268,5.761,9.682,2.493,14.327
	c-2.856,4.059-8.204,5.499-12.712,3.423c-5.423-2.302-11.685,0.228-13.987,5.651c-0.104,0.246-0.2,0.496-0.285,0.749
	c-8.835,24.185-8.835,50.716,0,74.901c1.892,5.579,7.949,8.567,13.528,6.675c0.244-0.083,0.485-0.174,0.723-0.275
	c5.149-2.396,11.265-0.164,13.661,4.985c2.099,4.511,0.667,9.877-3.399,12.743c-4.705,3.545-5.645,10.233-2.099,14.938
	c0.159,0.211,0.325,0.415,0.499,0.614c16.784,19.444,39.551,32.764,64.725,37.867c2.941,0.605,6.001-0.078,8.405-1.877
	c2.466-1.765,4.064-4.495,4.395-7.509c0.449-5.685,5.421-9.93,11.106-9.481c5.062,0.399,9.082,4.419,9.481,9.481
	c0.56,5.462,5.176,9.607,10.667,9.579c0.717,0.005,1.432-0.066,2.133-0.213c25.176-5.088,47.95-18.393,64.747-37.824
	c3.884-4.429,3.443-11.168-0.986-15.053c-0.198-0.174-0.403-0.341-0.614-0.499c-4.626-3.293-5.707-9.714-2.414-14.34
	c2.86-4.017,8.169-5.439,12.654-3.388c5.427,2.292,11.684-0.25,13.976-5.677c0.1-0.238,0.192-0.479,0.275-0.723
	c8.835-24.193,8.835-50.73,0-74.923L504.717,304.62z M394.018,395.414c-29.455,0-53.333-23.878-53.333-53.333
	c0-29.455,23.878-53.333,53.333-53.333s53.333,23.878,53.333,53.333C447.352,371.536,423.473,395.414,394.018,395.414z"/>
<g>
</g>
<g>
</g>
<g>
</g>
<g>
</g>
<g>
</g>
<g>
</g>
<g>
</g>
<g>
</g>
<g>
</g>
<g>
</g>
<g>
</g>
<g>
</g>
<g>
</g>
<g>
</g>
<g>
</g>
</svg>
