<?xml version="1.0" encoding="iso-8859-1"?>
<!-- Generator: Adobe Illustrator 19.0.0, SVG Export Plug-In . SVG Version: 6.00 Build 0)  -->
<svg version="1.1" id="Capa_1" xmlns="http://www.w3.org/2000/svg" xmlns:xlink="http://www.w3.org/1999/xlink" x="0px" y="0px"
	 viewBox="0 0 512 512" style="enable-background:new 0 0 512 512;" xml:space="preserve">
<path style="fill:#455A64;" d="M373.333,322.532c-5.891,0-10.667-4.776-10.667-10.667V162.532c0-5.891,4.776-10.667,10.667-10.667
	S384,156.641,384,162.532v149.333C384,317.756,379.224,322.532,373.333,322.532z"/>
<path style="fill:#CFD8DC;" d="M53.333,301.177h405.333c29.455,0,53.333,23.878,53.333,53.333v42.667
	c0,29.455-23.878,53.333-53.333,53.333H53.333C23.878,450.511,0,426.632,0,397.177v-42.667C0,325.055,23.878,301.177,53.333,301.177
	z"/>
<g>
	<circle style="fill:#4CAF50;" cx="74.667" cy="375.865" r="10.667"/>
	<circle style="fill:#4CAF50;" cx="138.667" cy="375.865" r="10.667"/>
	<circle style="fill:#4CAF50;" cx="202.667" cy="375.865" r="10.667"/>
	<circle style="fill:#4CAF50;" cx="266.667" cy="375.865" r="10.667"/>
</g>
<path style="fill:#455A64;" d="M437.333,386.532H330.667c-5.891,0-10.667-4.776-10.667-10.667s4.776-10.667,10.667-10.667h106.667
	c5.891,0,10.667,4.776,10.667,10.667S443.224,386.532,437.333,386.532z"/>
<g>
	<path style="fill:#2196F3;" d="M343.168,203.385c-2.831,0.005-5.548-1.115-7.552-3.115c-20.831-20.825-20.835-54.594-0.01-75.425
		c0.003-0.003,0.007-0.007,0.01-0.01c4.093-4.237,10.845-4.354,15.083-0.262c4.237,4.093,4.354,10.845,0.262,15.083
		c-0.086,0.089-0.173,0.176-0.262,0.262c-12.501,12.493-12.507,32.754-0.014,45.255c0.005,0.005,0.01,0.01,0.014,0.014
		c4.171,4.16,4.179,10.914,0.019,15.085c-2.006,2.011-4.731,3.139-7.571,3.134L343.168,203.385z"/>
	<path style="fill:#2196F3;" d="M403.499,203.385c-5.891,0.011-10.675-4.757-10.686-10.648c-0.005-2.84,1.123-5.565,3.134-7.571
		c12.501-12.493,12.507-32.754,0.014-45.255c-0.005-0.005-0.01-0.01-0.014-0.014c-4.093-4.237-3.975-10.99,0.262-15.083
		c4.134-3.993,10.687-3.993,14.821,0c20.831,20.825,20.835,54.594,0.01,75.425c-0.003,0.003-0.007,0.007-0.01,0.01
		C409.034,202.251,406.325,203.379,403.499,203.385z"/>
	<path style="fill:#2196F3;" d="M312.981,233.551c-2.831,0.005-5.548-1.115-7.552-3.115c-37.432-37.515-37.432-98.251,0-135.765
		c4.237-4.093,10.99-3.975,15.083,0.262c3.992,4.134,3.992,10.687,0,14.821c-29.161,29.158-29.163,76.434-0.005,105.595
		c0.002,0.002,0.004,0.004,0.005,0.005c4.171,4.16,4.179,10.914,0.019,15.085c-2.006,2.011-4.731,3.139-7.571,3.134L312.981,233.551
		z"/>
	<path style="fill:#2196F3;" d="M433.685,233.551c-5.891,0.011-10.675-4.757-10.686-10.648c-0.005-2.84,1.123-5.565,3.134-7.571
		c29.161-29.158,29.163-76.434,0.005-105.595c-0.002-0.002-0.004-0.004-0.005-0.005c-4.093-4.237-3.975-10.99,0.262-15.083
		c4.134-3.993,10.687-3.993,14.821,0c37.432,37.515,37.432,98.251,0,135.765C439.22,232.416,436.512,233.544,433.685,233.551z"/>
	<path style="fill:#2196F3;" d="M282.816,263.716c-2.831,0.005-5.548-1.115-7.552-3.115c-54.147-54.152-54.147-141.944,0-196.096
		c4.237-4.093,10.99-3.975,15.083,0.262c3.992,4.134,3.992,10.687,0,14.82c-45.819,45.821-45.819,120.11,0,165.931
		c4.171,4.16,4.179,10.914,0.019,15.085c-2.006,2.011-4.731,3.139-7.571,3.134L282.816,263.716z"/>
	<path style="fill:#2196F3;" d="M463.851,263.716c-5.891,0.011-10.675-4.757-10.686-10.648c-0.005-2.84,1.123-5.565,3.134-7.571
		c45.819-45.821,45.819-120.11,0-165.931c-4.093-4.237-3.976-10.99,0.262-15.083c4.134-3.993,10.687-3.993,14.821,0
		c54.147,54.152,54.147,141.944,0,196.096C469.386,262.582,466.677,263.71,463.851,263.716z"/>
</g>
<g>
</g>
<g>
</g>
<g>
</g>
<g>
</g>
<g>
</g>
<g>
</g>
<g>
</g>
<g>
</g>
<g>
</g>
<g>
</g>
<g>
</g>
<g>
</g>
<g>
</g>
<g>
</g>
<g>
</g>
</svg>
