<?xml version="1.0" encoding="iso-8859-1"?>
<!-- Generator: Adobe Illustrator 19.0.0, SVG Export Plug-In . SVG Version: 6.00 Build 0)  -->
<svg version="1.1" id="Capa_1" xmlns="http://www.w3.org/2000/svg" xmlns:xlink="http://www.w3.org/1999/xlink" x="0px" y="0px"
	 viewBox="0 0 511.373 511.373" style="enable-background:new 0 0 511.373 511.373;" xml:space="preserve">
<g>
	<path style="fill:#64B5F6;" d="M443.768,153.286C387.956,89.961,307.76,53.48,223.352,53.02
		C138.957,53.49,58.778,89.97,2.978,153.286c-4.083,4.246-3.951,10.999,0.295,15.082c4.246,4.083,10.999,3.951,15.082-0.295
		c0.141-0.146,0.277-0.297,0.41-0.451c51.78-58.835,126.213-92.768,204.587-93.269c78.395,0.517,152.838,34.483,204.608,93.355
		c4.083,4.246,10.836,4.378,15.082,0.295c4.076-3.919,4.385-10.338,0.705-14.631L443.768,153.286z"/>
	<path style="fill:#64B5F6;" d="M223.373,138.353c-63.402,0.361-123.634,27.775-165.547,75.349
		c-4.083,4.246-3.951,10.999,0.295,15.082c4.246,4.083,10.999,3.951,15.082-0.295c0.141-0.146,0.277-0.297,0.41-0.451
		c37.891-43.094,92.378-67.962,149.76-68.352c57.37,0.363,111.856,25.2,149.76,68.267c3.834,4.473,10.568,4.99,15.041,1.156
		s4.99-10.568,1.156-15.041c-0.132-0.154-0.269-0.305-0.41-0.451C346.998,166.066,286.764,138.681,223.373,138.353z"/>
	<path style="fill:#64B5F6;" d="M112.674,274.033c-4.083,4.246-3.951,10.999,0.295,15.082c4.246,4.083,10.999,3.951,15.082-0.295
		c0.141-0.146,0.277-0.297,0.41-0.451c44.491-51.296,121.629-58.108,174.421-15.403c4.444,3.867,11.181,3.4,15.049-1.044
		c3.783-4.347,3.43-10.913-0.798-14.828C255.546,206.737,165.134,214.227,112.674,274.033z"/>
	<circle style="fill:#64B5F6;" cx="223.373" cy="362.353" r="53.333"/>
</g>
<circle style="fill:#009688;" cx="394.04" cy="341.02" r="117.333"/>
<g>
	<path style="fill:#FAFAFA;" d="M394.04,415.686c-5.83-0.146-10.521-4.837-10.667-10.667c-0.028-1.398,0.264-2.785,0.853-4.053
		c0.451-1.333,1.263-2.515,2.347-3.413c4.148-4.066,10.786-4.066,14.933,0c1.083,0.899,1.895,2.081,2.347,3.413
		c0.584,1.27,0.876,2.655,0.853,4.053c0.043,1.393-0.249,2.776-0.853,4.032c-0.447,1.335-1.26,2.518-2.347,3.413
		c-0.9,1.082-2.081,1.894-3.413,2.347C396.834,415.432,395.442,415.733,394.04,415.686z"/>
	<path style="fill:#FAFAFA;" d="M394.04,373.02L394.04,373.02c-5.891,0-10.667-4.776-10.667-10.667V341.02
		c0.019-5.053,3.582-9.4,8.533-10.411l2.347-0.448c21.675-3.989,31.787-10.667,31.787-21.099c0-11.563-14.656-21.333-32-21.333
		c-16.704,0-31.061,9.067-32,20.181c-0.381,5.772-5.369,10.143-11.142,9.762c-0.133-0.009-0.267-0.02-0.4-0.034
		c-5.866-0.497-10.22-5.653-9.728-11.52c4.873-25.014,27.972-42.218,53.333-39.723c26.383-2.516,49.996,16.375,53.333,42.667
		c0,20.373-14.336,34.133-42.667,40.704v12.587c0,5.891-4.775,10.667-10.666,10.667C394.082,373.02,394.061,373.02,394.04,373.02z"
		/>
</g>
<g>
</g>
<g>
</g>
<g>
</g>
<g>
</g>
<g>
</g>
<g>
</g>
<g>
</g>
<g>
</g>
<g>
</g>
<g>
</g>
<g>
</g>
<g>
</g>
<g>
</g>
<g>
</g>
<g>
</g>
</svg>
