<?xml version="1.0" encoding="iso-8859-1"?>
<!-- Generator: Adobe Illustrator 19.0.0, SVG Export Plug-In . SVG Version: 6.00 Build 0)  -->
<svg version="1.1" id="Capa_1" xmlns="http://www.w3.org/2000/svg" xmlns:xlink="http://www.w3.org/1999/xlink" x="0px" y="0px"
	 viewBox="0 0 511.076 511.076" style="enable-background:new 0 0 511.076 511.076;" xml:space="preserve">
<g>
	<path style="fill:#64B5F6;" d="M443.576,153.188c-55.8-63.3-136-99.8-220.4-100.3c-84.4,0.5-164.6,37-220.4,100.3
		c-4,4.4-3.6,11.1,0.7,15.1s11.1,3.6,15.1-0.7c51.8-58.8,126.2-92.8,204.6-93.3c78.4,0.5,152.8,34.5,204.6,93.4
		c4,4.4,10.7,4.7,15.1,0.7C447.176,164.388,447.476,157.588,443.576,153.188L443.576,153.188z"/>
	<path style="fill:#64B5F6;" d="M223.176,138.288c-63.4,0.3-123.7,27.7-165.6,75.3c-4,4.4-3.6,11.1,0.7,15.1
		c4.4,4,11.1,3.6,15.1-0.7c37.9-43.1,92.4-68,149.8-68.4c57.4,0.4,111.9,25.2,149.8,68.3c4,4.4,10.7,4.7,15.1,0.7s4.7-10.7,0.7-15.1
		C346.776,165.988,286.576,138.588,223.176,138.288z"/>
	<path style="fill:#64B5F6;" d="M112.476,273.888c-4,4.4-3.6,11.1,0.7,15.1c4.4,4,11.1,3.6,15.1-0.7l0,0
		c44.5-51.3,121.6-58.1,174.4-15.4c4.2,4.1,11,4,15.1-0.2s4-11-0.2-15.1c-0.2-0.2-0.4-0.4-0.7-0.6
		C255.376,206.588,164.876,214.088,112.476,273.888z"/>
	<circle style="fill:#64B5F6;" cx="223.176" cy="362.288" r="53.3"/>
</g>
<circle style="fill:#009688;" cx="393.776" cy="340.888" r="117.3"/>
<path style="fill:#FAFAFA;" d="M436.476,394.288c-2.8,0-5.5-1.1-7.6-3.1l-42.7-42.7c-2-2-3.1-4.7-3.1-7.6v-64
	c0-5.9,4.8-10.7,10.7-10.7c5.9,0,10.7,4.8,10.7,10.7v59.6l39.6,39.6c4.2,4.2,4.2,10.9,0,15.1
	C442.076,393.188,439.276,394.288,436.476,394.288L436.476,394.288z"/>
<g>
</g>
<g>
</g>
<g>
</g>
<g>
</g>
<g>
</g>
<g>
</g>
<g>
</g>
<g>
</g>
<g>
</g>
<g>
</g>
<g>
</g>
<g>
</g>
<g>
</g>
<g>
</g>
<g>
</g>
</svg>
