<?xml version="1.0" encoding="iso-8859-1"?>
<!-- Generator: Adobe Illustrator 19.0.0, SVG Export Plug-In . SVG Version: 6.00 Build 0)  -->
<svg version="1.1" id="Capa_1" xmlns="http://www.w3.org/2000/svg" xmlns:xlink="http://www.w3.org/1999/xlink" x="0px" y="0px"
	 viewBox="0 0 511.946 511.946" style="enable-background:new 0 0 511.946 511.946;" xml:space="preserve">
<path style="fill:#CFD8DC;" d="M508.819,131.123l-128-128c-4.165-4.164-10.917-4.164-15.083,0L259.07,109.79
	c-4.164,4.165-4.164,10.917,0,15.083l128,128c4.165,4.164,10.917,4.164,15.083,0l106.667-106.667
	C512.983,142.04,512.983,135.288,508.819,131.123z"/>
<g>
	<path style="fill:#90A4AE;" d="M402.046,88.563L382.483,69c-0.444-0.711-0.966-1.369-1.557-1.963
		c-4.165-4.164-10.917-4.164-15.083,0l-21.547,21.547c-4.164,4.165-4.164,10.917,0,15.083L365.63,125
		c4.165,4.164,10.917,4.164,15.083,0l21.333-21.333c4.171-4.16,4.179-10.914,0.019-15.085
		C402.058,88.576,402.052,88.569,402.046,88.563z"/>
	<path style="fill:#90A4AE;" d="M444.819,131.123l-21.333-21.333c-4.165-4.164-10.917-4.164-15.083,0l-21.333,21.333
		c-4.164,4.165-4.164,10.917,0,15.083l21.333,21.333c4.165,4.164,10.917,4.164,15.083,0l21.333-21.333
		C448.983,142.04,448.983,135.288,444.819,131.123z"/>
</g>
<path style="fill:#455A64;" d="M423.486,259.123L252.819,88.456c-4.165-4.164-10.917-4.164-15.083,0L33.235,292.958
	c-44.307,44.423-44.307,116.324,0,160.747l25.003,25.003c44.418,44.319,116.329,44.319,160.747,0l204.501-204.501
	C427.65,270.04,427.65,263.288,423.486,259.123z"/>
<g>
	<path style="fill:#2196F3;" d="M223.934,341.342c-29.455,0-53.333-23.878-53.333-53.333c0-5.891,4.776-10.667,10.667-10.667
		s10.667,4.776,10.667,10.667c0,17.673,14.327,32,32,32c5.891,0,10.667,4.776,10.667,10.667S229.825,341.342,223.934,341.342z"/>
	<path style="fill:#2196F3;" d="M223.934,384.008c-53.019,0-96-42.981-96-96c0-5.891,4.776-10.667,10.667-10.667
		s10.667,4.776,10.667,10.667c0,41.237,33.429,74.667,74.667,74.667c5.891,0,10.667,4.776,10.667,10.667
		C234.6,379.233,229.825,384.008,223.934,384.008z"/>
	<path style="fill:#2196F3;" d="M223.934,426.675c-76.545-0.094-138.573-62.122-138.667-138.667c0-5.891,4.776-10.667,10.667-10.667
		c5.891,0,10.667,4.776,10.667,10.667c0.082,64.767,52.566,117.251,117.333,117.333c5.891,0,10.667,4.776,10.667,10.667
		C234.6,421.899,229.825,426.675,223.934,426.675z"/>
</g>
<g>
</g>
<g>
</g>
<g>
</g>
<g>
</g>
<g>
</g>
<g>
</g>
<g>
</g>
<g>
</g>
<g>
</g>
<g>
</g>
<g>
</g>
<g>
</g>
<g>
</g>
<g>
</g>
<g>
</g>
</svg>
