<?xml version="1.0" encoding="iso-8859-1"?>
<!-- Generator: Adobe Illustrator 19.0.0, SVG Export Plug-In . SVG Version: 6.00 Build 0)  -->
<svg version="1.1" id="Capa_1" xmlns="http://www.w3.org/2000/svg" xmlns:xlink="http://www.w3.org/1999/xlink" x="0px" y="0px"
	 viewBox="0 0 511.493 511.493" style="enable-background:new 0 0 511.493 511.493;" xml:space="preserve">
<circle style="fill:#90CAF9;" cx="383.352" cy="330.342" r="74.667"/>
<path style="fill:#455A64;" d="M508.216,440.124l-57.728-57.728c11.717-14.827,18.124-33.155,18.197-52.053
	c0-47.128-38.205-85.333-85.333-85.333s-85.333,38.205-85.333,85.333s38.205,85.333,85.333,85.333
	c18.898-0.073,37.226-6.48,52.053-18.197l57.749,57.749c4.093,4.237,10.846,4.354,15.083,0.261
	c4.237-4.093,4.354-10.846,0.261-15.083c-0.086-0.089-0.173-0.176-0.261-0.261L508.216,440.124z M319.352,330.342
	c0-35.346,28.654-64,64-64s64,28.654,64,64s-28.654,64-64,64S319.352,365.689,319.352,330.342z"/>
<g>
	<path style="fill:#64B5F6;" d="M443.746,153.276C387.943,89.951,307.754,53.47,223.352,53.009
		C138.957,53.476,58.777,89.957,2.978,153.276c-4.083,4.246-3.951,10.999,0.295,15.082c4.246,4.083,10.999,3.951,15.082-0.295
		c0.141-0.146,0.277-0.297,0.41-0.451c51.779-58.837,126.212-92.77,204.587-93.269c78.388,0.52,152.824,34.486,204.587,93.355
		c3.834,4.473,10.568,4.99,15.041,1.156c4.473-3.834,4.99-10.568,1.156-15.041c-0.132-0.154-0.269-0.305-0.41-0.451L443.746,153.276
		z"/>
	<path style="fill:#64B5F6;" d="M223.352,138.342c-63.404,0.353-123.639,27.769-165.547,75.349
		c-4.083,4.246-3.951,10.999,0.295,15.082c4.246,4.083,10.999,3.951,15.082-0.295c0.141-0.146,0.277-0.297,0.41-0.451
		c37.905-43.065,92.391-67.901,149.76-68.267c57.369,0.368,111.853,25.204,149.76,68.267c3.834,4.473,10.568,4.99,15.041,1.156
		s4.99-10.568,1.156-15.041c-0.132-0.154-0.269-0.305-0.41-0.451C346.987,166.116,286.754,138.7,223.352,138.342z"/>
	<path style="fill:#64B5F6;" d="M112.653,274.022c-4.083,4.246-3.951,10.999,0.295,15.082c4.246,4.083,10.999,3.951,15.082-0.295
		c0.141-0.146,0.277-0.297,0.41-0.451c44.491-51.296,121.629-58.108,174.421-15.403c4.383,3.941,11.131,3.583,15.072-0.8
		s3.583-11.131-0.8-15.072C255.546,206.701,165.11,214.192,112.653,274.022z"/>
	<circle style="fill:#64B5F6;" cx="223.352" cy="362.342" r="53.333"/>
</g>
<g>
</g>
<g>
</g>
<g>
</g>
<g>
</g>
<g>
</g>
<g>
</g>
<g>
</g>
<g>
</g>
<g>
</g>
<g>
</g>
<g>
</g>
<g>
</g>
<g>
</g>
<g>
</g>
<g>
</g>
</svg>
