<?xml version="1.0" encoding="iso-8859-1"?>
<!-- Generator: Adobe Illustrator 19.0.0, SVG Export Plug-In . SVG Version: 6.00 Build 0)  -->
<svg version="1.1" id="Capa_1" xmlns="http://www.w3.org/2000/svg" xmlns:xlink="http://www.w3.org/1999/xlink" x="0px" y="0px"
	 viewBox="0 0 511.373 511.373" style="enable-background:new 0 0 511.373 511.373;" xml:space="preserve">
<g>
	<path style="fill:#546E7A;" d="M351.373,426.353c-41.237,0-74.667-33.429-74.667-74.667s33.429-74.667,74.667-74.667h42.667
		c5.891,0,10.667,4.776,10.667,10.667s-4.776,10.667-10.667,10.667h-42.667c-29.455,0-53.333,23.878-53.333,53.333
		c0,29.455,23.878,53.333,53.333,53.333c5.891,0,10.667,4.776,10.667,10.667S357.264,426.353,351.373,426.353z"/>
	<path style="fill:#546E7A;" d="M436.706,426.353H394.04c-5.891,0-10.667-4.776-10.667-10.667s4.776-10.667,10.667-10.667h42.667
		c29.455,0,53.333-23.878,53.333-53.333c0-29.455-23.878-53.333-53.333-53.333c-5.891,0-10.667-4.776-10.667-10.667
		s4.776-10.667,10.667-10.667c41.237,0,74.667,33.429,74.667,74.667S477.943,426.353,436.706,426.353z"/>
	<path style="fill:#546E7A;" d="M362.04,330.353c-5.891,0.011-10.675-4.757-10.686-10.648c-0.005-2.84,1.123-5.565,3.134-7.571
		l24.469-24.448l-24.448-24.448c-4.093-4.237-3.975-10.99,0.262-15.083c4.134-3.993,10.687-3.993,14.821,0l32,32
		c4.164,4.165,4.164,10.917,0,15.083l-32,32C367.587,329.238,364.87,330.358,362.04,330.353z"/>
	<path style="fill:#546E7A;" d="M426.04,458.353c-2.831,0.005-5.548-1.115-7.552-3.115l-32-32c-4.164-4.165-4.164-10.917,0-15.083
		l32-32c4.237-4.093,10.99-3.976,15.083,0.261c3.993,4.134,3.993,10.688,0,14.821l-24.448,24.448l24.448,24.448
		c4.171,4.16,4.179,10.914,0.019,15.085c-2.006,2.011-4.731,3.139-7.571,3.134H426.04z"/>
</g>
<g>
	<path style="fill:#64B5F6;" d="M443.768,153.286C387.956,89.961,307.76,53.48,223.352,53.02
		C138.957,53.49,58.778,89.97,2.978,153.286c-4.083,4.246-3.951,10.999,0.295,15.082s10.999,3.951,15.082-0.295
		c0.141-0.146,0.277-0.297,0.41-0.451c51.78-58.835,126.213-92.768,204.587-93.269c78.395,0.517,152.838,34.483,204.608,93.355
		c4.083,4.246,10.836,4.378,15.082,0.295c4.076-3.919,4.385-10.338,0.705-14.631L443.768,153.286z"/>
	<path style="fill:#64B5F6;" d="M223.373,138.353c-63.402,0.361-123.634,27.775-165.547,75.349
		c-4.083,4.246-3.951,10.999,0.295,15.082c4.246,4.083,10.999,3.951,15.082-0.295c0.141-0.146,0.277-0.297,0.41-0.451
		c37.891-43.094,92.378-67.962,149.76-68.352c57.37,0.363,111.856,25.2,149.76,68.267c3.834,4.473,10.568,4.99,15.041,1.156
		s4.99-10.568,1.156-15.041c-0.132-0.154-0.269-0.305-0.41-0.451C346.998,166.066,286.764,138.681,223.373,138.353z"/>
	<path style="fill:#64B5F6;" d="M112.674,274.033c-4.083,4.246-3.951,10.999,0.295,15.082c4.246,4.083,10.999,3.951,15.082-0.295
		c0.141-0.146,0.277-0.297,0.41-0.451c44.491-51.296,121.629-58.108,174.421-15.403c4.444,3.867,11.181,3.4,15.049-1.044
		c3.783-4.347,3.43-10.913-0.798-14.828C255.546,206.737,165.134,214.227,112.674,274.033z"/>
	<circle style="fill:#64B5F6;" cx="223.373" cy="362.353" r="53.333"/>
</g>
<g>
</g>
<g>
</g>
<g>
</g>
<g>
</g>
<g>
</g>
<g>
</g>
<g>
</g>
<g>
</g>
<g>
</g>
<g>
</g>
<g>
</g>
<g>
</g>
<g>
</g>
<g>
</g>
<g>
</g>
</svg>
