<?xml version="1.0" encoding="iso-8859-1"?>
<!-- Generator: Adobe Illustrator 19.0.0, SVG Export Plug-In . SVG Version: 6.00 Build 0)  -->
<svg version="1.1" id="Capa_1" xmlns="http://www.w3.org/2000/svg" xmlns:xlink="http://www.w3.org/1999/xlink" x="0px" y="0px"
	 viewBox="0 0 511.026 511.026" style="enable-background:new 0 0 511.026 511.026;" xml:space="preserve">
<g>
	<path style="fill:#FFA000;" d="M415.026,458.092c-5.891,0-10.667-4.776-10.667-10.667v-21.333c0-5.891,4.776-10.667,10.667-10.667
		c5.891,0,10.667,4.776,10.667,10.667v21.333C425.693,453.316,420.917,458.092,415.026,458.092z"/>
	<path style="fill:#FFA000;" d="M329.693,458.092c-5.891,0-10.667-4.776-10.667-10.667v-21.333c0-5.891,4.776-10.667,10.667-10.667
		c5.891,0,10.667,4.776,10.667,10.667v21.333C340.36,453.316,335.584,458.092,329.693,458.092z"/>
</g>
<path style="fill:#388E3C;" d="M457.693,458.092c-5.891,0-10.667-4.776-10.667-10.667v-85.333c0-5.891,4.776-10.667,10.667-10.667
	c5.891,0,10.667,4.776,10.667,10.667v85.333C468.36,453.316,463.584,458.092,457.693,458.092z"/>
<circle style="fill:#4CAF50;" cx="457.693" cy="319.425" r="53.333"/>
<path style="fill:#FFC107;" d="M415.026,436.758h-85.333c-5.891,0-10.667-4.776-10.667-10.667v-21.333c0-17.673,14.327-32,32-32
	h42.667c17.673,0,32,14.327,32,32v21.333C425.693,431.983,420.917,436.758,415.026,436.758z"/>
<g>
	<path style="fill:#64B5F6;" d="M485.725,152.748c-133.393-133.084-349.338-133.084-482.731,0
		c-4.093,4.237-3.975,10.99,0.262,15.083c4.134,3.992,10.687,3.992,14.821,0c125.067-124.744,327.498-124.744,452.565,0
		c4.237,4.093,10.99,3.975,15.083-0.262C489.718,163.435,489.718,156.881,485.725,152.748L485.725,152.748z"/>
	<path style="fill:#64B5F6;" d="M244.36,138.092c-67.894-0.152-133.03,26.847-180.907,74.987c-4.093,4.237-3.975,10.99,0.262,15.083
		c4.134,3.992,10.687,3.992,14.82,0c91.642-91.638,240.219-91.638,331.861,0c4.237,4.093,10.99,3.975,15.083-0.262
		c3.993-4.134,3.993-10.687,0-14.821C377.557,164.878,312.329,137.873,244.36,138.092z"/>
	<path style="fill:#64B5F6;" d="M244.338,223.425c-45.283-0.126-88.733,17.873-120.661,49.984
		c-4.092,4.237-3.975,10.99,0.262,15.083c4.134,3.992,10.687,3.992,14.82,0c58.315-58.321,152.868-58.326,211.189-0.011
		c0.004,0.004,0.007,0.007,0.011,0.011c4.237,4.093,10.99,3.975,15.083-0.262c3.993-4.134,3.993-10.687,0-14.821
		C333.102,241.29,289.635,223.29,244.338,223.425z"/>
	<circle style="fill:#64B5F6;" cx="244.36" cy="362.092" r="53.333"/>
</g>
<g>
</g>
<g>
</g>
<g>
</g>
<g>
</g>
<g>
</g>
<g>
</g>
<g>
</g>
<g>
</g>
<g>
</g>
<g>
</g>
<g>
</g>
<g>
</g>
<g>
</g>
<g>
</g>
<g>
</g>
</svg>
