<?xml version="1.0" encoding="iso-8859-1"?>
<!-- Generator: Adobe Illustrator 19.0.0, SVG Export Plug-In . SVG Version: 6.00 Build 0)  -->
<svg version="1.1" id="Capa_1" xmlns="http://www.w3.org/2000/svg" xmlns:xlink="http://www.w3.org/1999/xlink" x="0px" y="0px"
	 viewBox="0 0 511.103 511.103" style="enable-background:new 0 0 511.103 511.103;" xml:space="preserve">
<g>
	<path style="fill:#64B5F6;" d="M443.576,153.152c-55.8-63.3-136-99.8-220.4-100.3c-84.4,0.5-164.6,37-220.4,100.3
		c-4,4.4-3.6,11.1,0.7,15.1s11.1,3.6,15.1-0.7c51.8-58.8,126.2-92.8,204.6-93.3c78.4,0.5,152.8,34.5,204.6,93.4
		c4,4.4,10.7,4.7,15.1,0.7C447.176,164.352,447.476,157.552,443.576,153.152L443.576,153.152z"/>
	<path style="fill:#64B5F6;" d="M223.176,138.252c-63.4,0.3-123.7,27.7-165.6,75.3c-4,4.4-3.6,11.1,0.7,15.1
		c4.4,4,11.1,3.6,15.1-0.7c37.9-43.1,92.4-68,149.8-68.4c57.4,0.4,111.9,25.2,149.8,68.3c4,4.4,10.7,4.7,15.1,0.7s4.7-10.7,0.7-15.1
		C346.776,165.952,286.576,138.552,223.176,138.252z"/>
	<path style="fill:#64B5F6;" d="M293.176,241.752c-60.3-33.2-135.6-19.8-180.7,32.1c-4,4.4-3.6,11.1,0.7,15.1
		c4.4,4,11.1,3.6,15.1-0.7c38.6-44.6,103-56.1,154.7-27.7c5.1,2.9,11.6,1.2,14.6-3.9c2.9-5.1,1.2-11.6-3.9-14.6
		C293.376,241.952,293.276,241.852,293.176,241.752L293.176,241.752z"/>
	<circle style="fill:#64B5F6;" cx="223.176" cy="362.252" r="53.3"/>
</g>
<path style="fill:#009688;" d="M505.576,224.852c-3.5-1.9-7.9-1.7-11.2,0.6c-14,10.1-30.2,16.8-47.3,19.4
	c-17.1-2.6-33.3-9.3-47.3-19.4c-3.7-2.5-8.5-2.5-12.2,0c-14,10.1-30.2,16.8-47.3,19.4c-17.1-2.6-33.3-9.3-47.3-19.4
	c-4.8-3.4-11.5-2.2-14.8,2.7c-1.3,1.9-2,4.2-1.9,6.5c0.9,33.1,4.6,66.1,11.1,98.7c10.7,36,30.4,75.8,100.3,123.1
	c3.6,2.4,8.4,2.4,12,0c69.8-47.2,89.4-87.1,100.3-123.1c6.5-32.5,10.2-65.5,11.1-98.7
	C511.376,230.552,509.176,226.752,505.576,224.852z"/>
<path style="fill:#FAFAFA;" d="M436.476,330.252h-32v-32c0-5.9-4.8-10.7-10.7-10.7c-5.9,0-10.7,4.8-10.7,10.7v32h-32
	c-5.9,0-10.7,4.8-10.7,10.7c0,5.9,4.8,10.7,10.7,10.7h32v32c0,5.9,4.8,10.7,10.7,10.7c5.9,0,10.7-4.8,10.7-10.7v-32h32
	c5.9,0,10.7-4.8,10.7-10.7C447.176,334.952,442.376,330.252,436.476,330.252z"/>
<g>
</g>
<g>
</g>
<g>
</g>
<g>
</g>
<g>
</g>
<g>
</g>
<g>
</g>
<g>
</g>
<g>
</g>
<g>
</g>
<g>
</g>
<g>
</g>
<g>
</g>
<g>
</g>
<g>
</g>
</svg>
