<?xml version="1.0" encoding="iso-8859-1"?>
<!-- Generator: Adobe Illustrator 19.0.0, SVG Export Plug-In . SVG Version: 6.00 Build 0)  -->
<svg version="1.1" id="Capa_1" xmlns="http://www.w3.org/2000/svg" xmlns:xlink="http://www.w3.org/1999/xlink" x="0px" y="0px"
	 viewBox="0 0 512.648 512.648" style="enable-background:new 0 0 512.648 512.648;" xml:space="preserve">
<circle style="fill:#90CAF9;" cx="245.981" cy="246.17" r="234.667"/>
<path style="fill:#2196F3;" d="M245.981,0.858C110.488,0.5,0.359,110.049,0.001,245.542s109.192,245.622,244.685,245.98
	c9.435,0.025,18.864-0.495,28.239-1.556c5.856-0.648,10.077-5.92,9.429-11.776c-0.648-5.856-5.92-10.077-11.776-9.429
	c-4.587,0.512-9.28,0.576-13.931,0.811V256.858h212.715c-0.235,4.651-0.299,9.365-0.811,13.931
	c-0.588,5.862,3.686,11.09,9.548,11.679c5.786,0.581,10.971-3.579,11.658-9.353C504.897,138.741,408.24,17.537,273.868,2.397
	C264.609,1.353,255.298,0.84,245.981,0.858z M469.448,235.524h-85.099c-0.571-36.113-5.973-71.987-16.064-106.667h68.139
	C456.332,161.022,467.699,197.737,469.448,235.524z M421.576,107.524h-60.544c-9.827-27.512-25.207-52.71-45.184-74.027
	c41.719,13.803,78.472,39.542,105.707,74.027H421.576z M22.536,256.858h85.077c0.571,36.113,5.973,71.987,16.064,106.667H55.538
	c-19.909-32.165-31.276-68.88-33.024-106.667H22.536z M55.538,128.858h68.139c-10.091,34.679-15.493,70.554-16.064,106.667H22.514
	C24.263,197.737,35.63,161.022,55.538,128.858L55.538,128.858z M146.781,128.858h88.533v106.667H128.946
	C129.688,199.292,135.696,163.36,146.781,128.858L146.781,128.858z M154.696,107.524c19.563-46.507,48.427-78.421,80.619-84.267
	v84.267H154.696z M256.648,23.258c32.192,5.845,61.056,37.76,80.619,84.267h-80.619V23.258z M176.136,33.498
	c-19.985,21.315-35.372,46.513-45.205,74.027H70.408C97.648,73.036,134.409,47.297,176.136,33.498z M70.408,384.858h60.523
	c9.827,27.512,25.207,52.71,45.184,74.027C134.396,445.081,97.643,419.343,70.408,384.858z M154.696,384.858h80.619v84.267
	C203.122,463.279,174.258,431.343,154.696,384.858L154.696,384.858z M235.314,363.524h-88.533
	c-11.085-34.503-17.093-70.434-17.835-106.667h106.368V363.524z M256.648,128.858h88.533
	c11.085,34.503,17.093,70.434,17.835,106.667H256.648V128.858z"/>
<circle style="fill:#009688;" cx="395.314" cy="394.458" r="117.333"/>
<g>
	<path style="fill:#FAFAFA;" d="M395.314,469.124c-1.401,0.053-2.793-0.24-4.053-0.853c-1.33-0.457-2.51-1.268-3.413-2.347
		c-4.124-3.939-4.274-10.475-0.335-14.598c0.109-0.114,0.221-0.226,0.335-0.335c0.898-1.079,2.081-1.884,3.413-2.325
		c3.956-1.637,8.509-0.718,11.52,2.325c1.083,0.899,1.895,2.081,2.347,3.413c0.584,1.27,0.876,2.655,0.853,4.053
		c0.04,2.83-1.123,5.544-3.2,7.467c-0.9,1.082-2.081,1.894-3.413,2.347C398.107,468.884,396.715,469.177,395.314,469.124z"/>
	<path style="fill:#FAFAFA;" d="M395.314,426.458L395.314,426.458c-5.891,0-10.667-4.776-10.667-10.667v-21.333
		c0.019-5.053,3.582-9.4,8.533-10.411l2.325-0.448c21.696-4.075,31.808-10.731,31.808-21.141c0-11.563-14.677-21.333-32-21.333
		c-16.704,0-31.083,9.067-32,20.181c-0.495,5.891-5.672,10.266-11.563,9.771c-5.891-0.495-10.266-5.672-9.771-11.563
		c4.864-25.02,27.969-42.228,53.333-39.723c26.383-2.516,49.996,16.375,53.333,42.667c0,20.373-14.336,34.133-42.667,40.704v12.629
		C405.981,421.682,401.205,426.458,395.314,426.458z"/>
</g>
<g>
</g>
<g>
</g>
<g>
</g>
<g>
</g>
<g>
</g>
<g>
</g>
<g>
</g>
<g>
</g>
<g>
</g>
<g>
</g>
<g>
</g>
<g>
</g>
<g>
</g>
<g>
</g>
<g>
</g>
</svg>
