<?xml version="1.0" encoding="iso-8859-1"?>
<!-- Generator: Adobe Illustrator 19.0.0, SVG Export Plug-In . SVG Version: 6.00 Build 0)  -->
<svg version="1.1" id="Capa_1" xmlns="http://www.w3.org/2000/svg" xmlns:xlink="http://www.w3.org/1999/xlink" x="0px" y="0px"
	 viewBox="0 0 490.667 490.667" style="enable-background:new 0 0 490.667 490.667;" xml:space="preserve">
<path style="fill:#CFD8DC;" d="M53.333,0h384c29.455,0,53.333,23.878,53.333,53.333v384c0,29.455-23.878,53.333-53.333,53.333h-384
	C23.878,490.667,0,466.789,0,437.333v-384C0,23.878,23.878,0,53.333,0z"/>
<path style="fill:#607D8B;" d="M394.667,170.667h-53.333v-32c0-5.891-4.776-10.667-10.667-10.667h-53.333v-10.667
	c0-5.891-4.776-10.667-10.667-10.667H224c-5.891,0-10.667,4.776-10.667,10.667V128H160c-5.891,0-10.667,4.776-10.667,10.667v32H96
	c-5.891,0-10.667,4.776-10.667,10.667V352c0,5.891,4.776,10.667,10.667,10.667h298.667c5.891,0,10.667-4.776,10.667-10.667V181.333
	C405.333,175.442,400.558,170.667,394.667,170.667z"/>
<g>
	<path style="fill:#455A64;" d="M160,362.667c-5.891,0-10.667-4.776-10.667-10.667v-42.667c0-5.891,4.776-10.667,10.667-10.667
		s10.667,4.776,10.667,10.667V352C170.667,357.891,165.891,362.667,160,362.667z"/>
	<path style="fill:#455A64;" d="M202.667,362.667c-5.891,0-10.667-4.776-10.667-10.667v-42.667c0-5.891,4.776-10.667,10.667-10.667
		s10.667,4.776,10.667,10.667V352C213.333,357.891,208.558,362.667,202.667,362.667z"/>
	<path style="fill:#455A64;" d="M288,362.667c-5.891,0-10.667-4.776-10.667-10.667v-42.667c0-5.891,4.776-10.667,10.667-10.667
		c5.891,0,10.667,4.776,10.667,10.667V352C298.667,357.891,293.891,362.667,288,362.667z"/>
	<path style="fill:#455A64;" d="M330.667,362.667c-5.891,0-10.667-4.776-10.667-10.667v-42.667c0-5.891,4.776-10.667,10.667-10.667
		c5.891,0,10.667,4.776,10.667,10.667V352C341.333,357.891,336.558,362.667,330.667,362.667z"/>
	<path style="fill:#455A64;" d="M245.333,362.667c-5.891,0-10.667-4.776-10.667-10.667v-42.667c0-5.891,4.776-10.667,10.667-10.667
		c5.891,0,10.667,4.776,10.667,10.667V352C256,357.891,251.224,362.667,245.333,362.667z"/>
	<circle style="fill:#455A64;" cx="53.333" cy="437.333" r="10.667"/>
	<circle style="fill:#455A64;" cx="437.333" cy="437.333" r="10.667"/>
	<circle style="fill:#455A64;" cx="53.333" cy="53.333" r="10.667"/>
	<circle style="fill:#455A64;" cx="437.333" cy="53.333" r="10.667"/>
</g>
<g>
</g>
<g>
</g>
<g>
</g>
<g>
</g>
<g>
</g>
<g>
</g>
<g>
</g>
<g>
</g>
<g>
</g>
<g>
</g>
<g>
</g>
<g>
</g>
<g>
</g>
<g>
</g>
<g>
</g>
</svg>
