<?xml version="1.0" encoding="iso-8859-1"?>
<!-- Generator: Adobe Illustrator 19.0.0, SVG Export Plug-In . SVG Version: 6.00 Build 0)  -->
<svg version="1.1" id="Capa_1" xmlns="http://www.w3.org/2000/svg" xmlns:xlink="http://www.w3.org/1999/xlink" x="0px" y="0px"
	 viewBox="0 0 512.648 512.648" style="enable-background:new 0 0 512.648 512.648;" xml:space="preserve">
<circle style="fill:#90CAF9;" cx="245.981" cy="246.17" r="234.667"/>
<path style="fill:#2196F3;" d="M245.981,0.858C110.488,0.5,0.359,110.049,0.001,245.542s109.192,245.622,244.685,245.98
	c9.435,0.025,18.864-0.495,28.239-1.556c5.856-0.648,10.077-5.92,9.429-11.776c-0.648-5.856-5.92-10.077-11.776-9.429
	c-4.587,0.512-9.28,0.576-13.931,0.811V256.858h212.715c-0.235,4.651-0.299,9.365-0.811,13.931
	c-0.588,5.862,3.686,11.09,9.548,11.679c5.786,0.581,10.971-3.579,11.658-9.353C504.897,138.741,408.24,17.537,273.868,2.397
	C264.609,1.353,255.298,0.84,245.981,0.858z M469.448,235.524h-85.099c-0.571-36.113-5.973-71.987-16.064-106.667h68.139
	C456.332,161.022,467.699,197.737,469.448,235.524z M421.576,107.524h-60.544c-9.827-27.512-25.207-52.71-45.184-74.027
	c41.719,13.803,78.472,39.542,105.707,74.027H421.576z M22.536,256.858h85.077c0.571,36.113,5.973,71.987,16.064,106.667H55.538
	c-19.909-32.165-31.276-68.88-33.024-106.667H22.536z M55.538,128.858h68.139c-10.091,34.679-15.493,70.554-16.064,106.667H22.514
	C24.263,197.737,35.63,161.022,55.538,128.858L55.538,128.858z M146.781,128.858h88.533v106.667H128.946
	C129.688,199.292,135.696,163.36,146.781,128.858L146.781,128.858z M154.696,107.524c19.563-46.507,48.427-78.421,80.619-84.267
	v84.267H154.696z M256.648,23.258c32.192,5.845,61.056,37.76,80.619,84.267h-80.619V23.258z M176.136,33.498
	c-19.985,21.315-35.372,46.513-45.205,74.027H70.408C97.648,73.036,134.409,47.297,176.136,33.498z M70.408,384.858h60.523
	c9.827,27.512,25.207,52.71,45.184,74.027C134.396,445.081,97.643,419.343,70.408,384.858z M154.696,384.858h80.619v84.267
	C203.122,463.279,174.258,431.343,154.696,384.858L154.696,384.858z M235.314,363.524h-88.533
	c-11.085-34.503-17.093-70.434-17.835-106.667h106.368V363.524z M256.648,128.858h88.533
	c11.085,34.503,17.093,70.434,17.835,106.667H256.648V128.858z"/>
<circle style="fill:#009688;" cx="395.314" cy="394.458" r="117.333"/>
<g>
	<path style="fill:#FAFAFA;" d="M395.314,426.458c-5.891,0-10.667-4.776-10.667-10.667v-85.333c0-5.891,4.776-10.667,10.667-10.667
		s10.667,4.776,10.667,10.667v85.333C405.981,421.682,401.205,426.458,395.314,426.458z"/>
	<path style="fill:#FAFAFA;" d="M395.314,469.124c-5.834-0.135-10.531-4.833-10.667-10.667c-0.028-1.398,0.264-2.785,0.853-4.053
		c0.444-1.331,1.249-2.513,2.325-3.413c4.148-4.066,10.786-4.066,14.933,0c1.076,0.905,1.887,2.085,2.347,3.413
		c0.589,1.269,0.881,2.655,0.853,4.053c-0.157,5.825-4.842,10.51-10.667,10.667H395.314z"/>
</g>
<g>
</g>
<g>
</g>
<g>
</g>
<g>
</g>
<g>
</g>
<g>
</g>
<g>
</g>
<g>
</g>
<g>
</g>
<g>
</g>
<g>
</g>
<g>
</g>
<g>
</g>
<g>
</g>
<g>
</g>
</svg>
