<?xml version="1.0" encoding="iso-8859-1"?>
<!-- Generator: Adobe Illustrator 19.0.0, SVG Export Plug-In . SVG Version: 6.00 Build 0)  -->
<svg version="1.1" id="Capa_1" xmlns="http://www.w3.org/2000/svg" xmlns:xlink="http://www.w3.org/1999/xlink" x="0px" y="0px"
	 viewBox="0 0 512 512" style="enable-background:new 0 0 512 512;" xml:space="preserve">
<path style="fill:#CFD8DC;" d="M448.389,88.448L363.055,3.115c-2.072-1.975-4.818-3.088-7.68-3.115
	c-2.892,0.028-5.648,1.229-7.637,3.328c-21.184,22.272-45.376,46.933-50.581,51.2c-5.231,2.71-7.274,9.148-4.563,14.378
	c0.515,0.995,1.184,1.902,1.982,2.689l85.333,85.333c4.165,4.164,10.917,4.164,15.083,0l53.333-53.333
	c4.2-4.131,4.256-10.884,0.126-15.084C448.43,88.489,448.409,88.469,448.389,88.448z"/>
<path style="fill:#2196F3;" d="M405.722,152.448L299.055,45.781c-4.165-4.164-10.917-4.164-15.083,0l-85.333,85.333
	c-1.999,2.004-3.12,4.721-3.115,7.552V160c-0.005,2.831,1.115,5.548,3.115,7.552l85.333,85.333c2.004,1.999,4.721,3.12,7.552,3.115
	h21.333c2.831,0.005,5.548-1.115,7.552-3.115l85.333-85.333c4.165-4.166,4.164-10.92-0.002-15.085
	C405.735,152.461,405.728,152.454,405.722,152.448z"/>
<path style="fill:#607D8B;" d="M291.503,512c-5.891,0.011-10.675-4.757-10.686-10.648c-0.005-2.84,1.123-5.565,3.134-7.571l128-128
	c19.399-19.399,19.399-50.851,0-70.251c-19.399-19.399-50.852-19.399-70.251,0l-160,160c-27.729,27.729-72.687,27.729-100.416,0
	c-27.729-27.729-27.729-72.687,0-100.416l74.667-74.667c4.237-4.092,10.99-3.975,15.083,0.262c3.992,4.134,3.992,10.687,0,14.82
	l-74.667,74.667c-19.399,19.399-19.399,50.851,0,70.251c19.399,19.399,50.851,19.399,70.251,0l0,0l160-160
	c27.729-27.729,72.687-27.729,100.416,0c27.729,27.729,27.729,72.687,0,100.416l0,0l-128,128
	C297.039,510.866,294.33,511.994,291.503,512z"/>
<g>
	<path style="fill:#2196F3;" d="M195.503,288c-2.831,0.005-5.548-1.115-7.552-3.115l-21.333-21.333
		c-4.092-4.237-3.975-10.99,0.262-15.083c4.134-3.992,10.687-3.992,14.82,0l21.333,21.333c4.171,4.16,4.179,10.914,0.019,15.085
		c-2.006,2.011-4.731,3.139-7.571,3.134L195.503,288z"/>
	<path style="fill:#2196F3;" d="M227.503,277.333c-2.831,0.005-5.548-1.115-7.552-3.115l-42.667-42.667
		c-4.092-4.237-3.975-10.99,0.262-15.083c4.134-3.992,10.687-3.992,14.82,0l42.667,42.667c4.171,4.16,4.179,10.914,0.019,15.085
		c-2.006,2.011-4.731,3.139-7.571,3.134L227.503,277.333z"/>
	<path style="fill:#2196F3;" d="M259.503,266.667c-2.831,0.005-5.548-1.115-7.552-3.115l-64-64
		c-4.092-4.237-3.975-10.99,0.262-15.083c4.134-3.992,10.687-3.992,14.82,0l64,64c4.171,4.16,4.179,10.914,0.019,15.085
		c-2.006,2.011-4.731,3.139-7.571,3.134L259.503,266.667z"/>
</g>
<g>
	<path style="fill:#90A4AE;" d="M355.503,64c-5.891,0.011-10.675-4.757-10.686-10.648c-0.005-2.84,1.123-5.565,3.134-7.571
		l21.333-21.333c4.093-4.237,10.845-4.354,15.083-0.262c4.237,4.093,4.354,10.845,0.262,15.083
		c-0.086,0.089-0.173,0.176-0.262,0.262l-21.333,21.333C361.039,62.866,358.33,63.994,355.503,64z"/>
	<path style="fill:#90A4AE;" d="M376.837,85.333c-5.891,0.011-10.675-4.757-10.686-10.648c-0.005-2.84,1.123-5.565,3.134-7.571
		l21.333-21.333c4.093-4.237,10.845-4.354,15.083-0.262c4.237,4.093,4.354,10.845,0.262,15.083
		c-0.086,0.089-0.173,0.176-0.262,0.262l-21.333,21.333C382.372,84.199,379.663,85.327,376.837,85.333z"/>
	<path style="fill:#90A4AE;" d="M398.17,106.667c-5.891,0.011-10.675-4.757-10.686-10.648c-0.005-2.84,1.123-5.565,3.134-7.571
		l21.333-21.333c4.093-4.237,10.845-4.354,15.083-0.262c4.237,4.093,4.354,10.845,0.262,15.083
		c-0.086,0.089-0.173,0.176-0.262,0.262l-21.333,21.333C403.705,105.532,400.997,106.66,398.17,106.667z"/>
</g>
<g>
	<path style="fill:#CFD8DC;" d="M363.055,120.448l-32-32c-4.165-4.164-10.917-4.164-15.083,0l-42.667,42.667
		c-4.164,4.165-4.164,10.917,0,15.083l32,32c4.165,4.164,10.917,4.164,15.083,0l42.667-42.667
		C367.22,131.365,367.22,124.613,363.055,120.448z"/>
	<path style="fill:#CFD8DC;" d="M280.837,181.333c-5.891,0.011-10.675-4.757-10.686-10.648c-0.005-2.84,1.123-5.565,3.134-7.571
		l10.667-10.667c4.092-4.237,10.845-4.355,15.083-0.262s4.355,10.845,0.262,15.083c-0.086,0.089-0.173,0.176-0.262,0.262
		l-10.667,10.667C286.372,180.199,283.663,181.327,280.837,181.333z"/>
</g>
<g>
</g>
<g>
</g>
<g>
</g>
<g>
</g>
<g>
</g>
<g>
</g>
<g>
</g>
<g>
</g>
<g>
</g>
<g>
</g>
<g>
</g>
<g>
</g>
<g>
</g>
<g>
</g>
<g>
</g>
</svg>
