<?xml version="1.0" encoding="iso-8859-1"?>
<!-- Generator: Adobe Illustrator 19.0.0, SVG Export Plug-In . SVG Version: 6.00 Build 0)  -->
<svg version="1.1" id="Capa_1" xmlns="http://www.w3.org/2000/svg" xmlns:xlink="http://www.w3.org/1999/xlink" x="0px" y="0px"
	 viewBox="0 0 512 512" style="enable-background:new 0 0 512 512;" xml:space="preserve">
<circle style="fill:#90CAF9;" cx="224" cy="245.333" r="202.667"/>
<path style="fill:#2196F3;" d="M213.333,149.333c5.891,0,10.667-4.776,10.667-10.667S219.224,128,213.333,128H140.8
	c17.856-38.869,43.947-64,72.533-64C219.224,64,224,59.224,224,53.333s-4.776-10.667-10.667-10.667
	c-111.93,0-202.667,90.737-202.667,202.667S101.404,448,213.333,448c5.891,0,10.667-4.776,10.667-10.667
	s-4.776-10.667-10.667-10.667c-28.587,0-54.677-25.131-72.533-64h72.533c5.891,0,10.667-4.776,10.667-10.667
	c0-5.891-4.776-10.667-10.667-10.667h-80.832c-9.104-27.566-14.135-56.314-14.933-85.333h95.765c5.891,0,10.667-4.776,10.667-10.667
	c0-5.891-4.776-10.667-10.667-10.667h-95.701c0.798-29.02,5.829-57.767,14.933-85.333H213.333z M147.584,76.523
	c-12.88,15.382-23.149,32.772-30.4,51.477H75.328C94.796,105.141,119.619,87.456,147.584,76.523z M147.584,414.144
	c-27.965-10.933-52.788-28.618-72.256-51.477h41.856C124.435,381.372,134.704,398.762,147.584,414.144z M109.589,341.333H64
	c-1.288,0.024-2.561,0.285-3.755,0.768C43.826,316.229,34.287,286.592,32.533,256h63.765
	C96.93,284.908,101.399,313.603,109.589,341.333z M96.299,234.667H32.533c1.76-30.594,11.307-60.231,27.733-86.101
	c1.187,0.481,2.453,0.741,3.733,0.768h45.589C101.399,177.064,96.93,205.759,96.299,234.667z"/>
<path style="fill:#455A64;" d="M277.333,0h149.333c41.237,0,74.667,33.429,74.667,74.667v362.667
	c0,41.237-33.429,74.667-74.667,74.667H277.333c-41.237,0-74.667-33.429-74.667-74.667V74.667C202.667,33.429,236.096,0,277.333,0z"
	/>
<rect x="224" y="106.667" style="fill:#CFD8DC;" width="256" height="277.333"/>
<g>
	<path style="fill:#FAFAFA;" d="M352,469.333c-11.782,0-21.333-9.551-21.333-21.333c0-11.782,9.551-21.333,21.333-21.333
		s21.333,9.551,21.333,21.333C373.333,459.782,363.782,469.333,352,469.333z"/>
	<path style="fill:#FAFAFA;" d="M384,64h-64c-5.891,0-10.667-4.776-10.667-10.667S314.109,42.667,320,42.667h64
		c5.891,0,10.667,4.776,10.667,10.667S389.891,64,384,64z"/>
	<path style="fill:#FAFAFA;" d="M427.093,64c-5.891,0-10.667-4.776-10.667-10.667c-0.001-5.809,4.646-10.55,10.453-10.667h0.213
		c5.891,0,10.667,4.776,10.667,10.667S432.984,64,427.093,64z"/>
</g>
<g>
</g>
<g>
</g>
<g>
</g>
<g>
</g>
<g>
</g>
<g>
</g>
<g>
</g>
<g>
</g>
<g>
</g>
<g>
</g>
<g>
</g>
<g>
</g>
<g>
</g>
<g>
</g>
<g>
</g>
</svg>
