<?xml version="1.0" encoding="iso-8859-1"?>
<!-- Generator: Adobe Illustrator 19.0.0, SVG Export Plug-In . SVG Version: 6.00 Build 0)  -->
<svg version="1.1" id="Capa_1" xmlns="http://www.w3.org/2000/svg" xmlns:xlink="http://www.w3.org/1999/xlink" x="0px" y="0px"
	 viewBox="0 0 511.171 511.171" style="enable-background:new 0 0 511.171 511.171;" xml:space="preserve">
<path style="fill:#455A64;" d="M479.171,330.252c-5.891,0-10.667-4.776-10.667-10.667v-21.333c0-29.455-23.878-53.333-53.333-53.333
	s-53.333,23.878-53.333,53.333v21.333c0,5.891-4.776,10.667-10.667,10.667s-10.667-4.776-10.667-10.667v-21.333
	c0-41.237,33.429-74.667,74.667-74.667s74.667,33.429,74.667,74.667v21.333C489.838,325.476,485.062,330.252,479.171,330.252z"/>
<path style="fill:#FFC107;" d="M329.838,308.919h170.667c5.891,0,10.667,4.776,10.667,10.667v128
	c0,5.891-4.776,10.667-10.667,10.667H329.838c-5.891,0-10.667-4.776-10.667-10.667v-128
	C319.171,313.694,323.947,308.919,329.838,308.919z"/>
<g>
	<path style="fill:#455A64;" d="M415.171,415.585c-5.891,0-10.667-4.776-10.667-10.667v-32c0-5.891,4.776-10.667,10.667-10.667
		s10.667,4.776,10.667,10.667v32C425.838,410.81,421.062,415.585,415.171,415.585z"/>
	<path style="fill:#455A64;" d="M415.171,394.252c-11.782,0-21.333-9.551-21.333-21.333c0-11.782,9.551-21.333,21.333-21.333
		s21.333,9.551,21.333,21.333C436.504,384.701,426.953,394.252,415.171,394.252z"/>
</g>
<g>
	<path style="fill:#64B5F6;" d="M443.566,153.185C387.749,89.867,307.556,53.387,223.15,52.919
		C138.757,53.397,58.581,89.876,2.776,153.185c-3.965,4.359-3.645,11.107,0.715,15.072c4.359,3.965,11.107,3.645,15.072-0.715
		C70.339,108.7,144.772,74.759,223.15,74.252c78.394,0.52,152.837,34.485,204.608,93.355c3.965,4.359,10.713,4.679,15.072,0.715
		c4.359-3.965,4.679-10.713,0.715-15.072L443.566,153.185z"/>
	<path style="fill:#64B5F6;" d="M223.171,138.252c-63.4,0.369-123.629,27.782-165.547,75.349
		c-3.965,4.359-3.645,11.107,0.715,15.072c4.359,3.965,11.107,3.645,15.072-0.715c37.889-43.1,92.375-67.976,149.76-68.373
		c57.369,0.368,111.853,25.204,149.76,68.267c3.965,4.359,10.713,4.679,15.072,0.715c4.359-3.965,4.679-10.713,0.715-15.072
		C346.784,165.963,286.556,138.589,223.171,138.252z"/>
	<path style="fill:#64B5F6;" d="M223.15,223.585c-42.384,0.231-82.653,18.549-110.677,50.347
		c-3.965,4.359-3.645,11.107,0.715,15.072c4.359,3.965,11.107,3.645,15.072-0.715l0,0c45.374-52.43,124.659-58.151,177.089-12.777
		c4.56,3.947,8.831,8.217,12.777,12.777c3.965,4.359,10.713,4.679,15.072,0.715s4.679-10.713,0.715-15.072
		C305.866,242.115,265.563,223.795,223.15,223.585z"/>
	<circle style="fill:#64B5F6;" cx="223.171" cy="362.252" r="53.333"/>
</g>
<g>
</g>
<g>
</g>
<g>
</g>
<g>
</g>
<g>
</g>
<g>
</g>
<g>
</g>
<g>
</g>
<g>
</g>
<g>
</g>
<g>
</g>
<g>
</g>
<g>
</g>
<g>
</g>
<g>
</g>
</svg>
