<?xml version="1.0" encoding="iso-8859-1"?>
<!-- Generator: Adobe Illustrator 19.0.0, SVG Export Plug-In . SVG Version: 6.00 Build 0)  -->
<svg version="1.1" id="Capa_1" xmlns="http://www.w3.org/2000/svg" xmlns:xlink="http://www.w3.org/1999/xlink" x="0px" y="0px"
	 viewBox="0 0 511.024 511.024" style="enable-background:new 0 0 511.024 511.024;" xml:space="preserve">
<path style="fill:#455A64;" d="M507.869,354.538l-85.333-85.333c-4.165-4.164-10.917-4.164-15.083,0l-85.333,85.333
	c-4.171,4.16-4.179,10.914-0.019,15.085c2.006,2.011,4.731,3.139,7.571,3.134h10.667v74.667c0,5.891,4.776,10.667,10.667,10.667
	h42.667c5.891,0,10.667-4.776,10.667-10.667V394.09h21.333v53.333c0,5.891,4.776,10.667,10.667,10.667h42.667
	c5.891,0,10.667-4.776,10.667-10.667v-74.667h10.667c5.891,0.011,10.675-4.757,10.686-10.648c0.005-2.84-1.123-5.565-3.134-7.571
	H507.869z"/>
<g>
	<path style="fill:#64B5F6;" d="M485.704,152.746c-133.386-133.081-349.324-133.081-482.709,0
		c-4.093,4.237-3.975,10.99,0.262,15.083c4.134,3.992,10.687,3.992,14.821,0c125.05-124.765,327.494-124.765,452.544,0
		c4.237,4.093,10.99,3.975,15.083-0.262C489.696,163.433,489.696,156.879,485.704,152.746L485.704,152.746z"/>
	<path style="fill:#64B5F6;" d="M63.432,213.076c-4.093,4.237-3.975,10.99,0.262,15.083c4.134,3.992,10.687,3.992,14.82,0
		c91.71-91.473,240.151-91.473,331.861,0c4.237,4.093,10.99,3.975,15.083-0.262c3.993-4.134,3.993-10.687,0-14.821
		C325.422,113.263,163.468,113.263,63.432,213.076z"/>
	<path style="fill:#64B5F6;" d="M244.338,223.423c-45.29-0.129-88.747,17.87-120.683,49.984c-4.093,4.237-3.975,10.99,0.262,15.083
		c4.134,3.992,10.687,3.992,14.821,0c58.315-58.321,152.868-58.326,211.189-0.011c0.004,0.004,0.007,0.007,0.011,0.011
		c4.237,4.093,10.99,3.975,15.083-0.262c3.993-4.134,3.993-10.687,0-14.821C333.086,241.293,289.628,223.294,244.338,223.423z"/>
	<circle style="fill:#64B5F6;" cx="244.338" cy="362.09" r="53.333"/>
</g>
<g>
</g>
<g>
</g>
<g>
</g>
<g>
</g>
<g>
</g>
<g>
</g>
<g>
</g>
<g>
</g>
<g>
</g>
<g>
</g>
<g>
</g>
<g>
</g>
<g>
</g>
<g>
</g>
<g>
</g>
</svg>
