<?xml version="1.0" encoding="iso-8859-1"?>
<!-- Generator: Adobe Illustrator 19.0.0, SVG Export Plug-In . SVG Version: 6.00 Build 0)  -->
<svg version="1.1" id="Capa_1" xmlns="http://www.w3.org/2000/svg" xmlns:xlink="http://www.w3.org/1999/xlink" x="0px" y="0px"
	 viewBox="0 0 512 512" style="enable-background:new 0 0 512 512;" xml:space="preserve">
<g>
	<path style="fill:#607D8B;" d="M255.938,448c-5.891,0-10.667-4.776-10.667-10.667v-42.667c0-5.891,4.776-10.667,10.667-10.667
		s10.667,4.776,10.667,10.667v42.667C266.604,443.224,261.829,448,255.938,448z"/>
	<path style="fill:#607D8B;" d="M405.271,490.667H298.604c-5.891,0-10.667-4.776-10.667-10.667c0-5.891,4.776-10.667,10.667-10.667
		h106.667c5.891,0,10.667,4.776,10.667,10.667C415.938,485.891,411.162,490.667,405.271,490.667z"/>
	<path style="fill:#607D8B;" d="M213.271,490.667H106.604c-5.891,0-10.667-4.776-10.667-10.667c0-5.891,4.776-10.667,10.667-10.667
		h106.667c5.891,0,10.667,4.776,10.667,10.667C223.938,485.891,219.162,490.667,213.271,490.667z"/>
</g>
<g>
	<path style="fill:#BBDEFB;" d="M324.204,307.2c-6.746-11.162-16.311-20.351-27.733-26.645
		c-7.607-4.788-14.575-10.522-20.736-17.067c0.896-0.619,1.92-1.28,2.667-1.771c5.824-3.776,13.077-8.533,13.077-17.067
		c0-27.264-31.808-50.539-62.571-73.024c-14.547-9.546-27.823-20.901-39.509-33.792c-6.324-9.039-11.317-18.939-14.827-29.397
		c-0.348-5.887,0.053-11.793,1.195-17.579c3.488-12.033,2.479-24.923-2.837-36.267c-4.884-5.461-11.874-8.567-19.2-8.533
		c-2.272-0.241-4.525-0.64-6.741-1.195c-1.497-2.143-3.729-3.661-6.272-4.267c-3.18-0.733-6.52,0.029-9.067,2.069
		c-49.653,38.188-78.64,97.361-78.379,160c0.129,111.876,90.791,202.537,202.667,202.667c9.018-0.02,18.024-0.619,26.965-1.792
		c2.654-0.34,5.083-1.665,6.805-3.712c14.013-15.723,25.767-33.321,34.923-52.288C328.078,334.296,327.931,320.37,324.204,307.2z"/>
	<path style="fill:#BBDEFB;" d="M255.938,0c-3.029,0-6.08,0-9.109,0.235c-5.581,0.414-9.893,5.071-9.877,10.667
		c0,2.261-0.277,5.269-0.576,8.533c-1.622,9.557-1.164,19.351,1.344,28.715c1.536,3.84,12.352,23.339,26.56,23.339
		c8.789,0,13.76-7.637,17.387-13.269l1.387,1.877c2.324,3.565,5.205,6.734,8.533,9.387c5.105,3.066,10.653,5.326,16.448,6.699
		c2.133,0.661,5.483,1.664,8.277,2.667l-1.024,0.725c-3.596,2.23-6.808,5.025-9.515,8.277c-5.651,9.32-10.095,19.32-13.227,29.76
		c-3.157,12.063-8.5,23.445-15.765,33.579c-3.338-0.184-6.648-0.713-9.877-1.579c-9.536-2.133-23.915-5.227-29.077,7.147
		c-11.797,28.395,44.949,59.541,55.808,64c10.005,2.823,20.556,3.109,30.699,0.832c6.237-1.161,12.6-1.484,18.923-0.96
		c2.01,1.824,3.845,3.831,5.483,5.995c2.796,3.864,6.213,7.238,10.112,9.984c7.876,3.993,16.4,6.55,25.173,7.552
		c7.639,0.754,15.058,2.986,21.845,6.571c0,0,6.059,9.216-1.557,57.493l-0.149,0.939c-0.901,5.822,3.088,11.271,8.91,12.172
		c4.074,0.63,8.147-1.144,10.461-4.556c63.022-92.501,39.125-218.578-53.376-281.6C336.485,12.238,296.681-0.021,255.938,0z"/>
</g>
<path style="fill:#455A64;" d="M298.604,448h-10.667v-10.667c0-5.891-4.776-10.667-10.667-10.667h-42.667
	c-5.891,0-10.667,4.776-10.667,10.667V448h-10.667c-5.891,0-10.667,4.776-10.667,10.667v42.667c0,5.891,4.776,10.667,10.667,10.667
	h85.333c5.891,0,10.667-4.776,10.667-10.667v-42.667C309.271,452.776,304.495,448,298.604,448z"/>
<path style="fill:#2196F3;" d="M423.148,238.315c-9.497-9.213-22.063-14.593-35.285-15.104c-6.136-0.779-12.141-2.372-17.856-4.736
	c-1.757-1.658-3.377-3.456-4.843-5.376c-3.464-5.016-8.08-9.127-13.461-11.989c-9.823-2.666-20.149-2.893-30.08-0.661
	c-6.515,1.267-13.189,1.497-19.776,0.683c-16.217-7.24-30.666-17.919-42.347-31.296l2.773,0.597
	c7.829,2.953,16.495,2.769,24.192-0.512c13.161-12.007,22.289-27.789,26.133-45.184c2.553-8.402,5.986-16.51,10.24-24.192
	c1.484-1.274,3.044-2.457,4.672-3.541c6.72-4.736,15.915-11.179,14.037-21.333c-2.005-12.331-15.509-16.405-27.413-19.989
	c-3.489-0.899-6.894-2.098-10.176-3.584c-1.364-1.492-2.626-3.074-3.776-4.736c-4.565-6.208-10.261-13.931-19.328-13.931
	c-8.661,0-13.355,7.253-17.067,13.077l-0.853,1.323c-2.195-2.286-4.023-4.898-5.419-7.744c-0.824-6.226-0.788-12.536,0.107-18.752
	c0.448-4.032,0.661-7.68,0.661-10.453c0-2.908-1.186-5.689-3.285-7.701c-2.112-1.989-4.929-3.056-7.829-2.965
	c-42.054,1.692-82.499,16.625-115.563,42.667c-3.959,3.095-5.221,8.534-3.029,13.056c4.92,7.436,13.339,11.795,22.251,11.52
	c1.536,0.213,3.648,0.469,5.077,0.789c0.356,6.613-0.081,13.245-1.301,19.755c-1.759,8.378-2.033,16.999-0.811,25.472
	c4.166,13.218,10.355,25.711,18.347,37.035c12.894,14.736,27.778,27.602,44.224,38.229c22.635,16.555,50.496,36.928,53.547,52.992
	c-0.96,0.683-2.133,1.451-3.051,2.133c-5.611,3.627-13.312,8.533-13.312,17.429c0,15.317,15.616,26.261,30.72,36.864
	c7.718,4.542,14.567,10.423,20.224,17.365c1.797,8.648,1.666,17.585-0.384,26.176c-8.354,16.031-18.674,30.958-30.72,44.437
	c-3.798,4.503-3.226,11.233,1.277,15.031c2.296,1.936,5.302,2.815,8.28,2.42c56.859-7.609,107.837-38.938,140.309-86.229
	c0.775-1.137,1.326-2.411,1.621-3.755c0.206-0.641,0.363-1.297,0.469-1.963C434.455,253.867,425.879,242.069,423.148,238.315z"/>
<g>
</g>
<g>
</g>
<g>
</g>
<g>
</g>
<g>
</g>
<g>
</g>
<g>
</g>
<g>
</g>
<g>
</g>
<g>
</g>
<g>
</g>
<g>
</g>
<g>
</g>
<g>
</g>
<g>
</g>
</svg>
