<?xml version="1.0" encoding="iso-8859-1"?>
<!-- Generator: Adobe Illustrator 19.0.0, SVG Export Plug-In . SVG Version: 6.00 Build 0)  -->
<svg version="1.1" id="Capa_1" xmlns="http://www.w3.org/2000/svg" xmlns:xlink="http://www.w3.org/1999/xlink" x="0px" y="0px"
	 viewBox="0 0 507.126 507.126" style="enable-background:new 0 0 507.126 507.126;" xml:space="preserve">
<g>
	<path style="fill:#64B5F6;" d="M443.725,151.161C387.926,87.842,307.747,51.361,223.352,50.894
		C138.957,51.361,58.777,87.842,2.978,151.161c-4.083,4.246-3.951,10.999,0.295,15.082s10.999,3.951,15.082-0.295
		c0.141-0.146,0.277-0.297,0.41-0.451c51.779-58.837,126.212-92.77,204.587-93.269c78.388,0.521,152.824,34.486,204.587,93.355
		c3.834,4.473,10.568,4.99,15.041,1.156s4.99-10.568,1.156-15.041c-0.132-0.154-0.269-0.305-0.41-0.451L443.725,151.161z"/>
	<path style="fill:#64B5F6;" d="M223.352,136.227c-63.403,0.355-123.637,27.771-165.547,75.349
		c-4.083,4.246-3.951,10.999,0.295,15.082c4.246,4.083,10.999,3.951,15.082-0.295c0.141-0.146,0.277-0.297,0.41-0.451
		c37.907-43.062,92.391-67.899,149.76-68.267c57.369,0.368,111.853,25.204,149.76,68.267c3.834,4.473,10.568,4.99,15.041,1.156
		s4.99-10.568,1.156-15.041c-0.132-0.154-0.269-0.305-0.41-0.451C346.989,163.998,286.755,136.583,223.352,136.227z"/>
	<path style="fill:#64B5F6;" d="M112.632,271.907c-4.083,4.246-3.951,10.999,0.295,15.082c4.246,4.083,10.999,3.951,15.082-0.295
		c0.141-0.146,0.277-0.297,0.41-0.451c44.491-51.296,121.629-58.108,174.421-15.403c4.383,3.941,11.131,3.583,15.072-0.8
		s3.583-11.131-0.8-15.072C255.525,204.585,165.088,212.077,112.632,271.907z"/>
	<circle style="fill:#64B5F6;" cx="223.352" cy="360.227" r="53.333"/>
</g>
<path style="fill:#FFC107;" d="M506.658,297.571c-1.425-4.403-5.527-7.384-10.155-7.381h-86.827l-26.859-82.581
	c-2.48-5.602-9.032-8.134-14.634-5.654c-2.522,1.116-4.538,3.132-5.654,5.654l-26.837,82.603h-86.848
	c-5.891,0.07-10.609,4.902-10.539,10.793c0.039,3.313,1.616,6.419,4.267,8.407l70.4,51.2l-25.152,81.835
	c-1.722,5.634,1.448,11.597,7.082,13.319c3.211,0.982,6.697,0.394,9.409-1.586l68.267-50.112l68.267,50.112
	c4.758,3.474,11.431,2.433,14.905-2.325c1.98-2.712,2.568-6.198,1.586-9.409l-25.131-81.835l70.4-51.2
	C506.372,306.755,508.007,301.979,506.658,297.571z"/>
<g>
</g>
<g>
</g>
<g>
</g>
<g>
</g>
<g>
</g>
<g>
</g>
<g>
</g>
<g>
</g>
<g>
</g>
<g>
</g>
<g>
</g>
<g>
</g>
<g>
</g>
<g>
</g>
<g>
</g>
</svg>
