<?xml version="1.0" encoding="iso-8859-1"?>
<!-- Generator: Adobe Illustrator 19.0.0, SVG Export Plug-In . SVG Version: 6.00 Build 0)  -->
<svg version="1.1" id="Capa_1" xmlns="http://www.w3.org/2000/svg" xmlns:xlink="http://www.w3.org/1999/xlink" x="0px" y="0px"
	 viewBox="0 0 510.938 510.938" style="enable-background:new 0 0 510.938 510.938;" xml:space="preserve">
<circle style="fill:#90CAF9;" cx="246.17" cy="245.313" r="234.667"/>
<path style="fill:#2196F3;" d="M246.17,0.001C110.677-0.357,0.548,109.192,0.19,244.686s109.191,245.622,244.685,245.98
	c9.435,0.025,18.864-0.495,28.239-1.556c5.856-0.648,10.077-5.92,9.429-11.776c-0.648-5.856-5.92-10.077-11.776-9.429
	c-4.587,0.512-9.28,0.576-13.931,0.811V256.001h212.715c-0.235,4.651-0.299,9.365-0.811,13.931
	c-0.588,5.862,3.686,11.09,9.548,11.679c5.786,0.581,10.971-3.579,11.658-9.353C505.086,137.884,408.429,16.68,274.057,1.54
	C264.798,0.497,255.487-0.017,246.17,0.001z M469.637,234.668h-85.099c-0.571-36.113-5.973-71.987-16.064-106.667h68.139
	C456.521,160.166,467.888,196.881,469.637,234.668z M421.765,106.668h-60.544c-9.827-27.512-25.207-52.71-45.184-74.027
	c41.719,13.803,78.472,39.542,105.707,74.027H421.765z M22.725,256.001h85.077c0.571,36.113,5.973,71.987,16.064,106.667H55.727
	c-19.909-32.165-31.276-68.88-33.024-106.667H22.725z M55.727,128.001h68.139c-10.091,34.679-15.493,70.554-16.064,106.667H22.703
	C24.452,196.881,35.819,160.166,55.727,128.001L55.727,128.001z M146.97,128.001h88.533v106.667H129.135
	C129.877,198.435,135.885,162.504,146.97,128.001L146.97,128.001z M154.885,106.668c19.563-46.507,48.427-78.421,80.619-84.267
	v84.267H154.885z M256.837,22.401c32.192,5.845,61.056,37.76,80.619,84.267h-80.619V22.401z M176.325,32.641
	c-19.985,21.315-35.372,46.513-45.205,74.027H70.597C97.838,72.179,134.598,46.441,176.325,32.641z M70.597,384.001h60.523
	c9.827,27.512,25.207,52.71,45.184,74.027C134.585,444.224,97.832,418.486,70.597,384.001z M154.885,384.001h80.619v84.267
	C203.311,462.422,174.447,430.486,154.885,384.001L154.885,384.001z M235.503,362.668H146.97
	c-11.085-34.503-17.093-70.434-17.835-106.667h106.368V362.668z M256.837,128.001h88.533
	c11.085,34.503,17.093,70.434,17.835,106.667H256.837V128.001z"/>
<path style="fill:#FFC107;" d="M510.234,352.278c-1.425-4.403-5.527-7.384-10.155-7.381h-86.848l-26.837-82.603
	c-2.48-5.602-9.032-8.134-14.634-5.654c-2.522,1.116-4.538,3.132-5.654,5.654l-26.837,82.603h-86.848
	c-5.891,0.07-10.609,4.902-10.539,10.793c0.039,3.313,1.616,6.419,4.267,8.407l70.4,51.2l-25.152,81.856
	c-1.722,5.634,1.448,11.597,7.082,13.319c3.211,0.982,6.697,0.394,9.409-1.586l68.267-50.112l68.416,50.027
	c4.758,3.474,11.431,2.433,14.905-2.325c1.98-2.712,2.568-6.198,1.586-9.409l-25.024-81.749l70.4-51.2
	C510.11,361.394,511.637,356.631,510.234,352.278z"/>
<g>
</g>
<g>
</g>
<g>
</g>
<g>
</g>
<g>
</g>
<g>
</g>
<g>
</g>
<g>
</g>
<g>
</g>
<g>
</g>
<g>
</g>
<g>
</g>
<g>
</g>
<g>
</g>
<g>
</g>
</svg>
