<?xml version="1.0" encoding="iso-8859-1"?>
<!-- Generator: Adobe Illustrator 19.0.0, SVG Export Plug-In . SVG Version: 6.00 Build 0)  -->
<svg version="1.1" id="Capa_1" xmlns="http://www.w3.org/2000/svg" xmlns:xlink="http://www.w3.org/1999/xlink" x="0px" y="0px"
	 viewBox="0 0 512 512" style="enable-background:new 0 0 512 512;" xml:space="preserve">
<g>
	<path style="fill:#607D8B;" d="M74.667,469.333c-5.891,0-10.667-4.776-10.667-10.667c0.305-36.522,3.946-72.941,10.88-108.8
		c1.406-5.721,7.184-9.218,12.904-7.812c5.404,1.328,8.879,6.587,7.981,12.079c-6.59,34.463-10.081,69.447-10.432,104.533
		C85.333,464.558,80.558,469.333,74.667,469.333z"/>
	<path style="fill:#607D8B;" d="M309.333,469.333c-5.891,0-10.667-4.776-10.667-10.667V416c0-5.891,4.776-10.667,10.667-10.667
		c5.891,0,10.667,4.776,10.667,10.667v42.667C320,464.558,315.224,469.333,309.333,469.333z"/>
</g>
<path style="fill:#455A64;" d="M160,149.333h298.667c29.455,0,53.333,23.878,53.333,53.333v170.667
	c0,29.455-23.878,53.333-53.333,53.333H160c-29.455,0-53.333-23.878-53.333-53.333V202.667
	C106.667,173.212,130.545,149.333,160,149.333z"/>
<path style="fill:#CFD8DC;" d="M160,170.667h298.667c17.673,0,32,14.327,32,32v138.667H128V202.667
	C128,184.994,142.327,170.667,160,170.667z"/>
<path style="fill:#455A64;" d="M394.667,469.333H224c-5.891,0-10.667-4.776-10.667-10.667S218.109,448,224,448h170.667
	c5.891,0,10.667,4.776,10.667,10.667S400.558,469.333,394.667,469.333z"/>
<path style="fill:#CFD8DC;" d="M32,42.667h106.667c5.891,0,10.667,4.776,10.667,10.667v64c0,5.891-4.776,10.667-10.667,10.667H32
	c-5.891,0-10.667-4.776-10.667-10.667v-64C21.333,47.442,26.109,42.667,32,42.667z"/>
<path style="fill:#2196F3;" d="M160,106.667H10.667C4.776,106.667,0,111.442,0,117.333v128c-0.005,2.831,1.115,5.548,3.115,7.552
	l21.333,21.333c2.004,1.999,4.721,3.12,7.552,3.115h106.667c2.831,0.005,5.548-1.115,7.552-3.115l21.333-21.333
	c1.999-2.004,3.12-4.721,3.115-7.552v-128C170.667,111.442,165.891,106.667,160,106.667z"/>
<g>
	<path style="fill:#90A4AE;" d="M64,85.333c-5.891,0-10.667-4.776-10.667-10.667V64c0-5.891,4.776-10.667,10.667-10.667
		c5.891,0,10.667,4.776,10.667,10.667v10.667C74.667,80.558,69.891,85.333,64,85.333z"/>
	<path style="fill:#90A4AE;" d="M106.667,85.333C100.776,85.333,96,80.558,96,74.667V64c0-5.891,4.776-10.667,10.667-10.667
		S117.333,58.109,117.333,64v10.667C117.333,80.558,112.558,85.333,106.667,85.333z"/>
</g>
<g>
	<path style="fill:#1976D2;" d="M53.333,106.667h64c5.891,0,10.667,4.776,10.667,10.667v64c0,5.891-4.776,10.667-10.667,10.667h-64
		c-5.891,0-10.667-4.776-10.667-10.667v-64C42.667,111.442,47.442,106.667,53.333,106.667z"/>
	<path style="fill:#1976D2;" d="M96,213.333H74.667c-5.891,0-10.667-4.776-10.667-10.667C64,196.776,68.776,192,74.667,192H96
		c5.891,0,10.667,4.776,10.667,10.667C106.667,208.558,101.891,213.333,96,213.333z"/>
</g>
<path style="fill:#2196F3;" d="M147.733,303.723c-1.943-3.142-5.373-5.054-9.067-5.056H32c-5.891,0-10.667,4.776-10.666,10.667
	c0,1.659,0.387,3.295,1.13,4.778l21.333,42.667c1.808,3.609,5.499,5.888,9.536,5.888h64c4.037,0,7.728-2.279,9.536-5.888
	l21.333-42.667C149.859,310.802,149.682,306.87,147.733,303.723z"/>
<path style="fill:#1976D2;" d="M32,256h106.667c5.891,0,10.667,4.776,10.667,10.667v42.667c0,5.891-4.776,10.667-10.667,10.667H32
	c-5.891,0-10.667-4.776-10.667-10.667v-42.667C21.333,260.776,26.109,256,32,256z"/>
<g>
</g>
<g>
</g>
<g>
</g>
<g>
</g>
<g>
</g>
<g>
</g>
<g>
</g>
<g>
</g>
<g>
</g>
<g>
</g>
<g>
</g>
<g>
</g>
<g>
</g>
<g>
</g>
<g>
</g>
</svg>
