<?xml version="1.0" encoding="iso-8859-1"?>
<!-- Generator: Adobe Illustrator 19.0.0, SVG Export Plug-In . SVG Version: 6.00 Build 0)  -->
<svg version="1.1" id="Capa_1" xmlns="http://www.w3.org/2000/svg" xmlns:xlink="http://www.w3.org/1999/xlink" x="0px" y="0px"
	 viewBox="0 0 511.179 511.179" style="enable-background:new 0 0 511.179 511.179;" xml:space="preserve">
<path style="fill:#455A64;" d="M508.056,269.371l-42.667-42.667c-4.165-4.164-10.917-4.164-15.083,0l-42.667,42.667
	c-4.164,4.165-4.164,10.917,0,15.083l42.667,42.667c4.165,4.164,10.917,4.164,15.083,0l42.667-42.667
	C512.22,280.288,512.22,273.536,508.056,269.371z"/>
<path style="fill:#546E7A;" d="M465.39,312.038l-42.667-42.667c-4.165-4.164-10.917-4.164-15.083,0l-128,128
	c-2.007,2.001-3.135,4.718-3.136,7.552v42.667c0,5.891,4.776,10.667,10.667,10.667h42.667c2.831,0.005,5.548-1.115,7.552-3.115
	l128-128c4.171-4.16,4.179-10.914,0.019-15.085C465.402,312.05,465.396,312.044,465.39,312.038z"/>
<g>
	<path style="fill:#64B5F6;" d="M443.566,153.19C387.749,89.871,307.556,53.392,223.15,52.923
		C138.757,53.401,58.581,89.88,2.776,153.19c-3.965,4.359-3.645,11.107,0.715,15.072c4.359,3.965,11.107,3.645,15.072-0.715
		c51.776-58.842,126.21-92.784,204.587-93.291c78.394,0.52,152.837,34.485,204.608,93.355c3.965,4.359,10.713,4.679,15.072,0.715
		c4.359-3.965,4.679-10.713,0.715-15.072L443.566,153.19z"/>
	<path style="fill:#64B5F6;" d="M223.171,138.256c-63.4,0.369-123.629,27.782-165.547,75.349
		c-3.965,4.359-3.645,11.107,0.715,15.072c4.359,3.965,11.107,3.645,15.072-0.715c37.889-43.1,92.375-67.976,149.76-68.373
		c57.369,0.368,111.853,25.204,149.76,68.267c3.965,4.359,10.713,4.679,15.072,0.715c4.359-3.965,4.679-10.713,0.715-15.072
		C346.784,165.967,286.556,138.593,223.171,138.256z"/>
	<path style="fill:#64B5F6;" d="M223.15,223.59c-42.384,0.231-82.653,18.549-110.677,50.347c-3.965,4.359-3.645,11.107,0.715,15.072
		c4.359,3.965,11.107,3.645,15.072-0.715l0,0c45.374-52.43,124.659-58.151,177.089-12.777c4.56,3.947,8.831,8.217,12.777,12.777
		c3.965,4.359,10.713,4.679,15.072,0.715s4.679-10.713,0.715-15.072C305.866,242.119,265.563,223.799,223.15,223.59z"/>
	<circle style="fill:#64B5F6;" cx="223.171" cy="362.256" r="53.333"/>
</g>
<g>
</g>
<g>
</g>
<g>
</g>
<g>
</g>
<g>
</g>
<g>
</g>
<g>
</g>
<g>
</g>
<g>
</g>
<g>
</g>
<g>
</g>
<g>
</g>
<g>
</g>
<g>
</g>
<g>
</g>
</svg>
