<?xml version="1.0" encoding="iso-8859-1"?>
<!-- Generator: Adobe Illustrator 19.0.0, SVG Export Plug-In . SVG Version: 6.00 Build 0)  -->
<svg version="1.1" id="Capa_1" xmlns="http://www.w3.org/2000/svg" xmlns:xlink="http://www.w3.org/1999/xlink" x="0px" y="0px"
	 viewBox="0 0 512 512" style="enable-background:new 0 0 512 512;" xml:space="preserve">
<circle style="fill:#90CAF9;" cx="202.631" cy="202.667" r="192"/>
<path style="fill:#2196F3;" d="M202.631,0C90.76-0.019,0.055,90.654,0.036,202.525C0.023,279.476,43.613,349.789,112.54,384
	c5.302,2.622,11.725,0.449,14.347-4.853c2.622-5.302,0.449-11.725-4.853-14.347c-21.974-10.918-41.521-26.155-57.472-44.8h42.325
	c0.213,0.512,0.341,1.088,0.555,1.6c2.262,5.443,8.509,8.022,13.952,5.76c5.443-2.262,8.022-8.509,5.76-13.952l0,0l0,0
	c2.071-4.925,0.069-10.618-4.629-13.163c-9.485-28.03-14.685-57.33-15.424-86.912h31.531c5.891,0,10.667-4.776,10.667-10.667
	c0-5.891-4.776-10.667-10.667-10.667h-31.701c0.798-29.02,5.829-57.767,14.933-85.333h70.101v96c0,5.891,4.776,10.667,10.667,10.667
	s10.667-4.776,10.667-10.667v-96h70.165c10.209,30.97,15.331,63.391,15.168,96c0,5.891,4.776,10.667,10.667,10.667
	s10.667-4.776,10.667-10.667c0.208-32.494-4.371-64.841-13.589-96h45.589c1.288-0.024,2.561-0.285,3.755-0.768
	c18.438,28.908,28.237,62.48,28.245,96.768c0,5.891,4.776,10.667,10.667,10.667c5.891,0,10.667-4.776,10.667-10.667
	C405.168,90.791,314.507,0.129,202.631,0z M136.881,33.856c-12.88,15.382-23.149,32.772-30.4,51.477H64.625
	C84.094,62.475,108.918,44.79,136.881,33.856z M99.377,298.667h-46.08c-1.361,0.008-2.708,0.275-3.968,0.789
	c-16.273-25.919-25.665-55.561-27.285-86.123h63.723C86.445,242.26,91.023,270.964,99.377,298.667z M85.596,192H21.831
	c1.76-30.594,11.307-60.231,27.733-86.101c1.187,0.481,2.453,0.741,3.733,0.768h45.589C90.696,134.397,86.227,163.092,85.596,192z
	 M130.097,85.333c10.015-29.229,32.781-52.317,61.867-62.741v62.741H130.097z M213.297,85.333V22.592
	c29.086,10.425,51.851,33.512,61.867,62.741H213.297z M298.78,85.333c-7.251-18.706-17.52-36.096-30.4-51.477
	c27.964,10.934,52.787,28.619,72.256,51.477H298.78z"/>
<path style="fill:#455A64;" d="M458.631,192H159.964c-29.455,0-53.333,23.878-53.333,53.333V416
	c0,29.455,23.878,53.333,53.333,53.333h138.667v21.333h-74.667c-5.891,0-10.667,4.776-10.667,10.667
	c0,5.891,4.776,10.667,10.667,10.667h170.667c5.891,0,10.667-4.776,10.667-10.667c0-5.891-4.776-10.667-10.667-10.667h-74.667
	v-21.333h138.667c29.455,0,53.333-23.878,53.333-53.333V245.333C511.964,215.878,488.086,192,458.631,192z"/>
<path style="fill:#ECEFF1;" d="M159.964,213.333h298.667c17.673,0,32,14.327,32,32v160H127.964v-160
	C127.964,227.66,142.291,213.333,159.964,213.333z"/>
<g>
</g>
<g>
</g>
<g>
</g>
<g>
</g>
<g>
</g>
<g>
</g>
<g>
</g>
<g>
</g>
<g>
</g>
<g>
</g>
<g>
</g>
<g>
</g>
<g>
</g>
<g>
</g>
<g>
</g>
</svg>
