<?xml version="1.0" encoding="iso-8859-1"?>
<!-- Generator: Adobe Illustrator 19.0.0, SVG Export Plug-In . SVG Version: 6.00 Build 0)  -->
<svg version="1.1" id="Capa_1" xmlns="http://www.w3.org/2000/svg" xmlns:xlink="http://www.w3.org/1999/xlink" x="0px" y="0px"
	 viewBox="0 0 512 512" style="enable-background:new 0 0 512 512;" xml:space="preserve">
<g>
	<path style="fill:#607D8B;" d="M309.333,490.667c-5.891,0-10.667-4.776-10.667-10.667v-42.667c0-5.891,4.776-10.667,10.667-10.667
		S320,431.442,320,437.333V480C320,485.891,315.224,490.667,309.333,490.667z"/>
	<path style="fill:#607D8B;" d="M53.333,21.333H352c29.455,0,53.333,23.878,53.333,53.333v170.667
		c0,29.455-23.878,53.333-53.333,53.333H53.333C23.878,298.667,0,274.789,0,245.333V74.667C0,45.211,23.878,21.333,53.333,21.333z"
		/>
</g>
<path style="fill:#CFD8DC;" d="M53.333,42.667H352c17.673,0,32,14.327,32,32v160H21.333v-160
	C21.333,56.994,35.66,42.667,53.333,42.667z"/>
<path style="fill:#455A64;" d="M160,170.667h298.667C488.122,170.667,512,194.545,512,224v170.667
	C512,424.122,488.122,448,458.667,448H160c-29.455,0-53.333-23.878-53.333-53.333V224C106.667,194.545,130.545,170.667,160,170.667z
	"/>
<path style="fill:#CFD8DC;" d="M160,192h298.667c17.673,0,32,14.327,32,32v160H128V224C128,206.327,142.327,192,160,192z"/>
<path style="fill:#455A64;" d="M394.667,490.667H224c-5.891,0-10.667-4.776-10.667-10.667c0-5.891,4.776-10.667,10.667-10.667
	h170.667c5.891,0,10.667,4.776,10.667,10.667C405.333,485.891,400.558,490.667,394.667,490.667z"/>
<g>
</g>
<g>
</g>
<g>
</g>
<g>
</g>
<g>
</g>
<g>
</g>
<g>
</g>
<g>
</g>
<g>
</g>
<g>
</g>
<g>
</g>
<g>
</g>
<g>
</g>
<g>
</g>
<g>
</g>
</svg>
