<?xml version="1.0" encoding="iso-8859-1"?>
<!-- Generator: Adobe Illustrator 19.0.0, SVG Export Plug-In . SVG Version: 6.00 Build 0)  -->
<svg version="1.1" id="Capa_1" xmlns="http://www.w3.org/2000/svg" xmlns:xlink="http://www.w3.org/1999/xlink" x="0px" y="0px"
	 viewBox="0 0 512.1 512.1" style="enable-background:new 0 0 512.1 512.1;" xml:space="preserve">
<g>
	<path style="fill:#607D8B;" d="M501.434,469.054H288.1c-5.891,0-10.667-4.776-10.667-10.667c0-5.891,4.776-10.667,10.667-10.667
		h213.333c5.891,0,10.667,4.776,10.667,10.667C512.1,464.278,507.325,469.054,501.434,469.054z"/>
	<path style="fill:#607D8B;" d="M202.767,469.054h-192c-5.891,0-10.667-4.776-10.667-10.667c0-5.891,4.776-10.667,10.667-10.667h192
		c5.891,0,10.667,4.776,10.667,10.667C213.434,464.278,208.658,469.054,202.767,469.054z"/>
	<path style="fill:#607D8B;" d="M245.434,426.387c-5.891,0-10.667-4.776-10.667-10.667v-42.667c0-5.891,4.776-10.667,10.667-10.667
		s10.667,4.776,10.667,10.667v42.667C256.1,421.612,251.325,426.387,245.434,426.387z"/>
</g>
<path style="fill:#455A64;" d="M288.1,426.387h-10.667v-10.667c0-5.891-4.776-10.667-10.667-10.667H224.1
	c-5.891,0-10.667,4.776-10.667,10.667v10.667h-10.667c-5.891,0-10.667,4.776-10.667,10.667v42.667
	c0,5.891,4.776,10.667,10.667,10.667H288.1c5.891,0,10.667-4.776,10.667-10.667v-42.667
	C298.767,431.163,293.992,426.387,288.1,426.387z"/>
<path style="fill:#CFD8DC;" d="M402.106,149.289C384.181,62.76,299.504,7.146,212.976,25.072
	C138.951,40.407,85.76,105.458,85.434,181.054c0,3.605,0.149,7.296,0.469,11.2C33.178,197.835-5.04,245.101,0.541,297.826
	c5.173,48.87,46.416,85.943,95.559,85.895h298.667c64.801-0.043,117.298-52.61,117.255-117.411
	C511.981,204.418,463.874,153.201,402.106,149.289L402.106,149.289z"/>
<g>
</g>
<g>
</g>
<g>
</g>
<g>
</g>
<g>
</g>
<g>
</g>
<g>
</g>
<g>
</g>
<g>
</g>
<g>
</g>
<g>
</g>
<g>
</g>
<g>
</g>
<g>
</g>
<g>
</g>
</svg>
