<?xml version="1.0" encoding="iso-8859-1"?>
<!-- Generator: Adobe Illustrator 19.0.0, SVG Export Plug-In . SVG Version: 6.00 Build 0)  -->
<svg version="1.1" id="Capa_1" xmlns="http://www.w3.org/2000/svg" xmlns:xlink="http://www.w3.org/1999/xlink" x="0px" y="0px"
	 viewBox="0 0 512.648 512.648" style="enable-background:new 0 0 512.648 512.648;" xml:space="preserve">
<circle style="fill:#90CAF9;" cx="245.981" cy="246.17" r="234.667"/>
<path style="fill:#2196F3;" d="M245.981,0.858C110.488,0.5,0.359,110.049,0.001,245.542s109.192,245.622,244.685,245.98
	c9.435,0.025,18.864-0.495,28.239-1.556c5.856-0.648,10.077-5.92,9.429-11.776c-0.648-5.856-5.92-10.077-11.776-9.429
	c-4.587,0.512-9.28,0.576-13.931,0.811V256.858h212.715c-0.235,4.651-0.299,9.365-0.811,13.931
	c-0.588,5.862,3.686,11.09,9.548,11.679c5.786,0.581,10.971-3.579,11.658-9.353C504.897,138.741,408.24,17.537,273.868,2.397
	C264.609,1.353,255.298,0.84,245.981,0.858z M469.448,235.524h-85.099c-0.571-36.113-5.973-71.987-16.064-106.667h68.139
	C456.332,161.022,467.699,197.737,469.448,235.524z M421.576,107.524h-60.544c-9.827-27.512-25.207-52.71-45.184-74.027
	c41.719,13.803,78.472,39.542,105.707,74.027H421.576z M22.536,256.858h85.077c0.571,36.113,5.973,71.987,16.064,106.667H55.538
	c-19.909-32.165-31.276-68.88-33.024-106.667H22.536z M55.538,128.858h68.139c-10.091,34.679-15.493,70.554-16.064,106.667H22.514
	C24.263,197.737,35.63,161.022,55.538,128.858L55.538,128.858z M146.781,128.858h88.533v106.667H128.946
	C129.688,199.292,135.696,163.36,146.781,128.858L146.781,128.858z M154.696,107.524c19.563-46.507,48.427-78.421,80.619-84.267
	v84.267H154.696z M256.648,23.258c32.192,5.845,61.056,37.76,80.619,84.267h-80.619V23.258z M176.136,33.498
	c-19.985,21.315-35.372,46.513-45.205,74.027H70.408C97.648,73.036,134.409,47.297,176.136,33.498z M70.408,384.858h60.523
	c9.827,27.512,25.207,52.71,45.184,74.027C134.396,445.081,97.643,419.343,70.408,384.858z M154.696,384.858h80.619v84.267
	C203.122,463.279,174.258,431.343,154.696,384.858L154.696,384.858z M235.314,363.524h-88.533
	c-11.085-34.503-17.093-70.434-17.835-106.667h106.368V363.524z M256.648,128.858h88.533
	c11.085,34.503,17.093,70.434,17.835,106.667H256.648V128.858z"/>
<circle style="fill:#FAFAFA;" cx="395.314" cy="394.458" r="117.333"/>
<path style="fill:#F44336;" d="M478.514,477.146c44.725-46.892,42.968-121.163-3.924-165.888
	c-45.332-43.237-116.633-43.237-161.964,0l-0.256,0.171l-0.171,0.256c-44.75,46.869-43.031,121.141,3.838,165.89
	c45.309,43.26,116.611,43.297,161.965,0.083l0.256-0.171L478.514,477.146z M491.314,394.458
	c-0.095,21.715-7.624,42.743-21.333,59.584L335.73,319.791c16.841-13.709,37.869-21.238,59.584-21.333
	C448.334,298.458,491.314,341.438,491.314,394.458z M299.314,394.458c0.095-21.715,7.624-42.743,21.333-59.584l134.251,134.251
	c-16.841,13.709-37.869,21.238-59.584,21.333C342.295,490.458,299.314,447.477,299.314,394.458z"/>
<g>
</g>
<g>
</g>
<g>
</g>
<g>
</g>
<g>
</g>
<g>
</g>
<g>
</g>
<g>
</g>
<g>
</g>
<g>
</g>
<g>
</g>
<g>
</g>
<g>
</g>
<g>
</g>
<g>
</g>
</svg>
