<?xml version="1.0" encoding="iso-8859-1"?>
<!-- Generator: Adobe Illustrator 19.0.0, SVG Export Plug-In . SVG Version: 6.00 Build 0)  -->
<svg version="1.1" id="Capa_1" xmlns="http://www.w3.org/2000/svg" xmlns:xlink="http://www.w3.org/1999/xlink" x="0px" y="0px"
	 viewBox="0 0 512 512" style="enable-background:new 0 0 512 512;" xml:space="preserve">
<g>
	<path style="fill:#607D8B;" d="M256,448c-5.891,0-10.667-4.776-10.667-10.667v-42.667c0-5.891,4.776-10.667,10.667-10.667
		c5.891,0,10.667,4.776,10.667,10.667v42.667C266.667,443.224,261.891,448,256,448z"/>
	<path style="fill:#607D8B;" d="M405.333,490.667H298.667c-5.891,0-10.667-4.776-10.667-10.667c0-5.891,4.776-10.667,10.667-10.667
		h106.667c5.891,0,10.667,4.776,10.667,10.667C416,485.891,411.224,490.667,405.333,490.667z"/>
	<path style="fill:#607D8B;" d="M213.333,490.667H106.667C100.776,490.667,96,485.891,96,480c0-5.891,4.776-10.667,10.667-10.667
		h106.667c5.891,0,10.667,4.776,10.667,10.667C224,485.891,219.224,490.667,213.333,490.667z"/>
</g>
<path style="fill:#455A64;" d="M298.667,448H288v-10.667c0-5.891-4.776-10.667-10.667-10.667h-42.667
	c-5.891,0-10.667,4.776-10.667,10.667V448h-10.667c-5.891,0-10.667,4.776-10.667,10.667v42.667c0,5.891,4.776,10.667,10.667,10.667
	h85.333c5.891,0,10.667-4.776,10.667-10.667v-42.667C309.333,452.776,304.558,448,298.667,448z"/>
<circle style="fill:#BBDEFB;" cx="256" cy="202.667" r="192"/>
<path style="fill:#2196F3;" d="M256,0C144.07,0,53.333,90.737,53.333,202.667S144.07,405.333,256,405.333
	s202.667-90.737,202.667-202.667C458.537,90.791,367.876,0.129,256,0z M409.088,299.435c-1.194-0.483-2.467-0.744-3.755-0.768
	h-45.589c8.19-27.73,12.66-56.426,13.291-85.333H436.8C435.046,243.925,425.507,273.563,409.088,299.435z M102.891,299.435
	c-16.412-25.874-25.943-55.511-27.691-86.101h63.765c0.631,28.908,5.1,57.603,13.291,85.333h-45.589
	c-1.288,0.024-2.561,0.285-3.755,0.768H102.891z M102.891,105.92c1.202,0.479,2.482,0.732,3.776,0.747h45.589
	c-8.19,27.73-12.66,56.426-13.291,85.333H75.2c1.754-30.592,11.293-60.229,27.712-86.101L102.891,105.92z M266.667,85.333V22.592
	c29.086,10.425,51.851,33.512,61.867,62.741H266.667z M336.832,106.667c9.104,27.566,14.135,56.314,14.933,85.333h-85.099v-85.333
	H336.832z M245.333,22.592v62.741h-61.867C193.482,56.104,216.248,33.017,245.333,22.592z M245.333,106.667V192h-85.035
	c0.798-29.02,5.829-57.767,14.933-85.333H245.333z M160.299,213.333h85.035v85.333h-70.165
	C166.085,271.097,161.076,242.35,160.299,213.333z M245.333,320v62.741c-29.086-10.425-51.851-33.512-61.867-62.741H245.333z
	 M266.667,382.741V320h61.867C318.518,349.229,295.752,372.317,266.667,382.741z M266.667,298.667v-85.333h85.035
	c-0.798,29.02-5.829,57.767-14.933,85.333H266.667z M373.035,192c-0.631-28.908-5.1-57.603-13.291-85.333h45.589
	c1.288-0.024,2.561-0.285,3.755-0.768c16.419,25.872,25.958,55.509,27.712,86.101H373.035z M394.005,85.333h-41.856
	c-7.251-18.706-17.52-36.096-30.4-51.477C349.714,44.789,374.538,62.474,394.005,85.333z M190.251,33.856
	c-12.88,15.382-23.149,32.772-30.4,51.477h-41.856C137.462,62.474,162.286,44.789,190.251,33.856z M117.995,320h41.856
	c7.251,18.706,17.52,36.096,30.4,51.477C162.286,360.544,137.462,342.859,117.995,320z M321.749,371.477
	c12.88-15.382,23.149-32.772,30.4-51.477h41.856C374.538,342.859,349.714,360.544,321.749,371.477z"/>
<g>
</g>
<g>
</g>
<g>
</g>
<g>
</g>
<g>
</g>
<g>
</g>
<g>
</g>
<g>
</g>
<g>
</g>
<g>
</g>
<g>
</g>
<g>
</g>
<g>
</g>
<g>
</g>
<g>
</g>
</svg>
