<?xml version="1.0" encoding="iso-8859-1"?>
<!-- Generator: Adobe Illustrator 19.0.0, SVG Export Plug-In . SVG Version: 6.00 Build 0)  -->
<svg version="1.1" id="Capa_1" xmlns="http://www.w3.org/2000/svg" xmlns:xlink="http://www.w3.org/1999/xlink" x="0px" y="0px"
	 viewBox="0 0 490.667 490.667" style="enable-background:new 0 0 490.667 490.667;" xml:space="preserve">
<g>
	<g>
		<path d="M256,44.075V128h66.923C307.307,82.645,283.2,50.773,256,44.075z"/>
	</g>
</g>
<g>
	<g>
		<path d="M167.744,128h66.923V44.075C207.467,50.773,183.36,82.645,167.744,128z"/>
	</g>
</g>
<g>
	<g>
		<path d="M396.075,110.208c-24.747-27.605-56.341-47.509-90.965-58.283c16.661,18.517,30.549,44.629,40.512,76.075h42.496
			c4.203,0,8.021-2.475,9.749-6.315C399.595,117.845,398.891,113.344,396.075,110.208z"/>
	</g>
</g>
<g>
	<g>
		<path d="M94.592,110.208c-2.816,3.136-3.52,7.637-1.813,11.477c1.728,3.84,5.525,6.315,9.749,6.315h42.496
			c9.963-31.445,23.851-57.557,40.512-76.075C150.933,62.699,119.317,82.603,94.592,110.208z"/>
	</g>
</g>
<g>
	<g>
		<path d="M167.744,362.667c15.616,45.355,39.723,77.227,66.923,83.925v-83.925H167.744z"/>
	</g>
</g>
<g>
	<g>
		<path d="M256,362.667v83.925c27.2-6.699,51.307-38.571,66.923-83.925H256z"/>
	</g>
</g>
<g>
	<g>
		<path d="M397.888,368.981c-1.728-3.84-5.547-6.315-9.749-6.315h-42.496c-9.963,31.445-23.851,57.557-40.512,76.075
			c34.624-10.773,66.219-30.677,90.965-58.283C398.891,377.323,399.595,372.821,397.888,368.981z"/>
	</g>
</g>
<g>
	<g>
		<path d="M145.024,362.667h-42.496c-4.203,0-8.021,2.475-9.749,6.315c-1.707,3.84-1.003,8.341,1.813,11.477
			c24.747,27.605,56.341,47.509,90.965,58.283C168.875,420.224,154.987,394.112,145.024,362.667z"/>
	</g>
</g>
<g>
	<g>
		<path d="M437.333,149.333h-384C23.915,149.333,0,173.269,0,202.667V288c0,29.397,23.915,53.333,53.333,53.333h384
			c29.419,0,53.333-23.936,53.333-53.333v-85.333C490.667,173.269,466.752,149.333,437.333,149.333z M170.347,205.248
			l-21.333,85.333c-1.152,4.608-5.205,7.893-9.941,8.064c-0.149,0-0.299,0-0.427,0c-4.587,0-8.661-2.923-10.133-7.296
			l-11.179-33.621l-11.2,33.643c-1.493,4.48-4.885,7.509-10.539,7.275c-4.736-0.171-8.789-3.477-9.941-8.064L64.32,205.248
			c-1.429-5.696,2.027-11.499,7.765-12.928c5.632-1.451,11.499,2.027,12.928,7.765l12.437,49.792l9.749-29.248
			c2.923-8.704,17.344-8.704,20.245,0l9.749,29.248l12.437-49.792c1.451-5.739,7.147-9.195,12.949-7.765
			C168.32,193.749,171.776,199.552,170.347,205.248z M298.347,205.248l-21.333,85.333c-1.152,4.608-5.205,7.893-9.941,8.064
			c-0.149,0-0.299,0-0.427,0c-4.587,0-8.661-2.923-10.133-7.296l-11.179-33.621l-11.2,33.643c-1.493,4.48-4.971,7.509-10.539,7.275
			c-4.736-0.171-8.789-3.477-9.941-8.064l-21.333-85.333c-1.429-5.696,2.027-11.499,7.765-12.928
			c5.632-1.451,11.52,2.027,12.928,7.765l12.437,49.792l9.749-29.248c2.923-8.704,17.344-8.704,20.245,0l9.749,29.248l12.437-49.792
			c1.408-5.739,7.125-9.195,12.928-7.765C296.32,193.749,299.776,199.552,298.347,205.248z M426.347,205.248l-21.333,85.333
			c-1.152,4.608-5.205,7.893-9.941,8.064c-0.149,0-0.299,0-0.427,0c-4.587,0-8.661-2.923-10.133-7.296l-11.179-33.621l-11.2,33.643
			c-1.493,4.48-5.077,7.509-10.539,7.275c-4.736-0.171-8.789-3.477-9.941-8.064l-21.333-85.333
			c-1.408-5.717,2.048-11.499,7.765-12.928c5.632-1.451,11.52,2.027,12.928,7.765l12.437,49.792l9.749-29.248
			c2.923-8.704,17.344-8.704,20.245,0l9.749,29.248l12.437-49.792c1.408-5.739,7.104-9.195,12.928-7.765
			C424.32,193.749,427.776,199.552,426.347,205.248z"/>
	</g>
</g>
<g>
</g>
<g>
</g>
<g>
</g>
<g>
</g>
<g>
</g>
<g>
</g>
<g>
</g>
<g>
</g>
<g>
</g>
<g>
</g>
<g>
</g>
<g>
</g>
<g>
</g>
<g>
</g>
<g>
</g>
</svg>
