<?xml version="1.0" encoding="iso-8859-1"?>
<!-- Generator: Adobe Illustrator 19.0.0, SVG Export Plug-In . SVG Version: 6.00 Build 0)  -->
<svg version="1.1" id="Capa_1" xmlns="http://www.w3.org/2000/svg" xmlns:xlink="http://www.w3.org/1999/xlink" x="0px" y="0px"
	 viewBox="0 0 511.151 511.151" style="enable-background:new 0 0 511.151 511.151;" xml:space="preserve">
<g>
	<g>
		<path d="M504.516,304.503c-0.96-2.816-3.029-5.099-5.739-6.293c-2.688-1.216-5.781-1.259-8.533-0.085
			c-4.907,2.133-10.731,0.299-13.312-4.139c-2.645-4.565-1.344-10.283,3.093-13.611c2.368-1.771,3.904-4.48,4.203-7.445
			c0.299-2.944-0.64-5.888-2.603-8.128c-17.408-19.797-39.829-32.896-64.832-37.845c-2.944-0.64-6.016,0.085-8.427,1.877
			c-2.411,1.771-3.968,4.501-4.288,7.488c-0.555,5.504-4.992,9.664-10.283,9.664c-5.291,0-9.728-4.139-10.283-9.664
			c-0.32-2.987-1.856-5.717-4.288-7.488c-2.411-1.792-5.504-2.496-8.427-1.877c-25.003,4.971-47.424,18.069-64.832,37.845
			c-1.963,2.219-2.901,5.184-2.603,8.128c0.299,2.965,1.813,5.653,4.203,7.445c4.416,3.328,5.717,9.045,3.093,13.611
			c-2.56,4.416-8.405,6.229-13.312,4.139c-2.752-1.173-5.824-1.131-8.533,0.085c-2.709,1.216-4.779,3.499-5.739,6.293
			c-4.459,13.141-6.635,25.408-6.635,37.461s2.176,24.32,6.635,37.461c0.96,2.816,3.029,5.099,5.739,6.293
			c2.688,1.216,5.781,1.259,8.533,0.085c4.928-2.069,10.752-0.277,13.312,4.139c2.645,4.565,1.344,10.283-3.093,13.611
			c-2.368,1.771-3.904,4.48-4.203,7.445c-0.299,2.944,0.64,5.888,2.603,8.128c17.408,19.797,39.829,32.896,64.832,37.845
			c2.901,0.597,5.995-0.085,8.427-1.877c2.411-1.771,3.968-4.501,4.288-7.488c0.555-5.504,4.992-9.664,10.283-9.664
			c5.291,0,9.728,4.139,10.283,9.664c0.32,2.987,1.856,5.717,4.288,7.488c1.835,1.365,4.075,2.091,6.336,2.091
			c0.704,0,1.387-0.064,2.091-0.213c25.003-4.971,47.424-18.069,64.832-37.845c1.963-2.219,2.901-5.184,2.603-8.128
			c-0.299-2.965-1.813-5.653-4.203-7.445c-4.416-3.328-5.717-9.045-3.093-13.611c2.539-4.437,8.363-6.251,13.312-4.139
			c2.731,1.152,5.824,1.109,8.533-0.085c2.709-1.216,4.779-3.499,5.739-6.293c4.459-13.141,6.635-25.408,6.635-37.461
			S508.975,317.645,504.516,304.503z M393.818,395.298c-29.397,0-53.333-23.936-53.333-53.333s23.936-53.333,53.333-53.333
			s53.333,23.936,53.333,53.333S423.215,395.298,393.818,395.298z"/>
	</g>
</g>
<g>
	<g>
		<circle cx="393.818" cy="341.986" r="32"/>
	</g>
</g>
<g>
	<g>
		<path d="M443.524,154.317C384.73,89.591,306.458,53.965,223.151,53.965S61.572,89.613,2.778,154.317
			c-3.968,4.352-3.648,11.115,0.725,15.061c4.373,3.947,11.115,3.669,15.061-0.704c54.72-60.224,127.36-93.376,204.587-93.376
			s149.888,33.152,204.587,93.355c2.112,2.325,4.992,3.499,7.893,3.499c2.56,0,5.141-0.917,7.168-2.752
			C447.151,165.431,447.492,158.69,443.524,154.317z"/>
	</g>
</g>
<g>
	<g>
		<path d="M362.18,189.879c-92.416-75.243-223.339-64.619-304.576,24.747c-3.947,4.373-3.627,11.115,0.725,15.083
			c2.048,1.856,4.608,2.773,7.168,2.773c2.901,0,5.803-1.173,7.893-3.477c74.667-82.176,190.485-91.669,275.307-22.571
			c4.587,3.755,11.328,3.008,15.019-1.536C367.428,200.311,366.746,193.591,362.18,189.879z"/>
	</g>
</g>
<g>
	<g>
		<path d="M283.994,237.047c-48.747-21.483-120.64-18.069-171.541,37.931c-3.947,4.373-3.627,11.115,0.725,15.083
			c2.048,1.856,4.608,2.773,7.168,2.773c2.88,0,5.781-1.173,7.893-3.499c43.755-48.171,105.408-51.2,147.115-32.768
			c5.44,2.389,11.691-0.085,14.08-5.461C291.823,245.73,289.37,239.437,283.994,237.047z"/>
	</g>
</g>
<g>
	<g>
		<path d="M262.916,386.295c-5.227-15.381-7.765-29.888-7.765-44.331c0-3.392,0.448-6.805,0.853-10.219l0.384-3.328
			c0.448-4.053-1.472-8.021-4.928-10.197c-8.576-5.397-18.368-8.256-28.309-8.256c-29.397,0-53.333,23.936-53.333,53.333
			c0,29.397,23.936,53.333,53.333,53.333c14.699,0,28.437-5.931,38.656-16.725C264.73,396.834,264.559,390.199,262.916,386.295z"/>
	</g>
</g>
<g>
</g>
<g>
</g>
<g>
</g>
<g>
</g>
<g>
</g>
<g>
</g>
<g>
</g>
<g>
</g>
<g>
</g>
<g>
</g>
<g>
</g>
<g>
</g>
<g>
</g>
<g>
</g>
<g>
</g>
</svg>
