<?xml version="1.0" encoding="iso-8859-1"?>
<!-- Generator: Adobe Illustrator 19.0.0, SVG Export Plug-In . SVG Version: 6.00 Build 0)  -->
<svg version="1.1" id="Capa_1" xmlns="http://www.w3.org/2000/svg" xmlns:xlink="http://www.w3.org/1999/xlink" x="0px" y="0px"
	 viewBox="0 0 511.151 511.151" style="enable-background:new 0 0 511.151 511.151;" xml:space="preserve">
<g>
	<g>
		<path d="M443.524,153.261C384.73,88.536,306.458,52.909,223.151,52.909S61.572,88.536,2.778,153.261
			c-3.968,4.352-3.648,11.115,0.725,15.061c4.373,3.947,11.115,3.669,15.061-0.725c54.72-60.203,127.36-93.355,204.587-93.355
			s149.867,33.152,204.587,93.355c2.112,2.325,4.992,3.499,7.893,3.499c2.56,0,5.141-0.917,7.168-2.752
			C447.151,164.375,447.492,157.634,443.524,153.261z"/>
	</g>
</g>
<g>
	<g>
		<path d="M361.818,188.546c-92.352-74.944-223.147-64.171-304.213,25.024c-3.947,4.373-3.627,11.115,0.725,15.083
			c2.048,1.856,4.608,2.773,7.168,2.773c2.901,0,5.803-1.173,7.893-3.477c74.539-82.027,190.187-91.627,274.987-22.848
			c4.587,3.733,11.307,3.029,14.997-1.557C367.108,198.978,366.383,192.258,361.818,188.546z"/>
	</g>
</g>
<g>
	<g>
		<path d="M283.311,235.714c-48.555-21.099-120.213-17.493-170.859,38.208c-3.947,4.373-3.627,11.115,0.725,15.083
			c2.048,1.856,4.608,2.773,7.168,2.773c2.88,0,5.781-1.173,7.893-3.52c43.52-47.893,104.981-51.093,146.56-32.981
			c5.397,2.347,11.691-0.149,14.037-5.525C291.183,244.354,288.708,238.061,283.311,235.714z"/>
	</g>
</g>
<g>
	<g>
		<path d="M263.684,388.311c-5.675-15.509-8.533-31.445-8.533-47.403c0-4.715,0.256-9.344,0.704-13.952
			c0.405-4.075-1.557-8.021-5.056-10.155c-8.469-5.163-18.027-7.893-27.648-7.893c-29.397,0-53.333,23.936-53.333,53.333
			s23.936,53.333,53.333,53.333c14.464,0,28.011-5.739,38.165-16.149C264.175,396.482,265.092,392.173,263.684,388.311z"/>
	</g>
</g>
<g>
	<g>
		<path d="M393.818,223.575c-64.704,0-117.333,52.629-117.333,117.333s52.629,117.333,117.333,117.333
			s117.333-52.629,117.333-117.333S458.522,223.575,393.818,223.575z M401.498,412.376c-2.133,2.133-4.907,3.2-7.68,3.2
			c-2.773,0-5.333-1.067-7.467-2.987c-2.133-2.133-3.2-4.693-3.2-7.68c0-2.773,1.067-5.547,3.2-7.467
			c4.053-4.053,10.88-4.053,14.933-0.213c2.133,2.133,3.2,4.907,3.2,7.68C404.484,407.682,403.418,410.242,401.498,412.376z
			 M404.506,349.613l-0.021,12.629c0,5.888-4.779,10.667-10.667,10.667c-5.888,0-10.667-4.8-10.667-10.667l0.021-21.333
			c0-5.056,3.563-9.408,8.512-10.432l2.325-0.448c21.696-4.011,31.808-10.709,31.808-21.12c0-11.563-14.677-21.333-32.021-21.333
			c-16.704,0-31.083,9.045-32,20.181c-0.491,5.867-5.589,10.389-11.52,9.728c-5.867-0.491-10.219-5.653-9.728-11.52
			c1.899-22.656,24.811-39.723,53.269-39.723c29.419,0,53.355,19.136,53.355,42.667
			C447.151,329.282,432.815,342.957,404.506,349.613z"/>
	</g>
</g>
<g>
</g>
<g>
</g>
<g>
</g>
<g>
</g>
<g>
</g>
<g>
</g>
<g>
</g>
<g>
</g>
<g>
</g>
<g>
</g>
<g>
</g>
<g>
</g>
<g>
</g>
<g>
</g>
<g>
</g>
</svg>
