<?xml version="1.0" encoding="iso-8859-1"?>
<!-- Generator: Adobe Illustrator 19.0.0, SVG Export Plug-In . SVG Version: 6.00 Build 0)  -->
<svg version="1.1" id="Capa_1" xmlns="http://www.w3.org/2000/svg" xmlns:xlink="http://www.w3.org/1999/xlink" x="0px" y="0px"
	 viewBox="0 0 511.151 511.151" style="enable-background:new 0 0 511.151 511.151;" xml:space="preserve">
<g>
	<g>
		<path d="M393.818,223.575c-64.683,0-117.333,52.629-117.333,117.333s52.651,117.333,117.333,117.333
			s117.333-52.629,117.333-117.333S458.5,223.575,393.818,223.575z M444.036,391.127c-2.091,2.091-4.821,3.115-7.552,3.115
			s-5.461-1.045-7.552-3.115l-42.667-42.667c-1.984-2.005-3.115-4.715-3.115-7.552v-64c0-5.888,4.779-10.667,10.667-10.667
			c5.888,0,10.667,4.779,10.667,10.667v59.584l39.552,39.552C448.196,380.205,448.196,386.946,444.036,391.127z"/>
	</g>
</g>
<g>
	<g>
		<path d="M443.524,153.261C384.708,88.536,306.458,52.909,223.151,52.909S61.594,88.536,2.778,153.239
			c-3.968,4.373-3.648,11.115,0.725,15.083c4.373,3.968,11.115,3.669,15.061-0.725c54.72-60.203,127.381-93.355,204.587-93.355
			s149.867,33.152,204.587,93.355c2.112,2.325,4.992,3.499,7.893,3.499c2.56,0,5.12-0.917,7.168-2.752
			C447.172,164.375,447.492,157.634,443.524,153.261z"/>
	</g>
</g>
<g>
	<g>
		<path d="M361.839,188.546c-92.416-74.923-223.168-64.171-304.235,25.024c-3.968,4.373-3.648,11.115,0.725,15.083
			c2.048,1.856,4.608,2.773,7.168,2.773c2.901,0,5.803-1.173,7.893-3.477c74.56-82.048,190.187-91.627,274.987-22.848
			c4.587,3.712,11.285,3.029,15.019-1.557C367.108,198.978,366.404,192.258,361.839,188.546z"/>
	</g>
</g>
<g>
	<g>
		<path d="M283.311,235.714c-48.555-21.141-120.213-17.493-170.859,38.208c-3.968,4.373-3.648,11.115,0.725,15.083
			c2.048,1.856,4.608,2.773,7.168,2.773c2.88,0,5.781-1.173,7.915-3.52c43.52-47.915,104.96-51.093,146.56-32.981
			c5.376,2.347,11.691-0.128,14.016-5.525C291.183,244.354,288.73,238.061,283.311,235.714z"/>
	</g>
</g>
<g>
	<g>
		<path d="M263.684,388.311c-5.675-15.509-8.533-31.445-8.533-47.403c0-4.715,0.256-9.365,0.704-13.973
			c0.405-4.075-1.579-8-5.056-10.133c-8.469-5.163-18.048-7.893-27.648-7.893c-29.419,0-53.333,23.936-53.333,53.333
			s23.915,53.333,53.333,53.333c14.464,0,28.011-5.739,38.165-16.149C264.175,396.482,265.092,392.173,263.684,388.311z"/>
	</g>
</g>
<g>
</g>
<g>
</g>
<g>
</g>
<g>
</g>
<g>
</g>
<g>
</g>
<g>
</g>
<g>
</g>
<g>
</g>
<g>
</g>
<g>
</g>
<g>
</g>
<g>
</g>
<g>
</g>
<g>
</g>
</svg>
