<?xml version="1.0" encoding="iso-8859-1"?>
<!-- Generator: Adobe Illustrator 19.0.0, SVG Export Plug-In . SVG Version: 6.00 Build 0)  -->
<svg version="1.1" id="Capa_1" xmlns="http://www.w3.org/2000/svg" xmlns:xlink="http://www.w3.org/1999/xlink" x="0px" y="0px"
	 viewBox="0 0 511.941 511.941" style="enable-background:new 0 0 511.941 511.941;" xml:space="preserve">
<g>
	<g>
		<rect x="368.747" y="91.628" transform="matrix(0.7071 -0.7071 0.7071 0.7071 41.3836 291.9964)" width="8.832" height="8.832"/>
	</g>
</g>
<g>
	<g>
		<rect x="411.534" y="134.258" transform="matrix(0.7071 -0.7071 0.7071 0.7071 23.7713 334.7375)" width="8.832" height="8.832"/>
	</g>
</g>
<g>
	<g>
		<path d="M508.817,131.12l-128-128c-4.16-4.16-10.923-4.16-15.083,0L259.068,109.787c-4.16,4.16-4.16,10.923,0,15.083l128,128
			c2.091,2.091,4.821,3.115,7.552,3.115s5.461-1.045,7.552-3.115l106.667-106.667C512.977,142.021,512.977,135.28,508.817,131.12z
			 M373.18,128.091c-2.731,0-5.461-1.045-7.552-3.115l-21.333-21.333c-4.16-4.16-4.16-10.923,0-15.083
			c10.176-10.176,16.149-16.149,19.968-19.648c0.405-0.597,0.853-1.152,1.365-1.685l0.256,0.235
			c4.075-3.563,5.184-3.563,7.509-3.563c3.755,0,7.168,1.963,9.088,5.077l19.584,19.584c4.16,4.16,4.16,10.923,0,15.083
			l-21.333,21.333C378.641,127.045,375.911,128.091,373.18,128.091z M444.817,146.203l-21.333,21.333
			c-2.091,2.091-4.821,3.115-7.552,3.115s-5.461-1.045-7.552-3.115l-21.333-21.333c-4.16-4.16-4.16-10.923,0-15.083l21.333-21.333
			c4.16-4.16,10.923-4.16,15.083,0l21.333,21.333C448.977,135.28,448.977,142.021,444.817,146.203z"/>
	</g>
</g>
<g>
	<g>
		<path d="M423.484,259.12l-21.333-21.333c-4.16-4.16-10.923-4.16-15.083,0L274.151,124.869c4.16-4.16,4.16-10.923,0-15.083
			l-21.333-21.333c-4.16-4.16-10.923-4.16-15.083,0L33.233,292.955c-44.309,44.331-44.309,116.437,0,160.747l25.003,25.003
			c22.165,22.165,51.264,33.237,80.384,33.237s58.219-11.093,80.384-33.237l204.501-204.501
			C427.644,270.021,427.644,263.28,423.484,259.12z M223.953,426.651c-76.459,0-138.667-62.208-138.667-138.667
			c0-5.888,4.779-10.667,10.667-10.667s10.667,4.779,10.667,10.667c0,64.704,52.651,117.333,117.333,117.333
			c5.888,0,10.667,4.779,10.667,10.667C234.62,421.872,229.841,426.651,223.953,426.651z M223.953,383.984
			c-52.928,0-96-43.072-96-96c0-5.888,4.779-10.667,10.667-10.667s10.667,4.779,10.667,10.667c0,41.173,33.493,74.667,74.667,74.667
			c5.888,0,10.667,4.779,10.667,10.667S229.841,383.984,223.953,383.984z M223.953,341.317c-29.419,0-53.333-23.936-53.333-53.333
			c0-5.888,4.779-10.667,10.667-10.667s10.667,4.779,10.667,10.667c0,17.643,14.357,32,32,32c5.888,0,10.667,4.779,10.667,10.667
			S229.841,341.317,223.953,341.317z"/>
	</g>
</g>
<g>
</g>
<g>
</g>
<g>
</g>
<g>
</g>
<g>
</g>
<g>
</g>
<g>
</g>
<g>
</g>
<g>
</g>
<g>
</g>
<g>
</g>
<g>
</g>
<g>
</g>
<g>
</g>
<g>
</g>
</svg>
