<?xml version="1.0" encoding="iso-8859-1"?>
<!-- Generator: Adobe Illustrator 19.0.0, SVG Export Plug-In . SVG Version: 6.00 Build 0)  -->
<svg version="1.1" id="Capa_1" xmlns="http://www.w3.org/2000/svg" xmlns:xlink="http://www.w3.org/1999/xlink" x="0px" y="0px"
	 viewBox="0 0 511.135 511.135" style="enable-background:new 0 0 511.135 511.135;" xml:space="preserve">
<g>
	<g>
		<path d="M383.151,244.901c-47.061,0-85.333,38.272-85.333,85.333s38.272,85.333,85.333,85.333
			c47.061,0,85.333-38.272,85.333-85.333S430.212,244.901,383.151,244.901z M383.151,394.234c-35.285,0-64-28.715-64-64
			s28.715-64,64-64s64,28.715,64,64S418.436,394.234,383.151,394.234z"/>
	</g>
</g>
<g>
	<g>
		<path d="M508.015,440.037l-64-64c-4.16-4.16-10.923-4.16-15.083,0s-4.16,10.923,0,15.083l64,64
			c2.091,2.069,4.821,3.115,7.552,3.115s5.461-1.045,7.531-3.115C512.175,450.959,512.175,444.197,508.015,440.037z"/>
	</g>
</g>
<g>
	<g>
		<path d="M443.524,153.253C384.73,88.528,306.458,52.901,223.151,52.901S61.572,88.528,2.778,153.253
			c-3.968,4.352-3.648,11.115,0.725,15.061c4.373,3.947,11.115,3.669,15.061-0.725c54.72-60.203,127.36-93.355,204.587-93.355
			s149.867,33.152,204.587,93.355c2.112,2.325,4.992,3.499,7.893,3.499c2.56,0,5.141-0.917,7.168-2.752
			C447.151,164.367,447.492,157.626,443.524,153.253z"/>
	</g>
</g>
<g>
	<g>
		<circle cx="223.151" cy="362.234" r="53.333"/>
	</g>
</g>
<g>
	<g>
		<path d="M380.975,205.861c-44.523-44.821-102.059-69.035-162.901-67.435c-60.651,1.344-117.653,28.032-160.469,75.136
			c-3.947,4.373-3.627,11.115,0.725,15.083c2.048,1.856,4.608,2.773,7.168,2.773c2.901,0,5.803-1.173,7.893-3.477
			c38.848-42.752,90.411-66.965,145.152-68.181c54.272-1.408,106.923,20.501,147.285,61.163c4.16,4.16,10.901,4.16,15.104,0.043
			C385.092,216.805,385.114,210.042,380.975,205.861z"/>
	</g>
</g>
<g>
	<g>
		<path d="M300.1,244.559c-51.157-31.744-132.032-31.851-187.648,29.355c-3.947,4.373-3.627,11.115,0.725,15.083
			c2.048,1.856,4.608,2.773,7.168,2.773c2.88,0,5.781-1.173,7.915-3.52c47.253-52.011,118.016-52.032,160.597-25.579
			c4.992,3.093,11.563,1.557,14.677-3.435S305.092,247.674,300.1,244.559z"/>
	</g>
</g>
<g>
</g>
<g>
</g>
<g>
</g>
<g>
</g>
<g>
</g>
<g>
</g>
<g>
</g>
<g>
</g>
<g>
</g>
<g>
</g>
<g>
</g>
<g>
</g>
<g>
</g>
<g>
</g>
<g>
</g>
</svg>
