<?xml version="1.0" encoding="iso-8859-1"?>
<!-- Generator: Adobe Illustrator 19.0.0, SVG Export Plug-In . SVG Version: 6.00 Build 0)  -->
<svg version="1.1" id="Capa_1" xmlns="http://www.w3.org/2000/svg" xmlns:xlink="http://www.w3.org/1999/xlink" x="0px" y="0px"
	 viewBox="0 0 511.451 511.451" style="enable-background:new 0 0 511.451 511.451;" xml:space="preserve">
<g>
	<g>
		<path d="M383.467,297.816c-47.061,0-85.333,38.272-85.333,85.333s38.272,85.333,85.333,85.333
			c47.061,0,85.333-38.272,85.333-85.333S430.528,297.816,383.467,297.816z M383.467,447.149c-35.285,0-64-28.715-64-64
			s28.715-64,64-64c35.307,0,64,28.715,64,64S418.752,447.149,383.467,447.149z"/>
	</g>
</g>
<g>
	<g>
		<path d="M508.331,492.952l-64-64c-4.16-4.16-10.923-4.16-15.083,0c-4.16,4.16-4.16,10.923,0,15.083l64,64
			c2.091,2.069,4.821,3.115,7.552,3.115c2.731,0,5.461-1.045,7.531-3.115C512.491,503.875,512.491,497.112,508.331,492.952z"/>
	</g>
</g>
<g>
	<g>
		<path d="M142.315,127.149c-8.597,32.107-13.739,68.416-14.571,106.667h106.389V127.149H142.315z"/>
	</g>
</g>
<g>
	<g>
		<path d="M148.757,105.816h85.376V0.301C199.232,7.256,168.235,47.768,148.757,105.816z"/>
	</g>
</g>
<g>
	<g>
		<path d="M255.467,0.301v105.493h85.376C321.387,47.768,290.389,7.256,255.467,0.301z"/>
	</g>
</g>
<g>
	<g>
		<path d="M127.744,255.149c0.832,38.229,5.973,74.56,14.571,106.667h91.819V255.149H127.744z"/>
	</g>
</g>
<g>
	<g>
		<path d="M106.411,255.149H0.021c1.664,38.485,11.947,74.752,29.419,106.667H120C111.936,329.539,107.157,293.528,106.411,255.149z
			"/>
	</g>
</g>
<g>
	<g>
		<path d="M29.419,127.149C11.968,159.064,1.685,195.331,0,233.816h106.411c0.747-38.4,5.525-74.389,13.568-106.667H29.419z"/>
	</g>
</g>
<g>
	<g>
		<path d="M460.181,127.149h-90.56c8.043,32.277,12.821,68.267,13.568,106.667h106.389
			C487.936,195.331,477.653,159.064,460.181,127.149z"/>
	</g>
</g>
<g>
	<g>
		<path d="M148.757,383.149c19.477,58.027,50.475,98.539,85.376,105.493V383.149H148.757z"/>
	</g>
</g>
<g>
	<g>
		<path d="M42.624,105.816h83.307c12.885-41.387,31.381-75.2,53.717-97.6C123.285,23.768,74.965,58.797,42.624,105.816z"/>
	</g>
</g>
<g>
	<g>
		<path d="M125.931,383.149H42.624c32.341,47.019,80.661,82.048,137.045,97.6C157.312,458.349,138.837,424.536,125.931,383.149z"/>
	</g>
</g>
<g>
	<g>
		<path d="M383.083,255.128v0.021c-0.149,7.147-0.32,14.293-0.768,21.44c0.405,0,0.768-0.107,1.173-0.107
			c30.336,0,59.413,13.163,79.744,36.075c2.603,2.944,6.613,4.16,10.411,3.307c3.819-0.896,6.827-3.819,7.851-7.595
			c4.779-17.664,7.125-35.456,7.936-53.141H383.083z"/>
	</g>
</g>
<g>
	<g>
		<path d="M347.285,127.149h-91.819v106.667h106.389C361.024,195.587,355.883,159.256,347.285,127.149z"/>
	</g>
</g>
<g>
	<g>
		<path d="M255.467,255.149v106.667h23.488c8.427-41.301,40.811-73.899,81.92-82.816c0.576-7.957,0.704-15.915,0.875-23.851H255.467
			z"/>
	</g>
</g>
<g>
	<g>
		<path d="M309.952,8.216c22.357,22.379,40.832,56.213,53.717,97.6h83.328C414.656,58.797,366.336,23.768,309.952,8.216z"/>
	</g>
</g>
<g>
	<g>
		<path d="M276.8,383.149h-21.333v105.536c20.117-3.947,36.565-18.496,48.96-34.197C286.763,434.947,276.8,409.539,276.8,383.149z"
			/>
	</g>
</g>
<g>
</g>
<g>
</g>
<g>
</g>
<g>
</g>
<g>
</g>
<g>
</g>
<g>
</g>
<g>
</g>
<g>
</g>
<g>
</g>
<g>
</g>
<g>
</g>
<g>
</g>
<g>
</g>
<g>
</g>
</svg>
