<?xml version="1.0" encoding="iso-8859-1"?>
<!-- Generator: Adobe Illustrator 19.0.0, SVG Export Plug-In . SVG Version: 6.00 Build 0)  -->
<svg version="1.1" id="Capa_1" xmlns="http://www.w3.org/2000/svg" xmlns:xlink="http://www.w3.org/1999/xlink" x="0px" y="0px"
	 viewBox="0 0 511.151 511.151" style="enable-background:new 0 0 511.151 511.151;" xml:space="preserve">
<g>
	<g>
		<path d="M393.818,276.909h-42.667c-41.173,0-74.667,33.493-74.667,74.667s33.493,74.667,74.667,74.667
			c5.888,0,10.667-4.779,10.667-10.667c0-5.888-4.779-10.667-10.667-10.667c-29.419,0-53.333-23.936-53.333-53.333
			s23.915-53.333,53.333-53.333h42.667c5.888,0,10.667-4.779,10.667-10.667S399.706,276.909,393.818,276.909z"/>
	</g>
</g>
<g>
	<g>
		<path d="M436.484,276.909c-5.888,0-10.667,4.779-10.667,10.667s4.779,10.667,10.667,10.667c29.419,0,53.333,23.936,53.333,53.333
			s-23.915,53.333-53.333,53.333h-42.667c-5.888,0-10.667,4.779-10.667,10.667c0,5.888,4.779,10.667,10.667,10.667h42.667
			c41.173,0,74.667-33.493,74.667-74.667S477.658,276.909,436.484,276.909z"/>
	</g>
</g>
<g>
	<g>
		<path d="M401.348,280.066l-32-32c-4.16-4.16-10.923-4.16-15.083,0c-4.16,4.16-4.16,10.923,0,15.083l24.448,24.448l-24.448,24.448
			c-4.16,4.16-4.16,10.923,0,15.083c2.091,2.069,4.821,3.115,7.552,3.115c2.731,0,5.461-1.045,7.531-3.093l32-32
			C405.508,290.989,405.508,284.226,401.348,280.066z"/>
	</g>
</g>
<g>
	<g>
		<path d="M408.9,415.575l24.448-24.448c4.16-4.16,4.16-10.923,0-15.083c-4.16-4.16-10.923-4.16-15.083,0l-32,32
			c-4.16,4.16-4.16,10.923,0,15.083l32,32c2.091,2.069,4.821,3.115,7.552,3.115c2.731,0,5.461-1.045,7.531-3.136
			c4.16-4.16,4.16-10.923,0-15.083L408.9,415.575z"/>
	</g>
</g>
<g>
	<g>
		<path d="M443.524,153.261C384.708,88.536,306.458,52.909,223.151,52.909S61.594,88.536,2.778,153.239
			c-3.968,4.373-3.648,11.115,0.725,15.083c4.352,3.947,11.115,3.669,15.061-0.725c54.72-60.203,127.381-93.355,204.587-93.355
			s149.867,33.152,204.587,93.355c2.112,2.325,4.992,3.499,7.893,3.499c2.56,0,5.12-0.917,7.168-2.752
			C447.172,164.375,447.492,157.634,443.524,153.261z"/>
	</g>
</g>
<g>
	<g>
		<path d="M382.916,207.831c-43.584-44.885-100.267-69.461-160-69.461c-1.216,0-2.411,0-3.605,0.021
			c-61.12,1.003-118.571,27.691-161.707,75.179c-3.968,4.373-3.648,11.115,0.725,15.083c2.048,1.856,4.608,2.773,7.168,2.773
			c2.901,0,5.803-1.173,7.893-3.477c39.147-43.072,91.093-67.307,146.261-68.224c54.955-0.789,107.648,21.44,147.968,62.955
			c4.096,4.245,10.837,4.331,15.083,0.235C386.927,218.818,387.012,212.055,382.916,207.831z"/>
	</g>
</g>
<g>
	<g>
		<path d="M307.567,249.453c-51.2-37.184-138.155-38.208-195.115,24.469c-3.968,4.373-3.648,11.115,0.725,15.083
			c2.048,1.856,4.608,2.773,7.168,2.773c2.88,0,5.781-1.173,7.915-3.499c48.896-53.824,123.221-53.184,166.763-21.568
			c4.736,3.456,11.435,2.453,14.891-2.347C313.37,259.586,312.346,252.93,307.567,249.453z"/>
	</g>
</g>
<g>
	<g>
		<path d="M262.66,388.695c-4.971-11.797-7.509-24.299-7.509-37.12c0-6.635,0.917-13.525,2.859-21.739
			c1.024-4.245-0.661-8.683-4.224-11.179c-9.067-6.379-19.648-9.749-30.635-9.749c-29.419,0-53.333,23.936-53.333,53.333
			s23.915,53.333,53.333,53.333c13.867,0,27.072-5.355,37.077-15.083C263.407,397.442,264.367,392.749,262.66,388.695z"/>
	</g>
</g>
<g>
</g>
<g>
</g>
<g>
</g>
<g>
</g>
<g>
</g>
<g>
</g>
<g>
</g>
<g>
</g>
<g>
</g>
<g>
</g>
<g>
</g>
<g>
</g>
<g>
</g>
<g>
</g>
<g>
</g>
</svg>
