<?xml version="1.0" encoding="iso-8859-1"?>
<!-- Generator: Adobe Illustrator 19.0.0, SVG Export Plug-In . SVG Version: 6.00 Build 0)  -->
<svg version="1.1" id="Capa_1" xmlns="http://www.w3.org/2000/svg" xmlns:xlink="http://www.w3.org/1999/xlink" x="0px" y="0px"
	 viewBox="0 0 511.467 511.467" style="enable-background:new 0 0 511.467 511.467;" xml:space="preserve">
<g>
	<g>
		<path d="M148.757,383.157c19.477,58.027,50.475,98.539,85.376,105.493V383.157H148.757z"/>
	</g>
</g>
<g>
	<g>
		<path d="M106.411,255.157H0.021c1.664,38.485,11.947,74.752,29.419,106.667H120C111.936,329.547,107.157,293.536,106.411,255.157z
			"/>
	</g>
</g>
<g>
	<g>
		<path d="M127.744,255.157c0.832,38.229,5.973,74.56,14.571,106.667h91.819V255.157H127.744z"/>
	</g>
</g>
<g>
	<g>
		<path d="M29.419,127.157C11.968,159.072,1.664,195.339,0,233.824h106.411c0.747-38.4,5.525-74.389,13.568-106.667H29.419z"/>
	</g>
</g>
<g>
	<g>
		<path d="M281.771,470.005c-16.96-18.005-26.283-41.301-26.283-65.536v84.203c10.645-2.069,20.224-7.189,28.779-13.845
			C283.84,473.077,283.051,471.392,281.771,470.005z"/>
	</g>
</g>
<g>
	<g>
		<path d="M255.467,383.157v21.333c0-7.339,1.109-14.421,2.709-21.333H255.467z"/>
	</g>
</g>
<g>
	<g>
		<path d="M142.315,127.157c-8.597,32.107-13.739,68.416-14.571,106.667h106.389V127.157H142.315z"/>
	</g>
</g>
<g>
	<g>
		<path d="M460.181,127.157h-90.56c8.043,32.277,12.821,68.267,13.568,106.667h106.389
			C487.936,195.339,477.653,159.072,460.181,127.157z"/>
	</g>
</g>
<g>
	<g>
		<path d="M255.467,255.157v106.667h10.197c11.413-22.677,31.723-40.491,57.493-48.512c4.011-1.259,6.891-4.715,7.424-8.853
			c0.917-7.211,4.011-13.653,8.939-18.581c5.739-5.739,13.568-8.555,21.44-8.832c0.491-7.317,0.64-14.613,0.789-21.888H255.467z"/>
	</g>
</g>
<g>
	<g>
		<path d="M125.952,383.157H42.624c32.341,47.019,80.661,82.048,137.045,97.6C157.312,458.357,138.837,424.544,125.952,383.157z"/>
	</g>
</g>
<g>
	<g>
		<path d="M42.624,105.824h83.328c12.885-41.387,31.381-75.2,53.717-97.6C123.285,23.776,74.965,58.805,42.624,105.824z"/>
	</g>
</g>
<g>
	<g>
		<path d="M383.083,255.179v-0.021c-0.213,9.6-0.491,19.2-1.237,28.821c0.917,0.725,2.069,1.045,2.923,1.899l24.619,24.619
			c3.285,3.307,8.405,4.075,12.544,1.877c4.864-2.581,9.856-3.883,14.869-3.883c10.027,0,20.245,1.877,31.296,5.739
			c2.837,0.96,5.888,0.768,8.512-0.661c2.624-1.387,4.565-3.819,5.312-6.677c4.501-17.088,6.72-34.432,7.509-51.712H383.083z"/>
	</g>
</g>
<g>
	<g>
		<path d="M347.285,127.157h-91.819v106.667h106.389C361.045,195.573,355.904,159.264,347.285,127.157z"/>
	</g>
</g>
<g>
	<g>
		<path d="M309.952,8.224c22.336,22.379,40.832,56.213,53.717,97.6h83.328C414.656,58.805,366.336,23.776,309.952,8.224z"/>
	</g>
</g>
<g>
	<g>
		<path d="M148.757,105.824h85.376V0.309C199.232,7.264,168.235,47.776,148.757,105.824z"/>
	</g>
</g>
<g>
	<g>
		<path d="M255.467,0.309v105.493h85.376C321.387,47.776,290.389,7.264,255.467,0.309z"/>
	</g>
</g>
<g>
	<g>
		<path d="M394.133,329.824h-42.667c-41.173,0-74.667,33.493-74.667,74.667s33.493,74.667,74.667,74.667
			c5.909,0,10.667-4.779,10.667-10.667c0-5.888-4.779-10.667-10.667-10.667c-29.419,0-53.333-23.936-53.333-53.333
			s23.915-53.333,53.333-53.333h42.667c5.888,0,10.667-4.779,10.667-10.667C404.8,334.603,400.021,329.824,394.133,329.824z"/>
	</g>
</g>
<g>
	<g>
		<path d="M436.8,329.824c-5.888,0-10.667,4.779-10.667,10.667s4.779,10.667,10.667,10.667c29.419,0,53.333,23.936,53.333,53.333
			s-23.915,53.333-53.333,53.333h-42.667c-5.888,0-10.667,4.779-10.667,10.667c0,5.888,4.779,10.667,10.667,10.667H436.8
			c41.173,0,74.667-33.493,74.667-74.667S477.973,329.824,436.8,329.824z"/>
	</g>
</g>
<g>
	<g>
		<path d="M401.664,332.981l-32-32c-4.16-4.16-10.923-4.16-15.083,0s-4.16,10.923,0,15.083l24.448,24.448l-24.448,24.448
			c-4.16,4.16-4.16,10.923,0,15.083c2.091,2.069,4.821,3.115,7.552,3.115s5.461-1.045,7.531-3.093l32-32
			C405.824,343.904,405.824,337.141,401.664,332.981z"/>
	</g>
</g>
<g>
	<g>
		<path d="M409.216,468.491l24.448-24.448c4.16-4.16,4.16-10.923,0-15.083c-4.16-4.16-10.923-4.16-15.083,0l-32,32
			c-4.16,4.16-4.16,10.923,0,15.083l32,32c2.091,2.069,4.821,3.115,7.552,3.115s5.461-1.045,7.531-3.136
			c4.16-4.16,4.16-10.923,0-15.083L409.216,468.491z"/>
	</g>
</g>
<g>
</g>
<g>
</g>
<g>
</g>
<g>
</g>
<g>
</g>
<g>
</g>
<g>
</g>
<g>
</g>
<g>
</g>
<g>
</g>
<g>
</g>
<g>
</g>
<g>
</g>
<g>
</g>
<g>
</g>
</svg>
