<?xml version="1.0" encoding="iso-8859-1"?>
<!-- Generator: Adobe Illustrator 19.0.0, SVG Export Plug-In . SVG Version: 6.00 Build 0)  -->
<svg version="1.1" id="Capa_1" xmlns="http://www.w3.org/2000/svg" xmlns:xlink="http://www.w3.org/1999/xlink" x="0px" y="0px"
	 viewBox="0 0 511.25 511.25" style="enable-background:new 0 0 511.25 511.25;" xml:space="preserve">
<g>
	<g>
		<path d="M485.75,152.925c-64.4-64.5-150.2-100-241.3-100s-176.9,35.5-241.3,100c-4.2,4.2-4.2,10.9,0,15.1s10.9,4.2,15.1,0
			c60.5-60.4,140.7-93.7,226.2-93.7s165.9,33.3,226.3,93.7c2.1,2.1,4.9,3.1,7.6,3.1c2.8,0,5.5-1,7.4-3.1
			C489.95,163.825,489.95,157.125,485.75,152.925z"/>
	</g>
</g>
<g>
	<g>
		<path d="M425.45,213.325c-99.8-99.8-262.2-99.8-362,0c-4.2,4.2-4.2,10.9,0,15.1s10.9,4.2,15.1,0c91.5-91.5,240.4-91.5,331.9,0
			c2.1,2.1,4.9,3.1,7.6,3.1s5.5-1.1,7.4-3.1C429.65,224.225,429.65,217.525,425.45,213.325z"/>
	</g>
</g>
<g>
	<g>
		<path d="M365.25,273.625c-66.6-66.5-174.9-66.5-241.4,0c-4.2,4.2-4.2,10.9,0,15.1s10.9,4.2,15.1,0c58.2-58.2,153-58.2,211.2,0
			c2.1,2.1,4.9,3.1,7.6,3.1c2.7,0,5.4-1,7.5-3.1C369.45,284.525,369.45,277.825,365.25,273.625z"/>
	</g>
</g>
<g>
	<g>
		<path d="M457.95,266.325c-29.4,0-53.3,23.9-53.3,53.3c0,25.8,18.3,47.3,42.7,52.3v75.7c0,5.9,4.8,10.7,10.7,10.7
			c5.9,0,10.7-4.8,10.7-10.7v-75.7c24.2-5,42.5-26.5,42.5-52.3C511.25,290.125,487.35,266.325,457.95,266.325z"/>
	</g>
</g>
<g>
	<g>
		<circle cx="244.55" cy="362.325" r="53.3"/>
	</g>
</g>
<g>
	<g>
		<path d="M393.85,372.925h-42.7c-17.6,0-32,14.4-32,32v42.7c0,5.9,4.8,10.7,10.7,10.7s10.7-4.8,10.7-10.7v-10.7h64v10.7
			c0,5.9,4.8,10.7,10.7,10.7s10.7-4.8,10.7-10.7v-42.7C425.85,387.325,411.55,372.925,393.85,372.925z"/>
	</g>
</g>
<g>
</g>
<g>
</g>
<g>
</g>
<g>
</g>
<g>
</g>
<g>
</g>
<g>
</g>
<g>
</g>
<g>
</g>
<g>
</g>
<g>
</g>
<g>
</g>
<g>
</g>
<g>
</g>
<g>
</g>
</svg>
