<?xml version="1.0" encoding="iso-8859-1"?>
<!-- Generator: Adobe Illustrator 19.0.0, SVG Export Plug-In . SVG Version: 6.00 Build 0)  -->
<svg version="1.1" id="Capa_1" xmlns="http://www.w3.org/2000/svg" xmlns:xlink="http://www.w3.org/1999/xlink" x="0px" y="0px"
	 viewBox="0 0 511.12 511.12" style="enable-background:new 0 0 511.12 511.12;" xml:space="preserve">
<g>
	<g>
		<path d="M505.604,224.861c-3.563-1.941-7.915-1.685-11.2,0.597c-7.787,5.397-31.488,19.435-47.253,19.435
			c-15.765,0-39.467-14.016-47.253-19.435c-3.669-2.539-8.491-2.539-12.16,0c-7.787,5.397-31.488,19.435-47.253,19.435
			c-15.765,0-39.467-14.016-47.253-19.435c-3.264-2.283-7.616-2.539-11.2-0.597c-3.541,1.941-5.696,5.739-5.547,9.771
			c0.128,2.88,2.816,71.019,11.115,98.667c10.816,36.011,30.443,75.861,100.224,123.115c1.813,1.216,3.904,1.835,5.973,1.835
			s4.16-0.619,5.973-1.835c69.781-47.232,89.408-87.083,100.224-123.115c8.32-27.648,11.008-95.765,11.115-98.667
			C511.3,230.579,509.146,226.803,505.604,224.861z M436.484,351.539h-32v32c0,5.888-4.779,10.667-10.667,10.667
			c-5.888,0-10.667-4.779-10.667-10.667v-32h-32c-5.888,0-10.667-4.779-10.667-10.667c0-5.888,4.779-10.667,10.667-10.667h32v-32
			c0-5.888,4.779-10.667,10.667-10.667c5.888,0,10.667,4.779,10.667,10.667v32h32c5.888,0,10.667,4.779,10.667,10.667
			C447.151,346.76,442.372,351.539,436.484,351.539z"/>
	</g>
</g>
<g>
	<g>
		<path d="M443.524,153.224C384.708,88.499,306.458,52.872,223.151,52.872S61.594,88.499,2.778,153.203
			c-3.968,4.373-3.648,11.115,0.725,15.083c4.373,3.968,11.093,3.669,15.061-0.725c54.699-60.203,127.381-93.355,204.587-93.355
			s149.867,33.152,204.587,93.355c2.112,2.325,4.992,3.499,7.893,3.499c2.56,0,5.12-0.917,7.168-2.752
			C447.172,164.339,447.492,157.597,443.524,153.224z"/>
	</g>
</g>
<g>
	<g>
		<path d="M370.052,195.187c-93.269-82.859-227.605-75.008-312.448,18.347c-3.968,4.373-3.648,11.115,0.725,15.083
			c2.048,1.856,4.608,2.773,7.168,2.773c2.901,0,5.803-1.173,7.893-3.477c76.736-84.459,198.208-91.669,282.496-16.768
			c4.373,3.883,11.136,3.499,15.061-0.896S374.447,199.112,370.052,195.187z"/>
	</g>
</g>
<g>
	<g>
		<path d="M246.276,225.565c-49.088-7.957-99.051,10.048-133.824,48.32c-3.968,4.373-3.648,11.115,0.725,15.083
			c2.048,1.856,4.608,2.773,7.168,2.773c2.88,0,5.781-1.173,7.893-3.477c30.379-33.429,72.192-48.619,114.581-41.621
			c5.653,0.853,11.307-2.987,12.245-8.811C256.026,232.008,252.079,226.525,246.276,225.565z"/>
	</g>
</g>
<g>
	<g>
		<path d="M275.247,362.461c-3.221-7.829-5.824-15.509-8.107-23.083c-0.533-1.813-1.003-3.904-1.92-7.915
			c-0.427-1.749-1.259-3.371-2.432-4.693c-10.176-11.392-24.619-17.899-39.637-17.899c-29.419,0-53.333,23.936-53.333,53.333
			s23.915,53.333,53.333,53.333c27.349,0,50.069-20.608,52.843-47.957C276.164,365.832,275.908,364.083,275.247,362.461z"/>
	</g>
</g>
<g>
</g>
<g>
</g>
<g>
</g>
<g>
</g>
<g>
</g>
<g>
</g>
<g>
</g>
<g>
</g>
<g>
</g>
<g>
</g>
<g>
</g>
<g>
</g>
<g>
</g>
<g>
</g>
<g>
</g>
</svg>
