<?xml version="1.0" encoding="iso-8859-1"?>
<!-- Generator: Adobe Illustrator 19.0.0, SVG Export Plug-In . SVG Version: 6.00 Build 0)  -->
<svg version="1.1" id="Capa_1" xmlns="http://www.w3.org/2000/svg" xmlns:xlink="http://www.w3.org/1999/xlink" x="0px" y="0px"
	 viewBox="0 0 511.488 511.488" style="enable-background:new 0 0 511.488 511.488;" xml:space="preserve">
<g>
	<g>
		<path d="M148.757,106.901h85.376V1.408C199.232,8.341,168.235,48.853,148.757,106.901z"/>
	</g>
</g>
<g>
	<g>
		<path d="M255.467,1.408v105.493h85.376C321.387,48.853,290.389,8.341,255.467,1.408z"/>
	</g>
</g>
<g>
	<g>
		<path d="M460.181,128.235h-90.56c8.043,32.277,12.821,68.267,13.568,106.667h106.389
			C487.936,196.416,477.653,160.149,460.181,128.235z"/>
	</g>
</g>
<g>
	<g>
		<path d="M142.315,128.235c-8.597,32.107-13.739,68.416-14.571,106.667h106.389V128.235H142.315z"/>
	</g>
</g>
<g>
	<g>
		<path d="M29.419,128.235C11.968,160.149,1.685,196.416,0,234.901h106.411c0.747-38.4,5.525-74.389,13.568-106.667H29.419z"/>
	</g>
</g>
<g>
	<g>
		<path d="M255.467,256.213v106.688h4.565c1.024-4.096,1.771-8.107,3.2-12.331c2.432-7.189,7.381-13.312,13.909-17.216
			c3.179-1.899,5.141-5.312,5.205-9.003c0.107-7.637,2.944-14.997,7.979-20.736c19.243-21.867,43.861-36.48,71.275-43.136
			c0.043-1.429,0.128-2.837,0.149-4.267H255.467z"/>
	</g>
</g>
<g>
	<g>
		<path d="M106.411,256.235H0.021c1.664,38.485,11.947,74.752,29.419,106.667H120C111.936,330.624,107.157,294.635,106.411,256.235z
			"/>
	</g>
</g>
<g>
	<g>
		<path d="M127.744,256.235c0.832,38.229,5.973,74.56,14.571,106.667h91.819V256.235H127.744z"/>
	</g>
</g>
<g>
	<g>
		<path d="M125.931,384.235H42.624c32.341,47.019,80.661,82.048,137.045,97.6C157.312,459.435,138.837,425.621,125.931,384.235z"/>
	</g>
</g>
<g>
	<g>
		<path d="M42.624,106.901h83.307c12.885-41.387,31.381-75.2,53.717-97.6C123.285,24.853,74.965,59.883,42.624,106.901z"/>
	</g>
</g>
<g>
	<g>
		<path d="M383.083,256.235L383.083,256.235c-0.021,1.365-0.107,2.752-0.149,4.117c2.005,0.661,4.117,1.045,5.973,2.091
			c3.243,1.813,7.211,1.813,10.453,0c6.592-3.691,14.357-4.971,21.931-3.499c17.472,3.477,34.453,10.859,50.453,21.931
			c3.093,2.133,7.083,2.496,10.475,0.939c3.413-1.557,5.781-4.779,6.187-8.512c0.683-6.08,1.109-11.669,1.387-17.067H383.083z"/>
	</g>
</g>
<g>
	<g>
		<path d="M309.952,9.301c22.357,22.4,40.832,56.213,53.717,97.6h83.328C414.656,59.883,366.336,24.853,309.952,9.301z"/>
	</g>
</g>
<g>
	<g>
		<path d="M255.467,384.235v10.667c0-3.541,0.64-7.125,0.939-10.667H255.467z"/>
	</g>
</g>
<g>
	<g>
		<path d="M284.096,475.051c-1.131-3.371-1.707-6.592-1.749-9.621c-0.043-3.691-2.027-7.104-5.205-9.003
			c-6.528-3.904-11.477-10.005-13.909-17.216c-5.227-15.381-7.765-29.888-7.765-44.331v94.869
			c10.624-2.069,20.181-7.147,28.715-13.76C284.117,475.691,284.181,475.371,284.096,475.051z"/>
	</g>
</g>
<g>
	<g>
		<path d="M347.285,128.235h-91.819v0v106.667h106.389C361.024,196.672,355.883,160.341,347.285,128.235z"/>
	</g>
</g>
<g>
	<g>
		<path d="M148.757,384.235c19.477,58.027,50.475,98.539,85.376,105.493V384.235H148.757z"/>
	</g>
</g>
<g>
	<g>
		<path d="M504.853,357.44c-0.96-2.816-3.029-5.099-5.739-6.293c-2.688-1.237-5.781-1.259-8.533-0.085
			c-4.907,2.112-10.731,0.299-13.312-4.139c-2.645-4.565-1.344-10.283,3.072-13.611c2.368-1.792,3.904-4.48,4.203-7.445
			c0.299-2.944-0.64-5.888-2.603-8.128c-17.387-19.797-39.808-32.896-64.811-37.845c-2.944-0.661-6.016,0.085-8.427,1.877
			c-2.411,1.771-3.968,4.501-4.288,7.488c-0.555,5.504-4.992,9.664-10.283,9.664s-9.728-4.139-10.283-9.664
			c-0.32-2.987-1.856-5.717-4.288-7.488c-2.411-1.792-5.504-2.517-8.427-1.877c-25.003,4.971-47.424,18.069-64.811,37.845
			c-1.963,2.219-2.901,5.184-2.603,8.128c0.299,2.944,1.813,5.653,4.181,7.424c4.416,3.328,5.717,9.067,3.093,13.611
			c-2.56,4.416-8.405,6.208-13.312,4.139c-2.752-1.173-5.824-1.131-8.533,0.085c-2.709,1.216-4.779,3.499-5.739,6.293
			c-4.459,13.141-6.635,25.408-6.635,37.461s2.176,24.32,6.635,37.461c0.96,2.816,3.029,5.099,5.739,6.293
			c2.688,1.216,5.781,1.259,8.533,0.085c4.928-2.069,10.752-0.277,13.312,4.139c2.645,4.544,1.344,10.283-3.093,13.611
			c-2.368,1.771-3.883,4.48-4.181,7.424c-0.299,2.944,0.64,5.888,2.603,8.128c17.387,19.797,39.808,32.896,64.811,37.845
			c2.901,0.576,5.995-0.085,8.427-1.877c2.411-1.771,3.968-4.501,4.288-7.488c0.555-5.504,4.992-9.664,10.283-9.664
			s9.728,4.139,10.283,9.664c0.32,2.987,1.856,5.717,4.288,7.488c1.835,1.365,4.075,2.091,6.336,2.091
			c0.704,0,1.387-0.064,2.091-0.213c25.003-4.971,47.424-18.069,64.811-37.845c1.963-2.219,2.901-5.184,2.603-8.128
			c-0.299-2.965-1.813-5.653-4.203-7.445c-4.416-3.328-5.717-9.045-3.072-13.611c2.539-4.437,8.363-6.251,13.312-4.139
			c2.731,1.152,5.824,1.131,8.533-0.085c2.709-1.216,4.779-3.499,5.739-6.293c4.459-13.141,6.635-25.408,6.635-37.461
			S509.312,370.581,504.853,357.44z M394.133,426.901c-17.643,0-32-14.357-32-32c0-17.643,14.357-32,32-32s32,14.357,32,32
			C426.133,412.544,411.776,426.901,394.133,426.901z"/>
	</g>
</g>
<g>
</g>
<g>
</g>
<g>
</g>
<g>
</g>
<g>
</g>
<g>
</g>
<g>
</g>
<g>
</g>
<g>
</g>
<g>
</g>
<g>
</g>
<g>
</g>
<g>
</g>
<g>
</g>
<g>
</g>
</svg>
