<?xml version="1.0" encoding="iso-8859-1"?>
<!-- Generator: Adobe Illustrator 19.0.0, SVG Export Plug-In . SVG Version: 6.00 Build 0)  -->
<svg version="1.1" id="Capa_1" xmlns="http://www.w3.org/2000/svg" xmlns:xlink="http://www.w3.org/1999/xlink" x="0px" y="0px"
	 viewBox="0 0 490.667 490.667" style="enable-background:new 0 0 490.667 490.667;" xml:space="preserve">
<g>
	<g>
		<path d="M394.667,170.667h-53.333v-32c0-5.888-4.779-10.667-10.667-10.667h-53.333v-10.667c0-5.888-4.779-10.667-10.667-10.667
			H224c-5.888,0-10.667,4.779-10.667,10.667V128H160c-5.888,0-10.667,4.779-10.667,10.667v32H96
			c-5.888,0-10.667,4.779-10.667,10.667V352c0,5.888,4.779,10.667,10.667,10.667h53.333v-53.333c0-5.888,4.779-10.667,10.667-10.667
			s10.667,4.779,10.667,10.667v53.333H192v-53.333c0-5.888,4.779-10.667,10.667-10.667s10.667,4.779,10.667,10.667v53.333h21.333
			v-53.333c0-5.888,4.779-10.667,10.667-10.667S256,303.445,256,309.333v53.333h21.333v-53.333c0-5.888,4.779-10.667,10.667-10.667
			s10.667,4.779,10.667,10.667v53.333H320v-53.333c0-5.888,4.779-10.667,10.667-10.667c5.888,0,10.667,4.779,10.667,10.667v53.333
			h53.333c5.888,0,10.667-4.779,10.667-10.667V181.333C405.333,175.445,400.555,170.667,394.667,170.667z"/>
	</g>
</g>
<g>
	<g>
		<path d="M437.333,0h-384C23.936,0,0,23.936,0,53.333v384c0,29.397,23.936,53.333,53.333,53.333h384
			c29.397,0,53.333-23.936,53.333-53.333v-384C490.667,23.936,466.731,0,437.333,0z M53.333,42.667
			C59.221,42.667,64,47.445,64,53.333S59.221,64,53.333,64s-10.667-4.779-10.667-10.667S47.445,42.667,53.333,42.667z M53.333,448
			c-5.888,0-10.667-4.779-10.667-10.667c0-5.888,4.779-10.667,10.667-10.667S64,431.445,64,437.333
			C64,443.221,59.221,448,53.333,448z M394.667,384H96c-17.643,0-32-14.357-32-32V181.333c0-17.643,14.357-32,32-32h21.333
			c5.888,0,10.667-4.779,10.667-10.667c0-17.643,14.357-32,32-32h27.051c3.819,0,7.317-2.027,9.237-5.333
			c5.696-9.856,16.32-16,27.712-16h42.667c11.392,0,22.016,6.144,27.733,16c1.899,3.285,5.419,5.333,9.237,5.333h27.029
			c17.643,0,32,14.357,32,32c0,5.888,4.779,10.667,10.667,10.667h21.333c17.643,0,32,14.357,32,32V352
			C426.667,369.643,412.309,384,394.667,384z M437.333,448c-5.888,0-10.667-4.779-10.667-10.667c0-5.888,4.779-10.667,10.667-10.667
			c5.888,0,10.667,4.779,10.667,10.667C448,443.221,443.221,448,437.333,448z M437.333,64c-5.888,0-10.667-4.779-10.667-10.667
			s4.779-10.667,10.667-10.667c5.888,0,10.667,4.779,10.667,10.667S443.221,64,437.333,64z"/>
	</g>
</g>
<g>
</g>
<g>
</g>
<g>
</g>
<g>
</g>
<g>
</g>
<g>
</g>
<g>
</g>
<g>
</g>
<g>
</g>
<g>
</g>
<g>
</g>
<g>
</g>
<g>
</g>
<g>
</g>
<g>
</g>
</svg>
