<?xml version="1.0" encoding="iso-8859-1"?>
<!-- Generator: Adobe Illustrator 19.0.0, SVG Export Plug-In . SVG Version: 6.00 Build 0)  -->
<svg version="1.1" id="Capa_1" xmlns="http://www.w3.org/2000/svg" xmlns:xlink="http://www.w3.org/1999/xlink" x="0px" y="0px"
	 viewBox="0 0 511.979 511.979" style="enable-background:new 0 0 511.979 511.979;" xml:space="preserve">
<g>
	<g>
		<path d="M427.011,280.448c-27.691-27.691-72.725-27.691-100.416,0l-160,160c-19.371,19.371-50.88,19.371-70.251,0
			s-19.371-50.88,0-70.251l74.667-74.667c4.16-4.16,4.16-10.923,0-15.083c-4.16-4.16-10.923-4.16-15.083,0l-74.667,74.667
			c-27.691,27.691-27.691,72.725,0,100.416c27.691,27.691,72.725,27.691,100.416,0l160-160c19.371-19.371,50.88-19.371,70.251,0
			s19.371,50.88,0,70.251l-128,128c-4.16,4.16-4.16,10.923,0,15.083c2.091,2.069,4.821,3.115,7.552,3.115
			c2.731,0,5.461-1.045,7.531-3.115l128-128C454.701,353.173,454.701,308.139,427.011,280.448z"/>
	</g>
</g>
<g>
	<g>
		<path d="M203.011,269.781l-21.333-21.333c-4.16-4.16-10.923-4.16-15.083,0c-4.16,4.16-4.16,10.923,0,15.083l21.333,21.333
			c2.091,2.069,4.821,3.115,7.552,3.115c2.731,0,5.461-1.045,7.531-3.115C207.171,280.704,207.171,273.941,203.011,269.781z"/>
	</g>
</g>
<g>
	<g>
		<path d="M235.011,259.115l-42.667-42.667c-4.16-4.16-10.923-4.16-15.083,0c-4.16,4.16-4.16,10.923,0,15.083l42.667,42.667
			c2.091,2.069,4.821,3.115,7.552,3.115c2.731,0,5.461-1.045,7.531-3.115C239.171,270.037,239.171,263.275,235.011,259.115z"/>
	</g>
</g>
<g>
	<g>
		<path d="M267.011,248.448l-64-64c-4.16-4.16-10.923-4.16-15.083,0c-4.16,4.16-4.16,10.923,0,15.083l64,64
			c2.091,2.069,4.821,3.115,7.552,3.115c2.731,0,5.461-1.045,7.531-3.115C271.171,259.371,271.171,252.608,267.011,248.448z"/>
	</g>
</g>
<g>
	<g>
		<path d="M448.365,88.448l-13.803-13.803l-28.885,28.885c-2.069,2.069-4.8,3.115-7.531,3.115c-2.731,0-5.461-1.045-7.552-3.115
			c-4.16-4.16-4.16-10.923,0-15.083l28.885-28.885l-6.251-6.251l-28.885,28.885c-2.069,2.069-4.8,3.115-7.531,3.115
			c-2.731,0-5.461-1.045-7.552-3.115c-4.16-4.16-4.16-10.923,0-15.083l28.885-28.885l-6.251-6.251l-28.885,28.885
			c-2.069,2.069-4.8,3.115-7.531,3.115s-5.461-1.045-7.552-3.115c-4.16-4.16-4.16-10.923,0-15.083l28.885-28.885L363.032,3.115
			c-2.048-2.027-4.693-2.965-7.68-3.115c-2.88,0.043-5.611,1.237-7.595,3.328c-21.184,22.272-45.376,47.019-50.581,51.243
			c-2.155,1.131-3.925,3.008-4.885,5.355c-1.664,3.989-0.747,8.576,2.304,11.627l85.333,85.333c2.112,2.048,4.843,3.093,7.552,3.093
			s5.461-1.045,7.552-3.115l53.333-53.333C452.525,99.371,452.525,92.608,448.365,88.448z"/>
	</g>
</g>
<g>
	<g>
		
			<rect x="300.906" y="126.747" transform="matrix(0.7071 -0.7071 0.7071 0.7071 -6.4429 261.8541)" width="23.914" height="23.914"/>
	</g>
</g>
<g>
	<g>
		<path d="M405.699,152.427l-10.667-10.667c-4.16-4.16-10.923-4.16-15.083,0l-70.251-70.251c4.16-4.16,4.16-10.923,0-15.083
			L299.032,45.76c-4.16-4.16-10.923-4.16-15.083,0l-85.333,85.333c-2.005,2.005-3.136,4.715-3.136,7.552v21.333
			c0,2.837,1.131,5.547,3.115,7.552l85.333,85.333c2.027,1.984,4.736,3.115,7.552,3.115h21.333c2.837,0,5.547-1.131,7.552-3.115
			l85.333-85.333C409.859,163.349,409.859,156.608,405.699,152.427z M352.365,146.197l-32,32c-2.091,2.069-4.821,3.115-7.552,3.115
			s-5.461-1.045-7.552-3.115l-8.448-8.448l-8.448,8.448c-2.091,2.069-4.821,3.115-7.552,3.115s-5.461-1.045-7.552-3.115
			c-4.16-4.16-4.16-10.923,0-15.083l8.448-8.448l-8.427-8.469c-4.16-4.16-4.16-10.923,0-15.083l32-32
			c4.16-4.16,10.923-4.16,15.083,0l32,32C356.525,135.275,356.525,142.016,352.365,146.197z"/>
	</g>
</g>
<g>
</g>
<g>
</g>
<g>
</g>
<g>
</g>
<g>
</g>
<g>
</g>
<g>
</g>
<g>
</g>
<g>
</g>
<g>
</g>
<g>
</g>
<g>
</g>
<g>
</g>
<g>
</g>
<g>
</g>
</svg>
