<?xml version="1.0" encoding="iso-8859-1"?>
<!-- Generator: Adobe Illustrator 19.0.0, SVG Export Plug-In . SVG Version: 6.00 Build 0)  -->
<svg version="1.1" id="Capa_1" xmlns="http://www.w3.org/2000/svg" xmlns:xlink="http://www.w3.org/1999/xlink" x="0px" y="0px"
	 viewBox="0 0 512 512" style="enable-background:new 0 0 512 512;" xml:space="preserve">
<g>
	<g>
		<rect x="202.432" y="106.667" width="298.667" height="277.333"/>
	</g>
</g>
<g>
	<g>
		<path d="M426.432,0H277.099c-41.173,0-74.667,33.493-74.667,74.667v10.667h298.667V74.667C501.099,33.493,467.605,0,426.432,0z
			 M383.765,64h-64c-5.888,0-10.667-4.779-10.667-10.667s4.779-10.667,10.667-10.667h64c5.888,0,10.667,4.779,10.667,10.667
			S389.675,64,383.765,64z M427.072,64c-5.888,0-10.773-4.779-10.773-10.667s4.672-10.667,10.56-10.667h0.213
			c5.888,0,10.667,4.779,10.667,10.667S432.981,64,427.072,64z"/>
	</g>
</g>
<g>
	<g>
		<path d="M202.432,405.333v32c0,41.173,33.493,74.667,74.667,74.667h149.333c41.173,0,74.667-33.493,74.667-74.667v-32H202.432z
			 M351.765,469.333c-11.755,0-21.333-9.579-21.333-21.333c0-11.755,9.579-21.333,21.333-21.333
			c11.755,0,21.333,9.579,21.333,21.333C373.099,459.755,363.541,469.333,351.765,469.333z"/>
	</g>
</g>
<g>
	<g>
		<path d="M182.336,55.445C164.693,69.909,148.843,95.744,137.173,128h43.925V74.667c0-5.184,0.768-10.176,1.579-15.147
			C182.891,58.133,182.656,56.768,182.336,55.445z"/>
	</g>
</g>
<g>
	<g>
		<path d="M35.051,149.333c-14.037,25.856-22.507,54.891-24.128,85.333h85.163c0.853-28.757,5.077-58.005,12.267-85.333H35.051z"/>
	</g>
</g>
<g>
	<g>
		<path d="M130.283,149.333c-7.381,26.219-11.968,55.381-12.885,85.333h63.701v-85.333H130.283z"/>
	</g>
</g>
<g>
	<g>
		<path d="M181.099,362.667h-43.925c11.328,31.296,26.581,56.555,43.605,71.232c0.064-0.512,0.341-0.96,0.341-1.493v-69.739H181.099
			z"/>
	</g>
</g>
<g>
	<g>
		<path d="M114.645,362.667H47.723c25.728,36.267,63.339,63.787,108.352,76.885C139.008,420.395,124.907,393.408,114.645,362.667z"
			/>
	</g>
</g>
<g>
	<g>
		<path d="M48.427,128h66.219c10.283-30.805,24.448-57.835,41.536-76.992C111.872,64,74.325,91.733,48.427,128z"/>
	</g>
</g>
<g>
	<g>
		<path d="M96.064,256H10.901c1.579,30.656,9.792,59.627,23.573,85.333h73.899C101.163,314.005,96.939,284.757,96.064,256z"/>
	</g>
</g>
<g>
	<g>
		<path d="M117.397,256c0.917,29.952,5.504,59.115,12.885,85.333h50.816V256H117.397z"/>
	</g>
</g>
<g>
</g>
<g>
</g>
<g>
</g>
<g>
</g>
<g>
</g>
<g>
</g>
<g>
</g>
<g>
</g>
<g>
</g>
<g>
</g>
<g>
</g>
<g>
</g>
<g>
</g>
<g>
</g>
<g>
</g>
</svg>
