<?xml version="1.0" encoding="iso-8859-1"?>
<!-- Generator: Adobe Illustrator 19.0.0, SVG Export Plug-In . SVG Version: 6.00 Build 0)  -->
<svg version="1.1" id="Capa_1" xmlns="http://www.w3.org/2000/svg" xmlns:xlink="http://www.w3.org/1999/xlink" x="0px" y="0px"
	 viewBox="0 0 511.151 511.151" style="enable-background:new 0 0 511.151 511.151;" xml:space="preserve">
<g>
	<g>
		<path d="M500.484,308.909H329.818c-5.888,0-10.667,4.779-10.667,10.667v128c0,5.888,4.779,10.667,10.667,10.667h170.667
			c5.888,0,10.667-4.779,10.667-10.667v-128C511.151,313.687,506.372,308.909,500.484,308.909z M425.818,390.957v13.952
			c0,5.888-4.779,10.667-10.667,10.667c-5.888,0-10.667-4.779-10.667-10.667v-13.952c-6.251-3.733-10.667-10.261-10.667-18.048
			c0-11.755,9.557-21.333,21.333-21.333s21.333,9.579,21.333,21.333C436.484,380.695,432.068,387.245,425.818,390.957z"/>
	</g>
</g>
<g>
	<g>
		<path d="M415.151,223.575c-41.173,0-74.667,33.493-74.667,74.667v21.333c0,5.888,4.779,10.667,10.667,10.667
			c5.888,0,10.667-4.779,10.667-10.667v-21.333c0-29.397,23.915-53.333,53.333-53.333c29.419,0,53.333,23.936,53.333,53.333v21.333
			c0,5.888,4.779,10.667,10.667,10.667s10.667-4.779,10.667-10.667v-21.333C489.818,257.069,456.324,223.575,415.151,223.575z"/>
	</g>
</g>
<g>
	<g>
		<path d="M443.524,153.261C384.708,88.536,306.458,52.909,223.151,52.909S61.594,88.536,2.778,153.239
			c-3.968,4.373-3.648,11.115,0.725,15.083c4.352,3.968,11.115,3.669,15.061-0.725c54.72-60.203,127.381-93.355,204.587-93.355
			s149.867,33.152,204.587,93.355c2.112,2.325,4.992,3.499,7.893,3.499c2.56,0,5.12-0.917,7.168-2.752
			C447.172,164.375,447.492,157.634,443.524,153.261z"/>
	</g>
</g>
<g>
	<g>
		<path d="M371.844,196.823c-93.504-84.715-228.587-77.525-314.24,16.747c-3.968,4.373-3.648,11.115,0.725,15.083
			c2.048,1.856,4.608,2.773,7.168,2.773c2.901,0,5.803-1.173,7.893-3.477c77.504-85.312,199.659-91.883,284.117-15.296
			c4.352,3.925,11.115,3.627,15.061-0.747C376.538,207.533,376.196,200.791,371.844,196.823z"/>
	</g>
</g>
<g>
	<g>
		<path d="M320.41,260.823c-62.336-54.443-151.744-48.768-207.957,13.099c-3.968,4.373-3.648,11.115,0.725,15.083
			c2.048,1.856,4.608,2.773,7.168,2.773c2.88,0,5.781-1.173,7.893-3.499c48.256-53.099,124.843-57.941,178.133-11.392
			c4.395,3.883,11.136,3.435,15.061-1.003C325.295,271.447,324.847,264.706,320.41,260.823z"/>
	</g>
</g>
<g>
	<g>
		<circle cx="223.151" cy="362.242" r="53.333"/>
	</g>
</g>
<g>
</g>
<g>
</g>
<g>
</g>
<g>
</g>
<g>
</g>
<g>
</g>
<g>
</g>
<g>
</g>
<g>
</g>
<g>
</g>
<g>
</g>
<g>
</g>
<g>
</g>
<g>
</g>
<g>
</g>
</svg>
