<?xml version="1.0" encoding="iso-8859-1"?>
<!-- Generator: Adobe Illustrator 19.0.0, SVG Export Plug-In . SVG Version: 6.00 Build 0)  -->
<svg version="1.1" id="Capa_1" xmlns="http://www.w3.org/2000/svg" xmlns:xlink="http://www.w3.org/1999/xlink" x="0px" y="0px"
	 viewBox="0 0 512 512" style="enable-background:new 0 0 512 512;" xml:space="preserve">
<g>
	<g>
		<path d="M330.667,0H181.333c-41.173,0-74.667,33.493-74.667,74.667v10.667h298.667V74.667C405.333,33.493,371.84,0,330.667,0z
			 M288,64h-64c-5.888,0-10.667-4.779-10.667-10.667S218.112,42.667,224,42.667h64c5.888,0,10.667,4.779,10.667,10.667
			S293.888,64,288,64z M331.307,64c-5.888,0-10.773-4.779-10.773-10.667s4.672-10.667,10.56-10.667h0.213
			c5.888,0,10.667,4.779,10.667,10.667S337.195,64,331.307,64z"/>
	</g>
</g>
<g>
	<g>
		<path d="M106.667,106.667V384h298.667V106.667H106.667z M256,320c-11.755,0-21.333-9.579-21.333-21.333
			c0-11.755,9.579-21.333,21.333-21.333c11.755,0,21.333,9.579,21.333,21.333C277.333,310.421,267.755,320,256,320z
			 M293.717,265.365c-2.091,2.091-4.821,3.115-7.552,3.115c-2.731,0-5.461-1.045-7.552-3.115c-12.075-12.075-33.173-12.075-45.248,0
			c-4.16,4.16-10.923,4.16-15.083,0c-4.16-4.16-4.16-10.923,0-15.083c20.117-20.139,55.296-20.139,75.413,0
			C297.877,254.464,297.877,261.227,293.717,265.365z M323.883,235.2c-2.091,2.091-4.821,3.115-7.552,3.115
			c-2.731,0-5.461-1.045-7.552-3.115c-29.099-29.099-76.501-29.099-105.6,0c-4.16,4.16-10.923,4.16-15.083,0
			c-4.16-4.16-4.16-10.923,0-15.083c37.44-37.419,98.325-37.419,135.765,0C328.043,224.277,328.043,231.04,323.883,235.2z
			 M354.048,205.035c-2.069,2.069-4.8,3.115-7.531,3.115c-2.731,0-5.461-1.045-7.552-3.115c-45.76-45.76-120.192-45.76-165.931,0
			c-4.16,4.16-10.923,4.16-15.083,0c-4.16-4.16-4.16-10.923,0-15.083c54.059-54.059,142.037-54.059,196.096,0
			C358.208,194.112,358.208,200.875,354.048,205.035z"/>
	</g>
</g>
<g>
	<g>
		<path d="M106.667,405.333v32c0,41.173,33.493,74.667,74.667,74.667h149.333c41.173,0,74.667-33.493,74.667-74.667v-32H106.667z
			 M256,469.333c-11.755,0-21.333-9.579-21.333-21.333c0-11.755,9.579-21.333,21.333-21.333c11.755,0,21.333,9.579,21.333,21.333
			C277.333,459.755,267.755,469.333,256,469.333z"/>
	</g>
</g>
<g>
</g>
<g>
</g>
<g>
</g>
<g>
</g>
<g>
</g>
<g>
</g>
<g>
</g>
<g>
</g>
<g>
</g>
<g>
</g>
<g>
</g>
<g>
</g>
<g>
</g>
<g>
</g>
<g>
</g>
</svg>
