<?xml version="1.0" encoding="iso-8859-1"?>
<!-- Generator: Adobe Illustrator 19.0.0, SVG Export Plug-In . SVG Version: 6.00 Build 0)  -->
<svg version="1.1" id="Capa_1" xmlns="http://www.w3.org/2000/svg" xmlns:xlink="http://www.w3.org/1999/xlink" x="0px" y="0px"
	 viewBox="0 0 511.151 511.151" style="enable-background:new 0 0 511.151 511.151;" xml:space="preserve">
<g>
	<g>
		<path d="M485.829,152.898c-64.448-64.469-150.165-99.989-241.344-99.989S67.589,88.429,3.12,152.898
			c-4.16,4.16-4.16,10.923,0,15.083c4.16,4.16,10.923,4.16,15.083,0c60.437-60.437,140.8-93.739,226.283-93.739
			s165.824,33.301,226.261,93.739c2.091,2.069,4.821,3.115,7.552,3.115s5.461-1.045,7.531-3.115
			C489.989,163.821,489.989,157.058,485.829,152.898z"/>
	</g>
</g>
<g>
	<g>
		<path d="M425.499,213.229c-99.819-99.819-262.229-99.819-362.048,0c-4.16,4.16-4.16,10.923,0,15.083
			c4.16,4.16,10.923,4.16,15.083,0c91.499-91.477,240.384-91.477,331.883,0c2.091,2.069,4.821,3.115,7.552,3.115
			s5.461-1.045,7.531-3.115C429.659,224.152,429.659,217.389,425.499,213.229z"/>
	</g>
</g>
<g>
	<g>
		<path d="M365.147,273.581c-32.235-32.235-75.093-49.984-120.683-49.984s-88.448,17.749-120.683,49.984
			c-4.16,4.16-4.16,10.923,0,15.083c4.16,4.16,10.923,4.16,15.083,0c28.224-28.203,65.707-43.733,105.6-43.733
			c39.893,0,77.397,15.531,105.6,43.733c2.091,2.069,4.821,3.115,7.552,3.115s5.461-1.045,7.531-3.115
			C369.307,284.504,369.307,277.741,365.147,273.581z"/>
	</g>
</g>
<g>
	<g>
		<path d="M508.016,354.69l-85.333-85.333c-4.16-4.16-10.923-4.16-15.083,0l-85.333,85.333c-3.051,3.051-3.968,7.637-2.304,11.627
			c1.643,3.989,5.547,6.592,9.856,6.592h10.667v74.667c0,5.888,4.779,10.667,10.667,10.667h42.667
			c5.888,0,10.667-4.779,10.667-10.667v-53.333h21.333v53.333c0,5.888,4.779,10.667,10.667,10.667h42.667
			c5.888,0,10.667-4.779,10.667-10.667v-74.667h10.667c4.309,0,8.213-2.603,9.856-6.592
			C511.984,362.328,511.088,357.762,508.016,354.69z"/>
	</g>
</g>
<g>
	<g>
		<circle cx="244.485" cy="362.242" r="53.333"/>
	</g>
</g>
<g>
</g>
<g>
</g>
<g>
</g>
<g>
</g>
<g>
</g>
<g>
</g>
<g>
</g>
<g>
</g>
<g>
</g>
<g>
</g>
<g>
</g>
<g>
</g>
<g>
</g>
<g>
</g>
<g>
</g>
</svg>
