<?xml version="1.0" encoding="iso-8859-1"?>
<!-- Generator: Adobe Illustrator 19.0.0, SVG Export Plug-In . SVG Version: 6.00 Build 0)  -->
<svg version="1.1" id="Capa_1" xmlns="http://www.w3.org/2000/svg" xmlns:xlink="http://www.w3.org/1999/xlink" x="0px" y="0px"
	 viewBox="0 0 512 512" style="enable-background:new 0 0 512 512;" xml:space="preserve">
<g>
	<g>
		<path d="M256,0c-2.176,0-4.267,0.256-6.421,0.32c-1.515-0.277-3.008-0.149-4.523,0.235
			C138.411,6.293,53.333,94.613,53.333,202.667c0,111.744,90.923,202.667,202.667,202.667c8.597,0,17.003-0.704,25.323-1.749
			c0.085,0,0.171,0.064,0.277,0.064c0.256,0,0.512-0.192,0.768-0.213c57.728-7.552,107.84-39.36,139.733-84.949
			c0.704-0.747,1.301-1.515,1.771-2.411c21.952-32.384,34.795-71.424,34.795-113.408C458.667,90.923,367.744,0,256,0z
			 M304.235,341.525c-2.368,7.829-17.003,27.733-28.117,41.323C269.504,383.552,262.805,384,256,384
			c-99.989,0-181.333-81.344-181.333-181.333c0-54.912,24.619-104.107,63.317-137.387c4.224,1.621,8.96,2.155,12.416,2.517
			c1.6,0.149,3.925,0.405,5.589,0.683c0.811,4.352-0.576,14.165-1.344,19.755c-1.301,9.259-2.517,17.984-0.853,25.067
			c2.624,11.136,12.565,29.056,18.411,37.184c8.917,12.373,26.069,24.896,44.224,38.123c22.72,16.576,50.688,36.992,53.696,53.056
			c-1.003,0.704-2.24,1.515-3.2,2.133c-5.589,3.605-13.227,8.555-13.227,17.323c0,15.339,15.637,26.283,30.741,36.885
			c7.723,5.419,18.304,12.843,20.16,17.28C306.475,319.829,306.261,334.784,304.235,341.525z M423.275,238.187
			c-6.976-9.685-21.376-12.352-35.307-14.933c-6.592-1.216-14.805-2.731-17.749-4.565c-0.981-0.704-3.285-3.541-4.821-5.397
			c-3.947-4.843-8-9.835-13.483-12.117c-7.061-2.923-18.304-2.219-30.421-0.725c-9.003,1.131-18.901,1.024-19.648,0.725
			c-15.424-6.4-35.84-22.059-42.283-31.275c0.981,0.213,1.963,0.427,2.923,0.619c8.875,1.92,18.219,3.179,24.192-0.491
			c12.715-7.851,19.435-26.752,25.941-45.035c3.456-9.707,7.019-19.755,10.325-24.363c0.661-0.725,3.115-2.453,4.736-3.605
			c6.613-4.651,15.659-11.029,14.016-21.269c-2.005-12.331-15.445-16.363-27.285-19.925c-3.563-1.067-8.96-2.688-10.261-3.605
			c-0.747-0.661-2.539-3.093-3.712-4.715c-4.587-6.272-10.283-14.101-19.349-14.101c-8.747,0-13.696,7.637-17.301,13.205
			c-0.277,0.363-0.533,0.747-0.811,1.173c-2.176-2.325-4.565-5.632-5.461-7.808c-1.216-2.923-0.32-13.312,0.128-18.56
			c99.221,0.896,179.691,81.813,179.691,181.248c0,18.987-2.965,37.269-8.384,54.485
			C428.139,249.472,426.475,242.645,423.275,238.187z"/>
	</g>
</g>
<g>
	<g>
		<path d="M298.667,448H288v-10.667c0-5.888-4.779-10.667-10.667-10.667h-42.667c-5.888,0-10.667,4.779-10.667,10.667V448h-10.667
			c-5.888,0-10.667,4.779-10.667,10.667v42.667c0,5.888,4.779,10.667,10.667,10.667h85.333c5.888,0,10.667-4.779,10.667-10.667
			v-42.667C309.333,452.779,304.555,448,298.667,448z"/>
	</g>
</g>
<g>
	<g>
		<path d="M256,384c-5.888,0-10.667,4.779-10.667,10.667v42.667c0,5.888,4.779,10.667,10.667,10.667
			c5.888,0,10.667-4.779,10.667-10.667v-42.667C266.667,388.779,261.888,384,256,384z"/>
	</g>
</g>
<g>
	<g>
		<path d="M405.333,469.333H298.667c-5.888,0-10.667,4.779-10.667,10.667c0,5.888,4.779,10.667,10.667,10.667h106.667
			c5.888,0,10.667-4.779,10.667-10.667C416,474.112,411.221,469.333,405.333,469.333z"/>
	</g>
</g>
<g>
	<g>
		<path d="M213.333,469.333H106.667C100.779,469.333,96,474.112,96,480c0,5.888,4.779,10.667,10.667,10.667h106.667
			c5.888,0,10.667-4.779,10.667-10.667C224,474.112,219.221,469.333,213.333,469.333z"/>
	</g>
</g>
<g>
</g>
<g>
</g>
<g>
</g>
<g>
</g>
<g>
</g>
<g>
</g>
<g>
</g>
<g>
</g>
<g>
</g>
<g>
</g>
<g>
</g>
<g>
</g>
<g>
</g>
<g>
</g>
<g>
</g>
</svg>
