<?xml version="1.0" encoding="iso-8859-1"?>
<!-- Generator: Adobe Illustrator 19.0.0, SVG Export Plug-In . SVG Version: 6.00 Build 0)  -->
<svg version="1.1" id="Capa_1" xmlns="http://www.w3.org/2000/svg" xmlns:xlink="http://www.w3.org/1999/xlink" x="0px" y="0px"
	 viewBox="0 0 506.984 506.984" style="enable-background:new 0 0 506.984 506.984;" xml:space="preserve">
<g>
	<g>
		<path d="M506.46,297.492c-1.429-4.395-5.525-7.381-10.155-7.381h-86.848l-26.837-82.603c-2.859-8.789-17.429-8.789-20.288,0
			l-26.837,82.603h-86.848c-4.629,0-8.725,2.987-10.155,7.381s0.128,9.216,3.883,11.925l70.357,51.136l-25.109,81.792
			c-1.344,4.395,0.277,9.173,4.011,11.84s8.789,2.624,12.48-0.085l68.373-50.112L440.86,454.1c1.877,1.365,4.075,2.069,6.293,2.069
			c2.176,0,4.331-0.661,6.187-1.963c3.755-2.667,5.355-7.445,4.011-11.84l-25.131-81.792l70.357-51.136
			C506.332,306.708,507.889,301.865,506.46,297.492z"/>
	</g>
</g>
<g>
	<g>
		<path d="M443.505,151.145C384.71,86.441,306.46,50.815,223.153,50.815S61.574,86.441,2.78,151.167
			c-3.968,4.352-3.648,11.115,0.704,15.061c4.395,3.947,11.115,3.648,15.083-0.725c54.699-60.203,127.36-93.355,204.587-93.355
			S373.02,105.3,427.719,165.503c2.112,2.304,4.992,3.499,7.893,3.499c2.56,0,5.141-0.917,7.168-2.773
			C447.132,162.26,447.452,155.519,443.505,151.145z"/>
	</g>
</g>
<g>
	<g>
		<path d="M346.14,174.719c-92.8-63.104-211.477-48-288.533,36.779c-3.968,4.373-3.627,11.115,0.725,15.083
			c2.048,1.856,4.608,2.773,7.168,2.773c2.901,0,5.781-1.173,7.893-3.499c69.717-76.715,176.939-90.517,260.736-33.493
			c4.885,3.349,11.541,2.048,14.827-2.816C352.263,184.66,351.004,178.025,346.14,174.719z"/>
	</g>
</g>
<g>
	<g>
		<path d="M310.47,249.684c-50.176-38.912-140.139-41.557-198.016,22.144c-3.968,4.373-3.627,11.115,0.725,15.083
			c2.048,1.856,4.608,2.773,7.168,2.773c2.901,0,5.781-1.173,7.893-3.499c49.643-54.677,126.464-52.736,169.131-19.648
			c4.693,3.627,11.371,2.773,14.976-1.877C315.953,260.009,315.121,253.311,310.47,249.684z"/>
	</g>
</g>
<g>
	<g>
		<path d="M271.516,356.948l-41.685-30.272c-3.691-2.688-6.763-6.592-9.408-11.925c-2.304-4.672-7.659-7.04-12.651-5.483
			c-22.699,6.869-37.973,27.307-37.973,50.859c0,29.397,23.936,53.333,53.333,53.333c26.624,0,49.28-20.011,52.693-46.528
			C276.316,363.049,274.673,359.231,271.516,356.948z"/>
	</g>
</g>
<g>
</g>
<g>
</g>
<g>
</g>
<g>
</g>
<g>
</g>
<g>
</g>
<g>
</g>
<g>
</g>
<g>
</g>
<g>
</g>
<g>
</g>
<g>
</g>
<g>
</g>
<g>
</g>
<g>
</g>
</svg>
