<?xml version="1.0" encoding="iso-8859-1"?>
<!-- Generator: Adobe Illustrator 19.0.0, SVG Export Plug-In . SVG Version: 6.00 Build 0)  -->
<svg version="1.1" id="Capa_1" xmlns="http://www.w3.org/2000/svg" xmlns:xlink="http://www.w3.org/1999/xlink" x="0px" y="0px"
	 viewBox="0 0 510.848 510.848" style="enable-background:new 0 0 510.848 510.848;" xml:space="preserve">
<g>
	<g>
		<path d="M283.749,419.029l-26.581-19.285v88.619c4.459-0.875,8.747-2.283,12.843-4.096c0.832-1.045,1.835-1.963,2.24-3.285
			l15.424-50.197C289.018,426.411,287.439,421.696,283.749,419.029z"/>
	</g>
</g>
<g>
	<g>
		<path d="M233.871,382.848h-83.413c19.456,58.027,50.453,98.539,85.376,105.493V384.277L233.871,382.848z"/>
	</g>
</g>
<g>
	<g>
		<path d="M311.653,7.893c22.336,22.4,40.811,56.213,53.717,97.6h83.328C416.357,58.475,368.037,23.445,311.653,7.893z"/>
	</g>
</g>
<g>
	<g>
		<path d="M150.458,105.493h85.376V0C200.911,6.955,169.914,47.467,150.458,105.493z"/>
	</g>
</g>
<g>
	<g>
		<path d="M257.167,0v105.493h85.376C323.066,47.467,292.069,6.955,257.167,0z"/>
	</g>
</g>
<g>
	<g>
		<path d="M127.631,382.827H44.303c32.341,47.019,80.661,82.048,137.045,97.6C158.991,458.048,140.517,424.213,127.631,382.827z"/>
	</g>
</g>
<g>
	<g>
		<path d="M44.303,105.493h83.328c12.885-41.387,31.381-75.2,53.717-97.6C124.965,23.467,76.645,58.496,44.303,105.493z"/>
	</g>
</g>
<g>
	<g>
		<path d="M508.474,352.171c-1.429-4.395-5.525-7.381-10.155-7.381h-86.848l-26.837-82.603c-2.859-8.789-17.429-8.789-20.288,0
			l-26.837,82.603h-86.848c-4.629,0-8.725,2.987-10.155,7.381c-1.429,4.395,0.128,9.216,3.883,11.925l70.357,51.136l-25.131,81.792
			c-1.344,4.395,0.277,9.173,4.011,11.84s8.789,2.645,12.48-0.085l68.373-50.112l68.373,50.112c1.877,1.365,4.075,2.069,6.293,2.069
			c2.176,0,4.331-0.661,6.187-1.963c3.755-2.667,5.355-7.445,4.011-11.84l-25.131-81.792l70.357-51.136
			C508.346,361.387,509.903,356.565,508.474,352.171z"/>
	</g>
</g>
<g>
	<g>
		<path d="M461.882,126.827h-90.56c8.043,32.256,12.779,68.288,13.525,106.667h106.304
			C489.487,195.029,479.333,158.741,461.882,126.827z"/>
	</g>
</g>
<g>
	<g>
		<path d="M404.581,254.827c0.107,0.277,0.256,0.491,0.363,0.768l19.648,60.48c1.429,4.395,5.525,7.381,10.155,7.381h35.733
			c4.672,0,8.811-3.051,10.197-7.531c6.293-20.459,9.792-40.96,10.752-61.099H404.581z"/>
	</g>
</g>
<g>
	<g>
		<path d="M348.986,126.827h-91.819v106.667h106.347C362.682,195.264,357.583,158.933,348.986,126.827z"/>
	</g>
</g>
<g>
	<g>
		<path d="M257.167,254.805v0.021v68.629h57.109c4.629,0,8.725-2.987,10.155-7.381l19.648-60.48
			c0.085-0.277,0.256-0.512,0.363-0.789H257.167z"/>
	</g>
</g>
<g>
	<g>
		<path d="M144.015,126.827c-8.597,32.107-13.675,68.437-14.507,106.667h106.325V126.827H144.015z"/>
	</g>
</g>
<g>
	<g>
		<g>
			<path d="M129.509,254.848L129.509,254.848c0-0.007,0-0.014,0-0.021V254.848z"/>
			<path d="M129.509,254.848c0.833,38.221,5.91,74.545,14.506,106.645h75.584c-1.003-5.205-1.088-10.624,0.64-15.915
				c2.645-8.107,8.448-14.251,15.595-18.048v-72.683H129.509z"/>
		</g>
	</g>
</g>
<g>
	<g>
		<path d="M31.119,126.827C13.669,158.741,3.514,195.029,1.85,233.493h106.304c0.768-38.357,5.483-74.411,13.525-106.667H31.119z"/>
	</g>
</g>
<g>
	<g>
		<path d="M108.133,254.827H1.85c1.664,38.464,11.819,74.752,29.269,106.667h90.539
			C113.615,329.237,108.922,293.184,108.133,254.827z"/>
	</g>
</g>
<g>
</g>
<g>
</g>
<g>
</g>
<g>
</g>
<g>
</g>
<g>
</g>
<g>
</g>
<g>
</g>
<g>
</g>
<g>
</g>
<g>
</g>
<g>
</g>
<g>
</g>
<g>
</g>
<g>
</g>
</svg>
