<?xml version="1.0" encoding="iso-8859-1"?>
<!-- Generator: Adobe Illustrator 19.0.0, SVG Export Plug-In . SVG Version: 6.00 Build 0)  -->
<svg version="1.1" id="Capa_1" xmlns="http://www.w3.org/2000/svg" xmlns:xlink="http://www.w3.org/1999/xlink" x="0px" y="0px"
	 viewBox="0 0 512 512" style="enable-background:new 0 0 512 512;" xml:space="preserve">
<g>
	<g>
		<path d="M309.333,405.333c-5.888,0-10.667,4.779-10.667,10.667v42.667c0,5.888,4.779,10.667,10.667,10.667
			S320,464.555,320,458.667V416C320,410.112,315.221,405.333,309.333,405.333z"/>
	</g>
</g>
<g>
	<g>
		<path d="M394.667,448H224c-5.888,0-10.667,4.779-10.667,10.667s4.779,10.667,10.667,10.667h170.667
			c5.888,0,10.667-4.779,10.667-10.667S400.555,448,394.667,448z"/>
	</g>
</g>
<g>
	<g>
		<path d="M138.667,42.667h-21.333v32c0,5.888-4.779,10.667-10.667,10.667S96,80.555,96,74.667v-32H74.667v32
			c0,5.888-4.779,10.667-10.667,10.667s-10.667-4.779-10.667-10.667v-32H32c-5.888,0-10.667,4.779-10.667,10.667v64
			C21.333,123.221,26.112,128,32,128h10.667v-10.667c0-5.888,4.779-10.667,10.667-10.667h64c5.888,0,10.667,4.779,10.667,10.667V128
			h10.667c5.888,0,10.667-4.779,10.667-10.667v-64C149.333,47.445,144.555,42.667,138.667,42.667z"/>
	</g>
</g>
<g>
	<g>
		<path d="M160,106.667h-21.333c-5.888,0-10.667,4.779-10.667,10.667v64c0,5.888-4.779,10.667-10.667,10.667H96
			c5.888,0,10.667,4.779,10.667,10.667S101.888,213.333,96,213.333H74.667c-5.888,0-10.667-4.779-10.667-10.667
			S68.779,192,74.667,192H53.333c-5.888,0-10.667-4.779-10.667-10.667v-64c0-5.888-4.779-10.667-10.667-10.667H10.667
			C4.779,106.667,0,111.445,0,117.333V224c0,2.837,1.131,5.547,3.115,7.552l21.333,21.333C26.453,254.869,29.163,256,32,256h106.667
			c2.837,0,5.547-1.131,7.552-3.115l21.333-21.333c1.984-2.005,3.115-4.715,3.115-7.552V117.333
			C170.667,111.445,165.888,106.667,160,106.667z"/>
	</g>
</g>
<g>
	<g>
		<rect x="64" y="128" width="42.667" height="42.667"/>
	</g>
</g>
<g>
	<g>
		<path d="M87.488,341.547c-5.781-1.195-11.413,2.496-12.608,8.277C74.453,351.979,64,402.88,64,458.667
			c0,5.888,4.779,10.667,10.667,10.667s10.667-4.779,10.667-10.667c0-53.525,10.347-104,10.432-104.512
			C96.96,348.395,93.269,342.741,87.488,341.547z"/>
	</g>
</g>
<g>
	<g>
		<path d="M138.667,277.333H32c-5.888,0-10.667,4.779-10.667,10.667v21.333c0,0.107,0.064,0.213,0.064,0.32
			c0.021,0.704,0.256,1.387,0.427,2.091c0.171,0.704,0.256,1.408,0.555,2.048c0.043,0.107,0.043,0.213,0.085,0.32l21.333,42.667
			c1.813,3.605,5.504,5.888,9.536,5.888h64c4.032,0,7.723-2.283,9.536-5.888l21.333-42.667c0.043-0.107,0.043-0.213,0.085-0.32
			c0.299-0.64,0.384-1.344,0.555-2.048c0.171-0.704,0.405-1.387,0.427-2.091c0-0.107,0.064-0.213,0.064-0.32V288
			C149.333,282.112,144.555,277.333,138.667,277.333z"/>
	</g>
</g>
<g>
	<g>
		<path d="M458.667,149.333h-256c-5.888,0-10.667,4.779-10.667,10.667v85.333c0,8.427-3.413,16.661-9.365,22.635l-8.832,8.832
			c-2.005,1.984-3.136,4.693-3.136,7.531l-0.128,25.963c-0.021,1.152-0.192,2.283-0.448,3.968c-0.107,0.811-0.192,1.6-0.384,2.411
			c-0.192,0.768-0.469,1.536-0.917,2.859c-0.363,1.088-0.725,2.176-1.515,4.117l-8.832,17.685H512V202.667
			C512,173.269,488.064,149.333,458.667,149.333z"/>
	</g>
</g>
<g>
	<g>
		<path d="M147.776,362.667l-1.813,3.648c-4.608,9.237-13.781,15.573-24.533,17.003c-3.499,0.448-6.528,2.624-8.128,5.781
			c-1.579,3.136-1.515,6.869,0.192,9.963c9.451,17.024,27.264,27.605,46.507,27.605h298.667c29.397,0,53.333-23.936,53.333-53.333
			v-10.667H147.776z"/>
	</g>
</g>
<g>
</g>
<g>
</g>
<g>
</g>
<g>
</g>
<g>
</g>
<g>
</g>
<g>
</g>
<g>
</g>
<g>
</g>
<g>
</g>
<g>
</g>
<g>
</g>
<g>
</g>
<g>
</g>
<g>
</g>
</svg>
