<?xml version="1.0" encoding="iso-8859-1"?>
<!-- Generator: Adobe Illustrator 19.0.0, SVG Export Plug-In . SVG Version: 6.00 Build 0)  -->
<svg version="1.1" id="Capa_1" xmlns="http://www.w3.org/2000/svg" xmlns:xlink="http://www.w3.org/1999/xlink" x="0px" y="0px"
	 viewBox="0 0 511.154 511.154" style="enable-background:new 0 0 511.154 511.154;" xml:space="preserve">
<g>
	<g>
		<path d="M400.068,276.91L279.62,397.358c-2.005,2.005-3.136,4.715-3.136,7.552v42.667c0,5.888,4.779,10.667,10.667,10.667h42.667
			c2.837,0,5.547-1.131,7.552-3.115l120.448-120.448L400.068,276.91z"/>
	</g>
</g>
<g>
	<g>
		<path d="M508.036,269.358l-42.667-42.667c-4.16-4.16-10.923-4.16-15.083,0l-35.115,35.115l57.728,57.771l35.115-35.115
			C512.196,280.281,512.196,273.539,508.036,269.358z"/>
	</g>
</g>
<g>
	<g>
		<path d="M443.524,153.262C384.708,88.537,306.458,52.91,223.151,52.91S61.594,88.537,2.778,153.241
			c-3.968,4.373-3.648,11.115,0.725,15.083c4.352,3.968,11.115,3.669,15.061-0.725c54.72-60.203,127.381-93.355,204.587-93.355
			s149.867,33.152,204.587,93.355c2.112,2.325,4.992,3.499,7.893,3.499c2.56,0,5.12-0.917,7.168-2.752
			C447.172,164.377,447.492,157.635,443.524,153.262z"/>
	</g>
</g>
<g>
	<g>
		<path d="M388.698,213.593c-44.16-48.597-102.933-75.349-165.547-75.349s-121.387,26.752-165.547,75.349
			c-3.968,4.373-3.648,11.115,0.725,15.083c4.373,3.947,11.093,3.627,15.061-0.725c40.064-44.096,93.269-68.373,149.76-68.373
			c56.491,0,109.696,24.277,149.76,68.352c2.112,2.325,4.992,3.499,7.893,3.499c2.56,0,5.12-0.917,7.168-2.752
			C392.346,224.707,392.666,217.966,388.698,213.593z"/>
	</g>
</g>
<g>
	<g>
		<path d="M333.85,273.923c-29.483-32.469-68.821-50.347-110.699-50.347s-81.195,17.877-110.699,50.347
			c-3.968,4.373-3.648,11.115,0.725,15.083c4.352,3.968,11.072,3.648,15.061-0.725c25.408-27.968,59.115-43.371,94.912-43.371
			c35.797,0,69.504,15.381,94.912,43.371c2.112,2.325,4.992,3.499,7.893,3.499c2.56,0,5.141-0.917,7.168-2.773
			C337.498,285.038,337.818,278.297,333.85,273.923z"/>
	</g>
</g>
<g>
	<g>
		<circle cx="223.151" cy="362.243" r="53.333"/>
	</g>
</g>
<g>
</g>
<g>
</g>
<g>
</g>
<g>
</g>
<g>
</g>
<g>
</g>
<g>
</g>
<g>
</g>
<g>
</g>
<g>
</g>
<g>
</g>
<g>
</g>
<g>
</g>
<g>
</g>
<g>
</g>
</svg>
