<?xml version="1.0" encoding="iso-8859-1"?>
<!-- Generator: Adobe Illustrator 19.0.0, SVG Export Plug-In . SVG Version: 6.00 Build 0)  -->
<svg version="1.1" id="Capa_1" xmlns="http://www.w3.org/2000/svg" xmlns:xlink="http://www.w3.org/1999/xlink" x="0px" y="0px"
	 viewBox="0 0 511.445 511.445" style="enable-background:new 0 0 511.445 511.445;" xml:space="preserve">
<g>
	<g>
		<path d="M126.165,84.224h65.28V0.555C165.952,7.765,142.144,40.085,126.165,84.224z"/>
	</g>
</g>
<g>
	<g>
		<path d="M37.184,84.224h66.475c10.304-30.848,24.491-57.899,41.621-77.077C101.141,20.096,63.275,47.637,37.184,84.224z"/>
	</g>
</g>
<g>
	<g>
		<path d="M284.928,105.557h-72.149v64h83.776C294.549,147.157,290.56,125.504,284.928,105.557z"/>
	</g>
</g>
<g>
	<g>
		<path d="M212.779,0.555v83.669h65.28C262.08,40.085,238.272,7.765,212.779,0.555z"/>
	</g>
</g>
<g>
	<g>
		<path d="M258.816,6.997c17.216,19.2,31.445,46.293,41.771,77.227h66.752C341.099,47.04,302.997,19.733,258.816,6.997z"/>
	</g>
</g>
<g>
	<g>
		<path d="M398.955,153.664c-4.16-17.088-10.347-33.195-18.283-48.107H306.88c5.419,20.587,9.131,42.261,11.029,64h71.296
			c0.149,0.021,0.32,0,0.427,0c5.888,0,10.667-4.779,10.667-10.667C400.299,156.992,399.829,155.221,398.955,153.664z"/>
	</g>
</g>
<g>
	<g>
		<path d="M37.227,318.869v0.021c8.619,12.096,18.539,23.339,29.803,33.408c1.984,1.792,4.523,2.709,7.104,2.709
			c1.472,0,2.965-0.299,4.352-0.917c3.84-1.728,6.315-5.525,6.315-9.749v-25.472H37.227z"/>
	</g>
</g>
<g>
	<g>
		<path d="M119.296,105.557c-7.381,26.219-11.968,55.381-12.885,85.333h0.939c13.461-13.163,31.829-21.333,52.096-21.333h32v-64
			H119.296z"/>
	</g>
</g>
<g>
	<g>
		<path d="M23.701,105.557C9.856,131.179,1.6,160.171,0,190.891h85.099c0.853-28.757,5.077-58.005,12.288-85.333H23.701z"/>
	</g>
</g>
<g>
	<g>
		<path d="M85.248,212.224H0.021c1.6,30.08,9.877,59.179,24.021,85.333h60.736v-53.333c0-4.48,0.555-8.832,1.323-13.099
			C85.568,224.896,85.44,218.56,85.248,212.224z"/>
	</g>
</g>
<g>
	<g>
		<path d="M458.112,190.891H159.445c-29.419,0-53.333,23.936-53.333,53.333v138.667h405.333V244.224
			C511.445,214.827,487.531,190.891,458.112,190.891z"/>
	</g>
</g>
<g>
	<g>
		<path d="M106.112,404.224v10.667c0,29.397,23.915,53.333,53.333,53.333h298.667c29.419,0,53.333-23.936,53.333-53.333v-10.667
			H106.112z"/>
	</g>
</g>
<g>
	<g>
		<path d="M308.779,446.891c-5.888,0-10.667,4.779-10.667,10.667v42.667c0,5.888,4.779,10.667,10.667,10.667
			c5.909,0,10.667-4.779,10.667-10.667v-42.667C319.445,451.669,314.667,446.891,308.779,446.891z"/>
	</g>
</g>
<g>
	<g>
		<path d="M394.112,489.557H223.445c-5.888,0-10.667,4.779-10.667,10.667c0,5.888,4.779,10.667,10.667,10.667h170.667
			c5.909,0,10.667-4.779,10.667-10.667C404.779,494.336,400,489.557,394.112,489.557z"/>
	</g>
</g>
<g>
</g>
<g>
</g>
<g>
</g>
<g>
</g>
<g>
</g>
<g>
</g>
<g>
</g>
<g>
</g>
<g>
</g>
<g>
</g>
<g>
</g>
<g>
</g>
<g>
</g>
<g>
</g>
<g>
</g>
</svg>
