<?xml version="1.0" encoding="iso-8859-1"?>
<!-- Generator: Adobe Illustrator 19.0.0, SVG Export Plug-In . SVG Version: 6.00 Build 0)  -->
<svg version="1.1" id="Capa_1" xmlns="http://www.w3.org/2000/svg" xmlns:xlink="http://www.w3.org/1999/xlink" x="0px" y="0px"
	 viewBox="0 0 512 512" style="enable-background:new 0 0 512 512;" xml:space="preserve">
<g>
	<g>
		<path d="M458.667,170.667H160c-29.397,0-53.333,23.936-53.333,53.333v138.667H512V224
			C512,194.603,488.064,170.667,458.667,170.667z"/>
	</g>
</g>
<g>
	<g>
		<path d="M106.667,384v10.667C106.667,424.064,130.603,448,160,448h298.667C488.064,448,512,424.064,512,394.667V384H106.667z"/>
	</g>
</g>
<g>
	<g>
		<path d="M309.333,426.667c-5.888,0-10.667,4.779-10.667,10.667V480c0,5.888,4.779,10.667,10.667,10.667S320,485.888,320,480
			v-42.667C320,431.445,315.221,426.667,309.333,426.667z"/>
	</g>
</g>
<g>
	<g>
		<path d="M394.667,469.333H224c-5.888,0-10.667,4.779-10.667,10.667c0,5.888,4.779,10.667,10.667,10.667h170.667
			c5.888,0,10.667-4.779,10.667-10.667C405.333,474.112,400.555,469.333,394.667,469.333z"/>
	</g>
</g>
<g>
	<g>
		<path d="M352,21.333H53.333C23.936,21.333,0,45.269,0,74.667v138.667h86.421c5.227-36.096,36.075-64,73.579-64h234.667
			c5.888,0,10.667-4.779,10.667-10.667v-64C405.333,45.269,381.397,21.333,352,21.333z"/>
	</g>
</g>
<g>
	<g>
		<path d="M0,234.667v10.667c0,29.397,23.936,53.333,53.333,53.333h21.333c5.888,0,10.667-4.779,10.667-10.667v-53.333H0z"/>
	</g>
</g>
<g>
</g>
<g>
</g>
<g>
</g>
<g>
</g>
<g>
</g>
<g>
</g>
<g>
</g>
<g>
</g>
<g>
</g>
<g>
</g>
<g>
</g>
<g>
</g>
<g>
</g>
<g>
</g>
<g>
</g>
</svg>
