<?xml version="1.0" encoding="iso-8859-1"?>
<!-- Generator: Adobe Illustrator 19.0.0, SVG Export Plug-In . SVG Version: 6.00 Build 0)  -->
<svg version="1.1" id="Capa_1" xmlns="http://www.w3.org/2000/svg" xmlns:xlink="http://www.w3.org/1999/xlink" x="0px" y="0px"
	 viewBox="0 0 512 512" style="enable-background:new 0 0 512 512;" xml:space="preserve">
<g>
	<g>
		<path d="M501.333,448H298.667v-10.667c0-5.888-4.779-10.667-10.667-10.667h-10.667V416c0-5.888-4.779-10.667-10.667-10.667H256
			V384h138.667C459.349,384,512,331.371,512,266.667c0-61.675-47.829-112.384-109.952-116.843
			C387.221,75.968,321.365,21.333,245.333,21.333c-88.235,0-160,71.765-160,160c0,3.605,0.149,7.296,0.469,11.2
			C37.653,197.653,0,238.507,0,288c0,52.928,43.072,96,96,96h138.667v21.333H224c-5.888,0-10.667,4.779-10.667,10.667v10.667
			h-10.667c-5.888,0-10.667,4.779-10.667,10.667V448H10.667C4.779,448,0,452.779,0,458.667s4.779,10.667,10.667,10.667H192V480
			c0,5.888,4.779,10.667,10.667,10.667H288c5.888,0,10.667-4.779,10.667-10.667v-10.667h202.667c5.888,0,10.667-4.779,10.667-10.667
			S507.221,448,501.333,448z"/>
	</g>
</g>
<g>
</g>
<g>
</g>
<g>
</g>
<g>
</g>
<g>
</g>
<g>
</g>
<g>
</g>
<g>
</g>
<g>
</g>
<g>
</g>
<g>
</g>
<g>
</g>
<g>
</g>
<g>
</g>
<g>
</g>
</svg>
