<?xml version="1.0" encoding="iso-8859-1"?>
<!-- Generator: Adobe Illustrator 19.0.0, SVG Export Plug-In . SVG Version: 6.00 Build 0)  -->
<svg version="1.1" id="Capa_1" xmlns="http://www.w3.org/2000/svg" xmlns:xlink="http://www.w3.org/1999/xlink" x="0px" y="0px"
	 viewBox="0 0 512.005 512.005" style="enable-background:new 0 0 512.005 512.005;" xml:space="preserve">
<g>
	<g>
		<path d="M271.785,256.005l119.424-109.483c2.133-1.963,3.392-4.736,3.456-7.637s-1.045-5.717-3.115-7.765l-128-128
			c-3.072-3.029-7.637-3.968-11.627-2.304c-3.989,1.643-6.592,5.547-6.592,9.856v221.077L135.209,130.799
			c-4.331-3.947-11.051-3.691-15.061,0.661c-3.989,4.352-3.691,11.093,0.64,15.083l119.424,109.461L120.787,365.466
			c-4.331,3.989-4.629,10.731-0.64,15.083c4.011,4.373,10.752,4.629,15.061,0.661l110.123-100.949v221.077
			c0,4.309,2.603,8.213,6.592,9.856c1.301,0.555,2.709,0.811,4.075,0.811c2.773,0,5.504-1.088,7.552-3.136l128-128
			c2.048-2.048,3.179-4.864,3.115-7.765s-1.301-5.675-3.456-7.637L271.785,256.005z M266.665,36.421L368.574,138.33l-101.909,93.419
			V36.421z M266.665,475.589V280.261l101.909,93.419L266.665,475.589z"/>
	</g>
</g>
<g>
</g>
<g>
</g>
<g>
</g>
<g>
</g>
<g>
</g>
<g>
</g>
<g>
</g>
<g>
</g>
<g>
</g>
<g>
</g>
<g>
</g>
<g>
</g>
<g>
</g>
<g>
</g>
<g>
</g>
</svg>
