<?xml version="1.0" encoding="iso-8859-1"?>
<!-- Generator: Adobe Illustrator 19.0.0, SVG Export Plug-In . SVG Version: 6.00 Build 0)  -->
<svg version="1.1" id="Capa_1" xmlns="http://www.w3.org/2000/svg" xmlns:xlink="http://www.w3.org/1999/xlink" x="0px" y="0px"
	 viewBox="0 0 512 512" style="enable-background:new 0 0 512 512;" xml:space="preserve">
<g>
	<g>
		<path d="M394.667,276.181c-64.683,0-117.333,52.629-117.333,117.333s52.651,117.333,117.333,117.333S512,458.219,512,393.515
			S459.349,276.181,394.667,276.181z M394.667,489.515c-52.928,0-96-43.072-96-96s43.072-96,96-96c52.928,0,96,43.072,96,96
			S447.595,489.515,394.667,489.515z"/>
	</g>
</g>
<g>
	<g>
		<path d="M477.611,461.419L326.784,310.571c-4.16-4.16-10.923-4.16-15.083,0c-4.16,4.16-4.16,10.923,0,15.083l150.827,150.848
			c2.091,2.069,4.821,3.115,7.552,3.115s5.461-1.045,7.531-3.115C481.771,472.341,481.771,465.579,477.611,461.419z"/>
	</g>
</g>
<g>
	<g>
		<path d="M279.296,472.405c-15.595-22.997-23.851-49.877-23.851-77.76v94.869c9.344-1.835,17.835-6.037,25.579-11.499
			C280.96,476.032,280.448,474.091,279.296,472.405z"/>
	</g>
</g>
<g>
	<g>
		<path d="M142.293,362.645h91.819V255.979H127.723C128.555,294.208,133.696,330.539,142.293,362.645z"/>
	</g>
</g>
<g>
	<g>
		<path d="M148.757,106.645h85.376V1.152C199.211,8.085,168.213,48.597,148.757,106.645z"/>
	</g>
</g>
<g>
	<g>
		<path d="M148.757,383.979c19.456,58.048,50.453,98.56,85.376,105.493V383.979H148.757z"/>
	</g>
</g>
<g>
	<g>
		<path d="M142.315,127.979c-8.619,32.107-13.739,68.437-14.571,106.667h106.389V127.979H142.315z"/>
	</g>
</g>
<g>
	<g>
		<path d="M460.181,127.979h-90.56c8.043,32.277,12.821,68.267,13.568,106.667h106.389
			C487.915,196.16,477.632,159.893,460.181,127.979z"/>
	</g>
</g>
<g>
	<g>
		<path d="M255.467,1.152v105.493h85.376C321.365,48.597,290.368,8.085,255.467,1.152z"/>
	</g>
</g>
<g>
	<g>
		<path d="M29.419,127.979C11.968,159.893,1.685,196.16,0,234.645h106.389c0.747-38.4,5.525-74.389,13.568-106.667H29.419z"/>
	</g>
</g>
<g>
	<g>
		<path d="M106.389,255.979H0c1.664,38.485,11.947,74.752,29.419,106.667h90.56C111.915,330.368,107.157,294.379,106.389,255.979z"
			/>
	</g>
</g>
<g>
	<g>
		<path d="M125.931,383.979H42.603c32.341,47.019,80.661,82.048,137.045,97.6C157.291,459.179,138.816,425.365,125.931,383.979z"/>
	</g>
</g>
<g>
	<g>
		<path d="M383.083,255.979c-0.021,0.192-0.021,0.384-0.021,0.555c3.669-0.299,7.339-0.555,11.072-0.555H383.083z"/>
	</g>
</g>
<g>
	<g>
		<path d="M42.603,106.645h83.328c12.885-41.387,31.381-75.2,53.717-97.6C123.285,24.619,74.965,59.648,42.603,106.645z"/>
	</g>
</g>
<g>
	<g>
		<g>
			<path d="M394.133,256h1.155c-0.385-0.003-0.769-0.021-1.155-0.021V256z"/>
			<path d="M395.288,256c27.469,0.225,53.926,8.45,76.605,23.829c3.093,2.091,7.104,2.432,10.453,0.875
				c3.392-1.579,5.739-4.8,6.144-8.512c0.64-5.931,1.045-11.2,1.301-16.192H395.288z"/>
		</g>
	</g>
</g>
<g>
	<g>
		<path d="M255.467,255.979v106.667h3.883c12.011-50.581,51.755-90.432,102.251-102.656c0.043-1.344,0.107-2.667,0.149-4.011
			H255.467z"/>
	</g>
</g>
<g>
	<g>
		<path d="M309.952,9.045c22.336,22.4,40.811,56.213,53.717,97.6h83.328C414.656,59.627,366.336,24.597,309.952,9.045z"/>
	</g>
</g>
<g>
	<g>
		<path d="M255.467,383.979v10.667c0-3.605,0.277-7.125,0.533-10.667H255.467z"/>
	</g>
</g>
<g>
	<g>
		<path d="M347.285,127.979h-91.819v106.667h106.389C361.024,196.416,355.883,160.085,347.285,127.979z"/>
	</g>
</g>
<g>
</g>
<g>
</g>
<g>
</g>
<g>
</g>
<g>
</g>
<g>
</g>
<g>
</g>
<g>
</g>
<g>
</g>
<g>
</g>
<g>
</g>
<g>
</g>
<g>
</g>
<g>
</g>
<g>
</g>
</svg>
