<?xml version="1.0" encoding="iso-8859-1"?>
<!-- Generator: Adobe Illustrator 19.0.0, SVG Export Plug-In . SVG Version: 6.00 Build 0)  -->
<svg version="1.1" id="Capa_1" xmlns="http://www.w3.org/2000/svg" xmlns:xlink="http://www.w3.org/1999/xlink" x="0px" y="0px"
	 viewBox="0 0 510.592 510.592" style="enable-background:new 0 0 510.592 510.592;" xml:space="preserve">
<g>
	<g>
		<path d="M171.179,105.259c-6.763,25.771-10.816,54.805-11.605,85.333h85.056v-85.333H171.179z"/>
	</g>
</g>
<g>
	<g>
		<path d="M177.707,83.925h66.923V0C217.429,6.699,193.323,38.571,177.707,83.925z"/>
	</g>
</g>
<g>
	<g>
		<path d="M159.552,211.925c0.789,30.528,4.864,59.563,11.605,85.333h73.472v-85.333H159.552z"/>
	</g>
</g>
<g>
	<g>
		<path d="M138.24,211.925H53.163c1.621,30.72,9.856,59.712,23.701,85.333h72.171C142.72,271.296,138.965,242.517,138.24,211.925z"
			/>
	</g>
</g>
<g>
	<g>
		<path d="M339.435,105.259h-73.472v85.333h85.077C350.251,160.064,346.176,131.029,339.435,105.259z"/>
	</g>
</g>
<g>
	<g>
		<path d="M76.864,105.259c-13.845,25.621-22.101,54.613-23.701,85.333h85.056c0.747-30.592,4.501-59.371,10.816-85.333H76.864z"/>
	</g>
</g>
<g>
	<g>
		<path d="M265.963,0v83.925h66.923C317.269,38.571,293.163,6.699,265.963,0z"/>
	</g>
</g>
<g>
	<g>
		<path d="M372.373,211.925c-0.747,30.592-4.501,59.371-10.816,85.333h72.171c13.845-25.621,22.101-54.613,23.701-85.333H372.373z"
			/>
	</g>
</g>
<g>
	<g>
		<path d="M177.707,318.592c15.616,45.355,39.723,77.227,66.923,83.925v-83.925H177.707z"/>
	</g>
</g>
<g>
	<g>
		<path d="M154.987,318.592h-64.64c25.579,35.84,62.4,63.125,105.408,76.373C178.987,376.427,165.013,350.208,154.987,318.592z"/>
	</g>
</g>
<g>
	<g>
		<path d="M314.837,7.552c16.768,18.539,30.741,44.757,40.768,76.373h64.64C394.667,48.085,357.845,20.8,314.837,7.552z"/>
	</g>
</g>
<g>
	<g>
		<path d="M355.605,318.592c-10.027,31.616-24,57.835-40.768,76.373c43.008-13.248,79.829-40.533,105.408-76.373H355.605z"/>
	</g>
</g>
<g>
	<g>
		<path d="M90.347,83.925h64.64c10.027-31.616,24-57.835,40.768-76.373C152.747,20.8,115.925,48.085,90.347,83.925z"/>
	</g>
</g>
<g>
	<g>
		<path d="M265.963,318.592v83.925c27.2-6.699,51.307-38.571,66.923-83.925H265.963z"/>
	</g>
</g>
<g>
	<g>
		<path d="M433.707,105.259h-72.149c6.315,25.963,10.069,54.741,10.795,85.333h85.056
			C455.787,159.872,447.552,130.88,433.707,105.259z"/>
	</g>
</g>
<g>
	<g>
		<path d="M265.963,211.925v85.333h73.451c6.763-25.771,10.816-54.805,11.605-85.333H265.963z"/>
	</g>
</g>
<g>
	<g>
		<path d="M297.963,446.592h-10.667v-10.667c0-5.888-4.779-10.667-10.667-10.667h-42.667c-5.888,0-10.667,4.779-10.667,10.667
			v10.667h-10.667c-5.888,0-10.667,4.779-10.667,10.667v42.667c0,5.888,4.779,10.667,10.667,10.667h85.333
			c5.888,0,10.667-4.779,10.667-10.667v-42.667C308.629,451.371,303.851,446.592,297.963,446.592z"/>
	</g>
</g>
<g>
	<g>
		<path d="M404.629,467.925H297.963c-5.888,0-10.667,4.779-10.667,10.667c0,5.888,4.779,10.667,10.667,10.667h106.667
			c5.888,0,10.667-4.779,10.667-10.667C415.296,472.704,410.517,467.925,404.629,467.925z"/>
	</g>
</g>
<g>
	<g>
		<path d="M212.629,467.925H105.963c-5.888,0-10.667,4.779-10.667,10.667c0,5.888,4.779,10.667,10.667,10.667h106.667
			c5.888,0,10.667-4.779,10.667-10.667C223.296,472.704,218.517,467.925,212.629,467.925z"/>
	</g>
</g>
<g>
</g>
<g>
</g>
<g>
</g>
<g>
</g>
<g>
</g>
<g>
</g>
<g>
</g>
<g>
</g>
<g>
</g>
<g>
</g>
<g>
</g>
<g>
</g>
<g>
</g>
<g>
</g>
<g>
</g>
</svg>
