<svg id="color" enable-background="new 0 0 24 24" height="512" viewBox="0 0 24 24" width="512" xmlns="http://www.w3.org/2000/svg"><path d="m12 0c-7.514 0-12 3.572-12 9.554 0 6.578 8.61 14.446 12 14.446s12-7.868 12-14.446c0-5.982-4.486-9.554-12-9.554z" fill="#26a69a"/><g fill="#00695c"><path d="m12 18.984c-1.995 0-3.87-.777-5.28-2.188-.293-.293-.293-.768 0-1.061s.768-.293 1.061 0c1.127 1.127 2.626 1.748 4.22 1.748s3.093-.621 4.22-1.748c.293-.293.768-.293 1.061 0s.293.768 0 1.061c-1.412 1.411-3.287 2.188-5.282 2.188z"/><path d="m7.12 12.653c-.146 0-.289-.001-.429-.002l-.341-.001c-1.847 0-3.35-1.503-3.35-3.35s1.503-3.35 3.35-3.35c1.869 0 4.65 2.781 4.65 4.65 0 .479-.175.906-.505 1.234-.754.749-2.145.819-3.375.819z"/><path d="m16.88 12.653c-1.229 0-2.621-.07-3.375-.819-.33-.328-.505-.754-.505-1.234 0-1.869 2.781-4.65 4.65-4.65 1.847 0 3.35 1.503 3.35 3.35s-1.503 3.35-3.35 3.35l-.342.001c-.139.001-.283.002-.428.002z"/></g></svg>