<svg id="color" enable-background="new 0 0 24 24" height="512" viewBox="0 0 24 24" width="512" xmlns="http://www.w3.org/2000/svg"><circle cx="12" cy="12" fill="#ffd54f" r="12"/><g fill="#6d4c41"><path d="m17.884 5.866c-.192 0-.384-.073-.53-.22-.195-.194-.512-.194-.707 0-.293.293-.768.293-1.061 0s-.293-.768 0-1.061c.779-.78 2.049-.78 2.828 0 .293.293.293.768 0 1.061-.146.147-.338.22-.53.22z"/><circle cx="17" cy="10" r="2"/><circle cx="7" cy="10" r="2"/><path d="m7.884 5.866c-.192 0-.384-.073-.53-.22-.195-.194-.512-.194-.707 0-.293.293-.768.293-1.061 0s-.293-.768 0-1.061c.779-.78 2.049-.78 2.828 0 .293.293.293.768 0 1.061-.146.147-.338.22-.53.22z"/></g><ellipse cx="12" cy="17.5" fill="#e53935" rx="3" ry="3.45"/></svg>