<svg id="color" enable-background="new 0 0 24 24" height="512" viewBox="0 0 24 24" width="512" xmlns="http://www.w3.org/2000/svg"><circle cx="12" cy="12" fill="#ffd54f" r="12"/><g fill="#6d4c41"><circle cx="7" cy="10" r="2"/><circle cx="17" cy="10" r="2"/><path d="m17.25 19.675c-.192 0-.384-.073-.53-.22-1.261-1.261-2.937-1.955-4.72-1.955s-3.459.694-4.72 1.955c-.293.293-.768.293-1.061 0s-.293-.768 0-1.061c1.545-1.544 3.597-2.394 5.781-2.394s4.236.85 5.78 2.395c.293.293.293.768 0 1.061-.146.146-.338.219-.53.219z"/><path d="m9.25 7.333c-.143 0-.288-.041-.416-.126l-2.5-1.667c-.345-.229-.438-.695-.208-1.04.229-.345.695-.438 1.04-.208l2.5 1.667c.345.23.438.695.208 1.04-.145.217-.382.334-.624.334z"/><path d="m14.75 7.333c-.242 0-.48-.117-.625-.334-.23-.345-.137-.81.208-1.04l2.5-1.667c.343-.23.81-.138 1.04.208.23.345.137.81-.208 1.04l-2.5 1.667c-.127.086-.271.126-.415.126z"/></g></svg>