<svg id="color" enable-background="new 0 0 24 24" height="512" viewBox="0 0 24 24" width="512" xmlns="http://www.w3.org/2000/svg"><circle cx="12" cy="12" fill="#ffd54f" r="12"/><g fill="#6d4c41"><circle cx="7" cy="10" r="2"/><circle cx="17" cy="10" r="2"/><path d="m9.25 7.333c-.143 0-.288-.041-.416-.126l-2.5-1.667c-.345-.229-.438-.695-.208-1.04s.696-.438 1.04-.208l2.5 1.667c.345.23.438.695.208 1.04-.145.217-.382.334-.624.334z"/><path d="m14.75 7.333c-.242 0-.48-.117-.625-.334-.23-.345-.137-.81.208-1.04l2.5-1.667c.343-.23.81-.138 1.04.208.23.345.137.81-.208 1.04l-2.5 1.667c-.127.086-.271.126-.415.126z"/></g><ellipse cx="12" cy="17.5" fill="#e53935" rx="3" ry="3.45"/></svg>