<svg id="color" enable-background="new 0 0 24 24" height="512" viewBox="0 0 24 24" width="512" xmlns="http://www.w3.org/2000/svg"><circle cx="12" cy="12" fill="#ffd54f" r="12"/><path d="m9.414 7.586-2.083-2.084c-.293-.293-.768-.293-1.061 0s-.293.768 0 1.061l.72.72c-.589.349-.99.984-.99 1.717 0 1.103.897 2 2 2s2-.897 2-2c0-.533-.207-1.034-.584-1.41-.001-.001-.001-.003-.002-.004z" fill="#6d4c41"/><path d="m17.009 7.283.72-.72c.293-.293.293-.768 0-1.061s-.768-.293-1.061 0l-2.083 2.083c-.001.001-.001.003-.002.004-.376.377-.583.878-.583 1.411 0 1.103.897 2 2 2s2-.897 2-2c0-.733-.401-1.368-.991-1.717z" fill="#6d4c41"/><path d="m19.458 18.002c-1.108-3.16-4.105-5.282-7.458-5.282s-6.35 2.123-7.458 5.282c-.08.229-.044.483.097.682.14.198.368.316.611.316h13.5c.243 0 .471-.118.611-.316.141-.199.177-.453.097-.682z" fill="#e53935"/></svg>