<svg id="color" enable-background="new 0 0 24 24" height="512" viewBox="0 0 24 24" width="512" xmlns="http://www.w3.org/2000/svg"><path d="m3.638 12.029c.122-.396-.101-.815-.497-.937-.2-.061-.412-.092-.63-.092-1.378 0-2.5 1.121-2.5 2.5s1.122 2.5 2.5 2.5c.218 0 .43-.031.63-.093.396-.121.618-.541.497-.937-.099-.324-.397-.519-.717-.519v-1.904c.32.001.618-.194.717-.518z" fill="#ffb74d"/><path d="m20.931 11.069c-.404.094-.655.497-.561.9.08.345.39.566.731.566v1.928c-.34-.001-.65.221-.731.566-.094.403.157.807.561.9.198.048.393.071.58.071 1.378 0 2.5-1.121 2.5-2.5 0-1.565-1.427-2.812-3.08-2.431z" fill="#ffb74d"/><path d="m22.011 13.5c0 5.51-4.49 10-10 10s-10-4.49-10-10c0-4 2.36-7.45 5.76-9.05.48-.24.99-.43 1.52-.57.86-.25 1.78-.38 2.72-.38s1.86.13 2.72.38c.02.12.03.24.03.37 0 1.52-1.23 2.75-2.75 2.75-.44 0-.86-.1-1.23-.29-.37-.18-.82-.04-1.01.33s-.04.82.33 1.01c.58.29 1.24.45 1.91.45 2.27 0 4.14-1.8 4.24-4.05 3.4 1.6 5.76 5.05 5.76 9.05z" fill="#ffd54f"/><g fill="#6d4c41"><path d="m16.261 4.25c0 .07 0 .14-.01.2-.1 2.25-1.97 4.05-4.24 4.05-.67 0-1.33-.16-1.91-.45-.37-.19-.52-.64-.33-1.01s.64-.51 1.01-.33c.37.19.79.29 1.23.29 1.52 0 2.75-1.23 2.75-2.75 0-.13-.01-.25-.03-.37-.18-1.35-1.33-2.38-2.72-2.38s-2.54 1.03-2.72 2.38c-.53.14-1.04.33-1.52.57-.01-.06-.01-.13-.01-.2 0-2.34 1.91-4.25 4.25-4.25s4.25 1.91 4.25 4.25z"/><path d="m9.25 13.75c-.414 0-.75-.336-.75-.75 0-.275-.224-.5-.5-.5s-.5.225-.5.5c0 .414-.336.75-.75.75s-.75-.336-.75-.75c0-1.103.897-2 2-2s2 .897 2 2c0 .414-.336.75-.75.75z"/><path d="m17.25 13.75c-.414 0-.75-.336-.75-.75 0-.275-.224-.5-.5-.5s-.5.225-.5.5c0 .414-.336.75-.75.75s-.75-.336-.75-.75c0-1.103.897-2 2-2s2 .897 2 2c0 .414-.336.75-.75.75z"/></g><path d="m20 24c-.149 0-.297-.044-.425-.133-.597-.411-3.575-2.563-3.575-4.552 0-1.276 1.097-2.315 2.446-2.315.579 0 1.125.193 1.554.526.429-.333.976-.526 1.554-.526 1.349 0 2.446 1.039 2.446 2.315 0 1.988-2.978 4.141-3.575 4.552-.128.089-.276.133-.425.133z" fill="#e53935"/><path d="m11.75 21c-.297 0-.579-.178-.696-.472-.154-.385.033-.821.418-.975l.949-.38-1.006-.503c-.254-.126-.415-.386-.415-.67s.161-.544.415-.671l1.006-.503-.949-.38c-.385-.153-.572-.59-.418-.975.154-.384.591-.569.975-.418l2.5 1c.274.109.459.37.471.665s-.15.57-.414.702l-1.159.58 1.158.579c.264.132.426.407.414.702s-.197.556-.471.665l-2.5 1c-.091.036-.185.054-.278.054z" fill="#6d4c41"/></svg>