<svg id="color" enable-background="new 0 0 24 24" height="512" viewBox="0 0 24 24" width="512" xmlns="http://www.w3.org/2000/svg"><path d="m.255 4.18s.35 4.06 2.17 5.65c.09.08.18.15.28.22l.13.08h5.81z" fill="#5d4037"/><path d="m23.745 4.18s-.35 4.06-2.17 5.65c-.09.08-.18.15-.28.22l-.13.08h-5.81z" fill="#5d4037"/><circle cx="12" cy="13.5" fill="#ffd54f" r="10.5"/><path d="m5.39 4.62.27-.49 1.43-2.85c.43-.79 1.26-1.28 2.15-1.28h5.52c.89 0 1.72.49 2.15 1.28l1.43 2.85.27.49s-3.672 1.526-6.61 1.526-6.61-1.526-6.61-1.526z" fill="#5d4037"/><path d="m18.25 14.25c-.414 0-.75-.336-.75-.75 0-.551-.448-1-1-1s-1 .449-1 1c0 .414-.336.75-.75.75s-.75-.336-.75-.75c0-1.378 1.121-2.5 2.5-2.5s2.5 1.122 2.5 2.5c0 .414-.336.75-.75.75z" fill="#6d4c41"/><path d="m9.279 14.25c-.414 0-.75-.336-.75-.75 0-.551-.448-1-1-1s-1 .449-1 1c0 .414-.336.75-.75.75s-.75-.336-.75-.75c0-1.378 1.121-2.5 2.5-2.5s2.5 1.122 2.5 2.5c0 .414-.336.75-.75.75z" fill="#6d4c41"/><path d="m20 24c-.15 0-.3-.045-.43-.135-.595-.416-3.57-2.594-3.57-4.601 0-1.288 1.097-2.335 2.445-2.335.579 0 1.125.195 1.555.531.43-.336.976-.531 1.555-.531 1.349 0 2.445 1.048 2.445 2.335 0 2.007-2.975 4.185-3.57 4.601-.13.09-.28.135-.43.135z" fill="#e53935"/><g fill="#6d4c41"><path d="m11.75 21c-.304 0-.589-.186-.702-.487-.146-.388.051-.82.438-.965l.39-.146-.461-.231c-.255-.127-.415-.387-.415-.671s.16-.544.415-.671l.461-.231-.39-.146c-.388-.146-.584-.578-.438-.965.146-.389.58-.584.966-.439l2 .75c.279.104.47.365.485.663.016.298-.146.577-.414.71l-.658.329.658.329c.268.133.43.412.414.71s-.206.558-.485.663l-2 .75c-.087.033-.176.048-.264.048z"/><path d="m23.238 3.634c.272 0 .507.214.507.496 0 .082-.02.17-.065.26-2.985 4.469-7.037 5.993-10.934 5.993-6.483 0-12.537-4.217-12.537-6.105 0-.17.049-.32.15-.447.094-.126.244-.196.401-.196.043 0 .086.005.129.016.111.109 5.777 1.529 11.111 1.529 4.987 0 10.977-1.397 11.11-1.53.043-.011.086-.016.128-.016z"/></g></svg>