<svg id="color" enable-background="new 0 0 24 24" height="512" viewBox="0 0 24 24" width="512" xmlns="http://www.w3.org/2000/svg"><path d="m24 18.34c0 2-2.97 4.18-3.57 4.6-.13.09-.28.13-.43.13s-.3-.04-.43-.13c-.21-.14-.69-.5-1.24-.98-1.05-.92-2.33-2.31-2.33-3.62 0-1.29 1.1-2.34 2.45-2.34.57 0 1.12.19 1.55.53.43-.34.98-.53 1.55-.53.35 0 .68.07.98.19.87.37 1.47 1.19 1.47 2.15z" fill="#fff"/><g fill="#e53935"><path d="m22.53 16.19c-.3-.12-.63-.19-.98-.19-.57 0-1.12.19-1.55.53-.43-.34-.98-.53-1.55-.53-1.35 0-2.45 1.05-2.45 2.34 0 1.31 1.28 2.7 2.33 3.62.55.48 1.03.84 1.24.98.13.09.28.13.43.13s.3-.04.43-.13c.6-.42 3.57-2.6 3.57-4.6 0-.96-.6-1.78-1.47-2.15z"/><path d="m20.165.216c-.221-.199-.538-.248-.807-.127-.271.121-.445.389-.445.685 0 1.256-.564 2.417-1.548 3.187-.326.255-.383.727-.128 1.053s.728.383 1.053.128c.024-.019.044-.042.068-.061l1.502 1.502c-.025.038-.044.079-.07.116-.237.34-.154.807.186 1.044.131.091.28.135.429.135.237 0 .47-.112.616-.321 1.606-2.302 1.238-5.458-.856-7.341z"/><path d="m5.058.774c0-.296-.174-.564-.445-.685-.269-.12-.586-.071-.807.127-2.095 1.883-2.462 5.039-.855 7.342.146.209.379.321.615.321.148 0 .298-.044.429-.135.34-.237.423-.704.186-1.044-.026-.038-.045-.078-.07-.116l1.502-1.502c.024.019.043.042.068.061.325.254.798.197 1.053-.129s.198-.798-.128-1.053c-.984-.77-1.548-1.931-1.548-3.187z"/></g><path d="m23 12.98c0 .59-.05 1.17-.14 1.74-.41-.14-.85-.22-1.31-.22-.53 0-1.06.11-1.55.31-.49-.2-1.02-.31-1.55-.31-2.18 0-3.95 1.72-3.95 3.84 0 1.7 1.26 3.29 2.49 4.44-1.5.77-3.19 1.2-4.99 1.2-6.07 0-11-4.94-11-11 0-2.15.61-4.15 1.68-5.84.9-1.43 2.11-2.64 3.55-3.52 1.68-1.04 3.65-1.64 5.77-1.64s4.09.6 5.76 1.63c1.43.88 2.64 2.08 3.54 3.5 1.08 1.7 1.7 3.71 1.7 5.87z" fill="#ef5350"/><path d="m17.013 8.285.707-.707c.293-.293.293-.768 0-1.061s-.768-.293-1.061 0l-2 2c-.006.006-.007.013-.013.019-.02.018-.042.031-.061.05-.377.379-.585.881-.585 1.414 0 1.103.897 2 2 2s2-.897 2-2c0-.732-.399-1.366-.987-1.715z" fill="#4e342e"/><path d="m9.353 8.536c-.005-.005-.007-.013-.012-.018l-2-2c-.293-.293-.768-.293-1.061 0s-.293.768 0 1.061l.707.707c-.588.348-.987.982-.987 1.714 0 1.103.897 2 2 2s2-.897 2-2c0-.533-.208-1.035-.585-1.413-.019-.019-.042-.032-.062-.051z" fill="#4e342e"/><path d="m10.751 21c-.275 0-.54-.151-.672-.415-.186-.37-.035-.82.336-1.006l1.277-.639-1.328-.797c-.225-.135-.364-.379-.364-.643s.139-.508.364-.644l1.328-.797-1.277-.639c-.371-.186-.521-.636-.336-1.006.187-.371.637-.52 1.006-.336l2.5 1.25c.245.122.404.368.414.643.011.273-.129.53-.363.672l-1.428.857 1.428.856c.234.142.374.398.363.672-.01.274-.169.521-.414.643l-2.5 1.25c-.107.054-.221.079-.334.079z" fill="#4e342e"/></svg>