<svg id="color" enable-background="new 0 0 24 24" height="512" viewBox="0 0 24 24" width="512" xmlns="http://www.w3.org/2000/svg"><circle cx="12" cy="12" fill="#ffd54f" r="12"/><g fill="#6d4c41"><path d="m10.751 20c-.275 0-.54-.152-.672-.415-.186-.371-.035-.821.336-1.006l1.277-.639-1.328-.797c-.225-.135-.364-.379-.364-.643s.139-.508.364-.643l1.328-.797-1.277-.639c-.371-.186-.521-.636-.336-1.006.187-.37.636-.52 1.006-.335l2.5 1.25c.245.123.404.369.414.642.011.273-.129.531-.363.672l-1.428.856 1.428.857c.234.141.374.398.363.672-.01.273-.169.52-.414.642l-2.5 1.25c-.107.054-.222.079-.334.079z"/><circle cx="7" cy="9" r="2"/><circle cx="17" cy="9" r="2"/></g><path d="m21.555 16c-.579 0-1.125.195-1.555.531-.43-.336-.976-.531-1.555-.531-1.348 0-2.445 1.048-2.445 2.335 0 2.007 2.975 4.185 3.57 4.601.13.09.279.135.43.135s.3-.045.43-.135c.595-.416 3.57-2.593 3.57-4.601 0-1.287-1.097-2.335-2.445-2.335z" fill="#e53935"/></svg>