<svg id="color" enable-background="new 0 0 24 24" height="512" viewBox="0 0 24 24" width="512" xmlns="http://www.w3.org/2000/svg"><path d="m21.25 16.25c-.123 0-.231-.012-.341-.025-.411-.05-.704-.424-.654-.835.05-.41.429-.704.835-.653.051.006.102.014.159.014.689 0 .689-2.5 0-2.5-.414 0-.75-.336-.75-.75s.336-.75.75-.75c1.517 0 2.75 1.233 2.75 2.75s-1.232 2.749-2.749 2.749z" fill="#ffb74d"/><path d="m2.75 16.25c-1.517 0-2.75-1.233-2.75-2.75s1.233-2.75 2.75-2.75c.414 0 .75.336.75.75s-.336.75-.75.75c-.689 0-.689 2.5 0 2.5.057 0 .108-.008.159-.014.411-.051.786.243.835.653.05.411-.243.785-.654.835-.109.014-.217.026-.34.026z" fill="#ffb74d"/><path d="m12.01 24c-5.74 0-9.402-4.901-9.935-9.514-.011-.098-.003-.196.024-.291l1.18-4.15c.074-.262.285-.463.55-.525.034-.008 3.461-.847 3.461-3.21 0-.38.284-.699.661-.745.378-.035.729.199.818.567.004.013 1.155 3.368 11.231 3.368.334 0 .628.221.721.542l1.19 4.12c.027.095.036.193.025.291-.522 4.693-4.377 9.547-9.926 9.547z" fill="#ffd54f"/><g fill="#6d4c41"><path d="m8 15.5c-.827 0-1.5-.673-1.5-1.5s.673-1.5 1.5-1.5 1.5.673 1.5 1.5-.673 1.5-1.5 1.5z"/><path d="m16 15.5c-.827 0-1.5-.673-1.5-1.5s.673-1.5 1.5-1.5 1.5.673 1.5 1.5-.673 1.5-1.5 1.5z"/><path d="m12 19.995c-1.094 0-2.188-.401-3.021-1.205-.298-.288-.306-.763-.019-1.061.288-.3.763-.305 1.061-.02 1.091 1.055 2.867 1.055 3.958 0 .299-.285.773-.28 1.061.02.288.298.279.772-.019 1.061-.833.804-1.927 1.205-3.021 1.205z"/><path d="m2.82 15.15c-.018 0-.035-.001-.053-.002-.354-.024-.642-.294-.691-.646-.05-.368-.076-.77-.076-1.192v-5.23c0-5.552 5.189-8.08 10.01-8.08 4.964 0 9.99 2.778 9.99 8.09v5.23c0 .378-.021.756-.065 1.135-.041.355-.326.633-.683.662-.353.032-.684-.195-.783-.539l-1.034-3.582c-6.708-.083-9.723-1.644-11.068-2.914-.874 1.691-2.869 2.492-3.76 2.774l-1.066 3.749c-.092.325-.388.545-.721.545z"/></g></svg>