<svg id="color" enable-background="new 0 0 24 24" height="512" viewBox="0 0 24 24" width="512" xmlns="http://www.w3.org/2000/svg"><circle cx="12" cy="12" fill="#ffd54f" r="12"/><path d="m14.25 15h-4.5c-.414 0-.75.336-.75.75v2.5c0 .965.785 1.75 1.75 1.75h2.5c.965 0 1.75-.785 1.75-1.75v-2.5c0-.414-.336-.75-.75-.75z" fill="#fff"/><g fill="#6d4c41"><path d="m17.5 16.5h-11c-.414 0-.75-.336-.75-.75s.336-.75.75-.75h11c.414 0 .75.336.75.75s-.336.75-.75.75z"/><path d="m9.25 10.25c-.414 0-.75-.336-.75-.75 0-.551-.448-1-1-1s-1 .449-1 1c0 .414-.336.75-.75.75s-.75-.336-.75-.75c0-1.378 1.121-2.5 2.5-2.5s2.5 1.122 2.5 2.5c0 .414-.336.75-.75.75z"/><path d="m18.25 10.25c-.414 0-.75-.336-.75-.75 0-.551-.448-1-1-1s-1 .449-1 1c0 .414-.336.75-.75.75s-.75-.336-.75-.75c0-1.378 1.121-2.5 2.5-2.5s2.5 1.122 2.5 2.5c0 .414-.336.75-.75.75z"/></g></svg>