<svg id="color" enable-background="new 0 0 24 24" height="512" viewBox="0 0 24 24" width="512" xmlns="http://www.w3.org/2000/svg"><circle cx="12" cy="12" fill="#ffd54f" r="12"/><g fill="#6d4c41"><path d="m12 20.036c-2.089 0-4.053-.813-5.53-2.291-.293-.293-.293-.768 0-1.061s.768-.293 1.061 0c1.194 1.194 2.781 1.852 4.47 1.852s3.276-.658 4.47-1.852c.293-.293.768-.293 1.061 0s.293.768 0 1.061c-1.479 1.477-3.443 2.291-5.532 2.291z"/><path d="m9.25 10h-4.5c-.414 0-.75-.336-.75-.75s.336-.75.75-.75h4.5c.414 0 .75.336.75.75s-.336.75-.75.75z"/><path d="m19.25 10h-4.5c-.414 0-.75-.336-.75-.75s.336-.75.75-.75h4.5c.414 0 .75.336.75.75s-.336.75-.75.75z"/></g></svg>