<svg id="color" enable-background="new 0 0 24 24" height="512" viewBox="0 0 24 24" width="512" xmlns="http://www.w3.org/2000/svg"><circle cx="12" cy="12" fill="#ffd54f" r="12"/><g fill="#6d4c41"><circle cx="7" cy="9" r="2"/><circle cx="17" cy="9" r="2"/><path d="m15.25 20c-.147 0-.296-.043-.426-.133l-6.5-4.5c-.341-.236-.426-.703-.19-1.043.236-.341.704-.426 1.043-.19l6.5 4.5c.341.236.426.703.19 1.043-.146.21-.38.323-.617.323z"/><path d="m8.75 20c-.238 0-.472-.113-.617-.323-.236-.34-.151-.808.19-1.043l6.5-4.5c.339-.237.808-.152 1.043.19.236.34.151.808-.19 1.043l-6.5 4.5c-.129.09-.278.133-.426.133z"/></g></svg>