<svg id="color" enable-background="new 0 0 24 24" height="512" viewBox="0 0 24 24" width="512" xmlns="http://www.w3.org/2000/svg"><path d="m17.392 19.345c-.352-.216-.814-.106-1.031.248l-.486.794-1.146.41-.023-.052c-.169-.378-.611-.549-.99-.38-.378.168-.548.612-.38.99l.98 2.2c.113.254.358.425.636.443.015.002.032.002.048.002.26 0 .503-.135.64-.358l2-3.266c.216-.353.105-.815-.248-1.031z" fill="#90caf9"/><circle cx="12" cy="11.25" fill="#42a5f5" r="11.25"/><g fill="#4e342e"><path d="m8 11c-1.103 0-2-.897-2-2s.897-2 2-2 2 .897 2 2-.897 2-2 2z"/><path d="m16 11c-1.103 0-2-.897-2-2s.897-2 2-2 2 .897 2 2-.897 2-2 2z"/><path d="m5.75 7c-.414 0-.75-.336-.75-.75s.336-.75.75-.75.75-.336.75-.75.336-.75.75-.75.75.336.75.75c0 1.241-1.009 2.25-2.25 2.25z"/><path d="m18.25 7c-1.241 0-2.25-1.009-2.25-2.25 0-.414.336-.75.75-.75s.75.336.75.75.336.75.75.75.75.336.75.75-.336.75-.75.75z"/></g><path d="m16.625 17.75h-9.25c-1.31 0-2.375-1.065-2.375-2.375s1.065-2.375 2.375-2.375h9.25c1.31 0 2.375 1.065 2.375 2.375s-1.065 2.375-2.375 2.375z" fill="#eee"/><path d="m22.494 9.946c-.776-.886-2.298-.884-3.073.003-.388.444-.564 1.034-.484 1.617l1.3 9.535c.051.372.368.649.743.649h.001c.376-.001.693-.279.742-.652l1.259-9.54c.077-.583-.101-1.17-.488-1.612z" fill="#90caf9"/><path d="m1.437 11.01c-.338.398-.491.883-.424 1.293l1.219 11.029c.042.378.359.665.739.668h.006c.377 0 .696-.28.744-.654l1.411-10.989c.075-.446-.071-.929-.403-1.329-.804-.967-2.476-.977-3.292-.018z" fill="#90caf9"/></svg>