<svg id="color" enable-background="new 0 0 24 24" height="512" viewBox="0 0 24 24" width="512" xmlns="http://www.w3.org/2000/svg"><path d="m.255 4.18s.35 4.06 2.17 5.65c.09.08.18.15.28.22l.13.08h5.81z" fill="#5d4037"/><path d="m23.745 4.18s-.35 4.06-2.17 5.65c-.09.08-.18.15-.28.22l-.13.08h-5.81z" fill="#5d4037"/><circle cx="12" cy="13.5" fill="#ffd54f" r="10.5"/><path d="m5.39 4.62.27-.49 1.43-2.85c.43-.79 1.26-1.28 2.15-1.28h5.52c.89 0 1.72.49 2.15 1.28l1.43 2.85.27.49s-3.672 1.526-6.61 1.526-6.61-1.526-6.61-1.526z" fill="#5d4037"/><g fill="#6d4c41"><path d="m6.751 15c-.236 0-.47-.111-.615-.32-.237-.339-.155-.807.185-1.044l1.621-1.136-1.622-1.136c-.34-.237-.422-.705-.185-1.044.237-.34.705-.423 1.045-.184l2.5 1.75c.201.14.32.369.32.614s-.119.474-.32.614l-2.5 1.75c-.131.092-.281.136-.429.136z"/><path d="m17.249 15c-.148 0-.298-.044-.429-.136l-2.5-1.75c-.201-.14-.32-.369-.32-.614s.119-.474.32-.614l2.5-1.75c.34-.237.808-.155 1.044.184.237.339.155.807-.185 1.044l-1.621 1.136 1.622 1.136c.34.237.422.705.185 1.044-.146.209-.38.32-.616.32z"/><path d="m16.249 20c-.156 0-.314-.049-.449-.15l-1.575-1.182-1.809 1.206c-.252.168-.58.168-.832 0l-1.809-1.206-1.575 1.182c-.332.25-.803.181-1.05-.15-.249-.332-.182-.802.149-1.05l2-1.5c.254-.191.602-.201.866-.024l1.835 1.223 1.834-1.223c.264-.176.613-.166.866.024l2 1.5c.331.249.398.719.149 1.05-.146.196-.371.3-.6.3z"/><path d="m23.238 3.634c.272 0 .507.214.507.496 0 .082-.02.17-.065.26-2.985 4.469-7.037 5.993-10.934 5.993-6.483 0-12.537-4.217-12.537-6.105 0-.17.049-.32.15-.447.094-.126.244-.196.401-.196.043 0 .086.005.129.016.111.109 5.777 1.529 11.111 1.529 4.987 0 10.977-1.397 11.11-1.53.043-.011.086-.016.128-.016z"/></g></svg>