<svg id="color" enable-background="new 0 0 24 24" height="512" viewBox="0 0 24 24" width="512" xmlns="http://www.w3.org/2000/svg"><circle cx="12" cy="12" fill="#ffd54f" r="12"/><g fill="#6d4c41"><path d="m6.75 11c-.236 0-.469-.111-.615-.32-.237-.339-.155-.807.185-1.044l1.622-1.136-1.622-1.136c-.34-.237-.422-.705-.184-1.044.238-.34.706-.422 1.044-.184l2.5 1.75c.2.14.32.369.32.614s-.12.474-.32.614l-2.5 1.75c-.131.092-.281.136-.43.136z"/><path d="m17.25 11c-.149 0-.299-.044-.43-.136l-2.5-1.75c-.2-.14-.32-.369-.32-.614s.12-.474.32-.614l2.5-1.75c.34-.237.808-.155 1.044.184.238.339.155.807-.184 1.044l-1.622 1.136 1.623 1.136c.339.237.422.705.184 1.044-.146.209-.379.32-.615.32z"/><path d="m17.75 18c-.122 0-.245-.029-.359-.092l-2.406-1.312-2.649 1.325c-.211.105-.46.105-.671 0l-2.649-1.325-2.406 1.312c-.363.2-.819.065-1.018-.299s-.064-.819.299-1.018l2.75-1.5c.215-.118.475-.122.695-.013l2.664 1.334 2.665-1.333c.221-.109.479-.105.695.013l2.75 1.5c.363.198.498.654.299 1.018-.137.249-.394.39-.659.39z"/></g></svg>