<svg id="color" enable-background="new 0 0 24 24" height="512" viewBox="0 0 24 24" width="512" xmlns="http://www.w3.org/2000/svg"><path d="m21.08 9.5h-18.16c-.224 0-.435-.1-.578-.271s-.2-.4-.159-.619c.691-3.638 3.318-6.572 6.857-7.657.071-.022.145-.033.22-.033h5.48c.075 0 .148.011.22.033 3.539 1.085 6.166 4.019 6.857 7.657.042.219-.017.446-.159.618s-.354.272-.578.272z" fill="#ffe082"/><path d="m2.5 16.75c-1.378 0-2.5-1.121-2.5-2.5s1.122-2.5 2.5-2.5c.152 0 .295.018.436.054.401.103.643.512.541.913-.103.401-.512.639-.913.54-.014-.004-.031-.007-.064-.007-.551 0-.551 2 0 2 .11 0 .211-.021.309-.062.383-.161.822.018.982.4.161.381-.018.821-.399.982-.282.119-.582.18-.892.18z" fill="#ffb74d"/><path d="m21.5 16.75c-.31 0-.61-.061-.892-.179-.381-.161-.561-.602-.399-.982.161-.383.601-.562.982-.4.098.041.199.062.309.062.551 0 .551-2 0-2-.4.104-.842-.137-.945-.537-.103-.401.107-.807.509-.909.141-.036.284-.054.436-.054 1.378 0 2.5 1.121 2.5 2.5s-1.122 2.499-2.5 2.499z" fill="#ffb74d"/><path d="m12.01 24c-5.291 0-8.736-4.241-9.698-8.183-.044-.181-.02-.372.069-.535l1.84-3.39c.131-.242.384-.392.659-.392h14.27c.272 0 .522.147.655.385l1.84 3.3c.091.163.118.355.075.537-.939 3.987-4.379 8.278-9.71 8.278z" fill="#ffd54f"/><g fill="#6d4c41"><path d="m12 20.995c-1.094 0-2.188-.401-3.021-1.205-.298-.288-.306-.763-.019-1.061.288-.3.763-.306 1.061-.02 1.091 1.055 2.867 1.055 3.958 0 .299-.286.773-.28 1.061.02.288.298.279.772-.019 1.061-.833.804-1.927 1.205-3.021 1.205z"/><path d="m3.04 16.39c-.032 0-.064-.002-.097-.006-.307-.04-.559-.266-.632-.566-.206-.848-.311-1.692-.311-2.508v-1.06c0-.414.336-.75.75-.75h2.13c.265 0 .509.14.645.366.135.228.141.509.015.741l-1.84 3.39c-.133.244-.388.393-.66.393z"/><path d="m20.99 16.3c-.269 0-.521-.145-.655-.385l-1.84-3.3c-.13-.232-.126-.516.008-.745s.38-.37.646-.37h2.1c.414 0 .75.336.75.75v1.07c0 .785-.094 1.592-.279 2.397-.069.303-.318.53-.625.574-.034.006-.07.009-.105.009z"/></g><path d="m21.5 13h-19c-1.378 0-2.5-1.121-2.5-2.5s1.122-2.5 2.5-2.5h19c1.378 0 2.5 1.121 2.5 2.5s-1.122 2.5-2.5 2.5z" fill="#ffb300"/><path d="m14.75 9.5h-5.5c-.414 0-.75-.336-.75-.75v-7c0-.965.785-1.75 1.75-1.75h3.5c.965 0 1.75.785 1.75 1.75v7c0 .414-.336.75-.75.75z" fill="#ffb300"/><path d="m8 17c-.827 0-1.5-.673-1.5-1.5s.673-1.5 1.5-1.5 1.5.673 1.5 1.5-.673 1.5-1.5 1.5z" fill="#6d4c41"/><path d="m16 17c-.827 0-1.5-.673-1.5-1.5s.673-1.5 1.5-1.5 1.5.673 1.5 1.5-.673 1.5-1.5 1.5z" fill="#6d4c41"/></svg>