<svg id="color" enable-background="new 0 0 24 24" height="512" viewBox="0 0 24 24" width="512" xmlns="http://www.w3.org/2000/svg"><path d="m20.556.216c-.221-.199-.538-.248-.807-.127-.271.121-.445.389-.445.685 0 1.256-.564 2.417-1.548 3.187-.326.255-.383.727-.128 1.053s.728.383 1.053.128c.024-.019.044-.042.068-.061l1.502 1.502c-.025.038-.044.079-.07.116-.237.34-.154.807.186 1.044.131.091.28.135.429.135.237 0 .47-.112.616-.321 1.606-2.302 1.239-5.458-.856-7.341z" fill="#e53935"/><path d="m5.449.774c0-.296-.174-.564-.445-.685-.269-.12-.586-.071-.807.127-2.094 1.883-2.462 5.039-.855 7.342.146.209.379.321.616.321.148 0 .298-.044.429-.135.339-.237.422-.704.185-1.044-.026-.038-.045-.078-.07-.116l1.502-1.502c.024.019.043.042.068.061.326.254.798.197 1.053-.129s.198-.798-.128-1.053c-.984-.77-1.548-1.931-1.548-3.187z" fill="#e53935"/><circle cx="12.391" cy="12.976" fill="#ef5350" r="11"/><g fill="#4e342e"><path d="m17.404 8.285.707-.707c.293-.293.293-.768 0-1.061s-.768-.293-1.061 0l-2 2c-.006.006-.007.013-.013.019-.02.018-.042.031-.061.05-.377.378-.585.88-.585 1.413 0 1.103.897 2 2 2s2-.897 2-2c0-.731-.399-1.365-.987-1.714z"/><path d="m9.745 8.536c-.006-.005-.007-.013-.013-.018l-2-2c-.293-.293-.768-.293-1.061 0s-.293.768 0 1.061l.707.707c-.587.348-.987.982-.987 1.714 0 1.103.897 2 2 2s2-.897 2-2c0-.533-.208-1.035-.585-1.413-.019-.019-.042-.032-.061-.051z"/><path d="m15 20.542c-.192 0-.384-.073-.53-.22-1.361-1.361-3.578-1.361-4.939 0-.293.293-.768.293-1.061 0s-.293-.768 0-1.061c1.947-1.947 5.113-1.947 7.061 0 .293.293.293.768 0 1.061-.147.147-.339.22-.531.22z"/></g><path d="m17 18.5c-1.24 0-2.25-1.01-2.25-2.25 0-.958 1.142-2.716 1.633-3.426.279-.406.955-.406 1.234 0 .491.71 1.633 2.468 1.633 3.426 0 1.24-1.01 2.25-2.25 2.25z" fill="#00bcd4"/></svg>