<svg id="color" enable-background="new 0 0 24 24" height="512" viewBox="0 0 24 24" width="512" xmlns="http://www.w3.org/2000/svg"><path d="m.255 4.18s.35 4.06 2.17 5.65c.09.08.18.15.28.22l.13.08h5.81z" fill="#5d4037"/><path d="m23.745 4.18s-.35 4.06-2.17 5.65c-.09.08-.18.15-.28.22l-.13.08h-5.81z" fill="#5d4037"/><path d="m22.5 13.5c0 3.11-1.35 5.9-3.5 7.82-1.14 1.02-2.5 1.79-4 2.24-.95.29-1.96.44-3 .44s-2.05-.15-3-.44c-1.5-.45-2.86-1.22-4-2.24-2.15-1.92-3.5-4.71-3.5-7.82 0-1.36.26-2.66.74-3.85.28-.72.64-1.41 1.08-2.04.19-.28.39-.56.61-.82.61-.74 1.31-1.39 2.1-1.92.07-.05.13-.09.2-.13 1.66-1.1 3.64-1.74 5.77-1.74s4.11.64 5.76 1.73c.07.04.14.09.21.14.79.53 1.49 1.18 2.1 1.92.22.26.42.54.61.82.44.63.8 1.32 1.08 2.04.48 1.19.74 2.49.74 3.85z" fill="#ffd54f"/><path d="m5.39 4.62.27-.49 1.43-2.85c.43-.79 1.26-1.28 2.15-1.28h5.52c.89 0 1.72.49 2.15 1.28l1.43 2.85.27.49s-3.672 1.526-6.61 1.526-6.61-1.526-6.61-1.526z" fill="#5d4037"/><path d="m12 21.735c-1.379 0-2.5-1.278-2.5-2.85s1.121-2.85 2.5-2.85 2.5 1.278 2.5 2.85-1.121 2.85-2.5 2.85z" fill="#e53935"/><path d="m8.25 12h-2.5c-.41 0-.75.34-.75.75v8.57c1.14 1.02 2.5 1.79 4 2.24v-10.81c0-.41-.34-.75-.75-.75z" fill="#00bcd4"/><path d="m18.25 12h-2.5c-.41 0-.75.34-.75.75v10.81c1.5-.45 2.86-1.22 4-2.24v-8.57c0-.41-.34-.75-.75-.75z" fill="#00bcd4"/><g fill="#6d4c41"><path d="m10.25 13.502h-5.5c-.414 0-.75-.336-.75-.75s.336-.75.75-.75h5.5c.414 0 .75.336.75.75s-.336.75-.75.75z"/><path d="m19.25 13.502h-5.5c-.414 0-.75-.336-.75-.75s.336-.75.75-.75h5.5c.414 0 .75.336.75.75s-.336.75-.75.75z"/><path d="m23.238 3.634c.272 0 .507.214.507.496 0 .082-.02.17-.065.26-2.985 4.469-7.037 5.993-10.934 5.993-6.483 0-12.537-4.217-12.537-6.105 0-.17.049-.32.15-.447.094-.126.244-.196.401-.196.043 0 .086.005.129.016.111.109 5.777 1.529 11.111 1.529 4.987 0 10.977-1.397 11.11-1.53.043-.011.086-.016.128-.016z"/></g></svg>