<svg id="color" enable-background="new 0 0 24 24" height="512" viewBox="0 0 24 24" width="512" xmlns="http://www.w3.org/2000/svg"><circle cx="12" cy="12" fill="#ffd54f" r="12"/><path d="m8 7.75v15.56c-1.08-.38-2.09-.91-3-1.57v-13.99z" fill="#00bcd4"/><path d="m19 7.75v14c-.91.66-1.92 1.19-3 1.56v-15.56z" fill="#00bcd4"/><path d="m12 14.05c-1.654 0-3 1.346-3 3v.9c0 1.654 1.346 3 3 3s3-1.346 3-3v-.9c0-1.654-1.346-3-3-3z" fill="#e53935"/><g fill="#6d4c41"><path d="m9.25 8.5h-5.5c-.414 0-.75-.336-.75-.75s.336-.75.75-.75h5.5c.414 0 .75.336.75.75s-.336.75-.75.75z"/><path d="m20.25 8.5h-5.5c-.414 0-.75-.336-.75-.75s.336-.75.75-.75h5.5c.414 0 .75.336.75.75s-.336.75-.75.75z"/></g></svg>