<svg id="color" enable-background="new 0 0 24 24" height="512" viewBox="0 0 24 24" width="512" xmlns="http://www.w3.org/2000/svg"><path d="m24 12c0 6.63-5.37 12-12 12-5.66 0-10.4-3.92-11.67-9.19-.13-.55-.23-1.12-.28-1.7-.03-.37-.05-.74-.05-1.11 0-6.63 5.37-12 12-12 1.26 0 2.48.19 3.62.56.56.17 1.09.38 1.61.63 4.01 1.94 6.77 6.05 6.77 10.81z" fill="#ffd54f"/><path d="m20.47 14.97c-.23.73-.53 1.4-.92 2.03h-15.1c-.39-.63-.69-1.3-.92-2.03-.07-.23-.03-.47.12-.66.14-.2.36-.31.6-.31h15.5c.24 0 .46.11.6.31.15.19.19.43.12.66z" fill="#fff"/><path d="m19.55 17c-1.58 2.59-4.41 4.22-7.55 4.22s-5.97-1.63-7.55-4.22z" fill="#e53935"/><g fill="#4caf50"><path d="m7 7.5c-.414 0-.75-.336-.75-.75v-1c0-.414.336-.75.75-.75s.75.336.75.75v1c0 .414-.336.75-.75.75z"/><path d="m7.25 11.5h-1.497c-.414 0-.75-.336-.75-.75s.336-.75.75-.75h1.497c.138 0 .25-.112.25-.25s-.112-.25-.25-.25h-.5c-.965 0-1.75-.785-1.75-1.75s.785-1.75 1.75-1.75h1.5c.414 0 .75.336.75.75s-.336.75-.75.75h-1.5c-.138 0-.25.112-.25.25s.112.25.25.25h.5c.965 0 1.75.785 1.75 1.75s-.785 1.75-1.75 1.75z"/><path d="m7 12.5c-.414 0-.75-.336-.75-.75v-1c0-.414.336-.75.75-.75s.75.336.75.75v1c0 .414-.336.75-.75.75z"/><path d="m17 7.5c-.414 0-.75-.336-.75-.75v-1c0-.414.336-.75.75-.75s.75.336.75.75v1c0 .414-.336.75-.75.75z"/><path d="m17.25 11.5h-1.497c-.414 0-.75-.336-.75-.75s.336-.75.75-.75h1.497c.138 0 .25-.112.25-.25s-.112-.25-.25-.25h-.5c-.965 0-1.75-.785-1.75-1.75s.785-1.75 1.75-1.75h1.5c.414 0 .75.336.75.75s-.336.75-.75.75h-1.5c-.138 0-.25.112-.25.25s.112.25.25.25h.5c.965 0 1.75.785 1.75 1.75s-.785 1.75-1.75 1.75z"/><path d="m17 12.5c-.414 0-.75-.336-.75-.75v-1c0-.414.336-.75.75-.75s.75.336.75.75v1c0 .414-.336.75-.75.75z"/></g></svg>