<svg id="color" enable-background="new 0 0 24 24" height="512" viewBox="0 0 24 24" width="512" xmlns="http://www.w3.org/2000/svg"><path d="m19.7 8.95c-1.16.74-3.99 1.64-7.7 1.64-3.74 0-6.54-.9-7.7-1.64.02-.03.06-.06.09-.08 1.12-.75 2.34-1.32 3.64-1.7.48-.13 1 .23 1 .71h5.94c0-.41.34-.74.77-.74h.01c.07 0 .15.01.22.03 1.3.38 2.52.95 3.64 1.7.03.02.07.05.09.08z" fill="#ffb74d"/><path d="m18.582 2.015c-.259 0-.515.039-.766.115-.768-.777-1.887-1.178-2.968-1.07-1.651-1.281-4.045-1.281-5.696 0-1.057-.104-2.134.268-2.907 1.017-.187-.041-.375-.062-.564-.062-1.486 0-2.694 1.208-2.694 2.694 0 1.675 1.599 3 3.26 2.632.543.527 1.22.871 1.931.981.309.062.652.067.974.036.201.157.417.298.641.42v2.571c0 .414.336.75.75.75s.75-.336.75-.75h1.417c0 .414.336.75.75.75s.75-.336.75-.75v-2.571c.224-.122.439-.263.641-.42.322.031.682.023.943-.031.771-.123 1.483-.492 2.025-1.039.25.076.506.115.764.115 1.486 0 2.694-1.208 2.694-2.694s-1.209-2.694-2.695-2.694z" fill="#ff5722"/><path d="m21.5 14.49c0 5.23-4.26 9.5-9.5 9.5s-9.5-4.27-9.5-9.5c0-1.29.25-2.53.75-3.69.01-.01.01-.03.02-.04.23-.54.52-1.08.86-1.57.04-.07.09-.14.14-.21.01-.01.01-.02.02-.03h.01c1.16.74 3.96 1.64 7.7 1.64 3.71 0 6.54-.9 7.7-1.64h.01c.01.01.01.02.02.03.05.07.1.14.14.21.34.49.63 1.03.86 1.57.01.01.01.03.02.04.5 1.16.75 2.4.75 3.69z" fill="#ffd54f"/><path d="m8 16c-1.103 0-2-.897-2-2s.897-2 2-2 2 .897 2 2-.897 2-2 2z" fill="#6d4c41"/><path d="m16 16c-1.103 0-2-.897-2-2s.897-2 2-2 2 .897 2 2-.897 2-2 2z" fill="#6d4c41"/><path d="m12 21.73c-1.378 0-2.5-1.278-2.5-2.85s1.122-2.85 2.5-2.85 2.5 1.278 2.5 2.85-1.122 2.85-2.5 2.85z" fill="#e53935"/></svg>