<svg id="color" enable-background="new 0 0 24 24" height="512" viewBox="0 0 24 24" width="512" xmlns="http://www.w3.org/2000/svg"><path d="m3.638 12.029c.122-.396-.101-.815-.497-.937-.2-.061-.412-.092-.63-.092-1.378 0-2.5 1.121-2.5 2.5s1.122 2.5 2.5 2.5c.218 0 .43-.031.63-.093.396-.121.618-.541.497-.937-.099-.324-.397-.519-.717-.519v-1.904c.32.001.618-.194.717-.518z" fill="#ffb74d"/><path d="m20.931 11.069c-.404.094-.655.497-.561.9.08.345.39.566.731.566v1.928c-.34-.001-.65.221-.731.566-.094.403.157.807.561.9.198.048.393.071.58.071 1.378 0 2.5-1.121 2.5-2.5 0-1.565-1.427-2.812-3.08-2.431z" fill="#ffb74d"/><path d="m22.011 13.5c0 5.51-4.49 10-10 10s-10-4.49-10-10c0-4 2.36-7.45 5.76-9.05.48-.24.99-.43 1.52-.57.86-.25 1.78-.38 2.72-.38s1.86.13 2.72.38c.02.12.03.24.03.37 0 1.52-1.23 2.75-2.75 2.75-.44 0-.86-.1-1.23-.29-.37-.18-.82-.04-1.01.33s-.04.82.33 1.01c.58.29 1.24.45 1.91.45 2.27 0 4.14-1.8 4.24-4.05 3.4 1.6 5.76 5.05 5.76 9.05z" fill="#ffd54f"/><path d="m16.251 4.45c-.1 2.25-1.97 4.05-4.24 4.05-.67 0-1.33-.16-1.91-.45-.37-.19-.52-.64-.33-1.01s.64-.51 1.01-.33c.37.19.79.29 1.23.29 1.52 0 2.75-1.23 2.75-2.75 0-.13-.01-.25-.03-.37.53.14 1.04.33 1.52.57z" fill="#ffd54f"/><g fill="#6d4c41"><path d="m16.261 4.25c0 .07 0 .14-.01.2-.1 2.25-1.97 4.05-4.24 4.05-.67 0-1.33-.16-1.91-.45-.37-.19-.52-.64-.33-1.01s.64-.51 1.01-.33c.37.19.79.29 1.23.29 1.52 0 2.75-1.23 2.75-2.75 0-.13-.01-.25-.03-.37-.18-1.35-1.33-2.38-2.72-2.38s-2.54 1.03-2.72 2.38c-.53.14-1.04.33-1.52.57-.01-.06-.01-.13-.01-.2 0-2.34 1.91-4.25 4.25-4.25s4.25 1.91 4.25 4.25z"/><path d="m14.827 19.742c-.192 0-.384-.073-.53-.22-1.228-1.227-3.366-1.227-4.594 0-.293.293-.768.293-1.061 0s-.293-.768 0-1.061c1.852-1.852 4.863-1.852 6.715 0 .293.293.293.768 0 1.061-.146.147-.338.22-.53.22z"/><path d="m7.5 14c-.827 0-1.5-.673-1.5-1.5s.673-1.5 1.5-1.5 1.5.673 1.5 1.5-.673 1.5-1.5 1.5z"/><path d="m16.5 14c-.827 0-1.5-.673-1.5-1.5s.673-1.5 1.5-1.5 1.5.673 1.5 1.5-.673 1.5-1.5 1.5z"/></g></svg>