<svg id="color" enable-background="new 0 0 24 24" height="512" viewBox="0 0 24 24" width="512" xmlns="http://www.w3.org/2000/svg"><circle cx="12" cy="12" fill="#ffd54f" r="12"/><g fill="#6d4c41"><circle cx="7" cy="9" r="2"/><circle cx="17" cy="9" r="2"/><path d="m17 19.536c-.192 0-.384-.073-.53-.22-1.194-1.194-2.781-1.852-4.47-1.852s-3.276.658-4.47 1.852c-.293.293-.768.293-1.061 0s-.293-.768 0-1.061c1.477-1.478 3.441-2.291 5.53-2.291s4.053.813 5.53 2.291c.293.293.293.768 0 1.061-.145.146-.337.22-.529.22z"/></g></svg>