<svg id="color" enable-background="new 0 0 24 24" height="512" viewBox="0 0 24 24" width="512" xmlns="http://www.w3.org/2000/svg"><circle cx="12" cy="12" fill="#ffd54f" r="12"/><path d="m7.5 10c-1.379 0-2.5-1.122-2.5-2.5 0-.414.336-.75.75-.75s.75.336.75.75c0 .551.448 1 1 1s1-.449 1-1c0-.414.336-.75.75-.75s.75.336.75.75c0 1.378-1.121 2.5-2.5 2.5z" fill="#6d4c41"/><path d="m16.5 10c-1.379 0-2.5-1.122-2.5-2.5 0-.414.336-.75.75-.75s.75.336.75.75c0 .551.448 1 1 1s1-.449 1-1c0-.414.336-.75.75-.75s.75.336.75.75c0 1.378-1.121 2.5-2.5 2.5z" fill="#6d4c41"/><path d="m19.458 18.032c-1.108-3.159-4.105-5.282-7.458-5.282s-6.35 2.123-7.458 5.282c-.08.229-.044.483.097.682s.368.316.611.316h13.5c.243 0 .471-.118.611-.316.141-.198.177-.452.097-.682z" fill="#e53935"/></svg>