<svg id="color" enable-background="new 0 0 24 24" height="512" viewBox="0 0 24 24" width="512" xmlns="http://www.w3.org/2000/svg"><g fill="#eee"><path d="m23.517 8.208c-.527-.551-1.338-.692-2.021-.351l-2.162 1.076c-.371.185-.522.635-.337 1.005.145.294.459.442.767.402l.426 3.267-.492.885c-.202.362-.071.818.291 1.02.115.064.24.095.364.095.263 0 .519-.139.656-.386l2.768-4.978c.376-.677.275-1.476-.26-2.035z"/><path d="m4.666 8.932-2.16-1.075c-.685-.342-1.496-.201-2.023.351-.535.56-.637 1.358-.26 2.034l2.768 4.979c.137.247.393.386.656.386.124 0 .249-.03.364-.095.362-.201.493-.658.291-1.02l-.492-.886.426-3.267c.309.041.621-.107.767-.402.184-.37.034-.82-.337-1.005z"/><path d="m20.084 7.091c-.532-4.041-4.008-7.089-8.084-7.089s-7.552 3.048-8.084 7.089l-1.897 14.403c-.086.645.192 1.275.726 1.647.535.372 1.225.413 1.798.107l2.028-1.079c.343-.182.757-.188 1.105-.014l3.113 1.557c.379.189.795.284 1.21.284s.832-.095 1.21-.284l3.113-1.557c.35-.174.764-.168 1.106.014l2.028 1.079c.577.306 1.265.265 1.798-.107.534-.372.812-1.002.726-1.646z"/></g><path d="m9 11.01c-1.103 0-2-.897-2-2s.897-2 2-2 2 .897 2 2-.897 2-2 2z" fill="#757575"/><path d="m15 11.01c-1.103 0-2-.897-2-2s.897-2 2-2 2 .897 2 2-.897 2-2 2z" fill="#757575"/><path d="m13.75 17c-1.378 0-2.5-1.122-2.5-2.5v-.75c0-.414.336-.75.75-.75h3.5c.414 0 .75.336.75.75v.75c0 1.378-1.122 2.5-2.5 2.5z" fill="#e53935"/><path d="m16.25 14.5h-8.5c-.414 0-.75-.336-.75-.75s.336-.75.75-.75h8.5c.414 0 .75.336.75.75s-.336.75-.75.75z" fill="#757575"/></svg>