<svg id="color" enable-background="new 0 0 24 24" height="512" viewBox="0 0 24 24" width="512" xmlns="http://www.w3.org/2000/svg"><path d="m19.304 24c-.001 0-.002 0-.003 0l-14.605-.009c-.001 0-.001 0-.001 0-1.486-.001-2.695-1.215-2.695-2.706v-13.211c0-5.548 5.188-8.074 10.01-8.074 4.965 0 9.99 2.777 9.99 8.086v13.208c0 .723-.28 1.402-.79 1.913-.509.512-1.187.793-1.906.793z" fill="#6d4c41"/><path d="m12 24c-1.844 0-3.924-.99-5.563-2.649-1.571-1.589-2.458-3.542-2.437-5.36v-5.241c0-.414.336-.75.75-.75 4.709 0 6.556-4.016 6.574-4.056.12-.271.389-.444.685-.444h.001c.297 0 .564.176.685.446.074.164 1.877 4.054 6.555 4.054.414 0 .75.336.75.75v5.25c0 1.877-.961 3.885-2.637 5.51-1.609 1.559-3.614 2.49-5.363 2.49z" fill="#ffd54f"/><g fill="#6d4c41"><path d="m12 19.995c-1.094 0-2.188-.401-3.021-1.205-.299-.288-.307-.763-.02-1.061.288-.3.764-.305 1.061-.02 1.092 1.055 2.867 1.055 3.959 0 .298-.285.773-.28 1.061.02.287.298.279.772-.02 1.061-.832.804-1.926 1.205-3.02 1.205z"/><path d="m8 15c-.827 0-1.5-.673-1.5-1.5s.673-1.5 1.5-1.5 1.5.673 1.5 1.5-.673 1.5-1.5 1.5z"/><path d="m16 15c-.827 0-1.5-.673-1.5-1.5s.673-1.5 1.5-1.5 1.5.673 1.5 1.5-.673 1.5-1.5 1.5z"/></g></svg>