<svg id="color" enable-background="new 0 0 24 24" height="512" viewBox="0 0 24 24" width="512" xmlns="http://www.w3.org/2000/svg"><circle cx="12" cy="12" fill="#ffd54f" r="12"/><g fill="#6d4c41"><path d="m19.314 16.145c-.335-.245-.804-.171-1.048.164-1.457 1.998-3.8 3.191-6.266 3.191-.414 0-.75.336-.75.75s.336.75.75.75c2.943 0 5.739-1.423 7.479-3.807.244-.335.17-.804-.165-1.048z"/><path d="m8 7h-3.25c-.414 0-.75.336-.75.75s.336.75.75.75h1.321c-.042.161-.071.326-.071.5 0 1.103.897 2 2 2s2-.897 2-2-.897-2-2-2z"/><path d="m13.75 8.5h1.321c-.042.161-.071.326-.071.5 0 1.103.897 2 2 2s2-.897 2-2-.897-2-2-2h-3.25c-.414 0-.75.336-.75.75s.336.75.75.75z"/></g></svg>