<svg id="color" enable-background="new 0 0 24 24" height="512" viewBox="0 0 24 24" width="512" xmlns="http://www.w3.org/2000/svg"><path d="m3 17c-1.654 0-3-1.346-3-3 0-1.525 1.145-2.81 2.664-2.985.415-.045.784.247.832.659.047.411-.247.783-.659.831-.762.088-.664 2.995.163 2.995.105 0 .202-.012.287-.034.399-.111.811.13.918.531.107.4-.131.812-.531.918-.212.057-.438.085-.674.085z" fill="#ffb74d"/><path d="m21 17c-.236 0-.462-.028-.673-.085-.4-.106-.638-.518-.531-.918.106-.401.52-.642.918-.531.084.022.181.034.286.034.827 0 .925-2.907.164-2.995-.412-.048-.706-.42-.659-.831.048-.412.424-.704.832-.659 1.518.175 2.663 1.46 2.663 2.985 0 1.654-1.346 3-3 3z" fill="#ffb74d"/><path d="m21.362 12.56c-.263 0-.516-.139-.653-.381-.02-.035-.037-.073-.05-.112h-.001l-3.496-9.573c-.084-.229-.05-.486.09-.687.141-.201.37-.32.615-.32 2.809 0 4.685.799 5.576 2.374 1.607 2.839-.681 7.076-1.42 8.307-.075.138-.193.253-.345.323-.103.046-.21.069-.316.069z" fill="#e0e0e0"/><path d="m2.638 12.56c-.105 0-.212-.022-.314-.069-.148-.068-.264-.18-.339-.312-.753-1.256-3.03-5.483-1.426-8.317.891-1.577 2.767-2.376 5.575-2.376.245 0 .474.119.615.32.14.2.174.457.09.687l-3.498 9.573c-.013.039-.03.077-.05.112-.137.243-.391.382-.653.382z" fill="#e0e0e0"/><path d="m12 24c-4.408 0-10-5.414-10-11.5v-4.5c0-4.708 3.918-7.848 9.981-8h.037c6.064.152 9.982 3.292 9.982 8v4.5c0 6.086-5.592 11.5-10 11.5z" fill="#ffd54f"/><path d="m7 5.759c-.174 0-.349-.061-.491-.184-.313-.271-.347-.745-.075-1.057 1.233-1.422 3.222-2.248 5.458-2.268h.077c2.231 0 4.316.841 5.589 2.258.277.308.251.782-.057 1.059s-.782.252-1.059-.057c-1.004-1.118-2.717-1.753-4.537-1.76-1.78.016-3.401.67-4.339 1.75-.148.171-.357.259-.566.259z" fill="#fafafa"/><path d="m7 8.741c-.175 0-.351-.062-.494-.186-.312-.272-.343-.747-.07-1.059 1.233-1.407 3.222-2.226 5.457-2.246 2.297-.031 4.376.817 5.663 2.237.278.308.255.781-.052 1.06-.306.278-.78.255-1.059-.052-1.005-1.109-2.694-1.77-4.539-1.745-1.781.016-3.404.664-4.341 1.735-.149.169-.357.256-.565.256z" fill="#fafafa"/><g fill="#6d4c41"><path d="m12 19.995c-1.094 0-2.188-.401-3.021-1.205-.298-.288-.306-.763-.019-1.061.288-.3.764-.305 1.061-.02 1.091 1.055 2.867 1.055 3.958 0 .298-.285.773-.28 1.061.02.288.298.279.772-.019 1.061-.833.804-1.927 1.205-3.021 1.205z"/><path d="m8 15c-.827 0-1.5-.673-1.5-1.5s.673-1.5 1.5-1.5 1.5.673 1.5 1.5-.673 1.5-1.5 1.5z"/><path d="m16 15c-.827 0-1.5-.673-1.5-1.5s.673-1.5 1.5-1.5 1.5.673 1.5 1.5-.673 1.5-1.5 1.5z"/></g></svg>