<svg id="color" enable-background="new 0 0 24 24" height="512" viewBox="0 0 24 24" width="512" xmlns="http://www.w3.org/2000/svg"><circle cx="12" cy="12" fill="#ffd54f" r="12"/><path d="m9.25 10.25c-.414 0-.75-.336-.75-.75 0-.551-.448-1-1-1s-1 .449-1 1c0 .414-.336.75-.75.75s-.75-.336-.75-.75c0-1.378 1.121-2.5 2.5-2.5s2.5 1.122 2.5 2.5c0 .414-.336.75-.75.75z" fill="#6d4c41"/><path d="m18.25 10.25c-.414 0-.75-.336-.75-.75 0-.551-.448-1-1-1s-1 .449-1 1c0 .414-.336.75-.75.75s-.75-.336-.75-.75c0-1.378 1.121-2.5 2.5-2.5s2.5 1.122 2.5 2.5c0 .414-.336.75-.75.75z" fill="#6d4c41"/><path d="m16.75 13h-9.5c-1.654 0-3 1.346-3 3s1.346 3 3 3h9.5c1.654 0 3-1.346 3-3s-1.346-3-3-3z" fill="#fff"/><g fill="#cfd8dc"><path d="m8 13h1.5v6h-1.5z"/><path d="m11.25 13h1.5v6h-1.5z"/><path d="m14.5 13h1.5v6h-1.5z"/></g></svg>