<svg id="color" enable-background="new 0 0 24 24" height="512" viewBox="0 0 24 24" width="512" xmlns="http://www.w3.org/2000/svg"><path d="m20.165.216c-.221-.199-.538-.248-.807-.127-.271.121-.445.389-.445.685 0 1.256-.564 2.417-1.548 3.187-.326.255-.383.727-.128 1.053s.728.383 1.053.128c.024-.019.044-.042.068-.061l1.502 1.502c-.025.038-.044.079-.07.116-.237.34-.154.807.186 1.044.131.091.28.135.429.135.237 0 .47-.112.616-.321 1.606-2.302 1.238-5.458-.856-7.341z" fill="#e53935"/><path d="m5.058.774c0-.296-.174-.564-.445-.685-.269-.12-.586-.071-.807.127-2.095 1.883-2.462 5.039-.855 7.342.146.209.379.321.615.321.148 0 .298-.044.429-.135.34-.237.423-.704.186-1.044-.026-.038-.045-.078-.07-.116l1.502-1.502c.024.019.043.042.068.061.325.254.798.197 1.053-.129s.198-.798-.128-1.053c-.984-.77-1.548-1.931-1.548-3.187z" fill="#e53935"/><circle cx="12" cy="12.976" fill="#ef5350" r="11"/><g fill="#4e342e"><path d="m16 12c-1.103 0-2-.897-2-2 0-.534.208-1.036.586-1.414s.88-.586 1.414-.586c1.103 0 2 .897 2 2s-.897 2-2 2z"/><path d="m15.189 9.798c-.192 0-.384-.073-.53-.22-.293-.293-.293-.768 0-1.061l2-2c.293-.293.768-.293 1.061 0s.293.768 0 1.061l-2 2c-.147.147-.339.22-.531.22z"/><path d="m8 12c-1.103 0-2-.897-2-2s.897-2 2-2c.534 0 1.036.208 1.414.586s.586.88.586 1.414c0 1.103-.897 2-2 2z"/><path d="m8.811 9.798c-.192 0-.384-.073-.53-.22l-2-2c-.293-.293-.293-.768 0-1.061s.768-.293 1.061 0l2 2c.293.293.293.768 0 1.061-.148.147-.34.22-.531.22z"/><path d="m19.05 16.75c-.07.13-.15.27-.23.4-1.46 2.39-4.01 3.83-6.82 3.83s-5.36-1.44-6.82-3.84c-.08-.13-.15-.26-.22-.39z"/></g><path d="m19.75 14.92c-.15.63-.38 1.25-.7 1.83h-14.09c-.32-.58-.56-1.19-.71-1.83-.05-.22 0-.46.14-.64s.36-.28.59-.28h14.04c.23 0 .45.1.59.28s.19.42.14.64z" fill="#fff"/></svg>