<svg id="color" enable-background="new 0 0 24 24" height="512" viewBox="0 0 24 24" width="512" xmlns="http://www.w3.org/2000/svg"><circle cx="12" cy="12" fill="#ffd54f" r="12"/><path d="m9.5 10.25c-.414 0-.75-.336-.75-.75 0-.689-.561-1.25-1.25-1.25s-1.25.561-1.25 1.25c0 .414-.336.75-.75.75s-.75-.336-.75-.75c0-1.517 1.233-2.75 2.75-2.75s2.75 1.233 2.75 2.75c0 .414-.336.75-.75.75z" fill="#6d4c41"/><path d="m18.5 10.25c-.414 0-.75-.336-.75-.75 0-.689-.561-1.25-1.25-1.25s-1.25.561-1.25 1.25c0 .414-.336.75-.75.75s-.75-.336-.75-.75c0-1.517 1.233-2.75 2.75-2.75s2.75 1.233 2.75 2.75c0 .414-.336.75-.75.75z" fill="#6d4c41"/><path d="m20.47 14.97c-.23.73-.53 1.4-.92 2.03h-15.1c-.39-.63-.69-1.3-.92-2.03-.07-.23-.03-.47.12-.66.14-.2.36-.31.6-.31h15.5c.24 0 .46.11.6.31.15.19.19.43.12.66z" fill="#fff"/><path d="m19.55 17c-1.58 2.59-4.41 4.22-7.55 4.22s-5.97-1.63-7.55-4.22z" fill="#e53935"/></svg>