<svg id="color" enable-background="new 0 0 24 24" height="512" viewBox="0 0 24 24" width="512" xmlns="http://www.w3.org/2000/svg"><circle cx="12" cy="12" fill="#ffd54f" r="12"/><path d="m20.47 14.97c-.23.73-.53 1.4-.92 2.03h-15.1c-.39-.63-.69-1.3-.92-2.03-.07-.23-.03-.47.12-.66.14-.2.36-.31.6-.31h15.5c.24 0 .46.11.6.31.15.19.19.43.12.66z" fill="#fff"/><path d="m19.55 17c-1.58 2.59-4.41 4.22-7.55 4.22s-5.97-1.63-7.55-4.22z" fill="#e53935"/><path d="m9.25 10.25c-.414 0-.75-.336-.75-.75 0-.551-.448-1-1-1s-1 .449-1 1c0 .414-.336.75-.75.75s-.75-.336-.75-.75c0-1.378 1.121-2.5 2.5-2.5s2.5 1.122 2.5 2.5c0 .414-.336.75-.75.75z" fill="#6d4c41"/><path d="m18.25 10.25c-.414 0-.75-.336-.75-.75 0-.551-.448-1-1-1s-1 .449-1 1c0 .414-.336.75-.75.75s-.75-.336-.75-.75c0-1.378 1.121-2.5 2.5-2.5s2.5 1.122 2.5 2.5c0 .414-.336.75-.75.75z" fill="#6d4c41"/><path d="m22.046 1.324c-.281-.405-.955-.405-1.234 0-.461.668-1.966 2.937-1.966 4.093 0 1.424 1.159 2.583 2.583 2.583 1.425 0 2.584-1.159 2.584-2.583 0-1.157-1.506-3.425-1.967-4.093z" fill="#00bcd4"/></svg>