<svg id="color" enable-background="new 0 0 24 24" height="512" viewBox="0 0 24 24" width="512" xmlns="http://www.w3.org/2000/svg"><circle cx="12" cy="12" fill="#ffd54f" r="12"/><path d="m9.25 9c-.414 0-.75-.336-.75-.75 0-.551-.448-1-1-1s-1 .449-1 1c0 .414-.336.75-.75.75s-.75-.336-.75-.75c0-1.378 1.121-2.5 2.5-2.5s2.5 1.122 2.5 2.5c0 .414-.336.75-.75.75z" fill="#6d4c41"/><path d="m18.25 9c-.414 0-.75-.336-.75-.75 0-.551-.448-1-1-1s-1 .449-1 1c0 .414-.336.75-.75.75s-.75-.336-.75-.75c0-1.378 1.121-2.5 2.5-2.5s2.5 1.122 2.5 2.5c0 .414-.336.75-.75.75z" fill="#6d4c41"/><path d="m6.485 18.006.447-2.992s.847-.494 1.554.213.177 2.298.177 2.298l3.653-3.653c.391-.391 1.024-.391 1.414 0 .391.391.391 1.024 0 1.414l.236-.236c.391-.391 1.024-.391 1.414 0 .391.391.391 1.024 0 1.414l-.471.471c.391-.39 1.024-.39 1.414 0 .391.391.391 1.024 0 1.414l-.471.471c.391-.391 1.023-.391 1.414 0s.391 1.023 0 1.414l-2.593 2.593c-1.562 1.562-4.095 1.562-5.657 0l-1.403-1.403c-.897-.895-1.315-2.164-1.128-3.418z" fill="#ffa726"/></svg>