<svg id="color" enable-background="new 0 0 24 24" height="512" viewBox="0 0 24 24" width="512" xmlns="http://www.w3.org/2000/svg"><path d="m.255 4.18s.35 4.06 2.17 5.65c.09.08.18.15.28.22l.13.08h5.81z" fill="#5d4037"/><path d="m23.745 4.18s-.35 4.06-2.17 5.65c-.09.08-.18.15-.28.22l-.13.08h-5.81z" fill="#5d4037"/><circle cx="12" cy="13.5" fill="#ffd54f" r="10.5"/><path d="m5.39 4.62.27-.49 1.43-2.85c.43-.79 1.26-1.28 2.15-1.28h5.52c.89 0 1.72.49 2.15 1.28l1.43 2.85.27.49s-3.672 1.526-6.61 1.526-6.61-1.526-6.61-1.526z" fill="#5d4037"/><path d="m12 21.375c-2.752 0-5.149-1.769-5.967-4.402-.07-.228-.028-.475.113-.667.141-.193.366-.306.604-.306h10.5c.238 0 .463.113.604.305.142.192.184.439.113.667-.818 2.633-3.215 4.403-5.967 4.403z" fill="#e53935"/><path d="m23.238 3.634c.272 0 .507.214.507.496 0 .082-.02.17-.065.26-2.985 4.469-7.037 5.993-10.934 5.993-6.483 0-12.537-4.217-12.537-6.105 0-.17.049-.32.15-.447.094-.126.244-.196.401-.196.043 0 .086.005.129.016.111.109 5.777 1.529 11.111 1.529 4.987 0 10.977-1.397 11.11-1.53.043-.011.086-.016.128-.016z" fill="#6d4c41"/><g fill="#e53935"><path d="m7.35 14.917c-.147 0-.294-.043-.421-.129-.598-.405-3.579-2.528-3.579-4.496 0-1.264 1.097-2.292 2.446-2.292.578 0 1.125.191 1.554.521.429-.33.976-.521 1.554-.521 1.349 0 2.445 1.028 2.445 2.292 0 1.968-2.981 4.09-3.579 4.496-.126.086-.273.129-.42.129z"/><path d="m16.6 14.917c-.147 0-.294-.043-.421-.129-.598-.405-3.579-2.528-3.579-4.496 0-1.264 1.097-2.292 2.446-2.292.578 0 1.125.191 1.554.521.429-.33.976-.521 1.554-.521 1.349 0 2.445 1.028 2.445 2.292 0 1.968-2.981 4.09-3.579 4.496-.126.086-.273.129-.42.129z"/></g></svg>