<svg id="color" enable-background="new 0 0 24 24" height="512" viewBox="0 0 24 24" width="512" xmlns="http://www.w3.org/2000/svg"><circle cx="12" cy="12" fill="#ffd54f" r="12"/><g fill="#e53935"><path d="m19.361 14.316c-.14-.198-.368-.316-.611-.316h-13.5c-.243 0-.471.118-.611.316-.141.198-.177.452-.097.682 1.108 3.16 4.105 5.282 7.458 5.282s6.35-2.123 7.458-5.282c.08-.229.044-.483-.097-.682z"/><path d="m17.815 6c-.484 0-.943.15-1.315.414-.372-.264-.831-.414-1.315-.414-1.205 0-2.185.921-2.185 2.054 0 1.723 2.564 3.551 3.079 3.9.127.086.273.129.421.129s.294-.043.421-.129c.515-.349 3.079-2.177 3.079-3.9 0-1.133-.98-2.054-2.185-2.054z"/><path d="m8.815 6c-.484 0-.943.15-1.315.414-.372-.264-.831-.414-1.315-.414-1.205 0-2.185.921-2.185 2.054 0 1.723 2.564 3.551 3.079 3.9.127.086.273.129.421.129s.294-.043.421-.129c.515-.349 3.079-2.177 3.079-3.9 0-1.133-.98-2.054-2.185-2.054z"/></g></svg>