<svg id="color" enable-background="new 0 0 24 24" height="512" viewBox="0 0 24 24" width="512" xmlns="http://www.w3.org/2000/svg"><circle cx="12" cy="12" fill="#ffd54f" r="12"/><g fill="#6d4c41"><path d="m9.25 10.25c-.414 0-.75-.336-.75-.75 0-.551-.448-1-1-1s-1 .449-1 1c0 .414-.336.75-.75.75s-.75-.336-.75-.75c0-1.378 1.121-2.5 2.5-2.5s2.5 1.122 2.5 2.5c0 .414-.336.75-.75.75z"/><path d="m18.25 10.25c-.414 0-.75-.336-.75-.75 0-.551-.448-1-1-1s-1 .449-1 1c0 .414-.336.75-.75.75s-.75-.336-.75-.75c0-1.378 1.121-2.5 2.5-2.5s2.5 1.122 2.5 2.5c0 .414-.336.75-.75.75z"/><path d="m11.751 20c-.275 0-.54-.152-.672-.415-.186-.371-.035-.821.336-1.006l1.277-.639-1.328-.797c-.225-.135-.364-.379-.364-.643s.139-.508.364-.643l1.328-.797-1.277-.639c-.371-.186-.521-.636-.336-1.006.187-.37.637-.52 1.006-.335l2.5 1.25c.245.123.404.369.414.642.011.273-.129.531-.363.672l-1.428.856 1.428.857c.234.141.374.398.363.672-.01.273-.169.52-.414.642l-2.5 1.25c-.107.054-.222.079-.334.079z"/></g></svg>