<svg id="color" enable-background="new 0 0 24 24" height="512" viewBox="0 0 24 24" width="512" xmlns="http://www.w3.org/2000/svg"><path d="m3.63 12.029c.122-.396-.101-.815-.497-.937-.199-.061-.411-.092-.629-.092-1.378 0-2.5 1.121-2.5 2.5s1.122 2.5 2.5 2.5c.218 0 .43-.031.63-.093.396-.121.618-.541.497-.937-.099-.324-.397-.519-.717-.519v-1.904c.32.001.617-.194.716-.518z" fill="#ffb74d"/><path d="m20.924 11.069c-.404.094-.655.497-.561.9.08.345.39.566.731.566v1.928c-.34-.001-.65.221-.731.566-.094.403.157.807.561.9.198.048.393.071.58.071 1.378 0 2.5-1.121 2.5-2.5 0-1.565-1.427-2.812-3.08-2.431z" fill="#ffb74d"/><path d="m22.002 13.5c0 3.37-1.68 6.36-4.25 8.18-.69.49-1.45.89-2.25 1.19-1.09.41-2.27.63-3.5.63s-2.41-.22-3.5-.63c-.8-.3-1.56-.7-2.25-1.19-2.57-1.82-4.25-4.81-4.25-8.18 0-4 2.36-7.45 5.76-9.05.48-.24.99-.43 1.52-.57.86-.25 1.78-.38 2.72-.38s1.86.13 2.72.38c.02.12.03.24.03.37 0 1.52-1.23 2.75-2.75 2.75-.44 0-.86-.1-1.23-.29-.37-.18-.82-.04-1.01.33s-.04.82.33 1.01c.58.29 1.24.45 1.91.45 2.27 0 4.14-1.8 4.24-4.05 3.4 1.6 5.76 5.05 5.76 9.05z" fill="#ffd54f"/><g fill="#6d4c41"><path d="m16.254 4.25c0 .07 0 .14-.01.2-.1 2.25-1.97 4.05-4.24 4.05-.67 0-1.33-.16-1.91-.45-.37-.19-.52-.64-.33-1.01s.64-.51 1.01-.33c.37.19.79.29 1.23.29 1.52 0 2.75-1.23 2.75-2.75 0-.13-.01-.25-.03-.37-.18-1.35-1.33-2.38-2.72-2.38s-2.54 1.03-2.72 2.38c-.53.14-1.04.33-1.52.57-.01-.06-.01-.13-.01-.2 0-2.34 1.91-4.25 4.25-4.25s4.25 1.91 4.25 4.25z"/><path d="m12.004 21.498c-2.067 0-3.75-1.683-3.75-3.75 0-.414.336-.75.75-.75h6c.414 0 .75.336.75.75 0 2.067-1.683 3.75-3.75 3.75z"/><path d="m6.753 15c-.236 0-.47-.111-.615-.32-.237-.339-.155-.807.185-1.044l1.621-1.136-1.622-1.136c-.34-.237-.422-.705-.185-1.044.236-.341.704-.423 1.044-.185l2.5 1.75c.201.141.32.369.32.614s-.119.474-.32.614l-2.5 1.75c-.13.093-.28.137-.428.137z"/><path d="m17.251 15c-.148 0-.298-.044-.429-.136l-2.5-1.75c-.201-.141-.32-.369-.32-.614s.119-.474.32-.614l2.5-1.75c.34-.237.808-.155 1.044.185.237.339.155.807-.185 1.044l-1.622 1.135 1.622 1.136c.34.237.422.705.185 1.044-.145.209-.379.32-.615.32z"/></g><path d="m2.821 21.999c-.723 0-1.445-.275-1.995-.825-1.1-1.1-1.1-2.889 0-3.989.904-.904 3.895-1.509 4.789-1.672.241-.047.491.033.665.207s.252.423.207.665c-.163.896-.768 3.886-1.672 4.789-.549.55-1.272.825-1.994.825zm-1.465-4.284h.01z" fill="#00bcd4"/><path d="m21.179 21.999c-.722 0-1.444-.275-1.994-.825-.904-.903-1.509-3.894-1.672-4.789-.045-.242.033-.491.207-.665s.422-.254.665-.207c.895.163 3.885.768 4.789 1.672 1.1 1.101 1.1 2.89 0 3.989-.55.55-1.273.825-1.995.825z" fill="#00bcd4"/></svg>