<svg id="color" enable-background="new 0 0 24 24" height="512" viewBox="0 0 24 24" width="512" xmlns="http://www.w3.org/2000/svg"><path d="m20.165.216c-.221-.199-.538-.248-.807-.127-.271.121-.445.389-.445.685 0 1.256-.564 2.417-1.548 3.187-.326.255-.383.727-.128 1.053s.728.383 1.053.128c.024-.019.044-.042.068-.061l1.502 1.502c-.025.038-.044.079-.07.116-.237.34-.154.807.186 1.044.131.091.28.135.429.135.237 0 .47-.112.616-.321 1.606-2.302 1.238-5.458-.856-7.341z" fill="#e53935"/><path d="m5.058.774c0-.296-.174-.564-.445-.685-.269-.12-.586-.071-.807.127-2.094 1.883-2.462 5.039-.855 7.342.146.209.379.321.616.321.148 0 .298-.044.429-.135.339-.237.422-.704.185-1.044-.026-.038-.045-.078-.07-.116l1.502-1.502c.024.019.043.042.068.061.325.254.798.197 1.053-.129s.198-.798-.128-1.053c-.984-.77-1.548-1.931-1.548-3.187z" fill="#e53935"/><circle cx="12" cy="12.976" fill="#ef5350" r="11"/><path d="m19.05 16.75c-.07.13-.15.27-.23.4-1.46 2.39-4.01 3.83-6.82 3.83s-5.36-1.44-6.82-3.84c-.08-.13-.15-.26-.22-.39z" fill="#4e342e"/><path d="m19.75 14.92c-.15.63-.38 1.25-.7 1.83h-14.09c-.32-.58-.56-1.19-.71-1.83-.05-.22 0-.46.14-.64s.36-.28.59-.28h14.04c.23 0 .45.1.59.28s.19.42.14.64z" fill="#fff"/><path d="m6.751 12c-.236 0-.469-.111-.615-.32-.238-.339-.155-.807.184-1.044l1.623-1.136-1.623-1.136c-.339-.237-.422-.705-.184-1.044.238-.341.706-.422 1.044-.184l2.5 1.75c.2.14.32.369.32.614s-.12.474-.32.614l-2.5 1.75c-.131.092-.281.136-.429.136z" fill="#4e342e"/><path d="m17.25 12c-.149 0-.299-.044-.43-.136l-2.5-1.75c-.2-.14-.32-.369-.32-.614s.12-.474.32-.614l2.5-1.75c.34-.237.808-.155 1.044.185.238.339.155.807-.184 1.044l-1.622 1.135 1.623 1.136c.339.237.422.705.184 1.044-.146.209-.379.32-.615.32z" fill="#4e342e"/><g fill="#00bcd4"><path d="m2.821 17.248c-.722 0-1.444-.274-1.995-.824-1.1-1.1-1.1-2.89 0-3.989.904-.904 3.894-1.509 4.789-1.672.242-.048.491.033.665.207s.252.423.208.665c-.164.896-.768 3.886-1.672 4.789-.55.55-1.273.824-1.995.824zm-1.465-4.283h.01z"/><path d="m21.179 17.248c-.722 0-1.444-.274-1.995-.824-.904-.903-1.508-3.894-1.672-4.789-.044-.242.033-.491.208-.665.174-.174.423-.255.665-.207.895.163 3.885.768 4.789 1.672 1.1 1.1 1.1 2.89 0 3.989-.55.55-1.273.824-1.995.824z"/></g></svg>