<svg id="color" enable-background="new 0 0 24 24" height="512" viewBox="0 0 24 24" width="512" xmlns="http://www.w3.org/2000/svg"><path d="m2.942 14.732-.32-2.478c.412-.045.709-.416.664-.827-.046-.412-.418-.722-.828-.663-1.401.155-2.458 1.331-2.458 2.736 0 1.517 1.234 2.75 2.75 2.75.156 0 .312-.014.468-.043.407-.076.676-.468.6-.875s-.47-.676-.876-.6z" fill="#ffb74d"/><path d="m21.542 10.765c-.415-.058-.782.251-.828.663-.045.411.251.782.664.827l-.128 2.495c-.071 0-.137-.005-.202-.018-.406-.075-.799.193-.875.6s.192.799.6.875c.154.028.309.043.478.043 1.517 0 2.75-1.233 2.75-2.75-.001-1.405-1.058-2.581-2.459-2.735z" fill="#ffb74d"/><path d="m12 23c-4.949 0-9.207-3.69-9.903-8.585-.015-.104-.007-.21.021-.312l1.16-4.06c.075-.261.286-.462.55-.524.035-.007 3.462-.846 3.462-3.209 0-.38.284-.699.661-.745.381-.035.728.199.818.567.004.013 1.155 3.368 11.231 3.368.334 0 .628.222.721.543l1.16 4.04c.02.067.029.137.029.207v.01c0 .036-.002.071-.008.107-.706 4.899-4.963 8.593-9.902 8.593z" fill="#ffd54f"/><g fill="#6d4c41"><path d="m8 15.5c-.827 0-1.5-.673-1.5-1.5s.673-1.5 1.5-1.5 1.5.673 1.5 1.5-.673 1.5-1.5 1.5z"/><path d="m16 15.5c-.827 0-1.5-.673-1.5-1.5s.673-1.5 1.5-1.5 1.5.673 1.5 1.5-.673 1.5-1.5 1.5z"/><path d="m12 19.495c-1.094 0-2.188-.401-3.021-1.205-.298-.288-.306-.763-.019-1.061.287-.299.763-.305 1.061-.02 1.091 1.055 2.867 1.055 3.958 0 .298-.285.773-.279 1.061.02.288.298.279.772-.019 1.061-.833.804-1.927 1.205-3.021 1.205z"/><path d="m2.84 15.06c-.015 0-.03 0-.046-.001-.351-.021-.64-.284-.695-.631-.07-.438-.106-.909-.109-1.401-.067-.453-.49-3.369-.49-4.937 0-4.242 3.324-5.516 5.322-5.631.64-.547 2.547-1.959 5.178-1.959 4.06 0 10.5 2.061 10.5 7.59 0 1.542-.424 4.483-.49 4.936-.002.495-.039.948-.109 1.385-.056.347-.345.607-.696.629-.348.025-.668-.204-.765-.542l-1.005-3.501c-6.707-.083-9.722-1.644-11.067-2.914-.874 1.691-2.87 2.492-3.761 2.775l-1.045 3.658c-.093.323-.389.544-.722.544z"/></g></svg>