<svg id="color" enable-background="new 0 0 24 24" height="512" viewBox="0 0 24 24" width="512" xmlns="http://www.w3.org/2000/svg"><path d="m20.25 24c-1.558 0-2.966-.981-3.504-2.441-.087-.236-.05-.5.1-.703l2.97-4.04c.149-.204.373-.327.647-.305 1.983.113 3.537 1.756 3.537 3.739 0 .327-.139.63-.392.851-.464.406-1.327.474-2.041.467.019.718-.06 1.577-.467 2.041-.22.252-.523.391-.85.391z" fill="#6d4c41"/><path d="m3.75 24c-.327 0-.63-.139-.851-.392-.407-.464-.485-1.323-.467-2.041-.712.012-1.576-.061-2.041-.467-.252-.22-.391-.523-.391-.85 0-1.99 1.556-3.629 3.542-3.729.246-.021.491.101.641.303l2.979 4.021c.15.202.188.467.102.703-.535 1.467-1.948 2.452-3.514 2.452z" fill="#6d4c41"/><path d="m3 17c-1.654 0-3-1.346-3-3 0-1.525 1.146-2.81 2.664-2.985.404-.036.784.247.831.659.048.411-.247.783-.659.831-.762.088-.663 2.995.164 2.995.408-.056.838.229.895.639s-.181.787-.591.845c-.107.014-.198.016-.304.016z" fill="#ffb74d"/><path d="m21 17c-.106 0-.197-.002-.304-.017-.41-.058-.696-.437-.64-.847.058-.409.435-.698.847-.64h.005c.922 0 1.018-2.904.256-2.992-.412-.048-.707-.42-.659-.831.047-.412.427-.697.831-.659 1.518.176 2.664 1.461 2.664 2.986 0 1.654-1.346 3-3 3z" fill="#ffb74d"/><path d="m2.91 15.805c-.414 0-.75-.331-.75-.745v-.01c0-.414.336-.75.75-.75s.75.336.75.75-.336.755-.75.755z"/><path d="m12.01 24c-5.382 0-9.022-4.429-9.837-8.803-.009-.046-.013-.092-.013-.137 0-.086.015-.182.044-.263l1.63-4.55c.106-.298.39-.497.706-.497 4.917 0 6.767-4.016 6.785-4.056.12-.271.389-.444.685-.444.297 0 .564.175.686.445.073.162 1.883 4.024 6.814 4.024.319 0 .604.203.709.505l1.58 4.57c.042.122.052.253.029.379-.798 4.387-4.426 8.827-9.818 8.827z" fill="#ffd54f"/><g fill="#6d4c41"><path d="m12 19.995c-1.094 0-2.188-.401-3.021-1.205-.299-.288-.307-.763-.02-1.061.289-.3.764-.305 1.061-.02 1.092 1.055 2.867 1.055 3.959 0 .299-.285.772-.28 1.061.02.287.298.279.772-.02 1.061-.832.804-1.926 1.205-3.02 1.205z"/><path d="m2.91 15.8c-.02 0-.039-.001-.059-.002-.337-.026-.615-.275-.678-.607-.114-.606-.173-1.239-.173-1.881v-5.23c0-5.552 5.188-8.08 10.01-8.08 4.965 0 9.99 2.778 9.99 8.09v5.23c0 .64-.059 1.267-.174 1.862-.064.333-.345.581-.684.605-.33.021-.65-.183-.762-.503l-1.41-4.079c-3.813-.188-5.965-2.361-6.96-3.752-.995 1.398-3.147 3.593-6.938 3.782l-1.457 4.066c-.106.302-.39.499-.705.499z"/><path d="m8 15c-.827 0-1.5-.673-1.5-1.5s.673-1.5 1.5-1.5 1.5.673 1.5 1.5-.673 1.5-1.5 1.5z"/><path d="m16 15c-.827 0-1.5-.673-1.5-1.5s.673-1.5 1.5-1.5 1.5.673 1.5 1.5-.673 1.5-1.5 1.5z"/></g></svg>