<svg id="color" enable-background="new 0 0 24 24" height="512" viewBox="0 0 24 24" width="512" xmlns="http://www.w3.org/2000/svg"><circle cx="12" cy="12" fill="#ffd54f" r="12"/><g fill="#6d4c41"><circle cx="7" cy="8" r="2"/><circle cx="17" cy="8" r="2"/><path d="m14.061 20.329c-.192 0-.384-.073-.53-.22-.785-.785-2.154-.785-2.939 0-.292.292-.767.293-1.061 0-.293-.292-.293-.768 0-1.061 1.352-1.353 3.709-1.353 5.061 0 .293.293.293.768 0 1.061-.148.146-.34.22-.531.22z"/><path d="m22 16h-10.25c-.414 0-.75-.336-.75-.75s.336-.75.75-.75h10.25c.275 0 .5-.224.5-.5s-.225-.5-.5-.5h-10.25c-.414 0-.75-.336-.75-.75s.336-.75.75-.75h10.25c1.103 0 2 .897 2 2s-.897 2-2 2z"/></g></svg>