<svg id="color" enable-background="new 0 0 24 24" height="512" viewBox="0 0 24 24" width="512" xmlns="http://www.w3.org/2000/svg"><path d="m3 17c-1.654 0-3-1.346-3-3 0-1.525 1.145-2.81 2.664-2.985.408-.045.784.247.832.659.047.411-.247.783-.659.831-.762.088-.664 2.995.163 2.995.105 0 .202-.012.287-.034.399-.111.811.13.918.531.107.4-.131.812-.531.918-.212.057-.438.085-.674.085z" fill="#ffb74d"/><path d="m21 17c-.236 0-.462-.028-.673-.085-.4-.106-.638-.518-.531-.918.106-.401.521-.642.918-.531.084.022.181.034.286.034.827 0 .925-2.907.164-2.995-.412-.048-.706-.42-.659-.831.048-.412.417-.704.832-.659 1.518.175 2.663 1.46 2.663 2.985 0 1.654-1.346 3-3 3z" fill="#ffb74d"/><path d="m12 24c-3.94 0-8.458-4.18-9.667-8.945-.027-.107-.03-.221-.009-.329l1.45-7.36c.047-.24.208-.441.431-.541.223-.099.479-.083.69.042.021.011 2.413 1.383 7.105 1.383 4.691 0 7.1-1.398 7.124-1.413.209-.123.467-.141.691-.04.223.1.384.301.431.54l1.44 7.369c.021.108.019.221-.009.328-1.209 4.777-5.732 8.966-9.677 8.966z" fill="#ffd54f"/><g fill="#6d4c41"><path d="m8 15c-.827 0-1.5-.673-1.5-1.5s.673-1.5 1.5-1.5 1.5.673 1.5 1.5-.673 1.5-1.5 1.5z"/><path d="m16 15c-.827 0-1.5-.673-1.5-1.5s.673-1.5 1.5-1.5 1.5.673 1.5 1.5-.673 1.5-1.5 1.5z"/><path d="m3.06 15.62c-.341 0-.64-.23-.726-.562-.222-.853-.334-1.713-.334-2.558v-4.5c0-4.71 3.918-7.851 9.981-8 6.101.149 10.019 3.29 10.019 8v4.5c0 .824-.108 1.677-.322 2.531-.085.341-.384.559-.747.568-.351-.01-.649-.261-.716-.606l-1.256-6.425c-1.193.484-3.514 1.182-6.959 1.182-3.441 0-5.752-.685-6.939-1.157l-1.265 6.422c-.067.344-.364.595-.713.605-.008 0-.016 0-.023 0z"/><path d="m12 19.995c-1.094 0-2.188-.401-3.021-1.205-.298-.288-.306-.763-.019-1.061.288-.3.763-.305 1.061-.02 1.091 1.055 2.867 1.055 3.958 0 .298-.285.774-.28 1.061.02.288.298.279.772-.019 1.061-.833.804-1.927 1.205-3.021 1.205z"/></g></svg>