<svg id="color" enable-background="new 0 0 24 24" height="512" viewBox="0 0 24 24" width="512" xmlns="http://www.w3.org/2000/svg"><path d="m2.75 16.75c-1.517 0-2.75-1.233-2.75-2.75 0-1.372 1.023-2.543 2.381-2.724.413-.059.789.233.843.644.055.411-.233.788-.644.843-.616.082-.493 2.468.222 2.488.019 0 .036-.001.055-.004.416-.055.789.229.847.64.057.41-.229.789-.64.847-.106.014-.21.016-.314.016z" fill="#ffb74d"/><path d="m21.25 16.75c-.118 0-.222-.003-.324-.018-.41-.058-.696-.437-.638-.847.058-.411.44-.706.847-.638.035.004.072.002.115.002.689 0 .781-2.404.16-2.487-.41-.055-.698-.432-.644-.843.055-.41.425-.703.843-.644 1.363.183 2.391 1.354 2.391 2.725 0 1.517-1.233 2.75-2.75 2.75z" fill="#ffb74d"/><path d="m12 24c-4.948 0-9.206-3.69-9.902-8.585-.016-.104-.008-.211.021-.312l1.93-6.729c.092-.322.386-.544.721-.544h.001l14.461.01c.334 0 .627.222.72.542l1.93 6.7c.02.068.029.138.029.208v.02c0 .036-.003.072-.008.107-.708 4.894-4.966 8.583-9.903 8.583z" fill="#ffd54f"/><path d="m21.16 16.06c-.414 0-.75-.336-.75-.75s.336-.76.75-.76.75.326.75.74v.02c0 .414-.336.75-.75.75z"/><g fill="#6d4c41"><path d="m12 19.995c-1.094 0-2.188-.401-3.021-1.205-.299-.288-.307-.763-.02-1.061.288-.3.763-.305 1.061-.02 1.092 1.055 2.867 1.055 3.959 0 .298-.285.772-.28 1.061.02.287.298.279.772-.02 1.061-.832.804-1.926 1.205-3.02 1.205z"/><path d="m2.84 16.06c-.015 0-.03 0-.045-.001-.352-.021-.64-.283-.695-.631-.07-.436-.106-.906-.109-1.401-.068-.453-.491-3.369-.491-4.937 0-.187.009-.353.02-.528.022-.397.352-.732.75-.732h2.5c.235 0 .457.11.599.299.141.187.187.432.121.658l-1.93 6.729c-.092.324-.387.544-.72.544z"/><path d="m21.16 16.04c-.333 0-.628-.22-.721-.542l-1.93-6.7c-.065-.227-.021-.471.121-.659s.364-.299.6-.299h2.489c.377 0 .696.28.744.654.025.192.037.394.037.596 0 1.542-.424 4.483-.49 4.937-.003.497-.038.951-.109 1.385-.057.347-.346.606-.696.628-.016 0-.03 0-.045 0z"/></g><path d="m2.5 9.5c-.139 0-.277-.039-.398-.114-.076-.048-1.852-1.188-1.852-3.456 0-2.476 4.474-5.93 11.76-5.93 7.273 0 11.74 3.454 11.74 5.93 0 2.269-1.776 3.408-1.852 3.456-.206.128-.461.152-.687.057-.034-.014-3.508-1.438-7.63-1.754l-3.221.001c-4.076.315-7.538 1.738-7.572 1.752-.093.039-.19.058-.288.058z" fill="#42a5f5"/><path d="m12 11.498c-3.344 0-6.688-.688-9.803-2.062-.274-.121-.45-.394-.447-.694s.185-.569.462-.685c.15-.062 3.721-1.53 8.091-1.865l3.337-.002c4.428.337 7.998 1.805 8.148 1.867.277.115.459.385.462.685s-.173.573-.447.694c-3.116 1.375-6.459 2.062-9.803 2.062z" fill="#1976d2"/><path d="m12.012 9c-.165 0-.33-.055-.467-.163l-2.262-1.8c-.179-.142-.283-.358-.283-.587v-2.7c0-.414.336-.75.75-.75h4.5c.414 0 .75.336.75.75v2.7c0 .228-.103.442-.28.585l-2.238 1.8c-.137.109-.304.165-.47.165z" fill="#ffd54f"/><path d="m8 15c-.827 0-1.5-.673-1.5-1.5s.673-1.5 1.5-1.5 1.5.673 1.5 1.5-.673 1.5-1.5 1.5z" fill="#6d4c41"/><path d="m16 15c-.827 0-1.5-.673-1.5-1.5s.673-1.5 1.5-1.5 1.5.673 1.5 1.5-.673 1.5-1.5 1.5z" fill="#6d4c41"/></svg>