<svg id="color" enable-background="new 0 0 24 24" height="512" viewBox="0 0 24 24" width="512" xmlns="http://www.w3.org/2000/svg"><path d="m24 12c0 1.22-.18 2.4-.52 3.5-.15.52-.34 1.02-.56 1.5-1.9 4.13-6.07 7-10.92 7s-9.02-2.87-10.92-7l-.02-.06c-.2-.44-.38-.9-.52-1.37l-.02-.07c-.34-1.1-.52-2.28-.52-3.5 0-6.63 5.37-12 12-12s12 5.37 12 12z" fill="#ffd54f"/><path d="m9.25 10h-4.5c-.414 0-.75-.336-.75-.75s.336-.75.75-.75h4.5c.414 0 .75.336.75.75s-.336.75-.75.75z" fill="#6d4c41"/><path d="m19.25 10h-4.5c-.414 0-.75-.336-.75-.75s.336-.75.75-.75h4.5c.414 0 .75.336.75.75s-.336.75-.75.75z" fill="#6d4c41"/><g fill="#fff"><path d="m16.25 13h-8.5c-.965 0-1.75.785-1.75 1.75v3.5c0 .965.785 1.75 1.75 1.75h8.5c.965 0 1.75-.785 1.75-1.75v-3.5c0-.965-.785-1.75-1.75-1.75z"/><path d="m1.08 17h5.42c.41 0 .75-.34.75-.75s-.34-.75-.75-.75h-5.98z"/><path d="m23.48 15.5c-.15.52-.34 1.02-.56 1.5h-5.42c-.41 0-.75-.34-.75-.75s.34-.75.75-.75z"/></g></svg>