<svg id="color" enable-background="new 0 0 24 24" height="512" viewBox="0 0 24 24" width="512" xmlns="http://www.w3.org/2000/svg"><circle cx="12" cy="12" fill="#ffd54f" r="12"/><g fill="#6d4c41"><path d="m6.75 11c-.236 0-.469-.111-.615-.32-.237-.339-.155-.807.185-1.044l1.622-1.136-1.622-1.136c-.34-.237-.422-.705-.184-1.044.238-.34.706-.422 1.044-.184l2.5 1.75c.2.14.32.369.32.614s-.12.474-.32.614l-2.5 1.75c-.131.092-.281.136-.43.136z"/><path d="m17.25 11c-.149 0-.299-.044-.43-.136l-2.5-1.75c-.2-.14-.32-.369-.32-.614s.12-.474.32-.614l2.5-1.75c.34-.237.808-.155 1.044.184.238.339.155.807-.184 1.044l-1.622 1.136 1.623 1.136c.339.237.422.705.184 1.044-.146.209-.379.32-.615.32z"/><path d="m17.25 19c-1.378 0-2.5-1.122-2.5-2.5s1.122-2.5 2.5-2.5c.414 0 .75.336.75.75s-.336.75-.75.75c-.551 0-1 .449-1 1s.449 1 1 1c.414 0 .75.336.75.75s-.336.75-.75.75z"/><path d="m6.75 19c-.414 0-.75-.336-.75-.75s.336-.75.75-.75c.551 0 1-.449 1-1s-.449-1-1-1c-.414 0-.75-.336-.75-.75s.336-.75.75-.75c1.378 0 2.5 1.122 2.5 2.5s-1.122 2.5-2.5 2.5z"/><path d="m15.5 17.5h-7c-.414 0-.75-.336-.75-.75s.336-.75.75-.75h7c.414 0 .75.336.75.75s-.336.75-.75.75z"/></g></svg>