<svg id="color" enable-background="new 0 0 24 24" height="512" viewBox="0 0 24 24" width="512" xmlns="http://www.w3.org/2000/svg"><path d="m21.104 15.45c.295-.568.451-1.202.451-1.86 0-2.208-1.775-4.01-3.975-4.051.699-.952 1.056-2.12.995-3.322-.077-1.54-.829-2.955-2.129-3.926l-3.669-2.186c-.232-.137-.521-.141-.754-.007-.235.133-.38.382-.38.652v2.091c0 1.166-.948 2.114-2.114 2.114-.975 0-1.889.383-2.573 1.077-.686.695-1.055 1.615-1.04 2.59.005.324.069.641.185.936-2.049.2-3.655 1.932-3.655 4.033 0 .658.156 1.292.451 1.86-1.696.622-2.897 2.25-2.897 4.131 0 2.436 1.982 4.418 4.419 4.418h15.162c2.437 0 4.419-1.982 4.419-4.418 0-1.881-1.201-3.509-2.896-4.132z" fill="#5d4037"/><circle cx="8" cy="13.985" fill="#fff" r="1.5"/><circle cx="16" cy="13.985" fill="#fff" r="1.5"/><path d="m12 22.005c-2.521 0-4.718-1.621-5.467-4.033-.07-.228-.028-.475.113-.667s.366-.305.604-.305h9.5c.238 0 .463.113.604.305.142.192.184.439.113.667-.749 2.413-2.946 4.033-5.467 4.033z" fill="#e53935"/></svg>