<svg id="color" enable-background="new 0 0 24 24" height="512" viewBox="0 0 24 24" width="512" xmlns="http://www.w3.org/2000/svg"><path d="m20.165.216c-.221-.199-.538-.248-.807-.127-.271.121-.445.389-.445.685 0 1.256-.564 2.417-1.548 3.187-.326.255-.383.727-.128 1.053s.728.383 1.053.128c.024-.019.044-.042.068-.061l1.502 1.502c-.025.038-.044.079-.07.116-.237.34-.154.807.186 1.044.131.091.28.135.429.135.237 0 .47-.112.616-.321 1.606-2.302 1.238-5.458-.856-7.341z" fill="#e53935"/><path d="m5.058.774c0-.296-.174-.564-.445-.685-.269-.12-.586-.071-.807.127-2.095 1.883-2.462 5.039-.855 7.342.146.209.379.321.615.321.148 0 .298-.044.429-.135.34-.237.423-.704.186-1.044-.026-.038-.045-.078-.07-.116l1.502-1.502c.024.019.043.042.068.061.325.254.798.197 1.053-.129s.198-.798-.128-1.053c-.984-.77-1.548-1.931-1.548-3.187z" fill="#e53935"/><path d="m23 12.98c0 6.06-4.93 11-11 11-4.83 0-8.93-3.12-10.41-7.45v-.01c-.19-.55-.34-1.11-.43-1.69-.11-.6-.16-1.22-.16-1.85 0-2.15.61-4.15 1.68-5.84.9-1.43 2.11-2.64 3.55-3.52 1.68-1.04 3.65-1.64 5.77-1.64.62 0 1.22.05 1.81.15.58.09 1.15.24 1.7.42.8.27 1.55.63 2.25 1.06 1.43.88 2.64 2.08 3.54 3.5 1.08 1.7 1.7 3.71 1.7 5.87z" fill="#ef5350"/><path d="m16.888 8.285.707-.707c.293-.293.293-.768 0-1.061s-.768-.293-1.061 0l-2 2c-.006.006-.007.013-.013.019-.02.018-.042.031-.061.05-.377.378-.585.88-.585 1.413 0 1.103.897 2 2 2s2-.897 2-2c0-.731-.399-1.365-.987-1.714z" fill="#4e342e"/><path d="m5.25 14.35h13.5c.243 0 .471.118.611.316s.177.452.097.682c-1.108 3.159-4.105 5.282-7.458 5.282s-6.35-2.123-7.458-5.282c-.08-.229-.044-.483.097-.682s.368-.316.611-.316z" fill="#4e342e"/><g fill="#455a64"><path d="m8.094 12.312c-1.878 0-3.406-1.528-3.406-3.406 0-.91.354-1.765.998-2.408s1.498-.998 2.408-.998c1.878 0 3.406 1.528 3.406 3.406s-1.528 3.406-3.406 3.406z"/><path d="m15.51 2.55-.91.92c-.02.03-.05.05-.08.07l-3.97 3.97c-.15.15-.34.22-.53.22s-.38-.07-.53-.22c-.29-.29-.29-.77 0-1.06l4.32-4.32c.58.09 1.15.24 1.7.42z"/><path d="m7.01 11.05-5.42 5.47c-.19-.55-.34-1.11-.43-1.69l4.79-4.84c.29-.29.76-.29 1.06 0 .29.29.29.76 0 1.06z"/></g></svg>