<svg id="color" enable-background="new 0 0 24 24" height="512" viewBox="0 0 24 24" width="512" xmlns="http://www.w3.org/2000/svg"><circle cx="12" cy="12" fill="#ffd54f" r="12"/><path d="m19.362 14.316c-.141-.198-.369-.316-.612-.316h-13.5c-.243 0-.471.118-.612.316-.141.199-.176.453-.096.682 1.107 3.16 4.104 5.282 7.458 5.282s6.351-2.123 7.458-5.282c.08-.229.044-.483-.096-.682z" fill="#e53935"/><circle cx="17" cy="9" fill="#6d4c41" r="2"/><g fill="#455a64"><path d="m17.23 1.19-16.9 13.62c-.13-.55-.23-1.12-.28-1.7l15.57-12.55c.56.17 1.09.38 1.61.63z"/><path d="m12.25 6h-8.5c-.414 0-.75.336-.75.75 0 2.757 2.243 5 5 5s5-2.243 5-5c0-.414-.336-.75-.75-.75z"/></g></svg>