<svg id="color" enable-background="new 0 0 24 24" height="512" viewBox="0 0 24 24" width="512" xmlns="http://www.w3.org/2000/svg"><circle cx="12" cy="12" fill="#ffd54f" r="12"/><g fill="#6d4c41"><path d="m9.414 7.586-2.083-2.084c-.293-.293-.768-.293-1.061 0s-.293.768 0 1.061l.72.72c-.589.349-.99.984-.99 1.717 0 1.103.897 2 2 2s2-.897 2-2c0-.533-.207-1.034-.584-1.41-.001-.001-.001-.003-.002-.004z"/><path d="m17.009 7.283.72-.72c.293-.293.293-.768 0-1.061s-.768-.293-1.061 0l-2.083 2.083c-.001.001-.001.003-.002.004-.376.377-.583.878-.583 1.411 0 1.103.897 2 2 2s2-.897 2-2c0-.733-.401-1.368-.991-1.717z"/><path d="m17.25 19.675c-.192 0-.384-.073-.53-.22-1.261-1.261-2.937-1.955-4.72-1.955s-3.459.694-4.72 1.955c-.293.293-.768.293-1.061 0s-.293-.768 0-1.061c1.545-1.544 3.597-2.394 5.781-2.394s4.236.85 5.78 2.395c.293.293.293.768 0 1.061-.146.146-.338.219-.53.219z"/></g></svg>