<svg id="color" enable-background="new 0 0 24 24" height="512" viewBox="0 0 24 24" width="512" xmlns="http://www.w3.org/2000/svg"><circle cx="12" cy="12" fill="#ffd54f" r="12"/><path d="m11 9.5c0 1.93-1.57 3.5-3.5 3.5-1.65 0-3.04-1.15-3.4-2.69-.07-.26-.1-.53-.1-.81 0-1.93 1.57-3.5 3.5-3.5.58 0 1.13.14 1.61.4 1.13.58 1.89 1.75 1.89 3.1z" fill="#fff"/><path d="m5.83 7.21c0 1.93 1.57 3.5 3.5 3.5.52 0 1.1-.13 1.57-.4.07-.26.1-.53.1-.81 0-1.93-1.57-3.5-3.5-3.5-.58 0-1.13.14-1.61.4l-.04.44c-.01.14-.02.26-.02.37z" fill="#6d4c41"/><path d="m13.5 9.5c0 1.93 1.57 3.5 3.5 3.5 1.65 0 3.04-1.15 3.4-2.69.07-.26.1-.53.1-.81 0-1.93-1.57-3.5-3.5-3.5-.58 0-1.13.14-1.61.4-1.13.58-1.89 1.75-1.89 3.1z" fill="#fff"/><g fill="#6d4c41"><path d="m15.33 7.21c0 1.93 1.57 3.5 3.5 3.5.52 0 1.1-.13 1.57-.4.07-.26.1-.53.1-.81 0-1.93-1.57-3.5-3.5-3.5-.58 0-1.13.14-1.61.4l-.04.44c-.01.14-.02.26-.02.37z"/><path d="m14.061 18.329c-.192 0-.384-.073-.53-.22-.785-.785-2.154-.785-2.939 0-.292.292-.767.294-1.061 0-.293-.292-.293-.768 0-1.061 1.352-1.353 3.709-1.353 5.061 0 .293.293.293.768 0 1.061-.148.146-.34.22-.531.22z"/></g></svg>