<svg id="color" enable-background="new 0 0 24 24" height="512" viewBox="0 0 24 24" width="512" xmlns="http://www.w3.org/2000/svg"><circle cx="12" cy="12" fill="#ffd54f" r="12"/><path d="m10.25 14.5c0 .414-.336.75-.75.75-.689 0-1.25.561-1.25 1.25s.561 1.25 1.25 1.25c.414 0 .75.336.75.75s-.336.75-.75.75c-1.517 0-2.75-1.233-2.75-2.75s1.233-2.75 2.75-2.75c.414 0 .75.336.75.75z" fill="#6d4c41"/><path d="m10.25 5.5c0 .414-.336.75-.75.75-.689 0-1.25.561-1.25 1.25s.561 1.25 1.25 1.25c.414 0 .75.336.75.75s-.336.75-.75.75c-1.517 0-2.75-1.233-2.75-2.75s1.233-2.75 2.75-2.75c.414 0 .75.336.75.75z" fill="#6d4c41"/><path d="m14.97 3.53c.73.23 1.4.53 2.03.92v15.1c-.63.39-1.3.69-2.03.92-.23.07-.47.03-.66-.12-.2-.14-.31-.36-.31-.6v-15.5c0-.24.11-.46.31-.6.19-.15.43-.19.66-.12z" fill="#fff"/><path d="m17 4.45c2.59 1.58 4.22 4.41 4.22 7.55s-1.63 5.97-4.22 7.55z" fill="#e53935"/></svg>