<svg id="color" enable-background="new 0 0 24 24" height="512" viewBox="0 0 24 24" width="512" xmlns="http://www.w3.org/2000/svg"><circle cx="12" cy="12" fill="#ffd54f" r="12"/><g fill="#6d4c41"><path d="m7.5 11c-1.379 0-2.5-1.122-2.5-2.5 0-.414.336-.75.75-.75s.75.336.75.75c0 .551.448 1 1 1s1-.449 1-1c0-.414.336-.75.75-.75s.75.336.75.75c0 1.378-1.121 2.5-2.5 2.5z"/><path d="m16.5 11c-1.379 0-2.5-1.122-2.5-2.5 0-.414.336-.75.75-.75s.75.336.75.75c0 .551.448 1 1 1s1-.449 1-1c0-.414.336-.75.75-.75s.75.336.75.75c0 1.378-1.121 2.5-2.5 2.5z"/><path d="m15.25 18h-6.5c-.414 0-.75-.336-.75-.75s.336-.75.75-.75h6.5c.414 0 .75.336.75.75s-.336.75-.75.75z"/></g></svg>