<svg id="color" enable-background="new 0 0 24 24" height="512" viewBox="0 0 24 24" width="512" xmlns="http://www.w3.org/2000/svg"><circle cx="12" cy="12" fill="#ffd54f" r="12"/><path d="m22.046 1.324c-.281-.405-.955-.405-1.234 0-.461.668-1.966 2.937-1.966 4.093 0 1.424 1.159 2.583 2.583 2.583 1.425 0 2.584-1.159 2.584-2.583 0-1.157-1.506-3.425-1.967-4.093z" fill="#00bcd4"/><g fill="#6d4c41"><path d="m17.054 19.593c-.192 0-.384-.073-.53-.22-2.494-2.494-6.553-2.494-9.047 0-.293.293-.768.293-1.061 0s-.293-.768 0-1.061c3.078-3.079 8.09-3.079 11.168 0 .293.293.293.768 0 1.061-.147.147-.338.22-.53.22z"/><path d="m7.5 11c-1.379 0-2.5-1.122-2.5-2.5 0-.414.336-.75.75-.75s.75.336.75.75c0 .551.448 1 1 1s1-.449 1-1c0-.414.336-.75.75-.75s.75.336.75.75c0 1.378-1.121 2.5-2.5 2.5z"/><path d="m16.5 11c-1.379 0-2.5-1.122-2.5-2.5 0-.414.336-.75.75-.75s.75.336.75.75c0 .551.448 1 1 1s1-.449 1-1c0-.414.336-.75.75-.75s.75.336.75.75c0 1.378-1.121 2.5-2.5 2.5z"/></g></svg>