<svg id="color" enable-background="new 0 0 24 24" height="512" viewBox="0 0 24 24" width="512" xmlns="http://www.w3.org/2000/svg"><circle cx="12" cy="12" fill="#ffd54f" r="12"/><circle cx="7" cy="9" fill="#6d4c41" r="2"/><circle cx="17" cy="9" fill="#6d4c41" r="2"/><path d="m21.95 16.692-1.846-1.856c-.109-.109-.254-.169-.401-.195-.408 1.168-1.446 3.175-3.964 4.78.028.043.049.091.087.129l1.629 1.629c.598.604 1.396.937 2.248.937.852 0 1.65-.333 2.243-.931.604-.598.937-1.396.937-2.249-.001-.852-.333-1.65-.933-2.244z" fill="#e53935"/><path d="m20.248 18.42-1.496-1.496c-.293-.293-1.354.768-1.061 1.061l1.496 1.496c.146.146.338.22.53.22s.384-.073.53-.22c.294-.293.294-.768.001-1.061z" fill="#d32f2f"/><path d="m20.154 13.707c-.395-.122-.815.099-.938.494-.984 3.171-3.871 5.302-7.183 5.302s-6.199-2.131-7.184-5.302c-.123-.396-.541-.616-.938-.494-.396.123-.617.543-.494.938 1.181 3.803 4.643 6.358 8.616 6.358s7.436-2.555 8.616-6.358c.122-.395-.1-.816-.495-.938z" fill="#6d4c41"/></svg>