<svg id="color" enable-background="new 0 0 24 24" height="512" viewBox="0 0 24 24" width="512" xmlns="http://www.w3.org/2000/svg"><path d="m22 10.053c0-5.514-4.486-10-10-10s-10 4.486-10 10c0 1.464.325 2.927.941 4.25-.485 1.614-.109 3.354 1.016 4.615.919 1.031 2.238 1.622 3.619 1.622h.266v1.684c0 .95.773 1.724 1.724 1.724h4.868c.95 0 1.724-.773 1.724-1.724v-1.684h.188c1.43 0 2.796-.612 3.749-1.679 1.158-1.297 1.551-3.092 1.061-4.756.56-1.285.844-2.647.844-4.052z" fill="#bdbdbd"/><g fill="#616161"><path d="m15.5 17.022c-1.378 0-2.5-1.122-2.5-2.5s1.122-2.5 2.5-2.5 2.5 1.122 2.5 2.5-1.122 2.5-2.5 2.5z"/><path d="m8.5 17c-1.378 0-2.5-1.122-2.5-2.5s1.122-2.5 2.5-2.5 2.5 1.122 2.5 2.5-1.122 2.5-2.5 2.5z"/><path d="m12 16.75c-.985 0-1.5 1.302-1.5 2 0 .293.108 1.25 1.5 1.25s1.5-.957 1.5-1.25c0-.698-.515-2-1.5-2z"/></g></svg>