<svg id="color" enable-background="new 0 0 24 24" height="512" viewBox="0 0 24 24" width="512" xmlns="http://www.w3.org/2000/svg"><circle cx="12" cy="12" fill="#ffd54f" r="12"/><g fill="#6d4c41"><path d="m7.5 13c-1.378 0-2.5-1.122-2.5-2.5 0-.414.336-.75.75-.75s.75.336.75.75c0 .551.449 1 1 1s1-.449 1-1c0-.414.336-.75.75-.75s.75.336.75.75c0 1.378-1.122 2.5-2.5 2.5z"/><path d="m16.5 13c-1.378 0-2.5-1.122-2.5-2.5 0-.414.336-.75.75-.75s.75.336.75.75c0 .551.449 1 1 1s1-.449 1-1c0-.414.336-.75.75-.75s.75.336.75.75c0 1.378-1.122 2.5-2.5 2.5z"/><path d="m15.25 18.5h-6.5c-.414 0-.75-.336-.75-.75s.336-.75.75-.75h6.5c.414 0 .75.336.75.75s-.336.75-.75.75z"/></g><path d="m23.25 4h-2.5c-.303 0-.577-.183-.693-.463s-.052-.603.163-.817l1.22-1.22h-.69c-.414 0-.75-.336-.75-.75s.336-.75.75-.75h2.5c.303 0 .577.183.693.463s.052.603-.163.817l-1.22 1.22h.689c.415 0 .751.336.751.75s-.336.75-.75.75z" fill="#00bcd4"/><path d="m18.25 9h-2.5c-.281 0-.538-.157-.667-.407-.128-.25-.106-.551.057-.779l1.652-2.314h-1.042c-.414 0-.75-.336-.75-.75s.336-.75.75-.75h2.5c.281 0 .538.157.667.407.128.25.106.551-.057.779l-1.652 2.314h1.042c.414 0 .75.336.75.75s-.336.75-.75.75z" fill="#00bcd4"/></svg>