<svg id="color" enable-background="new 0 0 24 24" height="512" viewBox="0 0 24 24" width="512" xmlns="http://www.w3.org/2000/svg"><circle cx="12" cy="12" fill="#ffd54f" r="12"/><g fill="#6d4c41"><path d="m9.5 10.25c-.414 0-.75-.336-.75-.75 0-.689-.561-1.25-1.25-1.25s-1.25.561-1.25 1.25c0 .414-.336.75-.75.75s-.75-.336-.75-.75c0-1.517 1.233-2.75 2.75-2.75s2.75 1.233 2.75 2.75c0 .414-.336.75-.75.75z"/><path d="m18.5 10.25c-.414 0-.75-.336-.75-.75 0-.689-.561-1.25-1.25-1.25s-1.25.561-1.25 1.25c0 .414-.336.75-.75.75s-.75-.336-.75-.75c0-1.517 1.233-2.75 2.75-2.75s2.75 1.233 2.75 2.75c0 .414-.336.75-.75.75z"/><path d="m12 20.032c-2.003 0-4.006-.762-5.53-2.287-.293-.293-.293-.768 0-1.061s.768-.293 1.061 0c1.194 1.194 2.781 1.852 4.47 1.852s3.275-.658 4.47-1.852c.293-.293.768-.293 1.061 0s.293.768 0 1.061c-1.526 1.525-3.529 2.287-5.532 2.287z"/></g></svg>