<svg id="color" enable-background="new 0 0 24 24" height="512" viewBox="0 0 24 24" width="512" xmlns="http://www.w3.org/2000/svg"><path d="m20.165.216c-.221-.199-.538-.248-.807-.127-.271.121-.445.389-.445.685 0 1.256-.564 2.417-1.548 3.187-.326.255-.383.727-.128 1.053s.728.383 1.053.128c.024-.019.044-.042.068-.061l1.502 1.502c-.025.038-.044.079-.07.116-.237.34-.154.807.186 1.044.131.091.28.135.429.135.237 0 .47-.112.616-.321 1.606-2.302 1.238-5.458-.856-7.341z" fill="#e53935"/><path d="m5.058.774c0-.296-.174-.564-.445-.685-.269-.12-.586-.071-.807.127-2.095 1.883-2.462 5.039-.855 7.342.146.209.379.321.615.321.148 0 .298-.044.429-.135.34-.237.423-.704.186-1.044-.026-.038-.045-.078-.07-.116l1.502-1.502c.024.019.043.042.068.061.325.254.798.197 1.053-.129s.198-.798-.128-1.053c-.984-.77-1.548-1.931-1.548-3.187z" fill="#e53935"/><circle cx="12" cy="12.976" fill="#ef5350" r="11"/><g fill="#4e342e"><path d="m12 20.032c-2.003 0-4.005-.763-5.53-2.287-.293-.293-.293-.768 0-1.061s.768-.293 1.061 0c2.465 2.465 6.475 2.465 8.939 0 .293-.293.768-.293 1.061 0s.293.768 0 1.061c-1.526 1.525-3.528 2.287-5.531 2.287z"/><path d="m9.25 11c-.414 0-.75-.336-.75-.75 0-.552-.449-1-1-1s-1 .448-1 1c0 .414-.336.75-.75.75s-.75-.336-.75-.75c0-1.379 1.122-2.5 2.5-2.5s2.5 1.121 2.5 2.5c0 .414-.336.75-.75.75z"/><path d="m18.25 11c-.414 0-.75-.336-.75-.75 0-.552-.449-1-1-1s-1 .448-1 1c0 .414-.336.75-.75.75s-.75-.336-.75-.75c0-1.379 1.122-2.5 2.5-2.5s2.5 1.121 2.5 2.5c0 .414-.336.75-.75.75z"/></g></svg>