<svg id="color" enable-background="new 0 0 24 24" height="512" viewBox="0 0 24 24" width="512" xmlns="http://www.w3.org/2000/svg"><circle cx="12" cy="12" fill="#ffd54f" r="12"/><g fill="#6d4c41"><circle cx="7" cy="9" r="2"/><circle cx="17" cy="9" r="2"/><path d="m12 20c-2.184 0-4.236-.85-5.78-2.395-.293-.293-.293-.768 0-1.061s.768-.293 1.061 0c1.26 1.262 2.936 1.956 4.719 1.956s3.459-.694 4.72-1.955c.293-.293.768-.293 1.061 0s.293.768 0 1.061c-1.545 1.544-3.597 2.394-5.781 2.394z"/></g><path d="m12 0c2.444 0 4.705.731 6.596 1.976 2.219.361 3.557.856 3.869 1.22-.551.642-4.301 1.695-10.465 1.695s-9.914-1.053-10.465-1.695c.313-.365 1.658-.861 3.887-1.223 1.886-1.243 4.144-1.973 6.578-1.973-1.228 0-12 .09-12 3.196 0 3.105 10.772 3.195 12 3.195s12-.09 12-3.195c0-3.106-10.772-3.196-12-3.196z" fill="#00bcd4"/></svg>