<svg id="color" enable-background="new 0 0 24 24" height="512" viewBox="0 0 24 24" width="512" xmlns="http://www.w3.org/2000/svg"><circle cx="12" cy="12" fill="#ffd54f" r="12"/><path d="m20.842 7.175c-.251-.031-5.922-.708-8.842.851-2.92-1.558-8.59-.882-8.842-.851-.376.047-.658.366-.658.744 0 2.109.97 6.097 4.639 6.097 2.462 0 4.013-1.559 4.861-3.087.848 1.528 2.4 3.087 4.861 3.087 3.669 0 4.639-3.988 4.639-6.097 0-.378-.282-.697-.658-.744z" fill="#455a64"/><path d="m12 19.985c-2.093 0-4.187-.797-5.78-2.391-.293-.293-.293-.768 0-1.061s.768-.293 1.061 0c1.261 1.261 2.937 1.955 4.72 1.955s3.459-.694 4.72-1.955c.293-.293.768-.293 1.061 0s.293.768 0 1.061c-1.595 1.594-3.689 2.391-5.782 2.391z" fill="#6d4c41"/></svg>