<svg id="color" enable-background="new 0 0 24 24" height="512" viewBox="0 0 24 24" width="512" xmlns="http://www.w3.org/2000/svg"><circle cx="12" cy="12" fill="#ffd54f" r="12"/><g fill="#6d4c41"><path d="m6.751 12c-.236 0-.47-.111-.615-.32-.237-.339-.155-.807.185-1.044l1.621-1.136-1.622-1.136c-.34-.237-.422-.705-.184-1.044.236-.341.704-.422 1.044-.184l2.5 1.75c.201.14.32.369.32.614s-.119.474-.32.614l-2.5 1.75c-.131.092-.281.136-.429.136z"/><path d="m17.249 12c-.148 0-.298-.044-.429-.136l-2.5-1.75c-.201-.14-.32-.369-.32-.614s.119-.474.32-.614l2.5-1.75c.34-.238.808-.155 1.044.184.237.339.155.807-.185 1.044l-1.621 1.136 1.622 1.136c.34.237.422.705.185 1.044-.146.209-.38.32-.616.32z"/><path d="m17.749 19c-.121 0-.244-.029-.358-.092l-2.405-1.312-2.65 1.325c-.206.103-.448.106-.654.007l-1.23-.58c-.375-.176-.536-.624-.359-.998s.624-.537.998-.358l.901.425 2.675-1.337c.219-.109.478-.105.694.013l2.75 1.5c.363.198.497.654.299 1.018-.138.248-.395.389-.661.389z"/></g><path d="m11.96 14.41-1.96 9c-.07.35-.38.59-.73.59-.04 0-.08 0-.12-.01l-5.57-.95-.15-.03c-.36-.06-.62-.37-.62-.74 0-.19-.02-.38-.05-.56-.33-2.1-2.4-3.5-2.42-3.51-.23-.15-.36-.41-.34-.68s.18-.51.43-.63l9.14-4.37c.59-.28 1.27-.21 1.79.2.51.4.74 1.05.6 1.69z" fill="#eceff1"/><path d="m7.96 18.04-4.38 5-.15-.03c-.36-.06-.62-.37-.62-.74 0-.19-.02-.38-.05-.56l4.04-4.61c.26-.33.73-.37 1.05-.11s.37.73.11 1.05z" fill="#cfd8dc"/></svg>