<svg id="color" enable-background="new 0 0 24 24" height="512" viewBox="0 0 24 24" width="512" xmlns="http://www.w3.org/2000/svg"><path d="m.255 4.18s.35 4.06 2.17 5.65c.09.08.18.15.28.22l.13.08h5.81z" fill="#5d4037"/><path d="m23.745 4.18s-.35 4.06-2.17 5.65c-.09.08-.18.15-.28.22l-.13.08h-5.81z" fill="#5d4037"/><circle cx="12" cy="13.5" fill="#ffd54f" r="10.5"/><path d="m5.39 4.62.27-.49 1.43-2.85c.43-.79 1.26-1.28 2.15-1.28h5.52c.89 0 1.72.49 2.15 1.28l1.43 2.85.27.49s-3.672 1.526-6.61 1.526-6.61-1.526-6.61-1.526z" fill="#5d4037"/><path d="m23.238 3.634c.272 0 .507.214.507.496 0 .082-.02.17-.065.26-2.985 4.469-7.037 5.993-10.934 5.993-6.483 0-12.537-4.217-12.537-6.105 0-.17.049-.32.15-.447.094-.126.244-.196.401-.196.043 0 .086.005.129.016.111.109 5.777 1.529 11.111 1.529 4.987 0 10.977-1.397 11.11-1.53.043-.011.086-.016.128-.016z" fill="#6d4c41"/><path d="m23.556 16.581c-.441-.765-1.155-1.312-2.008-1.542-1.514-.406-5.305.899-6.049 1.165-.232.083-.409.274-.473.512-.063.238-.006.492.153.68.512.603 3.143 3.628 4.657 4.034.285.076.572.113.854.113 1.46 0 2.801-.976 3.197-2.452.228-.854.111-1.745-.331-2.51z" fill="#00bcd4"/><path d="m7.5 15c-1.378 0-2.5-1.122-2.5-2.5 0-.414.336-.75.75-.75s.75.336.75.75c0 .551.449 1 1 1s1-.449 1-1c0-.414.336-.75.75-.75s.75.336.75.75c0 1.378-1.122 2.5-2.5 2.5z" fill="#6d4c41"/><path d="m16.5 15c-1.378 0-2.5-1.122-2.5-2.5 0-.414.336-.75.75-.75s.75.336.75.75c0 .551.449 1 1 1s1-.449 1-1c0-.414.336-.75.75-.75s.75.336.75.75c0 1.378-1.122 2.5-2.5 2.5z" fill="#6d4c41"/><path d="m15 20.963h-6c-.243 0-.471-.118-.612-.316s-.176-.452-.096-.682c.551-1.571 2.041-2.627 3.708-2.627s3.157 1.056 3.708 2.627c.08.229.044.483-.096.682-.141.198-.369.316-.612.316z" fill="#e53935"/></svg>