<svg id="color" enable-background="new 0 0 24 24" height="512" viewBox="0 0 24 24" width="512" xmlns="http://www.w3.org/2000/svg"><path d="m20.165.216c-.221-.199-.538-.248-.807-.127-.271.121-.445.389-.445.685 0 1.256-.564 2.417-1.548 3.187-.326.255-.383.727-.128 1.053s.728.383 1.053.128c.024-.019.044-.042.068-.061l1.502 1.502c-.025.038-.044.079-.07.116-.237.34-.154.807.186 1.044.131.091.28.135.429.135.237 0 .47-.112.616-.321 1.606-2.302 1.238-5.458-.856-7.341z" fill="#e53935"/><path d="m5.058.774c0-.296-.174-.564-.445-.685-.269-.12-.586-.071-.807.127-2.095 1.883-2.462 5.039-.855 7.342.146.209.379.321.615.321.148 0 .298-.044.429-.135.34-.237.423-.704.186-1.044-.026-.038-.045-.078-.07-.116l1.502-1.502c.024.019.043.042.068.061.325.254.798.197 1.053-.129s.198-.798-.128-1.053c-.984-.77-1.548-1.931-1.548-3.187z" fill="#e53935"/><path d="m23 12.98c0 6.06-4.93 11-11 11-4.83 0-8.93-3.12-10.41-7.45v-.01c-.19-.55-.34-1.11-.43-1.69-.11-.6-.16-1.22-.16-1.85 0-2.15.61-4.15 1.68-5.84.9-1.43 2.11-2.64 3.55-3.52 1.68-1.04 3.65-1.64 5.77-1.64.62 0 1.22.05 1.81.15.58.09 1.15.24 1.7.42.8.27 1.55.63 2.25 1.06 1.43.88 2.64 2.08 3.54 3.5 1.08 1.7 1.7 3.71 1.7 5.87z" fill="#ef5350"/><path d="m15 21h-6c-.246 0-.476-.12-.616-.322-.14-.201-.173-.459-.087-.689.555-1.489 2.043-2.489 3.703-2.489s3.148 1 3.703 2.488c.086.23.053.488-.087.689-.14.203-.37.323-.616.323z" fill="#4e342e"/><path d="m20.526 21.464c-.302 0-.606-.04-.906-.12-1.6-.429-4.397-3.646-4.941-4.287-.16-.188-.217-.441-.153-.68.063-.237.24-.43.473-.512.792-.283 4.824-1.672 6.424-1.241 1.852.496 2.955 2.407 2.459 4.26-.24.897-.815 1.647-1.621 2.112-.536.31-1.132.468-1.735.468z" fill="#00bcd4"/><g fill="#4e342e"><path d="m7.5 14.25c-1.379 0-2.5-1.121-2.5-2.5 0-.414.336-.75.75-.75s.75.336.75.75c0 .552.448 1 1 1s1-.448 1-1c0-.414.336-.75.75-.75s.75.336.75.75c0 1.379-1.121 2.5-2.5 2.5z"/><path d="m16.5 14.25c-1.379 0-2.5-1.121-2.5-2.5 0-.414.336-.75.75-.75s.75.336.75.75c0 .552.448 1 1 1s1-.448 1-1c0-.414.336-.75.75-.75s.75.336.75.75c0 1.379-1.121 2.5-2.5 2.5z"/></g></svg>