<svg id="color" enable-background="new 0 0 24 24" height="512" viewBox="0 0 24 24" width="512" xmlns="http://www.w3.org/2000/svg"><circle cx="12" cy="12" fill="#ffd54f" r="12"/><path d="m7.5 15c-1.378 0-2.5-1.122-2.5-2.5 0-.414.336-.75.75-.75s.75.336.75.75c0 .551.449 1 1 1s1-.449 1-1c0-.414.336-.75.75-.75s.75.336.75.75c0 1.378-1.122 2.5-2.5 2.5z" fill="#6d4c41"/><path d="m16.5 15c-1.378 0-2.5-1.122-2.5-2.5 0-.414.336-.75.75-.75s.75.336.75.75c0 .551.449 1 1 1s1-.449 1-1c0-.414.336-.75.75-.75s.75.336.75.75c0 1.378-1.122 2.5-2.5 2.5z" fill="#6d4c41"/><path d="m15.458 19.976c-.514-1.465-1.903-2.449-3.458-2.449s-2.944.984-3.458 2.449c-.081.229-.045.483.096.682s.369.316.612.316h5.5c.243 0 .471-.118.612-.316.14-.199.176-.453.096-.682z" fill="#e53935"/><path d="m23.556 16.831c-.441-.765-1.155-1.312-2.008-1.542-1.514-.407-5.305.899-6.049 1.165-.232.083-.409.274-.473.512-.063.238-.006.492.153.68.512.603 3.143 3.628 4.657 4.034.285.076.572.113.854.113 1.46 0 2.801-.976 3.197-2.452.228-.854.111-1.745-.331-2.51z" fill="#00bcd4"/></svg>