<svg id="color" enable-background="new 0 0 24 24" height="512" viewBox="0 0 24 24" width="512" xmlns="http://www.w3.org/2000/svg"><path d="m.255 4.18s.35 4.06 2.17 5.65c.09.08.18.15.28.22l.13.08h5.81z" fill="#5d4037"/><path d="m23.745 4.18s-.35 4.06-2.17 5.65c-.09.08-.18.15-.28.22l-.13.08h-5.81z" fill="#5d4037"/><path d="m22.5 13.5c0 3.11-1.35 5.9-3.5 7.82-1.14 1.02-2.5 1.79-4 2.24-.95.29-1.96.44-3 .44s-2.05-.15-3-.44c-1.5-.45-2.86-1.22-4-2.24-2.15-1.92-3.5-4.71-3.5-7.82 0-1.36.26-2.66.74-3.85.28-.72.64-1.41 1.08-2.04.19-.28.39-.56.61-.82.61-.74 1.31-1.39 2.1-1.92.07-.05.13-.09.2-.13 1.66-1.1 3.64-1.74 5.77-1.74s4.11.64 5.76 1.73c.07.04.14.09.21.14.79.53 1.49 1.18 2.1 1.92.22.26.42.54.61.82.44.63.8 1.32 1.08 2.04.48 1.19.74 2.49.74 3.85z" fill="#ffd54f"/><path d="m5.39 4.62.27-.49 1.43-2.85c.43-.79 1.26-1.28 2.15-1.28h5.52c.89 0 1.72.49 2.15 1.28l1.43 2.85.27.49s-3.672 1.526-6.61 1.526-6.61-1.526-6.61-1.526z" fill="#5d4037"/><path d="m23.238 3.634c.272 0 .507.214.507.496 0 .082-.02.17-.065.26-2.985 4.469-7.037 5.993-10.934 5.993-6.483 0-12.537-4.217-12.537-6.105 0-.17.049-.32.15-.447.094-.126.244-.196.401-.196.043 0 .086.005.129.016.111.109 5.777 1.529 11.111 1.529 4.987 0 10.977-1.397 11.11-1.53.043-.011.086-.016.128-.016z" fill="#6d4c41"/><path d="m18.817 14.633c-.119 0-.239-.028-.349-.086l-1.968-1.035-1.969 1.035c-.252.132-.561.11-.789-.057-.231-.168-.347-.452-.299-.734l.376-2.192-1.593-1.552c-.204-.199-.278-.498-.189-.769.088-.271.322-.469.605-.51l2.2-.32.984-1.995c.254-.512 1.092-.512 1.346 0l.984 1.995 2.2.32c.283.041.518.239.605.51.089.271.015.57-.189.769l-1.593 1.552.376 2.192c.048.282-.067.566-.299.734-.128.094-.283.143-.439.143z" fill="#2196f3"/><path d="m12 21.375c-2.752 0-5.149-1.769-5.967-4.402-.07-.228-.028-.475.113-.667.141-.193.366-.306.604-.306h10.5c.238 0 .463.113.604.305.142.192.184.439.113.667-.818 2.633-3.215 4.403-5.967 4.403z" fill="#e53935"/><path d="m9.821 14.633c-.119 0-.239-.028-.349-.086l-1.969-1.035-1.969 1.035c-.252.132-.56.11-.789-.057-.231-.168-.347-.452-.299-.734l.376-2.192-1.592-1.552c-.204-.2-.278-.498-.189-.769.088-.271.322-.469.605-.51l2.2-.32.984-1.995c.254-.512 1.092-.512 1.346 0l.984 1.995 2.2.32c.283.041.518.239.605.51.089.271.015.57-.189.769l-1.593 1.552.376 2.192c.048.282-.067.566-.299.734-.128.094-.283.143-.439.143z" fill="#2196f3"/></svg>