<svg id="color" enable-background="new 0 0 24 24" height="512" viewBox="0 0 24 24" width="512" xmlns="http://www.w3.org/2000/svg"><path d="m20.165.216c-.221-.199-.538-.248-.807-.127-.271.121-.445.389-.445.685 0 1.256-.564 2.417-1.548 3.187-.326.255-.383.727-.128 1.053s.728.383 1.053.128c.024-.019.044-.042.068-.061l1.502 1.502c-.025.038-.044.079-.07.116-.237.34-.154.807.186 1.044.131.091.28.135.429.135.237 0 .47-.112.616-.321 1.606-2.302 1.238-5.458-.856-7.341z" fill="#e53935"/><path d="m5.058.774c0-.296-.174-.564-.445-.685-.269-.12-.586-.071-.807.127-2.095 1.883-2.462 5.039-.855 7.342.146.209.379.321.615.321.148 0 .298-.044.429-.135.34-.237.423-.704.186-1.044-.026-.038-.045-.078-.07-.116l1.502-1.502c.024.019.043.042.068.061.325.254.798.197 1.053-.129s.198-.798-.128-1.053c-.984-.77-1.548-1.931-1.548-3.187z" fill="#e53935"/><circle cx="12" cy="12.976" fill="#ef5350" r="11"/><path d="m12 21c-3.252 0-6.158-1.948-7.403-4.964-.095-.231-.069-.495.07-.703s.373-.333.623-.333h13.42c.25 0 .484.125.624.333s.165.472.07.703c-1.246 3.016-4.152 4.964-7.404 4.964z" fill="#4e342e"/><g fill="#ffd54f"><path d="m9.009 13.932c-.12 0-.239-.028-.349-.086l-1.66-.872-1.66.872c-.253.133-.558.111-.79-.058-.231-.168-.347-.452-.298-.733l.317-1.848-1.342-1.309c-.205-.199-.278-.497-.19-.768s.323-.47.605-.511l1.855-.271.83-1.681c.253-.512 1.092-.512 1.345 0l.83 1.681 1.855.271c.283.041.517.239.605.511.088.271.015.569-.19.769l-1.343 1.309.317 1.848c.048.281-.067.565-.298.733-.129.095-.284.143-.439.143z"/><path d="m19.009 13.932c-.12 0-.239-.028-.349-.086l-1.66-.872-1.66.872c-.252.133-.558.111-.79-.058-.231-.168-.347-.452-.298-.733l.317-1.848-1.343-1.309c-.205-.199-.278-.497-.19-.769.088-.271.323-.47.605-.511l1.855-.271.83-1.681c.253-.512 1.092-.512 1.345 0l.83 1.681 1.855.271c.283.041.517.239.605.511.088.271.015.569-.19.769l-1.343 1.309.317 1.848c.048.281-.067.565-.298.733-.128.096-.283.144-.438.144z"/></g></svg>