<svg id="color" enable-background="new 0 0 24 24" height="512" viewBox="0 0 24 24" width="512" xmlns="http://www.w3.org/2000/svg"><circle cx="12" cy="12" fill="#ffd54f" r="12"/><path d="m10.357 7.369-1.855-.27-.829-1.682c-.254-.512-1.092-.512-1.346 0l-.829 1.682-1.855.27c-.284.041-.518.238-.606.51-.089.271-.015.57.19.769l1.343 1.309-.317 1.848c-.048.282.067.566.299.734.229.167.537.189.789.057l1.659-.873 1.66.873c.109.058.229.086.349.086.155 0 .311-.048.44-.143.231-.168.347-.452.299-.734l-.317-1.848 1.343-1.309c.204-.199.278-.498.189-.769-.088-.272-.322-.469-.606-.51z" fill="#2196f3"/><path d="m20.963 7.879c-.088-.271-.322-.469-.605-.51l-1.855-.27-.829-1.682c-.254-.512-1.092-.512-1.346 0l-.829 1.682-1.855.27c-.283.041-.518.239-.605.51-.089.271-.015.57.189.769l1.343 1.309-.317 1.848c-.048.282.067.566.299.734.229.167.537.189.789.057l1.658-.873 1.66.873c.109.058.229.086.349.086.155 0 .311-.048.44-.143.231-.168.347-.452.299-.734l-.317-1.848 1.343-1.309c.204-.199.278-.498.189-.769z" fill="#2196f3"/><path d="m20.47 14.97c-.23.73-.53 1.4-.92 2.03h-15.1c-.39-.63-.69-1.3-.92-2.03-.07-.23-.03-.47.12-.66.14-.2.36-.31.6-.31h15.5c.24 0 .46.11.6.31.15.19.19.43.12.66z" fill="#fff"/><path d="m19.55 17c-1.58 2.59-4.41 4.22-7.55 4.22s-5.97-1.63-7.55-4.22z" fill="#e53935"/></svg>