<svg id="color" enable-background="new 0 0 24 24" height="512" viewBox="0 0 24 24" width="512" xmlns="http://www.w3.org/2000/svg"><path d="m20.165.216c-.221-.199-.538-.248-.807-.127-.271.121-.445.389-.445.685 0 1.256-.564 2.417-1.548 3.187-.326.255-.383.727-.128 1.053s.728.383 1.053.128c.024-.019.044-.042.068-.061l1.502 1.502c-.025.038-.044.079-.07.116-.237.34-.154.807.186 1.044.131.091.28.135.429.135.237 0 .47-.112.616-.321 1.606-2.302 1.238-5.458-.856-7.341z" fill="#e53935"/><path d="m5.058.774c0-.296-.174-.564-.445-.685-.269-.12-.586-.071-.807.127-2.095 1.883-2.462 5.039-.855 7.342.146.209.379.321.615.321.148 0 .298-.044.429-.135.34-.237.423-.704.186-1.044-.026-.038-.045-.078-.07-.116l1.502-1.502c.024.019.043.042.068.061.325.254.798.197 1.053-.129s.198-.798-.128-1.053c-.984-.77-1.548-1.931-1.548-3.187z" fill="#e53935"/><circle cx="12" cy="12.976" fill="#ef5350" r="11"/><path d="m11.75 21c-.414 0-.75-.336-.75-.75s.336-.75.75-.75c2.467 0 4.81-1.193 6.268-3.191.243-.335.711-.409 1.048-.163.334.244.407.713.163 1.048-1.739 2.383-4.535 3.806-7.479 3.806z" fill="#4e342e"/><path d="m20.842 7.791c-.252-.032-5.922-.709-8.842.851-2.92-1.559-8.59-.883-8.842-.851-.376.046-.658.366-.658.744 0 2.109.97 6.097 4.639 6.097 2.462 0 4.013-1.559 4.861-3.087.848 1.528 2.4 3.087 4.861 3.087 3.669 0 4.639-3.988 4.639-6.097 0-.378-.282-.698-.658-.744z" fill="#455a64"/></svg>