<svg id="color" enable-background="new 0 0 24 24" height="512" viewBox="0 0 24 24" width="512" xmlns="http://www.w3.org/2000/svg"><path d="m.255 4.18s.35 4.06 2.17 5.65c.09.08.18.15.28.22l.13.08h5.81z" fill="#5d4037"/><path d="m23.745 4.18s-.35 4.06-2.17 5.65c-.09.08-.18.15-.28.22l-.13.08h-5.81z" fill="#5d4037"/><circle cx="12" cy="13.5" fill="#ffd54f" r="10.5"/><path d="m5.39 4.62.27-.49 1.43-2.85c.43-.79 1.26-1.28 2.15-1.28h5.52c.89 0 1.72.49 2.15 1.28l1.43 2.85.27.49s-3.672 1.526-6.61 1.526-6.61-1.526-6.61-1.526z" fill="#5d4037"/><path d="m8 15c-1.103 0-2-.897-2-2s.897-2 2-2 2 .897 2 2-.897 2-2 2z" fill="#6d4c41"/><path d="m16 15c-1.103 0-2-.897-2-2s.897-2 2-2 2 .897 2 2-.897 2-2 2z" fill="#6d4c41"/><path d="m17 19c-.827 0-1.5-.673-1.5-1.5 0-.536.48-1.343.883-1.926.28-.405.954-.405 1.234 0 .403.583.883 1.39.883 1.926 0 .827-.673 1.5-1.5 1.5z" fill="#00bcd4"/><g fill="#6d4c41"><path d="m14.75 20.629c-.192 0-.384-.073-.53-.22-1.186-1.186-3.254-1.186-4.439 0-.293.293-.768.293-1.061 0-.293-.292-.293-.768 0-1.061.876-.876 2.041-1.359 3.28-1.359s2.404.482 3.28 1.359c.293.293.293.768 0 1.061-.146.147-.338.22-.53.22z"/><path d="m23.238 3.634c.272 0 .507.214.507.496 0 .082-.02.17-.065.26-2.985 4.469-7.037 5.993-10.934 5.993-6.483 0-12.537-4.217-12.537-6.105 0-.17.049-.32.15-.447.094-.126.244-.196.401-.196.043 0 .086.005.129.016.111.109 5.777 1.529 11.111 1.529 4.987 0 10.977-1.397 11.11-1.53.043-.011.086-.016.128-.016z"/></g></svg>