<svg id="color" enable-background="new 0 0 24 24" height="512" viewBox="0 0 24 24" width="512" xmlns="http://www.w3.org/2000/svg"><circle cx="12" cy="12" fill="#ffd54f" r="12"/><g fill="#6d4c41"><circle cx="7" cy="9" r="2"/><circle cx="17" cy="9" r="2"/><path d="m14.75 19.639c-.192 0-.384-.073-.53-.22-1.186-1.186-3.254-1.186-4.439 0-.293.293-.768.293-1.061 0-.293-.292-.293-.768 0-1.061.876-.876 2.041-1.358 3.28-1.358s2.404.482 3.28 1.359c.293.293.293.768 0 1.061-.146.146-.338.219-.53.219z"/></g><path d="m18.617 12.074c-.28-.405-.954-.405-1.234 0-.416.602-1.383 2.092-1.383 2.926 0 1.103.897 2 2 2s2-.897 2-2c0-.834-.967-2.324-1.383-2.926z" fill="#00bcd4"/></svg>