<svg id="color" enable-background="new 0 0 24 24" height="512" viewBox="0 0 24 24" width="512" xmlns="http://www.w3.org/2000/svg"><path d="m21 17c-.168 0-.392-.009-.636-.079-.398-.113-.629-.528-.515-.927s.531-.633.927-.515c.051.015.118.021.224.021.827 0 .925-2.907.164-2.995-.412-.048-.706-.42-.659-.831.048-.412.418-.704.832-.659 1.518.175 2.663 1.46 2.663 2.985 0 1.654-1.346 3-3 3z" fill="#ffb74d"/><path d="m3 17c-1.654 0-3-1.346-3-3 0-1.525 1.145-2.81 2.664-2.985.409-.045.784.247.832.659.047.411-.247.783-.659.831-.762.088-.664 2.995.163 2.995.135 0 .187-.013.199-.017.395-.121.815.101.938.496.122.396-.1.815-.496.938-.184.057-.388.083-.641.083z" fill="#ffb74d"/><path d="m12 24c-4.247 0-6.551-2.786-8.408-5.797-.033-.058-.493-.868-.695-1.313-.244-.562-.442-1.157-.595-1.781-.033-.134-.028-.273.013-.405l1.479-4.68c.066-.208.221-.378.421-.463.031-.014 3.035-1.332 3.035-3.791 0-.358.254-.666.606-.735.35-.071.704.122.839.454.067.164 1.514 3.623 4.959 4.37-.636-1.626-.408-3.145-.396-3.226.05-.314.292-.562.605-.62.313-.06.628.089.786.364.694 1.208 2.216 3.123 3.351 3.123.358 0 .505-.007.658-.014.18-.008.366-.017.852-.017.328 0 .619.214.716.527l1.46 4.69c.039.126.044.261.015.39-.133.583-.332 1.188-.591 1.797-.232.51-.754 1.384-.776 1.421-1.75 2.769-3.97 5.706-8.334 5.706z" fill="#ffd54f"/><g fill="#6d4c41"><path d="m12 19.995c-1.094 0-2.188-.401-3.021-1.205-.298-.288-.306-.763-.019-1.061.288-.3.763-.305 1.061-.02 1.091 1.055 2.867 1.055 3.958 0 .298-.285.774-.28 1.061.02.288.298.279.772-.019 1.061-.833.804-1.927 1.205-3.021 1.205z"/><path d="m8 15.5c-.827 0-1.5-.673-1.5-1.5s.673-1.5 1.5-1.5 1.5.673 1.5 1.5-.673 1.5-1.5 1.5z"/><path d="m16 15.5c-.827 0-1.5-.673-1.5-1.5s.673-1.5 1.5-1.5 1.5.673 1.5 1.5-.673 1.5-1.5 1.5z"/><path d="m3.03 15.68c-.009 0-.018 0-.026 0-.337-.013-.624-.247-.703-.575-.2-.832-.301-1.681-.301-2.525v-4.5c0-3.93 2.705-5.314 4.536-5.58.36-.912 1.544-2.396 5.444-2.5 3.039-.056 5.979.966 7.836 2.779 1.429 1.396 2.184 3.221 2.184 5.281v4.5c0 .834-.101 1.683-.3 2.523-.078.329-.366.565-.704.577-.368-.013-.642-.205-.742-.527l-1.294-4.157c-.092.003-.164.006-.233.01-.169.006-.332.014-.727.014-1.071 0-2.079-.713-2.882-1.53.122.28.279.562.481.829.171.227.2.531.073.786-.128.254-.387.415-.672.415-3.465 0-5.601-2.117-6.718-3.715-.81 1.66-2.453 2.642-3.155 3.001l-1.381 4.37c-.1.313-.39.524-.716.524z"/></g></svg>