<svg id="color" enable-background="new 0 0 24 24" height="512" viewBox="0 0 24 24" width="512" xmlns="http://www.w3.org/2000/svg"><path d="m19.05 18.18c-.202 0-.398-.082-.542-.231-.183-.19-.251-.464-.181-.719.114-.416.173-.83.173-1.23v-4.528c-3.502-.269-5.533-2.385-6.492-3.755-.965 1.369-3.004 3.486-6.508 3.755v4.528c-.008.403.045.797.163 1.219.071.256.002.53-.183.722-.186.192-.459.27-.715.209-1.627-.391-2.765-1.835-2.765-3.51v-6.4c0-5.661 5.188-8.24 10.01-8.24 4.811 0 9.99 2.582 9.99 8.25v6.4c0 1.663-1.17 3.139-2.782 3.51-.056.014-.113.02-.168.02z" fill="#6d4c41"/><path d="m12 24c-3.251 0-6.889-2.985-7.785-6.389-.154-.555-.226-1.09-.215-1.627v-5.234c0-.414.336-.75.75-.75 4.709 0 6.557-4.016 6.575-4.056.12-.27.389-.444.685-.444h.001c.297.001.565.176.685.446.074.164 1.877 4.054 6.554 4.054.414 0 .75.336.75.75v5.25c0 .536-.076 1.084-.228 1.63-.95 3.394-4.582 6.37-7.772 6.37z" fill="#ffd54f"/><g fill="#6d4c41"><path d="m12 19.995c-1.094 0-2.188-.401-3.021-1.205-.299-.288-.307-.763-.02-1.061.289-.3.763-.305 1.061-.02 1.092 1.055 2.867 1.055 3.959 0 .299-.285.772-.28 1.061.02.287.298.279.772-.02 1.061-.832.804-1.926 1.205-3.02 1.205z"/><path d="m8 15c-.827 0-1.5-.673-1.5-1.5s.673-1.5 1.5-1.5 1.5.673 1.5 1.5-.673 1.5-1.5 1.5z"/><path d="m16 15c-.827 0-1.5-.673-1.5-1.5s.673-1.5 1.5-1.5 1.5.673 1.5 1.5-.673 1.5-1.5 1.5z"/></g></svg>