<svg id="color" enable-background="new 0 0 24 24" height="512" viewBox="0 0 24 24" width="512" xmlns="http://www.w3.org/2000/svg"><circle cx="12" cy="12" fill="#ffd54f" r="12"/><path d="m24 12c0 .17 0 .33-.02.5h-23.97c-.01-.17-.01-.33-.01-.5 0-2.4.7-4.63 1.91-6.5h20.18c1.21 1.87 1.91 4.1 1.91 6.5z" fill="#455a64"/><path d="m12.25 21c-.414 0-.75-.336-.75-.75s.336-.75.75-.75c2.466 0 4.809-1.193 6.267-3.191.244-.335.713-.409 1.048-.164.335.244.408.713.164 1.048-1.74 2.384-4.536 3.807-7.479 3.807z" fill="#6d4c41"/><g fill="#fff"><circle cx="7" cy="9" r="2"/><circle cx="17" cy="9" r="2"/></g></svg>