<svg id="color" enable-background="new 0 0 24 24" height="512" viewBox="0 0 24 24" width="512" xmlns="http://www.w3.org/2000/svg"><circle cx="12" cy="12" fill="#ffd54f" r="12"/><circle cx="7" cy="9" fill="#6d4c41" r="2"/><circle cx="17" cy="9" fill="#6d4c41" r="2"/><path d="m16.25 15.5h-5c-.414 0-.75.336-.75.75v2.5c0 1.792 1.458 3.25 3.25 3.25s3.25-1.458 3.25-3.25v-2.5c0-.414-.336-.75-.75-.75z" fill="#e53935"/><path d="m17.25 17h-10.5c-.414 0-.75-.336-.75-.75s.336-.75.75-.75h10.5c.414 0 .75.336.75.75s-.336.75-.75.75z" fill="#6d4c41"/></svg>