<svg id="color" enable-background="new 0 0 24 24" height="512" viewBox="0 0 24 24" width="512" xmlns="http://www.w3.org/2000/svg"><circle cx="12" cy="12" fill="#ffd54f" r="12"/><path d="m15.25 17h-6.5c-.414 0-.75.336-.75.75v3.5c0 1.517 1.233 2.75 2.75 2.75h2.5c1.517 0 2.75-1.233 2.75-2.75v-3.5c0-.414-.336-.75-.75-.75z" fill="#e53935"/><path d="m22.034 1.324c-.139-.203-.371-.324-.617-.324s-.477.121-.617.324c-.461.668-1.967 2.937-1.967 4.093 0 1.424 1.159 2.583 2.584 2.583 1.424 0 2.583-1.159 2.583-2.583 0-1.157-1.505-3.425-1.966-4.093z" fill="#00bcd4"/><g fill="#6d4c41"><path d="m7.5 12c-1.379 0-2.5-1.122-2.5-2.5 0-.414.336-.75.75-.75s.75.336.75.75c0 .551.448 1 1 1s1-.449 1-1c0-.414.336-.75.75-.75s.75.336.75.75c0 1.378-1.121 2.5-2.5 2.5z"/><path d="m16.5 12c-1.379 0-2.5-1.122-2.5-2.5 0-.414.336-.75.75-.75s.75.336.75.75c0 .551.448 1 1 1s1-.449 1-1c0-.414.336-.75.75-.75s.75.336.75.75c0 1.378-1.121 2.5-2.5 2.5z"/><path d="m16.25 18.5h-8.5c-.414 0-.75-.336-.75-.75s.336-.75.75-.75h8.5c.414 0 .75.336.75.75s-.336.75-.75.75z"/></g></svg>