<svg id="color" enable-background="new 0 0 24 24" height="512" viewBox="0 0 24 24" width="512" xmlns="http://www.w3.org/2000/svg"><circle cx="12" cy="12" fill="#ffd54f" r="12"/><g fill="#6d4c41"><circle cx="7" cy="10" r="2"/><circle cx="17" cy="10" r="2"/><path d="m9.249 7.333c-.143 0-.287-.041-.415-.126l-2.5-1.667c-.345-.229-.438-.695-.208-1.04s.694-.438 1.04-.208l2.5 1.667c.345.23.438.695.208 1.04-.145.217-.383.334-.625.334z"/><path d="m14.751 7.333c-.242 0-.48-.117-.625-.334-.229-.345-.137-.81.208-1.04l2.5-1.667c.345-.23.811-.137 1.04.208s.137.81-.208 1.04l-2.5 1.667c-.128.086-.272.126-.415.126z"/><path d="m15.25 18h-6.5c-.414 0-.75-.336-.75-.75s.336-.75.75-.75h6.5c.414 0 .75.336.75.75s-.336.75-.75.75z"/></g></svg>