<svg id="color" enable-background="new 0 0 24 24" height="512" viewBox="0 0 24 24" width="512" xmlns="http://www.w3.org/2000/svg"><circle cx="12" cy="12" fill="#ffd54f" r="12"/><g fill="#6d4c41"><circle cx="7" cy="15" r="2"/><circle cx="17" cy="15" r="2"/><path d="m17 7.536c-.192 0-.384-.073-.53-.22-1.194-1.194-2.782-1.852-4.47-1.852s-3.276.658-4.47 1.852c-.293.293-.768.293-1.061 0s-.293-.768 0-1.061c1.478-1.477 3.442-2.291 5.531-2.291s4.053.813 5.53 2.291c.293.293.293.768 0 1.061-.146.146-.338.22-.53.22z"/></g></svg>