<svg id="color" enable-background="new 0 0 24 24" height="512" viewBox="0 0 24 24" width="512" xmlns="http://www.w3.org/2000/svg"><circle cx="12" cy="12" fill="#ffd54f" r="12"/><path d="m19.596 19.947c-1.294-.776-3.035-.696-4.096-.545v-3.842c0-.414-.336-.75-.75-.75h-5.5c-.414 0-.75.336-.75.75v3.79c-1.063-.143-2.814-.207-4.107.599-.764.46-1.673 1.407-1.673 3.301 0 .414.336.75.75.75h17.06c.414 0 .75-.336.75-.75 0-1.899-.917-2.845-1.684-3.303z" fill="#4caf50"/><g fill="#6d4c41"><path d="m6.751 12c-.236 0-.47-.111-.615-.32-.237-.339-.155-.807.185-1.044l1.621-1.136-1.622-1.136c-.34-.237-.422-.705-.184-1.044.236-.341.704-.422 1.044-.184l2.5 1.75c.201.14.32.369.32.614s-.119.474-.32.614l-2.5 1.75c-.131.092-.281.136-.429.136z"/><path d="m17.249 12c-.148 0-.298-.044-.429-.136l-2.5-1.75c-.201-.14-.32-.369-.32-.614s.119-.474.32-.614l2.5-1.75c.34-.238.807-.155 1.044.184s.155.807-.185 1.044l-1.621 1.136 1.622 1.136c.34.237.422.705.185 1.044-.146.209-.38.32-.616.32z"/><path d="m17 16.31h-10c-.414 0-.75-.336-.75-.75s.336-.75.75-.75h10c.414 0 .75.336.75.75s-.336.75-.75.75z"/></g></svg>