<svg id="color" enable-background="new 0 0 24 24" height="512" viewBox="0 0 24 24" width="512" xmlns="http://www.w3.org/2000/svg"><circle cx="12" cy="12" fill="#ffd54f" r="12"/><path d="m14.25 16h-4.5c-.414 0-.75.336-.75.75v2.25c0 1.768 1.581 3 3 3s3-1.232 3-3v-2.25c0-.414-.336-.75-.75-.75z" fill="#e53935"/><g fill="#6d4c41"><path d="m17.25 17.5h-10.5c-.414 0-.75-.336-.75-.75s.336-.75.75-.75h10.5c.414 0 .75.336.75.75s-.336.75-.75.75z"/><circle cx="7.5" cy="9.5" r="2.5"/><path d="m18.25 11.25c-.414 0-.75-.336-.75-.75 0-.551-.448-1-1-1s-1 .449-1 1c0 .414-.336.75-.75.75s-.75-.336-.75-.75c0-1.378 1.121-2.5 2.5-2.5s2.5 1.122 2.5 2.5c0 .414-.336.75-.75.75z"/></g></svg>