<svg id="color" enable-background="new 0 0 24 24" height="512" viewBox="0 0 24 24" width="512" xmlns="http://www.w3.org/2000/svg"><path d="m17.71 4.94-11.431-.01c-.372 0-.688-.273-.741-.641-.025-.176-.038-.364-.038-.539 0-1 .391-1.941 1.1-2.65s1.65-1.1 2.65-1.1h5.5c2.067 0 3.75 1.683 3.75 3.75 0 .225-.019.421-.057.599-.074.344-.38.591-.733.591z" fill="#5d4037"/><path d="m18.97 18.45-13.951-.02c-.052 0-.112-.006-.162-.016-1.656-.346-2.857-1.828-2.857-3.524v-4.65c0-5.661 5.188-8.24 10.01-8.24 4.811 0 9.99 2.582 9.99 8.25v4.61c0 1.755-1.213 3.241-2.883 3.575-.049.01-.097.015-.147.015z" fill="#6d4c41"/><path d="m12 24c-1.844 0-3.924-.99-5.563-2.649-1.571-1.589-2.458-3.542-2.437-5.36v-5.241c0-.414.336-.75.75-.75 4.709 0 6.556-4.016 6.574-4.056.12-.271.389-.444.685-.444h.001c.297 0 .564.176.685.446.074.164 1.877 4.054 6.555 4.054.414 0 .75.336.75.75v5.25c0 1.877-.961 3.885-2.637 5.51-1.609 1.559-3.614 2.49-5.363 2.49z" fill="#ffd54f"/><g fill="#6d4c41"><path d="m12 19.995c-1.094 0-2.188-.401-3.021-1.205-.299-.288-.307-.763-.02-1.061.289-.3.764-.305 1.061-.02 1.092 1.055 2.867 1.055 3.959 0 .299-.285.772-.28 1.061.02.287.298.279.772-.02 1.061-.832.804-1.926 1.205-3.02 1.205z"/><path d="m8 15c-.827 0-1.5-.673-1.5-1.5s.673-1.5 1.5-1.5 1.5.673 1.5 1.5-.673 1.5-1.5 1.5z"/><path d="m16 15c-.827 0-1.5-.673-1.5-1.5s.673-1.5 1.5-1.5 1.5.673 1.5 1.5-.673 1.5-1.5 1.5z"/></g></svg>