<svg id="color" enable-background="new 0 0 24 24" height="512" viewBox="0 0 24 24" width="512" xmlns="http://www.w3.org/2000/svg"><path d="m19.25 24h-14.5c-1.517 0-2.75-1.233-2.75-2.75v-12.6c0-.414.336-.75.75-.75h18.5c.414 0 .75.336.75.75v12.6c0 1.517-1.233 2.75-2.75 2.75z" fill="#6d4c41"/><path d="m12 24c-1.841 0-3.919-.989-5.558-2.646-1.572-1.589-2.462-3.544-2.442-5.362v-6.392c0-.414.336-.75.75-.75h14.5c.414 0 .75.336.75.75v6.4c0 4.12-4.507 8-8 8z" fill="#ffd54f"/><path d="m12.011 9c-.165 0-.331-.055-.467-.163l-2.261-1.8c-.179-.142-.283-.358-.283-.587v-2.7c0-.414.336-.75.75-.75h4.5c.414 0 .75.336.75.75v2.7c0 .228-.103.442-.28.585l-2.239 1.8c-.137.109-.303.165-.47.165zm-1.511-2.911 1.509 1.201 1.491-1.199v-1.591h-3z"/><path d="m12 19.495c-1.094 0-2.188-.401-3.021-1.205-.298-.288-.306-.763-.019-1.061.287-.3.763-.305 1.061-.02 1.091 1.055 2.867 1.055 3.958 0 .298-.285.773-.28 1.061.02.288.298.279.772-.019 1.061-.833.804-1.927 1.205-3.021 1.205z" fill="#6d4c41"/><path d="m2.5 9.5c-.139 0-.277-.039-.398-.114-.076-.048-1.852-1.188-1.852-3.456 0-2.476 4.474-5.93 11.76-5.93 7.273 0 11.74 3.454 11.74 5.93 0 2.269-1.776 3.408-1.852 3.456-.206.128-.461.152-.687.057-.034-.014-3.508-1.438-7.63-1.754l-3.221.001c-4.076.315-7.538 1.738-7.572 1.752-.093.039-.19.058-.288.058z" fill="#42a5f5"/><path d="m12 11.498c-3.344 0-6.687-.688-9.803-2.062-.274-.121-.45-.394-.447-.694s.185-.569.462-.685c.15-.062 3.721-1.53 8.091-1.865l3.337-.002c4.428.337 7.998 1.805 8.148 1.867.277.115.459.385.462.685s-.173.573-.447.694c-3.115 1.375-6.459 2.062-9.803 2.062z" fill="#1976d2"/><path d="m12.012 9c-.165 0-.33-.055-.467-.163l-2.262-1.8c-.179-.142-.283-.358-.283-.587v-2.7c0-.414.336-.75.75-.75h4.5c.414 0 .75.336.75.75v2.7c0 .228-.103.442-.28.585l-2.238 1.8c-.137.109-.304.165-.47.165z" fill="#ffd54f"/><g fill="#6d4c41"><path d="m8 15c-.827 0-1.5-.673-1.5-1.5s.673-1.5 1.5-1.5 1.5.673 1.5 1.5-.673 1.5-1.5 1.5z"/><path d="m16 15c-.827 0-1.5-.673-1.5-1.5s.673-1.5 1.5-1.5 1.5.673 1.5 1.5-.673 1.5-1.5 1.5z"/></g></svg>