<svg id="color" enable-background="new 0 0 24 24" height="512" viewBox="0 0 24 24" width="512" xmlns="http://www.w3.org/2000/svg"><circle cx="12" cy="12" fill="#ffd54f" r="12"/><path d="m7.5 11c-1.378 0-2.5-1.122-2.5-2.5 0-.414.336-.75.75-.75s.75.336.75.75c0 .551.449 1 1 1s1-.449 1-1c0-.414.336-.75.75-.75s.75.336.75.75c0 1.378-1.122 2.5-2.5 2.5z" fill="#6d4c41"/><path d="m16.5 11c-1.378 0-2.5-1.122-2.5-2.5 0-.414.336-.75.75-.75s.75.336.75.75c0 .551.449 1 1 1s1-.449 1-1c0-.414.336-.75.75-.75s.75.336.75.75c0 1.378-1.122 2.5-2.5 2.5z" fill="#6d4c41"/><path d="m12.197 12.816c-.513-.526-1.204-.816-1.947-.816-1.517 0-2.75 1.234-2.75 2.75v2.22c0 .343.232.642.564.727l4 1.02c.062.016.124.023.186.023.165 0 .327-.054.46-.158.183-.142.29-.36.29-.592v-3.24c0-.743-.29-1.434-.803-1.934z" fill="#e53935"/><path d="m12 19c-2.776 0-5.348-1.416-6.88-3.786-.225-.348-.125-.812.223-1.037.347-.225.812-.125 1.037.223 1.254 1.941 3.355 3.1 5.62 3.1s4.366-1.159 5.62-3.1c.226-.348.689-.448 1.037-.223s.447.689.223 1.037c-1.532 2.37-4.104 3.786-6.88 3.786z" fill="#6d4c41"/></svg>