<svg id="color" enable-background="new 0 0 24 24" height="512" viewBox="0 0 24 24" width="512" xmlns="http://www.w3.org/2000/svg"><path d="m24 12c0 6.63-5.37 12-12 12-5.66 0-10.4-3.92-11.67-9.19-.13-.55-.23-1.12-.28-1.7-.03-.37-.05-.74-.05-1.11 0-6.63 5.37-12 12-12 1.26 0 2.48.19 3.62.56.56.17 1.09.38 1.61.63 4.01 1.94 6.77 6.05 6.77 10.81z" fill="#ffd54f"/><path d="m20.47 14.97c-.23.73-.53 1.4-.92 2.03h-15.1c-.39-.63-.69-1.3-.92-2.03-.07-.23-.03-.47.12-.66.14-.2.36-.31.6-.31h15.5c.24 0 .46.11.6.31.15.19.19.43.12.66z" fill="#fff"/><path d="m19.55 17c-1.58 2.59-4.41 4.22-7.55 4.22s-5.97-1.63-7.55-4.22z" fill="#e53935"/><circle cx="7.5" cy="9" fill="#fff" r="3.5"/><g fill="#6d4c41"><circle cx="7.5" cy="9" r="1.5"/><circle cx="17" cy="9" r="2"/></g></svg>