<svg id="color" enable-background="new 0 0 24 24" height="512" viewBox="0 0 24 24" width="512" xmlns="http://www.w3.org/2000/svg"><circle cx="12" cy="12" fill="#ffd54f" r="12"/><g fill="#fafafa"><path d="m9.75 20c-.414 0-.75-.336-.75-.75v-3.5c0-.414.336-.75.75-.75s.75.336.75.75v3.5c0 .414-.336.75-.75.75z"/><path d="m12 20c-.414 0-.75-.336-.75-.75v-3.5c0-.414.336-.75.75-.75s.75.336.75.75v3.5c0 .414-.336.75-.75.75z"/><path d="m14.25 20c-.414 0-.75-.336-.75-.75v-3.5c0-.414.336-.75.75-.75s.75.336.75.75v3.5c0 .414-.336.75-.75.75z"/></g><circle cx="17" cy="9" fill="#fff" r="3.5"/><circle cx="17" cy="9" fill="#6d4c41" r="1.5"/><circle cx="7.5" cy="9" fill="#fff" r="3.5"/><circle cx="7.5" cy="9" fill="#6d4c41" r="1.5"/><path d="m20.381 18.465c-.591-.591-2.604-1.202-3.441-1.437-.018-.005-.036.003-.054 0-.046-.009-.088-.028-.136-.028h-9c-.414 0-.75.336-.75.75s.336.75.75.75h8.426c.293.965.79 2.407 1.276 2.894.404.404.934.605 1.464.605s1.061-.202 1.465-.605c.807-.808.807-2.122 0-2.929z" fill="#eceff1"/></svg>