<svg height="512pt" viewBox="0 -32 512.00533 512" width="512pt" xmlns="http://www.w3.org/2000/svg"><path d="m100.421875 6.257812c-8.34375-8.339843-21.824219-8.339843-30.164063 0l-16.917968 16.917969-16.917969-16.917969c-8.34375-8.339843-21.824219-8.339843-30.164063 0-8.34375 8.34375-8.34375 21.824219 0 30.167969l16.914063 16.914063-16.914063 16.917968c-8.34375 8.34375-8.34375 21.824219 0 30.167969 4.15625 4.160157 9.621094 6.25 15.082032 6.25 5.460937 0 10.921875-2.089843 15.082031-6.25l16.917969-16.917969 16.917968 16.917969c4.15625 4.160157 9.621094 6.25 15.082032 6.25 5.460937 0 10.921875-2.089843 15.082031-6.25 8.339844-8.34375 8.339844-21.824219 0-30.167969l-16.917969-16.917968 16.917969-16.914063c8.339844-8.34375 8.339844-21.824219 0-30.167969zm0 0"/><path d="m100.421875 176.925781c-8.34375-8.339843-21.824219-8.339843-30.164063 0l-16.917968 16.917969-16.917969-16.917969c-8.34375-8.339843-21.824219-8.339843-30.164063 0-8.34375 8.339844-8.34375 21.824219 0 30.164063l16.914063 16.917968-16.914063 16.917969c-8.34375 8.339844-8.34375 21.824219 0 30.164063 4.15625 4.160156 9.621094 6.25 15.082032 6.25 5.460937 0 10.921875-2.089844 15.082031-6.25l16.917969-16.917969 16.917968 16.917969c4.15625 4.160156 9.621094 6.25 15.082032 6.25 5.460937 0 10.921875-2.089844 15.082031-6.25 8.339844-8.339844 8.339844-21.824219 0-30.164063l-16.917969-16.917969 16.917969-16.917968c8.339844-8.339844 8.339844-21.824219 0-30.164063zm0 0"/><path d="m100.421875 347.59375c-8.34375-8.34375-21.824219-8.34375-30.164063 0l-16.917968 16.914062-16.917969-16.914062c-8.34375-8.34375-21.824219-8.34375-30.164063 0-8.34375 8.339844-8.34375 21.820312 0 30.164062l16.914063 16.917969-16.914063 16.917969c-8.34375 8.339844-8.34375 21.820312 0 30.164062 4.15625 4.160157 9.621094 6.25 15.082032 6.25 5.460937 0 10.921875-2.089843 15.082031-6.25l16.917969-16.917968 16.917968 16.917968c4.15625 4.160157 9.621094 6.25 15.082032 6.25 5.460937 0 10.921875-2.089843 15.082031-6.25 8.339844-8.34375 8.339844-21.824218 0-30.164062l-16.917969-16.917969 16.917969-16.917969c8.339844-8.34375 8.339844-21.824218 0-30.164062zm0 0"/><path d="m170.671875 64.007812h320c11.796875 0 21.332031-9.535156 21.332031-21.332031s-9.535156-21.335937-21.332031-21.335937h-320c-11.796875 0-21.332031 9.539062-21.332031 21.335937s9.535156 21.332031 21.332031 21.332031zm0 0"/><path d="m490.671875 192.007812h-320c-11.796875 0-21.332031 9.535157-21.332031 21.332032s9.535156 21.335937 21.332031 21.335937h320c11.796875 0 21.332031-9.539062 21.332031-21.335937s-9.535156-21.332032-21.332031-21.332032zm0 0"/><path d="m490.671875 362.675781h-320c-11.796875 0-21.332031 9.535157-21.332031 21.332031 0 11.796876 9.535156 21.332032 21.332031 21.332032h320c11.796875 0 21.332031-9.535156 21.332031-21.332032 0-11.796874-9.535156-21.332031-21.332031-21.332031zm0 0"/></svg>