<svg height="512pt" viewBox="0 -21 512 512" width="512pt" xmlns="http://www.w3.org/2000/svg"><path d="m448 0h-384c-35.285156 0-64 28.714844-64 64v341.332031c0 35.285157 28.714844 64 64 64h384c35.285156 0 64-28.714843 64-64v-341.332031c0-35.285156-28.714844-64-64-64zm-96 181.332031v53.335938h-74.667969v-53.335938zm-117.332031 53.335938h-74.667969v-53.335938h74.667969zm-117.335938 0h-74.664062v-53.335938h74.664062zm0 42.664062v53.335938h-74.664062v-53.335938zm42.667969 0h74.667969v53.335938h-74.667969zm74.667969 96v53.335938h-74.667969v-53.335938zm42.664062 0h74.667969v53.335938h-74.667969zm0-42.664062v-53.335938h74.667969v53.335938zm117.335938-53.335938h74.664062v53.335938h-74.664062zm0-42.664062v-53.335938h74.664062v53.335938zm-352 170.664062v-32h74.664062v53.335938h-53.332031c-11.753906 0-21.332031-9.578125-21.332031-21.335938zm405.332031 21.335938h-53.332031v-53.335938h74.664062v32c0 11.757813-9.578125 21.335938-21.332031 21.335938zm0 0"/></svg>