<svg height="512pt" viewBox="0 0 512 512" width="512pt" xmlns="http://www.w3.org/2000/svg"><path d="m490.667969 362.667969h-85.335938v-192c0-35.285157-28.714843-64-64-64h-192v-85.335938c0-11.796875-9.535156-21.332031-21.332031-21.332031s-21.332031 9.535156-21.332031 21.332031v85.335938h-85.335938c-11.796875 0-21.332031 9.535156-21.332031 21.332031s9.535156 21.332031 21.332031 21.332031h85.335938v192c0 35.285157 28.714843 64 64 64h192v85.335938c0 11.796875 9.535156 21.332031 21.332031 21.332031s21.332031-9.535156 21.332031-21.332031v-85.335938h85.335938c11.796875 0 21.332031-9.535156 21.332031-21.332031s-9.535156-21.332031-21.332031-21.332031zm-320 0c-11.777344 0-21.335938-9.558594-21.335938-21.335938v-192h192c11.777344 0 21.335938 9.558594 21.335938 21.335938v192zm0 0"/></svg>