<svg height="512pt" viewBox="0 -85 512.016 512" width="512pt" xmlns="http://www.w3.org/2000/svg"><path d="m453.347656.0078125h-274.773437c-16.234375 0-31.871094 6.8046875-42.921875 18.6874995l-131.347656 141.078126c-5.738282 6.144531-5.738282 15.660156 0 21.800781l131.347656 141.058593c11.050781 11.902344 26.6875 18.707032 42.921875 18.707032h274.773437c32.363282 0 58.667969-26.300782 58.667969-58.664063v-224c0-32.363281-26.304687-58.6679685-58.667969-58.6679685zm-37.714844 230.8046875c8.019532 8.640625 7.53125 22.144531-1.109374 30.167969-4.097657 3.816406-9.324219 5.695312-14.527344 5.695312-5.738282 0-11.4375-2.285156-15.617188-6.804687l-53.695312-57.859375-53.71875 57.835937c-4.179688 4.523438-9.898438 6.804688-15.617188 6.804688-5.203125 0-10.410156-1.875-14.527344-5.695313-8.617187-8.019531-9.128906-21.523437-1.109374-30.164062l55.875-60.117188-55.851563-60.140625c-8.023437-8.640625-7.53125-22.144531 1.109375-30.164062 8.597656-8.023438 22.144531-7.550782 30.144531 1.109375l53.714844 57.835937 53.71875-57.835937c7.976563-8.660157 21.523437-9.132813 30.144531-1.109375 8.617188 8.019531 9.128906 21.523437 1.109375 30.164062l-55.894531 60.140625zm0 0"/></svg>