<svg height="451pt" viewBox="0 -21 451.62667 451" width="451pt" xmlns="http://www.w3.org/2000/svg"><path d="m432.789062 213.757812c12.140626-12.136718 18.835938-28.179687 18.835938-45.160156 0-17.109375-6.675781-33.238281-18.835938-45.378906l-104.554687-104.554688c-23.828125-24.425781-67.070313-24.445312-90.730469-.191406l-218.472656 218.476563c-12.289062 11.96875-19.03125 28.136719-19.03125 45.566406 0 17.28125 6.742188 33.386719 18.835938 45.164063l39.957031 39.957031h-32.125c-11.777344 0-21.335938 9.558593-21.335938 21.332031 0 11.777344 9.558594 21.335938 21.335938 21.335938h384c11.773437 0 21.332031-9.558594 21.332031-21.335938 0-11.773438-9.558594-21.332031-21.332031-21.332031h-131.757813zm-164.925781-165.3125c4.949219-5.074218 10.792969-6.140624 14.804688-6.140624 4.117187 0 10.066406 1.066406 15.210937 6.335937l104.746094 104.746094c4.074219 4.074219 6.335938 9.492187 6.335938 15.210937 0 5.585938-2.242188 10.921875-6.335938 14.996094l-64.023438 64.019531-134.953124-134.953125zm0 0"/></svg>