<svg height="512pt" viewBox="0 0 512 512" width="512pt" xmlns="http://www.w3.org/2000/svg"><path d="m373.332031 0h-336c-20.585937 0-37.332031 16.746094-37.332031 37.332031v41.089844c0 15.679687 6.101562 30.421875 17.195312 41.492187l124.328126 124.246094c4.953124 4.949219 7.808593 11.839844 7.808593 18.859375v168.980469c0 6.25 3.628907 11.925781 9.324219 14.527344 2.132812 1.003906 4.414062 1.472656 6.675781 1.472656 3.757813 0 7.46875-1.324219 10.410157-3.863281l59.757812-51.21875c13.035156-11.136719 20.5-27.394531 20.5-44.542969v-84.910156c0-7.1875 2.964844-14.207032 8.148438-19.199219l128.578124-124.050781c11.390626-10.988282 17.917969-26.390625 17.917969-42.21875v-40.664063c.023438-20.585937-16.722656-37.332031-37.3125-37.332031zm0 0"/><path d="m474.667969 256h-138.667969c-20.585938 0-37.332031 16.746094-37.332031 37.332031v181.335938c0 20.585937 16.746093 37.332031 37.332031 37.332031h138.667969c20.585937 0 37.332031-16.746094 37.332031-37.332031v-181.335938c0-20.585937-16.746094-37.332031-37.332031-37.332031zm-42.667969 181.332031h-53.332031c-8.832031 0-16-7.167969-16-16s7.167969-16 16-16h53.332031c8.832031 0 16 7.167969 16 16s-7.167969 16-16 16zm0-64h-53.332031c-8.832031 0-16-7.167969-16-16s7.167969-16 16-16h53.332031c8.832031 0 16 7.167969 16 16s-7.167969 16-16 16zm0 0"/></svg>