<svg height="512pt" viewBox="0 0 512 512.00164" width="512pt" xmlns="http://www.w3.org/2000/svg"><path d="m256 192c-11.773438 0-21.332031 9.558594-21.332031 21.335938v256c0 11.773437 9.558593 21.332031 21.332031 21.332031 11.777344 0 21.335938-9.558594 21.335938-21.332031v-256c0-11.777344-9.558594-21.335938-21.335938-21.335938zm0 0"/><path d="m47.574219 180.972656c-.277344-.320312-1.835938-2.15625-2.15625-2.453125-5.097657-5.054687-11.753907-7.851562-18.75-7.851562-14.699219 0-26.667969 11.96875-26.667969 26.667969v288c0 14.699218 11.96875 26.664062 26.667969 26.664062 7.574219 0 14.785156-3.15625 19.625-8.53125l138.882812-149.570312c4.394531-4.949219 6.824219-11.285157 6.824219-17.898438 0-6.996094-2.792969-13.652344-9.386719-20.050781zm0 0"/><path d="m465.28125 180.054688-135.019531 135.0625c-.320313.277343-2.113281 1.832031-2.390625 2.132812-5.074219 5.097656-7.871094 11.753906-7.871094 18.75 0 6.613281 2.433594 12.949219 7.039062 18.136719l138.496094 149.140625c4.910156 5.460937 12.3125 8.722656 19.800782 8.722656 14.695312 0 26.664062-11.964844 26.664062-26.664062v-288c0-21.738282-27.027344-37.632813-46.71875-17.28125zm0 0"/><path d="m404.480469 104.234375c7.382812 9.175781 20.800781 10.648437 29.996093 3.265625 9.171876-7.382812 10.644532-20.820312 3.261719-29.996094-39.550781-49.257812-98.027343-77.503906-160.402343-77.503906-45.71875 0-89.773438 15.980469-125.589844 43.777344l-39.105469-39.082032c-4.585937-4.585937-11.433594-5.953124-17.429687-3.476562-5.972657 2.472656-9.875 8.320312-9.875 14.78125v117.335938c0 8.832031 7.167968 16 16 16h117.332031c6.464843 0 12.308593-3.90625 14.785156-9.878907 2.472656-5.972656 1.109375-12.863281-3.480469-17.429687l-47.828125-47.851563c27.605469-20.050781 60.820313-31.507812 95.191407-31.507812 49.386718 0 95.722656 22.441406 127.144531 61.566406zm0 0"/></svg>