<svg height="469pt" viewBox="-21 0 469 469.33333" width="469pt" xmlns="http://www.w3.org/2000/svg"><path d="m42.832031 96c11.796875 0 21.335938-9.535156 21.335938-21.332031v-32h128v213.332031h-21.335938c-11.796875 0-21.332031 9.535156-21.332031 21.332031s9.535156 21.335938 21.332031 21.335938h85.335938c11.796875 0 21.332031-9.539063 21.332031-21.335938s-9.535156-21.332031-21.332031-21.332031h-21.335938v-213.332031h128v32c0 11.796875 9.539063 21.332031 21.335938 21.332031s21.332031-9.535156 21.332031-21.332031v-53.335938c0-11.796875-9.535156-21.332031-21.332031-21.332031h-341.335938c-11.796875 0-21.332031 9.535156-21.332031 21.332031v53.335938c0 11.796875 9.535156 21.332031 21.332031 21.332031zm0 0"/><path d="m421.734375 372.265625-74.667969-69.332031c-4.671875-4.289063-11.433594-5.484375-17.300781-2.945313-5.824219 2.5625-9.597656 8.320313-9.597656 14.679688v48h-213.335938v-48c0-6.359375-3.773437-12.117188-9.597656-14.679688-5.804687-2.539062-12.609375-1.34375-17.300781 2.945313l-74.667969 69.332031c-3.242187 3.050781-5.097656 7.277344-5.097656 11.734375s1.855469 8.683594 5.097656 11.734375l74.667969 69.332031c3.027344 2.796875 6.933594 4.265625 10.898437 4.265625 2.175781 0 4.332031-.445312 6.402344-1.320312 5.824219-2.5625 9.597656-8.320313 9.597656-14.679688v-48h213.335938v48c0 6.359375 3.773437 12.117188 9.597656 14.679688 2.070313.875 4.226563 1.320312 6.402344 1.320312 3.964843 0 7.871093-1.46875 10.898437-4.265625l74.667969-69.332031c3.242187-3.050781 5.097656-7.277344 5.097656-11.734375s-1.855469-8.683594-5.097656-11.734375zm0 0"/></svg>