<svg height="463pt" viewBox="-2 0 463 463.95116" width="463pt" xmlns="http://www.w3.org/2000/svg"><path d="m405.808594 463.949219h-384c-11.796875 0-21.332032-9.554688-21.332032-21.332031 0-11.773438 9.535157-21.332032 21.332032-21.332032h384c11.796875 0 21.332031 9.558594 21.332031 21.332032 0 11.777343-9.535156 21.332031-21.332031 21.332031zm0 0"/><path d="m440.390625 67.832031-49.132813-49.128906c-23.742187-23.765625-62.140624-25.023437-87.335937-2.964844l-200.664063 174.230469c-4.476562 3.882812-7.125 9.449219-7.335937 15.359375-.128906 3.816406 1.085937 7.402344 2.878906 10.707031l-33.324219 57.964844c-4.820312 8.363281-3.410156 18.902344 3.414063 25.726562l7.46875 7.46875-56.214844 56.359376c-6.101562 6.101562-7.914062 15.277343-4.609375 23.234374 3.308594 7.976563 11.09375 13.160157 19.714844 13.160157h85.332031c4.972657 0 9.792969-1.746094 13.632813-4.90625l16.382812-13.609375 8.789063 8.789062c4.097656 4.117188 9.578125 6.25 15.105469 6.25 3.625 0 7.296874-.917968 10.625-2.835937l57.917968-33.300781c3.09375 1.683593 6.421875 2.859374 10.003906 2.859374h.75c5.90625-.214843 11.476563-2.859374 15.359376-7.339843l174.1875-200.597657c22.078124-25.28125 20.796874-63.679687-2.945313-87.425781zm-262.398437 280.664063-56.363282-56.363282c-.023437-.023437-.042968-.0625-.066406-.085937-.019531-.019531-.0625-.042969-.085938-.0625l-10.878906-10.882813 18.816406-32.703124 81.300782 81.300781zm0 0"/></svg>