<svg height="426pt" viewBox="-64 0 426 426.66667" width="426pt" xmlns="http://www.w3.org/2000/svg"><path d="m277.667969 384h-21.335938v-149.332031h21.335938c11.773437 0 21.332031-9.539063 21.332031-21.335938s-9.558594-21.332031-21.332031-21.332031h-192v-85.332031c0-35.285157 28.714843-64 64-64 35.285156 0 64 28.714843 64 64v21.332031c0 11.796875 9.554687 21.332031 21.332031 21.332031s21.332031-9.535156 21.332031-21.332031v-21.332031c0-58.816407-47.847656-106.667969-106.664062-106.667969-58.816407 0-106.667969 47.851562-106.667969 106.667969v85.332031h-21.332031c-11.777344 0-21.335938 9.535156-21.335938 21.332031s9.558594 21.335938 21.335938 21.335938h21.332031v149.332031h-21.332031c-11.777344 0-21.335938 9.535156-21.335938 21.332031s9.558594 21.335938 21.335938 21.335938h85.332031c11.777344 0 21.332031-9.539063 21.332031-21.335938s-9.554687-21.332031-21.332031-21.332031h-21.332031v-149.332031h128v149.332031h-21.335938c-11.773437 0-21.332031 9.535156-21.332031 21.332031s9.558594 21.335938 21.332031 21.335938h85.335938c11.773437 0 21.332031-9.539063 21.332031-21.335938s-9.558594-21.332031-21.332031-21.332031zm0 0"/></svg>