<svg height="455pt" viewBox="-1 0 455 455.42933" width="455pt" xmlns="http://www.w3.org/2000/svg"><path d="m432.183594 412.761719h-384c-11.777344 0-21.335938 9.558593-21.335938 21.335937 0 11.773438 9.558594 21.332032 21.335938 21.332032h384c11.773437 0 21.332031-9.558594 21.332031-21.332032 0-11.777344-9.558594-21.335937-21.332031-21.335937zm0 0"/><path d="m180.023438 391.40625c16.0625 0 32.128906-6.121094 44.351562-18.34375l161.003906-161.003906c8.339844-8.339844 8.339844-21.824219 0-30.164063l-175.640625-175.636719c-8.339843-8.34375-21.824219-8.34375-30.164062 0l-161.023438 160.980469c-24.449219 24.445313-24.449219 64.253907 0 88.703125l117.097657 117.097656c12.246093 12.246094 28.308593 18.367188 44.375 18.367188zm14.632812-339.921875 145.472656 145.46875-2.472656 2.476563h-290.261719c.511719-.640626.746094-1.429688 1.34375-2.027344zm0 0"/><path d="m346.847656 336.324219c0 30.378906 23.9375 55.105469 53.335938 55.105469 29.394531 0 53.332031-24.726563 53.332031-55.105469 0-24.488281-30.589844-72.808594-39.976563-87.015625-5.910156-9.003906-20.800781-9.003906-26.710937 0-9.386719 14.207031-39.980469 62.527344-39.980469 87.015625zm0 0"/></svg>