<svg height="426pt" viewBox="-42 0 426 426.66667" width="426pt" xmlns="http://www.w3.org/2000/svg"><path d="m320.34375 426.667969h-298.664062c-8.277344 0-15.808594-4.800781-19.328126-12.289063-3.519531-7.488281-2.367187-16.339844 2.941407-22.699218l148.609375-178.347657-148.609375-178.324219c-5.308594-6.378906-6.441407-15.230468-2.941407-22.71875 3.519532-7.488281 11.050782-12.289062 19.328126-12.289062h298.664062c11.777344 0 21.335938 9.535156 21.335938 21.332031v64c0 11.796875-9.558594 21.335938-21.335938 21.335938-11.773438 0-21.332031-9.539063-21.332031-21.335938v-42.664062h-231.785157l130.835938 156.992187c6.59375 7.914063 6.59375 19.410156 0 27.328125l-130.835938 157.011719h231.785157v-42.667969c0-11.796875 9.558593-21.332031 21.332031-21.332031 11.777344 0 21.335938 9.535156 21.335938 21.332031v64c0 11.796875-9.558594 21.335938-21.335938 21.335938zm0 0"/></svg>