<svg height="469pt" viewBox="0 -21 469.34342 469" width="469pt" xmlns="http://www.w3.org/2000/svg"><path d="m448.011719 384.191406h-64v-5.332031c0-14.699219 11.964843-26.667969 26.664062-26.667969 32.363281 0 58.667969-26.304687 58.667969-58.667968 0-32.363282-26.304688-58.664063-58.667969-58.664063h-48c-11.773437 0-21.332031 9.535156-21.332031 21.332031s9.558594 21.332032 21.332031 21.332032h48c8.832031 0 16 7.191406 16 16 0 8.8125-7.167969 16-16 16-38.226562 0-69.332031 31.105468-69.332031 69.335937v26.664063c0 11.796874 9.558594 21.335937 21.332031 21.335937h85.335938c11.773437 0 21.332031-9.539063 21.332031-21.335937 0-11.796876-9.558594-21.332032-21.332031-21.332032zm0 0"/><path d="m269.195312 4.757812c-9.261718-7.296874-22.65625-5.699218-29.953124 3.582032l-100.566407 127.980468-100.5625-127.980468c-7.277343-9.28125-20.675781-10.902344-29.953125-3.582032-9.28125 7.273438-10.878906 20.691407-3.585937 29.949219l106.964843 136.152344-106.964843 136.148437c-7.273438 9.277344-5.671875 22.675782 3.585937 29.949219 3.902344 3.09375 8.554688 4.566407 13.183594 4.566407 6.3125 0 12.566406-2.792969 16.789062-8.148438l100.542969-127.980469 100.566407 127.980469c4.203124 5.355469 10.453124 8.148438 16.769531 8.148438 4.605469 0 9.257812-1.472657 13.160156-4.566407 9.28125-7.273437 10.882813-20.691406 3.585937-29.949219l-106.945312-136.148437 106.964844-136.152344c7.277344-9.257812 5.675781-22.675781-3.582032-29.949219zm0 0"/></svg>