<svg height="469pt" viewBox="0 -21 469.33683 469" width="469pt" xmlns="http://www.w3.org/2000/svg"><path d="m448.003906 149.5h-64v-5.332031c0-14.699219 11.96875-26.667969 26.667969-26.667969 32.359375 0 58.664063-26.300781 58.664063-58.664062 0-32.363282-26.304688-58.667969-58.664063-58.667969h-48c-11.800781 0-21.335937 9.535156-21.335937 21.332031 0 11.800781 9.535156 21.335938 21.335937 21.335938h48c8.808594 0 16 7.1875 16 16 0 8.808593-7.191406 16-16 16-38.230469 0-69.335937 31.101562-69.335937 69.332031v26.667969c0 11.796874 9.535156 21.332031 21.335937 21.332031h85.332031c11.796875 0 21.332032-9.535157 21.332032-21.332031 0-11.796876-9.535157-21.335938-21.332032-21.335938zm0 0"/><path d="m269.1875 90.066406c-9.324219-7.339844-22.675781-5.675781-29.953125 3.585938l-100.5625 127.976562-100.566406-127.976562c-7.273438-9.261719-20.671875-10.925782-29.953125-3.585938-9.257813 7.273438-10.878906 20.695313-3.582032 29.953125l106.964844 136.148438-106.964844 136.148437c-7.296874 9.28125-5.675781 22.679688 3.582032 29.953125 3.90625 3.09375 8.554687 4.566407 13.164062 4.566407 6.335938 0 12.585938-2.796876 16.789063-8.148438l100.566406-127.980469 100.5625 127.980469c4.203125 5.351562 10.453125 8.148438 16.789063 8.148438 4.609374 0 9.261718-1.472657 13.164062-4.566407 9.257812-7.273437 10.878906-20.691406 3.585938-29.953125l-106.96875-136.148437 106.96875-136.148438c7.292968-9.257812 5.671874-22.679687-3.585938-29.953125zm0 0"/></svg>