<svg height="512pt" viewBox="0 -21 512 512" width="512pt" xmlns="http://www.w3.org/2000/svg"><path d="m197.332031 341.339844h-48c-58.816406 0-106.664062-47.851563-106.664062-106.667969 0-26.28125 9.640625-51.542969 27.15625-71.105469 7.851562-8.765625 7.105469-22.269531-1.664063-30.121094-8.789062-7.871093-22.25-7.105468-30.121094 1.664063-24.535156 27.414063-38.039062 62.761719-38.039062 99.5625 0 82.324219 66.988281 149.332031 149.332031 149.332031h48c11.777344 0 21.335938-9.535156 21.335938-21.332031s-9.558594-21.332031-21.335938-21.332031zm0 0"/><path d="m422.613281 371.121094c16.980469-7.320313 32.683594-17.75 45.546875-30.828125 28.265625-28.03125 43.839844-65.535157 43.839844-105.621094 0-82.324219-66.988281-149.332031-149.332031-149.332031h-48c-11.777344 0-21.335938 9.535156-21.335938 21.332031s9.558594 21.332031 21.335938 21.332031h48c58.816406 0 106.664062 47.851563 106.664062 106.667969 0 28.609375-11.09375 55.359375-31.421875 75.5-10.796875 10.964844-24.128906 19.414063-39.039062 24.640625-3.179688 1.191406-6.574219 1.8125-9.878906 2.6875l-81.492188-81.496094h12.5c11.777344 0 21.332031-9.535156 21.332031-21.332031s-9.554687-21.332031-21.332031-21.332031h-55.167969l-85.332031-85.335938h17.832031c11.777344 0 21.335938-9.535156 21.335938-21.332031s-9.558594-21.332031-21.335938-21.332031h-48c-3.882812 0-7.722656.597656-11.605469.894531l-79.976562-79.976563c-8.34375-8.34375-21.824219-8.34375-30.164062 0-8.34375 8.339844-8.34375 21.820313 0 30.164063l426.664062 426.667969c4.160156 4.15625 9.621094 6.25 15.082031 6.25 5.460938 0 10.925781-2.09375 15.082031-6.25 8.34375-8.34375 8.34375-21.824219 0-30.167969zm0 0"/></svg>