<svg height="512pt" viewBox="0 0 512 512" width="512pt" xmlns="http://www.w3.org/2000/svg"><path d="m256 106.667969c-11.796875 0-21.332031 9.554687-21.332031 21.332031v128c0 11.777344 9.535156 21.332031 21.332031 21.332031h128c11.796875 0 21.332031-9.554687 21.332031-21.332031s-9.535156-21.332031-21.332031-21.332031h-106.667969v-106.667969c0-11.777344-9.535156-21.332031-21.332031-21.332031zm0 0" fill="#4caf50"/><path d="m256 0c-67.839844 0-133.546875 27.09375-182.355469 72.339844l-46.335937-46.3125c-4.589844-4.585938-11.457032-5.953125-17.429688-3.476563-5.976562 2.472657-9.878906 8.320313-9.878906 14.78125v138.667969c0 8.832031 7.167969 16 16 16h138.667969c6.484375 0 12.308593-3.902344 14.78125-9.878906 2.476562-5.972656 1.109375-12.863282-3.476563-17.429688l-61.972656-61.992187c40.851562-37.417969 95.445312-60.03125 152-60.03125 117.632812 0 213.332031 95.699219 213.332031 213.332031s-95.699219 213.332031-213.332031 213.332031c-57.046875 0-110.570312-22.226562-150.699219-62.546875-8.320312-8.363281-21.84375-8.386718-30.164062-.066406-8.363281 8.320312-8.40625 21.824219-.085938 30.1875 48.214844 48.425781 112.46875 75.09375 180.949219 75.09375 141.164062 0 256-114.835938 256-256s-114.835938-256-256-256zm0 0" fill="#607d8b"/></svg>