<svg height="512pt" viewBox="0 0 512 512" width="512pt" xmlns="http://www.w3.org/2000/svg"><path d="m256 0c-141.164062 0-256 114.835938-256 256s114.835938 256 256 256 256-114.835938 256-256-114.835938-256-256-256zm0 0" fill="#2196f3"/><path d="m256 448c-105.878906 0-192-86.121094-192-192s86.121094-192 192-192 192 86.121094 192 192-86.121094 192-192 192zm0 0" fill="#fff"/><path d="m384 256c0 70.691406-57.308594 128-128 128s-128-57.308594-128-128 57.308594-128 128-128 128 57.308594 128 128zm0 0" fill="#2196f3"/><path d="m320 256c0 35.347656-28.652344 64-64 64s-64-28.652344-64-64 28.652344-64 64-64 64 28.652344 64 64zm0 0" fill="#fff"/></svg>