<svg height="512pt" viewBox="0 0 512 512" width="512pt" xmlns="http://www.w3.org/2000/svg"><path d="m256 0c-141.164062 0-256 114.835938-256 256s114.835938 256 256 256 256-114.835938 256-256-114.835938-256-256-256zm0 0" fill="#4caf50"/><g fill="#fafafa"><path d="m170.667969 256c0 29.457031-23.878907 53.332031-53.335938 53.332031-29.453125 0-53.332031-23.875-53.332031-53.332031s23.878906-53.332031 53.332031-53.332031c29.457031 0 53.335938 23.875 53.335938 53.332031zm0 0"/><path d="m309.332031 256c0 29.457031-23.875 53.332031-53.332031 53.332031s-53.332031-23.875-53.332031-53.332031 23.875-53.332031 53.332031-53.332031 53.332031 23.875 53.332031 53.332031zm0 0"/><path d="m448 256c0 29.457031-23.878906 53.332031-53.332031 53.332031-29.457031 0-53.335938-23.875-53.335938-53.332031s23.878907-53.332031 53.335938-53.332031c29.453125 0 53.332031 23.875 53.332031 53.332031zm0 0"/></g></svg>