<svg height="512pt" viewBox="0 0 512 512" width="512pt" xmlns="http://www.w3.org/2000/svg"><path d="m256 0c-141.164062 0-256 114.835938-256 256s114.835938 256 256 256 256-114.835938 256-256-114.835938-256-256-256zm0 0" fill="#607d8b"/><g fill="#fafafa"><path d="m341.332031 362.667969h-170.664062c-11.777344 0-21.335938-9.558594-21.335938-21.335938 0-11.773437 9.558594-21.332031 21.335938-21.332031h170.664062c11.777344 0 21.335938 9.558594 21.335938 21.332031 0 11.777344-9.558594 21.335938-21.335938 21.335938zm0 0"/><path d="m341.332031 277.332031h-170.664062c-11.777344 0-21.335938-9.554687-21.335938-21.332031s9.558594-21.332031 21.335938-21.332031h170.664062c11.777344 0 21.335938 9.554687 21.335938 21.332031s-9.558594 21.332031-21.335938 21.332031zm0 0"/><path d="m341.332031 192h-170.664062c-11.777344 0-21.335938-9.558594-21.335938-21.332031 0-11.777344 9.558594-21.335938 21.335938-21.335938h170.664062c11.777344 0 21.335938 9.558594 21.335938 21.335938 0 11.773437-9.558594 21.332031-21.335938 21.332031zm0 0"/></g></svg>