<svg height="512pt" viewBox="0 0 512 512" width="512pt" xmlns="http://www.w3.org/2000/svg"><path d="m512 256c0 141.386719-114.613281 256-256 256s-256-114.613281-256-256 114.613281-256 256-256 256 114.613281 256 256zm0 0" fill="#2196f3"/><path d="m361.046875 221.503906c-3.308594 7.957032-11.09375 13.164063-19.714844 13.164063h-64v149.332031c0 11.777344-9.554687 21.332031-21.332031 21.332031s-21.332031-9.554687-21.332031-21.332031v-149.332031h-64c-8.621094 0-16.40625-5.207031-19.714844-13.164063-3.304687-7.980468-1.46875-17.152344 4.632813-23.253906l85.332031-85.332031c8.339843-8.34375 21.824219-8.34375 30.164062 0l85.332031 85.332031c6.101563 6.101562 7.9375 15.273438 4.632813 23.253906zm0 0" fill="#fafafa"/></svg>