<svg height="512pt" viewBox="0 0 512 512" width="512pt" xmlns="http://www.w3.org/2000/svg"><path d="m224 250.667969c0-38.230469 31.105469-69.335938 69.332031-69.335938h69.335938v-58.664062c0-32.363281-26.304688-58.667969-58.667969-58.667969h-245.332031c-32.363281 0-58.667969 26.304688-58.667969 58.667969v266.664062c0 32.363281 26.304688 58.667969 58.667969 58.667969h165.332031zm0 0" fill="#2196f3"/><path d="m474.667969 213.332031h-181.335938c-20.605469 0-37.332031 16.726563-37.332031 37.335938v224c0 20.605469 16.726562 37.332031 37.332031 37.332031h181.335938c20.605469 0 37.332031-16.726562 37.332031-37.332031v-224c0-20.609375-16.726562-37.335938-37.332031-37.335938zm0 0" fill="#eceff1"/><path d="m429.332031 405.332031h-96c-8.832031 0-16-7.167969-16-16s7.167969-16 16-16h96c8.832031 0 16 7.167969 16 16s-7.167969 16-16 16zm0 0" fill="#90a4ae"/><path d="m429.332031 341.332031h-96c-8.832031 0-16-7.167969-16-16s7.167969-16 16-16h96c8.832031 0 16 7.167969 16 16s-7.167969 16-16 16zm0 0" fill="#90a4ae"/><path d="m261.332031 42.667969h-23.550781c-6.976562-24.597657-29.652344-42.667969-56.449219-42.667969-26.792969 0-49.46875 18.070312-56.445312 42.667969h-23.554688c-8.832031 0-16 7.167969-16 16v42.664062c0 20.589844 16.746094 37.335938 37.335938 37.335938h117.332031c20.585938 0 37.332031-16.746094 37.332031-37.335938v-42.664062c0-8.832031-7.167969-16-16-16zm0 0" fill="#1976d2"/></svg>