<svg height="512pt" viewBox="0 0 512 512" width="512pt" xmlns="http://www.w3.org/2000/svg"><path d="m256 0c-141.164062 0-256 114.835938-256 256s114.835938 256 256 256 256-114.835938 256-256-114.835938-256-256-256zm0 0" fill="#607d8b"/><g fill="#eceff1"><path d="m146.582031 343.808594-36.949219 21.332031c-3.371093 1.941406-7.019531 2.859375-10.644531 2.859375-7.382812 0-14.550781-3.820312-18.496093-10.667969-5.890626-10.21875-2.390626-23.253906 7.804687-29.140625l36.949219-21.332031c10.15625-5.890625 23.234375-2.390625 29.144531 7.808594 5.90625 10.21875 2.410156 23.253906-7.808594 29.140625zm0 0"/><path d="m154.390625 197.332031c-3.96875 6.847657-11.117187 10.667969-18.496094 10.667969-3.628906 0-7.296875-.917969-10.648437-2.859375l-36.949219-21.332031c-10.21875-5.886719-13.714844-18.921875-7.828125-29.140625s18.964844-13.71875 29.140625-7.808594l36.949219 21.332031c10.242187 5.886719 13.738281 18.921875 7.832031 29.140625zm0 0"/><path d="m277.332031 437.332031c0 11.777344-9.535156 21.335938-21.332031 21.335938s-21.332031-9.558594-21.332031-21.335938v-42.664062c0-11.777344 9.535156-21.335938 21.332031-21.335938s21.332031 9.558594 21.332031 21.335938zm0 0"/><path d="m277.332031 117.332031c0 11.777344-9.535156 21.335938-21.332031 21.335938s-21.332031-9.558594-21.332031-21.335938v-42.664062c0-11.777344 9.535156-21.335938 21.332031-21.335938s21.332031 9.558594 21.332031 21.335938zm0 0"/><path d="m431.53125 357.332031c-3.96875 6.847657-11.117188 10.667969-18.496094 10.667969-3.628906 0-7.296875-.917969-10.644531-2.859375l-36.949219-21.332031c-10.21875-5.886719-13.71875-18.945313-7.808594-29.140625 5.910157-10.199219 18.941407-13.699219 29.140626-7.808594l36.949218 21.332031c10.199219 5.886719 13.695313 18.921875 7.808594 29.140625zm0 0"/><path d="m423.703125 183.808594-36.949219 21.332031c-3.351562 1.941406-7.019531 2.859375-10.648437 2.859375-7.378907 0-14.546875-3.820312-18.496094-10.667969-5.886719-10.21875-2.386719-23.253906 7.808594-29.140625l36.949219-21.332031c10.175781-5.890625 23.234374-2.390625 29.140624 7.808594 5.910157 10.21875 2.414063 23.253906-7.804687 29.140625zm0 0"/></g></svg>