<svg height="512pt" viewBox="0 0 512 512" width="512pt" xmlns="http://www.w3.org/2000/svg"><path d="m416 512c-52.929688 0-96-43.070312-96-96v-53.332031h-128v53.332031c0 52.929688-43.070312 96-96 96s-96-43.070312-96-96 43.070312-96 96-96h53.332031v-128h-53.332031c-52.929688 0-96-43.070312-96-96s43.070312-96 96-96 96 43.070312 96 96v53.332031h128v-53.332031c0-52.929688 43.070312-96 96-96s96 43.070312 96 96-43.070312 96-96 96h-53.332031v128h53.332031c52.929688 0 96 43.070312 96 96s-43.070312 96-96 96zm-53.332031-149.332031v53.332031c0 29.398438 23.914062 53.332031 53.332031 53.332031s53.332031-23.933593 53.332031-53.332031-23.914062-53.332031-53.332031-53.332031zm-266.667969 0c-29.417969 0-53.332031 23.933593-53.332031 53.332031s23.914062 53.332031 53.332031 53.332031 53.332031-23.933593 53.332031-53.332031v-53.332031zm96-42.667969h128v-128h-128zm170.667969-170.667969h53.332031c29.417969 0 53.332031-23.933593 53.332031-53.332031s-23.914062-53.332031-53.332031-53.332031-53.332031 23.933593-53.332031 53.332031zm-266.667969-106.664062c-29.417969 0-53.332031 23.933593-53.332031 53.332031s23.914062 53.332031 53.332031 53.332031h53.332031v-53.332031c0-29.398438-23.914062-53.332031-53.332031-53.332031zm0 0" fill="#607d8b"/></svg>