<svg height="512pt" viewBox="-21 0 512 512" width="512pt" xmlns="http://www.w3.org/2000/svg"><path d="m410.667969 0h-245.335938c-32.402343 0-58.664062 26.261719-58.664062 58.667969v288c0 32.402343 26.261719 58.664062 58.664062 58.664062h245.335938c32.402343 0 58.664062-26.261719 58.664062-58.664062v-288c0-32.40625-26.261719-58.667969-58.664062-58.667969zm0 0" fill="#eceff1"/><g fill="#90a4ae"><path d="m368 288h-160c-8.832031 0-16-7.167969-16-16s7.167969-16 16-16h160c8.832031 0 16 7.167969 16 16s-7.167969 16-16 16zm0 0"/><path d="m368 224h-160c-8.832031 0-16-7.167969-16-16s7.167969-16 16-16h160c8.832031 0 16 7.167969 16 16s-7.167969 16-16 16zm0 0"/><path d="m368 160h-160c-8.832031 0-16-7.167969-16-16s7.167969-16 16-16h160c8.832031 0 16 7.167969 16 16s-7.167969 16-16 16zm0 0"/></g><path d="m165.332031 437.332031c-50.003906 0-90.664062-40.679687-90.664062-90.664062v-288c0-1.835938.425781-3.542969.53125-5.335938h-16.53125c-32.363281 0-58.667969 26.304688-58.667969 58.667969v341.332031c0 32.363281 26.304688 58.667969 58.667969 58.667969h256c32.363281 0 58.664062-26.304688 58.664062-58.667969v-16zm0 0" fill="#2196f3"/></svg>