<svg height="512pt" viewBox="0 -21 512.00533 512" width="512pt" xmlns="http://www.w3.org/2000/svg"><path d="m306.582031 317.25c-12.074219 12.097656-28.160156 18.753906-45.25 18.753906-17.085937 0-33.171875-6.65625-45.246093-18.753906l-90.667969-90.664062c-12.09375-12.078126-18.75-28.160157-18.75-45.25 0-17.089844 6.65625-33.171876 18.75-45.246094 12.074219-12.097656 28.160156-18.753906 45.25-18.753906 17.085937 0 33.171875 6.65625 45.246093 18.753906l45.417969 45.394531 125.378907-125.375c-40.960938-34.921875-93.996094-56.10546875-152.042969-56.10546875-129.601563 0-234.667969 105.06640575-234.667969 234.66406275 0 129.601562 105.066406 234.667969 234.667969 234.667969 129.597656 0 234.664062-105.066407 234.664062-234.667969 0-24.253907-3.6875-47.636719-10.515625-69.652344zm0 0" fill="#4caf50"/><path d="m261.332031 293.335938c-5.460937 0-10.921875-2.089844-15.082031-6.25l-90.664062-90.667969c-8.34375-8.339844-8.34375-21.824219 0-30.164063 8.339843-8.34375 21.820312-8.34375 30.164062 0l75.582031 75.582032 214.253907-214.25c8.339843-8.339844 21.820312-8.339844 30.164062 0 8.339844 8.34375 8.339844 21.824218 0 30.167968l-229.335938 229.332032c-4.15625 4.160156-9.621093 6.25-15.082031 6.25zm0 0" fill="#2196f3"/></svg>