<svg height="512pt" viewBox="-21 0 512 512.00741" width="512pt" xmlns="http://www.w3.org/2000/svg"><path d="m.00390625 426.675781c0 47.058594 38.27343775 85.332031 85.33203175 85.332031 31.445312 0 58.644531-17.28125 73.453124-42.644531.296876-.429687.789063-.597656 1.042969-1.046875l63.59375-113.621094c9.707031-1.578124 39.722657-8.257812 69.484375-33.046874 30.847656-25.703126 75.5-106.21875 108.097656-164.96875l10.578126-19.03125c29.355468-52.476563 26.96875-103.636719-6.226563-133.523438-3.628906-3.242188-8.597656-4.714844-13.3125-3.882812-4.820313.789062-8.980469 3.710937-11.351563 7.980468l-216.339843 386.515625c-12.691407-31.253906-43.265625-53.398437-79.019531-53.398437-47.058594 0-85.33203175 38.273437-85.33203175 85.335937zm42.66796875 0c0-23.53125 19.132813-42.667969 42.664063-42.667969s42.667968 19.136719 42.667968 42.667969c0 23.527344-19.136718 42.664063-42.667968 42.664063s-42.664063-19.136719-42.664063-42.664063zm0 0" fill="#607d8b"/><path d="m384.003906 341.339844c-35.753906 0-66.324218 22.144531-79.019531 53.398437l-216.363281-386.539062c-2.367188-4.246094-6.527344-7.1875-11.347656-7.976563-4.714844-.8125-9.6875.636719-13.3125 3.878906-33.195313 29.890626-35.582032 81.046876-6.230469 133.527344l10.582031 19.027344c32.597656 58.773438 77.25 139.265625 108.097656 164.972656 29.757813 24.789063 59.773438 31.464844 69.480469 33.046875l63.597656 113.621094c.253907.445313.746094.636719 1.042969 1.042969 14.828125 25.386718 42.027344 42.667968 73.472656 42.667968 47.0625 0 85.332032-38.273437 85.332032-85.332031 0-47.0625-38.269532-85.335937-85.332032-85.335937zm0 128c-23.53125 0-42.667968-19.136719-42.667968-42.664063 0-23.53125 19.136718-42.667969 42.667968-42.667969s42.667969 19.136719 42.667969 42.667969c0 23.527344-19.136719 42.664063-42.667969 42.664063zm0 0" fill="#90a4ae"/></svg>