<svg height="512pt" viewBox="0 0 512 512" width="512pt" xmlns="http://www.w3.org/2000/svg"><path d="m453.332031 0h-394.664062c-32.363281 0-58.667969 26.304688-58.667969 58.667969v394.664062c0 32.363281 26.304688 58.667969 58.667969 58.667969h394.664062c32.363281 0 58.667969-26.304688 58.667969-58.667969v-394.664062c0-32.363281-26.304688-58.667969-58.667969-58.667969zm0 0" fill="#2196f3"/><g fill="#fafafa"><path d="m234.667969 410.667969c0 20.585937-16.746094 37.332031-37.335938 37.332031h-96c-20.585937 0-37.332031-16.746094-37.332031-37.332031v-138.667969c0-20.585938 16.746094-37.332031 37.332031-37.332031h96c20.589844 0 37.335938 16.746093 37.335938 37.332031zm0 0"/><path d="m234.667969 154.667969c0 20.585937-16.746094 37.332031-37.335938 37.332031h-96c-20.585937 0-37.332031-16.746094-37.332031-37.332031v-53.335938c0-20.585937 16.746094-37.332031 37.332031-37.332031h96c20.589844 0 37.335938 16.746094 37.335938 37.332031zm0 0"/><path d="m448 410.667969c0 20.585937-16.746094 37.332031-37.332031 37.332031h-96c-20.589844 0-37.335938-16.746094-37.335938-37.332031v-53.335938c0-20.585937 16.746094-37.332031 37.335938-37.332031h96c20.585937 0 37.332031 16.746094 37.332031 37.332031zm0 0"/><path d="m448 240c0 20.585938-16.746094 37.332031-37.332031 37.332031h-96c-20.589844 0-37.335938-16.746093-37.335938-37.332031v-138.667969c0-20.585937 16.746094-37.332031 37.335938-37.332031h96c20.585937 0 37.332031 16.746094 37.332031 37.332031zm0 0"/></g></svg>