<svg height="497pt" viewBox="0 -35 497.53867 497" width="497pt" xmlns="http://www.w3.org/2000/svg"><path d="m488.960938 183.117188-94.058594-154.667969c-10.5625-17.386719-29.78125-28.179688-50.132813-28.179688h-192c-20.355469 0-39.554687 10.792969-50.136719 28.179688l-94.058593 154.667969c-11.433594 18.792968-11.433594 42.15625 0 60.949218l94.058593 154.667969c10.5625 17.386719 29.78125 28.179687 50.136719 28.179687h192.019531c20.351563 0 39.550782-10.792968 50.132813-28.179687l94.058594-154.667969c11.414062-18.792968 11.414062-42.15625-.019531-60.949218zm0 0" fill="#607d8b"/><path d="m342.828125 277.476562c8.339844 8.339844 8.339844 21.820313 0 30.164063-4.160156 4.160156-9.621094 6.25-15.085937 6.25-5.460938 0-10.921876-2.089844-15.082032-6.25l-64.105468-64.105469-64.105469 64.105469c-4.160157 4.160156-9.621094 6.25-15.082031 6.25-5.464844 0-10.925782-2.089844-15.085938-6.25-8.339844-8.34375-8.339844-21.824219 0-30.164063l64.109375-64.109374-64.109375-64.105469c-8.339844-8.339844-8.339844-21.824219 0-30.164063 8.34375-8.34375 21.824219-8.34375 30.167969 0l64.105469 64.105469 64.105468-64.105469c8.34375-8.34375 21.824219-8.34375 30.167969 0 8.339844 8.339844 8.339844 21.824219 0 30.164063l-64.109375 64.105469zm0 0" fill="#fafafa"/></svg>