<svg height="511pt" viewBox="0 0 511.98452 511" width="511pt" xmlns="http://www.w3.org/2000/svg"><path d="m507.3125 5.15625c-3.308594-3.304688-7.851562-4.925781-12.609375-4.628906-105.769531 8.617187-197.460937 40.320312-272.554687 94.25-4.863282 3.5-7.359376 9.410156-6.503907 15.316406 4.671875 31.808594-9.046875 69.378906-22.765625 97.324219-5.609375-15.871094-13.84375-30.441407-21.714844-42.199219-2.773437-4.136719-7.296874-6.738281-12.246093-7.082031-4.972657-.277344-9.792969 1.707031-13.078125 5.417969-67.882813 77.292968-88.320313 158.53125-64.320313 255.683593 1.410157 5.78125 5.910157 10.257813 11.667969 11.6875 25.816406 6.402344 50.582031 9.621094 74.496094 9.621094 73.6875 0 139.222656-30.675781 202.113281-93.738281 89.171875-89.171875 130.347656-184.511719 142.125-329.066406.425781-4.671876-1.28125-9.277344-4.609375-12.585938zm0 0" fill="#ffc107"/><path d="m21.339844 512.464844c-5.460938 0-10.925782-2.09375-15.082032-6.253906-8.34375-8.339844-8.34375-21.824219 0-30.164063l234.664063-234.667969c8.34375-8.339844 21.824219-8.339844 30.167969 0 8.339844 8.34375 8.339844 21.824219 0 30.167969l-234.667969 234.664063c-4.160156 4.160156-9.621094 6.253906-15.082031 6.253906zm0 0" fill="#607d8b"/></svg>