<svg height="512pt" viewBox="0 0 512 512" width="512pt" xmlns="http://www.w3.org/2000/svg"><path d="m474.667969 0h-437.335938c-20.585937 0-37.332031 16.746094-37.332031 37.332031v49.386719c0 10.410156 4.394531 20.4375 12.097656 27.542969l171.242188 156.863281c5.523437 5.011719 8.660156 12.183594 8.660156 19.648438v205.226562c0 5.886719 3.242188 11.328125 8.449219 14.101562 2.367187 1.28125 4.96875 1.898438 7.550781 1.898438 3.113281 0 6.207031-.894531 8.875-2.6875l86.507812-57.664062c10.410157-6.933594 16.617188-18.558594 16.617188-31.0625v-129.8125c0-7.464844 3.136719-14.636719 8.660156-19.667969l171.242188-156.886719c7.703125-7.0625 12.097656-17.089844 12.097656-27.5v-49.386719c0-20.585937-16.746094-37.332031-37.332031-37.332031zm0 0" fill="#4caf50"/></svg>