<svg height="512pt" viewBox="-64 0 512 512" width="512pt" xmlns="http://www.w3.org/2000/svg"><path d="m346.667969 0h-330.667969c-8.832031 0-16 7.167969-16 16v245.332031c0 8.832031 7.167969 16 16 16h330.667969c20.585937 0 37.332031-16.746093 37.332031-37.332031v-202.667969c0-20.585937-16.746094-37.332031-37.332031-37.332031zm0 0" fill="#4caf50"/><path d="m21.332031 512c-11.796875 0-21.332031-9.558594-21.332031-21.332031v-469.335938c0-11.773437 9.535156-21.332031 21.332031-21.332031s21.335938 9.558594 21.335938 21.332031v469.335938c0 11.773437-9.539063 21.332031-21.335938 21.332031zm0 0" fill="#607d8b"/></svg>