<svg height="512pt" viewBox="0 0 512 512" width="512pt" xmlns="http://www.w3.org/2000/svg"><path d="m512 107.050781c0-11.308593-4.5-22.164062-12.5-30.164062l-64.386719-64.386719c-8-8-18.835937-12.5-30.164062-12.5h-346.28125c-32.40625 0-58.667969 26.261719-58.667969 58.667969v394.664062c0 32.40625 26.261719 58.667969 58.667969 58.667969h394.664062c32.40625 0 58.667969-26.261719 58.667969-58.667969zm0 0" fill="#607d8b"/><g fill="#eceff1"><path d="m85.332031 133.332031v-53.332031c0-8.832031 7.167969-16 16-16h224c8.832031 0 16 7.167969 16 16v53.332031c0 8.832031-7.167969 16-16 16h-224c-8.832031 0-16-7.167969-16-16zm0 0"/><path d="m352 330.667969c0 53.019531-42.980469 96-96 96s-96-42.980469-96-96 42.980469-96 96-96 96 42.980469 96 96zm0 0"/></g></svg>