<svg height="512pt" viewBox="0 0 512 512" width="512pt" xmlns="http://www.w3.org/2000/svg"><path d="m496 58.667969h-480c-8.832031 0-16 7.167969-16 16v70.78125c0 17.472656 7.679688 33.898437 21.121094 45.078125l161.277344 134.316406c6.101562 5.078125 9.601562 12.542969 9.601562 20.480469v150.675781c0 5.886719 3.242188 11.328125 8.449219 14.101562 2.367187 1.28125 4.96875 1.898438 7.550781 1.898438 3.113281 0 6.207031-.894531 8.875-2.6875l86.507812-57.664062c10.410157-6.933594 16.617188-18.558594 16.617188-31.0625v-75.261719c0-7.9375 3.5-15.402344 9.578125-20.480469l161.324219-134.316406c13.417968-11.179688 21.097656-27.605469 21.097656-45.078125v-70.78125c0-8.832031-7.167969-16-16-16zm0 0" fill="#2196f3"/><path d="m256 0c-95.082031 0-256 15.722656-256 74.667969 0 58.941406 160.917969 74.664062 256 74.664062s256-15.722656 256-74.664062c0-58.945313-160.917969-74.667969-256-74.667969zm0 0" fill="#1976d2"/></svg>