<svg height="512pt" viewBox="0 0 512 512" width="512pt" xmlns="http://www.w3.org/2000/svg"><path d="m497.535156 340.054688c9.21875-26.371094 14.464844-54.59375 14.464844-84.054688 0-141.164062-114.835938-256-256-256s-256 114.835938-256 256c0 29.460938 5.246094 57.683594 14.464844 84.054688.320312 1.171874.660156 2.28125 1.214844 3.347656 35.839843 98.175781 129.878906 168.597656 240.320312 168.597656s204.480469-70.421875 240.320312-168.617188c.554688-1.046874.894532-2.15625 1.214844-3.328124zm0 0" fill="#607d8b"/><path d="m256 42.667969c117.632812 0 213.332031 95.699219 213.332031 213.332031 0 22.292969-3.453125 43.777344-9.832031 64h-407c-6.355469-20.222656-9.832031-41.707031-9.832031-64 0-117.632812 95.699219-213.332031 213.332031-213.332031zm0 0" fill="#fff"/><path d="m334.207031 320c-6.058593-29.332031-28.222656-52.757812-56.875-60.734375v-131.265625c0-11.777344-9.535156-21.332031-21.332031-21.332031s-21.332031 9.554687-21.332031 21.332031v131.265625c-28.652344 7.976563-50.816407 31.402344-56.875 60.734375zm0 0" fill="#f44336"/></svg>