<svg height="512pt" viewBox="-61 0 512 512" width="512pt" xmlns="http://www.w3.org/2000/svg"><path d="m378.878906 229.546875-115.5625-86.828125c-.722656-.574219-1.984375-1.875-1.984375-4.050781s1.261719-3.480469 1.707031-3.863281l115.863282-87.039063c6.632812-4.992187 10.429687-12.695313 10.429687-21.121094 0-14.675781-11.964843-26.644531-26.664062-26.644531h-346.667969c-8.832031 0-16 7.167969-16 16v245.332031c0 8.832031 7.167969 16 16 16h346.667969c14.699219 0 26.664062-11.964843 26.664062-26.664062 0-8.429688-3.816406-16.109375-10.453125-21.121094zm0 0" fill="#ffc107"/><path d="m21.332031 512c-11.796875 0-21.332031-9.558594-21.332031-21.332031v-469.335938c0-11.773437 9.535156-21.332031 21.332031-21.332031s21.335938 9.558594 21.335938 21.332031v469.335938c0 11.773437-9.539063 21.332031-21.335938 21.332031zm0 0" fill="#607d8b"/></svg>