<svg height="512pt" viewBox="0 0 512 512" width="512pt" xmlns="http://www.w3.org/2000/svg"><path d="m512 256h-89.601562c-16.851563 0-32.210938 9.8125-39.039063 25.171875l-54.613281 122.242187c-3.199219 7.464844-10.667969 12.585938-19.414063 12.585938-9.597656 0-17.707031-6.398438-20.480469-15.148438l-87.039062-289.703124c-2.773438-8.75-10.878906-15.148438-20.480469-15.148438-9.597656 0-17.707031 6.398438-20.480469 15.148438l-34.34375 114.558593c-5.546874 17.917969-21.972656 30.292969-40.960937 30.292969h-85.546875c0-141.226562 114.773438-256 256-256s256 114.773438 256 256zm0 0" fill="#eceff1"/><path d="m512 256c0 141.226562-114.773438 256-256 256s-256-114.773438-256-256h85.546875c18.988281 0 35.414063-12.375 40.960937-30.292969l34.34375-114.558593c2.773438-8.75 10.882813-15.148438 20.480469-15.148438 9.601563 0 17.707031 6.398438 20.480469 15.148438l87.039062 289.703124c2.773438 8.75 10.882813 15.148438 20.480469 15.148438 8.746094 0 16.214844-5.121094 19.414063-12.585938l54.613281-122.242187c6.828125-15.359375 22.1875-25.171875 39.039063-25.171875zm0 0" fill="#2196f3"/></svg>