<svg height="448.00533pt" viewBox="0 0 448.00533 448.00533" width="448.00533pt" xmlns="http://www.w3.org/2000/svg"><g fill="#4caf50"><path d="m320 256.003906h-128v-128zm0 0"/><path d="m320 277.339844h-128c-11.777344 0-21.332031-9.558594-21.332031-21.335938v-128c0-8.617187 5.203125-16.402344 13.160156-19.710937 8-3.304688 17.152344-1.492188 23.253906 4.628906l128 128c6.101563 6.101563 7.9375 15.277344 4.628907 23.253906-3.304688 7.957031-11.09375 13.164063-19.710938 13.164063zm-106.667969-42.667969h55.167969l-55.167969-55.167969zm0 0"/><path d="m192 277.339844c-5.460938 0-10.921875-2.09375-15.082031-6.25-8.34375-8.34375-8.34375-21.824219 0-30.167969l234.667969-234.664063c8.339843-8.34375 21.820312-8.34375 30.164062 0 8.339844 8.339844 8.339844 21.820313 0 30.164063l-234.667969 234.667969c-4.160156 4.15625-9.621093 6.25-15.082031 6.25zm0 0"/></g><path d="m362.667969 448.003906h-298.667969c-35.285156 0-64-28.714844-64-64v-298.664062c0-35.285156 28.714844-64 64-64h170.667969c11.773437 0 21.332031 9.554687 21.332031 21.332031s-9.558594 21.332031-21.332031 21.332031h-170.667969c-11.753906 0-21.332031 9.582032-21.332031 21.335938v298.664062c0 11.757813 9.578125 21.335938 21.332031 21.335938h298.667969c11.753906 0 21.332031-9.578125 21.332031-21.335938v-170.664062c0-11.777344 9.558594-21.335938 21.332031-21.335938 11.777344 0 21.335938 9.558594 21.335938 21.335938v170.664062c0 35.285156-28.714844 64-64 64zm0 0" fill="#607d8b"/></svg>