<svg height="447pt" viewBox="0 0 447 447.78667" width="447pt" xmlns="http://www.w3.org/2000/svg"><path d="m382.675781 382.28125c-87.339843 87.339844-229.441406 87.339844-316.777343 0-87.339844-87.335938-87.339844-229.4375 0-316.777344 87.335937-87.339844 229.4375-87.339844 316.777343 0 87.339844 87.339844 87.316407 229.441406 0 316.777344zm-241.363281-241.363281c-45.742188 45.738281-45.742188 120.191406 0 165.929687 45.738281 45.738282 120.191406 45.738282 165.929688 0 45.738281-45.738281 45.738281-120.191406 0-165.929687-45.738282-45.738281-120.191407-45.761719-165.929688 0zm0 0" fill="#eceff1"/><g fill="#f44336"><path d="m92.285156 265.375-67.882812 67.882812c-14.546875 14.550782-14.546875 38.25 0 52.800782l37.71875 37.71875c14.550781 14.546875 38.25 14.546875 52.800781 0l67.882813-67.882813c14.546874-14.550781 14.546874-38.25 0-52.800781l-37.71875-37.71875c-14.570313-14.570312-38.25-14.570312-52.800782 0zm0 0"/><path d="m333.652344 24.011719-67.882813 67.882812c-14.550781 14.546875-14.550781 38.25 0 52.796875l37.71875 37.71875c14.546875 14.550782 38.25 14.550782 52.796875 0l67.882813-67.882812c14.550781-14.546875 14.550781-38.25 0-52.800782l-37.714844-37.714843c-14.570313-14.550781-38.25-14.550781-52.800781 0zm0 0"/><path d="m62.121094 24.011719-37.71875 37.714843c-14.546875 14.550782-14.546875 38.253907 0 52.800782l67.882812 67.882812c14.550782 14.550782 38.253906 14.550782 52.800782 0l37.71875-37.71875c14.546874-14.546875 14.546874-38.25 0-52.796875l-67.90625-67.882812c-14.546876-14.550781-38.226563-14.550781-52.777344 0zm0 0"/><path d="m303.464844 265.375-37.71875 37.71875c-14.546875 14.550781-14.546875 38.25 0 52.800781l67.882812 67.882813c14.550782 14.546875 38.253906 14.546875 52.800782 0l37.71875-37.71875c14.550781-14.550782 14.550781-38.25 0-52.800782l-67.882813-67.882812c-14.550781-14.570312-38.230469-14.570312-52.800781 0zm0 0"/></g></svg>