<svg height="512pt" viewBox="0 0 512 512" width="512pt" xmlns="http://www.w3.org/2000/svg"><path d="m448 0h-384c-35.285156 0-64 28.714844-64 64v384c0 35.285156 28.714844 64 64 64h384c35.285156 0 64-28.714844 64-64v-384c0-35.285156-28.714844-64-64-64zm21.332031 448c0 11.777344-9.554687 21.332031-21.332031 21.332031h-256v-117.332031c0-17.664062-14.335938-32-32-32h-117.332031v-256c0-11.777344 9.554687-21.332031 21.332031-21.332031h384c11.777344 0 21.332031 9.554687 21.332031 21.332031zm0 0" fill="#607d8b"/><path d="m405.332031 85.332031h-128c-8.617187 0-16.425781 5.207031-19.710937 13.164063-3.304688 7.980468-1.472656 17.152344 4.628906 23.253906l48.917969 48.917969-91.582031 91.582031c-8.34375 8.34375-8.34375 21.824219 0 30.164062 4.15625 4.160157 9.621093 6.253907 15.082031 6.253907 5.460937 0 10.921875-2.09375 15.082031-6.253907l91.582031-91.582031 48.917969 48.917969c4.074219 4.074219 9.535156 6.25 15.082031 6.25 2.753907 0 5.527344-.535156 8.171875-1.621094 7.980469-3.308594 13.164063-11.09375 13.164063-19.710937v-128c0-11.777344-9.539063-21.335938-21.335938-21.335938zm0 0" fill="#4caf50"/></svg>