<svg height="384pt" viewBox="0 -21 384 384" width="384pt" xmlns="http://www.w3.org/2000/svg"><g fill="#607d8b"><path d="m352 0h-320c-17.664062 0-32 14.335938-32 32v21.332031c0 17.664063 14.335938 32 32 32h320c17.664062 0 32-14.335937 32-32v-21.332031c0-17.664062-14.335938-32-32-32zm0 0"/><path d="m352 128h-320c-17.664062 0-32 14.335938-32 32v21.332031c0 17.664063 14.335938 32 32 32h320c17.664062 0 32-14.335937 32-32v-21.332031c0-17.664062-14.335938-32-32-32zm0 0"/><path d="m352 256h-320c-17.664062 0-32 14.335938-32 32v21.332031c0 17.664063 14.335938 32 32 32h320c17.664062 0 32-14.335937 32-32v-21.332031c0-17.664062-14.335938-32-32-32zm0 0"/></g></svg>