<svg height="469.33867pt" viewBox="0 0 469.33867 469.33867" width="469.33867pt" xmlns="http://www.w3.org/2000/svg"><path d="m362.667969 469.339844h-298.667969c-35.285156 0-64-28.714844-64-64v-298.667969c0-35.285156 28.714844-64 64-64h170.667969c11.773437 0 21.332031 9.558594 21.332031 21.332031 0 11.777344-9.558594 21.335938-21.332031 21.335938h-170.667969c-11.753906 0-21.332031 9.578125-21.332031 21.332031v298.667969c0 11.753906 9.578125 21.332031 21.332031 21.332031h298.667969c11.753906 0 21.332031-9.578125 21.332031-21.332031v-170.667969c0-11.777344 9.558594-21.332031 21.332031-21.332031 11.777344 0 21.335938 9.554687 21.335938 21.332031v170.667969c0 35.285156-28.714844 64-64 64zm0 0" fill="#607d8b"/><g fill="#4caf50"><path d="m320 21.339844h128v128zm0 0"/><path d="m448 170.671875c-5.546875 0-11.007812-2.175781-15.082031-6.25l-128-128c-6.101563-6.101563-7.9375-15.273437-4.628907-23.253906 3.304688-7.957031 11.09375-13.16406275 19.710938-13.16406275h128c11.777344 0 21.332031 9.55859375 21.332031 21.33593775v128c0 8.617187-5.203125 16.402344-13.160156 19.710937-2.648437 1.085938-5.417969 1.621094-8.171875 1.621094zm-76.5-128 55.167969 55.167969v-55.167969zm0 0"/><path d="m213.332031 277.339844c-5.460937 0-10.921875-2.09375-15.082031-6.25-8.339844-8.34375-8.339844-21.824219 0-30.167969l234.667969-234.664063c8.339843-8.34375 21.824219-8.34375 30.164062 0 8.34375 8.339844 8.34375 21.820313 0 30.164063l-234.667969 234.667969c-4.15625 4.15625-9.621093 6.25-15.082031 6.25zm0 0"/></g></svg>