<svg height="503pt" viewBox="0 0 503.1124 503" width="503pt" xmlns="http://www.w3.org/2000/svg"><path d="m433.9375 182.507812-286.078125 285.867188h-.214844l-112.851562-112.851562v-.214844l286.078125-285.867188zm0 0" fill="#90a4ae"/><g fill="#607d8b"><path d="m485.992188 130.242188-52.054688 52.265624-113.066406-113.066406 52.054687-52.265625c22.828125-22.828125 59.945313-22.828125 82.988281 0l30.078126 30.082031c22.828124 23.039063 22.828124 60.160157 0 82.984376zm0 0"/><path d="m147.644531 468.375c-2.132812 2.132812-4.480469 3.628906-7.253906 4.269531l-120.53125 30.078125c-1.28125.214844-2.558594.425782-3.839844.425782-4.265625 0-8.320312-1.707032-11.308593-4.691407-4.050782-4.054687-5.546876-9.8125-4.265626-15.148437l30.082032-120.53125c.636718-2.773438 2.132812-5.121094 4.265625-7.253906zm0 0"/></g></svg>