<svg height="490pt" viewBox="0 -28 490.66024 490" width="490pt" xmlns="http://www.w3.org/2000/svg"><path d="m434.125 78.011719c0 12.796875-4.90625 24.957031-14.078125 33.917969l-64.425781 64.640624-98.132813-98.132812 64.636719-64.425781c18.136719-18.136719 49.707031-18.347657 67.84375 0l30.078125 30.078125c9.171875 8.960937 14.078125 21.121094 14.078125 33.921875zm0 0" fill="#607d8b"/><path d="m355.621094 176.570312-229.546875 229.546876c-2.132813 2.132812-4.90625 3.625-7.679688 4.265624l-98.773437 23.253907c-1.066406.214843-2.347656.425781-3.628906.425781-4.265626 0-8.320313-1.707031-11.304688-4.691406-3.839844-3.839844-5.546875-9.601563-4.265625-14.933594l23.25-98.773438c.640625-2.773437 2.136719-5.546874 4.269531-7.679687l229.546875-229.546875zm0 0" fill="#90a4ae"/><path d="m469.328125 434.0625h-277.335937c-11.773438 0-21.332032-9.554688-21.332032-21.332031 0-11.777344 9.558594-21.332031 21.332032-21.332031h277.335937c11.773437 0 21.332031 9.554687 21.332031 21.332031 0 11.777343-9.558594 21.332031-21.332031 21.332031zm0 0" fill="#607d8b"/></svg>