<svg height="511pt" viewBox="0 1 511 511.99733" width="511pt" xmlns="http://www.w3.org/2000/svg"><path d="m21.839844 511.996094c-5.460938 0-10.921875-2.089844-15.105469-6.25-8.320313-8.339844-8.320313-21.84375.023437-30.164063l172.160157-171.949219c8.339843-8.316406 21.824219-8.316406 30.164062.023438 8.320313 8.339844 8.320313 21.84375-.019531 30.164062l-172.160156 171.949219c-4.160156 4.136719-9.601563 6.226563-15.0625 6.226563zm0 0" fill="#607d8b"/><path d="m501.5625 161.769531-150.847656-150.847656c-14.570313-14.574219-38.230469-14.550781-52.800782 0l-20.84375 20.839844c-14.71875 14.699219-19.773437 36.117187-13.203124 55.871093 2.707031 8.171876.617187 17.027344-5.460938 23.128907l-61.140625 61.160156c-5.015625 5.035156-11.714844 7.808594-18.839844 7.808594h-25c-15.683593 0-30.402343 6.101562-41.496093 17.195312l-10.109376 10.113281c-7.0625 7.058594-10.945312 16.425782-10.945312 26.386719 0 9.964844 3.882812 19.351563 10.945312 26.390625l150.847657 150.847656c7.058593 7.0625 16.425781 10.945313 26.386719 10.945313 9.964843 0 19.351562-3.882813 26.390624-10.945313l10.132813-10.132812c11.09375-11.09375 17.195313-25.8125 17.195313-41.492188v-24.960937c0-7.125 2.773437-13.824219 7.808593-18.859375l61.160157-61.140625c6.101562-6.125 14.957031-8.191406 23.128906-5.460937 19.6875 6.546874 41.128906 1.535156 55.871094-13.207032l20.84375-20.84375c14.546874-14.546875 14.546874-38.226562-.023438-52.796875zm0 0" fill="#f44336"/></svg>