<svg height="512pt" viewBox="-21 0 512 512.14933" width="512pt" xmlns="http://www.w3.org/2000/svg"><path d="m234.742188 170.667969c-11.777344 0-21.335938-9.558594-21.335938-21.335938v-128c0-11.773437 9.558594-21.332031 21.335938-21.332031 11.773437 0 21.332031 9.558594 21.332031 21.332031v128c0 11.777344-9.558594 21.335938-21.332031 21.335938zm0 0" fill="#f44336"/><path d="m234.742188 512.148438c-129.386719 0-234.6679692-105.277344-234.6679692-234.664063 0-98.21875 62.1015622-186.882813 154.4960932-220.671875 11.03125-4.011719 23.316407 1.640625 27.371094 12.710938 4.03125 11.074218-1.664062 23.320312-12.714844 27.371093-75.648437 27.648438-126.484374 100.226563-126.484374 180.589844 0 105.855469 86.144531 192 192 192 105.855468 0 192-86.144531 192-192 0-80.386719-50.839844-152.941406-126.484376-180.589844-11.074218-4.050781-16.769531-16.296875-12.714843-27.371093 4.050781-11.070313 16.296875-16.722657 27.367187-12.710938 92.398438 33.789062 154.496094 122.453125 154.496094 220.671875 0 129.40625-105.277344 234.664063-234.664062 234.664063zm0 0" fill="#607d8b"/></svg>