<svg height="512pt" viewBox="0 0 512 512" width="512pt" xmlns="http://www.w3.org/2000/svg"><path d="m368 0h-224c-32.40625 0-58.667969 26.261719-58.667969 58.667969v85.332031c0 8.832031 7.167969 16 16 16h309.335938c8.832031 0 16-7.167969 16-16v-85.332031c0-32.40625-26.261719-58.667969-58.667969-58.667969zm0 0" fill="#eceff1"/><path d="m453.332031 128h-394.664062c-32.363281 0-58.667969 26.304688-58.667969 58.667969v138.664062c0 32.363281 26.304688 58.667969 58.667969 58.667969h394.664062c32.363281 0 58.667969-26.304688 58.667969-58.667969v-138.664062c0-32.363281-26.304688-58.667969-58.667969-58.667969zm0 0" fill="#607d8b"/><path d="m410.667969 277.332031h-309.335938c-8.832031 0-16 7.167969-16 16v160c0 32.363281 26.304688 58.667969 58.667969 58.667969h224c32.363281 0 58.667969-26.304688 58.667969-58.667969v-160c0-8.832031-7.167969-16-16-16zm0 0" fill="#eceff1"/><g fill="#90a4ae"><path d="m346.667969 384h-181.335938c-8.832031 0-16-7.167969-16-16s7.167969-16 16-16h181.335938c8.832031 0 16 7.167969 16 16s-7.167969 16-16 16zm0 0"/><path d="m346.667969 448h-181.335938c-8.832031 0-16-7.167969-16-16s7.167969-16 16-16h181.335938c8.832031 0 16 7.167969 16 16s-7.167969 16-16 16zm0 0"/></g></svg>