<svg height="512pt" viewBox="0 0 512 512" width="512pt" xmlns="http://www.w3.org/2000/svg"><path d="m368 0h-224c-32.40625 0-58.667969 26.261719-58.667969 58.667969v85.332031c0 8.832031 7.167969 16 16 16h309.335938c8.832031 0 16-7.167969 16-16v-85.332031c0-32.40625-26.261719-58.667969-58.667969-58.667969zm0 0" fill="#eceff1"/><path d="m453.332031 128h-394.664062c-32.363281 0-58.667969 26.304688-58.667969 58.667969v138.664062c0 32.363281 26.304688 58.667969 58.667969 58.667969h394.664062c32.363281 0 58.667969-26.304688 58.667969-58.667969v-138.664062c0-32.363281-26.304688-58.667969-58.667969-58.667969zm0 0" fill="#2196f3"/><path d="m426.667969 293.332031v160c0 14.292969-5.121094 27.519531-13.441407 37.546875-10.878906 13.015625-27.09375 21.121094-45.226562 21.121094h-224c-19.199219 0-36.480469-9.386719-47.148438-23.679688-7.25-9.8125-11.519531-21.761718-11.519531-34.988281v-160c0-8.746093 7.253907-16 16-16h309.335938c8.746093 0 16 7.253907 16 16zm0 0" fill="#eceff1"/><path d="m413.226562 490.878906c-10.878906 13.015625-27.09375 21.121094-45.226562 21.121094h-224c-19.199219 0-36.480469-9.386719-47.148438-23.679688l83.839844-83.628906c2.988282-2.984375 7.042969-4.691406 11.308594-4.691406s8.320312 1.707031 11.308594 4.691406l29.863281 29.867188 53.546875-61.011719c2.988281-3.625 7.253906-5.546875 11.949219-5.546875 4.691406 0 8.957031 1.921875 11.945312 5.546875zm0 0" fill="#4caf50"/></svg>