<svg height="469pt" viewBox="0 0 469.33339 469" width="469pt" xmlns="http://www.w3.org/2000/svg"><path d="m452.179688 120.445312-103.101563-103.082031c-11.074219-11.09375-25.792969-17.195312-41.472656-17.195312h-145.8125c-15.679688 0-30.421875 6.101562-41.472657 17.195312l-103.125 103.082031c-11.09375 11.09375-17.195312 25.8125-17.195312 41.472657v145.8125c0 15.65625 6.101562 30.398437 17.195312 41.472656l103.101563 103.101563c11.09375 11.09375 25.816406 17.195312 41.472656 17.195312h145.816407c15.65625 0 30.398437-6.101562 41.46875-17.195312l103.105468-103.101563c11.070313-11.074219 17.171875-25.792969 17.171875-41.472656v-145.792969c.023438-15.679688-6.078125-30.421875-17.152343-41.492188zm0 0" fill="#f44336"/><path d="m328.746094 298.726562c8.34375 8.339844 8.34375 21.84375 0 30.164063-4.160156 4.160156-9.621094 6.253906-15.082032 6.253906-5.460937 0-10.921874-2.09375-15.082031-6.253906l-64.105469-64.105469-64.109374 64.105469c-4.160157 4.160156-9.621094 6.253906-15.082032 6.253906-5.460937 0-10.921875-2.09375-15.082031-6.253906-8.339844-8.320313-8.339844-21.824219 0-30.164063l64.105469-64.105468-64.105469-64.109375c-8.339844-8.339844-8.339844-21.84375 0-30.164063 8.339844-8.339844 21.824219-8.339844 30.164063 0l64.109374 64.105469 64.105469-64.105469c8.339844-8.339844 21.824219-8.339844 30.164063 0 8.34375 8.320313 8.34375 21.824219 0 30.164063l-64.105469 64.109375zm0 0" fill="#fafafa"/></svg>