<svg height="512pt" viewBox="0 0 512.00533 512" width="512pt" xmlns="http://www.w3.org/2000/svg"><path d="m490.667969 512.003906c-5.460938 0-10.925781-2.09375-15.082031-6.25l-161.28125-161.28125c-8.34375-8.34375-8.34375-21.824218 0-30.164062 8.339843-8.34375 21.824218-8.34375 30.164062 0l161.28125 161.277344c8.339844 8.34375 8.339844 21.824218 0 30.167968-4.160156 4.15625-9.621094 6.25-15.082031 6.25zm0 0" fill="#607d8b"/><path d="m202.667969.00390625c-111.746094 0-202.667969 90.92187475-202.667969 202.66406275 0 111.746093 90.921875 202.667969 202.667969 202.667969 111.742187 0 202.664062-90.921876 202.664062-202.667969 0-111.742188-90.921875-202.66406275-202.664062-202.66406275zm0 0" fill="#2196f3"/></svg>