<svg height="512pt" viewBox="0 0 512 512.00508" width="512pt" xmlns="http://www.w3.org/2000/svg"><path d="m507.523438 148.910156-138.667969-144c-4.523438-4.714844-11.457031-6.183594-17.492188-3.753906-6.058593 2.453125-10.027343 8.320312-10.027343 14.847656v69.335938h-5.332032c-114.6875 0-208 93.3125-208 208v32c0 7.421875 5.226563 13.609375 12.457032 15.292968 1.171874.277344 2.347656.429688 3.519531.429688 6.058593 0 11.839843-3.542969 14.613281-9.089844 29.996094-60.011718 90.304688-97.300781 157.398438-97.300781h25.34375v69.332031c0 6.527344 3.96875 12.394532 10.027343 14.847656 5.992188 2.414063 12.96875.960938 17.492188-3.753906l138.667969-144c5.972656-6.1875 5.972656-16 0-22.1875zm0 0" fill="#2196f3"/><path d="m448.003906 512.003906h-384c-35.285156 0-63.99999975-28.714844-63.99999975-64v-298.664062c0-35.285156 28.71484375-64 63.99999975-64h64c11.796875 0 21.332032 9.554687 21.332032 21.332031s-9.535157 21.332031-21.332032 21.332031h-64c-11.777344 0-21.335937 9.578125-21.335937 21.335938v298.664062c0 11.753906 9.558593 21.335938 21.335937 21.335938h384c11.773438 0 21.332032-9.582032 21.332032-21.335938v-170.664062c0-11.777344 9.535156-21.335938 21.332031-21.335938s21.335937 9.558594 21.335937 21.335938v170.664062c0 35.285156-28.714844 64-64 64zm0 0" fill="#607d8b"/></svg>