<svg height="512pt" viewBox="-21 0 512 512" width="512pt" xmlns="http://www.w3.org/2000/svg"><g fill="#4caf50"><path d="m135.703125 245.761719c-7.425781 0-14.636719-3.863281-18.5625-10.773438-5.824219-10.21875-2.238281-23.253906 7.980469-29.101562l197.949218-112.851563c10.21875-5.867187 23.253907-2.28125 29.101563 7.976563 5.824219 10.21875 2.238281 23.253906-7.980469 29.101562l-197.953125 112.851563c-3.328125 1.898437-6.953125 2.796875-10.535156 2.796875zm0 0"/><path d="m333.632812 421.761719c-3.585937 0-7.210937-.898438-10.539062-2.796875l-197.953125-112.851563c-10.21875-5.824219-13.800781-18.859375-7.976563-29.101562 5.800782-10.238281 18.855469-13.84375 29.097657-7.976563l197.953125 112.851563c10.21875 5.824219 13.800781 18.859375 7.976562 29.101562-3.945312 6.910157-11.15625 10.773438-18.558594 10.773438zm0 0"/><path d="m469.332031 85.332031c0 47.128907-38.203125 85.335938-85.332031 85.335938s-85.332031-38.207031-85.332031-85.335938c0-47.128906 38.203125-85.332031 85.332031-85.332031s85.332031 38.203125 85.332031 85.332031zm0 0"/><path d="m469.332031 426.667969c0 47.128906-38.203125 85.332031-85.332031 85.332031s-85.332031-38.203125-85.332031-85.332031c0-47.128907 38.203125-85.335938 85.332031-85.335938s85.332031 38.207031 85.332031 85.335938zm0 0"/><path d="m170.667969 256c0 47.128906-38.207031 85.332031-85.335938 85.332031-47.128906 0-85.332031-38.203125-85.332031-85.332031s38.203125-85.332031 85.332031-85.332031c47.128907 0 85.335938 38.203125 85.335938 85.332031zm0 0"/></g></svg>