<svg height="512pt" viewBox="0 0 512 512.01902" width="512pt" xmlns="http://www.w3.org/2000/svg"><path d="m448.007812 512.019531h-384c-35.285156 0-63.9999995-28.714843-63.9999995-64v-170.667969c0-11.773437 9.5390625-21.332031 21.3359375-21.332031s21.332031 9.558594 21.332031 21.332031v170.667969c0 11.753907 9.558594 21.332031 21.332031 21.332031h384c11.777344 0 21.335938-9.578124 21.335938-21.332031v-298.667969c0-11.753906-9.558594-21.332031-21.335938-21.332031h-64c-11.796874 0-21.332031-9.558593-21.332031-21.332031 0-11.777344 9.535157-21.335938 21.332031-21.335938h64c35.285157 0 64 28.714844 64 64v298.667969c0 35.285157-28.714843 64-64 64zm0 0" fill="#607d8b"/><path d="m176.007812 85.351562h-5.332031v-69.332031c0-6.527343-3.96875-12.394531-10.027343-14.847656-6.035157-2.453125-12.992188-.980469-17.492188 3.753906l-138.667969 144c-5.972656 6.1875-5.972656 16 0 22.1875l138.667969 144c4.523438 4.714844 11.5 6.207031 17.492188 3.753907 6.058593-2.453126 10.027343-8.320313 10.027343-14.847657v-69.332031h25.324219c67.113281 0 127.421875 37.289062 157.480469 97.40625l.277343.535156c2.773438 5.4375 8.34375 8.722656 14.25 8.722656 1.238282 0 2.496094-.148437 3.734376-.445312 7.210937-1.730469 12.265624-8.152344 12.265624-15.554688v-32c0-114.6875-93.308593-208-208-208zm0 0" fill="#2196f3"/></svg>