<svg height="512pt" viewBox="0 0 512 512.78933" width="512pt" xmlns="http://www.w3.org/2000/svg"><path d="m256.394531 192.789062c-35.285156 0-64 28.714844-64 64 0 27.777344 17.898438 51.242188 42.667969 60.074219v174.59375c0 11.773438 9.554688 21.332031 21.332031 21.332031 11.777344 0 21.332031-9.558593 21.332031-21.332031v-174.59375c24.769532-8.832031 42.667969-32.296875 42.667969-60.074219 0-35.285156-28.714843-64-64-64zm0 0" fill="#607d8b"/><g fill="#2196f3"><path d="m256.394531 0c-141.164062 0-256 114.835938-256 256 0 68.480469 26.667969 132.757812 75.113281 180.949219 8.386719 8.320312 21.890626 8.277343 30.1875-.0625 8.320313-8.363281 8.277344-21.867188-.0625-30.1875-40.363281-40.128907-62.570312-93.632813-62.570312-150.699219 0-117.632812 95.699219-213.332031 213.332031-213.332031 117.632813 0 213.332031 95.699219 213.332031 213.332031 0 57.046875-22.207031 110.570312-62.546874 150.699219-8.34375 8.320312-8.386719 21.824219-.066407 30.1875 4.183594 4.179687 9.644531 6.269531 15.125 6.269531 5.441407 0 10.882813-2.066406 15.0625-6.207031 48.425781-48.191407 75.09375-112.449219 75.09375-180.949219 0-141.140625-114.835937-256-256-256zm0 0"/><path d="m256.394531 85.332031c-94.101562 0-170.667969 76.566407-170.667969 170.667969 0 45.652344 17.816407 88.492188 50.175782 120.597656 8.363281 8.277344 21.847656 8.234375 30.1875-.105468 8.300781-8.363282 8.234375-21.867188-.105469-30.1875-24.257813-24.023438-37.589844-56.105469-37.589844-90.304688 0-70.59375 57.40625-128 128-128s128 57.40625 128 128c0 34.199219-13.332031 66.261719-37.566406 90.304688-8.363281 8.296874-8.40625 21.800781-.109375 30.1875 4.183594 4.199218 9.664062 6.292968 15.148438 6.292968 5.417968 0 10.859374-2.070312 15.039062-6.1875 32.339844-32.105468 50.15625-74.921875 50.15625-120.597656 0-94.101562-76.566406-170.667969-170.667969-170.667969zm0 0"/></g></svg>