<svg height="512pt" viewBox="0 0 512 512" width="512pt" xmlns="http://www.w3.org/2000/svg"><path d="m453.332031 0h-394.664062c-32.363281 0-58.667969 26.304688-58.667969 58.667969v394.664062c0 32.363281 26.304688 58.667969 58.667969 58.667969h394.664062c32.363281 0 58.667969-26.304688 58.667969-58.667969v-394.664062c0-32.363281-26.304688-58.667969-58.667969-58.667969zm0 0" fill="#2196f3"/><g fill="#fafafa"><path d="m341.332031 362.667969h-170.664062c-11.796875 0-21.335938-9.558594-21.335938-21.335938 0-11.773437 9.539063-21.332031 21.335938-21.332031h170.664062c11.796875 0 21.335938 9.558594 21.335938 21.332031 0 11.777344-9.539063 21.335938-21.335938 21.335938zm0 0"/><path d="m341.332031 277.332031h-170.664062c-11.796875 0-21.335938-9.554687-21.335938-21.332031s9.539063-21.332031 21.335938-21.332031h170.664062c11.796875 0 21.335938 9.554687 21.335938 21.332031s-9.539063 21.332031-21.335938 21.332031zm0 0"/><path d="m341.332031 192h-170.664062c-11.796875 0-21.335938-9.558594-21.335938-21.332031 0-11.777344 9.539063-21.335938 21.335938-21.335938h170.664062c11.796875 0 21.335938 9.558594 21.335938 21.335938 0 11.773437-9.539063 21.332031-21.335938 21.332031zm0 0"/></g></svg>