<svg height="512pt" viewBox="0 0 512 512" width="512pt" xmlns="http://www.w3.org/2000/svg"><path d="m453.332031 0h-394.664062c-32.363281 0-58.667969 26.304688-58.667969 58.667969v394.664062c0 32.363281 26.304688 58.667969 58.667969 58.667969h394.664062c32.363281 0 58.667969-26.304688 58.667969-58.667969v-394.664062c0-32.363281-26.304688-58.667969-58.667969-58.667969zm0 0" fill="#2196f3"/><g fill="#fafafa"><path d="m277.332031 384c0 11.78125-9.550781 21.332031-21.332031 21.332031s-21.332031-9.550781-21.332031-21.332031 9.550781-21.332031 21.332031-21.332031 21.332031 9.550781 21.332031 21.332031zm0 0"/><path d="m277.332031 298.667969c0 11.773437-9.554687 21.332031-21.332031 21.332031s-21.332031-9.558594-21.332031-21.332031v-170.667969c0-11.777344 9.554687-21.332031 21.332031-21.332031s21.332031 9.554687 21.332031 21.332031zm0 0"/></g></svg>