<svg height="512pt" viewBox="0 -32 512.00533 512" width="512pt" xmlns="http://www.w3.org/2000/svg"><path d="m306.582031 295.921875c-12.074219 12.097656-28.160156 18.753906-45.25 18.753906-17.085937 0-33.171875-6.65625-45.246093-18.753906l-90.667969-90.664063c-12.09375-12.078124-18.75-28.160156-18.75-45.25 0-17.085937 6.65625-33.171874 18.75-45.246093 12.074219-12.097657 28.160156-18.753907 45.25-18.753907 17.085937 0 33.171875 6.65625 45.246093 18.753907l45.417969 45.394531 143.125-143.125c-2.023437-9.640625-10.195312-17.0234375-20.457031-17.0234375h-320c-35.285156 0-64 28.7148435-64 63.9999995v320c0 35.285157 28.714844 64 64 64h320c35.285156 0 64-28.714843 64-64v-229.503906zm0 0" fill="#2196f3"/><path d="m261.332031 272.007812c-5.460937 0-10.921875-2.089843-15.082031-6.25l-90.664062-90.667968c-8.34375-8.339844-8.34375-21.824219 0-30.164063 8.339843-8.339843 21.820312-8.339843 30.164062 0l75.582031 75.582031 214.253907-214.25c8.339843-8.339843 21.820312-8.339843 30.164062 0 8.339844 8.34375 8.339844 21.824219 0 30.167969l-229.335938 229.332031c-4.15625 4.160157-9.621093 6.25-15.082031 6.25zm0 0" fill="#607d8b"/></svg>