<svg height="512pt" viewBox="0 0 512 512" width="512pt" xmlns="http://www.w3.org/2000/svg"><path d="m453.332031 0h-394.664062c-32.363281 0-58.667969 26.304688-58.667969 58.667969v394.664062c0 32.363281 26.304688 58.667969 58.667969 58.667969h394.664062c32.363281 0 58.667969-26.304688 58.667969-58.667969v-394.664062c0-32.363281-26.304688-58.667969-58.667969-58.667969zm0 0" fill="#ffc107"/><g fill="#fafafa"><path d="m277.332031 384c0 11.78125-9.550781 21.332031-21.332031 21.332031s-21.332031-9.550781-21.332031-21.332031 9.550781-21.332031 21.332031-21.332031 21.332031 9.550781 21.332031 21.332031zm0 0"/><path d="m290.21875 264.8125c-7.828125 3.367188-12.886719 11.070312-12.886719 19.601562v14.253907c0 11.773437-9.554687 21.332031-21.332031 21.332031s-21.332031-9.558594-21.332031-21.332031v-14.253907c0-25.597656 15.1875-48.660156 38.675781-58.792968 21.527344-9.28125 35.988281-33.152344 35.988281-49.621094 0-29.398438-23.933593-53.332031-53.332031-53.332031s-53.332031 23.933593-53.332031 53.332031c0 11.777344-9.558594 21.332031-21.335938 21.332031-11.773437 0-21.332031-9.554687-21.332031-21.332031 0-52.929688 43.070312-96 96-96s96 43.070312 96 96c0 35.457031-26.558594 73.644531-61.78125 88.8125zm0 0"/></g></svg>