<svg height="512pt" viewBox="0 0 512 512" width="512pt" xmlns="http://www.w3.org/2000/svg"><path d="m448 0h-384c-35.347656 0-64 28.652344-64 64v384c0 35.347656 28.652344 64 64 64h384c35.347656 0 64-28.652344 64-64v-384c0-35.347656-28.652344-64-64-64zm-106.667969 320c0 11.777344-9.554687 21.332031-21.332031 21.332031h-128c-11.777344 0-21.332031-9.554687-21.332031-21.332031v-128c0-11.777344 9.554687-21.332031 21.332031-21.332031h128c11.777344 0 21.332031 9.554687 21.332031 21.332031zm0 0" fill="#2196f3"/></svg>