<svg height="426.66667pt" viewBox="0 0 426.66667 426.66667" width="426.66667pt" xmlns="http://www.w3.org/2000/svg"><g fill="#4caf50"><path d="m405.332031 234.667969h-384c-11.773437 0-21.332031-9.558594-21.332031-21.335938 0-11.773437 9.558594-21.332031 21.332031-21.332031h384c11.777344 0 21.335938 9.558594 21.335938 21.332031 0 11.777344-9.558594 21.335938-21.335938 21.335938zm0 0"/><path d="m213.332031 426.667969c-11.773437 0-21.332031-9.558594-21.332031-21.335938v-384c0-11.773437 9.558594-21.332031 21.332031-21.332031 11.777344 0 21.335938 9.558594 21.335938 21.332031v384c0 11.777344-9.558594 21.335938-21.335938 21.335938zm0 0"/></g></svg>