<svg height="512pt" viewBox="0 0 512 512" width="512pt" xmlns="http://www.w3.org/2000/svg"><path d="m512 256c0 141.386719-114.613281 256-256 256s-256-114.613281-256-256 114.613281-256 256-256 256 114.613281 256 256zm0 0" fill="#2196f3"/><path d="m421.332031 298.667969h-165.332031c-11.796875 0-21.332031-9.558594-21.332031-21.335938v-165.332031c0-11.777344 9.535156-21.332031 21.332031-21.332031s21.332031 9.554687 21.332031 21.332031v144h144c11.796875 0 21.335938 9.558594 21.335938 21.332031 0 11.777344-9.539063 21.335938-21.335938 21.335938zm0 0" fill="#fafafa"/></svg>