<svg height="512pt" viewBox="-21 0 512 512" width="512pt" xmlns="http://www.w3.org/2000/svg"><path d="m304 0h-138.667969c-20.585937 0-37.332031 16.746094-37.332031 37.332031v42.667969c0 8.832031 7.167969 16 16 16s16-7.167969 16-16v-42.667969c0-2.941406 2.390625-5.332031 5.332031-5.332031h138.667969c2.945312 0 5.332031 2.390625 5.332031 5.332031v42.667969c0 8.832031 7.167969 16 16 16s16-7.167969 16-16v-42.667969c0-20.585937-16.746093-37.332031-37.332031-37.332031zm0 0" fill="#90a4ae"/><path d="m410.667969 160c-8.832031 0-16 7.167969-16 16h-320c0-8.832031-7.167969-16-16-16s-16 7.167969-16 16v277.332031c0 32.363281 26.300781 58.667969 58.664062 58.667969h266.667969c32.363281 0 58.667969-26.304688 58.667969-58.667969v-277.332031c0-8.832031-7.167969-16-16-16zm0 0" fill="#eceff1"/><g fill="#607d8b"><path d="m410.667969 64h-352c-32.363281 0-58.667969 26.304688-58.667969 58.667969v53.332031c0 8.832031 7.167969 16 16 16h437.332031c8.832031 0 16-7.167969 16-16v-53.332031c0-32.363281-26.300781-58.667969-58.664062-58.667969zm0 0"/><path d="m234.667969 426.667969c-8.832031 0-16-7.167969-16-16v-138.667969c0-8.832031 7.167969-16 16-16s16 7.167969 16 16v138.667969c0 8.832031-7.167969 16-16 16zm0 0"/><path d="m144 426.667969c-8.832031 0-16-7.167969-16-16v-138.667969c0-8.832031 7.167969-16 16-16s16 7.167969 16 16v138.667969c0 8.832031-7.167969 16-16 16zm0 0"/><path d="m325.332031 426.667969c-8.832031 0-16-7.167969-16-16v-138.667969c0-8.832031 7.167969-16 16-16s16 7.167969 16 16v138.667969c0 8.832031-7.167969 16-16 16zm0 0"/></g></svg>