<svg height="512pt" viewBox="0 0 512 512.00533" width="512pt" xmlns="http://www.w3.org/2000/svg"><path d="m361.046875 114.84375c-3.304687 7.957031-11.09375 13.160156-19.710937 13.160156h-64v213.335938c0 11.773437-9.558594 21.332031-21.332032 21.332031-11.777344 0-21.335937-9.558594-21.335937-21.332031v-213.335938h-64c-8.617188 0-16.402344-5.203125-19.710938-13.160156-3.304687-7.980469-1.472656-17.152344 4.628907-23.253906l85.335937-85.332032c8.339844-8.34375 21.820313-8.34375 30.164063 0l85.332031 85.332032c6.101562 6.101562 7.9375 15.273437 4.628906 23.253906zm0 0" fill="#4caf50"/><path d="m448.003906 512.003906h-384c-35.285156 0-63.99999975-28.714844-63.99999975-64v-85.332031c0-11.777344 9.55468775-21.332031 21.33203175-21.332031 11.777343 0 21.332031 9.554687 21.332031 21.332031v85.332031c0 11.757813 9.578125 21.335938 21.335937 21.335938h384c11.753906 0 21.332032-9.578125 21.332032-21.335938v-85.332031c0-11.777344 9.558593-21.332031 21.332031-21.332031 11.777343 0 21.335937 9.554687 21.335937 21.332031v85.332031c0 35.285156-28.714844 64-64 64zm0 0" fill="#607d8b"/></svg>