<svg height="512pt" viewBox="-43 0 512 512" width="512pt" xmlns="http://www.w3.org/2000/svg"><path d="m389.332031 85.332031h-234.664062c-8.832031 0-16 7.167969-16 16v224c0 20.589844 16.746093 37.335938 37.332031 37.335938h213.332031c20.589844 0 37.335938-16.746094 37.335938-37.335938v-202.664062c0-20.589844-16.746094-37.335938-37.335938-37.335938zm0 0" fill="#1976d2"/><path d="m240 0h-224c-8.832031 0-16 7.167969-16 16v245.332031c0 8.832031 7.167969 16 16 16h224c20.585938 0 37.332031-16.746093 37.332031-37.332031v-202.667969c0-20.585937-16.746093-37.332031-37.332031-37.332031zm0 0" fill="#2196f3"/><path d="m21.332031 512c-11.796875 0-21.332031-9.558594-21.332031-21.332031v-469.335938c0-11.773437 9.535156-21.332031 21.332031-21.332031s21.335938 9.558594 21.335938 21.332031v469.335938c0 11.773437-9.539063 21.332031-21.335938 21.332031zm0 0" fill="#607d8b"/></svg>