<svg height="512pt" viewBox="0 0 512 512" width="512pt" xmlns="http://www.w3.org/2000/svg"><path d="m256 128c-70.59375 0-128 57.40625-128 128s57.40625 128 128 128 128-57.40625 128-128-57.40625-128-128-128zm0 192c-35.285156 0-64-28.714844-64-64s28.714844-64 64-64 64 28.714844 64 64-28.714844 64-64 64zm0 0"/><path d="m256 0c-141.164062 0-256 114.835938-256 256s114.835938 256 256 256 256-114.835938 256-256-114.835938-256-256-256zm0 426.667969c-94.101562 0-170.667969-76.566407-170.667969-170.667969s76.566407-170.667969 170.667969-170.667969 170.667969 76.566407 170.667969 170.667969-76.566407 170.667969-170.667969 170.667969zm0 0"/></svg>