<svg height="512pt" viewBox="0 0 512 512" width="512pt" xmlns="http://www.w3.org/2000/svg"><path d="m256 0c-141.164062 0-256 114.835938-256 256s114.835938 256 256 256 256-114.835938 256-256-114.835938-256-256-256zm0 106.667969c11.777344 0 21.332031 9.554687 21.332031 21.332031s-9.554687 21.332031-21.332031 21.332031-21.332031-9.554687-21.332031-21.332031 9.554687-21.332031 21.332031-21.332031zm48 298.664062h-96c-11.796875 0-21.332031-9.554687-21.332031-21.332031s9.535156-21.332031 21.332031-21.332031h26.667969v-128h-16c-11.796875 0-21.335938-9.558594-21.335938-21.335938 0-11.773437 9.539063-21.332031 21.335938-21.332031h37.332031c11.796875 0 21.332031 9.558594 21.332031 21.332031v149.335938h26.667969c11.796875 0 21.332031 9.554687 21.332031 21.332031s-9.535156 21.332031-21.332031 21.332031zm0 0"/></svg>