<svg height="512pt" viewBox="0 0 512 512" width="512pt" xmlns="http://www.w3.org/2000/svg"><path d="m256 0c-141.164062 0-256 114.835938-256 256s114.835938 256 256 256 256-114.835938 256-256-114.835938-256-256-256zm-138.667969 309.332031c-29.417969 0-53.332031-23.933593-53.332031-53.332031s23.914062-53.332031 53.332031-53.332031c29.421875 0 53.335938 23.933593 53.335938 53.332031s-23.914063 53.332031-53.335938 53.332031zm138.667969 0c-29.417969 0-53.332031-23.933593-53.332031-53.332031s23.914062-53.332031 53.332031-53.332031 53.332031 23.933593 53.332031 53.332031-23.914062 53.332031-53.332031 53.332031zm138.667969 0c-29.421875 0-53.335938-23.933593-53.335938-53.332031s23.914063-53.332031 53.335938-53.332031c29.417969 0 53.332031 23.933593 53.332031 53.332031s-23.914062 53.332031-53.332031 53.332031zm0 0"/></svg>