<svg height="512pt" viewBox="0 0 512 512" width="512pt" xmlns="http://www.w3.org/2000/svg"><path d="m474.667969 213.332031h-181.335938c-20.605469 0-37.332031 16.726563-37.332031 37.335938v224c0 20.605469 16.726562 37.332031 37.332031 37.332031h181.335938c20.605469 0 37.332031-16.726562 37.332031-37.332031v-224c0-20.609375-16.726562-37.335938-37.332031-37.335938zm-45.335938 213.335938h-96c-8.832031 0-16-7.167969-16-16s7.167969-16 16-16h96c8.832031 0 16 7.167969 16 16s-7.167969 16-16 16zm0-64h-96c-8.832031 0-16-7.167969-16-16s7.167969-16 16-16h96c8.832031 0 16 7.167969 16 16s-7.167969 16-16 16zm0 0"/><path d="m304 64h-26.667969v-5.332031c0-8.832031-7.167969-16-16-16h-23.550781c-6.996094-24.597657-29.632812-42.667969-56.449219-42.667969-26.816406 0-49.449219 18.070312-56.445312 42.667969h-23.554688c-8.832031 0-16 7.167969-16 16v5.332031h-26.664062c-32.363281 0-58.667969 26.304688-58.667969 58.667969v266.664062c0 32.363281 26.304688 58.667969 58.667969 58.667969h165.332031v-197.332031c0-38.230469 31.105469-69.335938 69.332031-69.335938h69.335938v-58.664062c0-32.363281-26.304688-58.667969-58.667969-58.667969zm-186.667969 10.667969h21.335938c8.832031 0 16-7.167969 16-16 0-14.699219 11.964843-26.667969 26.664062-26.667969s26.667969 11.96875 26.667969 26.667969c0 8.832031 7.167969 16 16 16h21.332031v26.664062c0 2.945313-2.386719 5.335938-5.332031 5.335938h-117.332031c-2.945313 0-5.335938-2.390625-5.335938-5.335938zm0 0"/></svg>