<svg height="512pt" viewBox="-21 0 512 512.01524" width="512pt" xmlns="http://www.w3.org/2000/svg"><path d="m384.007812 341.347656c-35.753906 0-66.324218 22.144532-79.019531 53.398438l-32.789062-58.558594c6.742187-3.992188 13.71875-8.726562 20.714843-14.550781 30.847657-25.707031 75.5-106.21875 108.097657-164.972657l10.578125-19.027343c29.355468-52.480469 26.96875-103.636719-6.226563-133.527344-3.628906-3.242187-8.597656-4.710937-13.3125-3.878906-4.820312.789062-8.980469 3.710937-11.351562 7.976562l-146.023438 260.90625-146.050781-260.90625c-2.367188-4.246093-6.527344-7.1875-11.347656-7.976562-4.714844-.8125-9.6875.636719-13.3125 3.878906-33.195313 29.890625-35.582032 81.046875-6.230469 133.527344l10.582031 19.027343c32.597656 58.773438 77.25 139.265626 108.097656 164.972657 6.976563 5.824219 13.949219 10.558593 20.714844 14.550781l-32.789062 58.558594c-12.671875-31.253906-43.246094-53.398438-79-53.398438-47.058594 0-85.3320315 38.273438-85.3320315 85.335938 0 47.058594 38.2734375 85.332031 85.3320315 85.332031 31.445312 0 58.644531-17.28125 73.453125-42.644531.296875-.429688.789062-.597656 1.042969-1.046875l63.59375-113.621094c2.496093-.40625 6.378906-1.171875 11.222656-2.472656 4.84375 1.300781 8.726562 2.066406 11.222656 2.472656l63.59375 113.621094c.257812.449219.746094.640625 1.046875 1.046875 14.847656 25.363281 42.046875 42.644531 73.492187 42.644531 47.0625 0 85.332032-38.273437 85.332032-85.332031 0-47.0625-38.269532-85.335938-85.332032-85.335938zm-298.667968 128c-23.53125 0-42.664063-19.136718-42.664063-42.664062 0-23.53125 19.132813-42.667969 42.664063-42.667969s42.667968 19.136719 42.667968 42.667969c0 23.527344-19.136718 42.664062-42.667968 42.664062zm298.667968 0c-23.53125 0-42.667968-19.136718-42.667968-42.664062 0-23.53125 19.136718-42.667969 42.667968-42.667969s42.667969 19.136719 42.667969 42.667969c0 23.527344-19.136719 42.664062-42.667969 42.664062zm0 0"/></svg>