<svg height="512pt" viewBox="0 0 512 512" width="512pt" xmlns="http://www.w3.org/2000/svg"><path d="m448 512h-384c-35.285156 0-64-28.714844-64-64v-85.332031c0-11.777344 9.558594-21.335938 21.332031-21.335938 11.777344 0 21.335938 9.558594 21.335938 21.335938v85.332031c0 11.753906 9.578125 21.332031 21.332031 21.332031h384c11.753906 0 21.332031-9.578125 21.332031-21.332031v-85.332031c0-11.777344 9.558594-21.335938 21.335938-21.335938 11.773437 0 21.332031 9.558594 21.332031 21.335938v85.332031c0 35.285156-28.714844 64-64 64zm0 0"/><path d="m356.414062 271.082031-85.332031 85.332031c-8.339843 8.34375-21.824219 8.34375-30.164062 0l-85.332031-85.332031c-6.101563-6.101562-7.9375-15.273437-4.632813-23.253906 3.308594-7.957031 11.09375-13.160156 19.714844-13.160156h64v-213.335938c0-11.773437 9.554687-21.332031 21.332031-21.332031s21.332031 9.558594 21.332031 21.332031v213.335938h64c8.621094 0 16.40625 5.203125 19.714844 13.160156 3.304687 7.980469 1.46875 17.152344-4.632813 23.253906zm0 0"/></svg>