<svg height="512pt" viewBox="0 0 512.00012 512" width="512pt" xmlns="http://www.w3.org/2000/svg"><path d="m507.3125 4.664062c-3.308594-3.304687-7.851562-4.925781-12.609375-4.6289058-105.769531 8.6171878-197.460937 40.3203128-272.554687 94.2499998-4.863282 3.5-7.359376 9.410156-6.503907 15.316406 4.671875 31.808594-9.046875 69.378907-22.765625 97.324219-5.609375-15.871093-13.84375-30.441406-21.714844-42.199219-2.773437-4.136718-7.296874-6.738281-12.246093-7.082031-4.972657-.277343-9.792969 1.707031-13.078125 5.417969-64.191406 73.089844-85.441406 149.910156-67.304688 240.214844l-72.277344 72.277344c-8.34375 8.339843-8.34375 21.824218 0 30.164062 4.15625 4.160156 9.621094 6.253906 15.082032 6.253906 5.460937 0 10.921875-2.09375 15.082031-6.253906l183.167969-183.167969c8.339844-8.339843 21.824218-8.339843 30.164062 0 8.34375 8.34375 8.34375 21.824219 0 30.167969l-87.019531 87.019531c1.644531.019531 3.351563.316407 4.972656.316407 73.683594 0 139.222657-30.675782 202.113281-93.738282 89.171876-89.171875 130.34375-184.511718 142.121094-329.066406.40625-4.671875-1.300781-9.277344-4.628906-12.585938zm0 0"/></svg>