<svg height="512pt" viewBox="0 0 512 512" width="512pt" xmlns="http://www.w3.org/2000/svg"><path d="m256 0c-141.164062 0-256 114.835938-256 256s114.835938 256 256 256 256-114.835938 256-256-114.835938-256-256-256zm0 42.667969c117.632812 0 213.332031 95.699219 213.332031 213.332031 0 22.292969-3.453125 43.777344-9.832031 64h-119.789062c-6.1875-32.382812-30.742188-58.089844-62.378907-66.304688v-125.695312c0-11.777344-9.535156-21.332031-21.332031-21.332031s-21.332031 9.554687-21.332031 21.332031v125.695312c-31.636719 8.214844-56.191407 33.921876-62.378907 66.304688h-119.789062c-6.355469-20.222656-9.832031-41.707031-9.832031-64 0-117.632812 95.699219-213.332031 213.332031-213.332031zm0 0"/></svg>