<svg height="512pt" viewBox="0 0 512 512" width="512pt" xmlns="http://www.w3.org/2000/svg"><path d="m85.546875 234.667969c9.472656 0 17.75-6.144531 20.585937-15.253907l34.28125-114.390624c5.804688-18.28125 22.1875-30.355469 40.917969-30.355469s35.117188 12.074219 40.8125 30.035156l87.144531 290.007813 54.59375-122.242188c10.195313-22.953125 33.171876-37.800781 58.515626-37.800781h89.601562v-170.667969c0-35.285156-28.714844-64-64-64h-384c-35.285156 0-64 28.714844-64 64v170.667969zm0 0"/><path d="m422.398438 277.332031c-8.488282 0-16.167969 4.90625-19.539063 12.503907l-54.636719 122.261718c-6.527344 15.230469-21.84375 25.234375-38.890625 25.234375-18.730469 0-35.113281-12.074219-40.808593-30.035156l-87.148438-290.007813-34.429688 114.5625c-8.449218 27.261719-33.089843 45.480469-61.398437 45.480469h-85.546875v170.667969c0 35.285156 28.714844 64 64 64h384c35.285156 0 64-28.714844 64-64v-170.667969zm0 0"/></svg>