<svg height="512pt" viewBox="-1 0 512 512" width="512pt" xmlns="http://www.w3.org/2000/svg"><path d="m84.457031 234.667969c9.472657 0 17.75-6.144531 20.589844-15.253907l34.28125-114.390624c5.800781-18.28125 22.1875-30.355469 40.917969-30.355469 18.730468 0 35.113281 12.074219 40.808594 30.035156l87.148437 290.007813 54.589844-122.242188c10.199219-22.953125 33.175781-37.800781 58.519531-37.800781h88.53125c-10.921875-131.179688-120.957031-234.667969-254.933594-234.667969-133.972656 0-244.007812 103.488281-254.910156 234.667969zm0 0"/><path d="m421.3125 277.332031c-8.492188 0-16.171875 4.90625-19.542969 12.503907l-54.632812 122.261718c-6.527344 15.230469-21.847657 25.234375-38.890625 25.234375-18.730469 0-35.117188-12.074219-40.8125-30.035156l-87.144532-290.007813-34.433593 114.5625c-8.449219 27.261719-33.085938 45.480469-61.398438 45.480469h-84.457031c10.902344 131.179688 120.9375 234.667969 254.910156 234.667969 133.976563 0 244.011719-103.488281 254.914063-234.667969zm0 0"/></svg>