<svg height="512pt" viewBox="0 0 512 512" width="512pt" xmlns="http://www.w3.org/2000/svg"><path d="m504 231.566406-56-55.039062v-139.203125c0-8.828125-7.167969-16-16-16h-74.667969c-8.832031 0-16 7.171875-16 16v35.585937l-74.496093-68.671875c-6.207032-5.738281-15.804688-5.632812-21.90625.214844l-237.035157 227.21875c-5.015625 5.015625-7.894531 11.925781-7.894531 18.988281 0 14.699219 11.96875 26.664063 26.667969 26.664063h37.332031v192c0 23.574219 19.09375 42.667969 42.667969 42.667969h298.664062c23.574219 0 42.667969-19.09375 42.667969-42.667969v-192h37.332031c14.699219 0 26.667969-11.964844 26.667969-26.664063 0-7.0625-2.878906-13.972656-8-19.09375zm0 0"/></svg>