<svg height="512pt" viewBox="0 0 512 512" width="512pt" xmlns="http://www.w3.org/2000/svg"><path d="m503.871094 231.433594-236.800782-226.984375c-6.183593-5.933594-15.957031-5.933594-22.140624 0l-237.035157 227.21875c-5.015625 5.015625-7.894531 11.925781-7.894531 18.988281 0 14.699219 11.96875 26.667969 26.667969 26.667969h37.332031v202.664062c0 17.664063 14.335938 32 32 32h90.667969c8.832031 0 16-7.167969 16-16v-138.664062c0-2.925781 2.386719-5.335938 5.332031-5.335938h96c2.921875 0 5.332031 2.410157 5.332031 5.335938v138.664062c0 8.832031 7.167969 16 16 16h90.667969c17.664062 0 32-14.335937 32-32v-202.664062h37.332031c14.699219 0 26.667969-11.96875 26.667969-26.667969 0-7.0625-2.878906-13.972656-8.128906-19.222656zm0 0"/></svg>