<svg height="512pt" viewBox="0 0 512 512" width="512pt" xmlns="http://www.w3.org/2000/svg"><path d="m504 231.566406-56-55.039062v-139.203125c0-8.828125-7.167969-16-16-16h-74.667969c-8.832031 0-16 7.171875-16 16v35.585937l-74.496093-68.671875c-6.207032-5.738281-15.804688-5.632812-21.90625.214844l-237.035157 227.21875c-5.015625 5.015625-7.894531 11.925781-7.894531 18.988281 0 14.699219 11.96875 26.664063 26.667969 26.664063h37.332031v202.667969c0 17.664062 14.335938 32 32 32h90.667969c8.832031 0 16-7.167969 16-16v-144c0-2.921876 2.386719-5.332032 5.332031-5.332032h96c2.921875 0 5.332031 2.410156 5.332031 5.332032v144c0 8.832031 7.167969 16 16 16h90.667969c17.664062 0 32-14.335938 32-32v-202.667969h37.332031c14.699219 0 26.667969-11.964844 26.667969-26.664063 0-7.0625-2.878906-13.972656-8-19.09375zm0 0"/></svg>