<svg height="448.00533pt" viewBox="0 0 448.00533 448.00533" width="448.00533pt" xmlns="http://www.w3.org/2000/svg"><path d="m441.75 6.257812c-8.34375-8.34375-21.824219-8.34375-30.164062 0l-155.585938 155.582032-48.917969-48.917969c-6.121093-6.101563-15.273437-7.976563-23.253906-4.628906-7.957031 3.285156-13.160156 11.09375-13.160156 19.710937v128c0 11.796875 9.554687 21.335938 21.332031 21.335938h128c8.617188 0 16.40625-5.183594 19.710938-13.164063 3.308593-7.976562 1.472656-17.152343-4.628907-23.253906l-48.917969-48.917969 155.585938-155.582031c8.339844-8.34375 8.339844-21.824219 0-30.164063zm0 0"/><path d="m362.667969 448.003906h-298.667969c-35.285156 0-64-28.714844-64-64v-298.664062c0-35.285156 28.714844-64 64-64h170.667969c11.773437 0 21.332031 9.535156 21.332031 21.332031s-9.558594 21.332031-21.332031 21.332031h-170.667969c-11.753906 0-21.332031 9.558594-21.332031 21.335938v298.664062c0 11.777344 9.578125 21.335938 21.332031 21.335938h298.667969c11.753906 0 21.332031-9.558594 21.332031-21.335938v-170.664062c0-11.796875 9.558594-21.335938 21.332031-21.335938 11.777344 0 21.335938 9.539063 21.335938 21.335938v170.664062c0 35.285156-28.714844 64-64 64zm0 0"/></svg>