<svg height="511.776pt" viewBox="0 0 511.776 511.776" width="511.776pt" xmlns="http://www.w3.org/2000/svg"><path d="m74.863281 74.863281c-99.816406 99.820313-99.816406 262.230469 0 362.046875 99.820313 99.820313 262.230469 99.820313 362.046875 0 99.820313-99.816406 99.820313-262.226562 0-362.046875-99.816406-99.816406-262.25-99.816406-362.046875 0zm248.898438 248.898438c-37.441407 37.4375-98.328125 37.4375-135.765625 0-37.441406-37.441407-37.441406-98.328125 0-135.765625 37.4375-37.441406 98.324218-37.441406 135.765625 0 37.4375 37.4375 37.4375 98.324218 0 135.765625zm-226.285157 90.515625c-2.878906-2.878906-5.609374-5.824219-8.253906-8.832032-7.425781-8.449218-7-21.183593.957032-29.140624l37.742187-37.738282c4.199219-4.203125 9.960937-6.464844 15.890625-6.230468 5.929688.234374 11.519531 2.902343 15.402344 7.402343 1.964844 2.28125 4.011718 4.480469 6.167968 6.636719 2.152344 2.152344 4.371094 4.199219 6.632813 6.164062 4.5 3.859376 7.191406 9.449219 7.425781 15.382813.234375 5.929687-2.050781 11.6875-6.253906 15.890625l-37.738281 37.738281c-7.933594 7.9375-20.691407 8.386719-29.140625.960938-3.007813-2.625-5.953125-5.375-8.832032-8.234375zm242.261719-255.0625c-4.5-3.859375-7.1875-9.449219-7.421875-15.378906-.214844-5.933594 2.046875-11.691407 6.25-15.894532l37.738282-37.738281c7.933593-7.9375 20.691406-8.382813 29.140624-.960937 3.007813 2.644531 5.953126 5.375 8.832032 8.257812 2.878906 2.878906 5.609375 5.824219 8.257812 8.832031 7.421875 8.445313 6.996094 21.183594-.960937 29.140625l-37.738281 37.738282c-4.203126 4.203124-9.964844 6.464843-15.894532 6.230468-5.929687-.214844-11.519531-2.902344-15.402344-7.402344-1.964843-2.285156-4.011718-4.480468-6.164062-6.636718-2.136719-2.195313-4.355469-4.246094-6.636719-6.1875zm-233.429687-69.972656c8.449218-7.421876 21.183594-6.996094 29.140625.960937l37.738281 37.738281c4.183594 4.179688 6.445312 9.941406 6.230469 15.871094-.210938 5.929688-2.902344 11.519531-7.402344 15.402344-2.28125 1.941406-4.5 3.992187-6.65625 6.144531-2.152344 2.15625-4.203125 4.375-6.144531 6.65625-3.882813 4.5-9.449219 7.191406-15.378906 7.425781-5.933594.210938-11.691407-2.050781-15.894532-6.253906l-37.738281-37.738281c-7.9375-7.933594-8.382813-20.691407-.960937-29.140625 2.625-3.007813 5.375-5.953125 8.234374-8.832032 2.878907-2.859374 5.824219-5.609374 8.832032-8.234374zm299.136718 333.269531c-8.449218 7.425781-21.183593 6.996093-29.140624-.960938l-37.738282-37.738281c-4.203125-4.203125-6.464844-9.960938-6.230468-15.890625.214843-5.933594 2.902343-11.523437 7.402343-15.40625 2.28125-1.960937 4.480469-4.007813 6.636719-6.164063 2.152344-2.152343 4.199219-4.371093 6.164062-6.632812 3.859376-4.503906 9.449219-7.191406 15.382813-7.425781 5.929687-.234375 11.6875 2.046875 15.890625 6.25l37.738281 37.738281c7.9375 7.9375 8.386719 20.695312.960938 29.144531-2.644531 3.007813-5.375 5.949219-8.253907 8.832031-2.882812 2.878907-5.804687 5.628907-8.8125 8.253907zm0 0"/></svg>