<svg height="469.33333pt" viewBox="0 0 469.33333 469.33333" width="469.33333pt" xmlns="http://www.w3.org/2000/svg"><path d="m362.667969 469.332031h-298.667969c-35.285156 0-64-28.714843-64-64v-298.664062c0-35.285157 28.714844-64 64-64h170.667969c11.773437 0 21.332031 9.535156 21.332031 21.332031s-9.558594 21.332031-21.332031 21.332031h-170.667969c-11.753906 0-21.332031 9.558594-21.332031 21.335938v298.664062c0 11.777344 9.578125 21.335938 21.332031 21.335938h298.667969c11.753906 0 21.332031-9.558594 21.332031-21.335938v-170.664062c0-11.796875 9.558594-21.335938 21.332031-21.335938 11.777344 0 21.335938 9.539063 21.335938 21.335938v170.664062c0 35.285157-28.714844 64-64 64zm0 0"/><path d="m448 0h-128c-8.617188 0-16.40625 5.183594-19.710938 13.164062-3.308593 7.976563-1.472656 17.152344 4.628907 23.25l48.917969 48.917969-155.585938 155.585938c-8.339844 8.339843-8.339844 21.824219 0 30.164062 4.160156 4.160157 9.621094 6.25 15.082031 6.25 5.460938 0 10.925781-2.089843 15.082031-6.25l155.585938-155.582031 48.917969 48.914062c4.074219 4.078126 9.535156 6.253907 15.082031 6.253907 2.753906 0 5.523438-.511719 8.171875-1.621094 7.957031-3.285156 13.160156-11.09375 13.160156-19.714844v-128c0-11.796875-9.554687-21.332031-21.332031-21.332031zm0 0"/></svg>