<svg height="490pt" viewBox="0 -33 490.65402 490" width="490pt" xmlns="http://www.w3.org/2000/svg"><path d="m469.320312 423.464844h-277.332031c-11.777343 0-21.335937-9.554688-21.335937-21.332032 0-11.777343 9.558594-21.332031 21.335937-21.332031h277.332031c11.777344 0 21.332032 9.554688 21.332032 21.332031 0 11.777344-9.554688 21.332032-21.332032 21.332032zm0 0"/><path d="m411.039062 42.582031-30.167968-30.167969c-16.125-16.128906-44.222656-16.105468-60.328125 0l-44.117188 44.117188 90.496094 90.496094 44.117187-44.117188c8.0625-8.042968 12.5-18.75 12.5-30.164062 0-11.390625-4.4375-22.101563-12.5-30.164063zm0 0"/><path d="m246.238281 86.71875-219.863281 219.863281c-1.40625 1.386719-2.386719 3.15625-2.835938 5.097657l-23.253906 98.664062c-.851562 3.585938.234375 7.382812 2.839844 9.984375 2.003906 2.027344 4.734375 3.136719 7.527344 3.136719.8125 0 1.644531-.085938 2.453125-.277344l98.667969-23.253906c1.921874-.445313 3.691406-1.429688 5.097656-2.835938l219.863281-219.859375zm0 0"/></svg>