<svg height="512pt" viewBox="0 0 512.00533 512" width="512pt" xmlns="http://www.w3.org/2000/svg"><path d="m346.671875.00390625c-91.15625 0-165.332031 74.17578175-165.332031 165.33203175s74.175781 165.332031 165.332031 165.332031 165.332031-74.175781 165.332031-165.332031-74.175781-165.33203175-165.332031-165.33203175zm0 95.99999975c-38.230469 0-69.332031 31.101563-69.332031 69.332032 0 8.832031-7.167969 16-16 16-8.832032 0-16-7.167969-16-16 0-55.871094 45.460937-101.332032 101.332031-101.332032 8.832031 0 16 7.167969 16 16 0 8.832032-7.167969 16-16 16zm0 0"/><path d="m185.390625 296.449219-179.132813 179.136719c-8.34375 8.34375-8.34375 21.824218 0 30.167968 4.15625 4.15625 9.621094 6.25 15.082032 6.25 5.460937 0 10.921875-2.09375 15.082031-6.25l179.136719-179.136718c-11.050782-9.003907-21.164063-19.117188-30.167969-30.167969zm0 0"/></svg>