<svg height="511pt" viewBox="0 0 511.99467 511" width="511pt" xmlns="http://www.w3.org/2000/svg"><path d="m501.0625 161.921875-150.847656-150.847656c-14.078125-14.101563-38.699219-14.101563-52.800782 0l-20.839843 20.839843c-14.722657 14.742188-19.777344 36.140626-13.207031 55.875 2.730468 8.167969.640624 17.023438-5.460938 23.125l-61.121094 61.160157c-5.054687 5.035156-11.730468 7.808593-18.855468 7.808593h-25.003907c-15.679687 0-30.421875 6.101563-41.472656 17.195313l-10.132813 10.113281c-7.0625 7.0625-10.945312 16.425782-10.945312 26.386719 0 9.964844 3.882812 19.351563 10.945312 26.390625l60.4375 60.4375-155.5 155.308594c-8.339843 8.320312-8.339843 21.824218-.019531 30.164062 4.179688 4.179688 9.640625 6.273438 15.101563 6.273438 5.460937 0 10.902344-2.09375 15.085937-6.230469l155.519531-155.328125 60.242188 60.246094c7.042969 7.058594 16.429688 10.941406 26.390625 10.941406 9.964844 0 19.351563-3.882812 26.390625-10.941406l10.132812-10.132813c11.09375-11.09375 17.195313-25.816406 17.195313-41.472656v-25.003906c0-7.019531 2.859375-13.886719 7.808594-18.859375l61.140625-61.140625c6.078125-6.101563 14.910156-8.214844 23.144531-5.460938 19.734375 6.570313 41.152344 1.492188 55.851563-13.207031l20.84375-20.839844c14.546874-14.550781 14.546874-38.230468-.023438-52.800781zm0 0"/></svg>