<svg height="512pt" viewBox="-21 0 512 512.17067" width="512pt" xmlns="http://www.w3.org/2000/svg"><path d="m234.753906 170.667969c-11.777344 0-21.335937-9.539063-21.335937-21.335938v-128c0-11.796875 9.558593-21.332031 21.335937-21.332031 11.773438 0 21.332032 9.535156 21.332032 21.332031v128c0 11.796875-9.558594 21.335938-21.332032 21.335938zm0 0"/><path d="m234.753906 512.171875c-129.386718 0-234.6679685-105.28125-234.6679685-234.667969 0-98.21875 62.0781245-186.902344 154.4960935-220.691406 11.027344-4.011719 23.316407 1.621094 27.347657 12.710938 4.054687 11.09375-1.640626 23.339843-12.714844 27.371093-75.625 27.648438-126.460938 100.226563-126.460938 180.609375 0 105.878906 86.140625 192 192 192 105.855469 0 192-86.121094 192-192 0-80.382812-50.839844-152.960937-126.488281-180.609375-11.070313-4.03125-16.765625-16.296875-12.714844-27.371093 4.054688-11.070313 16.300781-16.703126 27.351563-12.710938 92.4375 33.789062 154.515625 122.472656 154.515625 220.691406 0 129.386719-105.28125 234.667969-234.664063 234.667969zm0 0"/></svg>