<svg height="512pt" viewBox="0 0 512 512" width="512pt" xmlns="http://www.w3.org/2000/svg"><path d="m453.332031 128h-26.664062v-64c0-35.285156-28.714844-64-64-64h-213.335938c-35.285156 0-64 28.714844-64 64v64h-26.664062c-32.363281 0-58.667969 26.304688-58.667969 58.667969v138.664062c0 32.363281 26.304688 58.667969 58.667969 58.667969h26.664062v64c0 35.285156 28.714844 64 64 64h213.335938c35.285156 0 64-28.714844 64-64v-64h26.664062c32.363281 0 58.667969-26.304688 58.667969-58.667969v-138.664062c0-32.363281-26.304688-58.667969-58.667969-58.667969zm-325.332031-64c0-11.753906 9.558594-21.332031 21.332031-21.332031h213.335938c11.773437 0 21.332031 9.578125 21.332031 21.332031v64h-256zm256 384c0 2.667969-.617188 5.140625-1.515625 7.507812l-71.765625-82.023437c-3.050781-3.5-7.445312-5.484375-12.050781-5.484375-4.628907 0-9.023438 2.003906-12.035157 5.484375l-53.394531 61.140625-29.929687-29.933594c-5.996094-5.992187-16.621094-5.992187-22.636719 0l-51.113281 51.117188c-.941406-2.433594-1.558594-5.035156-1.558594-7.808594v-128h256zm0 0"/></svg>