<svg height="512pt" viewBox="0 0 512 512" width="512pt" xmlns="http://www.w3.org/2000/svg"><path d="m325.332031 384h-138.664062c-8.832031 0-16-7.167969-16-16s7.167969-16 16-16h138.664062c8.832031 0 16 7.167969 16 16s-7.167969 16-16 16zm0 0"/><path d="m325.332031 448h-138.664062c-8.832031 0-16-7.167969-16-16s7.167969-16 16-16h138.664062c8.832031 0 16 7.167969 16 16s-7.167969 16-16 16zm0 0"/><path d="m453.332031 128h-26.664062v-64c0-35.285156-28.714844-64-64-64h-213.335938c-35.285156 0-64 28.714844-64 64v64h-26.664062c-32.40625 0-58.667969 26.261719-58.667969 58.667969v138.664062c0 32.40625 26.261719 58.667969 58.667969 58.667969h26.664062v64c0 35.347656 28.652344 64 64 64h213.335938c35.347656 0 64-28.652344 64-64v-64h26.664062c32.40625 0 58.667969-26.261719 58.667969-58.667969v-138.664062c0-32.40625-26.261719-58.667969-58.667969-58.667969zm-325.332031-64c0-11.753906 9.558594-21.332031 21.332031-21.332031h213.335938c11.773437 0 21.332031 9.578125 21.332031 21.332031v64h-256zm256 384c0 11.753906-9.558594 21.332031-21.332031 21.332031h-213.335938c-11.773437 0-21.332031-9.578125-21.332031-21.332031v-128h256zm0 0"/></svg>