<svg height="512pt" viewBox="0 0 512 512.01805" width="512pt" xmlns="http://www.w3.org/2000/svg"><path d="m448.007812 512.019531h-384c-35.285156 0-63.9999995-28.714843-63.9999995-64v-170.667969c0-11.796874 9.5390625-21.332031 21.3359375-21.332031s21.332031 9.535157 21.332031 21.332031v170.667969c0 11.773438 9.558594 21.332031 21.332031 21.332031h384c11.777344 0 21.335938-9.558593 21.335938-21.332031v-298.667969c0-11.777343-9.558594-21.332031-21.335938-21.332031h-64c-11.796874 0-21.332031-9.539062-21.332031-21.335937s9.535157-21.332032 21.332031-21.332032h64c35.285157 0 64 28.714844 64 64v298.667969c0 35.285157-28.714843 64-64 64zm0 0"/><path d="m176.007812 85.351562h-5.332031v-69.332031c0-6.53125-3.96875-12.394531-10.027343-14.828125-6.058594-2.496094-12.992188-.980468-17.492188 3.710938l-138.667969 144c-5.972656 6.210937-5.972656 16 0 22.210937l138.667969 144c4.523438 4.691407 11.5 6.207031 17.492188 3.730469 6.058593-2.429688 10.027343-8.296875 10.027343-14.824219v-69.335937h25.34375c67.113281 0 127.425781 37.269531 157.417969 97.28125l.277344.535156c2.730468 5.523438 8.34375 8.851562 14.292968 8.851562 1.21875 0 2.453126-.148437 3.671876-.449218 7.230468-1.683594 12.328124-8.128906 12.328124-15.550782v-32c0-114.6875-93.3125-208-208-208zm0 0"/></svg>