<svg height="512pt" viewBox="0 0 512 512" width="512pt" xmlns="http://www.w3.org/2000/svg"><path d="m453.332031 0h-394.664062c-32.363281 0-58.667969 26.304688-58.667969 58.667969v394.664062c0 32.363281 26.304688 58.667969 58.667969 58.667969h394.664062c32.363281 0 58.667969-26.304688 58.667969-58.667969v-394.664062c0-32.363281-26.304688-58.667969-58.667969-58.667969zm-336 309.332031c-29.417969 0-53.332031-23.933593-53.332031-53.332031s23.914062-53.332031 53.332031-53.332031c29.421875 0 53.335938 23.933593 53.335938 53.332031s-23.914063 53.332031-53.335938 53.332031zm138.667969 0c-29.417969 0-53.332031-23.933593-53.332031-53.332031s23.914062-53.332031 53.332031-53.332031 53.332031 23.933593 53.332031 53.332031-23.914062 53.332031-53.332031 53.332031zm138.667969 0c-29.421875 0-53.335938-23.933593-53.335938-53.332031s23.914063-53.332031 53.335938-53.332031c29.417969 0 53.332031 23.933593 53.332031 53.332031s-23.914062 53.332031-53.332031 53.332031zm0 0"/></svg>