<svg height="512pt" viewBox="-21 0 512 512" width="512pt" xmlns="http://www.w3.org/2000/svg"><path d="m410.667969 64h-69.335938v-21.332031c0-23.53125-19.132812-42.667969-42.664062-42.667969h-128c-23.53125 0-42.667969 19.136719-42.667969 42.667969v21.332031h-69.332031c-32.363281 0-58.667969 26.304688-58.667969 58.667969v53.332031c0 8.832031 7.167969 16 16 16h26.667969v261.332031c0 32.363281 26.300781 58.667969 58.664062 58.667969h266.667969c32.363281 0 58.667969-26.304688 58.667969-58.667969v-261.332031h26.664062c8.832031 0 16-7.167969 16-16v-53.332031c0-32.363281-26.300781-58.667969-58.664062-58.667969zm-240 341.332031c0 11.777344-9.558594 21.335938-21.335938 21.335938-11.773437 0-21.332031-9.558594-21.332031-21.335938v-128c0-11.773437 9.558594-21.332031 21.332031-21.332031 11.777344 0 21.335938 9.558594 21.335938 21.332031zm0-362.664062h128v21.332031h-128zm85.332031 362.664062c0 11.777344-9.558594 21.335938-21.332031 21.335938-11.777344 0-21.335938-9.558594-21.335938-21.335938v-128c0-11.773437 9.558594-21.332031 21.335938-21.332031 11.773437 0 21.332031 9.558594 21.332031 21.332031zm85.332031 0c0 11.777344-9.554687 21.335938-21.332031 21.335938s-21.332031-9.558594-21.332031-21.335938v-128c0-11.773437 9.554687-21.332031 21.332031-21.332031s21.332031 9.558594 21.332031 21.332031zm0 0"/></svg>