<svg height="512pt" viewBox="-32 0 512 512" width="512pt" xmlns="http://www.w3.org/2000/svg"><path d="m410.667969 85.332031h-69.335938v154.667969c0 44.117188-35.902343 80-80 80h-101.332031v5.332031c0 20.589844 16.746094 37.335938 37.332031 37.335938h213.335938c20.585937 0 37.332031-16.746094 37.332031-37.335938v-202.664062c0-20.589844-16.746094-37.335938-37.332031-37.335938zm0 0"/><path d="m261.332031 277.332031c20.589844 0 37.335938-16.746093 37.335938-37.332031v-202.667969c0-20.585937-16.746094-37.332031-37.335938-37.332031h-224c-2.664062 0-5.054687.8125-7.273437 1.960938-2.667969-1.214844-5.589844-1.960938-8.726563-1.960938-11.796875 0-21.332031 9.558594-21.332031 21.332031v469.335938c0 11.773437 9.535156 21.332031 21.332031 21.332031s21.335938-9.558594 21.335938-21.332031v-213.335938zm0 0"/></svg>