<svg height="512pt" viewBox="0 0 512.00533 512" width="512pt" xmlns="http://www.w3.org/2000/svg"><path d="m505.75 475.585938-145.601562-145.597657c28.203124-34.839843 45.183593-79.105469 45.183593-127.320312 0-111.742188-90.921875-202.66406275-202.664062-202.66406275-111.746094 0-202.667969 90.92187475-202.667969 202.66406275 0 111.746093 90.921875 202.667969 202.667969 202.667969 48.210937 0 92.480469-16.980469 127.316406-45.183594l145.601563 145.601562c4.15625 4.15625 9.621093 6.25 15.082031 6.25 5.460937 0 10.921875-2.09375 15.082031-6.25 8.339844-8.34375 8.339844-21.824218 0-30.167968zm-223.082031-251.582032h-160c-11.777344 0-21.335938-9.558594-21.335938-21.335937 0-11.773438 9.558594-21.332031 21.335938-21.332031h160c11.773437 0 21.332031 9.558593 21.332031 21.332031 0 11.777343-9.558594 21.335937-21.332031 21.335937zm0 0"/></svg>