<svg id="bold_v2" enable-background="new 0 0 24 24" height="512" viewBox="0 0 24 24" width="512" xmlns="http://www.w3.org/2000/svg"><path d="m12 0c-7.514 0-12 3.572-12 9.555 0 6.578 8.61 14.445 12 14.445s12-7.867 12-14.445c0-5.983-4.486-9.555-12-9.555zm-9 9.3c0-1.847 1.503-3.35 3.35-3.35 1.869 0 4.65 2.781 4.65 4.65 0 .479-.175.906-.505 1.234-.754.749-2.147.819-3.377.819-.146 0-.288-.001-.428-.002l-.34-.001c-1.847 0-3.35-1.503-3.35-3.35zm14.28 7.497c-1.456 1.456-3.368 2.184-5.28 2.184s-3.824-.728-5.28-2.184c-.293-.293-.293-.768 0-1.061s.768-.293 1.061 0c2.326 2.326 6.113 2.326 8.439 0 .293-.293.768-.293 1.061 0s.292.768-.001 1.061zm.37-4.147-.341.002c-.14.001-.282.002-.428.002-1.23 0-2.623-.07-3.377-.819-.329-.328-.504-.755-.504-1.234 0-1.869 2.781-4.65 4.65-4.65 1.847-.001 3.35 1.502 3.35 3.349s-1.503 3.35-3.35 3.35z"/></svg>