<svg id="bold_v2" enable-background="new 0 0 24 24" height="512" viewBox="0 0 24 24" width="512" xmlns="http://www.w3.org/2000/svg"><path d="m21.941 11.048c-.756-3.061-2.884-5.581-5.698-6.867-.038-2.311-1.923-4.181-4.243-4.181s-4.205 1.87-4.243 4.181c-2.813 1.286-4.941 3.804-5.697 6.863-1.169.21-2.06 1.228-2.06 2.456s.891 2.246 2.06 2.456c1.104 4.467 5.135 7.794 9.94 7.794s8.836-3.327 9.94-7.794c1.169-.21 2.06-1.228 2.06-2.456s-.885-2.249-2.059-2.452zm-9.941-9.048c.964 0 1.783.614 2.102 1.469-.679-.142-1.382-.219-2.102-.219s-1.423.077-2.102.219c.319-.855 1.138-1.469 2.102-1.469zm0 19.75c-4.549 0-8.25-3.701-8.25-8.25s3.701-8.25 8.25-8.25c.648 0 1.277.083 1.882.225-.402.616-1.094 1.025-1.882 1.025-.553 0-1 .447-1 1s.447 1 1 1c1.649 0 3.066-.954 3.77-2.329 2.656 1.372 4.48 4.139 4.48 7.329 0 4.549-3.701 8.25-8.25 8.25z"/><path d="m12 15c-1.24 0-2.25 1.01-2.25 2.25v1.5c0 1.24 1.01 2.25 2.25 2.25s2.25-1.01 2.25-2.25v-1.5c0-1.24-1.01-2.25-2.25-2.25z"/><circle cx="8" cy="12.5" r="1.25"/><circle cx="16" cy="12.5" r="1.25"/></svg>