<svg id="bold_v2" enable-background="new 0 0 24 24" height="512" viewBox="0 0 24 24" width="512" xmlns="http://www.w3.org/2000/svg"><path d="m23.993 4.156c.002-.071-.006-.141-.025-.211-.005-.019-.006-.038-.012-.056-.026-.076-.063-.149-.114-.214-.004-.005-.009-.008-.013-.012-.013-.016-.03-.027-.044-.042-.047-.049-.099-.091-.156-.125-.025-.015-.049-.026-.076-.038-.061-.027-.124-.045-.19-.055-.018-.003-.032-.013-.051-.015-.007 0-.013.003-.02.003-.083-.005-.167.001-.249.024-.019.005-1.764.499-4.303.921l-1.611-2.927c-.475-.869-1.383-1.409-2.37-1.409h-5.518c-.987 0-1.895.54-2.369 1.406l-1.613 2.93c-2.445-.407-4.142-.877-4.276-.915-.005-.001-.009-.002-.014-.004-.001 0-.012-.003-.012-.003-.082-.023-.166-.029-.249-.024-.007.001-.014-.003-.021-.002-.017.001-.031.011-.048.014-.067.01-.13.028-.192.056-.027.011-.052.023-.076.037-.057.034-.108.076-.155.125-.015.015-.032.026-.045.043-.004.004-.01.007-.013.012-.051.065-.088.138-.114.214-.006.018-.007.038-.012.057-.018.069-.027.139-.025.21 0 .014-.006.027-.005.042.036.435.391 4.051 2.153 5.718-.427 1.151-.655 2.374-.655 3.634 0 5.79 4.71 10.5 10.5 10.5s10.5-4.71 10.5-10.5c0-1.26-.228-2.482-.656-3.635 1.762-1.667 2.117-5.283 2.153-5.718.002-.014-.005-.027-.004-.041zm-11.993 17.894c-4.687 0-8.5-3.813-8.5-8.5 0-1.657.497-3.23 1.395-4.605 2.128 1.196 4.51 1.81 7.105 1.81s4.976-.613 7.105-1.81c.898 1.375 1.395 2.948 1.395 4.605 0 4.686-3.813 8.5-8.5 8.5z"/><circle cx="8" cy="13" r="1.25"/><circle cx="16" cy="13" r="1.25"/><path d="m12 16.05c-1.378 0-2.5 1.278-2.5 2.851 0 1.571 1.122 2.85 2.5 2.85s2.5-1.278 2.5-2.85c0-1.573-1.122-2.851-2.5-2.851z"/></svg>