<svg id="bold_v2" enable-background="new 0 0 24 24" height="512" viewBox="0 0 24 24" width="512" xmlns="http://www.w3.org/2000/svg"><path d="m12 0c-6.617 0-12 5.383-12 12s5.383 12 12 12 12-5.383 12-12-5.383-12-12-12zm3.586 4.586c.779-.78 2.049-.78 2.828 0 .293.293.293.768 0 1.061-.146.146-.338.22-.53.22s-.384-.073-.53-.22c-.195-.194-.512-.194-.707 0-.293.293-.768.293-1.061 0s-.293-.768 0-1.061zm-10 0c.779-.78 2.049-.78 2.828 0 .293.293.293.768 0 1.061-.146.146-.338.22-.53.22s-.384-.074-.53-.221c-.195-.194-.512-.194-.707 0-.293.293-.768.293-1.061 0s-.293-.767 0-1.06zm1.414 7.414c-1.103 0-2-.897-2-2s.897-2 2-2 2 .897 2 2-.897 2-2 2zm5 8.95c-1.654 0-3-1.548-3-3.45s1.346-3.45 3-3.45 3 1.548 3 3.45-1.346 3.45-3 3.45zm5-8.95c-1.103 0-2-.897-2-2s.897-2 2-2 2 .897 2 2-.897 2-2 2z"/></svg>