<svg id="bold_v2" enable-background="new 0 0 24 24" height="512" viewBox="0 0 24 24" width="512" xmlns="http://www.w3.org/2000/svg"><path d="m12 0c-6.627 0-12 5.373-12 12s5.373 12 12 12 12-5.373 12-12-5.373-12-12-12zm2.334 5.959 2.5-1.667c.343-.23.81-.137 1.04.208s.137.81-.208 1.04l-2.5 1.667c-.128.085-.272.126-.416.126-.242 0-.48-.117-.625-.334-.229-.344-.136-.81.209-1.04zm-8.208-1.459c.229-.344.695-.438 1.04-.208l2.5 1.667c.345.23.438.695.208 1.04-.145.217-.382.334-.624.334-.143 0-.288-.041-.416-.126l-2.5-1.667c-.345-.229-.438-.695-.208-1.04zm-1.126 5.5c0-1.103.897-2 2-2s2 .897 2 2-.897 2-2 2-2-.897-2-2zm12.78 9.455c-.146.146-.338.22-.53.22s-.384-.073-.53-.22c-1.261-1.261-2.937-1.955-4.72-1.955s-3.459.694-4.72 1.955c-.293.293-.768.293-1.061 0s-.293-.768 0-1.061c1.545-1.544 3.597-2.394 5.781-2.394s4.236.85 5.78 2.395c.293.293.293.767 0 1.06zm-.78-7.455c-1.103 0-2-.897-2-2s.897-2 2-2 2 .897 2 2-.897 2-2 2z"/></svg>