<svg id="bold_v2" enable-background="new 0 0 24 24" height="512" viewBox="0 0 24 24" width="512" xmlns="http://www.w3.org/2000/svg"><path d="m12 24c6.627 0 12-5.373 12-12s-5.373-12-12-12-12 5.373-12 12 5.373 12 12 12zm7-14c0 1.103-.897 2-2 2s-2-.897-2-2 .897-2 2-2 2 .897 2 2zm-4.666-4.041 2.5-1.667c.343-.23.81-.137 1.04.208s.137.81-.208 1.04l-2.5 1.667c-.128.085-.272.126-.416.126-.242 0-.48-.117-.625-.334-.229-.344-.136-.81.209-1.04zm.666 11.541c0 1.902-1.346 3.45-3 3.45s-3-1.548-3-3.45 1.346-3.45 3-3.45 3 1.548 3 3.45zm-8.874-13c.23-.344.696-.438 1.04-.208l2.5 1.667c.345.23.438.695.208 1.04-.145.217-.382.334-.624.334-.143 0-.288-.041-.416-.126l-2.5-1.667c-.345-.229-.438-.695-.208-1.04zm.874 3.5c1.103 0 2 .897 2 2s-.897 2-2 2-2-.897-2-2 .897-2 2-2z"/></svg>