<svg id="bold_v2" enable-background="new 0 0 24 24" height="512" viewBox="0 0 24 24" width="512" xmlns="http://www.w3.org/2000/svg"><path d="m12 23.977c6.065 0 11-4.935 11-11 0-2.163-.636-4.176-1.719-5.879 1.269-2.249.844-5.119-1.117-6.882-.221-.198-.538-.249-.807-.127-.271.12-.445.389-.445.685 0 1.082-.439 2.079-1.185 2.83-1.67-1.025-3.627-1.627-5.727-1.627-2.108 0-4.072.606-5.746 1.638-.753-.753-1.196-1.754-1.196-2.842 0-.296-.174-.564-.445-.685-.269-.121-.586-.07-.807.128-1.968 1.769-2.388 4.654-1.102 6.907-1.073 1.697-1.704 3.701-1.704 5.854 0 6.065 4.935 11 11 11zm2.585-15.39c.019-.019.042-.032.061-.05.005-.006.007-.013.013-.019l2-2c.293-.293.768-.293 1.061 0s.293.768 0 1.061l-.707.707c.588.348.987.982.987 1.714 0 1.103-.897 2-2 2s-2-.897-2-2c0-.533.208-1.035.585-1.413zm2.695 9.616c.293.293.293.768 0 1.061-.146.146-.338.22-.53.22s-.384-.073-.53-.22c-2.327-2.326-6.112-2.326-8.439 0-.293.293-.768.293-1.061 0s-.293-.768 0-1.061c2.911-2.912 7.649-2.912 10.56 0zm-11-10.625c-.293-.293-.293-.768 0-1.061s.768-.293 1.061 0l2 2c.006.006.007.013.013.019.02.018.042.031.061.05.377.379.585.881.585 1.414 0 1.103-.897 2-2 2s-2-.897-2-2c0-.732.399-1.366.987-1.715z"/></svg>