<svg id="bold_v2" enable-background="new 0 0 24 24" height="512" viewBox="0 0 24 24" width="512" xmlns="http://www.w3.org/2000/svg"><path d="m12 0c-6.62 0-12 5.38-12 12s5.38 12 12 12 12-5.38 12-12-5.38-12-12-12zm2.49 7.71c.03-.04.06-.08.1-.12l2.08-2.09c.29-.29.77-.29 1.06 0 .29.3.29.77 0 1.06l-.71.72c.59.35.98.99.98 1.72 0 1.1-.9 2-2 2s-2-.9-2-2c0-.48.17-.94.49-1.29zm-8.22-1.15c-.29-.29-.29-.76 0-1.06.29-.29.77-.29 1.06 0l2.08 2.09c.04.04.07.08.1.12.32.35.49.81.49 1.29 0 1.1-.9 2-2 2s-2-.9-2-2c0-.73.39-1.37.98-1.72zm13.09 12.12c-.14.2-.37.32-.61.32h-13.5c-.24 0-.47-.12-.61-.32-.14-.19-.18-.45-.1-.68 1.11-3.16 4.11-5.28 7.46-5.28s6.35 2.12 7.46 5.28c.08.23.04.49-.1.68z"/></svg>