<svg id="bold_v2" enable-background="new 0 0 24 24" height="512" viewBox="0 0 24 24" width="512" xmlns="http://www.w3.org/2000/svg"><path d="m21.94 11.05c-.75-3.06-2.88-5.58-5.7-6.87-.04-2.31-1.92-4.18-4.24-4.18s-4.2 1.87-4.24 4.18c-2.82 1.29-4.94 3.8-5.7 6.86-1.17.21-2.06 1.23-2.06 2.46s.89 2.25 2.06 2.46c1.1 4.46 5.14 7.79 9.94 7.79 1.75 0 3.4-.44 4.85-1.23-.46-.5-.89-1.06-1.18-1.64-1.11.56-2.35.87-3.67.87-4.55 0-8.25-3.7-8.25-8.25s3.7-8.25 8.25-8.25c.65 0 1.28.08 1.88.23-.4.61-1.09 1.02-1.88 1.02-.55 0-1 .45-1 1s.45 1 1 1c1.65 0 3.07-.95 3.77-2.33 2.66 1.37 4.48 4.14 4.48 7.33 0 1.06-.2 2.06-.56 2.99.1.05.21.1.31.15.47-.25 1-.39 1.55-.39.1 0 .2 0 .3.02.04-.1.06-.2.09-.31 1.17-.21 2.06-1.23 2.06-2.46s-.88-2.25-2.06-2.45zm-9.94-7.8c-.72 0-1.42.08-2.1.22.32-.86 1.14-1.47 2.1-1.47s1.78.61 2.1 1.47c-.68-.14-1.38-.22-2.1-.22z"/><path d="m6 13c0 .414.336.75.75.75s.75-.336.75-.75c0-.275.224-.5.5-.5s.5.225.5.5c0 .414.336.75.75.75s.75-.336.75-.75c0-1.103-.897-2-2-2s-2 .897-2 2z"/><path d="m15.5 13c0-.275.224-.5.5-.5s.5.225.5.5c0 .414.336.75.75.75s.75-.336.75-.75c0-1.103-.897-2-2-2s-2 .897-2 2c0 .414.336.75.75.75s.75-.336.75-.75z"/><path d="m20 23.25s3.25-2.239 3.25-3.935c0-.863-.76-1.565-1.696-1.565-.695 0-1.294.386-1.554.939-.26-.553-.859-.939-1.554-.939-.935 0-1.696.702-1.696 1.565 0 1.696 3.25 3.935 3.25 3.935z"/><path d="m15 16.719c-.012-.295-.197-.556-.471-.665l-2.5-1c-.383-.15-.821.034-.975.418-.154.385.033.821.418.975l.949.38-1.006.503c-.254.126-.415.386-.415.67s.161.544.415.671l1.006.503-.949.38c-.385.153-.572.59-.418.975.117.293.399.471.696.471.093 0 .187-.018.278-.054l2.5-1c.274-.109.459-.37.471-.665s-.15-.57-.414-.702l-1.158-.579 1.158-.579c.265-.132.427-.407.415-.702z"/></svg>