<svg id="bold_v2" enable-background="new 0 0 24 24" height="512" viewBox="0 0 24 24" width="512" xmlns="http://www.w3.org/2000/svg"><path d="m23.97 3.95c-.01-.02-.01-.04-.01-.06-.03-.08-.07-.15-.12-.22 0 0-.01 0-.01-.01-.01-.01-.03-.02-.05-.04-.04-.05-.09-.09-.15-.13-.03-.01-.05-.02-.08-.03-.06-.03-.12-.05-.19-.06-.01 0-.03-.01-.05-.01 0 0-.01 0-.02 0-.08 0-.16 0-.25.02-.02.01-1.76.5-4.3.93l-1.61-2.93c-.48-.87-1.38-1.41-2.37-1.41h-5.52c-.99 0-1.89.54-2.37 1.41l-1.61 2.93c-2.45-.41-4.14-.88-4.28-.92h-.01l-.01-.01c-.09-.02-.17-.02-.25-.02-.01 0-.02 0-.02 0-.02 0-.03.01-.05.01-.07.01-.13.03-.19.06-.03.01-.05.02-.08.04-.06.03-.11.07-.15.12-.02.01-.04.03-.05.04 0 .01-.01.01-.01.01-.05.07-.09.14-.12.22 0 .02 0 .04-.01.06-.02.06-.02.13-.02.21 0 .01-.01.02-.01.04.04.43.39 4.05 2.16 5.72-.43 1.15-.66 2.37-.66 3.63 0 5.79 4.71 10.5 10.5 10.5 1.56 0 3.04-.34 4.37-.96-.46-.49-.9-1.05-1.23-1.65-.97.4-2.03.61-3.14.61-4.69 0-8.5-3.81-8.5-8.5 0-1.66.5-3.23 1.39-4.61 2.13 1.2 4.52 1.81 7.11 1.81s4.98-.61 7.1-1.81c.9 1.38 1.4 2.95 1.4 4.61 0 .73-.09 1.43-.26 2.11.42-.15.87-.23 1.31-.23.26 0 .52.02.77.08.12-.64.18-1.29.18-1.96 0-1.26-.23-2.48-.66-3.63 1.77-1.67 2.12-5.29 2.16-5.72 0-.02-.01-.03-.01-.04 0-.08 0-.15-.02-.21z"/><path d="m15.5 13.5c0-.551.448-1 1-1s1 .449 1 1c0 .414.336.75.75.75s.75-.336.75-.75c0-1.378-1.121-2.5-2.5-2.5s-2.5 1.122-2.5 2.5c0 .414.336.75.75.75s.75-.336.75-.75z"/><path d="m5.029 13.5c0 .414.336.75.75.75s.75-.336.75-.75c0-.551.448-1 1-1s1 .449 1 1c0 .414.336.75.75.75s.75-.336.75-.75c0-1.378-1.121-2.5-2.5-2.5s-2.5 1.122-2.5 2.5z"/><path d="m21.555 16.929c-.579 0-1.125.194-1.555.531-.43-.337-.976-.531-1.555-.531-1.349 0-2.445 1.048-2.445 2.335 0 2.007 2.975 4.186 3.57 4.602.129.089.28.134.43.134s.301-.045.43-.135c.596-.416 3.57-2.595 3.57-4.602 0-1.286-1.097-2.334-2.445-2.334z"/><path d="m14.499 17.461c-.016-.298-.206-.559-.485-.663l-2-.75c-.388-.143-.819.051-.966.438-.146.388.051.82.438.966l.39.146-.461.23c-.255.128-.415.388-.415.672s.16.544.415.671l.461.23-.39.146c-.388.146-.584.578-.438.966.113.301.398.487.702.487.088 0 .177-.016.264-.048l2-.75c.279-.104.47-.365.485-.663s-.146-.576-.414-.71l-.658-.329.658-.329c.268-.134.43-.412.414-.71z"/></svg>