<svg id="bold_v2" enable-background="new 0 0 24 24" height="512" viewBox="0 0 24 24" width="512" xmlns="http://www.w3.org/2000/svg"><path d="m22.51 16.186c.31-1.01.49-2.076.49-3.186 0-2.174-.642-4.196-1.734-5.904 1.284-2.248.865-5.127-1.103-6.902-.221-.199-.537-.248-.807-.129-.271.121-.445.39-.445.686 0 1.098-.453 2.103-1.222 2.853-1.663-1.011-3.606-1.604-5.689-1.604-2.094 0-4.045.599-5.713 1.618-.772-.756-1.227-1.766-1.227-2.868 0-.296-.174-.564-.444-.685-.271-.121-.585-.072-.807.126-1.983 1.78-2.398 4.672-1.092 6.932-1.081 1.703-1.717 3.715-1.717 5.877 0 6.065 4.935 11 11 11 2.363 0 4.55-.754 6.345-2.027.543.474 1.022.822 1.225.964.129.09.279.135.43.135s.301-.045.43-.135c.596-.416 3.57-2.595 3.57-4.601 0-.964-.615-1.794-1.49-2.15zm-14.51-4.186c-1.103 0-2-.897-2-2 0-.732.399-1.366.987-1.715l-.707-.707c-.293-.293-.293-.768 0-1.061s.768-.293 1.061 0l2 2c.005.006.007.013.012.019.02.018.042.031.061.05.378.378.586.88.586 1.414 0 1.103-.897 2-2 2zm6.636 6.356c.234.142.374.398.363.672-.01.274-.169.521-.414.643l-2.5 1.25c-.107.054-.222.079-.334.079-.275 0-.54-.151-.672-.415-.186-.37-.035-.82.336-1.006l1.277-.639-1.328-.797c-.225-.135-.364-.379-.364-.643s.139-.508.364-.644l1.328-.797-1.277-.639c-.371-.186-.521-.636-.336-1.006.187-.371.637-.52 1.006-.336l2.5 1.25c.245.122.404.368.414.643.011.273-.129.53-.363.672l-1.428.857zm1.364-6.356c-1.103 0-2-.897-2-2 0-.534.208-1.036.586-1.414.019-.019.042-.032.061-.05.005-.005.007-.013.012-.018l2-2c.293-.293.768-.293 1.061 0s.293.768 0 1.061l-.707.707c.588.348.987.982.987 1.714 0 1.103-.897 2-2 2zm4 9.39c-1.153-.89-2.5-2.246-2.5-3.054 0-.461.424-.836.945-.836.386 0 .729.203.874.517.246.529 1.115.529 1.361 0 .146-.313.488-.517.874-.517.521 0 .945.375.945.836.001.808-1.346 2.164-2.499 3.054z"/></svg>