<svg id="bold_v2" enable-background="new 0 0 24 24" height="512" viewBox="0 0 24 24" width="512" xmlns="http://www.w3.org/2000/svg"><path d="m22 10.867v-2.78c0-5.31-5.026-8.087-9.99-8.087-4.821 0-10.01 2.527-10.01 8.075v2.792c-1.151.329-2 1.378-2 2.633 0 1.401 1.056 2.547 2.412 2.716 1.167 4.136 4.734 7.784 9.598 7.784 4.857 0 8.419-3.649 9.582-7.784 1.353-.171 2.408-1.316 2.408-2.716 0-1.255-.849-2.304-2-2.633zm-9.99 11.633c-4.653 0-7.901-3.972-8.426-8.044l1.024-3.599c.891-.282 2.886-1.083 3.76-2.774 1.345 1.271 4.359 2.831 11.068 2.914l.988 3.423c-.506 4.083-3.754 8.08-8.414 8.08z"/><path d="m13.979 17.71c-1.091 1.055-2.867 1.055-3.958 0-.298-.285-.773-.28-1.061.02-.288.298-.279.772.019 1.061.833.804 1.927 1.205 3.021 1.205s2.188-.401 3.021-1.205c.298-.288.306-.763.019-1.061-.288-.3-.762-.305-1.061-.02z"/><circle cx="8" cy="13.5" r="1.5"/><circle cx="16" cy="13.5" r="1.5"/></svg>