<svg id="bold_v2" enable-background="new 0 0 24 24" height="512" viewBox="0 0 24 24" width="512" xmlns="http://www.w3.org/2000/svg"><path d="m10.75 16.75h2.5v2.25h-2.5z"/><path d="m12 0c-6.62 0-12 5.38-12 12s5.38 12 12 12 12-5.38 12-12-5.38-12-12-12zm-7 9.5c0-1.38 1.12-2.5 2.5-2.5s2.5 1.12 2.5 2.5c0 .41-.34.75-.75.75s-.75-.34-.75-.75c0-.55-.45-1-1-1s-1 .45-1 1c0 .41-.34.75-.75.75s-.75-.34-.75-.75zm12.5 7.25h-2.25v2.25c0 1.1-.9 2-2 2h-2.5c-1.1 0-2-.9-2-2v-2.25h-2.25c-.55 0-1-.45-1-1s.45-1 1-1h11c.55 0 1 .45 1 1s-.45 1-1 1zm.75-6.5c-.41 0-.75-.34-.75-.75 0-.55-.45-1-1-1s-1 .45-1 1c0 .41-.34.75-.75.75s-.75-.34-.75-.75c0-1.38 1.12-2.5 2.5-2.5s2.5 1.12 2.5 2.5c0 .41-.34.75-.75.75z"/></svg>