<svg id="bold_v2" enable-background="new 0 0 24 24" height="512" viewBox="0 0 24 24" width="512" xmlns="http://www.w3.org/2000/svg"><path d="m12 24c6.62 0 12-5.38 12-12s-5.38-12-12-12-12 5.38-12 12 5.38 12 12 12zm5-17c1.1 0 2 .9 2 2s-.9 2-2 2-2-.9-2-2 .9-2 2-2zm-5 8.784 2.681-1.856c.455-.315 1.076-.201 1.392.253.314.454.201 1.077-.253 1.392l-2.063 1.427 2.062 1.428c.454.314.567.938.253 1.392-.194.28-.506.431-.823.431-.196 0-.395-.058-.568-.178l-2.681-1.857-2.681 1.856c-.174.12-.372.178-.568.178-.317 0-.629-.15-.823-.431-.314-.454-.201-1.077.253-1.392l2.062-1.427-2.062-1.428c-.454-.314-.567-.938-.253-1.392s.936-.568 1.392-.253zm-5-8.784c1.1 0 2 .9 2 2s-.9 2-2 2-2-.9-2-2 .9-2 2-2z"/></svg>