<svg id="bold_v2" enable-background="new 0 0 24 24" height="512" viewBox="0 0 24 24" width="512" xmlns="http://www.w3.org/2000/svg"><path d="m12 0c-5.651 0-10.316 4.285-10.928 9.776.519-.303 1.115-.485 1.752-.485 1.035 0 1.989.433 2.616 1.188.567.685.812 1.538.673 2.344l-.876 6.837c1.902 1.501 4.25 2.34 6.763 2.34.53 0 1.052-.048 1.568-.123l.747 1.678c.113.255.358.426.636.443.016.001.033.002.049.002.26 0 .503-.135.64-.358l1.958-3.197c.479-.286.94-.603 1.373-.959l-1.023-7.5c-.128-.942.157-1.893.782-2.608.61-.698 1.514-1.098 2.479-1.098.548 0 1.069.141 1.535.38-1.077-4.944-5.482-8.66-10.744-8.66zm-7 6.25c0-.414.336-.75.75-.75s.75-.337.75-.75c0-.414.336-.75.75-.75s.75.336.75.75c0 1.24-1.009 2.25-2.25 2.25-.414 0-.75-.336-.75-.75zm1 2.75c0-1.103.897-2 2-2s2 .897 2 2-.897 2-2 2-2-.897-2-2zm12 6.375c0 1.31-1.065 2.375-2.375 2.375h-7.25c-1.31 0-2.375-1.065-2.375-2.375s1.065-2.375 2.375-2.375h7.25c1.31 0 2.375 1.065 2.375 2.375zm-2-4.375c-1.103 0-2-.897-2-2s.897-2 2-2 2 .897 2 2-.897 2-2 2zm2.25-4c-1.241 0-2.25-1.01-2.25-2.25 0-.414.336-.75.75-.75s.75.336.75.75c0 .413.336.75.75.75s.75.336.75.75-.336.75-.75.75z"/><path d="m19.859 10.363c-.34.39-.495.907-.425 1.42l1.3 9.534c.034.248.246.433.496.433.251-.001.462-.187.495-.435l1.259-9.54c.067-.512-.089-1.027-.429-1.415-.681-.776-2.015-.775-2.696.003z"/><path d="m1.011 12.525 1.219 11.03c.028.252.24.443.493.445h.004c.251 0 .464-.187.496-.437l1.411-10.994c.064-.375-.062-.786-.349-1.132-.71-.855-2.188-.864-2.909-.015-.29.343-.422.754-.365 1.103z"/></svg>