<svg id="bold_v2" enable-background="new 0 0 24 24" height="512" viewBox="0 0 24 24" width="512" xmlns="http://www.w3.org/2000/svg"><path d="m12 0c-6.62 0-12 5.38-12 12s5.38 12 12 12 12-5.38 12-12-5.38-12-12-12zm2.32 7.89 2.5-1.75c.34-.24.81-.16 1.04.18.24.34.16.81-.18 1.04l-.43.3-1.19.84 1.19.84.43.3c.34.23.42.7.18 1.04-.14.21-.37.32-.61.32-.15 0-.3-.04-.43-.14l-2.5-1.75c-.2-.14-.32-.37-.32-.61s.12-.47.32-.61zm-7.57-.23-.43-.3c-.34-.23-.42-.7-.18-1.04.23-.34.7-.42 1.04-.18l2.5 1.75c.2.14.32.37.32.61s-.12.47-.32.61l-2.5 1.75c-.13.1-.28.14-.43.14-.24 0-.47-.11-.61-.32-.24-.34-.16-.81.18-1.04l.43-.3 1.19-.84zm11.878 10.069c-.182.333-.525.521-.879.521-.162 0-.326-.039-.478-.122l-2.291-1.25-2.533 1.267c-.281.141-.613.141-.895 0l-2.532-1.267-2.291 1.25c-.485.266-1.092.086-1.357-.399s-.086-1.092.399-1.357l2.75-1.5c.288-.156.633-.163.926-.017l2.553 1.277 2.553-1.276c.293-.146.638-.14.926.017l2.75 1.5c.485.264.664.871.399 1.356z"/></svg>