<svg id="bold_v2" enable-background="new 0 0 24 24" height="512" viewBox="0 0 24 24" width="512" xmlns="http://www.w3.org/2000/svg"><path d="m12 0c-6.617 0-12 5.383-12 12s5.383 12 12 12 12-5.383 12-12-5.383-12-12-12zm-7 9.065c0-1.103.897-2 2-2s2 .897 2 2-.897 2-2 2-2-.897-2-2zm11.566 7.467-8.5 2.833c-.105.035-.212.052-.316.052-.419 0-.809-.265-.949-.684-.175-.524.108-1.09.632-1.265l8.5-2.833c.525-.176 1.09.108 1.265.632s-.108 1.09-.632 1.265zm.434-5.467c-1.103 0-2-.897-2-2s.897-2 2-2 2 .897 2 2-.897 2-2 2z"/></svg>