<svg id="bold_v2" enable-background="new 0 0 24 24" height="512" viewBox="0 0 24 24" width="512" xmlns="http://www.w3.org/2000/svg"><path d="m13.979 18.71c-1.091 1.055-2.867 1.055-3.958 0-.298-.286-.773-.28-1.061.02-.288.298-.279.772.019 1.061.833.804 1.927 1.205 3.021 1.205s2.188-.401 3.021-1.205c.298-.288.306-.763.019-1.061-.288-.3-.762-.306-1.061-.02z"/><path d="m21.661 8.016c-.817-3.214-3.157-5.79-6.286-6.904-.255-.649-.886-1.112-1.625-1.112h-3.5c-.739 0-1.37.463-1.626 1.112-3.129 1.114-5.469 3.69-6.286 6.904-1.301.085-2.338 1.16-2.338 2.484 0 .75.339 1.416.864 1.875-.525.459-.864 1.125-.864 1.875 0 1.379 1.122 2.5 2.5 2.5.029 0 .056-.007.085-.008 1.312 3.914 4.769 7.258 9.425 7.258 4.649 0 8.101-3.345 9.409-7.258.027.001.054.008.081.008 1.378 0 2.5-1.121 2.5-2.5 0-.75-.339-1.416-.864-1.875.525-.459.864-1.125.864-1.875 0-1.324-1.037-2.399-2.339-2.484zm-11.661-6.25c.001-.01.004-.019.005-.029.008-.131.112-.237.245-.237h3.5c.133 0 .237.106.245.237.001.01.004.019.005.029v6.234h-4zm2.01 20.734c-4.159 0-7.2-3.172-8.174-6.754l1.49-2.746h13.384l1.481 2.647c-.941 3.621-3.991 6.853-8.181 6.853zm9.49-11h-19c-.551 0-1-.448-1-1s.449-1 1-1h6.75 5.5 6.75c.551 0 1 .448 1 1s-.449 1-1 1z"/><circle cx="8.5" cy="15.5" r="1.5"/><circle cx="15.5" cy="15.5" r="1.5"/></svg>