<svg id="bold_v2" enable-background="new 0 0 24 24" height="512" viewBox="0 0 24 24" width="512" xmlns="http://www.w3.org/2000/svg"><path d="m12 0c-6.62 0-12 5.38-12 12s5.38 12 12 12 12-5.38 12-12-5.38-12-12-12zm7.431 17.595c-1.67 2.289-4.354 3.655-7.181 3.655-.552 0-1-.448-1-1s.448-1 1-1c2.189 0 4.27-1.06 5.565-2.834.325-.446.951-.544 1.397-.218s.544.951.219 1.397zm2.069-9.675c0 2.11-.97 6.1-4.64 6.1-2.46 0-4.02-1.56-4.86-3.1-.84 1.54-2.4 3.1-4.86 3.1-3.67 0-4.64-3.99-4.64-6.1 0-.38.28-.7.66-.74.25-.04 5.93-.72 8.84.84 2.91-1.56 8.59-.88 8.84-.84.38.04.66.36.66.74z"/></svg>