<svg id="bold_v2" enable-background="new 0 0 24 24" height="512" viewBox="0 0 24 24" width="512" xmlns="http://www.w3.org/2000/svg"><path d="m12 24c6.065 0 11-4.935 11-11 0-2.174-.642-4.196-1.734-5.904 1.284-2.248.865-5.127-1.103-6.902-.221-.199-.537-.248-.807-.129-.271.121-.445.39-.445.686 0 1.098-.453 2.103-1.222 2.853-1.663-1.011-3.606-1.604-5.689-1.604-2.094 0-4.045.599-5.713 1.618-.772-.756-1.227-1.766-1.227-2.868 0-.296-.174-.564-.444-.685-.271-.121-.585-.072-.807.126-1.983 1.78-2.398 4.672-1.092 6.932-1.081 1.703-1.717 3.715-1.717 5.877 0 6.065 4.935 11 11 11zm7.25-7.75c0 1.24-1.01 2.25-2.25 2.25s-2.25-1.01-2.25-2.25c0-.958 1.142-2.716 1.633-3.426.279-.406.955-.406 1.234 0 .491.71 1.633 2.468 1.633 3.426zm-4.664-7.664c.019-.019.042-.032.061-.05.005-.005.007-.013.012-.018l2-2c.293-.293.768-.293 1.061 0s.293.768 0 1.061l-.707.707c.588.348.987.982.987 1.714 0 1.103-.897 2-2 2s-2-.897-2-2c0-.534.208-1.036.586-1.414zm.944 10.676c.293.293.293.768 0 1.061-.146.146-.338.22-.53.22s-.384-.073-.53-.22c-1.361-1.361-3.578-1.361-4.939 0-.293.293-.768.293-1.061 0s-.293-.768 0-1.061c1.947-1.948 5.113-1.948 7.06 0zm-9.25-11.684c-.293-.293-.293-.768 0-1.061s.768-.293 1.061 0l2 2c.005.006.007.013.012.019.02.018.042.031.061.05.378.378.586.88.586 1.414 0 1.103-.897 2-2 2s-2-.897-2-2c0-.732.399-1.366.987-1.715z"/></svg>