<svg id="bold_v2" enable-background="new 0 0 24 24" height="512" viewBox="0 0 24 24" width="512" xmlns="http://www.w3.org/2000/svg"><path d="m7 21.23v-12.73h-1.5v11.74.94.16c0 .22-.1.43-.26.57.55.38 1.14.72 1.76 1v-.84z"/><path d="m18.5 20.24v-11.74h-1.5v12.73.84.84c.62-.28 1.21-.62 1.76-1-.16-.14-.26-.35-.26-.57v-.16z"/><path d="m12 0c-6.62 0-12 5.38-12 12 0 3.55 1.54 6.74 4 8.93v-1.03-1.11-10.29h-.25c-.41 0-.75-.34-.75-.75s.34-.75.75-.75h5.5c.41 0 .75.34.75.75s-.34.75-.75.75h-.75v13.4.79.47c0 .11-.02.21-.07.3 1.13.35 2.33.54 3.57.54s2.44-.19 3.57-.54c-.05-.09-.07-.19-.07-.3v-.47-.79-13.4h-.75c-.41 0-.75-.34-.75-.75s.34-.75.75-.75h5.5c.41 0 .75.34.75.75s-.34.75-.75.75h-.25v10.29 1.11 1.03c2.46-2.19 4-5.38 4-8.93 0-6.62-5.38-12-12-12zm3 17.05v.9c0 1.65-1.35 3-3 3s-3-1.35-3-3v-.9c0-1.65 1.35-3 3-3s3 1.35 3 3z"/></svg>