<svg id="bold_v2" enable-background="new 0 0 24 24" height="512" viewBox="0 0 24 24" width="512" xmlns="http://www.w3.org/2000/svg"><path d="m12 24c6.065 0 11-4.935 11-11 0-2.174-.642-4.196-1.734-5.904 1.284-2.248.865-5.127-1.103-6.902-.221-.199-.537-.248-.807-.129-.271.121-.445.39-.445.686 0 1.098-.453 2.103-1.222 2.853-1.663-1.011-3.606-1.604-5.689-1.604-2.094 0-4.045.599-5.713 1.618-.772-.756-1.227-1.766-1.227-2.868 0-.296-.174-.564-.444-.685-.271-.121-.585-.072-.807.126-1.983 1.78-2.398 4.672-1.092 6.932-1.081 1.703-1.717 3.715-1.717 5.877 0 6.065 4.935 11 11 11zm2.22-13.97c-.293-.293-.293-.768 0-1.061s.768-.293 1.061 0l.719.72.72-.72c.293-.293.768-.293 1.061 0s.293.768 0 1.061l-.72.72.72.72c.293.293.293.768 0 1.061-.146.146-.338.22-.53.22s-.384-.073-.53-.22l-.721-.72-.72.72c-.146.146-.338.22-.53.22s-.384-.073-.53-.22c-.293-.293-.293-.768 0-1.061l.72-.72zm-8 .25c-.293-.293-.293-.768 0-1.061s.768-.293 1.061 0l.719.72.72-.72c.293-.293.768-.293 1.061 0s.293.768 0 1.061l-.72.72.72.72c.293.293.293.768 0 1.061-.147.146-.339.219-.531.219s-.384-.073-.53-.22l-.72-.719-.72.72c-.146.146-.338.219-.53.219s-.384-.073-.53-.22c-.293-.293-.293-.768 0-1.061l.719-.719z"/></svg>