<svg id="bold_v2" enable-background="new 0 0 24 24" height="512" viewBox="0 0 24 24" width="512" xmlns="http://www.w3.org/2000/svg"><path d="m12 0c-6.627 0-12 5.373-12 12s5.373 12 12 12 12-5.373 12-12-5.373-12-12-12zm-2.22 10.72c.293.293.293.768 0 1.061-.146.146-.338.219-.53.219s-.384-.073-.53-.22l-1.22-1.22-1.22 1.22c-.146.147-.338.22-.53.22s-.384-.073-.53-.22c-.293-.293-.293-.768 0-1.061l1.22-1.22-1.22-1.219c-.293-.293-.293-.768 0-1.061s.768-.293 1.061 0l1.22 1.22 1.22-1.22c.293-.293.768-.293 1.061 0s.293.768 0 1.061l-1.221 1.22zm9 0c.293.293.293.768 0 1.061-.146.146-.338.219-.53.219s-.384-.073-.53-.22l-1.22-1.22-1.22 1.22c-.146.147-.338.22-.53.22s-.384-.073-.53-.22c-.293-.293-.293-.768 0-1.061l1.22-1.22-1.22-1.22c-.293-.293-.293-.768 0-1.061s.768-.293 1.061 0l1.22 1.22 1.22-1.22c.293-.293.768-.293 1.061 0s.293.768 0 1.061l-1.22 1.22z"/></svg>