<svg id="bold_v2" enable-background="new 0 0 24 24" height="512" viewBox="0 0 24 24" width="512" xmlns="http://www.w3.org/2000/svg"><path d="m12 0c-6.62 0-12 5.38-12 12s5.38 12 12 12 12-5.38 12-12-5.38-12-12-12zm-3.22 9.72c.29.29.29.77 0 1.06-.15.15-.34.22-.53.22s-.38-.07-.53-.22l-.72-.72-.72.72c-.15.15-.34.22-.53.22s-.38-.07-.53-.22c-.29-.29-.29-.77 0-1.06l.72-.72-.72-.72c-.29-.29-.29-.77 0-1.06s.77-.29 1.06 0l.72.72.72-.72c.29-.29.77-.29 1.06 0s.29.77 0 1.06l-.72.72zm3.22 11.23c-1.65 0-3-1.55-3-3.45s1.35-3.45 3-3.45 3 1.55 3 3.45-1.35 3.45-3 3.45zm6.78-11.23c.29.29.29.77 0 1.06-.15.15-.34.22-.53.22s-.38-.07-.53-.22l-.72-.72-.72.72c-.15.15-.34.22-.53.22s-.38-.07-.53-.22c-.29-.29-.29-.77 0-1.06l.72-.72-.72-.72c-.29-.29-.29-.77 0-1.06s.77-.29 1.06 0l.72.72.72-.72c.29-.29.77-.29 1.06 0s.29.77 0 1.06l-.72.72z"/></svg>