<svg id="bold_v2" enable-background="new 0 0 24 24" height="512" viewBox="0 0 24 24" width="512" xmlns="http://www.w3.org/2000/svg"><path d="m12 24c6.62 0 12-5.38 12-12s-5.38-12-12-12-12 5.38-12 12 5.38 12 12 12zm0-2.78c-2.935 0-5.592-1.422-7.222-3.72h14.443c-1.629 2.298-4.286 3.72-7.221 3.72zm4.25-15.138v-.332c0-.414.336-.75.75-.75s.75.336.75.75v.25h.5c.414 0 .75.336.75.75s-.336.75-.75.75h-1.5c-.138 0-.25.112-.25.25s.112.25.25.25h.5c.965 0 1.75.785 1.75 1.75 0 .79-.53 1.452-1.25 1.668v.332c0 .414-.336.75-.75.75s-.75-.336-.75-.75v-.25h-.497c-.414 0-.75-.336-.75-.75s.336-.75.75-.75h1.497c.138 0 .25-.112.25-.25s-.112-.25-.25-.25h-.5c-.965 0-1.75-.785-1.75-1.75 0-.79.53-1.452 1.25-1.668zm-10 0v-.332c0-.414.336-.75.75-.75s.75.336.75.75v.25h.5c.414 0 .75.336.75.75s-.336.75-.75.75h-1.5c-.138 0-.25.112-.25.25s.112.25.25.25h.5c.965 0 1.75.785 1.75 1.75 0 .79-.53 1.452-1.25 1.668v.332c0 .414-.336.75-.75.75s-.75-.336-.75-.75v-.25h-.497c-.414 0-.75-.336-.75-.75s.336-.75.75-.75h1.497c.138 0 .25-.112.25-.25s-.112-.25-.25-.25h-.5c-.965 0-1.75-.785-1.75-1.75 0-.79.53-1.452 1.25-1.668zm-2.6 8.228c.14-.2.36-.31.6-.31h15.5c.24 0 .46.11.6.31.15.19.19.43.12.66-.11.356-.247.697-.397 1.03h-16.146c-.15-.333-.287-.674-.397-1.03-.07-.23-.03-.47.12-.66z"/></svg>