<svg id="bold_v2" enable-background="new 0 0 24 24" height="512" viewBox="0 0 24 24" width="512" xmlns="http://www.w3.org/2000/svg"><path d="m4.409 8.776c-.007.009-.009.02-.016.029s-.018.013-.024.022c-.453.617-.829 1.281-1.117 1.968-.499 1.164-.752 2.406-.752 3.69 0 5.238 4.262 9.5 9.5 9.5s9.5-4.262 9.5-9.5c0-1.284-.253-2.526-.75-3.685-.29-.692-.667-1.356-1.119-1.974-.007-.009-.017-.013-.024-.022s-.009-.02-.016-.029c-.471-.538-.995-1.019-1.56-1.44.182.04.365.066.551.066 1.486 0 2.694-1.209 2.694-2.694s-1.208-2.694-2.694-2.694c-.259 0-.515.039-.766.115-.768-.776-1.888-1.171-2.969-1.07-1.65-1.281-4.045-1.281-5.695 0-1.052-.1-2.134.27-2.907 1.019-1.665-.369-3.259.958-3.259 2.632 0 1.565 1.378 2.811 2.94 2.663-.547.413-1.058.88-1.517 1.404zm3.591 6.724c-.828 0-1.5-.672-1.5-1.5s.672-1.5 1.5-1.5 1.5.672 1.5 1.5-.672 1.5-1.5 1.5zm8 0c-.828 0-1.5-.672-1.5-1.5s.672-1.5 1.5-1.5 1.5.672 1.5 1.5-.672 1.5-1.5 1.5zm-1.792-6.721c.226-.123.439-.264.642-.421.322.031.682.022.942-.03.251-.04.492-.114.727-.204.472.293.919.629 1.33 1.012-1.12.658-2.343 1.083-3.64 1.319v-1.676zm-2.208 7.251c1.378 0 2.5 1.278 2.5 2.85s-1.122 2.851-2.5 2.851-2.5-1.278-2.5-2.851c0-1.571 1.121-2.85 2.5-2.85zm-4.521-7.905c.227.088.459.16.698.197.309.062.651.068.973.036.202.157.416.298.642.421v1.675c-1.297-.236-2.52-.661-3.64-1.319.41-.381.856-.718 1.327-1.01z"/></svg>