<svg id="bold_v2" enable-background="new 0 0 24 24" height="512" viewBox="0 0 24 24" width="512" xmlns="http://www.w3.org/2000/svg"><path d="m12 0c-6.617 0-12 5.383-12 12s5.383 12 12 12 12-5.383 12-12-5.383-12-12-12zm2.75 6.75c.414 0 .75.336.75.75 0 .551.448 1 1 1s1-.449 1-1c0-.414.336-.75.75-.75s.75.336.75.75c0 1.378-1.121 2.5-2.5 2.5s-2.5-1.122-2.5-2.5c0-.414.336-.75.75-.75zm-9 0c.414 0 .75.336.75.75 0 .551.448 1 1 1s1-.449 1-1c0-.414.336-.75.75-.75s.75.336.75.75c0 1.378-1.121 2.5-2.5 2.5s-2.5-1.122-2.5-2.5c0-.414.336-.75.75-.75zm13.611 11.964c-.141.199-.368.316-.611.316h-13.5c-.243 0-.471-.118-.611-.316-.141-.198-.177-.452-.097-.682 1.108-3.159 4.105-5.282 7.458-5.282s6.35 2.123 7.458 5.282c.08.23.044.484-.097.682z"/></svg>