<svg id="bold_v2" enable-background="new 0 0 24 24" height="512" viewBox="0 0 24 24" width="512" xmlns="http://www.w3.org/2000/svg"><path d="m21.266 7.096c1.284-2.248.865-5.127-1.103-6.902-.221-.199-.537-.248-.807-.129-.271.121-.445.39-.445.686 0 1.098-.453 2.103-1.222 2.853-1.663-1.011-3.606-1.604-5.689-1.604-2.094 0-4.045.599-5.713 1.618-.772-.756-1.227-1.766-1.227-2.868 0-.296-.174-.564-.444-.685-.271-.121-.585-.072-.807.126-1.983 1.78-2.398 4.672-1.092 6.932-1.081 1.703-1.717 3.715-1.717 5.877 0 6.065 4.935 11 11 11s11-4.935 11-11c0-2.174-.642-4.196-1.734-5.904zm-6.68 1.49c.019-.019.042-.032.061-.05.005-.005.007-.013.012-.018l2-2c.293-.293.768-.293 1.061 0s.293.768 0 1.061l-.707.707c.588.348.987.982.987 1.714 0 1.103-.897 2-2 2s-2-.897-2-2c0-.534.208-1.036.586-1.414zm-8.306-1.008c-.293-.293-.293-.768 0-1.061s.768-.293 1.061 0l2 2c.005.006.007.013.012.019.02.018.042.031.061.05.378.378.586.88.586 1.414 0 1.103-.897 2-2 2s-2-.897-2-2c0-.732.399-1.366.987-1.715zm13.081 11.106c-.14.198-.368.316-.611.316h-13.5c-.243 0-.471-.118-.611-.316s-.177-.452-.097-.682c1.108-3.159 4.105-5.282 7.458-5.282s6.35 2.123 7.458 5.282c.08.229.044.483-.097.682z"/></svg>