<svg id="bold_v2" enable-background="new 0 0 24 24" height="512" viewBox="0 0 24 24" width="512" xmlns="http://www.w3.org/2000/svg"><path d="m23.517 8.208c-.526-.55-1.338-.69-2.021-.353l-1.23.612-.181-1.376c-.533-4.041-4.009-7.089-8.085-7.089s-7.552 3.048-8.084 7.09l-.182 1.376-1.229-.612c-.682-.342-1.495-.2-2.022.352-.535.56-.636 1.358-.259 2.034l2.649 4.765-.854 6.486c-.086.646.192 1.276.727 1.648.533.372 1.223.413 1.797.106l2.029-1.078c.342-.182.755-.188 1.104-.014l3.113 1.557c.379.189.795.284 1.21.284s.832-.095 1.21-.284l3.113-1.557c.349-.174.762-.169 1.105.014l2.028 1.078c.575.305 1.265.266 1.797-.106.535-.372.813-1.003.727-1.646l-.855-6.488 2.649-4.764c.38-.677.279-1.475-.256-2.035zm-8.517-.698c.827 0 1.5.673 1.5 1.5s-.673 1.5-1.5 1.5-1.5-.673-1.5-1.5.673-1.5 1.5-1.5zm-6 0c.827 0 1.5.673 1.5 1.5s-.673 1.5-1.5 1.5-1.5-.673-1.5-1.5.673-1.5 1.5-1.5zm8 6.99c0 1.379-1.122 2.5-2.5 2.5s-2.5-1.121-2.5-2.5h-4.25c-.414 0-.75-.336-.75-.75s.336-.75.75-.75h5 3.5c.414 0 .75.336.75.75z"/></svg>