<svg id="bold_v2" enable-background="new 0 0 24 24" height="512" viewBox="0 0 24 24" width="512" xmlns="http://www.w3.org/2000/svg"><path d="m12.01 0c-4.822 0-10.01 2.526-10.01 8.074v13.211c0 1.491 1.209 2.705 2.695 2.706h.001l7.236.004c.022.001.046.005.068.005s.045-.004.067-.004l7.234.004h.003c.72 0 1.397-.281 1.906-.793.51-.511.79-1.19.79-1.913v-13.208c0-5.309-5.025-8.086-9.99-8.086zm6.49 16c0 1.474-.795 3.089-2.181 4.433-1.297 1.256-2.921 2.04-4.257 2.063h-.124c-1.418-.024-3.11-.86-4.435-2.2-1.289-1.305-2.02-2.867-2.003-4.296v-4.528c3.504-.269 5.542-2.386 6.507-3.755.96 1.37 2.991 3.486 6.493 3.755z"/><path d="m10.021 17.71c-.297-.285-.771-.28-1.061.02-.287.298-.279.772.02 1.061.832.804 1.927 1.205 3.021 1.205s2.188-.401 3.021-1.205c.299-.288.307-.763.02-1.061-.287-.3-.762-.305-1.061-.02-1.093 1.055-2.869 1.055-3.96 0z"/><circle cx="8.5" cy="13.5" r="1.5"/><circle cx="15.5" cy="13.5" r="1.5"/></svg>