<svg id="bold_v2" enable-background="new 0 0 24 24" height="512" viewBox="0 0 24 24" width="512" xmlns="http://www.w3.org/2000/svg"><path d="m12 24c6.065 0 11-4.935 11-11 0-2.174-.642-4.196-1.734-5.904 1.284-2.248.865-5.127-1.103-6.902-.221-.199-.537-.248-.807-.129-.271.121-.445.39-.445.686 0 1.098-.453 2.103-1.222 2.853-1.663-1.011-3.606-1.604-5.689-1.604-2.094 0-4.045.599-5.713 1.618-.772-.756-1.227-1.766-1.227-2.868 0-.296-.174-.564-.444-.685-.271-.121-.585-.072-.807.126-1.983 1.78-2.398 4.672-1.092 6.932-1.081 1.703-1.717 3.715-1.717 5.877 0 6.065 4.935 11 11 11zm1.75-16h3.25c1.103 0 2 .897 2 2s-.897 2-2 2-2-.897-2-2c0-.174.029-.339.071-.5h-1.321c-.414 0-.75-.336-.75-.75s.336-.75.75-.75zm-1.98 11.5c2.467 0 4.81-1.193 6.267-3.191.245-.335.712-.408 1.048-.163.335.244.408.713.164 1.048-1.74 2.383-4.536 3.806-7.479 3.806-.414 0-.75-.336-.75-.75s.335-.75.75-.75zm-7.02-11.5h3.25c1.103 0 2 .897 2 2s-.897 2-2 2-2-.897-2-2c0-.174.029-.339.071-.5h-1.321c-.414 0-.75-.336-.75-.75s.336-.75.75-.75z"/></svg>