<svg id="bold_v2" enable-background="new 0 0 24 24" height="512" viewBox="0 0 24 24" width="512" xmlns="http://www.w3.org/2000/svg"><path d="m12 0c-6.62 0-12 5.38-12 12s5.38 12 12 12 12-5.38 12-12-5.38-12-12-12zm1.75 7h3.25c1.1 0 2 .9 2 2s-.9 2-2 2-2-.9-2-2c0-.17.02-.34.07-.5h-1.32c-.41 0-.75-.34-.75-.75s.34-.75.75-.75zm-5.75 4c-1.1 0-2-.9-2-2 0-.17.02-.34.07-.5h-1.32c-.41 0-.75-.34-.75-.75s.34-.75.75-.75h3.25c1.1 0 2 .9 2 2s-.9 2-2 2zm11.48 6.19c-1.74 2.39-4.54 3.81-7.48 3.81-.41 0-.75-.34-.75-.75s.34-.75.75-.75c.68 0 1.35-.09 2-.27 1.05-.28 2.04-.78 2.89-1.47.52-.42.98-.9 1.38-1.45.24-.34.71-.41 1.04-.16.34.24.41.71.17 1.04z"/></svg>