<svg id="bold_v2" enable-background="new 0 0 24 24" height="512" viewBox="0 0 24 24" width="512" xmlns="http://www.w3.org/2000/svg"><path d="m11.969 2.25c-.025 0-.051 0-.077 0-2.236.02-4.225.846-5.458 2.268-.272.312-.238.786.075 1.057.141.123.317.184.491.184.21 0 .419-.088.567-.259.938-1.08 2.559-1.734 4.339-1.75 1.82.007 3.532.642 4.537 1.76.277.309.751.334 1.059.057.309-.276.334-.751.057-1.059-1.274-1.417-3.358-2.258-5.59-2.258z"/><path d="m11.893 5.25c-2.235.02-4.224.839-5.457 2.247-.273.312-.241.786.07 1.059.142.124.318.185.494.185.209 0 .417-.087.565-.256.938-1.071 2.561-1.72 4.341-1.735 1.844-.024 3.534.636 4.539 1.745.279.307.753.33 1.059.052.307-.278.331-.752.052-1.06-1.287-1.42-3.367-2.268-5.663-2.237z"/><path d="m13.979 17.71c-1.091 1.055-2.867 1.055-3.958 0-.297-.285-.772-.28-1.061.02-.288.298-.279.772.019 1.061.833.804 1.927 1.205 3.021 1.205s2.188-.401 3.021-1.205c.298-.288.306-.763.019-1.061-.288-.3-.763-.305-1.061-.02z"/><path d="m23.441 3.86c-.868-1.534-2.677-2.325-5.364-2.366-1.615-.903-3.666-1.434-6.058-1.494-.012 0-.025 0-.037 0-2.393.06-4.444.591-6.059 1.494-2.688.041-4.497.832-5.364 2.366-1.354 2.392.055 5.771.981 7.524-.924.518-1.54 1.5-1.54 2.616 0 1.654 1.346 3 3 3 .003 0 .005-.001.008-.001 1.808 4.021 5.723 7.001 8.992 7.001s7.184-2.98 8.992-7.001c.003 0 .005.001.008.001 1.654 0 3-1.346 3-3 0-1.116-.616-2.097-1.54-2.616.92-1.739 2.338-5.126.981-7.524zm-2.941 8.64c0 5.424-5.221 10-8.5 10s-8.5-4.576-8.5-10v-4.5c0-4.633 4.574-6.396 8.5-6.5 3.926.104 8.5 1.867 8.5 6.5z"/><circle cx="8" cy="13.5" r="1.5"/><circle cx="16" cy="13.5" r="1.5"/></svg>