<svg id="bold_v2" enable-background="new 0 0 24 24" height="512" viewBox="0 0 24 24" width="512" xmlns="http://www.w3.org/2000/svg"><path d="m12 0c-6.62 0-12 5.38-12 12s5.38 12 12 12 12-5.38 12-12-5.38-12-12-12zm4.5 7c1.38 0 2.5 1.12 2.5 2.5 0 .41-.34.75-.75.75s-.75-.34-.75-.75c0-.55-.45-1-1-1s-1 .45-1 1c0 .41-.34.75-.75.75s-.75-.34-.75-.75c0-1.38 1.12-2.5 2.5-2.5zm-9 0c1.38 0 2.5 1.12 2.5 2.5 0 .41-.34.75-.75.75s-.75-.34-.75-.75c0-.55-.45-1-1-1s-1 .45-1 1c0 .41-.34.75-.75.75s-.75-.34-.75-.75c0-1.38 1.12-2.5 2.5-2.5zm9.25 12h-9.5c-1.65 0-3-1.35-3-3s1.35-3 3-3h9.5c1.65 0 3 1.35 3 3s-1.35 3-3 3z"/><path d="m5.75 16c0 .83.67 1.5 1.5 1.5h.75v-3h-.75c-.83 0-1.5.67-1.5 1.5z"/><path d="m9.5 14.5h1.75v3h-1.75z"/><path d="m12.75 14.5h1.75v3h-1.75z"/><path d="m16.75 14.5h-.75v3h.75c.83 0 1.5-.67 1.5-1.5s-.67-1.5-1.5-1.5z"/></svg>