<svg id="bold_v2" enable-background="new 0 0 24 24" height="512" viewBox="0 0 24 24" width="512" xmlns="http://www.w3.org/2000/svg"><path d="m12 0c-6.62 0-12 5.38-12 12s5.38 12 12 12 12-5.38 12-12-5.38-12-12-12zm2.75 7.75c.41 0 .75.34.75.75 0 .55.45 1 1 1s1-.45 1-1c0-.41.34-.75.75-.75s.75.34.75.75c0 1.38-1.12 2.5-2.5 2.5s-2.5-1.12-2.5-2.5c0-.41.34-.75.75-.75zm-9 0c.41 0 .75.34.75.75 0 .55.45 1 1 1s1-.45 1-1c0-.41.34-.75.75-.75s.75.34.75.75c0 1.38-1.12 2.5-2.5 2.5s-2.5-1.12-2.5-2.5c0-.41.34-.75.75-.75zm13.71 7.25c-1.12 3.16-4.11 5.28-7.46 5.28s-6.34-2.12-7.46-5.28c-.08-.23-.04-.48.1-.68s.37-.32.61-.32h13.5c.24 0 .47.12.61.32s.18.45.1.68z"/></svg>