<svg id="bold_v2" enable-background="new 0 0 24 24" height="512" viewBox="0 0 24 24" width="512" xmlns="http://www.w3.org/2000/svg"><path d="m21.266 7.096c1.284-2.248.865-5.127-1.103-6.902-.221-.199-.537-.248-.807-.129-.271.121-.445.39-.445.686 0 1.098-.453 2.103-1.222 2.853-1.663-1.011-3.606-1.604-5.689-1.604-2.094 0-4.045.599-5.713 1.618-.772-.756-1.227-1.766-1.227-2.868 0-.296-.174-.564-.444-.685-.271-.121-.585-.072-.807.126-1.983 1.78-2.398 4.672-1.092 6.932-1.081 1.703-1.717 3.715-1.717 5.877 0 6.065 4.935 11 11 11s11-4.935 11-11c0-2.174-.642-4.196-1.734-5.904zm-6.681 1.491c.019-.019.042-.032.061-.05.005-.006.007-.013.013-.019l2-2c.293-.293.768-.293 1.061 0s.293.768 0 1.061l-.707.707c.588.348.987.982.987 1.714 0 1.103-.897 2-2 2s-2-.897-2-2c0-.533.208-1.035.585-1.413zm-8.305-1.009c-.293-.293-.293-.768 0-1.061s.768-.293 1.061 0l2 2c.006.006.007.013.013.019.02.018.042.031.061.05.377.379.585.881.585 1.414 0 1.103-.897 2-2 2s-2-.897-2-2c0-.732.399-1.366.987-1.715zm5.72 13.402c-2.662 0-5.078-1.3-6.57-3.48h13.14c-1.487 2.178-3.906 3.48-6.57 3.48zm7.75-6.058c-.087.367-.207.726-.352 1.078h-14.797c-.144-.352-.265-.711-.351-1.078-.053-.223 0-.458.142-.638s.359-.284.588-.284h14.04c.229 0 .446.104.588.284s.195.415.142.638z"/></svg>