<svg id="bold_v2" enable-background="new 0 0 24 24" height="512" viewBox="0 0 24 24" width="512" xmlns="http://www.w3.org/2000/svg"><path d="m12 24c6.62 0 12-5.38 12-12s-5.38-12-12-12-12 5.38-12 12 5.38 12 12 12zm0-2.78c-2.935 0-5.592-1.422-7.222-3.72h14.443c-1.629 2.298-4.286 3.72-7.221 3.72zm4.5-14.47c1.52 0 2.75 1.23 2.75 2.75 0 .41-.34.75-.75.75s-.75-.34-.75-.75c0-.69-.56-1.25-1.25-1.25s-1.25.56-1.25 1.25c0 .41-.34.75-.75.75s-.75-.34-.75-.75c0-1.52 1.23-2.75 2.75-2.75zm-9 0c1.52 0 2.75 1.23 2.75 2.75 0 .41-.34.75-.75.75s-.75-.34-.75-.75c0-.69-.56-1.25-1.25-1.25s-1.25.56-1.25 1.25c0 .41-.34.75-.75.75s-.75-.34-.75-.75c0-1.52 1.23-2.75 2.75-2.75zm-3.85 7.56c.14-.2.36-.31.6-.31h15.5c.24 0 .46.11.6.31.15.19.19.43.12.66-.11.356-.247.697-.397 1.03h-16.146c-.15-.333-.287-.674-.397-1.03-.07-.23-.03-.47.12-.66z"/></svg>