<svg id="bold_v2" enable-background="new 0 0 24 24" height="512" viewBox="0 0 24 24" width="512" xmlns="http://www.w3.org/2000/svg"><path d="m15.002 16.998h-6c-.414 0-.75.336-.75.75 0 2.067 1.683 3.75 3.75 3.75s3.75-1.683 3.75-3.75c0-.414-.336-.75-.75-.75z"/><path d="m10 12.5c0-.245-.119-.474-.32-.614l-2.5-1.75c-.34-.239-.808-.157-1.044.184-.237.339-.155.807.185 1.044l1.621 1.136-1.622 1.136c-.34.237-.422.705-.185 1.044.146.209.38.32.616.32.148 0 .298-.044.429-.136l2.5-1.75c.201-.14.32-.369.32-.614z"/><path d="m16.82 10.136-2.5 1.75c-.201.14-.32.369-.32.614s.119.474.32.614l2.5 1.75c.131.092.281.136.429.136.236 0 .47-.111.615-.32.237-.339.155-.807-.185-1.044l-1.621-1.136 1.622-1.136c.34-.237.422-.705.185-1.044-.237-.34-.705-.422-1.045-.184z"/><path d="m21.941 11.048c-.756-3.061-2.884-5.581-5.698-6.867-.038-2.311-1.923-4.181-4.243-4.181s-4.205 1.87-4.243 4.181c-2.813 1.286-4.941 3.804-5.697 6.863-1.169.21-2.06 1.228-2.06 2.456s.891 2.246 2.06 2.456c1.104 4.467 5.135 7.794 9.94 7.794s8.836-3.327 9.94-7.794c1.169-.21 2.06-1.228 2.06-2.456s-.886-2.248-2.059-2.452zm-9.941-9.048c.964 0 1.783.614 2.102 1.469-.679-.142-1.382-.219-2.102-.219s-1.423.077-2.102.219c.319-.855 1.138-1.469 2.102-1.469zm0 19.75c-4.549 0-8.25-3.701-8.25-8.25s3.701-8.25 8.25-8.25c.648 0 1.277.083 1.882.225-.402.616-1.094 1.025-1.882 1.025-.553 0-1 .447-1 1s.447 1 1 1c1.649 0 3.066-.954 3.77-2.329 2.656 1.372 4.48 4.139 4.48 7.329 0 4.549-3.701 8.25-8.25 8.25z"/></svg>