<svg id="bold_v2" enable-background="new 0 0 24 24" height="512" viewBox="0 0 24 24" width="512" xmlns="http://www.w3.org/2000/svg"><path d="m21.266 7.096c1.284-2.248.865-5.127-1.103-6.902-.221-.199-.537-.248-.807-.129-.271.121-.445.39-.445.686 0 1.098-.453 2.103-1.222 2.853-1.663-1.011-3.606-1.604-5.689-1.604-2.094 0-4.045.599-5.713 1.618-.772-.756-1.227-1.766-1.227-2.868 0-.296-.174-.564-.444-.685-.271-.121-.585-.072-.807.126-1.983 1.78-2.398 4.672-1.092 6.932-1.081 1.703-1.717 3.715-1.717 5.877 0 6.065 4.935 11 11 11s11-4.935 11-11c0-2.174-.642-4.196-1.734-5.904zm-6.946 1.79 2.5-1.75c.34-.237.808-.155 1.044.185.238.339.155.807-.184 1.044l-1.622 1.135 1.623 1.136c.339.237.422.705.184 1.044-.146.209-.379.32-.615.32-.149 0-.299-.044-.43-.136l-2.5-1.75c-.2-.14-.32-.369-.32-.614s.12-.474.32-.614zm-8-.522c-.34-.237-.422-.705-.184-1.044.238-.341.706-.422 1.044-.184l2.5 1.75c.2.14.32.369.32.614s-.12.474-.32.614l-2.5 1.75c-.131.092-.281.136-.43.136-.236 0-.469-.111-.615-.32-.238-.339-.155-.807.184-1.044l1.623-1.136zm5.68 12.616c-2.662 0-5.078-1.3-6.57-3.48h13.14c-1.487 2.178-3.906 3.48-6.57 3.48zm7.75-6.058c-.087.367-.207.726-.352 1.078h-14.797c-.144-.352-.265-.711-.351-1.078-.053-.223 0-.458.142-.638s.359-.284.588-.284h14.04c.229 0 .446.104.588.284s.195.415.142.638z"/></svg>