<svg id="bold_v2" enable-background="new 0 0 24 24" height="512" viewBox="0 0 24 24" width="512" xmlns="http://www.w3.org/2000/svg"><path d="m12 0c-6.62 0-12 5.38-12 12s5.38 12 12 12 12-5.38 12-12-5.38-12-12-12zm2.32 7.89 2.5-1.75c.34-.24.81-.16 1.04.18.24.34.16.81-.18 1.04l-.43.31-1.19.83 1.19.83.43.31c.34.23.42.7.18 1.04-.14.21-.37.32-.61.32-.15 0-.3-.04-.43-.14l-2.5-1.75c-.2-.14-.32-.37-.32-.61s.12-.47.32-.61zm-7.57-.22-.43-.31c-.34-.23-.42-.7-.18-1.04.23-.34.7-.42 1.04-.18l2.5 1.75c.2.14.32.37.32.61s-.12.47-.32.61l-2.5 1.75c-.13.1-.28.14-.43.14-.24 0-.47-.11-.61-.32-.24-.34-.16-.81.18-1.04l.43-.31 1.19-.83zm5.25 13.55c-2.935 0-5.592-1.422-7.222-3.72h14.443c-1.629 2.298-4.286 3.72-7.221 3.72zm8.47-6.25c-.11.356-.247.697-.397 1.03h-16.146c-.15-.333-.287-.674-.397-1.03-.07-.23-.03-.47.12-.66.14-.2.36-.31.6-.31h15.5c.24 0 .46.11.6.31.15.19.19.43.12.66z"/></svg>