<svg id="bold_v2" enable-background="new 0 0 24 24" height="512" viewBox="0 0 24 24" width="512" xmlns="http://www.w3.org/2000/svg"><path d="m12 24c6.62 0 12-5.38 12-12s-5.38-12-12-12-12 5.38-12 12 5.38 12 12 12zm4.75-17c1.1 0 2 .9 2 2s-.9 2-2 2-2-.9-2-2 .9-2 2-2zm-12.25 1.5h4.5c.41 0 .75.34.75.75s-.34.75-.75.75h-4.5c-.41 0-.75-.34-.75-.75s.34-.75.75-.75zm-.85 5.81c.14-.2.36-.31.6-.31h15.5c.24 0 .46.11.6.31.15.19.19.43.12.66-1.16 3.74-4.57 6.25-8.47 6.25s-7.31-2.51-8.47-6.25c-.07-.23-.03-.47.12-.66z"/></svg>