<svg id="bold_v2" enable-background="new 0 0 24 24" height="512" viewBox="0 0 24 24" width="512" xmlns="http://www.w3.org/2000/svg"><path d="m22 1.18c-.37-.54-1.27-.54-1.64 0-.23.33-.58.85-.91 1.43-2.11-1.69-4.7-2.61-7.45-2.61-6.62 0-12 5.38-12 12s5.38 12 12 12 12-5.38 12-12c0-1.57-.31-3.09-.89-4.52.55-.51.9-1.25.9-2.06 0-1.2-1.4-3.36-2.01-4.24zm-5.5 5.82c1.38 0 2.5 1.12 2.5 2.5 0 .41-.34.75-.75.75s-.75-.34-.75-.75c0-.55-.45-1-1-1s-1 .45-1 1c0 .41-.34.75-.75.75s-.75-.34-.75-.75c0-1.38 1.12-2.5 2.5-2.5zm-9 0c1.38 0 2.5 1.12 2.5 2.5 0 .41-.34.75-.75.75s-.75-.34-.75-.75c0-.55-.45-1-1-1s-1 .45-1 1c0 .41-.34.75-.75.75s-.75-.34-.75-.75c0-1.38 1.12-2.5 2.5-2.5zm4.5 14.25c-2.82 0-5.38-1.32-7.02-3.47h14.04c-1.64 2.15-4.2 3.47-7.02 3.47zm8.47-6.25c-.08.27-.19.52-.3.78h-16.34c-.11-.26-.22-.51-.3-.78-.07-.23-.03-.47.12-.66.14-.2.36-.31.6-.31h15.5c.24 0 .46.11.6.31.15.19.19.43.12.66zm1.44-9.21c-.12.27-.4.46-.73.46-.46 0-.83-.37-.83-.83.01-.19.18-.62.46-1.15.11-.2.23-.43.37-.66.48.82.82 1.54.83 1.81 0 .13-.03.26-.1.37z"/></svg>