<svg id="bold_v2" enable-background="new 0 0 24 24" height="512" viewBox="0 0 24 24" width="512" xmlns="http://www.w3.org/2000/svg"><path d="m23.97 3.95c-.01-.02-.01-.04-.01-.06-.03-.08-.07-.15-.12-.22 0 0-.01 0-.01-.01-.01-.01-.03-.02-.05-.04-.04-.05-.09-.09-.15-.13-.03-.01-.05-.02-.08-.03-.06-.03-.12-.05-.19-.06-.01 0-.03-.01-.05-.01 0 0-.01 0-.02 0-.08 0-.16 0-.25.02-.02.01-1.76.5-4.3.93l-1.61-2.93c-.48-.87-1.38-1.41-2.37-1.41h-5.52c-.99 0-1.89.54-2.37 1.41l-1.61 2.93c-2.45-.41-4.14-.88-4.28-.92h-.01l-.01-.01c-.09-.02-.17-.02-.25-.02-.01 0-.02 0-.02 0-.02 0-.03.01-.05.01-.07.01-.13.03-.19.06-.03.01-.05.02-.08.04-.06.03-.11.07-.15.12-.02.01-.04.03-.05.04 0 .01-.01.01-.01.01-.05.07-.09.14-.12.22 0 .02 0 .04-.01.06-.02.06-.02.13-.02.21 0 .01-.01.02-.01.04.04.43.39 4.05 2.16 5.72-.43 1.15-.66 2.37-.66 3.63 0 5.79 4.71 10.5 10.5 10.5s10.5-4.71 10.5-10.5c0-1.26-.23-2.48-.66-3.63 1.77-1.67 2.12-5.29 2.16-5.72 0-.02-.01-.03-.01-.04 0-.08 0-.15-.02-.21zm-3.47 9.6c0 4.69-3.81 8.5-8.5 8.5s-8.5-3.81-8.5-8.5c0-.5.05-1 .14-1.48-.33-.57-.54-1.17-.54-1.78 0-1.68 1.43-3.04 3.2-3.04.55 0 1.08.14 1.55.38.47-.24 1-.38 1.55-.38 1.06 0 1.99.49 2.58 1.24.58-.75 1.51-1.24 2.57-1.24.55 0 1.08.14 1.55.38.47-.24 1-.38 1.55-.38 1.77 0 3.2 1.36 3.2 3.04 0 .59-.2 1.17-.5 1.72.1.5.15 1.02.15 1.54z"/><path d="m17.25 16h-10.5c-.238 0-.463.113-.604.305-.142.192-.184.44-.113.668.817 2.633 3.215 4.402 5.967 4.402s5.149-1.77 5.967-4.402c.07-.228.028-.476-.113-.668s-.366-.305-.604-.305z"/><path d="m17.654 8.75c-.695 0-1.294.38-1.554.925-.26-.545-.859-.925-1.554-.925-.935 0-1.696.691-1.696 1.542 0 1.67 3.25 3.875 3.25 3.875s3.25-2.205 3.25-3.875c0-.851-.76-1.542-1.696-1.542z"/><path d="m11.1 10.292c0-.85-.76-1.542-1.696-1.542-.695 0-1.294.38-1.554.925-.26-.545-.859-.925-1.554-.925-.936 0-1.696.691-1.696 1.542 0 1.67 3.25 3.875 3.25 3.875s3.25-2.206 3.25-3.875z"/></svg>