<svg id="bold_v2" enable-background="new 0 0 24 24" height="512" viewBox="0 0 24 24" width="512" xmlns="http://www.w3.org/2000/svg"><path d="m12 24c6.065 0 11-4.935 11-11 0-2.174-.642-4.196-1.734-5.904 1.284-2.248.865-5.127-1.103-6.902-.221-.199-.537-.248-.807-.129-.271.121-.445.39-.445.686 0 1.098-.453 2.103-1.222 2.853-1.663-1.011-3.606-1.604-5.689-1.604-2.094 0-4.045.599-5.713 1.618-.772-.756-1.227-1.766-1.227-2.868 0-.296-.174-.564-.444-.685-.271-.121-.585-.072-.807.126-1.983 1.78-2.398 4.672-1.092 6.932-1.081 1.703-1.717 3.715-1.717 5.877 0 6.065 4.935 11 11 11zm3.185-16c.484 0 .944.149 1.315.409.372-.26.832-.409 1.315-.409 1.205 0 2.185.911 2.185 2.03 0 1.703-2.569 3.501-3.084 3.844-.126.084-.271.126-.416.126s-.29-.042-.416-.126c-.515-.343-3.084-2.141-3.084-3.844 0-1.119.98-2.03 2.185-2.03zm3.525 7c.25 0 .484.125.624.333s.165.472.07.703c-1.246 3.016-4.152 4.964-7.404 4.964s-6.158-1.948-7.403-4.964c-.095-.231-.069-.495.07-.703s.373-.333.623-.333zm-12.525-7c.483 0 .943.149 1.315.409.372-.26.832-.409 1.315-.409 1.205 0 2.185.911 2.185 2.03 0 1.703-2.569 3.501-3.084 3.844-.126.084-.271.126-.416.126s-.29-.042-.416-.126c-.515-.343-3.084-2.141-3.084-3.844 0-1.119.98-2.03 2.185-2.03z"/></svg>