<svg id="bold_v2" enable-background="new 0 0 24 24" height="512" viewBox="0 0 24 24" width="512" xmlns="http://www.w3.org/2000/svg"><path d="m12 0c-6.62 0-12 5.38-12 12s5.38 12 12 12 12-5.38 12-12-5.38-12-12-12zm-5.82 6c.49 0 .95.15 1.32.41.37-.26.83-.41 1.32-.41 1.2 0 2.18.92 2.18 2.05 0 1.73-2.56 3.55-3.08 3.9-.13.09-.27.13-.42.13s-.29-.04-.42-.13c-.52-.35-3.08-2.17-3.08-3.9 0-1.13.98-2.05 2.18-2.05zm13.28 9c-1.11 3.16-4.11 5.28-7.46 5.28s-6.35-2.12-7.46-5.28c-.08-.23-.04-.49.1-.68.14-.2.37-.32.61-.32h13.5c.24 0 .47.12.61.32.14.19.18.45.1.68zm-2.54-3.05c-.13.09-.27.13-.42.13s-.29-.04-.42-.13c-.52-.35-3.08-2.17-3.08-3.9 0-1.13.98-2.05 2.18-2.05.49 0 .95.15 1.32.41.37-.26.83-.41 1.32-.41 1.2 0 2.18.92 2.18 2.05 0 1.73-2.56 3.55-3.08 3.9z"/></svg>