<svg id="bold_v2" enable-background="new 0 0 24 24" height="512" viewBox="0 0 24 24" width="512" xmlns="http://www.w3.org/2000/svg"><path d="m.293 18.821c-.391.391-.391 1.023 0 1.414l2.593 2.593c1.562 1.562 4.095 1.562 5.657 0l1.403-1.403c.897-.897 1.315-2.165 1.128-3.419l-.447-2.992s-.847-.494-1.554.213-.177 2.298-.177 2.298l-3.653-3.653c-.391-.391-1.024-.391-1.414 0-.391.391-.391 1.024 0 1.414l-.236-.236c-.391-.391-1.024-.391-1.414 0-.391.391-.391 1.024 0 1.414l.471.471c-.391-.39-1.024-.39-1.414 0-.391.391-.391 1.024 0 1.414l.471.471c-.391-.39-1.022-.39-1.414.001z"/><path d="m12 0c-6.627 0-12 5.373-12 12 0 1.115.164 2.189.448 3.213.099-.449.322-.875.669-1.223.352-.352.789-.585 1.265-.683.106-.179.235-.346.387-.497.472-.472 1.1-.732 1.768-.732s1.296.26 1.768.732l1.541 1.541c.052-.063.107-.125.168-.185.536-.537 1.21-.821 1.947-.821.729 0 1.273.285 1.423.373l.616.36.617-.36c.149-.087.694-.373 1.423-.373.737 0 1.411.284 1.947.821.061.06.116.122.168.185l1.541-1.541c.472-.472 1.1-.732 1.768-.732s1.296.26 1.768.732c.151.151.28.318.387.497.476.097.913.331 1.264.682.348.349.571.776.67 1.225.283-1.024.447-2.099.447-3.214 0-6.627-5.373-12-12-12zm-6.25 9c-.414 0-.75-.336-.75-.75 0-1.378 1.121-2.5 2.5-2.5s2.5 1.122 2.5 2.5c0 .414-.336.75-.75.75s-.75-.336-.75-.75c0-.551-.448-1-1-1s-1 .449-1 1c0 .414-.336.75-.75.75zm11.53 1.836c-1.456 1.456-3.368 2.184-5.28 2.184s-3.824-.728-5.28-2.184c-.293-.293-.293-.768 0-1.061s.768-.293 1.061 0c2.326 2.326 6.113 2.326 8.439 0 .293-.293.768-.293 1.061 0s.292.768-.001 1.061zm.97-1.836c-.414 0-.75-.336-.75-.75 0-.551-.448-1-1-1s-1 .449-1 1c0 .414-.336.75-.75.75s-.75-.336-.75-.75c0-1.378 1.121-2.5 2.5-2.5s2.5 1.122 2.5 2.5c0 .414-.336.75-.75.75z"/><path d="m12 21.107c-.258.503-.586.972-.993 1.379l-1.291 1.291c.74.142 1.502.223 2.284.223s1.544-.081 2.284-.223l-1.291-1.291c-.407-.407-.735-.876-.993-1.379z"/><path d="m22.292 18.821.471-.471c.391-.391.391-1.024 0-1.414s-1.024-.39-1.414 0l.471-.471c.391-.391.391-1.024 0-1.414-.391-.391-1.024-.391-1.414 0l-.236.236c.391-.391.391-1.024 0-1.414-.391-.391-1.024-.391-1.414 0l-3.653 3.653s.53-1.591-.177-2.298-1.554-.213-1.554-.213l-.447 2.992c-.187 1.254.231 2.523 1.128 3.419l1.403 1.403c1.562 1.562 4.095 1.562 5.657 0l2.593-2.593c.391-.391.391-1.023 0-1.414-.391-.392-1.022-.392-1.414-.001z"/></svg>