<svg id="bold_v2" enable-background="new 0 0 24 24" height="512" viewBox="0 0 24 24" width="512" xmlns="http://www.w3.org/2000/svg"><path d="m12 0c-6.62 0-12 5.38-12 12s5.38 12 12 12 12-5.38 12-12-5.38-12-12-12zm-2.75 10.25c-.41 0-.75-.34-.75-.75 0-.55-.45-1-1-1s-1 .45-1 1c0 .41-.34.75-.75.75s-.75-.34-.75-.75c0-1.38 1.12-2.5 2.5-2.5s2.5 1.12 2.5 2.5c0 .41-.34.75-.75.75zm5.39 7.11c.23.14.37.4.36.67s-.17.52-.42.64l-2.5 1.25c-.1.05-.22.08-.33.08-.27 0-.54-.15-.67-.41-.19-.38-.04-.83.34-1.01l1.27-.64-1.33-.8c-.22-.13-.36-.38-.36-.64s.14-.51.36-.64l1.33-.8-1.27-.64c-.38-.18-.53-.63-.34-1.01.19-.36.64-.52 1-.33l2.5 1.25c.25.12.41.37.42.64s-.13.53-.36.67l-1.43.86zm3.61-7.11c-.41 0-.75-.34-.75-.75 0-.55-.45-1-1-1s-1 .45-1 1c0 .41-.34.75-.75.75s-.75-.34-.75-.75c0-1.38 1.12-2.5 2.5-2.5s2.5 1.12 2.5 2.5c0 .41-.34.75-.75.75z"/></svg>