<svg id="bold_v2" enable-background="new 0 0 24 24" height="512" viewBox="0 0 24 24" width="512" xmlns="http://www.w3.org/2000/svg"><path d="m12 23.75c2.44 0 4.68-.86 6.44-2.29-.22-.27-.54-.79-.89-1.87-1.46 1.34-3.41 2.16-5.55 2.16s-4.09-.82-5.55-2.16c-.35 1.08-.67 1.6-.89 1.87 1.76 1.43 4 2.29 6.44 2.29z"/><path d="m21.94 11.05c-.75-3.06-2.88-5.58-5.7-6.87-.04-2.31-1.92-4.18-4.24-4.18s-4.2 1.87-4.24 4.18c-2.82 1.29-4.94 3.8-5.7 6.86-1.17.21-2.06 1.23-2.06 2.46 0 1.07.67 1.98 1.62 2.34.52-.22 1.26-.46 2.29-.72-.1-.52-.16-1.06-.16-1.62 0-4.55 3.7-8.25 8.25-8.25.65 0 1.28.08 1.88.23-.4.61-1.09 1.02-1.88 1.02-.55 0-1 .45-1 1s.45 1 1 1c1.65 0 3.07-.95 3.77-2.33 2.66 1.37 4.48 4.14 4.48 7.33 0 .56-.06 1.1-.16 1.62 1.03.26 1.77.5 2.29.72.95-.36 1.62-1.27 1.62-2.34 0-1.23-.89-2.25-2.06-2.45zm-9.94-7.8c-.72 0-1.42.08-2.1.22.32-.86 1.14-1.47 2.1-1.47s1.78.61 2.1 1.47c-.68-.14-1.38-.22-2.1-.22z"/><path d="m8.252 17.248c0 2.067 1.683 3.75 3.75 3.75s3.75-1.683 3.75-3.75c0-.414-.336-.75-.75-.75h-6c-.414 0-.75.336-.75.75z"/><path d="m4.879 16.43c-1.115.249-2.968.731-3.522 1.284-.809.809-.809 2.12 0 2.929s2.12.809 2.929 0c.554-.553 1.035-2.407 1.284-3.522.093-.415-.276-.784-.691-.691z"/><path d="m22.643 20.643c.809-.809.809-2.12 0-2.929-.553-.554-2.407-1.035-3.522-1.284-.415-.093-.784.276-.691.691.249 1.115.731 2.968 1.284 3.522.809.809 2.121.809 2.929 0z"/><path d="m6.136 14.68c.145.209.379.32.615.32.148 0 .298-.044.429-.136l2.5-1.75c.201-.14.32-.369.32-.614s-.119-.474-.32-.614l-2.5-1.75c-.34-.239-.808-.157-1.044.184-.237.339-.155.807.185 1.044l1.621 1.136-1.622 1.136c-.34.237-.422.705-.184 1.044z"/><path d="m17.864 10.32c-.236-.34-.704-.422-1.044-.185l-2.5 1.75c-.201.141-.32.37-.32.615s.119.474.32.614l2.5 1.75c.131.092.281.136.429.136.236 0 .47-.111.615-.32.237-.339.155-.807-.185-1.044l-1.621-1.136 1.622-1.136c.34-.237.422-.705.184-1.044z"/></svg>