<svg id="bold_v2" enable-background="new 0 0 24 24" height="512" viewBox="0 0 24 24" width="512" xmlns="http://www.w3.org/2000/svg"><path d="m.826 16.424c.284.284.616.491.968.629 1.618 4.062 5.574 6.947 10.206 6.947s8.588-2.885 10.206-6.947c.353-.137.684-.345.968-.629 1.1-1.1 1.1-2.89 0-3.989-.053-.053-.134-.101-.2-.152-.125-1.901-.737-3.669-1.708-5.187 1.284-2.248.865-5.127-1.103-6.902-.221-.199-.537-.248-.807-.129-.271.121-.445.39-.445.686 0 1.098-.453 2.103-1.222 2.853-1.663-1.011-3.606-1.604-5.689-1.604-2.094 0-4.045.599-5.713 1.618-.772-.756-1.227-1.766-1.227-2.868 0-.296-.174-.564-.444-.685-.271-.121-.585-.072-.807.126-1.983 1.78-2.398 4.672-1.092 6.932-.961 1.513-1.567 3.27-1.691 5.16-.066.051-.147.099-.2.152-1.1 1.099-1.1 2.889 0 3.989zm21.287-2.929c.515.515.515 1.354 0 1.868s-1.353.514-1.869 0c-.309-.309-.72-1.584-1.026-2.896 1.311.307 2.585.719 2.895 1.028zm-10.113 7.485c-2.662 0-5.078-1.3-6.57-3.48h13.14c-1.487 2.178-3.906 3.48-6.57 3.48zm2.32-12.094 2.5-1.75c.34-.237.808-.155 1.044.185.238.339.155.807-.184 1.044l-1.622 1.135 1.623 1.136c.089.062.158.142.211.23-.058.033-.123.056-.171.104-.174.174-.252.423-.208.665.014.076.035.185.055.289-.1.047-.208.076-.318.076-.149 0-.299-.044-.43-.136l-2.5-1.75c-.2-.14-.32-.369-.32-.614s.12-.474.32-.614zm-8.184-1.566c.237-.341.706-.422 1.044-.184l2.5 1.75c.2.14.32.369.32.614s-.12.474-.32.614l-2.5 1.75c-.131.092-.281.136-.43.136-.11 0-.218-.029-.318-.076.02-.104.042-.213.055-.289.044-.242-.033-.491-.208-.665-.048-.048-.113-.071-.171-.104.053-.088.122-.167.211-.23l1.623-1.136-1.622-1.136c-.34-.237-.422-.705-.184-1.044zm-.199 6.68h12.127c.215.741.484 1.484.799 2h-13.726c.315-.516.584-1.259.8-2zm-4.05-.505c.31-.31 1.584-.721 2.895-1.026-.307 1.311-.717 2.586-1.026 2.895-.515.514-1.353.514-1.869 0-.515-.515-.515-1.354 0-1.869z"/></svg>