<svg id="bold_v2" enable-background="new 0 0 24 24" height="512" viewBox="0 0 24 24" width="512" xmlns="http://www.w3.org/2000/svg"><circle cx="8" cy="13.5" r="1.5"/><path d="m22.281 10.963c.114-.984.219-2.105.219-2.876 0-5.527-6.44-7.587-10.5-7.587-2.634 0-4.535 1.413-5.174 1.962-2 .115-5.326 1.388-5.326 5.625 0 .782.104 1.898.217 2.877-1.013.414-1.717 1.394-1.717 2.536 0 1.444 1.123 2.619 2.539 2.729 1.355 3.933 5.08 6.771 9.461 6.771s8.106-2.837 9.461-6.771c1.417-.11 2.539-1.285 2.539-2.729 0-1.143-.704-2.123-1.719-2.537zm-2.106 4.364c0 .002-.002.003-.002.005v.003c-1.026 3.555-4.298 6.165-8.173 6.165-4.225 0-7.731-3.103-8.391-7.151l.998-3.491c.891-.283 2.887-1.084 3.761-2.775 1.345 1.271 4.359 2.831 11.066 2.914l.958 3.347c-.054.334-.125.662-.217.983z"/><circle cx="16" cy="13.5" r="1.5"/><path d="m13.979 17.21c-1.091 1.055-2.867 1.055-3.958 0-.297-.285-.773-.279-1.061.02-.288.298-.279.772.019 1.061.833.804 1.927 1.205 3.021 1.205s2.188-.401 3.021-1.205c.298-.288.306-.763.019-1.061-.288-.299-.763-.305-1.061-.02z"/></svg>