<svg id="bold_v2" enable-background="new 0 0 24 24" height="512" viewBox="0 0 24 24" width="512" xmlns="http://www.w3.org/2000/svg"><path d="m24 14c0-1.292-.826-2.403-2-2.822v-3.091c0-5.31-5.025-8.087-9.99-8.087-4.822 0-10.01 2.527-10.01 8.075v3.103c-1.174.419-2 1.53-2 2.822 0 1.359.914 2.497 2.155 2.864-1.278.596-2.155 1.892-2.155 3.386 0 .327.139.63.392.851.465.406 1.329.479 2.041.467-.019.718.06 1.577.467 2.041.22.252.523.391.85.391 1.236 0 2.369-.62 3.058-1.6 1.473.991 3.228 1.6 5.202 1.6 1.97 0 3.72-.608 5.19-1.597.688.978 1.819 1.597 3.05 1.597.327 0 .63-.139.851-.392.407-.464.485-1.323.467-2.041.714.007 1.577-.061 2.041-.467.252-.22.391-.523.391-.85 0-1.489-.876-2.785-2.151-3.387 1.239-.369 2.151-1.506 2.151-2.863zm-4.226 2.893c-.02.035-.032.072-.047.11-.608 1.443-1.551 2.759-2.775 3.74-.007.006-.014.012-.021.019-1.344 1.069-3.015 1.738-4.921 1.738-1.904 0-3.573-.665-4.918-1.73-.021-.021-.044-.038-.067-.057-1.22-.986-2.16-2.303-2.763-3.748-.005-.013-.01-.025-.016-.037-.384-.928-.629-1.904-.711-2.882l1.182-3.298c4.427-.078 6.624-3.092 7.293-4.223.669 1.126 2.859 4.115 7.321 4.192l1.136 3.287c-.076.98-.314 1.959-.693 2.889z"/><path d="m13.979 17.71c-1.092 1.055-2.867 1.055-3.959 0-.297-.285-.771-.28-1.061.02-.287.298-.279.772.02 1.061.832.804 1.927 1.205 3.021 1.205s2.188-.401 3.021-1.205c.299-.288.307-.763.02-1.061-.289-.3-.763-.305-1.062-.02z"/><circle cx="8" cy="13.5" r="1.5"/><circle cx="16" cy="13.5" r="1.5"/></svg>