<svg id="bold_v2" enable-background="new 0 0 24 24" height="512" viewBox="0 0 24 24" width="512" xmlns="http://www.w3.org/2000/svg"><path d="m22.98 11.99c.02-.16.02-.33.02-.49 0-6.34-5.16-11.5-11.5-11.5s-11.5 5.16-11.5 11.5 5.16 11.5 11.5 11.5c4.48 0 8.46-2.53 10.37-6.53 1.2-.18 2.13-1.22 2.13-2.47 0-.83-.4-1.56-1.02-2.01zm-5.98-5.99c1.1 0 2 .9 2 2s-.9 2-2 2-2-.9-2-2 .9-2 2-2zm-10 4c-1.1 0-2-.9-2-2s.9-2 2-2 2 .9 2 2-.9 2-2 2zm7.59 10.11c-.15.15-.34.22-.53.22s-.38-.07-.53-.22c-.27-.27-.62-.46-1-.53-.3-.08-.63-.08-.94 0-.38.07-.73.26-1 .53-.29.29-.77.29-1.06 0s-.29-.77 0-1.06c1.35-1.35 3.71-1.35 5.06 0 .29.29.29.77 0 1.06zm7.43-5.26c-.12.08-.25.12-.4.14-.04.01-.08.01-.12.01h-.6-9.15v-2h9.75c.03 0 .07 0 .1.01.17.01.32.07.45.15l.17.15c.17.18.28.42.28.69 0 .36-.19.68-.48.85z"/></svg>