<svg id="bold_v2" enable-background="new 0 0 24 24" height="512" viewBox="0 0 24 24" width="512" xmlns="http://www.w3.org/2000/svg"><path d="m13.979 17.71c-1.091 1.055-2.867 1.055-3.958 0-.298-.285-.773-.28-1.061.02-.288.298-.279.772.019 1.061.833.804 1.927 1.205 3.021 1.205s2.188-.401 3.021-1.205c.298-.288.306-.763.019-1.061-.287-.3-.763-.305-1.061-.02z"/><path d="m22 11.178v-3.178c0-4.708-3.918-7.848-9.981-8-.012 0-.025 0-.037 0-6.064.152-9.982 3.292-9.982 8v3.178c-1.174.419-2 1.53-2 2.822 0 1.654 1.346 3 3 3 .003 0 .005-.001.008-.001 1.808 4.021 5.723 7.001 8.992 7.001s7.184-2.98 8.992-7.001c.003 0 .005.001.008.001 1.654 0 3-1.346 3-3 0-1.292-.826-2.403-2-2.822zm-10 11.322c-3.06 0-7.81-3.988-8.429-8.93l1.12-5.684c.815.395 3.232 1.364 7.309 1.364 4.08 0 6.509-.988 7.329-1.391l1.108 5.667c-.596 4.963-5.367 8.974-8.437 8.974z"/><circle cx="8" cy="13.5" r="1.5"/><circle cx="16" cy="13.5" r="1.5"/></svg>