<svg id="bold_v2" enable-background="new 0 0 24 24" height="512" viewBox="0 0 24 24" width="512" xmlns="http://www.w3.org/2000/svg"><path d="m13.979 17.71c-1.092 1.055-2.867 1.055-3.959 0-.298-.285-.772-.28-1.061.02-.287.298-.279.772.02 1.061.832.804 1.927 1.205 3.021 1.205s2.188-.401 3.021-1.205c.299-.288.307-.763.02-1.061-.289-.3-.764-.305-1.062-.02z"/><path d="m22.333 11.489c.092-.854.167-1.75.167-2.399 0-.066-.009-.128-.012-.194.543-.538 1.262-1.521 1.262-2.966 0-2.476-4.467-5.93-11.74-5.93-7.286 0-11.76 3.454-11.76 5.93 0 1.441.715 2.423 1.257 2.962-.002.066-.007.128-.007.198 0 .656.074 1.547.165 2.396-.983.425-1.665 1.398-1.665 2.514 0 1.39 1.04 2.53 2.381 2.713 1.195 4.199 5.049 7.287 9.619 7.287s8.424-3.088 9.619-7.287c1.341-.183 2.381-1.323 2.381-2.713 0-1.113-.683-2.084-1.667-2.511zm-10.333 11.011c-4.225 0-7.731-3.107-8.389-7.159l1.398-4.877c2.277.682 4.633 1.031 6.991 1.031s4.714-.349 6.991-1.031l1.399 4.872c-.656 4.055-4.163 7.164-8.39 7.164zm-7.31-13.71c1.349-.406 3.294-.883 5.445-1.075l1.41 1.122c.137.108.302.163.467.163.166 0 .333-.056.47-.165l1.392-1.119c2.142.192 4.086.669 5.434 1.075-4.733 1.598-9.885 1.598-14.618-.001zm16.682-.894c-.944-.354-3.386-1.184-6.372-1.569v-2.577c0-.414-.336-.75-.75-.75h-4.5c-.414 0-.75.336-.75.75v2.577c-2.987.385-5.43 1.216-6.373 1.569-.34-.315-.877-.971-.877-1.966 0-1.325 3.49-4.43 10.26-4.43 6.756 0 10.24 3.104 10.24 4.43 0 .992-.537 1.649-.878 1.966z"/><circle cx="8" cy="13.5" r="1.5"/><circle cx="16" cy="13.5" r="1.5"/></svg>