<svg id="bold_v2" enable-background="new 0 0 24 24" height="512" viewBox="0 0 24 24" width="512" xmlns="http://www.w3.org/2000/svg"><path d="m12 0c-6.62 0-12 5.38-12 12 0 1.13.161 2.214.453 3.25h5.547v-.5c0-.96.79-1.75 1.75-1.75h8.5c.96 0 1.75.79 1.75 1.75v.5h5.547c.292-1.036.453-2.12.453-3.25 0-6.62-5.38-12-12-12zm-2.75 10h-4.5c-.41 0-.75-.34-.75-.75s.34-.75.75-.75h4.5c.41 0 .75.34.75.75s-.34.75-.75.75zm10 0h-4.5c-.41 0-.75-.34-.75-.75s.34-.75.75-.75h4.5c.41 0 .75.34.75.75s-.34.75-.75.75z"/><path d="m1.216 17.25c1.952 3.994 6.044 6.75 10.784 6.75s8.832-2.756 10.784-6.75h-4.784v1c0 .96-.79 1.75-1.75 1.75h-8.5c-.96 0-1.75-.79-1.75-1.75v-1z"/></svg>