<svg id="bold_v2" enable-background="new 0 0 24 24" height="512" viewBox="0 0 24 24" width="512" xmlns="http://www.w3.org/2000/svg"><path d="m12 0c-6.62 0-12 5.38-12 12s5.38 12 12 12 12-5.38 12-12-5.38-12-12-12zm2.32 7.89 2.5-1.75c.34-.24.81-.16 1.04.18.24.34.16.81-.18 1.04l-.43.3-1.19.84 1.19.84.43.3c.34.23.42.7.18 1.04-.14.21-.37.32-.61.32-.15 0-.3-.04-.43-.14l-2.5-1.75c-.2-.14-.32-.37-.32-.61s.12-.47.32-.61zm-7.57-.23-.43-.3c-.34-.23-.42-.7-.18-1.04.23-.34.7-.42 1.04-.18l2.5 1.75c.2.14.32.37.32.61s-.12.47-.32.61l-2.5 1.75c-.13.1-.28.14-.43.14-.24 0-.47-.11-.61-.32-.24-.34-.16-.81.18-1.04l.43-.3 1.19-.84zm10.5 9.84c.41 0 .75.34.75.75s-.34.75-.75.75c-1.03 0-1.91-.62-2.29-1.5h-5.92c-.38.88-1.26 1.5-2.29 1.5-.41 0-.75-.34-.75-.75s.34-.75.75-.75c.55 0 1-.45 1-1s-.45-1-1-1c-.41 0-.75-.34-.75-.75s.34-.75.75-.75c1.21 0 2.22.86 2.45 2h5.6c.23-1.14 1.24-2 2.45-2 .41 0 .75.34.75.75s-.34.75-.75.75c-.55 0-1 .45-1 1s.45 1 1 1z"/></svg>