<svg id="bold_v2" enable-background="new 0 0 24 24" height="512" viewBox="0 0 24 24" width="512" xmlns="http://www.w3.org/2000/svg"><path d="m12 24c6.62 0 12-5.38 12-12 0-.85-.09-1.68-.26-2.49 0 .01 0 .01-.01.02-.21.21-.42.41-.64.61-.22.19-.44.38-.67.56-3.03 2.45-6.72 3.67-10.42 3.67s-7.39-1.22-10.42-3.67c-.23-.18-.45-.37-.67-.56-.22-.2-.43-.4-.64-.61-.01-.01-.01-.01-.01-.02-.17.81-.26 1.64-.26 2.49 0 6.62 5.38 12 12 12z"/><path d="m12 0c-5.26 0-9.73 3.39-11.35 8.11.4-.39.82-.74 1.26-1.07.47-.37.95-.7 1.45-.99 5.29-3.22 11.99-3.22 17.28 0 .5.29.98.62 1.45.99.44.33.86.68 1.26 1.07-1.62-4.72-6.09-8.11-11.35-8.11z"/><path d="m1.95 8.95c-.02.01-.04.03-.06.05.01.01.03.02.04.03 5.64 5.02 14.5 5.02 20.14 0 .01-.01.03-.02.04-.03-.02-.02-.04-.04-.06-.05-5.63-4.99-14.47-4.99-20.1 0zm6.05 2.05c-1.1 0-2-.9-2-2s.9-2 2-2 2 .9 2 2-.9 2-2 2zm8 0c-1.1 0-2-.9-2-2s.9-2 2-2 2 .9 2 2-.9 2-2 2z"/></svg>