<svg id="bold_v2" enable-background="new 0 0 24 24" height="512" viewBox="0 0 24 24" width="512" xmlns="http://www.w3.org/2000/svg"><path d="m21.104 15.45c.295-.568.451-1.202.451-1.86 0-2.208-1.776-4.01-3.975-4.051.699-.952 1.056-2.119.995-3.322-.077-1.54-.829-2.955-2.129-3.926l-3.669-2.186c-.232-.138-.521-.141-.754-.008-.235.134-.38.383-.38.652v2.091c0 1.166-.948 2.114-2.114 2.114-.976 0-1.89.383-2.574 1.077s-1.054 1.615-1.039 2.59c.005.324.069.642.186.937-2.05.199-3.656 1.932-3.656 4.032 0 .658.156 1.292.451 1.86-1.696.623-2.897 2.251-2.897 4.131 0 2.437 1.982 4.419 4.419 4.419h15.162c2.437 0 4.419-1.982 4.419-4.419 0-1.88-1.201-3.508-2.896-4.131zm-13.104-2.965c.827 0 1.5.673 1.5 1.5s-.673 1.5-1.5 1.5-1.5-.673-1.5-1.5.673-1.5 1.5-1.5zm9.467 5.488c-.749 2.412-2.946 4.033-5.467 4.033s-4.718-1.621-5.467-4.033c-.07-.228-.028-.476.113-.668s.366-.305.604-.305h9.5c.238 0 .463.113.604.305s.183.44.113.668zm-1.467-2.488c-.827 0-1.5-.673-1.5-1.5s.673-1.5 1.5-1.5 1.5.673 1.5 1.5-.673 1.5-1.5 1.5z"/></svg>