<svg id="bold_v2" enable-background="new 0 0 24 24" height="512" viewBox="0 0 24 24" width="512" xmlns="http://www.w3.org/2000/svg"><path d="m17.48 1.32-5.81 4.68h.58c.41 0 .75.34.75.75 0 2.76-2.24 5-5 5-.95 0-1.83-.26-2.58-.72l-4.93 3.97c-.03.02-.06.05-.09.07 1.36 5.13 6.04 8.93 11.6 8.93 6.62 0 12-5.38 12-12 0-4.65-2.65-8.69-6.52-10.68zm-.48 5.68c1.1 0 2 .9 2 2s-.9 2-2 2-2-.9-2-2 .9-2 2-2zm2.46 8c-1.11 3.16-4.11 5.28-7.46 5.28s-6.35-2.12-7.46-5.28c-.08-.23-.04-.49.1-.68.14-.2.37-.32.61-.32h13.5c.24 0 .47.12.61.32.14.19.18.45.1.68z"/><path d="m3.27 6.18c.13-.11.3-.18.48-.18h4.84c.05-.1.13-.2.23-.28l6.51-5.24c-1.06-.31-2.18-.48-3.33-.48-6.62 0-12 5.38-12 12 0 .27.01.54.03.81l3.91-3.16c-.6-.81-.94-1.82-.94-2.9 0-.08.01-.15.04-.22.04-.14.12-.26.23-.35z"/></svg>