<svg id="bold_v2" enable-background="new 0 0 24 24" height="512" viewBox="0 0 24 24" width="512" xmlns="http://www.w3.org/2000/svg"><path d="m.75 6.5h1.75v1.75c0 .414.336.75.75.75s.75-.336.75-.75v-2.5c0-.414-.336-.75-.75-.75h-2.5c-.414 0-.75.336-.75.75s.336.75.75.75z"/><path d="m.75 4h2.5c.414 0 .75-.336.75-.75v-2.5c0-.414-.336-.75-.75-.75s-.75.336-.75.75v1.75h-1.75c-.414 0-.75.336-.75.75s.336.75.75.75z"/><path d="m5 8.25c0 .414.336.75.75.75s.75-.336.75-.75v-1.75h1.75c.414 0 .75-.336.75-.75s-.336-.75-.75-.75h-2.5c-.414 0-.75.336-.75.75z"/><path d="m12 0c-1.407 0-2.751.255-4.005.699 0 .018.005.034.005.051v.25h.25c1.241 0 2.25 1.009 2.25 2.25 0 .462-.141.892-.381 1.25.24.358.381.788.381 1.25 0 1.241-1.009 2.25-2.25 2.25h-.25v.25c0 1.241-1.009 2.25-2.25 2.25-.462 0-.892-.141-1.25-.381-.358.24-.788.381-1.25.381-1.241 0-2.25-1.009-2.25-2.25v-.25h-.25c-.017 0-.033-.005-.051-.005-.444 1.254-.699 2.598-.699 4.005 0 6.627 5.373 12 12 12s12-5.373 12-12-5.373-12-12-12zm-8 11.75c0-.414.336-.75.75-.75h4.5c.414 0 .75.336.75.75s-.336.75-.75.75h-4.5c-.414 0-.75-.336-.75-.75zm11.25 6.75h-6.5c-.414 0-.75-.336-.75-.75s.336-.75.75-.75h6.5c.414 0 .75.336.75.75s-.336.75-.75.75zm4-6h-4.5c-.414 0-.75-.336-.75-.75s.336-.75.75-.75h4.5c.414 0 .75.336.75.75s-.336.75-.75.75z"/><path d="m5.75 0c-.414 0-.75.336-.75.75v2.5c0 .414.336.75.75.75h2.5c.414 0 .75-.336.75-.75s-.336-.75-.75-.75h-1.75v-1.75c0-.414-.336-.75-.75-.75z"/></svg>