<svg id="bold_v2" enable-background="new 0 0 24 24" height="512" viewBox="0 0 24 24" width="512" xmlns="http://www.w3.org/2000/svg"><path d="m22.25 9.75h-.25v-2.25c0-1.517-1.233-2.75-2.75-2.75h-1.229v-.969c0-.965-.785-1.75-1.75-1.75h-3.521v-1.281c0-.414-.336-.75-.75-.75s-.75.336-.75.75v1.281h-3.771c-.965 0-1.75.785-1.75 1.75v.969h-.979c-1.517 0-2.75 1.233-2.75 2.75v2.25h-.25c-.965 0-1.75.785-1.75 1.75v5c0 .965.785 1.75 1.75 1.75h.25v3c0 1.517 1.233 2.75 2.75 2.75h14.5c1.517 0 2.75-1.233 2.75-2.75v-3h.25c.965 0 1.75-.785 1.75-1.75v-5c0-.965-.785-1.75-1.75-1.75zm-5.271-.75c1.103 0 2 .897 2 2s-.897 2-2 2-2-.897-2-2 .898-2 2-2zm-10 0c1.103 0 2 .897 2 2s-.897 2-2 2-2-.897-2-2 .898-2 2-2zm10.026 12.5h-10.005c-1.517 0-2.75-1.233-2.75-2.75s1.233-2.75 2.75-2.75h10.005c1.517 0 2.75 1.233 2.75 2.75s-1.234 2.75-2.75 2.75z"/></svg>