<svg id="bold_v2" enable-background="new 0 0 24 24" height="512" viewBox="0 0 24 24" width="512" xmlns="http://www.w3.org/2000/svg"><path d="m12 0c-6.62 0-12 5.38-12 12s5.38 12 12 12 12-5.38 12-12-5.38-12-12-12zm2.5 9.5c0-.49.18-.94.48-1.29.41 1.37 1.64 2.4 3.12 2.49-.37.48-.95.8-1.6.8-1.1 0-2-.9-2-2zm3.97-.3c-.05.01-.09.01-.14.01-1 0-1.83-.74-1.98-1.7.05-.01.1-.01.15-.01 1 0 1.83.74 1.97 1.7zm-12.97.3c0-.5.18-.96.49-1.31.4 1.38 1.63 2.41 3.11 2.51-.37.48-.95.8-1.6.8-1.1 0-2-.9-2-2zm2-2c1 0 1.83.74 1.97 1.7-.04.01-.08.01-.12.01-1 0-1.83-.74-1.98-1.7.04-.01.09-.01.13-.01zm7.09 10.61c-.15.15-.34.22-.53.22s-.38-.07-.53-.22c-.78-.79-2.15-.79-2.94 0-.29.29-.77.29-1.06 0s-.29-.77 0-1.06c1.35-1.35 3.71-1.35 5.06 0 .29.29.29.77 0 1.06z"/></svg>