<svg id="bold_v2" enable-background="new 0 0 24 24" height="512" viewBox="0 0 24 24" width="512" xmlns="http://www.w3.org/2000/svg"><path d="m12 0c-6.62 0-12 5.38-12 12s5.38 12 12 12 12-5.38 12-12-5.38-12-12-12zm-2.75 17.5c.41 0 .75.34.75.75s-.34.75-.75.75c-1.38 0-2.5-1.12-2.5-2.5s1.12-2.5 2.5-2.5c.41 0 .75.34.75.75s-.34.75-.75.75c-.55 0-1 .45-1 1s.45 1 1 1zm0-9.02c.41 0 .75.34.75.75 0 .42-.34.75-.75.75-1.38 0-2.5-1.12-2.5-2.5s1.12-2.5 2.5-2.5c.41 0 .75.34.75.75 0 .42-.34.75-.75.75-.55 0-1 .45-1 1s.45 1 1 1zm6.531 11.845c-.237.099-.476.201-.721.275-.07.02-.14.03-.22.03-.16 0-.31-.05-.44-.15-.19-.14-.31-.36-.31-.6v-15.76c0-.24.12-.46.31-.6s.44-.19.66-.12c.245.074.484.176.721.275zm2-1.12v-14.41c2.237 1.657 3.629 4.296 3.629 7.205s-1.392 5.548-3.629 7.205z"/></svg>