<svg id="bold_v2" enable-background="new 0 0 24 24" height="512" viewBox="0 0 24 24" width="512" xmlns="http://www.w3.org/2000/svg"><path d="m20.97 4.02c-.16-.19-.32-.36-.48-.53-4.68-4.67-12.3-4.67-16.98 0-4.67 4.68-4.67 12.3 0 16.97.17.16.34.32.52.48.28 1.42 1.53 2.5 3.02 2.5.34 0 .66-.05.96-.16 1.31.47 2.66.7 4.01.7 3.11 0 6.16-1.21 8.47-3.52 3.28-3.28 4.35-8.11 2.81-12.47.11-.3.16-.62.16-.96 0-1.49-1.07-2.74-2.49-3.01zm-9.69.42c.07-.41.46-.68.86-.61.41.07.69.46.61.87l-.09.52-.25 1.43 1.43-.25.52-.09c.42-.07.8.2.87.6.01.04.01.08.01.12v.01c0 .36-.25.68-.62.74l-3 .53c-.05.01-.09.01-.14.01-.19 0-.38-.07-.53-.22-.17-.17-.25-.41-.2-.66zm-4.23 17c-.59 0-1.07-.48-1.07-1.08 0-.32.45-1.25 1.07-2.29.62 1.04 1.07 1.97 1.07 2.29 0 .59-.48 1.08-1.07 1.08zm.75-6.84c-.06.36-.38.62-.73.62-.05 0-.09 0-.14-.01-.4-.07-.68-.46-.6-.87l.09-.52.25-1.43-1.43.25-.52.09c-.42.08-.8-.2-.87-.61-.07-.4.2-.79.61-.86l3-.54c.25-.04.49.04.66.21.18.18.26.42.21.66zm10.72 3.9c-1.68 1.68-3.92 2.59-6.24 2.59-.63 0-1.26-.07-1.9-.2-.1-.02-.2-.05-.3-.08.03-.14.04-.3.04-.45 0-.7-.47-1.74-.99-2.68l8.57-8.57c.94.52 1.98.99 2.68.99.15 0 .31-.01.45-.04.03.1.06.2.08.31.64 2.95-.25 5.99-2.39 8.13zm1.86-10.4c-.32 0-1.25-.45-2.29-1.07 1.04-.62 1.97-1.07 2.29-1.07.6 0 1.08.48 1.08 1.07s-.48 1.07-1.08 1.07z"/></svg>