<svg id="bold_v2" enable-background="new 0 0 24 24" height="512" viewBox="0 0 24 24" width="512" xmlns="http://www.w3.org/2000/svg"><path d="m12 0c-6.62 0-12 5.38-12 12s5.38 12 12 12 12-5.38 12-12-5.38-12-12-12zm-7 8.5c0-.41.34-.75.75-.75s.75.34.75.75c0 .55.45 1 1 1s1-.45 1-1c0-.41.34-.75.75-.75s.75.34.75.75c0 1.38-1.12 2.5-2.5 2.5s-2.5-1.12-2.5-2.5zm10.25 9.75h-6.5c-.553 0-1-.448-1-1s.447-1 1-1h6.5c.553 0 1 .448 1 1s-.447 1-1 1zm1.25-7.25c-1.38 0-2.5-1.12-2.5-2.5 0-.41.34-.75.75-.75s.75.34.75.75c0 .55.45 1 1 1s1-.45 1-1c0-.41.34-.75.75-.75s.75.34.75.75c0 1.38-1.12 2.5-2.5 2.5z"/></svg>