<svg id="bold_v2" enable-background="new 0 0 24 24" height="512" viewBox="0 0 24 24" width="512" xmlns="http://www.w3.org/2000/svg"><path d="m12 0c-6.62 0-12 5.38-12 12s5.38 12 12 12 12-5.38 12-12-5.38-12-12-12zm-7 8.5c0-.41.34-.75.75-.75s.75.34.75.75c0 .55.45 1 1 1s1-.45 1-1c0-.41.34-.75.75-.75s.75.34.75.75c0 1.38-1.12 2.5-2.5 2.5s-2.5-1.12-2.5-2.5zm12.761 11.05c-.195.195-.451.293-.707.293s-.512-.098-.707-.293c-2.396-2.396-6.297-2.396-8.693 0-.391.391-1.023.391-1.414 0s-.391-1.023 0-1.414c3.176-3.177 8.346-3.177 11.521 0 .39.391.39 1.024 0 1.414zm-1.261-8.55c-1.38 0-2.5-1.12-2.5-2.5 0-.41.34-.75.75-.75s.75.34.75.75c0 .55.45 1 1 1s1-.45 1-1c0-.41.34-.75.75-.75s.75.34.75.75c0 1.38-1.12 2.5-2.5 2.5z"/></svg>