<svg id="bold_v2" enable-background="new 0 0 24 24" height="512" viewBox="0 0 24 24" width="512" xmlns="http://www.w3.org/2000/svg"><path d="m9.705 19.451c1.227-1.227 3.366-1.227 4.594 0 .146.146.338.22.53.22s.384-.073.53-.22c.293-.293.293-.768 0-1.061-.897-.896-2.089-1.39-3.357-1.39-1.269 0-2.461.494-3.357 1.391-.293.293-.293.768 0 1.061s.767.292 1.06-.001z"/><path d="m21.94 11.05c-.04-.17-.09-.35-.15-.52-.46.51-1.07.89-1.76 1.08.14.6.22 1.24.22 1.89 0 4.55-3.7 8.25-8.25 8.25s-8.25-3.7-8.25-8.25 3.7-8.25 8.25-8.25c.65 0 1.28.08 1.88.23-.4.61-1.09 1.02-1.88 1.02-.55 0-1 .45-1 1s.45 1 1 1c1.65 0 3.07-.95 3.77-2.33 0 0 .01 0 .01.01.22-.47.54-1.05.97-1.75-.17-.09-.34-.17-.51-.25-.04-2.31-1.92-4.18-4.24-4.18s-4.2 1.87-4.24 4.18c-2.82 1.29-4.94 3.8-5.7 6.86-1.17.21-2.06 1.23-2.06 2.46s.89 2.25 2.06 2.46c1.1 4.46 5.14 7.79 9.94 7.79s8.84-3.33 9.94-7.79c1.17-.21 2.06-1.23 2.06-2.46s-.88-2.25-2.06-2.45zm-9.94-9.05c.96 0 1.78.61 2.1 1.47-.68-.14-1.38-.22-2.1-.22s-1.42.08-2.1.22c.32-.86 1.14-1.47 2.1-1.47z"/><path d="m10 13c0-.414-.336-.75-.75-.75s-.75.336-.75.75c0 .275-.224.5-.5.5s-.5-.225-.5-.5c0-.414-.336-.75-.75-.75s-.75.336-.75.75c0 1.103.897 2 2 2s2-.897 2-2z"/><path d="m18 13c0-.414-.336-.75-.75-.75s-.75.336-.75.75c0 .275-.224.5-.5.5s-.5-.225-.5-.5c0-.414-.336-.75-.75-.75s-.75.336-.75.75c0 1.103.897 2 2 2s2-.897 2-2z"/><path d="m21.25 8.083c0-.745-.872-2.242-1.531-3.266-.337-.523-1.102-.523-1.439 0-.658 1.024-1.531 2.521-1.531 3.266 0 1.197 1.007 2.167 2.25 2.167s2.251-.97 2.251-2.167z"/></svg>