<svg id="bold_v2" enable-background="new 0 0 24 24" height="512" viewBox="0 0 24 24" width="512" xmlns="http://www.w3.org/2000/svg"><path d="m20.355 1.18c-.23.33-.58.85-.91 1.43-2.11-1.69-4.7-2.61-7.45-2.61-6.62 0-12 5.38-12 12s5.38 12 12 12 12-5.38 12-12c0-1.57-.31-3.09-.89-4.52.55-.51.9-1.25.9-2.06 0-1.2-1.4-3.36-2.01-4.24-.37-.54-1.27-.54-1.64 0zm-15.355 7.32c0-.414.336-.75.75-.75s.75.336.75.75c0 .551.448 1 1 1s1-.449 1-1c0-.414.336-.75.75-.75s.75.336.75.75c0 1.378-1.121 2.5-2.5 2.5s-2.5-1.122-2.5-2.5zm12.761 11.05c-.195.195-.451.293-.707.293s-.512-.098-.707-.293c-2.396-2.396-6.297-2.396-8.693 0-.391.391-1.023.391-1.414 0s-.391-1.023 0-1.414c3.176-3.177 8.346-3.177 11.521 0 .39.391.39 1.024 0 1.414zm-1.261-8.55c-1.379 0-2.5-1.122-2.5-2.5 0-.414.336-.75.75-.75s.75.336.75.75c0 .551.448 1 1 1s1-.449 1-1c0-.414.336-.75.75-.75s.75.336.75.75c0 1.378-1.121 2.5-2.5 2.5zm5.405-5.21c-.12.27-.4.46-.73.46-.46 0-.83-.37-.83-.83.01-.19.18-.62.46-1.15.11-.2.23-.43.37-.66.48.82.82 1.54.83 1.81 0 .13-.03.26-.1.37z"/></svg>