<svg id="bold_v2" enable-background="new 0 0 24 24" height="512" viewBox="0 0 24 24" width="512" xmlns="http://www.w3.org/2000/svg"><path d="m12 0c-6.62 0-12 5.38-12 12s5.38 12 12 12c2.3 0 4.5-.65 6.41-1.88.41.16.84.25 1.29.25.92 0 1.78-.36 2.42-1.01.65-.64 1.01-1.51 1.01-2.42 0-.58-.14-1.13-.4-1.62.82-1.65 1.27-3.47 1.27-5.32 0-6.62-5.38-12-12-12zm5 7c1.1 0 2 .9 2 2s-.9 2-2 2-2-.9-2-2 .9-2 2-2zm-10 0c1.1 0 2 .9 2 2s-.9 2-2 2-2-.9-2-2 .9-2 2-2zm13.89 7.72c-.04.14-.09.28-.15.41-.23.68-.55 1.31-.93 1.89l.9.91c.27.27.42.63.42 1.01s-.15.73-.42 1.01c-.27.27-.63.42-1.01.42s-.73-.15-1-.43l-.79-.79c-.53.44-1.1.81-1.71 1.12-1.26.63-2.68.98-4.17.98-4.08 0-7.64-2.62-8.85-6.53-.17-.53.13-1.09.66-1.25.52-.17 1.08.13 1.25.66.95 3.06 3.74 5.12 6.94 5.12 1.34 0 2.62-.36 3.7-1.01.08-.04.15-.09.22-.14.01 0 .02 0 .03-.01 1.15-.74 2.07-1.8 2.66-3.08.01-.02.01-.03.01-.03.13-.27.24-.56.33-.85.16-.53.72-.83 1.25-.66.53.16.82.72.66 1.25z"/></svg>