<svg id="bold_v2" enable-background="new 0 0 24 24" height="512" viewBox="0 0 24 24" width="512" xmlns="http://www.w3.org/2000/svg"><path d="m24 12.04c.022-6.62-5.341-12.018-11.96-12.04-6.62-.022-12.018 5.341-12.04 11.96-.022 6.62 5.341 12.018 11.96 12.04 6.62.022 12.018-5.341 12.04-11.96zm-6.984-5.024c1.1.004 1.997.907 1.993 2.007s-.907 1.997-2.007 1.993-1.997-.907-1.993-2.007c.004-1.099.907-1.996 2.007-1.993zm-10.013 3.968c-1.1-.004-1.997-.907-1.993-2.007s.907-1.997 2.007-1.993c1.099.003 1.997.906 1.993 2.006s-.907 1.997-2.007 1.994zm1.979 6.506c.006-1.9 1.361-3.446 3.011-3.44 1.65.005 2.995 1.56 2.989 3.46s-1.361 3.446-3.011 3.44-2.995-1.56-2.989-3.46z"/></svg>