<svg id="bold_v2" enable-background="new 0 0 24 24" height="512" viewBox="0 0 24 24" width="512" xmlns="http://www.w3.org/2000/svg"><path d="m21.169 10.986.606.909c.013.02.021.042.034.062.122-.624.191-1.258.191-1.904 0-5.514-4.486-10.053-10-10.053s-10 4.539-10 10.053c0 .745.09 1.486.256 2.21.09-.141.164-.288.267-.423l.68-.893c.484-.635.531-1.487.121-2.172-.214-.355-.098-.815.257-1.029.355-.212.815-.098 1.029.258 1.693 2.823-1.018 4.124-1.67 6.264-.74 3.749 1.669 6.271 4.636 6.271h.266v1.685c0 .95.773 1.724 1.724 1.724h4.868c.95 0 1.724-.773 1.724-1.724v-1.685h.188c4.039 0 6.369-4.53 4.181-7.812-.16-.37-2.049-2.247-1.015-4.831.154-.385.592-.568.975-.417.385.154.571.591.417.976-.334.835-.235 1.781.265 2.531zm-12.669 6.014c-1.378 0-2.5-1.121-2.5-2.5s1.122-2.5 2.5-2.5 2.5 1.121 2.5 2.5-1.122 2.5-2.5 2.5zm3.5 3c-1.392 0-1.5-.957-1.5-1.25 0-.698.515-2 1.5-2s1.5 1.302 1.5 2c0 .293-.108 1.25-1.5 1.25zm3.5-2.978c-1.378 0-2.5-1.121-2.5-2.5s1.122-2.5 2.5-2.5 2.5 1.121 2.5 2.5-1.122 2.5-2.5 2.5z"/></svg>