<svg id="bold_v2" enable-background="new 0 0 24 24" height="512" viewBox="0 0 24 24" width="512" xmlns="http://www.w3.org/2000/svg"><path d="m21.94 11.05c-.23-.93-.58-1.8-1.04-2.61-.08.22-.18.43-.32.62l-.35.49c.47.42.77 1.02.77 1.7 0 .67-.3 1.28-.77 1.69.01.18.02.37.02.56 0 4.55-3.7 8.25-8.25 8.25s-8.25-3.7-8.25-8.25 3.7-8.25 8.25-8.25c.65 0 1.28.08 1.88.23-.4.61-1.09 1.02-1.88 1.02-.55 0-1 .45-1 1s.45 1 1 1c.73 0 1.41-.19 2.01-.51-.01-.08-.01-.16-.01-.24 0-1.24 1.01-2.25 2.25-2.25h2.13c-.65-.53-1.37-.97-2.14-1.32-.04-2.31-1.92-4.18-4.24-4.18s-4.2 1.87-4.24 4.18c-2.82 1.29-4.94 3.8-5.7 6.86-1.17.21-2.06 1.23-2.06 2.46s.89 2.25 2.06 2.46c1.1 4.46 5.14 7.79 9.94 7.79s8.84-3.33 9.94-7.79c1.17-.21 2.06-1.23 2.06-2.46s-.88-2.25-2.06-2.45zm-9.94-9.05c.96 0 1.78.61 2.1 1.47-.68-.14-1.38-.22-2.1-.22s-1.42.08-2.1.22c.32-.86 1.14-1.47 2.1-1.47z"/><path d="m10 14c0-.414-.336-.75-.75-.75s-.75.336-.75.75c0 .275-.225.5-.5.5s-.5-.225-.5-.5c0-.414-.336-.75-.75-.75s-.75.336-.75.75c0 1.103.897 2 2 2s2-.897 2-2z"/><path d="m18 14c0-.414-.336-.75-.75-.75s-.75.336-.75.75c0 .275-.225.5-.5.5s-.5-.225-.5-.5c0-.414-.336-.75-.75-.75s-.75.336-.75.75c0 1.103.897 2 2 2s2-.897 2-2z"/><path d="m9.75 20h4.5c.414 0 .75-.336.75-.75s-.336-.75-.75-.75h-4.5c-.414 0-.75.336-.75.75s.336.75.75.75z"/><path d="m23.25 5.5h-.689l1.22-1.22c.215-.215.278-.537.163-.817-.117-.28-.39-.463-.694-.463h-2.5c-.414 0-.75.336-.75.75s.336.75.75.75h.689l-1.22 1.22c-.215.215-.278.537-.163.817.117.28.39.463.694.463h2.5c.414 0 .75-.336.75-.75s-.336-.75-.75-.75z"/><path d="m19.417 7.407c-.129-.25-.386-.407-.667-.407h-2.5c-.414 0-.75.336-.75.75s.336.75.75.75h1.043l-1.653 2.314c-.163.229-.186.529-.057.778.129.251.386.408.667.408h2.5c.414 0 .75-.336.75-.75s-.336-.75-.75-.75h-1.043l1.653-2.314c.163-.229.186-.53.057-.779z"/></svg>