<svg id="bold_v2" enable-background="new 0 0 24 24" height="512" viewBox="0 0 24 24" width="512" xmlns="http://www.w3.org/2000/svg"><path d="m23.25 2.5h-.689l1.22-1.22c.215-.215.278-.537.163-.817-.117-.28-.39-.463-.694-.463h-2.5c-.414 0-.75.336-.75.75s.336.75.75.75h.689l-1.22 1.22c-.215.215-.278.537-.163.817.117.28.39.463.694.463h2.5c.414 0 .75-.336.75-.75s-.336-.75-.75-.75z"/><path d="m15.083 8.593c.129.25.386.407.667.407h2.5c.414 0 .75-.336.75-.75s-.336-.75-.75-.75h-1.043l1.653-2.314c.163-.229.186-.529.057-.778-.129-.251-.386-.408-.667-.408h-2.5c-.414 0-.75.336-.75.75s.336.75.75.75h1.043l-1.653 2.314c-.163.229-.186.53-.057.779z"/><path d="m12 24c6.065 0 11-4.935 11-11 0-2.174-.642-4.196-1.734-5.904.289-.506.479-1.046.597-1.596h-1.113c-.127 0-.245-.034-.367-.055-.07.214-.166.421-.302.611l-.354.497c.473.414.773 1.021.773 1.697 0 1.24-1.01 2.25-2.25 2.25h-2.5c-.846 0-1.612-.468-2-1.22-.389-.75-.324-1.646.169-2.337l.354-.497c-.473-.413-.773-1.02-.773-1.696 0-1.097.791-2.011 1.832-2.208-1.053-.34-2.167-.542-3.332-.542-2.094 0-4.045.599-5.713 1.618-.772-.756-1.227-1.766-1.227-2.868 0-.296-.174-.564-.444-.685-.271-.121-.585-.072-.807.126-1.983 1.78-2.398 4.672-1.092 6.932-1.081 1.703-1.717 3.715-1.717 5.877 0 6.065 4.935 11 11 11zm2.75-12.25c.414 0 .75.336.75.75 0 .552.448 1 1 1s1-.448 1-1c0-.414.336-.75.75-.75s.75.336.75.75c0 1.379-1.121 2.5-2.5 2.5s-2.5-1.121-2.5-2.5c0-.414.336-.75.75-.75zm.5 6.75c.414 0 .75.336.75.75s-.336.75-.75.75h-6.5c-.414 0-.75-.336-.75-.75s.336-.75.75-.75zm-9.5-6.75c.414 0 .75.336.75.75 0 .552.448 1 1 1s1-.448 1-1c0-.414.336-.75.75-.75s.75.336.75.75c0 1.379-1.121 2.5-2.5 2.5s-2.5-1.121-2.5-2.5c0-.414.336-.75.75-.75z"/></svg>