<svg id="bold_v2" enable-background="new 0 0 24 24" height="512" viewBox="0 0 24 24" width="512" xmlns="http://www.w3.org/2000/svg"><path d="m23.25 2.5h-.689l1.22-1.22c.214-.214.279-.537.163-.817s-.391-.463-.694-.463h-2.5c-.414 0-.75.336-.75.75s.336.75.75.75h.689l-1.22 1.22c-.214.214-.279.537-.163.817s.391.463.694.463h2.5c.414 0 .75-.336.75-.75s-.336-.75-.75-.75z"/><path d="m20.75 5.5c-.143 0-.276-.036-.413-.061.099.253.163.523.163.811 0 1.241-1.009 2.25-2.25 2.25h-2.5c-.845 0-1.611-.467-2-1.218-.388-.755-.323-1.651.168-2.339l.355-.496c-.473-.414-.773-1.021-.773-1.697 0-1.158.883-2.104 2.009-2.226-1.11-.339-2.288-.524-3.509-.524-6.627 0-12 5.373-12 12s5.373 12 12 12 12-5.373 12-12c0-2.398-.711-4.626-1.922-6.5zm-15.75 5c0-.414.336-.75.75-.75s.75.336.75.75c0 .551.449 1 1 1s1-.449 1-1c0-.414.336-.75.75-.75s.75.336.75.75c0 1.378-1.122 2.5-2.5 2.5s-2.5-1.122-2.5-2.5zm10.25 8h-6.5c-.414 0-.75-.336-.75-.75s.336-.75.75-.75h6.5c.414 0 .75.336.75.75s-.336.75-.75.75zm1.25-5.5c-1.378 0-2.5-1.122-2.5-2.5 0-.414.336-.75.75-.75s.75.336.75.75c0 .551.449 1 1 1s1-.449 1-1c0-.414.336-.75.75-.75s.75.336.75.75c0 1.378-1.122 2.5-2.5 2.5z"/><path d="m18.917 2.407c-.129-.25-.386-.407-.667-.407h-2.5c-.414 0-.75.336-.75.75s.336.75.75.75h1.042l-1.652 2.314c-.163.229-.185.529-.057.779.129.25.386.407.667.407h2.5c.414 0 .75-.336.75-.75s-.336-.75-.75-.75h-1.042l1.653-2.314c.162-.228.184-.529.056-.779z"/></svg>