<svg id="bold_v2" enable-background="new 0 0 24 24" height="512" viewBox="0 0 24 24" width="512" xmlns="http://www.w3.org/2000/svg"><path d="m21.941 11.048c-.756-3.061-2.884-5.581-5.698-6.867-.038-2.311-1.923-4.181-4.243-4.181s-4.205 1.87-4.243 4.181c-2.813 1.286-4.941 3.804-5.697 6.863-1.169.21-2.06 1.228-2.06 2.456s.891 2.246 2.06 2.456c1.104 4.467 5.136 7.794 9.94 7.794s8.836-3.327 9.94-7.794c1.169-.21 2.06-1.228 2.06-2.456 0-1.229-.881-2.25-2.059-2.452zm-9.941-9.048c.965 0 1.783.614 2.102 1.469-.679-.142-1.382-.219-2.102-.219s-1.423.077-2.102.219c.319-.855 1.137-1.469 2.102-1.469zm0 19.75c-4.549 0-8.25-3.701-8.25-8.25s3.701-8.25 8.25-8.25c.648 0 1.277.083 1.883.225-.402.616-1.095 1.025-1.883 1.025-.552 0-1 .447-1 1s.448 1 1 1c1.649 0 3.066-.954 3.77-2.33 2.656 1.372 4.48 4.139 4.48 7.33 0 4.549-3.701 8.25-8.25 8.25z"/><circle cx="8" cy="13" r="1.25"/><circle cx="16" cy="13" r="1.25"/><path d="m14.297 17.548c-1.228 1.227-3.366 1.227-4.594 0-.293-.293-.768-.293-1.061 0s-.293.768 0 1.061c.926.926 2.142 1.389 3.357 1.389s2.432-.463 3.357-1.389c.293-.293.293-.768 0-1.061s-.766-.293-1.059 0z"/></svg>