<svg id="bold_v2" enable-background="new 0 0 24 24" height="512" viewBox="0 0 24 24" width="512" xmlns="http://www.w3.org/2000/svg"><path d="m2.06 15.956c1.104 4.467 5.136 7.794 9.94 7.794s8.836-3.327 9.94-7.794c1.169-.21 2.06-1.228 2.06-2.456 0-1.229-.881-2.25-2.059-2.452-.756-3.061-2.884-5.581-5.698-6.867-.038-2.311-1.923-4.181-4.243-4.181s-4.205 1.87-4.243 4.181c-2.813 1.286-4.941 3.804-5.697 6.863-1.169.21-2.06 1.228-2.06 2.456s.891 2.246 2.06 2.456zm9.94-13.956c.965 0 1.783.614 2.102 1.469-.679-.142-1.382-.219-2.102-.219s-1.423.077-2.102.219c.319-.855 1.137-1.469 2.102-1.469zm0 3.25c.648 0 1.277.083 1.883.225-.402.616-1.095 1.025-1.883 1.025-.552 0-1 .447-1 1s.448 1 1 1c1.649 0 3.066-.954 3.77-2.33 2.656 1.372 4.48 4.139 4.48 7.33 0 4.549-3.701 8.25-8.25 8.25s-8.25-3.701-8.25-8.25 3.701-8.25 8.25-8.25z"/><path d="m8.643 17.798c-.293.293-.293.768 0 1.061.926.926 2.142 1.389 3.357 1.389s2.432-.463 3.357-1.389c.293-.293.293-.768 0-1.061s-.768-.293-1.061 0c-1.228 1.227-3.366 1.227-4.594 0-.292-.293-.766-.293-1.059 0z"/><path d="m6.75 13.75c.414 0 .75-.336.75-.75 0-.275.224-.5.5-.5s.5.225.5.5c0 .414.336.75.75.75s.75-.336.75-.75c0-1.103-.897-2-2-2s-2 .897-2 2c0 .414.336.75.75.75z"/><path d="m14.75 13.75c.414 0 .75-.336.75-.75 0-.275.224-.5.5-.5s.5.225.5.5c0 .414.336.75.75.75s.75-.336.75-.75c0-1.103-.897-2-2-2s-2 .897-2 2c0 .414.336.75.75.75z"/></svg>