<svg id="bold_v2" enable-background="new 0 0 24 24" height="512" viewBox="0 0 24 24" width="512" xmlns="http://www.w3.org/2000/svg"><path d="m12 0c-6.62 0-12 5.38-12 12s5.38 12 12 12 12-5.38 12-12-5.38-12-12-12zm-7 9.5c0-1.38 1.12-2.5 2.5-2.5s2.5 1.12 2.5 2.5c0 .41-.34.75-.75.75s-.75-.34-.75-.75c0-.55-.45-1-1-1s-1 .45-1 1c0 .41-.34.75-.75.75s-.75-.34-.75-.75zm12.53 8.24c-1.52 1.53-3.53 2.29-5.53 2.29s-4.01-.76-5.53-2.29c-.29-.29-.29-.76 0-1.06.29-.29.77-.29 1.06 0 .19.2.4.37.61.53 1.1.86 2.44 1.33 3.86 1.33s2.76-.47 3.86-1.33c.21-.16.42-.33.61-.53.29-.29.77-.29 1.06 0 .29.3.29.77 0 1.06zm.72-7.49c-.41 0-.75-.34-.75-.75 0-.55-.45-1-1-1s-1 .45-1 1c0 .41-.34.75-.75.75s-.75-.34-.75-.75c0-1.38 1.12-2.5 2.5-2.5s2.5 1.12 2.5 2.5c0 .41-.34.75-.75.75z"/></svg>