<svg id="bold_v2" enable-background="new 0 0 24 24" height="512" viewBox="0 0 24 24" width="512" xmlns="http://www.w3.org/2000/svg"><path d="m21.266 7.096c1.284-2.248.865-5.127-1.103-6.902-.221-.199-.537-.248-.807-.129-.271.121-.445.39-.445.686 0 1.098-.453 2.103-1.222 2.853-1.663-1.011-3.606-1.604-5.689-1.604-2.094 0-4.045.599-5.713 1.618-.772-.756-1.227-1.766-1.227-2.868 0-.296-.174-.564-.444-.685-.271-.121-.585-.072-.807.126-1.983 1.78-2.398 4.672-1.092 6.932-1.081 1.703-1.717 3.715-1.717 5.877 0 6.065 4.935 11 11 11s11-4.935 11-11c0-2.174-.642-4.196-1.734-5.904zm-16.266 3.154c0-1.379 1.122-2.5 2.5-2.5s2.5 1.121 2.5 2.5c0 .414-.336.75-.75.75s-.75-.336-.75-.75c0-.552-.449-1-1-1s-1 .448-1 1c0 .414-.336.75-.75.75s-.75-.336-.75-.75zm12.53 7.495c-1.525 1.524-3.527 2.287-5.53 2.287s-4.005-.763-5.53-2.287c-.293-.293-.293-.768 0-1.061s.768-.293 1.061 0c2.465 2.465 6.475 2.465 8.939 0 .293-.293.768-.293 1.061 0s.292.768-.001 1.061zm.72-6.745c-.414 0-.75-.336-.75-.75 0-.552-.449-1-1-1s-1 .448-1 1c0 .414-.336.75-.75.75s-.75-.336-.75-.75c0-1.379 1.122-2.5 2.5-2.5s2.5 1.121 2.5 2.5c0 .414-.336.75-.75.75z"/></svg>