<svg id="bold_v2" enable-background="new 0 0 24 24" height="512" viewBox="0 0 24 24" width="512" xmlns="http://www.w3.org/2000/svg"><path d="m12 24c6.62 0 12-5.38 12-12s-5.38-12-12-12-12 5.38-12 12 5.38 12 12 12zm5-17c1.1 0 2 .9 2 2s-.9 2-2 2-2-.9-2-2 .9-2 2-2zm-10 0c1.1 0 2 .9 2 2s-.9 2-2 2-2-.9-2-2 .9-2 2-2zm-3.296 6.825c.527-.163 1.088.131 1.251.659.871 2.806 3.768 4.766 7.045 4.766s6.174-1.96 7.045-4.766c.164-.527.725-.823 1.251-.659.527.164.822.724.659 1.251-1.128 3.635-4.81 6.173-8.955 6.173s-7.827-2.539-8.955-6.173c-.164-.527.131-1.087.659-1.251z"/></svg>