<svg id="bold_v2" enable-background="new 0 0 24 24" height="512" viewBox="0 0 24 24" width="512" xmlns="http://www.w3.org/2000/svg"><path d="m23.518 8.459c-.528-.553-1.342-.691-2.021-.354l-1.231.613-.181-1.376c-.533-4.042-4.009-7.09-8.085-7.09s-7.552 3.048-8.084 7.09l-.181 1.376-1.23-.612c-.683-.342-1.494-.2-2.022.353-.534.56-.636 1.357-.259 2.033l2.65 4.765-.855 6.486c-.087.646.192 1.276.727 1.648.533.372 1.222.413 1.797.106l2.029-1.078c.342-.182.756-.188 1.105-.014l3.113 1.557c.379.189.794.284 1.21.284s.831-.095 1.21-.284l3.113-1.557c.35-.175.763-.168 1.106.014l2.027 1.078c.576.305 1.265.266 1.798-.106.534-.372.813-1.003.727-1.646l-.855-6.488 2.65-4.764c.377-.677.276-1.474-.258-2.034zm-8.018-1.209c1.379 0 2.5 1.121 2.5 2.5 0 .414-.336.75-.75.75s-.75-.336-.75-.75c0-.552-.448-1-1-1s-1 .448-1 1c0 .414-.336.75-.75.75s-.75-.336-.75-.75c0-1.379 1.121-2.5 2.5-2.5zm-9.5 2.5c0-1.379 1.121-2.5 2.5-2.5s2.5 1.121 2.5 2.5c0 .414-.336.75-.75.75s-.75-.336-.75-.75c0-.552-.448-1-1-1s-1 .448-1 1c0 .414-.336.75-.75.75s-.75-.336-.75-.75zm12.311 7.53c-.462.462-1.068.693-1.676.693-.606 0-1.213-.231-1.675-.693l-.572-.572c-.738.321-1.541.512-2.388.512-2.637 0-4.934-1.694-5.716-4.217-.123-.396.098-.816.493-.938.398-.125.816.099.938.493.589 1.891 2.309 3.162 4.285 3.162s3.696-1.271 4.284-3.162c.123-.395.54-.617.938-.493.396.122.616.543.493.938-.025.081-.065.153-.093.232l.691.697c.921.922.921 2.424-.002 3.348z"/></svg>