<svg id="bold_v2" enable-background="new 0 0 24 24" height="512" viewBox="0 0 24 24" width="512" xmlns="http://www.w3.org/2000/svg"><path d="m2.06 15.96c1.1 4.46 5.14 7.79 9.94 7.79 1.75 0 3.4-.44 4.85-1.23-.46-.5-.89-1.06-1.18-1.64-1.11.56-2.35.87-3.67.87-4.55 0-8.25-3.7-8.25-8.25 0-1.03.19-2.01.53-2.92l-.13-.09c-.32-.22-.89-.63-1.49-1.18-.25.55-.45 1.13-.6 1.73-1.17.21-2.06 1.23-2.06 2.46s.89 2.25 2.06 2.46z"/><path d="m24 13.5c0-1.23-.88-2.25-2.06-2.45-.75-3.06-2.88-5.58-5.7-6.87-.04-2.31-1.92-4.18-4.24-4.18-1.77 0-3.28 1.08-3.92 2.62.99.52 1.67 1.53 1.67 2.7 0 .08 0 .17-.02.25.72-.21 1.48-.32 2.27-.32.65 0 1.28.08 1.88.23-.4.61-1.09 1.02-1.88 1.02-.55 0-1 .45-1 1s.45 1 1 1c1.65 0 3.07-.95 3.77-2.33 2.66 1.37 4.48 4.14 4.48 7.33 0 1.06-.2 2.06-.56 2.99.1.05.21.1.31.15.47-.25 1-.39 1.55-.39.1 0 .2 0 .3.02.04-.1.06-.2.09-.31 1.17-.21 2.06-1.23 2.06-2.46zm-12-10.25c-.72 0-1.42.08-2.1.22.32-.86 1.14-1.47 2.1-1.47s1.78.61 2.1 1.47c-.68-.14-1.38-.22-2.1-.22z"/><path d="m12 18.745c1.216 0 2.432-.463 3.357-1.389.293-.293.293-.768 0-1.061s-.768-.293-1.061 0c-1.228 1.227-3.366 1.227-4.594 0-.293-.293-.768-.293-1.061 0s-.293.768 0 1.061c.927.926 2.143 1.389 3.359 1.389z"/><path d="m20 23.25s3.25-2.239 3.25-3.935c0-.863-.76-1.565-1.696-1.565-.695 0-1.294.386-1.554.939-.26-.553-.859-.939-1.554-.939-.935 0-1.696.702-1.696 1.565 0 1.696 3.25 3.935 3.25 3.935z"/><path d="m6.75 13.75c.414 0 .75-.336.75-.75 0-.275.224-.5.5-.5s.5.225.5.5c0 .414.336.75.75.75s.75-.336.75-.75c0-1.103-.897-2-2-2s-2 .897-2 2c0 .414.336.75.75.75z"/><path d="m16 12.5c.276 0 .5.225.5.5 0 .414.336.75.75.75s.75-.336.75-.75c0-1.103-.897-2-2-2s-2 .897-2 2c0 .414.336.75.75.75s.75-.336.75-.75c0-.275.224-.5.5-.5z"/><path d="m8.25 5.315c0-.863-.76-1.565-1.696-1.565-.695 0-1.294.386-1.554.939-.26-.553-.859-.939-1.554-.939-.936 0-1.696.702-1.696 1.565 0 1.696 3.25 3.935 3.25 3.935s3.25-2.239 3.25-3.935z"/></svg>