<svg id="bold_v2" enable-background="new 0 0 24 24" height="512" viewBox="0 0 24 24" width="512" xmlns="http://www.w3.org/2000/svg"><path d="m12 24c6.62 0 12-5.38 12-12 0-1.83-.41-3.56-1.14-5.11-2.69 1.27-7.01 1.61-10.86 1.61s-8.17-.34-10.86-1.61c-.73 1.55-1.14 3.28-1.14 5.11 0 6.62 5.38 12 12 12zm5-15c1.1 0 2 .9 2 2s-.9 2-2 2-2-.9-2-2 .9-2 2-2zm-.46 7.37c.39-.39 1.03-.39 1.42 0s.39 1.02 0 1.41c-1.59 1.59-3.71 2.47-5.96 2.47s-4.37-.88-5.96-2.47c-.39-.39-.39-1.02 0-1.41s1.03-.39 1.42 0c1.21 1.21 2.82 1.88 4.54 1.88s3.33-.67 4.54-1.88zm-9.54-7.37c1.1 0 2 .9 2 2s-.9 2-2 2-2-.9-2-2 .9-2 2-2z"/><path d="m1.87 5.58c2.99 1.33 8.68 1.42 10.13 1.42s7.14-.09 10.13-1.42c1.12-.5 1.87-1.17 1.87-2.08 0-3.09-8.63-3.46-11.46-3.49-.22-.01-.4-.01-.54-.01s-.32 0-.54.01c-2.83.03-11.46.4-11.46 3.49 0 .91.75 1.58 1.87 2.08zm19.97-2.08c-.2.13-.52.28-.97.43-.39-.43-.81-.84-1.26-1.2 1.13.25 1.88.53 2.23.77zm-17.45-.77c-.45.36-.87.77-1.26 1.2-.45-.15-.77-.3-.97-.43.35-.24 1.1-.52 2.23-.77z"/></svg>