<svg id="bold_v2" enable-background="new 0 0 24 24" height="512" viewBox="0 0 24 24" width="512" xmlns="http://www.w3.org/2000/svg"><path d="m21.55.96c-.57 0-1.12.2-1.55.54-.43-.34-.98-.54-1.55-.54-.41 0-.8.1-1.15.27-1.6-.79-3.4-1.23-5.3-1.23-6.62 0-12 5.38-12 12 0 1.89.44 3.69 1.22 5.28-.73.4-1.22 1.16-1.22 2.02 0 2.01 2.97 4.18 3.57 4.6.13.09.28.14.43.14s.3-.05.43-.14c.27-.19 1-.72 1.73-1.42 1.73.97 3.72 1.52 5.84 1.52 6.62 0 12-5.38 12-12 0-2.12-.55-4.11-1.52-5.84.8-.84 1.52-1.88 1.52-2.86 0-1.29-1.1-2.34-2.45-2.34zm-16.7 20.67c-.28.26-.57.5-.85.72-1.13-.87-2.5-2.25-2.5-3.05 0-.31.19-.58.47-.72.14-.08.3-.12.48-.12.15 0 .29.03.41.1.2.08.37.23.46.42.19.41.74.5 1.1.28.11-.06.2-.16.26-.28.15-.31.49-.52.87-.52.53 0 .95.38.95.84 0 .34-.24.77-.61 1.23-.13.19-.3.38-.49.57-.17.18-.36.36-.55.53zm2.65-13.63c1.38 0 2.5 1.12 2.5 2.5 0 .41-.34.75-.75.75s-.75-.34-.75-.75c0-.55-.45-1-1-1s-1 .45-1 1c0 .41-.34.75-.75.75s-.75-.34-.75-.75c0-1.38 1.12-2.5 2.5-2.5zm-1.28 7.61c-.29-.3-.29-.77 0-1.07.29-.29.77-.29 1.06 0 .19.19.4.38.61.54 1.17.93 2.6 1.42 4.11 1.42s2.94-.49 4.11-1.42c.21-.16.42-.35.61-.54.29-.29.77-.29 1.06 0 .29.3.29.77 0 1.07-1.54 1.54-3.6 2.39-5.78 2.39s-4.24-.85-5.78-2.39zm12.03-4.36c-.41 0-.75-.34-.75-.75 0-.55-.45-1-1-1s-1 .45-1 1c0 .41-.34.75-.75.75s-.75-.34-.75-.75c0-1.38 1.12-2.5 2.5-2.5s2.5 1.12 2.5 2.5c0 .41-.34.75-.75.75zm2.85-5.85c-.18.17-.37.34-.56.5-.18.16-.36.31-.54.45-1.13-.87-2.5-2.25-2.5-3.05 0-.08.01-.15.04-.22.07-.24.27-.45.53-.55h.01c.11-.05.24-.07.37-.07.38 0 .72.21.87.52.17.36.61.47.96.35.17-.06.32-.18.4-.35.15-.31.49-.52.87-.52.53 0 .95.38.95.84 0 .42-.36.98-.87 1.55-.16.18-.34.37-.53.55z"/></svg>