<svg id="bold_v2" enable-background="new 0 0 24 24" height="512" viewBox="0 0 24 24" width="512" xmlns="http://www.w3.org/2000/svg"><path d="m12 0c-6.62 0-12 5.38-12 12s5.38 12 12 12 12-5.38 12-12-5.38-12-12-12zm5.957 17.771c-1.642 1.643-3.8 2.464-5.957 2.464s-4.315-.821-5.957-2.464c-.391-.391-.391-1.023 0-1.414s1.023-.391 1.414 0c1.213 1.213 2.827 1.881 4.543 1.881s3.33-.668 4.543-1.881c.391-.391 1.023-.391 1.414 0s.391 1.024 0 1.414zm3.543-9.851c0 2.11-.97 6.1-4.64 6.1-2.46 0-4.02-1.56-4.86-3.1-.84 1.54-2.4 3.1-4.86 3.1-3.67 0-4.64-3.99-4.64-6.1 0-.38.28-.7.66-.74.25-.04 5.93-.72 8.84.84 2.91-1.56 8.59-.88 8.84-.84.38.04.66.36.66.74z"/></svg>