<svg id="bold_v2" enable-background="new 0 0 24 24" height="512" viewBox="0 0 24 24" width="512" xmlns="http://www.w3.org/2000/svg"><path d="m21.94 11.05c-.75-3.06-2.88-5.58-5.7-6.87-.04-2.31-1.92-4.18-4.24-4.18s-4.2 1.87-4.24 4.18c-2.82 1.29-4.94 3.8-5.7 6.86-1.17.21-2.06 1.23-2.06 2.46s.89 2.25 2.06 2.46c1.1 4.46 5.14 7.79 9.94 7.79 2.04 0 3.94-.6 5.53-1.64-.41-.37-.9-.84-1.46-1.44-1.2.69-2.59 1.08-4.07 1.08-4.55 0-8.25-3.7-8.25-8.25s3.7-8.25 8.25-8.25c.65 0 1.28.08 1.88.23-.4.61-1.09 1.02-1.88 1.02-.55 0-1 .45-1 1s.45 1 1 1c1.65 0 3.07-.95 3.77-2.33 2.66 1.37 4.48 4.14 4.48 7.33 0 .91-.15 1.79-.42 2.61.44-.07.82-.11 1.15-.11.34 0 .63.04.89.11.01 0 .01 0 .02.01.02-.05.04-.11.05-.16 1.17-.21 2.06-1.23 2.06-2.46s-.89-2.25-2.06-2.45zm-9.94-7.8c-.72 0-1.42.08-2.1.22.32-.86 1.14-1.47 2.1-1.47s1.78.61 2.1 1.47c-.68-.14-1.38-.22-2.1-.22z"/><path d="m9.25 13.25c-.414 0-.75.336-.75.75 0 .275-.225.5-.5.5s-.5-.225-.5-.5c0-.414-.336-.75-.75-.75s-.75.336-.75.75c0 1.103.897 2 2 2s2-.897 2-2c0-.414-.336-.75-.75-.75z"/><path d="m18 14c0-.414-.336-.75-.75-.75s-.75.336-.75.75c0 .275-.225.5-.5.5s-.5-.225-.5-.5c0-.414-.336-.75-.75-.75s-.75.336-.75.75c0 1.103.897 2 2 2s2-.897 2-2z"/><path d="m10 21h4c.414 0 .75-.336.75-.75 0-1.517-1.233-2.75-2.75-2.75s-2.75 1.233-2.75 2.75c0 .414.336.75.75.75z"/><path d="m20.244 22.168c1.274.341 2.583-.414 2.924-1.688s-.415-2.583-1.688-2.924c-.88-.236-3.042.366-4.293.76-.451.142-.6.7-.281 1.048.886.967 2.458 2.568 3.338 2.804z"/></svg>