<svg id="bold_v2" enable-background="new 0 0 24 24" height="512" viewBox="0 0 24 24" width="512" xmlns="http://www.w3.org/2000/svg"><path d="m23.97 3.95c-.01-.02-.01-.04-.01-.06-.03-.08-.07-.15-.12-.22 0 0-.01 0-.01-.01-.01-.01-.03-.02-.05-.04-.04-.05-.09-.09-.15-.13-.03-.01-.05-.02-.08-.03-.06-.03-.12-.05-.19-.06-.01 0-.03-.01-.05-.01 0 0-.01 0-.02 0-.08 0-.16 0-.25.02-.02.01-1.76.5-4.3.93l-1.61-2.93c-.48-.87-1.38-1.41-2.37-1.41h-5.52c-.99 0-1.89.54-2.37 1.41l-1.61 2.93c-2.45-.41-4.14-.88-4.28-.92h-.01l-.01-.01c-.09-.02-.17-.02-.25-.02-.01 0-.02 0-.02 0-.02 0-.03.01-.05.01-.07.01-.13.03-.19.06-.03.01-.05.02-.08.04-.06.03-.11.07-.15.12-.02.01-.04.03-.05.04 0 .01-.01.01-.01.01-.05.07-.09.14-.12.22 0 .02 0 .04-.01.06-.02.06-.02.13-.02.21 0 .01-.01.02-.01.04.04.43.39 4.05 2.16 5.72-.43 1.15-.66 2.37-.66 3.63 0 5.79 4.71 10.5 10.5 10.5 2.51 0 4.82-.89 6.62-2.36-.4-.26-.92-.65-1.61-1.28-1.4 1.03-3.14 1.64-5.01 1.64-4.69 0-8.5-3.81-8.5-8.5 0-1.66.5-3.23 1.39-4.61 2.13 1.2 4.52 1.81 7.11 1.81s4.98-.61 7.1-1.81c.9 1.38 1.4 2.95 1.4 4.61 0 .23-.01.45-.03.67.12-.01.24-.01.35-.01.35 0 .65.03.92.1.25.07.49.16.71.27.03-.34.05-.68.05-1.03 0-1.26-.23-2.48-.66-3.63 1.77-1.67 2.12-5.29 2.16-5.72 0-.02-.01-.03-.01-.04 0-.08 0-.15-.02-.21z"/><path d="m20.029 20.705c1.365.366 2.767-.444 3.133-1.809s-.444-2.767-1.809-3.133c-.949-.254-3.288.4-4.625.822-.471.149-.627.732-.294 1.096.948 1.034 2.647 2.77 3.595 3.024z"/><path d="m10 12.5c0-.414-.336-.75-.75-.75s-.75.336-.75.75c0 .552-.449 1-1 1s-1-.448-1-1c0-.414-.336-.75-.75-.75s-.75.336-.75.75c0 1.379 1.122 2.5 2.5 2.5s2.5-1.121 2.5-2.5z"/><path d="m19 12.5c0-.414-.336-.75-.75-.75s-.75.336-.75.75c0 .552-.449 1-1 1s-1-.448-1-1c0-.414-.336-.75-.75-.75s-.75.336-.75.75c0 1.379 1.122 2.5 2.5 2.5s2.5-1.121 2.5-2.5z"/><path d="m9 20.963h6c.243 0 .471-.118.612-.316s.176-.452.096-.682c-.551-1.571-2.041-2.627-3.708-2.627s-3.157 1.056-3.708 2.627c-.081.229-.045.483.096.682s.369.316.612.316z"/></svg>