<svg id="bold_v2" enable-background="new 0 0 24 24" height="512" viewBox="0 0 24 24" width="512" xmlns="http://www.w3.org/2000/svg"><path d="m12 24c2.794 0 5.339-1.058 7.28-2.782.118.053.232.096.34.125.3.08.604.12.906.12.603 0 1.198-.158 1.733-.468.806-.465 1.381-1.215 1.621-2.112.361-1.347-.131-2.718-1.134-3.56.164-.749.254-1.525.254-2.323 0-2.174-.642-4.196-1.734-5.904 1.284-2.248.865-5.127-1.103-6.902-.221-.199-.537-.248-.807-.129-.271.121-.445.39-.445.686 0 1.098-.453 2.103-1.222 2.853-1.663-1.011-3.606-1.604-5.689-1.604-2.094 0-4.045.599-5.713 1.618-.772-.756-1.227-1.766-1.227-2.868 0-.296-.174-.564-.444-.685-.271-.121-.585-.072-.807.126-1.983 1.78-2.398 4.672-1.092 6.932-1.081 1.703-1.717 3.715-1.717 5.877 0 6.065 4.935 11 11 11zm9.033-7.927c1.054.282 1.681 1.368 1.398 2.422-.282 1.055-1.367 1.685-2.423 1.399-.693-.186-2.235-1.652-3.446-2.972 1.709-.535 3.776-1.035 4.471-.849zm-6.283-5.073c.414 0 .75.336.75.75 0 .552.448 1 1 1s1-.448 1-1c0-.414.336-.75.75-.75s.75.336.75.75c0 1.379-1.121 2.5-2.5 2.5s-2.5-1.121-2.5-2.5c0-.414.336-.75.75-.75zm.953 8.988c.086.23.053.488-.087.689-.14.203-.37.323-.616.323h-6c-.246 0-.476-.12-.616-.322-.14-.201-.173-.459-.087-.689.555-1.489 2.043-2.489 3.703-2.489s3.148 1 3.703 2.488zm-9.953-8.988c.414 0 .75.336.75.75 0 .552.448 1 1 1s1-.448 1-1c0-.414.336-.75.75-.75s.75.336.75.75c0 1.379-1.121 2.5-2.5 2.5s-2.5-1.121-2.5-2.5c0-.414.336-.75.75-.75z"/></svg>