<svg id="bold_v2" enable-background="new 0 0 24 24" height="512" viewBox="0 0 24 24" width="512" xmlns="http://www.w3.org/2000/svg"><path d="m22.438 18.952c.125-.466.061-.953-.18-1.372-.242-.418-.631-.717-1.098-.842-.63-.169-2.514.282-4.094.775 1.122 1.217 2.525 2.548 3.158 2.718.964.261 1.955-.315 2.214-1.279z"/><path d="m12 0c-6.627 0-12 5.373-12 12s5.373 12 12 12c2.77 0 5.313-.948 7.344-2.524-1.534-.794-3.705-3.288-4.165-3.83-.16-.188-.217-.442-.153-.68s.241-.429.473-.512c.745-.266 4.535-1.57 6.049-1.165.646.173 1.211.531 1.639 1.026.518-1.341.813-2.792.813-4.315 0-6.627-5.373-12-12-12zm-7 12.5c0-.414.336-.75.75-.75s.75.336.75.75c0 .551.449 1 1 1s1-.449 1-1c0-.414.336-.75.75-.75s.75.336.75.75c0 1.378-1.122 2.5-2.5 2.5s-2.5-1.122-2.5-2.5zm10.458 7.476c.081.229.045.483-.096.682s-.369.316-.612.316h-5.5c-.243 0-.471-.118-.612-.316s-.176-.452-.096-.682c.514-1.465 1.903-2.449 3.458-2.449s2.944.984 3.458 2.449zm1.042-4.976c-1.378 0-2.5-1.122-2.5-2.5 0-.414.336-.75.75-.75s.75.336.75.75c0 .551.449 1 1 1s1-.449 1-1c0-.414.336-.75.75-.75s.75.336.75.75c0 1.378-1.122 2.5-2.5 2.5z"/></svg>