<svg id="bold_v2" enable-background="new 0 0 24 24" height="512" viewBox="0 0 24 24" width="512" xmlns="http://www.w3.org/2000/svg"><path d="m9.75 17c0 1.24 1.01 2.25 2.25 2.25s2.25-1.01 2.25-2.25v-1.25h-4.5z"/><path d="m12 0c-6.62 0-12 5.38-12 12s5.38 12 12 12 12-5.38 12-12-5.38-12-12-12zm-5.68 9.64.43-.3 1.19-.84-1.19-.84-.43-.3c-.34-.23-.42-.7-.18-1.04.23-.34.7-.42 1.04-.18l2.5 1.75c.2.14.32.37.32.61s-.12.47-.32.61l-2.5 1.75c-.13.1-.28.14-.43.14-.24 0-.47-.11-.61-.32-.24-.34-.16-.81.18-1.04zm10.18 6.11h-.25v1.25c0 2.34-1.91 4.25-4.25 4.25s-4.25-1.91-4.25-4.25v-1.25h-.25c-.55 0-1-.45-1-1s.45-1 1-1h9c.55 0 1 .45 1 1s-.45 1-1 1zm.75-6.41.43.3c.34.23.42.7.18 1.04-.14.21-.37.32-.61.32-.15 0-.3-.04-.43-.14l-2.5-1.75c-.2-.14-.32-.37-.32-.61s.12-.47.32-.61l2.5-1.75c.34-.24.81-.16 1.04.18.24.34.16.81-.18 1.04l-.43.3-1.19.84z"/></svg>