<svg id="bold_v2" enable-background="new 0 0 24 24" height="512" viewBox="0 0 24 24" width="512" xmlns="http://www.w3.org/2000/svg"><path d="m12 0c-6.62 0-12 5.38-12 12s5.38 12 12 12 12-5.38 12-12-5.38-12-12-12zm2.32 7.89 2.5-1.75c.34-.24.81-.16 1.04.18.24.34.16.81-.18 1.04l-1.62 1.14 1.62 1.14c.34.23.42.7.18 1.04-.14.21-.37.32-.61.32-.15 0-.3-.04-.43-.14l-2.5-1.75c-.2-.14-.32-.37-.32-.61s.12-.47.32-.61zm-8-.53c-.34-.23-.42-.7-.18-1.04.23-.34.7-.42 1.04-.18l2.5 1.75c.2.14.32.37.32.61s-.12.47-.32.61l-2.5 1.75c-.13.1-.28.14-.43.14-.24 0-.47-.11-.61-.32-.24-.34-.16-.81.18-1.04l1.62-1.14zm10.93 9.64v1.5c0 1.93-1.57 3.5-3.5 3.5s-3.5-1.57-3.5-3.5v-1.5h-3.5c-.55 0-1-.45-1-1s.45-1 1-1h10.5c.55 0 1 .45 1 1s-.45 1-1 1z"/><path d="m12.25 18.5c0 .83.67 1.5 1.5 1.5s1.5-.67 1.5-1.5v-1.5h-3z"/></svg>