<svg id="bold_v2" enable-background="new 0 0 24 24" height="512" viewBox="0 0 24 24" width="512" xmlns="http://www.w3.org/2000/svg"><path d="m12 24.05c5.79 0 10.5-4.71 10.5-10.5 0-1.26-.23-2.48-.66-3.63.23-.22.44-.48.63-.76l-2.27 2.22c.2.7.3 1.42.3 2.17 0 .59-.06 1.16-.17 1.71v.01c-.08.37-.18.73-.3 1.07-1.16 3.32-4.32 5.71-8.03 5.71s-6.87-2.39-8.03-5.71c-.12-.34-.22-.7-.3-1.07v-.01c-.11-.55-.17-1.12-.17-1.71 0-.75.1-1.48.3-2.18l-2.27-2.21c.19.28.4.54.63.76-.43 1.15-.66 2.37-.66 3.63 0 5.79 4.71 10.5 10.5 10.5z"/><path d="m23.97 3.95c-.01-.02-.01-.04-.01-.06-.03-.08-.07-.15-.12-.22 0 0-.01 0-.01-.01-.01-.01-.03-.02-.05-.04-.04-.05-.09-.09-.15-.13-.03-.01-.05-.02-.08-.03-.06-.03-.12-.05-.19-.06-.01 0-.03-.01-.05-.01 0 0-.01 0-.02 0-.08 0-.16 0-.25.02-.02.01-1.76.5-4.3.93l-1.617-2.942c-.473-.862-1.379-1.398-2.363-1.398h-5.506c-.993 0-1.906.54-2.384 1.41l-1.61 2.93c-2.45-.41-4.14-.88-4.28-.92h-.01l-.01-.01c-.09-.02-.17-.02-.25-.02-.01 0-.02 0-.02 0-.02 0-.03.01-.05.01-.07.01-.13.03-.19.06-.03.01-.05.02-.08.04-.06.03-.11.07-.15.12-.02.01-.04.03-.05.04 0 .01-.01.01-.01.01-.05.07-.09.14-.12.22 0 .02 0 .04-.01.06-.02.06-.02.13-.02.21 0 .01-.01.02-.01.04.03.32.24 2.45 1.08 4.19l4.52-.66 1.951-3.966c.081-.165.317-.165.398 0l1.961 3.966 2.09.3 2.09-.3 1.961-3.967c.081-.165.317-.165.398 0l1.961 3.967 4.51.66c.84-1.74 1.05-3.87 1.08-4.19 0-.02-.01-.03-.01-.04 0-.08 0-.15-.02-.21z"/><path d="m10.86 9.381-1.947-.283-.871-1.764c-.118-.239-.458-.239-.576 0l-.871 1.764-1.947.283c-.263.038-.369.362-.178.548l1.409 1.373-.333 1.939c-.045.262.23.462.466.339l1.742-.916 1.742.916c.236.124.511-.076.466-.339l-.333-1.939 1.409-1.373c.191-.186.085-.51-.178-.548z"/><path d="m19.356 9.381-1.947-.283-.871-1.764c-.118-.239-.458-.239-.576 0l-.871 1.764-1.947.283c-.263.038-.369.362-.178.548l1.409 1.373-.333 1.939c-.045.262.23.462.466.339l1.742-.916 1.742.916c.236.124.511-.076.466-.339l-.333-1.939 1.409-1.373c.191-.186.085-.51-.178-.548z"/><path d="m6.146 16.305c-.142.192-.184.44-.113.668.817 2.633 3.215 4.402 5.967 4.402s5.149-1.77 5.967-4.402c.07-.228.028-.476-.113-.668s-.366-.305-.604-.305h-10.5c-.238 0-.463.113-.604.305z"/></svg>