<svg id="bold_v2" enable-background="new 0 0 24 24" height="512" viewBox="0 0 24 24" width="512" xmlns="http://www.w3.org/2000/svg"><path d="m12 0c-6.62 0-12 5.38-12 12s5.38 12 12 12 12-5.38 12-12-5.38-12-12-12zm-8.963 7.879c.088-.271.322-.469.605-.51l1.855-.27.829-1.682c.254-.512 1.092-.512 1.346 0l.829 1.682 1.855.27c.283.041.518.239.605.51.089.271.015.57-.189.769l-1.341 1.309.317 1.848c.048.282-.067.566-.299.734-.13.095-.285.143-.44.143-.119 0-.239-.028-.349-.086l-1.66-.873-1.66.873c-.252.132-.561.11-.789-.057-.231-.168-.347-.452-.299-.734l.317-1.848-1.342-1.309c-.205-.199-.279-.498-.19-.769zm8.963 13.341c-2.935 0-5.592-1.422-7.222-3.72h14.443c-1.629 2.298-4.286 3.72-7.221 3.72zm8.47-6.25c-.11.356-.247.697-.397 1.03h-16.146c-.15-.333-.287-.674-.397-1.03-.07-.23-.03-.47.12-.66.14-.2.36-.31.6-.31h15.5c.24 0 .46.11.6.31.15.19.19.43.12.66zm.493-7.091c.089.271.015.57-.189.769l-1.343 1.309.317 1.848c.048.282-.067.566-.299.734-.13.095-.285.143-.44.143-.119 0-.239-.028-.349-.086l-1.66-.873-1.66.873c-.252.132-.56.11-.789-.057-.231-.168-.347-.452-.299-.734l.317-1.848-1.343-1.309c-.204-.199-.278-.498-.189-.769.088-.271.322-.469.605-.51l1.855-.27.829-1.682c.254-.512 1.092-.512 1.346 0l.829 1.682 1.855.27c.285.041.519.238.607.51z"/></svg>