<svg id="bold_v2" enable-background="new 0 0 24 24" height="512" viewBox="0 0 24 24" width="512" xmlns="http://www.w3.org/2000/svg"><path d="m21.266 7.096c1.284-2.248.865-5.127-1.103-6.902-.221-.199-.537-.248-.807-.129-.271.121-.445.39-.445.686 0 1.098-.453 2.103-1.222 2.853-1.663-1.011-3.606-1.604-5.689-1.604-2.094 0-4.045.599-5.713 1.618-.772-.756-1.227-1.766-1.227-2.868 0-.296-.174-.564-.444-.685-.271-.121-.585-.072-.807.126-1.983 1.78-2.398 4.672-1.092 6.932-1.081 1.703-1.717 3.715-1.717 5.877 0 6.065 4.935 11 11 11s11-4.935 11-11c0-2.174-.642-4.196-1.734-5.904zm-2.037 10.097c-1.739 2.384-4.535 3.807-7.479 3.807-.414 0-.75-.336-.75-.75s.336-.75.75-.75c2.467 0 4.81-1.193 6.268-3.191.243-.335.711-.409 1.048-.163.333.244.407.712.163 1.047zm-2.368-3.926c-3.889 0-4.861-4.375-4.861-4.375s-.972 4.375-4.861 4.375-3.889-5.347-3.889-5.347 6.198-.77 8.75.972c2.552-1.742 8.75-.972 8.75-.972s0 5.347-3.889 5.347z"/></svg>