<svg id="bold_v2" enable-background="new 0 0 24 24" height="512" viewBox="0 0 24 24" width="512" xmlns="http://www.w3.org/2000/svg"><path d="m21.94 11.05c-.75-3.06-2.88-5.58-5.7-6.87-.04-2.31-1.92-4.18-4.24-4.18s-4.2 1.87-4.24 4.18c-2.82 1.29-4.94 3.8-5.7 6.86-1.17.21-2.06 1.23-2.06 2.46s.89 2.25 2.06 2.46c1.1 4.46 5.14 7.79 9.94 7.79 1.85 0 3.59-.49 5.09-1.37-.78-.19-1.47-.63-1.97-1.24-.96.39-2.01.61-3.12.61-4.55 0-8.25-3.7-8.25-8.25s3.7-8.25 8.25-8.25c.65 0 1.28.08 1.88.23-.4.61-1.09 1.02-1.88 1.02-.55 0-1 .45-1 1s.45 1 1 1c1.65 0 3.07-.95 3.77-2.33 2.66 1.37 4.48 4.14 4.48 7.33 0 .47-.04.94-.12 1.39.63.95 1.07 1.78 1.33 2.5.2-.46.36-.94.48-1.43 1.17-.21 2.06-1.23 2.06-2.46s-.88-2.25-2.06-2.45zm-9.94-7.8c-.72 0-1.42.08-2.1.22.32-.86 1.14-1.47 2.1-1.47s1.78.61 2.1 1.47c-.68-.14-1.38-.22-2.1-.22z"/><circle cx="8" cy="13" r="1.25"/><circle cx="16" cy="13" r="1.25"/><path d="m9.703 20.366c1.228-1.227 3.366-1.227 4.594 0 .146.146.338.22.53.22s.384-.073.53-.22c.293-.293.293-.768 0-1.061-1.852-1.852-4.863-1.852-6.715 0-.293.293-.293.768 0 1.061s.768.293 1.061 0z"/><path d="m18 21c1.241 0 2.25-1.01 2.25-2.25 0-.958-1.142-2.716-1.633-3.426-.28-.406-.954-.406-1.234 0-.491.71-1.633 2.468-1.633 3.426 0 1.24 1.009 2.25 2.25 2.25z"/></svg>