<svg id="bold_v2" enable-background="new 0 0 24 24" height="512" viewBox="0 0 24 24" width="512" xmlns="http://www.w3.org/2000/svg"><path d="m12 0c-6.627 0-12 5.373-12 12s5.373 12 12 12 12-5.373 12-12-5.373-12-12-12zm-5 11c-1.103 0-2-.897-2-2s.897-2 2-2 2 .897 2 2-.897 2-2 2zm8.28 8.419c-.146.146-.338.22-.53.22s-.384-.073-.53-.22c-1.186-1.186-3.254-1.186-4.439 0-.293.293-.768.293-1.061 0-.293-.292-.293-.768 0-1.061.876-.876 2.041-1.358 3.28-1.358s2.404.482 3.28 1.359c.293.293.293.768 0 1.06zm-.28-10.419c0-1.103.897-2 2-2s2 .897 2 2-.897 2-2 2-2-.897-2-2zm3 8c-1.103 0-2-.897-2-2 0-.834.967-2.324 1.383-2.926.28-.405.954-.405 1.234 0 .416.602 1.383 2.092 1.383 2.926 0 1.103-.897 2-2 2z"/></svg>