<svg id="bold_v2" enable-background="new 0 0 24 24" height="512" viewBox="0 0 24 24" width="512" xmlns="http://www.w3.org/2000/svg"><path d="m.15 13.57c-.31.98-.09 2.08.68 2.85.01.02.03.03.04.04.001.001.003.002.004.003.006.02.004.042.012.061 1.856 4.541 6.218 7.476 11.114 7.476s9.258-2.935 11.114-7.476c.008-.019.006-.041.012-.061.001-.001.003-.002.004-.003.01-.01.03-.02.04-.04.77-.77.99-1.87.69-2.84.02-.06.05-.12.06-.19.05-.5.08-.95.08-1.39 0-6.62-5.38-12-12-12s-12 5.38-12 12c0 .44.03.89.08 1.39.01.06.04.12.07.18zm21.96-.08c.52.52.52 1.36 0 1.87-.51.52-1.35.52-1.86 0-.31-.31-.73-1.58-1.03-2.89 1.31.3 2.58.72 2.89 1.02zm-5.61-6.49c1.38 0 2.5 1.12 2.5 2.5 0 .41-.34.75-.75.75s-.75-.34-.75-.75c0-.55-.45-1-1-1s-1 .45-1 1c0 .41-.34.75-.75.75s-.75-.34-.75-.75c0-1.38 1.12-2.5 2.5-2.5zm1.56 7c.16.53.34 1.05.55 1.5 0 .01.01.02.01.03 0 0 0 .01.01.01.08.17.16.32.23.46h-13.67-.05c.07-.14.15-.29.23-.46.01 0 .01-.01.01-.01 0-.01.01-.02.01-.03.21-.45.39-.97.55-1.5zm-10.56-7c1.38 0 2.5 1.12 2.5 2.5 0 .41-.34.75-.75.75s-.75-.34-.75-.75c0-.55-.45-1-1-1s-1 .45-1 1c0 .41-.34.75-.75.75s-.75-.34-.75-.75c0-1.38 1.12-2.5 2.5-2.5zm11.7 10.5c-1.65 2.33-4.31 3.72-7.2 3.72s-5.55-1.39-7.2-3.72zm-17.31-4.01c.31-.3 1.58-.72 2.89-1.02-.3 1.31-.72 2.58-1.03 2.89-.51.52-1.35.52-1.86 0-.52-.51-.52-1.35 0-1.87z"/></svg>