<svg id="bold_v2" enable-background="new 0 0 24 24" height="512" viewBox="0 0 24 24" width="512" xmlns="http://www.w3.org/2000/svg"><path d="m13.979 17.71c-1.091 1.055-2.867 1.055-3.958 0-.297-.285-.772-.28-1.061.02-.288.298-.279.772.019 1.061.833.804 1.927 1.205 3.021 1.205s2.188-.401 3.021-1.205c.298-.288.306-.763.019-1.061-.287-.3-.763-.305-1.061-.02z"/><path d="m22 11.178v-3.118c0-2.062-.756-3.889-2.187-5.283-1.859-1.812-4.789-2.831-7.832-2.772-3.903.097-5.088 1.581-5.448 2.493-1.83.265-4.533 1.648-4.533 5.58v3.1c-1.174.419-2 1.53-2 2.822 0 1.636 1.318 2.966 2.947 2.995.216.456.612 1.154.642 1.206 1.852 3.012 4.154 5.799 8.411 5.799 4.359 0 6.582-2.934 8.334-5.703.02-.034.465-.788.713-1.302 1.632-.026 2.953-1.357 2.953-2.995 0-1.292-.826-2.403-2-2.822zm-2.266 5.089c-.156.347-.551 1.031-.679 1.247-1.948 3.078-3.808 4.986-7.055 4.986-3.325 0-5.256-2.033-7.121-5.063 0 0-.435-.763-.609-1.15-.33-.761-.543-1.553-.661-2.361l1.105-3.494c.548-.255 2.942-1.493 3.443-3.798.818 1.434 2.964 4.366 6.843 4.366.095 0 .182-.054.224-.139s.033-.187-.024-.262c-.795-1.054-.969-2.277-.987-3.047.715 1.052 2.221 2.948 3.787 2.948.382 0 .54-.007.703-.015.146-.007.296-.014.623-.016l1.067 3.425c-.118.813-.331 1.609-.659 2.373z"/><circle cx="8" cy="13.5" r="1.5"/><circle cx="16" cy="13.5" r="1.5"/></svg>