<svg id="bold_v2" enable-background="new 0 0 24 24" height="512" viewBox="0 0 24 24" width="512" xmlns="http://www.w3.org/2000/svg"><path d="m10.021 17.71c-.297-.285-.771-.28-1.061.02-.287.298-.279.772.02 1.061.832.804 1.927 1.205 3.021 1.205s2.188-.401 3.021-1.205c.299-.288.307-.763.02-1.061-.288-.3-.762-.305-1.061-.02-1.093 1.055-2.869 1.055-3.96 0z"/><path d="m12.01 0c-4.822 0-10.01 2.579-10.01 8.24v6.399c0 1.52.941 2.84 2.33 3.365.388 1.177 1.108 2.335 2.106 3.345 1.64 1.661 3.72 2.651 5.564 2.651 1.749 0 3.754-.931 5.363-2.49 1.082-1.049 1.86-2.258 2.28-3.488 1.386-.514 2.357-1.864 2.357-3.412v-6.36c0-5.668-5.179-8.25-9.99-8.25zm6.49 16c0 1.474-.795 3.089-2.181 4.433-1.316 1.275-2.971 2.067-4.319 2.067-1.431 0-3.153-.845-4.497-2.204-1.289-1.305-2.02-2.867-2.003-4.296v-4.528c3.504-.269 5.542-2.386 6.507-3.755.96 1.37 2.991 3.486 6.493 3.755z"/><circle cx="8.5" cy="13.5" r="1.5"/><circle cx="15.5" cy="13.5" r="1.5"/></svg>