<svg id="bold_v2" enable-background="new 0 0 24 24" height="512" viewBox="0 0 24 24" width="512" xmlns="http://www.w3.org/2000/svg"><path d="m21.18 5.5h-.94-16.48-.94-.9c-1.22 1.87-1.92 4.1-1.92 6.5 0 .17 0 .33.02.5h.74.75 20.98.75.74c.02-.17.02-.33.02-.5 0-2.4-.7-4.63-1.92-6.5zm-14.18 5.5c-1.1 0-2-.9-2-2s.9-2 2-2 2 .9 2 2-.9 2-2 2zm10 0c-1.1 0-2-.9-2-2s.9-2 2-2 2 .9 2 2-.9 2-2 2z"/><path d="m5.21 4h13.58 1.11 1.03c-2.19-2.46-5.38-4-8.93-4s-6.74 1.54-8.93 4h1.03z"/><path d="m23.83 14h-.76-.76-20.62-.76-.76c.95 5.67 5.89 10 11.83 10s10.88-4.33 11.83-10zm-12.33 6.25c0-.41.34-.75.75-.75.68 0 1.36-.09 2.01-.28 1.05-.27 2.03-.77 2.88-1.46.52-.42.98-.9 1.38-1.45.24-.34.71-.41 1.04-.16.34.24.41.71.17 1.04-1.74 2.39-4.54 3.81-7.48 3.81-.41 0-.75-.34-.75-.75z"/></svg>