<svg id="bold_v2" enable-background="new 0 0 24 24" height="512" viewBox="0 0 24 24" width="512" xmlns="http://www.w3.org/2000/svg"><path d="m12 0c-6.62 0-12 5.38-12 12s5.38 12 12 12 12-5.38 12-12-5.38-12-12-12zm-7 9c0-1.1.9-2 2-2s2 .9 2 2-.9 2-2 2-2-.9-2-2zm12.25 8.25v1.5c0 1.93-1.57 3.5-3.5 3.5s-3.5-1.57-3.5-3.5v-1.5h-3.5c-.55 0-1-.45-1-1s.45-1 1-1h10.5c.55 0 1 .45 1 1s-.45 1-1 1zm-.25-6.25c-1.1 0-2-.9-2-2s.9-2 2-2 2 .9 2 2-.9 2-2 2z"/><path d="m12.25 18.75c0 .83.67 1.5 1.5 1.5s1.5-.67 1.5-1.5v-1.5h-3z"/></svg>