<svg id="bold_v2" enable-background="new 0 0 24 24" height="512" viewBox="0 0 24 24" width="512" xmlns="http://www.w3.org/2000/svg"><path d="m12.25 18.75c0 .83.67 1.5 1.5 1.5s1.5-.67 1.5-1.5v-1.5h-3z"/><path d="m12 0c-6.62 0-12 5.38-12 12s5.38 12 12 12 12-5.38 12-12-5.38-12-12-12zm-7 9.25c0-1.38 1.12-2.5 2.5-2.5s2.5 1.12 2.5 2.5c0 .41-.34.75-.75.75s-.75-.34-.75-.75c0-.55-.45-1-1-1s-1 .45-1 1c0 .41-.34.75-.75.75s-.75-.34-.75-.75zm12.25 8v1.5c0 1.93-1.57 3.5-3.5 3.5s-3.5-1.57-3.5-3.5v-1.5h-3.5c-.55 0-1-.45-1-1s.45-1 1-1h10.5c.55 0 1 .45 1 1s-.45 1-1 1zm1-7.25c-.41 0-.75-.34-.75-.75 0-.55-.45-1-1-1s-1 .45-1 1c0 .41-.34.75-.75.75s-.75-.34-.75-.75c0-1.38 1.12-2.5 2.5-2.5s2.5 1.12 2.5 2.5c0 .41-.34.75-.75.75z"/></svg>