<svg id="bold_v2" enable-background="new 0 0 24 24" height="512" viewBox="0 0 24 24" width="512" xmlns="http://www.w3.org/2000/svg"><path d="m22.03 1.32c-.14-.2-.37-.32-.61-.32-.25 0-.48.12-.62.32-.2.3-.6.89-.99 1.57-2.17-1.87-4.91-2.89-7.81-2.89-6.62 0-12 5.38-12 12 0 5.82 4.16 10.69 9.67 11.78-.54-.23-.99-.63-1.28-1.13h-.01c-.16-.28-.28-.59-.33-.93h-.01c-.03-.15-.04-.31-.04-.47v-2.75h-.25c-.41 0-.75-.34-.75-.75s.34-.75.75-.75h8.5c.41 0 .75.34.75.75s-.34.75-.75.75h-.25v2.75c0 .16-.01.32-.04.47h-.01c-.05.34-.17.65-.33.93h-.01c-.29.5-.74.9-1.28 1.13 5.51-1.09 9.67-5.96 9.67-11.78 0-1.61-.31-3.16-.92-4.61.56-.47.92-1.18.92-1.97 0-1.16-1.5-3.43-1.97-4.1zm-14.53 10.68c-1.38 0-2.5-1.12-2.5-2.5 0-.41.34-.75.75-.75s.75.34.75.75c0 .55.45 1 1 1s1-.45 1-1c0-.41.34-.75.75-.75s.75.34.75.75c0 1.38-1.12 2.5-2.5 2.5zm9 0c-1.38 0-2.5-1.12-2.5-2.5 0-.41.34-.75.75-.75s.75.34.75.75c0 .55.45 1 1 1s1-.45 1-1c0-.41.34-.75.75-.75s.75.34.75.75c0 1.38-1.12 2.5-2.5 2.5zm5.12-5.52c-.07.01-.13.02-.2.02-.6 0-1.09-.49-1.09-1.08 0-.12.06-.33.17-.58.04-.09.09-.19.13-.3.03-.06.06-.11.09-.17.19-.38.44-.81.7-1.24.59.96 1.08 1.94 1.08 2.29 0 .52-.38.97-.88 1.06z"/></svg>