<svg id="bold_v2" enable-background="new 0 0 24 24" height="512" viewBox="0 0 24 24" width="512" xmlns="http://www.w3.org/2000/svg"><path d="m12 0c-6.627 0-12 5.373-12 12s5.373 12 12 12 12-5.373 12-12-5.373-12-12-12zm2.334 5.959 2.5-1.667c.345-.231.811-.136 1.04.208.229.345.137.81-.208 1.04l-2.5 1.667c-.128.085-.272.126-.415.126-.242 0-.48-.117-.625-.334-.23-.344-.137-.81.208-1.04zm-8.208-1.459c.229-.344.694-.439 1.04-.208l2.5 1.667c.345.23.438.695.208 1.04-.145.217-.383.334-.625.334-.143 0-.287-.041-.415-.126l-2.5-1.667c-.345-.229-.438-.695-.208-1.04zm-1.126 5.5c0-1.103.897-2 2-2s2 .897 2 2-.897 2-2 2-2-.897-2-2zm10.25 8h-6.5c-.414 0-.75-.336-.75-.75s.336-.75.75-.75h6.5c.414 0 .75.336.75.75s-.336.75-.75.75zm1.75-6c-1.103 0-2-.897-2-2s.897-2 2-2 2 .897 2 2-.897 2-2 2z"/></svg>