<svg id="bold_v2" enable-background="new 0 0 24 24" height="512" viewBox="0 0 24 24" width="512" xmlns="http://www.w3.org/2000/svg"><path d="m12 0c-6.62 0-12 5.38-12 12s5.38 12 12 12 12-5.38 12-12-5.38-12-12-12zm-5 17c-1.1 0-2-.9-2-2s.9-2 2-2 2 .9 2 2-.9 2-2 2zm.707-9.507c-.391.391-1.023.391-1.414 0-.391-.39-.391-1.023 0-1.414 1.524-1.525 3.551-2.365 5.707-2.365s4.183.84 5.707 2.364c.391.391.391 1.024 0 1.414-.195.196-.451.294-.707.294s-.512-.098-.707-.293c-1.147-1.147-2.671-1.779-4.293-1.779s-3.146.632-4.293 1.779zm9.293 9.507c-1.1 0-2-.9-2-2s.9-2 2-2 2 .9 2 2-.9 2-2 2z"/></svg>