<svg id="bold_v2" enable-background="new 0 0 24 24" height="512" viewBox="0 0 24 24" width="512" xmlns="http://www.w3.org/2000/svg"><path d="m12 0c-6.627 0-12 5.373-12 12 0 3.122 1.202 5.956 3.157 8.091.233-.305.51-.581.847-.785 1.168-.729 2.613-.845 3.746-.785v-2.211h-.75c-.414 0-.75-.336-.75-.75s.336-.75.75-.75h10c.414 0 .75.336.75.75s-.336.75-.75.75h-.75v2.258c1.134-.068 2.562.033 3.731.735.342.205.623.483.859.79 1.957-2.134 3.16-4.969 3.16-8.093 0-6.627-5.373-12-12-12zm-2.32 10.114-2.5 1.75c-.131.092-.281.136-.429.136-.236 0-.47-.111-.615-.32-.237-.339-.155-.807.185-1.044l1.621-1.136-1.622-1.136c-.34-.237-.422-.705-.184-1.044.236-.34.704-.423 1.044-.184l2.5 1.75c.201.14.32.369.32.614s-.119.474-.32.614zm8 .522c.34.237.422.705.185 1.044-.146.209-.38.32-.616.32-.148 0-.298-.044-.429-.136l-2.5-1.75c-.201-.14-.32-.369-.32-.614s.119-.474.32-.614l2.5-1.75c.34-.237.807-.155 1.044.184s.155.807-.185 1.044l-1.621 1.136z"/><path d="m14.75 16.31h-5.5v1.73 2.21s-2.77-.72-4.47.34c-.543.329-.979 1.219-1.183 2.207-.061.295.015.601.205.834s.474.369.775.369h14.846c.301 0 .586-.135.776-.369.19-.233.265-.54.204-.835-.205-.988-.643-1.878-1.193-2.206-1.7-1.02-4.46-.28-4.46-.28v-2.27z"/></svg>