<svg id="bold_v2" enable-background="new 0 0 24 24" height="512" viewBox="0 0 24 24" width="512" xmlns="http://www.w3.org/2000/svg"><path d="m2.156 9.915c-.428 1.152-.656 2.375-.656 3.635 0 5.79 4.71 10.5 10.5 10.5s10.5-4.71 10.5-10.5c0-1.26-.228-2.482-.656-3.635 1.762-1.667 2.117-5.283 2.153-5.718.001-.014-.005-.027-.005-.041.002-.071-.006-.141-.025-.211-.005-.019-.006-.038-.012-.056-.026-.076-.063-.149-.114-.214-.004-.005-.009-.008-.013-.012-.013-.016-.03-.027-.044-.042-.047-.049-.099-.091-.156-.125-.025-.015-.049-.026-.076-.038-.061-.027-.124-.045-.19-.055-.018-.003-.032-.013-.051-.015-.007 0-.013.003-.02.003-.083-.005-.167.001-.249.024-.019.005-1.764.499-4.303.921l-1.611-2.927c-.474-.869-1.382-1.409-2.369-1.409h-5.518c-.987 0-1.895.54-2.369 1.406l-1.613 2.93c-2.445-.407-4.142-.877-4.276-.915-.005-.001-.009-.002-.014-.004-.001 0-.012-.003-.012-.003-.082-.023-.166-.029-.249-.024-.007.001-.014-.003-.021-.002-.017.001-.031.011-.048.014-.067.01-.13.028-.192.056-.027.011-.052.023-.076.037-.057.034-.108.076-.155.125-.015.015-.032.026-.045.043-.004.004-.01.007-.013.012-.051.065-.088.138-.114.214-.006.018-.007.038-.012.057-.018.069-.027.139-.025.21 0 .014-.006.027-.005.042.037.434.392 4.05 2.154 5.717zm2.739-.97c2.128 1.196 4.51 1.81 7.105 1.81s4.976-.613 7.105-1.81c.898 1.375 1.395 2.948 1.395 4.605 0 4.687-3.813 8.5-8.5 8.5s-8.5-3.813-8.5-8.5c0-1.658.497-3.23 1.395-4.605z"/><path d="m6.136 14.68c.145.209.378.32.614.32.148 0 .299-.044.43-.136l2.5-1.75c.2-.14.32-.369.32-.614s-.12-.474-.32-.614l-2.5-1.75c-.338-.239-.807-.157-1.044.184-.238.339-.155.807.184 1.044l1.622 1.136-1.622 1.136c-.34.237-.422.705-.184 1.044z"/><path d="m17.097 14.883c.125.079.264.117.403.117.248 0 .49-.123.633-.348.222-.35.119-.812-.23-1.035l-1.756-1.117 1.756-1.117c.349-.223.452-.686.23-1.035-.223-.351-.688-.451-1.036-.23l-2.75 1.75c-.216.137-.347.375-.347.632s.131.495.347.633z"/><path d="m6.75 19.938h10.5c.238 0 .462-.113.604-.305.141-.192.183-.44.112-.668-.817-2.633-3.215-4.402-5.966-4.402s-5.149 1.77-5.966 4.402c-.071.228-.029.476.112.668.142.191.366.305.604.305z"/></svg>