<svg id="bold_v2" enable-background="new 0 0 24 24" height="512" viewBox="0 0 24 24" width="512" xmlns="http://www.w3.org/2000/svg"><path d="m12 0c-6.62 0-12 5.38-12 12s5.38 12 12 12 12-5.38 12-12-5.38-12-12-12zm2.1 7.87 2.75-1.75c.35-.23.81-.12 1.03.23s.12.81-.23 1.03l-1.75 1.12 1.75 1.12c.35.22.45.68.23 1.03-.14.23-.38.35-.63.35-.14 0-.28-.04-.4-.12l-2.75-1.75c-.22-.13-.35-.37-.35-.63s.13-.5.35-.63zm-7.75-.49c-.35-.22-.45-.68-.23-1.03s.68-.46 1.03-.23l2.75 1.75c.22.13.35.37.35.63s-.13.5-.35.63l-2.75 1.75c-.12.08-.26.12-.4.12-.25 0-.49-.12-.63-.35-.22-.35-.12-.81.23-1.03l1.75-1.12zm13.07 11.3c-.14.2-.37.32-.61.32h-13.62c-.24 0-.47-.12-.61-.32-.14-.19-.18-.45-.1-.68 1.12-3.18 4.14-5.32 7.52-5.32s6.4 2.14 7.52 5.32c.08.23.04.49-.1.68z"/></svg>