<svg id="bold_v2" enable-background="new 0 0 24 24" height="512" viewBox="0 0 24 24" width="512" xmlns="http://www.w3.org/2000/svg"><path d="m12 0c-6.62 0-12 5.38-12 12s5.38 12 12 12 12-5.38 12-12-5.38-12-12-12zm-8 9.25c0-.41.34-.75.75-.75h4.5c.41 0 .75.34.75.75s-.34.75-.75.75h-4.5c-.41 0-.75-.34-.75-.75zm13.957 8.521c-1.642 1.643-3.8 2.464-5.957 2.464s-4.315-.821-5.957-2.464c-.391-.391-.391-1.023 0-1.414s1.023-.391 1.414 0c1.213 1.213 2.827 1.881 4.543 1.881s3.33-.668 4.543-1.881c.391-.391 1.023-.391 1.414 0s.391 1.024 0 1.414zm-.957-6.771c-1.1 0-2-.9-2-2s.9-2 2-2 2 .9 2 2-.9 2-2 2z"/></svg>