<svg id="bold_v2" enable-background="new 0 0 24 24" height="512" viewBox="0 0 24 24" width="512" xmlns="http://www.w3.org/2000/svg"><path d="m10.021 17.71c-.297-.285-.771-.28-1.061.02-.287.298-.279.772.02 1.061.832.804 1.927 1.205 3.021 1.205s2.188-.401 3.021-1.205c.299-.288.307-.763.02-1.061-.288-.3-.763-.305-1.061-.02-1.093 1.055-2.869 1.055-3.96 0z"/><path d="m18.495 3.798c0-.018.005-.03.005-.048 0-2.067-1.683-3.75-3.75-3.75h-5.5c-1 0-1.941.391-2.65 1.1s-1.1 1.65-1.1 2.65c0 .016.003.034.004.051-2.063 1.345-3.504 3.462-3.504 6.439v4.649c0 1.547 1.004 2.905 2.435 3.397.406 1.079 1.083 2.134 2.002 3.064 1.639 1.66 3.719 2.65 5.563 2.65 1.749 0 3.754-.931 5.363-2.49.996-.966 1.733-2.068 2.172-3.197 1.448-.482 2.465-1.85 2.465-3.453v-4.61c0-2.985-1.442-5.105-3.505-6.452zm-10.835-1.638c.426-.426.99-.66 1.59-.66h5.5c.951 0 1.761.595 2.09 1.431-1.507-.622-3.188-.931-4.83-.931-1.65 0-3.339.31-4.853.935.111-.286.279-.551.503-.775zm10.84 13.84c0 1.474-.795 3.089-2.181 4.433-1.316 1.275-2.971 2.067-4.319 2.067-1.431 0-3.153-.845-4.497-2.204-1.289-1.305-2.02-2.867-2.003-4.296v-4.528c3.504-.269 5.542-2.386 6.507-3.755.96 1.37 2.991 3.486 6.493 3.755z"/><circle cx="8.5" cy="13.5" r="1.5"/><circle cx="15.5" cy="13.5" r="1.5"/></svg>