<svg id="bold_v2" enable-background="new 0 0 24 24" height="512" viewBox="0 0 24 24" width="512" xmlns="http://www.w3.org/2000/svg"><path d="m12.01 0c-7.286 0-11.76 3.454-11.76 5.93 0 1.985 1.359 3.105 1.75 3.387v11.933c0 1.517 1.233 2.75 2.75 2.75h14.5c1.517 0 2.75-1.233 2.75-2.75v-11.934c.391-.281 1.75-1.402 1.75-3.387 0-2.475-4.466-5.929-11.74-5.929zm6.49 16c0 3.225-3.782 6.5-6.5 6.5-1.428 0-3.148-.844-4.491-2.201-1.293-1.307-2.025-2.87-2.009-4.299v-5.393c2.124.588 4.312.888 6.5.888s4.376-.3 6.5-.888zm.485-7.097c-.012.004-.024.006-.035.011-4.513 1.441-9.386 1.441-13.899 0-.012-.005-.024-.006-.036-.011-.108-.035-.215-.076-.323-.113 1.351-.406 3.297-.884 5.442-1.075l1.41 1.122c.137.108.302.163.467.163.167 0 .333-.056.47-.165l1.392-1.119c2.142.192 4.085.669 5.434 1.075-.107.036-.214.077-.322.112zm2.388-1.007c-.945-.354-3.388-1.184-6.373-1.569v-2.577c0-.414-.336-.75-.75-.75h-4.5c-.414 0-.75.336-.75.75v2.577c-2.987.385-5.43 1.216-6.374 1.569-.339-.315-.876-.971-.876-1.966 0-1.325 3.491-4.43 10.26-4.43 6.756 0 10.24 3.104 10.24 4.43 0 .992-.538 1.649-.877 1.966z"/><path d="m10.021 17.21c-.297-.285-.773-.28-1.061.02-.288.298-.279.772.019 1.061.833.804 1.927 1.205 3.021 1.205s2.188-.401 3.021-1.205c.298-.288.306-.763.019-1.061-.287-.3-.763-.305-1.061-.02-1.091 1.055-2.867 1.055-3.958 0z"/><circle cx="8.5" cy="13.5" r="1.5"/><circle cx="15.5" cy="13.5" r="1.5"/></svg>