<svg id="bold_v2" enable-background="new 0 0 24 24" height="512" viewBox="0 0 24 24" width="512" xmlns="http://www.w3.org/2000/svg"><path d="m12 0c-6.62 0-12 5.38-12 12s5.38 12 12 12 12-5.38 12-12-5.38-12-12-12zm-4.5 7c1.38 0 2.5 1.12 2.5 2.5 0 .41-.34.75-.75.75s-.75-.34-.75-.75c0-.55-.45-1-1-1s-1 .45-1 1c0 .41-.34.75-.75.75s-.75-.34-.75-.75c0-1.38 1.12-2.5 2.5-2.5zm11.38 8.21c-1.48 2.3-3.95 3.7-6.63 3.78-.08.01-.17.01-.25.01-1.44 0-2.83-.38-4.04-1.09-.05-.02-.1-.05-.15-.08-1.06-.64-1.99-1.52-2.69-2.62-.22-.34-.12-.81.22-1.03.35-.23.81-.13 1.04.22.09.14.19.28.29.41.25.34.53.65.83.93v-.93-.06c0-1.52 1.23-2.75 2.75-2.75.74 0 1.43.29 1.95.82.51.5.8 1.19.8 1.93v.06 2.61c1.71-.26 3.26-1.19 4.33-2.61.1-.13.2-.27.29-.41.23-.35.69-.45 1.04-.22.34.22.44.69.22 1.03zm-.63-4.96c-.41 0-.75-.34-.75-.75 0-.55-.45-1-1-1s-1 .45-1 1c0 .41-.34.75-.75.75s-.75-.34-.75-.75c0-1.38 1.12-2.5 2.5-2.5s2.5 1.12 2.5 2.5c0 .41-.34.75-.75.75z"/></svg>