<svg id="bold_v2" enable-background="new 0 0 24 24" height="512" viewBox="0 0 24 24" width="512" xmlns="http://www.w3.org/2000/svg"><path d="m12 0c-6.62 0-12 5.38-12 12s5.38 12 12 12 12-5.38 12-12-5.38-12-12-12zm5 7c1.103 0 2 .897 2 2s-.897 2-2 2-2-.897-2-2 .897-2 2-2zm-9.5-2c1.93 0 3.5 1.57 3.5 3.5s-1.57 3.5-3.5 3.5-3.5-1.57-3.5-3.5 1.57-3.5 3.5-3.5zm4.5 16.22c-2.935 0-5.592-1.422-7.222-3.72h14.443c-1.629 2.298-4.286 3.72-7.221 3.72zm8.47-6.25c-.11.356-.247.697-.397 1.03h-16.146c-.15-.333-.287-.674-.397-1.03-.07-.23-.03-.47.12-.66.14-.2.36-.31.6-.31h15.5c.24 0 .46.11.6.31.15.19.19.43.12.66z"/></svg>