<svg id="bold_v2" enable-background="new 0 0 24 24" height="512" viewBox="0 0 24 24" width="512" xmlns="http://www.w3.org/2000/svg"><path d="m12 0c-6.627 0-12 5.373-12 12s5.373 12 12 12c2.468 0 4.761-.747 6.669-2.025-.444-.053-.875-.241-1.216-.582-.487-.487-.983-1.929-1.276-2.894h-1.177v.75c0 .414-.336.75-.75.75s-.75-.336-.75-.75v-.749h-.75v.75c0 .414-.336.75-.75.75s-.75-.336-.75-.75v-.75h-.75v.75c0 .414-.336.75-.75.75s-.75-.336-.75-.75v-.75h-1.25c-.414 0-.75-.336-.75-.75s.336-.75.75-.75h1.25v-1.25c0-.414.336-.75.75-.75s.75.336.75.75v1.25h.75v-1.25c0-.414.336-.75.75-.75s.75.336.75.75v1.25h.75v-1.25c0-.414.336-.75.75-.75s.75.336.75.75v1.25h1.75c.048 0 .09.019.135.027.018.004.037-.005.055.001.838.235 2.851.846 3.441 1.437.405.405.606.938.604 1.47 1.871-2.117 3.015-4.889 3.015-7.935 0-6.627-5.373-12-12-12zm-4.5 13c-1.93 0-3.5-1.57-3.5-3.5s1.57-3.5 3.5-3.5 3.5 1.57 3.5 3.5-1.57 3.5-3.5 3.5zm9 0c-1.93 0-3.5-1.57-3.5-3.5s1.57-3.5 3.5-3.5 3.5 1.57 3.5 3.5-1.57 3.5-3.5 3.5z"/><path d="m19.322 19.527c-.158-.143-.748-.388-1.436-.628.252.718.498 1.291.63 1.437.221.221.583.219.805-.002.221-.223.221-.584.001-.807z"/></svg>