<?xml version="1.0" encoding="iso-8859-1"?>
<!-- Generator: Adobe Illustrator 19.0.0, SVG Export Plug-In . SVG Version: 6.00 Build 0)  -->
<svg version="1.1" id="Capa_1" xmlns="http://www.w3.org/2000/svg" xmlns:xlink="http://www.w3.org/1999/xlink" x="0px" y="0px"
	 viewBox="0 0 512 512" style="enable-background:new 0 0 512 512;" xml:space="preserve">
<path style="fill:#607D8B;" d="M447.999,320h-32c-8.832,0-16,7.168-16,16v112h-320V336c0-8.832-7.168-16-16-16h-32
	c-8.832,0-16,7.168-16,16v112c0,35.36,28.64,64,64,64h320c35.36,0,64-28.64,64-64V336C463.999,327.168,456.831,320,447.999,320z"/>
<path style="fill:#4CAF50;" d="M159.999,384h16c141.376,0,256-114.624,256-256V96h48c6.784,0,12.832-4.288,15.104-10.72
	c2.24-6.4,0.192-13.536-5.088-17.792l-80-64C407.071,1.152,403.519,0,399.999,0s-7.072,1.152-10.016,3.488l-80,64
	c-5.312,4.256-7.328,11.36-5.088,17.792c2.272,6.432,8.32,10.72,15.104,10.72h48v32c0,106.048-85.952,192-192,192h-16
	c-8.832,0-16,7.168-16,16v32C143.999,376.832,151.167,384,159.999,384z"/>
<g>
</g>
<g>
</g>
<g>
</g>
<g>
</g>
<g>
</g>
<g>
</g>
<g>
</g>
<g>
</g>
<g>
</g>
<g>
</g>
<g>
</g>
<g>
</g>
<g>
</g>
<g>
</g>
<g>
</g>
</svg>
