<?xml version="1.0" encoding="iso-8859-1"?>
<!-- Generator: Adobe Illustrator 19.0.0, SVG Export Plug-In . SVG Version: 6.00 Build 0)  -->
<svg version="1.1" id="Capa_1" xmlns="http://www.w3.org/2000/svg" xmlns:xlink="http://www.w3.org/1999/xlink" x="0px" y="0px"
	 viewBox="0 0 479.992 479.992" style="enable-background:new 0 0 479.992 479.992;" xml:space="preserve">
<path style="fill:#4CAF50;" d="M229.468,3.96c6.048-5.28,15.04-5.28,21.088,0l126.496,110.752
	c6.656,5.824,7.328,15.968,1.472,22.592l-21.088,24c-5.824,6.624-15.904,7.264-22.56,1.472l-62.88-55.104v228.32
	c0,8.832-7.168,16-16,16h-32c-8.832,0-16-7.168-16-16v-228.32l-62.88,55.104c-6.624,5.792-16.704,5.152-22.56-1.472l-21.088-23.968
	c-5.856-6.656-5.184-16.8,1.472-22.624L229.468,3.96z"/>
<path style="fill:#607D8B;" d="M415.996,415.992h-352c-8.832,0-16,7.168-16,16v32c0,8.832,7.168,16,16,16h352
	c8.832,0,16-7.168,16-16v-32C431.996,423.16,424.828,415.992,415.996,415.992z"/>
<g>
</g>
<g>
</g>
<g>
</g>
<g>
</g>
<g>
</g>
<g>
</g>
<g>
</g>
<g>
</g>
<g>
</g>
<g>
</g>
<g>
</g>
<g>
</g>
<g>
</g>
<g>
</g>
<g>
</g>
</svg>
