<?xml version="1.0" encoding="iso-8859-1"?>
<!-- Generator: Adobe Illustrator 19.0.0, SVG Export Plug-In . SVG Version: 6.00 Build 0)  -->
<svg version="1.1" id="Capa_1" xmlns="http://www.w3.org/2000/svg" xmlns:xlink="http://www.w3.org/1999/xlink" x="0px" y="0px"
	 viewBox="0 0 512 512" style="enable-background:new 0 0 512 512;" xml:space="preserve">
<path style="fill:#2196F3;" d="M243.968,5.472C247.008,2.016,251.392,0,256,0s8.992,2.016,12.032,5.472l112,128
	c4.16,4.704,5.12,11.424,2.528,17.152S374.272,160,368,160h-64v208c0,8.832-7.168,16-16,16h-64c-8.832,0-16-7.168-16-16V160h-64
	c-6.272,0-11.968-3.68-14.56-9.376c-2.624-5.728-1.6-12.416,2.528-17.152L243.968,5.472z"/>
<path style="fill:#607D8B;" d="M432,352v96H80v-96H16v128c0,17.696,14.336,32,32,32h416c17.696,0,32-14.304,32-32V352H432z"/>
<g>
</g>
<g>
</g>
<g>
</g>
<g>
</g>
<g>
</g>
<g>
</g>
<g>
</g>
<g>
</g>
<g>
</g>
<g>
</g>
<g>
</g>
<g>
</g>
<g>
</g>
<g>
</g>
<g>
</g>
</svg>
