<?xml version="1.0" encoding="iso-8859-1"?>
<!-- Generator: Adobe Illustrator 19.0.0, SVG Export Plug-In . SVG Version: 6.00 Build 0)  -->
<svg version="1.1" id="Capa_1" xmlns="http://www.w3.org/2000/svg" xmlns:xlink="http://www.w3.org/1999/xlink" x="0px" y="0px"
	 viewBox="0 0 512.013 512.013" style="enable-background:new 0 0 512.013 512.013;" xml:space="preserve">
<g>
	<path style="fill:#2196F3;" d="M393.222,1.51c-5.632,2.656-9.216,8.288-9.216,14.496v48h-320c-35.296,0-64,28.736-64,64v206.848
		l64-53.344V128.006h320v48c0,6.208,3.584,11.84,9.216,14.496c5.632,2.624,12.256,1.792,17.024-2.208l96-80
		c3.68-3.04,5.76-7.52,5.76-12.288s-2.08-9.248-5.76-12.288l-96-80C405.478-0.282,398.854-1.114,393.222,1.51z"/>
	<path style="fill:#2196F3;" d="M448.006,384.006h-320v-48c0-6.208-3.584-11.84-9.216-14.496
		c-5.632-2.624-12.256-1.792-17.024,2.208l-96,80c-3.68,3.04-5.76,7.52-5.76,12.288s2.08,9.248,5.76,12.288l96,80
		c4.768,4,11.392,4.832,17.024,2.208c5.632-2.656,9.216-8.288,9.216-14.496v-48h320c35.296,0,64-28.704,64-64V177.158l-64,53.344
		V384.006z"/>
</g>
<g>
</g>
<g>
</g>
<g>
</g>
<g>
</g>
<g>
</g>
<g>
</g>
<g>
</g>
<g>
</g>
<g>
</g>
<g>
</g>
<g>
</g>
<g>
</g>
<g>
</g>
<g>
</g>
<g>
</g>
</svg>
