<?xml version="1.0" encoding="iso-8859-1"?>
<!-- Generator: Adobe Illustrator 19.0.0, SVG Export Plug-In . SVG Version: 6.00 Build 0)  -->
<svg version="1.1" id="Capa_1" xmlns="http://www.w3.org/2000/svg" xmlns:xlink="http://www.w3.org/1999/xlink" x="0px" y="0px"
	 viewBox="0 0 512 512" style="enable-background:new 0 0 512 512;" xml:space="preserve">
<path style="fill:#1976D2;" d="M346.944,256.352L115.2,67.424l40.096-40.096c4.608-4.608,5.984-11.456,3.488-17.44
	C156.32,3.904,150.464,0,144,0H16C7.168,0,0,7.168,0,16v128c0,6.464,3.904,12.32,9.888,14.784C11.872,159.616,13.952,160,16,160
	c4.16,0,8.256-1.632,11.328-4.672l42.4-42.4l236.768,193.056L346.944,256.352z"/>
<path style="fill:#2196F3;" d="M496,0H368c-6.464,0-12.32,3.904-14.784,9.888s-1.088,12.864,3.456,17.44L396.8,67.424
	L165.056,256.352C131.328,283.84,112,324.544,112,368c0,79.392,64.608,144,144,144s144-64.608,144-144
	c0-43.456-19.328-84.128-53.056-111.648c-14.656-11.936-31.744-20.064-49.728-25.184l145.056-118.272l42.4,42.4
	C487.744,158.368,491.84,160,496,160c2.048,0,4.16-0.384,6.112-1.216C508.096,156.32,512,150.464,512,144V16
	C512,7.168,504.832,0,496,0z M256,288c18.656,0,36.096,6.208,50.496,17.952v0.032C325.248,321.28,336,343.872,336,368
	c0,44.128-35.872,80-80,80c-44.096,0-80-35.872-80-80c0-24.16,10.752-46.72,29.504-62.048l0,0l0.16-0.128
	C220.032,294.176,237.408,288,256,288z"/>
<g>
</g>
<g>
</g>
<g>
</g>
<g>
</g>
<g>
</g>
<g>
</g>
<g>
</g>
<g>
</g>
<g>
</g>
<g>
</g>
<g>
</g>
<g>
</g>
<g>
</g>
<g>
</g>
<g>
</g>
</svg>
