<?xml version="1.0" encoding="iso-8859-1"?>
<!-- Generator: Adobe Illustrator 19.0.0, SVG Export Plug-In . SVG Version: 6.00 Build 0)  -->
<svg version="1.1" id="Capa_1" xmlns="http://www.w3.org/2000/svg" xmlns:xlink="http://www.w3.org/1999/xlink" x="0px" y="0px"
	 viewBox="0 0 512 512" style="enable-background:new 0 0 512 512;" xml:space="preserve">
<g>
	<path style="fill:#4CAF50;" d="M244.191,5.184l-176,192c-4.256,4.672-5.408,11.456-2.816,17.248
		c2.528,5.824,8.288,9.568,14.624,9.568h352c6.336,0,12.096-3.744,14.656-9.568c0.896-2.048,1.344-4.256,1.344-6.432
		c0-3.936-1.44-7.808-4.224-10.816l-176-192C264.767,1.856,260.479,0,255.999,0S247.231,1.856,244.191,5.184z"/>
	<path style="fill:#4CAF50;" d="M65.375,297.568c-2.56,5.792-1.44,12.576,2.848,17.248l176,192
		c3.008,3.296,7.296,5.184,11.776,5.184s8.768-1.888,11.808-5.184l176-192c2.752-3.008,4.192-6.912,4.192-10.816
		c0-2.176-0.448-4.384-1.344-6.432c-2.56-5.824-8.32-9.568-14.656-9.568h-352C73.663,288,67.903,291.744,65.375,297.568z"/>
</g>
<g>
</g>
<g>
</g>
<g>
</g>
<g>
</g>
<g>
</g>
<g>
</g>
<g>
</g>
<g>
</g>
<g>
</g>
<g>
</g>
<g>
</g>
<g>
</g>
<g>
</g>
<g>
</g>
<g>
</g>
</svg>
