<?xml version="1.0" encoding="iso-8859-1"?>
<!-- Generator: Adobe Illustrator 19.0.0, SVG Export Plug-In . SVG Version: 6.00 Build 0)  -->
<svg version="1.1" id="Capa_1" xmlns="http://www.w3.org/2000/svg" xmlns:xlink="http://www.w3.org/1999/xlink" x="0px" y="0px"
	 viewBox="0 0 512 512" style="enable-background:new 0 0 512 512;" xml:space="preserve">
<path style="fill:#2196F3;" d="M16,288h240v48c0,6.208,3.584,11.84,9.216,14.496c2.144,0.992,4.48,1.504,6.784,1.504
	c3.68,0,7.328-1.248,10.24-3.712l96-80c3.68-3.04,5.76-7.552,5.76-12.288s-2.08-9.248-5.76-12.288l-96-80
	c-4.768-3.968-11.424-4.832-17.024-2.208C259.584,164.128,256,169.792,256,176v48H16c-8.832,0-16,7.168-16,16v32
	C0,280.832,7.168,288,16,288z"/>
<path style="fill:#607D8B;" d="M480,0H32C14.336,0,0,14.336,0,32v128h64V64h384v384H64v-96H0v128c0,17.696,14.336,32,32,32h448
	c17.696,0,32-14.304,32-32V32C512,14.336,497.696,0,480,0z"/>
<g>
</g>
<g>
</g>
<g>
</g>
<g>
</g>
<g>
</g>
<g>
</g>
<g>
</g>
<g>
</g>
<g>
</g>
<g>
</g>
<g>
</g>
<g>
</g>
<g>
</g>
<g>
</g>
<g>
</g>
</svg>
