<?xml version="1.0" encoding="iso-8859-1"?>
<!-- Generator: Adobe Illustrator 19.0.0, SVG Export Plug-In . SVG Version: 6.00 Build 0)  -->
<svg version="1.1" id="Capa_1" xmlns="http://www.w3.org/2000/svg" xmlns:xlink="http://www.w3.org/1999/xlink" x="0px" y="0px"
	 viewBox="0 0 512 512" style="enable-background:new 0 0 512 512;" xml:space="preserve">
<path style="fill:#FFA000;" d="M506.24,371.7l-96-80c-4.768-4-11.424-4.8-17.024-2.208c-5.632,2.656-9.216,8.288-9.216,14.496v48
	h-26.784c-22.208,0-42.496-11.264-54.272-30.08l-103.616-165.76c-23.52-37.664-64.096-60.16-108.544-60.16H0v64h90.784
	c22.208,0,42.496,11.264,54.272,30.08l103.616,165.76c23.552,37.664,64.128,60.16,108.544,60.16H384v48
	c0,6.208,3.584,11.84,9.216,14.496c2.144,0.992,4.48,1.504,6.784,1.504c3.68,0,7.328-1.248,10.24-3.712l96-80
	c3.68-3.04,5.76-7.552,5.76-12.288S509.92,374.74,506.24,371.7z"/>
<path style="fill:#FFC107;" d="M506.24,115.7l-96-80c-4.768-3.968-11.424-4.8-17.024-2.176C387.584,36.116,384,41.78,384,47.988v48
	h-26.784c-44.448,0-85.024,22.496-108.544,60.16l-103.584,165.76c-11.776,18.816-32.096,30.08-54.304,30.08H0v64h90.784
	c44.416,0,84.992-22.496,108.544-60.16l103.584-165.76c11.808-18.816,32.096-30.08,54.304-30.08H384v48
	c0,6.208,3.584,11.872,9.216,14.496c2.144,0.992,4.48,1.504,6.784,1.504c3.68,0,7.328-1.28,10.24-3.712l96-80
	c3.68-3.04,5.76-7.552,5.76-12.288C512,123.252,509.92,118.74,506.24,115.7z"/>
<g>
</g>
<g>
</g>
<g>
</g>
<g>
</g>
<g>
</g>
<g>
</g>
<g>
</g>
<g>
</g>
<g>
</g>
<g>
</g>
<g>
</g>
<g>
</g>
<g>
</g>
<g>
</g>
<g>
</g>
</svg>
