<?xml version="1.0" encoding="iso-8859-1"?>
<!-- Generator: Adobe Illustrator 19.0.0, SVG Export Plug-In . SVG Version: 6.00 Build 0)  -->
<svg version="1.1" id="Capa_1" xmlns="http://www.w3.org/2000/svg" xmlns:xlink="http://www.w3.org/1999/xlink" x="0px" y="0px"
	 viewBox="0 0 511.969 511.969" style="enable-background:new 0 0 511.969 511.969;" xml:space="preserve">
<g>
	<path style="fill:#F44336;" d="M510.76,249.879c-2.464-5.984-8.32-9.888-14.784-9.888h-16
		c0-117.888-91.552-214.784-207.232-223.392c-9.12-0.672-16.768,7.008-16.768,16.128v64.32c0,8.384,6.592,14.816,14.912,15.808
		c63.584,7.392,113.088,61.6,113.088,127.136h-16c-6.464,0-12.32,3.904-14.784,9.888s-1.088,12.864,3.456,17.44l64,64
		c3.136,3.104,7.232,4.672,11.328,4.672s8.192-1.568,11.328-4.672l64-64C511.848,262.711,513.224,255.863,510.76,249.879z"/>
	<path style="fill:#F44336;" d="M105.096,22.231c-3.968,5.152-4.416,12.16-1.152,17.76l8,13.856
		C9.864,112.791-28.28,240.503,22.12,345.015c3.968,8.224,14.432,11.008,22.336,6.464l55.712-32.16
		c7.264-4.192,9.536-13.12,6.24-20.8c-25.376-58.784-3.2-128.736,53.568-161.504l8,13.856c3.2,5.568,9.472,8.672,15.904,7.84
		c6.432-0.864,11.68-5.472,13.376-11.712l23.424-87.424c1.152-4.256,0.448-8.608-1.6-12.128s-5.44-6.304-9.728-7.456l-87.424-23.456
		C115.688,14.871,109.032,17.111,105.096,22.231z"/>
	<path style="fill:#F44336;" d="M117.32,487.735c6.432,0.864,12.704-2.272,15.936-7.872l8-13.856
		c102.08,58.944,231.776,28.128,297.088-67.776c5.12-7.552,2.304-18.016-5.568-22.56l-55.712-32.16
		c-7.264-4.192-16.128-1.728-21.12,5.024c-38.208,51.36-109.888,67.136-166.656,34.368l8-13.856
		c3.232-5.6,2.784-12.608-1.152-17.728s-10.624-7.392-16.864-5.728l-87.424,23.424c-4.256,1.152-7.68,3.904-9.728,7.456
		s-2.752,7.872-1.6,12.128l23.424,87.424C105.64,482.263,110.888,486.903,117.32,487.735z"/>
</g>
<g>
</g>
<g>
</g>
<g>
</g>
<g>
</g>
<g>
</g>
<g>
</g>
<g>
</g>
<g>
</g>
<g>
</g>
<g>
</g>
<g>
</g>
<g>
</g>
<g>
</g>
<g>
</g>
<g>
</g>
</svg>
