<?xml version="1.0" encoding="iso-8859-1"?>
<!-- Generator: Adobe Illustrator 19.0.0, SVG Export Plug-In . SVG Version: 6.00 Build 0)  -->
<svg version="1.1" id="Capa_1" xmlns="http://www.w3.org/2000/svg" xmlns:xlink="http://www.w3.org/1999/xlink" x="0px" y="0px"
	 viewBox="0 0 511.648 511.648" style="enable-background:new 0 0 511.648 511.648;" xml:space="preserve">
<path style="fill:#4CAF50;" d="M372.615,134.048l-96-128c-6.016-8.064-19.552-8.064-25.6,0l-96,128
	c-3.648,4.864-4.224,11.328-1.504,16.768c2.72,5.408,8.256,8.832,14.304,8.832h48v186.176c0,38.848-26.976,77.92-56.096,114.336
	l-20.384,25.504c-4.192,5.248-4.672,12.576-1.184,18.304c2.944,4.832,8.16,7.68,13.664,7.68c1.024,0,2.08-0.096,3.136-0.32
	c95.296-19.008,156.864-101.792,156.864-210.848V159.648h48c6.048,0,11.584-3.424,14.304-8.832S376.263,138.912,372.615,134.048z"/>
<g>
</g>
<g>
</g>
<g>
</g>
<g>
</g>
<g>
</g>
<g>
</g>
<g>
</g>
<g>
</g>
<g>
</g>
<g>
</g>
<g>
</g>
<g>
</g>
<g>
</g>
<g>
</g>
<g>
</g>
</svg>
