<?xml version="1.0" encoding="iso-8859-1"?>
<!-- Generator: Adobe Illustrator 19.0.0, SVG Export Plug-In . SVG Version: 6.00 Build 0)  -->
<svg version="1.1" id="Capa_1" xmlns="http://www.w3.org/2000/svg" xmlns:xlink="http://www.w3.org/1999/xlink" x="0px" y="0px"
	 viewBox="0 0 512.013 512.013" style="enable-background:new 0 0 512.013 512.013;" xml:space="preserve">
<g>
	<path style="fill:#F44336;" d="M510.502,297.222c-2.656-5.632-8.288-9.216-14.496-9.216h-48v-128c0-35.296-28.704-64-64-64H177.158
		l53.344,64h153.504v128h-48c-6.208,0-11.84,3.584-14.496,9.216c-2.624,5.632-1.792,12.256,2.208,17.024l80,96
		c3.04,3.68,7.552,5.76,12.288,5.76s9.248-2.08,12.288-5.76l80-96C512.294,309.478,513.126,302.854,510.502,297.222z"/>
	<path style="fill:#F44336;" d="M128.006,352.006v-128h48c6.208,0,11.84-3.584,14.496-9.216c2.624-5.632,1.792-12.256-2.208-17.024
		l-80-96c-3.04-3.68-7.52-5.76-12.288-5.76s-9.248,2.08-12.288,5.76l-80,96c-4,4.768-4.832,11.392-2.208,17.024
		c2.656,5.632,8.288,9.216,14.496,9.216h48v128c0,35.296,28.704,64,64,64h206.848l-53.344-64H128.006z"/>
</g>
<g>
</g>
<g>
</g>
<g>
</g>
<g>
</g>
<g>
</g>
<g>
</g>
<g>
</g>
<g>
</g>
<g>
</g>
<g>
</g>
<g>
</g>
<g>
</g>
<g>
</g>
<g>
</g>
<g>
</g>
</svg>
