<?xml version="1.0" encoding="iso-8859-1"?>
<!-- Generator: Adobe Illustrator 19.0.0, SVG Export Plug-In . SVG Version: 6.00 Build 0)  -->
<svg version="1.1" id="Capa_1" xmlns="http://www.w3.org/2000/svg" xmlns:xlink="http://www.w3.org/1999/xlink" x="0px" y="0px"
	 viewBox="0 0 416.004 416.004" style="enable-background:new 0 0 416.004 416.004;" xml:space="preserve">
<g>
	<path style="fill:#FFC107;" d="M25.602,3.204C20.802-0.444,14.274-1.02,8.866,1.7c-5.44,2.72-8.864,8.256-8.864,14.304v384
		c0,6.048,3.424,11.584,8.832,14.304c2.272,1.12,4.736,1.696,7.168,1.696c3.392,0,6.784-1.088,9.6-3.2l256-192
		c4.032-3.008,6.4-7.776,6.4-12.8s-2.368-9.792-6.4-12.8L25.602,3.204z"/>
	<path style="fill:#FFC107;" d="M400.002,0.004h-32c-8.832,0-16,7.168-16,16v384c0,8.832,7.168,16,16,16h32c8.832,0,16-7.168,16-16
		v-384C416.002,7.172,408.834,0.004,400.002,0.004z"/>
</g>
<g>
</g>
<g>
</g>
<g>
</g>
<g>
</g>
<g>
</g>
<g>
</g>
<g>
</g>
<g>
</g>
<g>
</g>
<g>
</g>
<g>
</g>
<g>
</g>
<g>
</g>
<g>
</g>
<g>
</g>
</svg>
