<?xml version="1.0" encoding="iso-8859-1"?>
<!-- Generator: Adobe Illustrator 19.0.0, SVG Export Plug-In . SVG Version: 6.00 Build 0)  -->
<svg version="1.1" id="Capa_1" xmlns="http://www.w3.org/2000/svg" xmlns:xlink="http://www.w3.org/1999/xlink" x="0px" y="0px"
	 viewBox="0 0 512 512" style="enable-background:new 0 0 512 512;" xml:space="preserve">
<path style="fill:#FFC107;" d="M506.72,244.098l-160-144c-4.704-4.224-11.424-5.28-17.216-2.72S320,105.698,320,112.002v80H64
	c-35.36,0-64,28.64-64,64v112c0-26.496,21.504-48,48-48h272v80c0,6.304,3.712,12.032,9.504,14.624
	c2.08,0.896,4.288,1.376,6.496,1.376c3.872,0,7.712-1.408,10.72-4.096l160-144c3.328-3.04,5.28-7.36,5.28-11.904
	S510.048,247.138,506.72,244.098z"/>
<path style="fill:#FFA000;" d="M160,416.002H48c-26.496,0-48-21.504-48-48l0,0c0-26.496,21.504-48,48-48h112V416.002z"/>
<g>
</g>
<g>
</g>
<g>
</g>
<g>
</g>
<g>
</g>
<g>
</g>
<g>
</g>
<g>
</g>
<g>
</g>
<g>
</g>
<g>
</g>
<g>
</g>
<g>
</g>
<g>
</g>
<g>
</g>
</svg>
