<?xml version="1.0" encoding="iso-8859-1"?>
<!-- Generator: Adobe Illustrator 19.0.0, SVG Export Plug-In . SVG Version: 6.00 Build 0)  -->
<svg version="1.1" id="Capa_1" xmlns="http://www.w3.org/2000/svg" xmlns:xlink="http://www.w3.org/1999/xlink" x="0px" y="0px"
	 viewBox="0 0 512 512" style="enable-background:new 0 0 512 512;" xml:space="preserve">
<path style="fill:#2196F3;" d="M462.048,4.704L292.352,174.4L258.4,140.448c-4.384-4.384-10.912-5.824-16.768-3.712
	c-2.24,0.832-4.224,2.112-5.856,3.744c-2.592,2.56-4.288,6.016-4.608,9.856L219.84,274.784c-0.448,4.736,1.28,9.376,4.64,12.736
	c3.36,3.36,8,5.088,12.736,4.64l124.448-11.328c6.176-0.576,11.488-4.672,13.6-10.496s0.672-12.384-3.712-16.768l-33.952-33.92
	L507.296,49.952c6.24-6.24,6.24-16.384,0-22.624L484.672,4.704C478.432-1.568,468.32-1.568,462.048,4.704z"/>
<path style="fill:#607D8B;" d="M32,512h448c17.664,0,32-14.336,32-32V192h-64v256H64V64h256V0H32C14.304,0,0,14.304,0,32v448
	C0,497.664,14.304,512,32,512z"/>
<g>
</g>
<g>
</g>
<g>
</g>
<g>
</g>
<g>
</g>
<g>
</g>
<g>
</g>
<g>
</g>
<g>
</g>
<g>
</g>
<g>
</g>
<g>
</g>
<g>
</g>
<g>
</g>
<g>
</g>
</svg>
