<?xml version="1.0" encoding="iso-8859-1"?>
<!-- Generator: Adobe Illustrator 19.0.0, SVG Export Plug-In . SVG Version: 6.00 Build 0)  -->
<svg version="1.1" id="Capa_1" xmlns="http://www.w3.org/2000/svg" xmlns:xlink="http://www.w3.org/1999/xlink" x="0px" y="0px"
	 viewBox="0 0 512.024 512.024" style="enable-background:new 0 0 512.024 512.024;" xml:space="preserve">
<g>
	<path style="fill:#FFC107;" d="M98.572,295.372c-15.04-72,40-135.36,109.44-135.36h16v48c0,6.4,3.84,12.16,9.92,14.72
		s12.8,1.28,17.28-3.52l96-96c6.4-6.08,6.4-16.32,0-22.4l-96-96c-4.48-4.8-11.2-6.08-17.28-3.52s-9.92,8.32-9.92,14.72v48h-16
		c-123.52,0-222.72,108.8-206.08,235.52c6.368,49.536,30.592,92.256,65.76,123.904c6.208,5.6,15.936,4.96,21.856-0.96l44.48-44.48
		c6.368-6.368,6.432-16.896-0.352-22.816C116.14,339.948,103.5,319.436,98.572,295.372z"/>
	<path style="fill:#FFC107;" d="M510.092,212.492c-6.368-49.536-30.592-92.288-65.76-123.904c-6.208-5.6-15.936-4.96-21.856,0.96
		l-44.48,44.48c-6.368,6.368-6.432,16.896,0.352,22.816c17.504,15.264,30.176,35.776,35.104,59.808
		c15.04,72-40,135.36-109.44,135.36h-16v-48c0-6.4-3.84-12.16-9.92-14.72s-12.8-1.28-17.28,3.52l-96,96c-6.4,6.08-6.4,16.32,0,22.4
		l96,96c4.48,4.8,11.2,6.08,17.28,3.52c6.08-2.56,9.92-8.32,9.92-14.72v-48h16C427.532,448.012,526.732,339.212,510.092,212.492z"/>
</g>
<g>
</g>
<g>
</g>
<g>
</g>
<g>
</g>
<g>
</g>
<g>
</g>
<g>
</g>
<g>
</g>
<g>
</g>
<g>
</g>
<g>
</g>
<g>
</g>
<g>
</g>
<g>
</g>
<g>
</g>
</svg>
