<?xml version="1.0" encoding="iso-8859-1"?>
<!-- Generator: Adobe Illustrator 19.0.0, SVG Export Plug-In . SVG Version: 6.00 Build 0)  -->
<svg version="1.1" id="Capa_1" xmlns="http://www.w3.org/2000/svg" xmlns:xlink="http://www.w3.org/1999/xlink" x="0px" y="0px"
	 viewBox="0 0 512.016 512.016" style="enable-background:new 0 0 512.016 512.016;" xml:space="preserve">
<g>
	<path style="fill:#2196F3;" d="M16.008,255.992h64c8.832,0,16-7.168,16-16c0-44.192,35.808-80,80-80h208v48
		c0,6.464,3.904,12.32,9.888,14.784c5.984,2.496,12.864,1.12,17.44-3.456l96-96c6.24-6.24,6.24-16.384,0-22.624l-96-96
		c-4.576-4.576-11.456-5.952-17.44-3.456s-9.888,8.288-9.888,14.752v48l0,0h-208c-97.216,0-176,78.784-176,176
		C0.008,248.824,7.176,255.992,16.008,255.992z"/>
	<path style="fill:#2196F3;" d="M496.008,255.992h-64c-8.832,0-16,7.168-16,16c0,44.192-35.808,80-80,80h-208l0,0v-48
		c0-6.464-3.904-12.32-9.888-14.784s-12.832-1.088-17.44,3.488l-96,96c-6.24,6.24-6.24,16.384,0,22.624l96,96
		c4.576,4.576,11.456,5.952,17.44,3.456s9.888-8.32,9.888-14.784v-48l0,0h208c97.216,0,176-78.784,176-176
		C512.008,263.16,504.84,255.992,496.008,255.992z"/>
</g>
<g>
</g>
<g>
</g>
<g>
</g>
<g>
</g>
<g>
</g>
<g>
</g>
<g>
</g>
<g>
</g>
<g>
</g>
<g>
</g>
<g>
</g>
<g>
</g>
<g>
</g>
<g>
</g>
<g>
</g>
</svg>
