<?xml version="1.0" encoding="iso-8859-1"?>
<!-- Generator: Adobe Illustrator 19.0.0, SVG Export Plug-In . SVG Version: 6.00 Build 0)  -->
<svg version="1.1" id="Capa_1" xmlns="http://www.w3.org/2000/svg" xmlns:xlink="http://www.w3.org/1999/xlink" x="0px" y="0px"
	 viewBox="0 0 512 512" style="enable-background:new 0 0 512 512;" xml:space="preserve">
<path style="fill:#FFC107;" d="M176,272.16h48v-240c0-8.832,7.168-16,16-16h32c8.832,0,16,7.168,16,16v240h48
	c6.208,0,11.84,3.584,14.496,9.216c2.624,5.632,1.76,12.256-2.208,17.024l-80,96c-6.08,7.296-18.496,7.296-24.608,0l-80-96
	c-3.936-4.8-4.8-11.424-2.176-17.024C164.128,275.744,169.792,272.16,176,272.16z"/>
<path style="fill:#607D8B;" d="M480,175.84H352v64h96v192H64v-192h96v-64H32c-17.664,0-32,14.336-32,32v256
	c0,17.696,14.336,32,32,32h448c17.696,0,32-14.304,32-32v-256C512,190.176,497.696,175.84,480,175.84z"/>
<g>
</g>
<g>
</g>
<g>
</g>
<g>
</g>
<g>
</g>
<g>
</g>
<g>
</g>
<g>
</g>
<g>
</g>
<g>
</g>
<g>
</g>
<g>
</g>
<g>
</g>
<g>
</g>
<g>
</g>
</svg>
