<?xml version="1.0" encoding="iso-8859-1"?>
<!-- Generator: Adobe Illustrator 19.0.0, SVG Export Plug-In . SVG Version: 6.00 Build 0)  -->
<svg version="1.1" id="Capa_1" xmlns="http://www.w3.org/2000/svg" xmlns:xlink="http://www.w3.org/1999/xlink" x="0px" y="0px"
	 viewBox="0 0 511.996 511.996" style="enable-background:new 0 0 511.996 511.996;" xml:space="preserve">
<g>
	<path style="fill:#FFC107;" d="M415.996,232.007c0-4.544-1.952-8.864-5.28-11.904l-160-144c-4.704-4.224-11.456-5.312-17.248-2.72
		c-5.76,2.592-9.472,8.32-9.472,14.624v80.448c-114.752,6.432-202.432,81.952-215.68,188.064l-8.192,65.472
		c-0.928,7.456,3.424,14.56,10.528,17.056c1.76,0.64,3.552,0.96,5.344,0.96c5.376,0,10.592-2.752,13.568-7.52l16.096-25.792
		c31.936-51.072,95.84-110.688,170.88-110.688h7.456v80c0,6.304,3.712,12.032,9.472,14.624c5.792,2.496,12.512,1.536,17.216-2.72
		l160-144C414.044,240.871,415.996,236.551,415.996,232.007z"/>
	<path style="fill:#FFC107;" d="M506.716,220.103l-160-144c-6.56-5.888-16.672-5.344-22.624,1.184
		c-5.92,6.592-5.376,16.704,1.184,22.624l146.816,132.096L325.276,364.103c-6.56,5.952-7.104,16.032-1.184,22.624
		c3.2,3.488,7.52,5.28,11.904,5.28c3.808,0,7.648-1.344,10.72-4.096l160-144c3.328-3.04,5.28-7.36,5.28-11.904
		S510.044,223.143,506.716,220.103z"/>
</g>
<g>
</g>
<g>
</g>
<g>
</g>
<g>
</g>
<g>
</g>
<g>
</g>
<g>
</g>
<g>
</g>
<g>
</g>
<g>
</g>
<g>
</g>
<g>
</g>
<g>
</g>
<g>
</g>
<g>
</g>
</svg>
