<?xml version="1.0" encoding="iso-8859-1"?>
<!-- Generator: Adobe Illustrator 19.0.0, SVG Export Plug-In . SVG Version: 6.00 Build 0)  -->
<svg version="1.1" id="Capa_1" xmlns="http://www.w3.org/2000/svg" xmlns:xlink="http://www.w3.org/1999/xlink" x="0px" y="0px"
	 viewBox="0 0 464.008 464.008" style="enable-background:new 0 0 464.008 464.008;" xml:space="preserve">
<path style="fill:#607D8B;" d="M448.008,0h-192c-8.832,0-16,7.168-16,16v192c0,8.832,7.168,16,16,16h192c8.832,0,16-7.168,16-16V16
	C464.008,7.168,456.84,0,448.008,0z"/>
<path style="fill:#FFC107;" d="M49.224,265.888c-2.464,5.92-1.12,12.832,3.456,17.44l41.376,41.376L4.68,414.08
	c-6.24,6.24-6.24,16.384,0,22.624l22.624,22.624c6.24,6.24,16.384,6.24,22.624,0l89.376-89.376l41.376,41.376
	c4.576,4.576,11.456,5.952,17.44,3.456s9.888-8.32,9.888-14.784V272c0-8.832-7.168-16-16-16h-128
	C57.544,256,51.688,259.904,49.224,265.888z"/>
<g>
</g>
<g>
</g>
<g>
</g>
<g>
</g>
<g>
</g>
<g>
</g>
<g>
</g>
<g>
</g>
<g>
</g>
<g>
</g>
<g>
</g>
<g>
</g>
<g>
</g>
<g>
</g>
<g>
</g>
</svg>
