<?xml version="1.0" encoding="iso-8859-1"?>
<!-- Generator: Adobe Illustrator 19.0.0, SVG Export Plug-In . SVG Version: 6.00 Build 0)  -->
<svg version="1.1" id="Capa_1" xmlns="http://www.w3.org/2000/svg" xmlns:xlink="http://www.w3.org/1999/xlink" x="0px" y="0px"
	 viewBox="0 0 511.98 511.98" style="enable-background:new 0 0 511.98 511.98;" xml:space="preserve">
<path style="fill:#2196F3;" d="M270.23,287.99c-7.36,0-14.016,4.992-15.424,12.224c-5.696,29.472-31.68,51.776-62.816,51.776
	c-35.296,0-64-28.704-64-64h48c6.208,0,11.872-3.616,14.496-9.248c2.656-5.632,1.792-12.288-2.176-17.056l-80-96.224
	c-6.4-7.68-18.208-7.68-24.608,0l-80,96.224c-3.968,4.8-4.832,11.456-2.176,17.056c2.592,5.632,8.256,9.248,14.464,9.248h48
	c0,70.592,57.408,128,128,128c64.192,0,117.504-47.488,126.624-109.184c1.44-9.824-5.984-18.816-15.936-18.816H270.23z"/>
<path style="fill:#1976D2;" d="M241.75,223.99c7.36,0,14.016-4.992,15.424-12.224c5.696-29.472,31.68-51.776,62.816-51.776
	c35.296,0,64,28.704,64,64h-48c-6.208,0-11.872,3.616-14.496,9.248c-2.656,5.632-1.792,12.288,2.176,17.056l80,96.224
	c6.4,7.68,18.208,7.68,24.608,0l80-96.224c3.968-4.8,4.832-11.456,2.176-17.056c-2.592-5.632-8.256-9.248-14.464-9.248h-48
	c0-70.592-57.408-128-128-128c-64.192,0-117.504,47.488-126.624,109.184c-1.44,9.824,5.984,18.816,15.936,18.816H241.75z"/>
<g>
</g>
<g>
</g>
<g>
</g>
<g>
</g>
<g>
</g>
<g>
</g>
<g>
</g>
<g>
</g>
<g>
</g>
<g>
</g>
<g>
</g>
<g>
</g>
<g>
</g>
<g>
</g>
<g>
</g>
</svg>
