<?xml version="1.0" encoding="iso-8859-1"?>
<!-- Generator: Adobe Illustrator 19.0.0, SVG Export Plug-In . SVG Version: 6.00 Build 0)  -->
<svg version="1.1" id="Capa_1" xmlns="http://www.w3.org/2000/svg" xmlns:xlink="http://www.w3.org/1999/xlink" x="0px" y="0px"
	 viewBox="0 0 511.997 511.997" style="enable-background:new 0 0 511.997 511.997;" xml:space="preserve">
<path style="fill:#F44336;" d="M507.185,251.205l-96,96c-6.08,6.4-16.32,6.4-22.4,0l-96-96c-4.8-4.48-6.08-11.2-3.52-17.28
	s8.32-9.92,14.72-9.92h43.52c-15.04-60.448-70.496-101.216-135.712-95.456c-57.664,5.088-106.208,51.2-114.432,108.512
	c-11.36,79.136,49.664,146.944,126.624,146.944c27.936,0,54.272-8.96,75.872-25.152c6.624-4.96,15.648-4.928,21.504,0.928
	l45.536,45.536c6.496,6.496,6.464,17.44-0.576,23.36c-37.184,31.168-83.392,49.12-132.928,51.136
	C110.801,484.805,3.345,384.709,0.081,262.053C-3.279,135.781,98.449,32.005,223.985,32.005c112.96,0,206.08,81.6,221.76,192h50.24
	c6.4,0,12.16,3.84,14.72,9.92C513.265,240.005,511.985,246.725,507.185,251.205z"/>
<g>
</g>
<g>
</g>
<g>
</g>
<g>
</g>
<g>
</g>
<g>
</g>
<g>
</g>
<g>
</g>
<g>
</g>
<g>
</g>
<g>
</g>
<g>
</g>
<g>
</g>
<g>
</g>
<g>
</g>
</svg>
