<?xml version="1.0" encoding="UTF-8" standalone="no"?>
<svg
   xmlns:dc="http://purl.org/dc/elements/1.1/"
   xmlns:cc="http://creativecommons.org/ns#"
   xmlns:rdf="http://www.w3.org/1999/02/22-rdf-syntax-ns#"
   xmlns:svg="http://www.w3.org/2000/svg"
   xmlns="http://www.w3.org/2000/svg"
   xmlns:sodipodi="http://sodipodi.sourceforge.net/DTD/sodipodi-0.dtd"
   xmlns:inkscape="http://www.inkscape.org/namespaces/inkscape"
   version="1.1"
   id="Capa_1"
   x="0px"
   y="0px"
   viewBox="0 0 576.99999 511.99999"
   xml:space="preserve"
   sodipodi:docname="reload_centered.svg"
   width="577"
   height="512"
   inkscape:version="1.0.2 (1.0.2+r75+1)"><metadata
   id="metadata39"><rdf:RDF><cc:Work
       rdf:about=""><dc:format>image/svg+xml</dc:format><dc:type
         rdf:resource="http://purl.org/dc/dcmitype/StillImage" /><dc:title></dc:title></cc:Work></rdf:RDF></metadata><defs
   id="defs37" /><sodipodi:namedview
   pagecolor="#ffffff"
   bordercolor="#666666"
   borderopacity="1"
   objecttolerance="10"
   gridtolerance="10"
   guidetolerance="10"
   inkscape:pageopacity="0"
   inkscape:pageshadow="2"
   inkscape:window-width="1920"
   inkscape:window-height="1056"
   id="namedview35"
   showgrid="false"
   fit-margin-left="0"
   inkscape:zoom="1.1642471"
   inkscape:cx="110.59111"
   inkscape:cy="295.19809"
   inkscape:window-x="0"
   inkscape:window-y="0"
   inkscape:window-maximized="1"
   inkscape:current-layer="Capa_1" />
<path
   style="fill:#f44336"
   d="m 571.185,251.205 -96,96 c -6.08,6.4 -16.32,6.4 -22.4,0 l -96,-96 c -4.8,-4.48 -6.08,-11.2 -3.52,-17.28 2.56,-6.08 8.32,-9.92 14.72,-9.92 h 43.52 c -15.04,-60.448 -70.496,-101.216 -135.712,-95.456 -57.664,5.088 -106.208,51.2 -114.432,108.512 -11.36,79.136 49.664,146.944 126.624,146.944 27.936,0 54.272,-8.96 75.872,-25.152 6.624,-4.96 15.648,-4.928 21.504,0.928 l 45.536,45.536 c 6.496,6.496 6.464,17.44 -0.576,23.36 -37.184,31.168 -83.392,49.12 -132.928,51.136 C 174.801,484.805 67.345,384.709 64.081,262.053 60.721,135.781 162.449,32.005 287.985,32.005 c 112.96,0 206.08,81.6 221.76,192 h 50.24 c 6.4,0 12.16,3.84 14.72,9.92 2.56,6.08 1.28,12.8 -3.52,17.28 z"
   id="path2"
   inkscape:transform-center-x="-37.000376"
   inkscape:transform-center-y="-3.7504229" />
<g
   id="g4">
</g>
<g
   id="g6">
</g>
<g
   id="g8">
</g>
<g
   id="g10">
</g>
<g
   id="g12">
</g>
<g
   id="g14">
</g>
<g
   id="g16">
</g>
<g
   id="g18">
</g>
<g
   id="g20">
</g>
<g
   id="g22">
</g>
<g
   id="g24">
</g>
<g
   id="g26">
</g>
<g
   id="g28">
</g>
<g
   id="g30">
</g>
<g
   id="g32">
</g>
</svg>
